<?xml version="1.0" encoding="UTF-8" standalone="no"?>
<!-- Created with Inkscape (http://www.inkscape.org/) -->
<svg
   xmlns:svg="http://www.w3.org/2000/svg"
   xmlns="http://www.w3.org/2000/svg"
   version="1.0"
   width="900"
   height="899.815"
   id="svg2">
  <defs
     id="defs5" />
  <path
     d="M 60.21275,4.5422856 C 59.586904,33.247969 36.169488,56.367551 7.4164019,56.367551 C 7.1886992,56.367551 6.9443428,56.370436 6.7173161,56.367551 C 6.7173161,56.367551 60.21275,101.30201 60.21275,130.55181 C 60.21278,159.80161 36.562369,183.5362 7.4164019,183.5362 C 7.1886992,183.5362 6.9443428,183.5391 6.7173161,183.5362 C 6.7173161,183.5362 60.21275,228.47067 60.21275,257.72046 C 60.21278,286.97026 36.562369,310.70486 7.4164019,310.70486 C 7.1886992,310.70486 6.9443428,310.70775 6.7173161,310.70486 C 6.7173161,310.70486 60.21275,355.63934 60.21275,384.88912 C 60.21278,414.13893 36.562369,437.87352 7.4164019,437.87352 C 7.1886992,437.87352 6.9443428,437.87642 6.7173161,437.87352 C 6.7173161,437.87352 60.21275,482.80799 60.21275,512.05778 C 60.21278,541.30759 36.562369,565.04217 7.4164019,565.04217 C 7.1886992,565.04217 6.9443428,565.04506 6.7173161,565.04217 C 6.7173161,565.04217 60.21275,609.97665 60.21275,639.22644 C 60.21278,668.47617 36.562369,692.21079 7.4164019,692.21079 C 7.1886992,692.21079 6.9443428,692.21367 6.7173161,692.21079 C 6.7173161,692.21079 60.21275,737.14531 60.21275,766.39504 C 60.21278,795.64487 36.562369,819.40995 7.4164019,819.40995 C 7.1886992,819.40995 6.9443428,819.38237 6.7173161,819.37949 C 6.7173161,819.37949 60.21275,864.34444 60.21275,893.59427 C 60.21275,895.70294 60.087096,897.77232 59.848003,899.81693 L 81.671706,899.81693 C 81.432753,897.77292 81.337361,895.70235 81.337361,893.59427 C 81.337331,864.34444 104.98774,840.57927 134.13369,840.57927 C 163.27968,840.57937 186.93004,864.34444 186.93004,893.59427 C 186.93004,895.70294 186.80439,897.77232 186.5653,899.81693 L 208.389,899.81693 C 208.15005,897.77292 208.05465,895.70235 208.05465,893.59427 C 208.05468,864.34444 231.70502,840.57927 260.85098,840.57927 C 289.99693,840.57937 313.64731,864.34444 313.64731,893.59427 C 313.64731,895.70235 313.55192,897.77292 313.31297,899.81693 L 335.13668,899.81693 C 334.89759,897.77232 334.77193,895.70294 334.77193,893.59427 C 334.77192,864.34444 358.4223,840.57927 387.56827,840.57927 C 416.71423,840.57937 440.36459,864.34444 440.36459,893.59427 C 440.36459,895.70235 440.2692,897.77292 440.03026,899.81693 L 461.85395,899.81693 C 461.61487,897.77232 461.48921,895.70294 461.48921,893.59427 C 461.4892,864.34444 485.1396,840.57927 514.28555,840.57927 C 543.43152,840.57937 567.08189,864.34444 567.08189,893.59427 C 567.08189,895.70235 566.98649,897.77292 566.74754,899.81693 L 588.57124,899.81693 C 588.3323,897.77292 588.2065,895.70235 588.2065,893.59427 C 588.20649,864.34444 611.85688,840.57927 641.00284,840.57927 C 670.14879,840.57937 693.82957,864.34444 693.82957,893.59427 C 693.82957,895.70235 693.70379,897.77292 693.46483,899.81693 L 715.28851,899.81693 C 715.04958,897.77292 714.92375,895.70235 714.92375,893.59427 C 714.92375,864.34444 738.60455,840.57927 767.75055,840.57927 C 796.89645,840.57937 820.54686,864.34444 820.54686,893.59427 C 820.54686,895.70235 820.42104,897.77292 820.1821,899.81693 L 842.00585,899.81693 C 841.76691,897.77292 841.67148,895.70235 841.67148,893.59427 C 841.67148,864.34444 865.32189,840.57927 894.46779,840.57927 C 896.34133,840.57927 898.17643,840.69307 899.99972,840.88436 L 899.99972,819.10499 C 898.17643,819.29629 896.34133,819.40995 894.46779,819.40995 C 865.32189,819.40995 841.67148,795.64487 841.67148,766.39504 C 841.67148,737.14531 865.32189,713.4107 894.46779,713.4107 C 896.34073,713.4107 898.17692,713.494 899.99972,713.6852 L 899.99972,691.93628 C 898.17692,692.12748 896.34073,692.21079 894.46779,692.21079 C 865.32189,692.21079 841.67148,668.47627 841.67148,639.22644 C 841.67148,609.97662 865.32189,586.24204 894.46779,586.24204 C 896.34073,586.24204 898.17692,586.32534 899.99972,586.51657 L 899.99972,564.76764 C 898.17692,564.95886 896.34073,565.04217 894.46779,565.04217 C 865.32189,565.04216 841.67148,541.30758 841.67148,512.05778 C 841.67148,482.808 865.32189,459.07338 894.46779,459.07338 C 896.34073,459.07338 898.17692,459.15669 899.99972,459.34791 L 899.99972,437.599 C 898.17692,437.7902 896.34073,437.87352 894.46779,437.87352 C 865.32189,437.87351 841.67148,414.13893 841.67148,384.88912 C 841.67148,355.63934 865.32189,331.90472 894.46779,331.90472 C 896.34073,331.90472 898.17692,331.98803 899.99972,332.17925 L 899.99972,310.43033 C 898.17692,310.62154 896.34073,310.70486 894.46779,310.70486 C 865.32189,310.70487 841.67148,286.97027 841.67148,257.72046 C 841.67148,228.47066 865.32189,204.73607 894.46779,204.73607 C 896.34073,204.73607 898.17692,204.81938 899.99972,205.0106 L 899.99972,183.26168 C 898.17692,183.45289 896.34073,183.5362 894.46779,183.5362 C 865.32189,183.5362 841.67148,159.80161 841.67148,130.55181 C 841.67148,101.30201 865.32189,77.567394 894.46779,77.567394 C 896.34073,77.567394 898.17692,77.650715 899.99972,77.841945 L 899.99972,56.09302 C 898.17692,56.284231 896.34073,56.367551 894.46779,56.367551 C 865.71515,56.367551 842.29801,33.247373 841.67148,4.5422856 L 820.51647,4.5422856 C 819.88994,33.247373 796.50318,56.367551 767.75055,56.367551 C 738.99791,56.367551 715.58067,33.247373 714.95414,4.5422856 L 693.79917,4.5422856 C 693.17265,33.247373 669.75549,56.367551 641.00284,56.367551 C 612.25018,56.367551 588.86342,33.247373 588.2369,4.5422856 L 567.08189,4.5422856 C 566.45535,33.247373 543.0382,56.367551 514.28555,56.367551 C 485.53246,56.367551 462.11509,33.247969 461.48921,4.5422856 L 440.36459,4.5422856 C 439.73808,33.247373 416.32091,56.367551 387.56827,56.367551 C 358.81517,56.367551 335.3978,33.247969 334.77193,4.5422856 L 313.64731,4.5422856 C 313.02076,33.247373 289.60363,56.367551 260.85098,56.367551 C 232.09832,56.367551 208.68118,33.247373 208.05465,4.5422856 L 186.93004,4.5422856 C 186.30419,33.247969 162.88676,56.367551 134.13369,56.367551 C 105.38107,56.367551 81.963889,33.247373 81.337361,4.5422856 L 60.21275,4.5422856 z "
     style="color:#000000;fill:#cfcecc;fill-opacity:1;fill-rule:nonzero;stroke:none;stroke-width:0.4900378;stroke-linecap:butt;stroke-linejoin:miter;marker:none;marker-start:none;marker-mid:none;marker-end:none;stroke-miterlimit:4;stroke-dasharray:none;stroke-dashoffset:0;stroke-opacity:1;visibility:visible;display:inline;overflow:visible"
     id="path5450" />
  <path
     d="M 53.528744,0.060573812 C 52.903238,28.750635 29.498564,51.857633 0.76112344,51.857633 C 0.53354486,51.857633 0.28932145,51.860518 0.062417795,51.857633 L 0.062417795,73.045947 C 0.28932145,73.043072 0.53354486,73.045947 0.76112344,73.045947 C 29.891201,73.045947 53.528744,96.767651 53.528744,126.00153 C 53.528774,155.23542 29.891231,178.95709 0.76112344,178.95709 C 0.53354486,178.95709 0.28932145,178.95998 0.062417795,178.95709 L 0.062417795,200.14542 C 0.28932145,200.14254 0.53354486,200.14542 0.76112344,200.14542 C 29.891201,200.14542 53.528744,223.86711 53.528744,253.10099 C 53.528774,282.33487 29.891231,306.05656 0.76112344,306.05656 C 0.53354486,306.05656 0.28932145,306.05944 0.062417795,306.05656 L 0.062417795,327.24488 C 0.28932145,327.24199 0.53354486,327.24488 0.76112344,327.24488 C 29.891201,327.24488 53.528744,350.96658 53.528744,380.20045 C 53.528774,409.43434 29.891231,433.15602 0.76112344,433.15602 C 0.53354486,433.15602 0.28932145,433.15892 0.062417795,433.15602 L 0.062417795,454.34435 C 0.28932145,454.34146 0.53354486,454.34435 0.76112344,454.34435 C 29.891201,454.34435 53.528744,478.06604 53.528744,507.29991 C 53.528774,536.5338 29.891231,560.25548 0.76112344,560.25548 C 0.53354486,560.25548 0.28932145,560.25836 0.062417795,560.25548 L 0.062417795,581.4438 C 0.28932145,581.44092 0.53354486,581.4438 0.76112344,581.4438 C 29.891201,581.4438 53.528744,605.16551 53.528744,634.39937 C 53.528774,663.63322 29.891231,687.35494 0.76112344,687.35494 C 0.53354486,687.35494 0.28932145,687.35783 0.062417795,687.35494 L 0.062417795,708.54327 C 0.28932145,708.54037 0.53354486,708.54327 0.76112344,708.54327 C 29.891201,708.54329 53.528744,732.26495 53.528744,761.49883 C 53.528774,790.73275 29.891231,814.48489 0.76112344,814.48489 C 0.53354486,814.48489 0.28932145,814.45728 0.062417795,814.4544 L 0.062417795,835.67321 C 0.28932145,835.67032 0.53354486,835.64272 0.76112344,835.64272 C 29.891201,835.64273 53.528744,859.39491 53.528744,888.62879 C 53.528744,890.73637 53.403158,892.80455 53.164196,894.84807 L 74.976025,894.84807 C 74.737206,892.80515 74.641861,890.73577 74.641861,888.62879 C 74.641832,859.39492 98.279369,835.64272 127.40947,835.64272 C 156.5396,835.64273 180.17708,859.39491 180.17708,888.62879 C 180.17708,890.73637 180.05149,892.80455 179.81254,894.84807 L 201.62436,894.84807 C 201.38555,892.80515 201.29019,890.73577 201.29019,888.62879 C 201.29022,859.39492 224.92771,835.64272 254.0578,835.64272 C 283.18789,835.64273 306.82541,859.39491 306.82541,888.62879 C 306.82541,890.73577 306.73007,892.80515 306.49125,894.84807 L 328.30308,894.84807 C 328.06413,892.80455 327.93853,890.73637 327.93853,888.62879 C 327.93852,859.39492 351.57603,835.64272 380.70614,835.64272 C 409.83624,835.64273 433.47374,859.39491 433.47374,888.62879 C 433.47374,890.73577 433.3784,892.80515 433.13959,894.84807 L 454.95141,894.84807 C 454.71245,892.80455 454.58687,890.73637 454.58687,888.62879 C 454.58686,859.39492 478.22438,835.64272 507.35447,835.64272 C 536.48458,835.64273 560.12209,859.39491 560.12209,888.62879 C 560.12209,890.73577 560.02674,892.80515 559.78791,894.84807 L 581.59975,894.84807 C 581.36093,892.80515 581.23521,890.73577 581.23521,888.62879 C 581.2352,859.39492 604.87271,835.64272 634.00281,835.64272 C 663.13292,835.64273 686.8008,859.39491 686.8008,888.62879 C 686.8008,890.73577 686.67509,892.80515 686.43625,894.84807 L 708.24807,894.84807 C 708.00926,892.80515 707.88353,890.73577 707.88353,888.62879 C 707.88353,859.39492 731.55143,835.64272 760.68152,835.64272 C 789.81163,835.64273 813.44914,859.39491 813.44914,888.62879 C 813.44914,890.73577 813.3234,892.80515 813.08459,894.84807 L 834.89642,894.84807 C 834.6576,892.80515 834.56225,890.73577 834.56225,888.62879 C 834.56225,859.39492 858.19976,835.64272 887.32987,835.64272 C 889.20237,835.64272 891.03642,835.75636 892.85877,835.94759 L 892.85877,814.18002 C 891.03642,814.37126 889.20237,814.48489 887.32987,814.48489 C 858.19976,814.48487 834.56225,790.73272 834.56225,761.49883 C 834.56225,732.26499 858.19976,708.54327 887.32987,708.54327 C 889.2018,708.54327 891.03698,708.62654 892.85877,708.81764 L 892.85877,687.08055 C 891.03698,687.27168 889.2018,687.35494 887.32987,687.35494 C 858.19976,687.35492 834.56225,663.63325 834.56225,634.39937 C 834.56225,605.16548 858.19976,581.4438 887.32987,581.4438 C 889.2018,581.4438 891.03698,581.52706 892.85877,581.71818 L 892.85877,559.9811 C 891.03698,560.17222 889.2018,560.25548 887.32987,560.25548 C 858.19976,560.25547 834.56225,536.53379 834.56225,507.29991 C 834.56225,478.06605 858.19976,454.34435 887.32987,454.34435 C 889.2018,454.34435 891.03698,454.42761 892.85877,454.61873 L 892.85877,432.88165 C 891.03698,433.07275 889.2018,433.15602 887.32987,433.15602 C 858.19976,433.15601 834.56225,409.43434 834.56225,380.20045 C 834.56225,350.96658 858.19976,327.24488 887.32987,327.24488 C 889.2018,327.24488 891.03698,327.32814 892.85877,327.51926 L 892.85877,305.78217 C 891.03698,305.97328 889.2018,306.05656 887.32987,306.05656 C 858.19976,306.05657 834.56225,282.33488 834.56225,253.10099 C 834.56225,223.8671 858.19976,200.14542 887.32987,200.14542 C 889.2018,200.14542 891.03698,200.22868 892.85877,200.41981 L 892.85877,178.68272 C 891.03698,178.87383 889.2018,178.95709 887.32987,178.95709 C 858.19976,178.95709 834.56225,155.23542 834.56225,126.00153 C 834.56225,96.767651 858.19976,73.045947 887.32987,73.045947 C 889.2018,73.045947 891.03698,73.129218 892.85877,73.320349 L 892.85877,51.583251 C 891.03698,51.774363 889.2018,51.857633 887.32987,51.857633 C 858.59284,51.857633 835.18844,28.750038 834.56225,0.060573812 L 813.41875,0.060573812 C 812.79257,28.750038 789.41854,51.857633 760.68152,51.857633 C 731.94451,51.857633 708.54011,28.750038 707.91392,0.060573812 L 686.77042,0.060573812 C 686.14424,28.750038 662.73982,51.857633 634.00281,51.857633 C 605.2658,51.857633 581.89177,28.750038 581.26559,0.060573812 L 560.12209,0.060573812 C 559.49589,28.750038 536.09148,51.857633 507.35447,51.857633 C 478.61704,51.857633 455.21239,28.750635 454.58687,0.060573812 L 433.47374,0.060573812 C 432.84757,28.750038 409.44315,51.857633 380.70614,51.857633 C 351.96869,51.857633 328.56406,28.750635 327.93853,0.060573812 L 306.82541,0.060573812 C 306.1992,28.750038 282.79482,51.857633 254.0578,51.857633 C 225.32079,51.857633 201.91638,28.750038 201.29019,0.060573812 L 180.17708,0.060573812 C 179.55157,28.750635 156.14691,51.857633 127.40947,51.857633 C 98.672481,51.857633 75.268049,28.750038 74.641861,0.060573812 L 53.528744,0.060573812 z "
     style="color:#000000;fill:#ffffff;fill-opacity:1;fill-rule:nonzero;stroke:#000000;stroke-width:0.10001003;stroke-linecap:butt;stroke-linejoin:miter;marker:none;marker-start:none;marker-mid:none;marker-end:none;stroke-miterlimit:4;stroke-dasharray:none;stroke-dashoffset:0;stroke-opacity:1;visibility:visible;display:inline;overflow:visible"
     id="rect1363" />
  <rect
     width="726.44305"
     height="691.3324"
     x="86.77829"
     y="104.24132"
     style="color:#000000;fill:none;fill-opacity:1;fill-rule:nonzero;stroke:#000000;stroke-width:7.94913912;stroke-linecap:butt;stroke-linejoin:miter;marker:none;marker-start:none;marker-mid:none;marker-end:none;stroke-miterlimit:4;stroke-dasharray:none;stroke-dashoffset:0;stroke-opacity:1;visibility:visible;display:inline;overflow:visible"
     id="rect7338" />
  <path
     d="M 442.23567,670.56832 C 439.04613,668.83338 434.98771,664.70735 433.21686,661.39935 C 430.00761,655.40392 430.14954,654.45159 436.52082,639.22774 C 437.63575,636.56425 436.17775,633.75167 431.78627,630.09308 C 413.57131,614.91816 411.23584,608.90222 418.67274,596.31508 L 422.43029,589.9552 L 430.66435,594.66258 C 441.57674,600.90113 441.25948,600.52326 438.17526,603.60691 C 433.89249,607.88861 435.00232,615.28984 441.18246,623.66506 C 447.58355,632.33945 448.30889,640.31641 443.46662,648.78534 C 439.19786,656.25125 439.19786,663.51261 443.46662,667.05463 C 445.62715,668.84735 446.89281,669.00043 446.89281,667.46903 C 446.89281,666.13336 445.8649,664.4054 444.60865,663.62914 C 441.01073,661.40584 441.92301,655.7253 446.89281,649.40849 C 452.95783,641.69971 452.65306,635.19316 445.75068,625.02416 C 435.79338,610.35392 439.80908,599.15208 452.88971,605.11077 C 458.39632,607.61925 458.57976,608.40591 458.15007,627.67667 C 457.8118,642.85696 456.69718,649.07669 453.50033,653.62198 C 451.18757,656.91013 449.05014,662.8191 448.75048,666.75303 C 448.45052,670.68696 448.16686,673.86447 448.12005,673.81418 C 448.07324,673.76389 445.42521,672.30326 442.23567,670.56832 z M 477.05327,669.43969 C 478.65709,666.87189 480.75001,664.77097 481.7041,664.77097 C 484.55698,664.77097 483.51337,654.90804 480.01256,648.78534 C 475.17039,640.31641 475.89564,632.33945 482.29662,623.66506 C 488.47696,615.28984 489.58659,607.88861 485.30413,603.60691 C 482.21991,600.52326 481.90264,600.90113 492.81474,594.66258 L 501.04879,589.9552 L 504.80635,596.31508 C 512.24324,608.90222 509.90777,614.91816 491.69281,630.09308 C 487.30133,633.75167 485.84363,636.56425 486.95826,639.22774 C 493.33164,654.45615 493.47217,655.40278 490.25402,661.41454 C 488.47876,664.73092 484.12619,668.94372 480.58168,670.77636 C 474.33192,674.00754 474.2253,673.96707 477.05327,669.43969 z M 474.30222,663.69039 C 474.30222,661.53244 472.38353,657.03911 470.03826,653.70519 C 466.7735,649.06429 465.66988,642.96351 465.32911,627.67667 C 464.89963,608.40591 465.08306,607.61925 470.58967,605.11077 C 483.694,599.14112 487.75272,610.70903 477.7284,625.45817 C 470.82532,635.61484 470.53456,641.71629 476.58637,649.40849 C 482.03437,656.33316 482.37494,660.91537 477.7284,664.77097 C 474.90914,667.11038 474.30222,666.91901 474.30222,663.69039 z M 450.02064,593.26852 C 446.93322,590.09631 444.72907,584.20915 443.99102,577.16512 C 443.26328,570.21663 441.07554,564.30982 438.14485,561.37952 L 433.46151,556.6971 L 432.01652,562.45282 C 431.18675,565.75798 432.10103,571.86833 434.16405,576.80456 C 436.13985,581.53237 437.75627,585.79942 437.75627,586.28687 C 437.75627,586.77431 432.10313,583.42037 425.19365,578.83366 C 418.28416,574.24697 412.63102,570.13476 412.63102,569.69545 C 412.63102,569.25614 416.12632,564.31845 420.39858,558.7228 C 435.52262,538.91311 442.3876,507.77532 442.3702,459.0664 C 442.34009,375.77363 420.45589,346.5588 356.7815,344.80738 C 341.3772,344.38367 337.02253,341.59397 348.10455,339.24881 C 351.55935,338.51775 361.58086,335.26396 370.37473,332.01822 C 415.77185,315.26242 417.56331,314.81862 435.60964,315.85613 C 445.10705,316.40218 454.10076,317.60464 455.59576,318.52829 C 457.64847,319.79677 458.3134,354.25547 458.3134,459.37617 C 458.3134,535.91893 457.54245,598.48267 456.60026,598.40676 C 455.65807,598.33083 452.69737,596.01862 450.02064,593.26852 z M 465.16578,459.32523 C 465.16578,328.58667 465.41773,319.69133 469.16298,318.15368 C 471.36142,317.25108 482.41084,316.51259 493.71722,316.51259 C 512.61671,316.51259 516.11622,317.27508 537.11554,325.96859 C 549.67816,331.1694 565.7938,336.7812 572.92774,338.43926 C 580.06177,340.09731 585.53357,342.04438 585.08748,342.76609 C 584.64119,343.48779 577.26261,344.30052 568.69028,344.57217 C 516.54861,346.2245 494.6398,363.43668 484.43365,410.76686 C 480.6751,428.19567 480.02757,481.92313 483.30482,504.41025 C 486.40435,525.67806 494.28713,547.20497 503.29654,559.00572 C 507.68752,564.75696 510.36276,570.09708 509.24124,570.87261 C 508.11991,571.64814 502.36966,575.67191 496.46277,579.81428 C 490.55578,583.95666 485.72281,586.9082 485.72281,586.37323 C 485.72281,585.83829 487.33954,581.53237 489.31523,576.80456 C 491.37805,571.86833 492.29233,565.75798 491.46276,562.45282 L 490.01787,556.6971 L 485.26912,561.44474 C 482.15569,564.55771 480.13469,570.2085 479.39974,577.85643 C 478.48035,587.42315 477.09978,590.35975 471.7223,594.18813 L 465.16578,598.8558 L 465.16578,459.32523 z M 425.74936,528.69756 C 423.90719,512.35748 415.19034,505.19816 368.77911,481.90641 C 346.54494,470.7481 322.65484,457.97394 315.68984,453.51938 C 286.90326,435.10852 279.57788,420.48813 294.42777,411.08335 C 301.20013,406.79425 304.35506,406.48408 330.4027,407.54644 C 358.50715,408.69273 382.03247,413.14577 395.50008,419.86862 C 399.26884,421.74995 407.57901,427.71613 413.96669,433.12678 C 437.94151,453.43393 444.8592,485.18118 433.46581,522.61299 C 430.69425,531.71909 428.08963,539.16959 427.67805,539.16959 C 427.26666,539.16959 426.39849,534.45719 425.74936,528.69756 z M 491.01647,525.42925 C 483.86164,503.31989 482.26642,483.14523 486.53597,468.77084 C 493.19981,446.33605 512.10321,426.16513 534.52442,417.56516 C 562.35731,406.88934 612.29705,403.2047 627.33827,410.71717 C 636.00261,415.04457 638.78217,423.26009 634.37038,431.50175 C 629.4819,440.63425 602.08159,458.10682 559.95673,478.95393 C 536.08763,490.76645 513.42348,503.23839 509.59181,506.66934 C 502.16962,513.31543 497.79644,522.31986 496.58009,533.46039 C 495.93396,539.38106 495.17831,538.29045 491.01647,525.42925 z M 433.58623,454.05207 C 420.17424,421.58219 385.11879,406.28819 321.77346,405.27055 C 289.6304,404.75419 285.84544,404.23822 273.80692,398.73158 C 257.02565,391.05558 240.76608,373.91983 234.58094,357.39185 C 228.28418,340.56537 228.60594,339.31805 237.78128,344.98761 C 266.96205,363.01866 306.5385,377.81742 336.11294,381.75662 C 355.40262,384.32592 402.42047,383.42621 417.37307,380.20165 C 422.72955,379.04646 423.78826,380.12666 429.18335,392.25406 C 437.00602,409.8381 440.49792,429.14632 439.61694,449.94622 L 438.8984,466.9131 L 433.58623,454.05207 z M 483.49646,447.82313 C 483.55998,425.01383 485.87424,413.11113 494.07739,393.40695 C 499.29524,380.8731 500.73193,379.14231 504.90006,380.36736 C 507.5434,381.14423 523.78176,382.40278 540.98552,383.16409 C 591.04178,385.37924 622.22934,378.1507 669.81561,353.30444 C 682.88483,346.48061 693.57778,341.79512 693.57778,342.89224 C 693.57778,343.98937 691.52847,350.32074 689.02347,356.96193 C 682.32682,374.71625 669.06045,388.85977 650.8811,397.62572 C 635.76966,404.91242 634.89209,405.04912 600.01468,405.54965 C 562.62526,406.08625 548.27638,408.68814 525.59072,419.04497 C 508.93467,426.64913 497.34555,437.85195 489.93566,453.51148 L 483.44235,467.23421 L 483.49646,447.82313 z M 275.50316,428.13255 C 261.53096,420.22809 255.84912,414.68033 245.49393,398.83124 C 237.13875,386.04312 228.08364,362.10019 230.63695,359.54738 C 231.27398,358.91051 233.45882,361.89477 235.49232,366.17911 C 241.67907,379.21413 255.33531,391.76732 272.15759,399.883 C 280.95146,404.12545 288.48557,407.82336 288.89996,408.10057 C 289.31444,408.37779 287.88385,411.30498 285.72082,414.60545 C 282.47557,419.55741 282.25902,421.63942 284.48177,426.517 C 285.96327,429.76788 286.84374,432.75939 286.43826,433.16476 C 286.03278,433.57013 281.11199,431.30563 275.50316,428.13255 z M 636.47471,433.01511 C 636.47471,432.48562 637.64854,429.47704 639.08293,426.32935 C 641.18665,421.71327 640.96581,419.49945 637.9409,414.88394 C 633.01021,407.36016 632.9647,407.47597 642.02152,404.48755 C 646.32839,403.0664 656.05924,397.8927 663.64567,392.99041 C 674.02225,386.28501 679.2234,380.91585 684.64299,371.31479 C 688.60518,364.2955 692.33153,359.03684 692.92375,359.62888 C 693.51587,360.22092 692.36574,366.32688 690.36814,373.19769 C 684.82132,392.27386 667.3199,416.65414 652.46362,426.00012 C 644.01232,431.31675 636.47471,434.62381 636.47471,433.01511 z M 334.79868,379.35741 C 327.79447,378.45502 314.46049,375.40772 305.16753,372.58567 C 287.42446,367.19746 247.42772,349.39572 245.29359,345.93703 C 244.58555,344.78939 263.14668,344.00913 288.25933,344.13085 L 332.47181,344.34517 L 338.8891,351.21363 C 342.41871,354.99129 348.69407,359.83352 352.83451,361.97418 C 362.99335,367.22646 393.03508,374.74596 403.85996,374.74596 C 418.42399,374.74596 413.70774,378.55116 397.21312,380.10866 C 378.42335,381.88291 351.92572,381.56397 334.79868,379.35741 z M 517.12942,379.93337 C 505.41597,378.70834 506.28104,374.75391 518.27145,374.71221 C 541.03052,374.63308 575.7443,362.06989 585.36683,350.43006 L 590.21971,344.55965 L 634.82857,344.23809 C 660.20307,344.05519 678.89883,344.78772 678.18829,345.93703 C 676.29471,348.99937 637.30707,366.62972 620.48589,372.03019 C 612.32015,374.65181 599.54028,377.87682 592.08609,379.19687 C 579.28491,381.46374 535.84418,381.89058 517.12942,379.93337 z M 244.12506,341.10004 C 227.99042,339.65067 235.72117,335.92371 254.86232,335.92371 C 302.17612,335.92371 356.2731,318.51744 381.79533,295.08155 C 392.00328,285.7081 398.75563,282.12136 412.24674,278.90592 C 426.92749,275.40696 444.50493,276.74263 452.47333,281.96262 C 457.22408,285.07486 458.3077,287.58895 458.2823,295.44138 C 458.26519,300.75049 457.65417,307.31921 456.92442,310.03857 C 455.74329,314.44161 454.85271,314.72307 448.78909,312.6097 C 445.04404,311.30447 433.9263,310.70268 424.08292,311.27239 C 409.49739,312.11657 403.0838,313.81981 389.42226,320.47714 C 367.28641,331.26411 347.72518,337.70341 328.76637,340.44422 C 313.986,342.58097 264.84912,342.9617 244.12506,341.10004 z M 587.70991,339.23671 C 565.89062,334.90104 558.03984,332.17408 537.16165,321.67873 C 521.61062,313.86126 516.19703,312.34543 500.28454,311.35289 C 489.70151,310.69275 478.61648,311.24126 474.65809,312.62091 C 467.69449,315.04794 467.67938,315.0349 466.21829,305.29257 C 463.88822,289.7584 465.43593,284.99283 474.30222,280.40146 C 480.49096,277.19664 485.6499,276.5144 497.14341,277.38087 C 518.48739,278.98996 526.68894,282.06555 540.05543,293.47262 C 570.2809,319.26749 608.28324,332.53078 659.3159,335.09616 C 688.24501,336.55039 694.50507,338.46262 677.58887,340.67786 C 656.82399,343.39715 604.41866,342.55688 587.70991,339.23671 z M 211.07382,329.05622 C 161.94623,320.5132 131.74837,292.22144 131.69696,254.68963 C 131.65283,222.48676 165.22785,186.25748 202.43058,178.3641 C 220.29777,174.5732 249.41862,176.57227 267.44324,182.82706 C 274.90054,185.41481 293.77604,194.25263 309.38877,202.46664 C 353.86951,225.8682 371.98735,228.39891 405.30075,215.86364 C 421.89358,209.62016 421.73615,212.04484 404.84766,222.84605 C 373.45855,242.92144 352.93733,241.65082 291.57269,215.83229 C 272.80932,207.93781 247.06985,206.94832 234.46962,213.63712 C 213.17574,224.94092 207.06021,233.72621 207.06021,253.01192 C 207.06021,308.24503 282.38395,322.86455 381.79533,286.92611 C 391.20292,283.52515 365.2558,304.24787 352.10176,310.64082 C 319.42569,326.52183 249.21878,335.68943 211.07382,329.05622 z M 639.90089,328.74598 C 616.01359,325.66943 587.56558,318.42269 573.78111,311.90291 C 561.8057,306.23876 537.17325,288.28962 538.94481,286.51841 C 539.4371,286.02633 546.93581,288.30127 555.60865,291.57382 C 601.06289,308.72528 654.48803,311.37789 686.36263,298.06584 C 704.90766,290.32071 716.41897,272.88763 716.41897,252.54765 C 716.41897,237.90968 712.77924,229.48548 703.50798,222.66537 C 679.00595,204.64134 655.20477,204.35063 617.24404,221.61171 C 584.75721,236.38373 565.67498,239.74752 544.75697,234.38969 C 527.09002,229.86452 501.40396,214.43619 505.20683,210.63397 C 505.73623,210.10461 507.47928,210.7096 509.08,211.9784 C 516.24254,217.65586 537.81148,222.66669 554.24638,222.47126 C 574.48345,222.23063 582.26891,219.60711 613.86056,202.38237 C 651.70387,181.74903 666.8188,177.23697 698.146,177.2219 C 724.09631,177.20941 724.62782,177.31631 742.17465,186.07445 C 761.88871,195.91419 776.49404,210.12505 785.33132,228.06493 C 792.15439,241.9165 792.7156,268.67968 786.45074,281.44649 C 776.49014,301.7437 754.46232,318.29421 726.9981,326.11598 C 712.90757,330.12897 662.46523,331.65215 639.90089,328.74598 z M 150.15451,772.81348 L 150.15451,753.31852 L 135.94979,753.31852 L 135.94979,750.26195 L 153.8455,750.26195 L 153.8455,774.60269 C 151.18596,775.91975 148.26548,776.90133 145.08406,777.54744 C 141.90256,778.21839 138.49741,778.57872 134.86859,778.62842 C 126.81549,778.62842 120.52714,776.08128 116.00352,770.98699 C 111.45501,765.91757 109.18077,758.8477 109.18078,749.77737 C 109.18077,740.68225 111.45501,733.58753 116.00352,728.4932 C 120.52714,723.42382 126.81549,720.88911 134.86859,720.88905 C 138.19915,720.88911 141.34332,721.22459 144.30112,721.89548 C 147.2837,722.61619 150.01776,723.67232 152.50333,725.06388 L 152.50333,728.67958 C 149.99291,727.28802 147.30856,726.23189 144.45025,725.51118 C 141.61672,724.81543 138.6341,724.46753 135.5024,724.46748 C 128.02096,724.46753 122.4037,726.59222 118.65059,730.84154 C 114.89745,735.06612 113.02089,741.37805 113.0209,749.77737 C 113.02089,758.301 114.89745,764.71234 118.65059,769.01141 C 122.4037,773.33534 128.02096,775.4973 135.5024,775.4973 C 138.55954,775.4973 141.29361,775.28608 143.7046,774.86362 C 146.09065,774.41632 148.24063,773.73294 150.15451,772.81348 M 171.25655,721.89548 L 176.7744,721.89548 L 203.76715,772.77621 L 203.76715,721.89548 L 207.4954,721.89548 L 207.4954,777.54744 L 202.20123,777.54744 L 175.05938,726.33124 L 175.05938,777.54744 L 171.25655,777.54744 L 171.25655,721.89548 M 227.66535,721.89548 L 231.3936,721.89548 L 231.3936,755.70414 C 231.3936,762.7616 232.63635,767.84346 235.12185,770.94972 C 237.58254,774.03114 241.57175,775.57185 247.08965,775.57185 C 252.58266,775.57185 256.55946,774.03114 259.02015,770.94972 C 261.50565,767.84346 262.7484,762.7616 262.7484,755.70414 L 262.7484,721.89548 L 266.47665,721.89548 L 266.47665,756.63602 C 266.47665,763.89228 264.83622,769.37174 261.55536,773.07441 C 258.29931,776.77708 253.47744,778.62842 247.08965,778.62842 C 240.67697,778.62842 235.84269,776.77708 232.58664,773.07441 C 229.30578,769.37174 227.66535,763.89228 227.66535,756.63602 L 227.66535,721.89548 M 312.40898,724.98933 L 312.40898,750.56015 L 323.85478,750.56015 C 328.00562,750.56018 331.21196,749.45435 333.47381,747.24266 C 335.76037,745.03102 336.9037,741.86263 336.9038,737.73747 C 336.9037,733.68693 335.76037,730.54339 333.47381,728.30683 C 331.21196,726.09521 328.00562,724.98938 323.85478,724.98933 L 312.40898,724.98933 M 308.68073,721.89548 L 323.85478,721.89548 C 329.3975,721.89554 333.59804,723.23745 336.45641,725.92121 C 339.28988,728.60508 340.70657,732.54383 340.70667,737.73747 C 340.70657,742.95604 339.28988,746.90721 336.45641,749.591 C 333.59804,752.27484 329.3975,753.61675 323.85478,753.61673 L 312.40898,753.61673 L 312.40898,777.54744 L 308.68073,777.54744 L 308.68073,721.89548 M 366.09617,734.79272 C 371.41514,734.79276 375.61568,736.78078 378.6978,740.75676 C 381.80463,744.75767 383.35804,750.06318 383.35814,756.6733 C 383.35804,763.50711 381.80463,768.89959 378.6978,772.85076 C 375.61568,776.82678 371.41514,778.8148 366.09617,778.8148 C 360.72749,778.8148 356.48964,776.83921 353.38282,772.88803 C 350.3007,768.93686 348.75969,763.53196 348.75969,756.6733 C 348.75969,749.98863 350.3132,744.6707 353.42002,740.71949 C 356.52695,736.76835 360.7523,734.79276 366.09617,734.79272 M 366.13348,737.81202 C 361.88322,737.81206 358.52775,739.51429 356.06715,742.91873 C 353.58156,746.29838 352.33881,750.87081 352.33891,756.63602 C 352.33881,762.55038 353.56915,767.19735 356.02985,770.57697 C 358.49054,773.98144 361.85832,775.68368 366.13348,775.68368 C 370.38363,775.68368 373.73911,773.98144 376.1998,770.57697 C 378.6853,767.14765 379.92805,762.50068 379.92805,756.63602 C 379.92805,750.94536 378.6853,746.38536 376.1998,742.956 C 373.73911,739.52672 370.38363,737.81206 366.13348,737.81202 M 421.68474,737.02924 L 421.68474,740.79404 C 419.27376,739.45217 417.77005,738.70666 417.17353,738.55752 C 415.43369,738.13511 413.27125,737.88661 410.68633,737.81202 C 406.75924,737.81206 403.67722,738.59484 401.44027,740.16036 C 399.72523,741.4526 398.86776,743.66427 398.86776,746.79535 C 398.86776,748.90765 399.67552,750.56018 401.29114,751.75296 C 403.00609,753.0452 405.45428,754.0392 408.63582,754.73498 L 410.98459,755.25684 C 414.93659,756.12661 417.93159,757.3567 419.9698,758.94709 C 422.33097,760.76117 423.57372,763.12193 423.69805,766.02938 C 423.69795,769.98057 422.52981,773.07441 420.19344,775.31092 C 417.70794,777.52259 413.70624,778.62842 408.18843,778.62842 C 405.10631,778.62842 402.76994,778.41719 401.17922,777.99474 C 399.26544,777.44804 397.25213,776.78951 395.13941,776.01915 L 395.13941,771.7325 C 398.17172,773.47201 400.13531,774.46602 401.03009,774.71452 C 403.49079,775.36063 405.92657,775.68368 408.33756,775.68368 C 412.36407,775.68368 415.33427,774.8512 417.24815,773.18623 C 419.18674,771.49643 420.15613,769.28477 420.15613,766.55124 C 420.15613,764.26504 419.5099,762.60008 418.21744,761.55635 C 416.35327,760.06536 413.38307,758.8477 409.30685,757.90338 L 406.92077,757.34425 C 403.41617,756.52422 400.74423,755.36868 398.90496,753.87765 C 396.5935,752.01391 395.43767,749.75255 395.43767,747.09356 C 395.43767,742.71996 396.82955,739.57642 399.61341,737.66292 C 402.39717,735.74949 405.81475,734.79276 409.86617,734.79272 C 413.32096,734.79276 415.70704,734.97914 417.0244,735.35185 C 418.61512,735.7992 420.16854,736.35832 421.68474,737.02924 M 455.61206,735.79915 L 455.61206,738.70662 L 455.61206,735.79915 M 441.48192,723.94562 L 441.48192,735.79915 L 455.61206,735.79915 L 455.61206,738.70662 L 441.48192,738.70662 L 441.48192,763.79287 C 441.48192,766.9737 441.892,769.19779 442.71227,770.46514 C 444.40241,773.24836 446.863,774.63997 450.09425,774.63997 L 455.61206,774.63997 L 455.61206,777.54744 L 450.28059,777.54744 C 446.8754,777.54744 443.97982,776.55343 441.59374,774.56542 C 439.20766,772.57741 438.01462,768.98656 438.01462,763.79287 L 438.01462,738.70662 L 433.01872,738.70662 L 433.01872,735.79915 L 438.01462,735.79915 L 438.01462,723.94562 L 441.48192,723.94562 M 666.3237,778.62939 L 680.82862,778.62939 L 680.82862,728.9998 L 678.63088,728.9998 L 662.85131,731.69056 L 662.85131,728.58872 L 678.54296,725.89795 L 685.224,725.89795 L 685.224,778.62939 L 699.72892,778.62939 L 699.72892,781.69386 L 666.3237,781.69386 L 666.3237,778.62939 M 738.62833,727.95339 C 733.26596,727.95345 729.28076,730.17083 726.67283,734.60555 C 724.06491,739.06528 722.76085,745.48075 722.76095,753.85197 C 722.76085,762.22324 724.06491,768.6387 726.67283,773.09837 C 729.28076,777.53315 733.26596,779.75053 738.62833,779.75053 C 744.16655,779.75053 748.23967,777.53315 750.84769,773.09837 C 753.45551,768.6387 754.75958,762.22324 754.75958,753.85197 C 754.75958,745.48075 753.45551,739.06528 750.84769,734.60555 C 748.23967,730.17083 744.16655,727.95345 738.62833,727.95339 M 738.62833,724.88892 C 744.95771,724.88897 749.96851,727.08144 753.66076,731.46634 C 757.3528,735.87624 759.19887,743.3381 759.19897,753.85197 C 759.19887,764.36587 757.3528,771.82775 753.66076,776.2376 C 749.96851,780.62254 744.95771,782.815 738.62833,782.815 C 732.4748,782.815 727.55191,780.62254 723.85977,776.2376 C 720.16762,771.82775 718.32155,764.36587 718.32155,753.85197 C 718.32155,743.3381 720.16762,735.87624 723.85977,731.46634 C 727.55191,727.08144 732.4748,724.88897 738.62833,724.88892 M 767.57245,739.37186 C 767.57245,733.9403 768.7995,730.09082 771.25349,727.82341 C 773.70748,725.57297 777.01615,724.44773 781.17949,724.44771 C 782.53346,724.44773 783.97205,724.64232 785.49525,725.03147 C 787.01836,725.40376 788.31302,725.89446 789.37933,726.50358 L 789.37933,728.99094 C 787.97455,728.12801 786.81532,727.54424 785.90133,727.23964 C 784.32742,726.74896 782.82112,726.50361 781.38263,726.50358 C 777.2869,726.50361 774.35061,727.5527 772.57356,729.65085 C 770.7965,731.74906 769.90802,734.98939 769.90802,739.37186 C 769.90802,743.7882 770.7965,747.04545 772.57356,749.14362 C 774.35061,751.2418 777.2869,752.29089 781.38263,752.29089 C 782.7365,752.29089 784.07357,752.10476 785.39363,751.7325 C 786.7306,751.37717 788.05917,750.8357 789.37933,750.10811 L 789.37933,752.46856 C 788.07607,753.07771 786.7306,753.53457 785.34292,753.83914 C 783.93814,754.14372 782.55036,754.29601 781.17949,754.29601 C 777.01615,754.29601 773.70748,753.17077 771.25349,750.92031 C 768.7995,748.65292 767.57245,744.80344 767.57245,739.37186"
     style="fill:#000000"
     id="path1308" />
</svg>
