<?xml version="1.0" encoding="UTF-8" standalone="no"?>
<!-- Created with Inkscape (http://www.inkscape.org/) -->
<svg
   xmlns:svg="http://www.w3.org/2000/svg"
   xmlns="http://www.w3.org/2000/svg"
   version="1.0"
   width="900"
   height="239.61099"
   viewBox="0 0 3390.47 395.219"
   id="svg2"
   xml:space="preserve"><defs
     id="defs59" /><path
     d="M 43.330623,-249.80966 C 43.380048,-249.60418 43.417173,-249.39594 43.463558,-249.1893 C 43.539393,-248.85139 43.617514,-248.51107 43.685116,-248.17014 C 43.769618,-247.74397 43.857399,-247.31582 43.928829,-246.8851 C 44.000259,-246.45438 44.04793,-246.03511 44.106075,-245.60007 C 44.152594,-245.25203 44.201124,-244.88726 44.23901,-244.53659 C 44.248484,-244.44892 44.252242,-244.3807 44.261166,-244.29288 C 44.34152,-243.5024 44.402768,-242.70287 44.438412,-241.90005 C 44.446326,-241.72165 44.454896,-241.52513 44.460568,-241.34616 C 44.474756,-240.89872 44.482724,-240.46767 44.482724,-240.01681 C 44.482724,-239.11507 44.450412,-238.20141 44.394101,-237.31381 C 44.371573,-236.95876 44.358979,-236.62507 44.327633,-236.27249 C 44.311956,-236.09619 44.279023,-235.91641 44.261166,-235.74075 C 44.216518,-235.30159 44.164221,-234.8686 44.106075,-234.43356 C 44.001412,-233.65048 43.876852,-232.85382 43.729427,-232.08504 C 43.71305,-231.99962 43.702016,-231.92656 43.685116,-231.84133 C 43.651315,-231.67086 43.610203,-231.50146 43.574337,-231.33175 C 43.484659,-230.90745 43.388751,-230.48832 43.286312,-230.06887 C 43.142893,-229.48163 42.988981,-228.89581 42.82104,-228.31856 C 42.70108,-227.90623 42.576609,-227.4848 42.444392,-227.07784 C 42.338621,-226.75226 42.225546,-226.44716 42.112056,-226.12514 C 41.970188,-225.72261 41.822684,-225.30337 41.66894,-224.90657 C 41.638188,-224.82721 41.61153,-224.76414 41.580317,-224.68502 C 41.424225,-224.2894 41.260592,-223.90037 41.09289,-223.51076 C 41.025802,-223.35491 40.962401,-223.20035 40.893488,-223.04549 C 40.859031,-222.96806 40.817627,-222.87896 40.782709,-222.80177 C 40.468478,-222.10712 40.136159,-221.41512 39.785699,-220.74129 C 39.668876,-220.51668 39.551956,-220.29882 39.431207,-220.07661 C 39.229944,-219.70628 39.022867,-219.3323 38.810845,-218.96883 C 38.598823,-218.60534 38.390887,-218.26176 38.168328,-217.90535 C 37.990275,-217.62021 37.799097,-217.32176 37.614433,-217.04127 C 37.475924,-216.83091 37.335643,-216.6286 37.193474,-216.42091 C 37.0039,-216.14399 36.813422,-215.87323 36.617423,-215.60115 C 35.980418,-214.71687 35.303719,-213.86176 34.601248,-213.03108 C 34.331063,-212.71158 34.060966,-212.38956 33.781484,-212.07838 C 33.613792,-211.89167 33.442873,-211.70814 33.271901,-211.52448 C 33.157914,-211.40205 33.054988,-211.29105 32.939565,-211.16999 C 32.073868,-210.26203 31.158001,-209.38297 30.214405,-208.55561 C 30.025682,-208.39014 29.830046,-208.23029 29.638354,-208.06818 C 28.488177,-207.09554 27.300636,-206.18876 26.049119,-205.34302 C 25.771002,-205.15508 25.490022,-204.9705 25.207199,-204.78913 C 23.580983,-203.74622 21.880829,-202.81097 20.111371,-201.9975 C 20.034437,-201.96213 19.944839,-201.92164 19.867658,-201.88672 C 19.558921,-201.74706 19.249786,-201.62023 18.937115,-201.48792 C 18.780784,-201.42175 18.629141,-201.35282 18.471844,-201.28852 C 17.999952,-201.0956 17.512029,-200.9106 17.031718,-200.73462 C 16.631461,-200.58798 16.241174,-200.44831 15.835307,-200.31366 C 15.510609,-200.20594 15.188615,-200.10339 14.860452,-200.00348 C 14.696367,-199.95352 14.515797,-199.89637 14.35087,-199.84839 C 13.938542,-199.72843 13.527605,-199.62355 13.110146,-199.51605 C 12.859671,-199.45155 12.609116,-199.3766 12.35685,-199.31665 C 12.18867,-199.27669 12.016227,-199.2438 11.847267,-199.20587 C 11.678307,-199.16795 11.507397,-199.13096 11.337684,-199.09509 C 11.167962,-199.05923 10.998568,-199.01811 10.828101,-198.98432 C 10.146218,-198.84911 9.4609483,-198.73139 8.7676143,-198.62982 C 8.5942764,-198.60442 8.4320429,-198.58661 8.2580315,-198.56336 C 7.4605565,-198.45677 6.6540331,-198.38055 5.843052,-198.31964 L 5.843052,-156.1129 C 27.447441,-154.4901 44.482724,-136.43297 44.482724,-114.41572 C 44.482724,-92.398492 27.447441,-74.34135 5.843052,-72.718563 L 5.843052,-30.511813 C 27.447441,-28.889009 44.482724,-10.831884 44.482724,11.185356 C 44.482724,33.202701 27.447582,51.25988 5.843052,52.882524 L 5.843052,95.06712 C 27.447441,96.689915 44.482724,114.74706 44.482724,136.76429 C 44.482724,158.78154 27.447441,176.83866 5.843052,178.46147 L 5.843052,220.66822 C 27.447441,222.291 44.482724,240.34815 44.482724,262.36537 C 44.482724,284.38263 27.447441,302.43977 5.843052,304.06254 L 5.843052,346.24714 C 27.447441,347.86991 44.482724,365.92704 44.482724,387.94431 C 44.482724,409.96156 27.447441,428.01869 5.843052,429.64147 L 5.843052,471.84822 C 27.447441,473.471 44.482724,491.52814 44.482724,513.54539 C 44.482724,535.56266 27.447441,553.61979 5.843052,555.24256 L 5.843052,597.42716 C 27.447441,599.04993 44.482724,617.10707 44.482724,639.12432 C 44.482724,642.50095 44.087314,645.79383 43.330623,648.93934 L 87.597862,648.93934 C 86.841171,645.79383 86.445761,642.50095 86.445761,639.12432 C 86.445753,616.03996 105.16927,597.31638 128.25367,597.31638 C 151.33806,597.31638 170.08377,616.03996 170.08377,639.12432 C 170.08377,642.50095 169.68836,645.79383 168.93167,648.93934 L 213.17675,648.93934 C 212.42006,645.79383 212.02465,642.50095 212.02465,639.12432 C 212.02465,616.03996 230.77037,597.31638 253.85476,597.31638 C 276.93915,597.31638 295.66274,616.03996 295.66274,639.12432 C 295.66274,642.50184 295.26773,645.79303 294.51064,648.93934 L 338.77788,648.93934 C 338.02119,645.79383 337.62578,642.50095 337.62578,639.12432 C 337.62578,616.03996 356.34936,597.31638 379.43373,597.31638 C 402.5181,597.31638 421.26383,616.03996 421.26383,639.12432 C 421.26383,642.50095 420.86843,645.79383 420.11173,648.93934 L 464.35682,648.93934 C 463.60012,645.79383 463.20472,642.50095 463.20472,639.12432 C 463.20472,616.03996 481.95045,597.31638 505.03482,597.31638 C 528.11918,597.31638 546.84277,616.03996 546.84277,639.12432 C 546.84277,642.50184 546.44775,645.79303 545.69067,648.93934 L 589.9579,648.93934 C 589.2012,645.79383 588.8058,642.50095 588.8058,639.12432 C 588.80579,616.03996 607.55154,597.31638 630.63591,597.31638 C 653.72027,597.31638 672.44385,616.03996 672.44385,639.12432 C 672.44385,642.50095 672.04844,645.79383 671.29175,648.93934 L 715.55899,648.93934 C 714.80191,645.79303 714.40689,642.50184 714.40689,639.12432 C 714.40687,616.03996 733.13047,597.31638 756.21484,597.31638 C 779.2992,597.31638 798.04494,616.03996 798.04494,639.12432 C 798.04494,642.50095 797.64953,645.79383 796.89284,648.93934 L 841.13793,648.93934 C 840.38123,645.79383 839.98582,642.50095 839.98582,639.12432 C 839.98583,616.03996 858.73156,597.31638 881.81593,597.31638 C 904.90033,597.31638 923.62391,616.03996 923.62391,639.12432 C 923.62384,642.50095 923.22844,645.79383 922.47181,648.93934 L 966.73898,648.93934 C 965.98192,645.79303 965.58688,642.50184 965.58688,639.12432 C 965.58688,616.03996 984.31053,597.31638 1007.3949,597.31638 C 1030.4793,597.31638 1049.225,616.03996 1049.225,639.12432 C 1049.225,642.50095 1048.8296,645.79383 1048.0729,648.93934 L 1092.3179,648.93934 C 1091.5613,645.79383 1091.1658,642.50095 1091.1658,639.12432 C 1091.1658,616.03996 1109.9116,597.31638 1132.9959,597.31638 C 1156.0803,597.31638 1174.8039,616.03996 1174.8039,639.12432 C 1174.8039,642.50184 1174.4088,645.79303 1173.6518,648.93934 L 1217.919,648.93934 C 1217.1623,645.79383 1216.7669,642.50095 1216.7669,639.12432 C 1216.7669,616.03996 1235.4905,597.31638 1258.5748,597.31638 C 1281.6592,597.31638 1300.405,616.03996 1300.4049,639.12432 C 1300.405,642.50095 1300.0095,645.79383 1299.2528,648.93934 L 1343.498,648.93934 C 1342.7412,645.79383 1342.3459,642.50095 1342.3459,639.12432 C 1342.3459,616.03996 1361.0916,597.31638 1384.176,597.31638 C 1407.2603,597.31638 1425.9838,616.03996 1425.9838,639.12432 C 1425.9838,642.50184 1425.5889,645.79303 1424.8317,648.93934 L 1469.0991,648.93934 C 1468.3424,645.79383 1467.947,642.50095 1467.947,639.12432 C 1467.9469,616.03996 1486.6927,597.31638 1509.7771,597.31638 C 1532.8614,597.31638 1551.585,616.03996 1551.585,639.12432 C 1551.585,642.50095 1551.1896,645.79383 1550.4329,648.93934 L 1594.7001,648.93934 C 1593.943,645.79303 1593.548,642.50184 1593.548,639.12432 C 1593.548,616.03996 1612.2716,597.31638 1635.356,597.31638 C 1658.4404,597.31638 1677.1861,616.03996 1677.1861,639.12432 C 1677.1861,642.50095 1676.7907,645.79383 1676.034,648.93934 L 1720.2791,648.93934 C 1719.5223,645.79383 1719.127,642.50095 1719.127,639.12432 C 1719.1269,616.03996 1737.8727,597.31638 1760.9571,597.31638 C 1784.0414,597.31638 1802.7649,616.03996 1802.765,639.12432 C 1802.7649,642.50095 1802.3696,645.79383 1801.6129,648.93934 L 1845.8801,648.93934 C 1845.1231,645.79303 1844.728,642.50184 1844.728,639.12432 C 1844.7281,616.03996 1863.4516,597.31638 1886.536,597.31638 C 1909.6205,597.31638 1928.3661,616.03996 1928.3661,639.12432 C 1928.3661,642.50095 1927.9707,645.79383 1927.214,648.93934 L 1971.459,648.93934 C 1970.7024,645.79383 1970.3069,642.50095 1970.3069,639.12432 C 1970.307,616.03996 1989.0527,597.31638 2012.137,597.31638 C 2035.2215,597.31638 2053.945,616.03996 2053.945,639.12432 C 2053.945,642.50184 2053.55,645.79303 2052.7929,648.93934 L 2097.0602,648.93934 C 2096.3034,645.79383 2095.9081,642.50095 2095.9081,639.12432 C 2095.9081,616.03996 2114.6317,597.31638 2137.7159,597.31638 C 2160.8004,597.31638 2179.5461,616.03996 2179.546,639.12432 C 2179.546,642.50095 2179.1507,645.79383 2178.3939,648.93934 L 2222.6391,648.93934 C 2221.8824,645.79383 2221.487,642.50095 2221.487,639.12432 C 2221.4869,616.03996 2240.2328,597.31638 2263.3171,597.31638 C 2286.4014,597.31638 2305.125,616.03996 2305.125,639.12432 C 2305.125,642.50184 2304.7301,645.79303 2303.9729,648.93934 L 2348.2402,648.93934 C 2347.4835,645.79383 2347.0881,642.50095 2347.0881,639.12432 C 2347.0881,616.03996 2365.8338,597.31638 2388.9182,597.31638 C 2412.0027,597.31638 2430.7262,616.03996 2430.7262,639.12432 C 2430.7262,642.50095 2430.3307,645.79383 2429.5741,648.93934 L 2473.8413,648.93934 C 2473.0842,645.79303 2472.6892,642.50184 2472.6892,639.12432 C 2472.6892,616.03996 2491.4128,597.31638 2514.4971,597.31638 C 2537.5815,597.31638 2556.3272,616.03996 2556.3272,639.12432 C 2556.3272,642.50095 2555.9318,645.79383 2555.1751,648.93934 L 2599.4202,648.93934 C 2598.6635,645.79383 2598.2681,642.50095 2598.2681,639.12432 C 2598.268,616.03996 2617.0139,597.31638 2640.0982,597.31638 C 2663.1825,597.31638 2681.9062,616.03996 2681.9062,639.12432 C 2681.9061,642.50095 2681.5108,645.79383 2680.7541,648.93934 L 2725.0212,648.93934 C 2724.2642,645.79303 2723.8691,642.50184 2723.8691,639.12432 C 2723.8692,616.03996 2742.5928,597.31638 2765.6772,597.31638 C 2788.7615,597.31638 2807.5073,616.03996 2807.5073,639.12432 C 2807.5073,642.50095 2807.1118,645.79383 2806.3552,648.93934 L 2850.6002,648.93934 C 2849.8436,645.79383 2849.4481,642.50095 2849.4481,639.12432 C 2849.4481,616.03996 2868.1939,597.31638 2891.2782,597.31638 C 2914.3626,597.31638 2933.0862,616.03996 2933.0862,639.12432 C 2933.0862,642.50184 2932.6911,645.79303 2931.9341,648.93934 L 2976.2013,648.93934 C 2975.4446,645.79383 2975.0492,642.50095 2975.0492,639.12432 C 2975.0492,616.03996 2993.7728,597.31638 3016.8571,597.31638 C 3039.9416,597.31638 3058.6872,616.03996 3058.6872,639.12432 C 3058.6872,642.50095 3058.2919,645.79383 3057.5351,648.93934 L 3101.7803,648.93934 C 3101.0235,645.79383 3100.6282,642.50095 3100.6282,639.12432 C 3100.6283,616.03996 3119.3739,597.31638 3142.4583,597.31638 C 3165.5426,597.31638 3184.2661,616.03996 3184.2661,639.12432 C 3184.2662,642.50184 3183.8712,645.79303 3183.114,648.93934 L 3227.3814,648.93934 C 3226.6247,645.79383 3226.2293,642.50095 3226.2293,639.12432 C 3226.2293,616.03996 3244.975,597.31638 3268.0594,597.31638 C 3291.1436,597.31638 3309.8673,616.03996 3309.8673,639.12432 C 3309.8673,642.50095 3309.4719,645.79383 3308.7152,648.93934 L 3352.9824,648.93934 C 3352.2253,645.79303 3351.8303,642.50184 3351.8303,639.12432 C 3351.8304,617.10707 3368.8657,599.04993 3390.47,597.42716 L 3390.47,555.24256 C 3368.8656,553.61979 3351.8303,535.56266 3351.8303,513.54539 C 3351.8304,491.52823 3368.8657,473.471 3390.47,471.84822 L 3390.47,429.64147 C 3368.8656,428.01869 3351.8303,409.96156 3351.8303,387.94431 C 3351.8304,365.92704 3368.8657,347.86991 3390.47,346.24714 L 3390.47,304.06254 C 3368.8656,302.43977 3351.8303,284.38263 3351.8303,262.36537 C 3351.8304,240.34815 3368.8657,222.291 3390.47,220.66822 L 3390.47,178.46147 C 3368.8656,176.83866 3351.8303,158.78154 3351.8303,136.76429 C 3351.8304,114.74706 3368.8657,96.689915 3390.47,95.06712 L 3390.47,52.882524 C 3368.8655,51.25988 3351.8303,33.202701 3351.8303,11.185356 C 3351.8304,-10.831884 3368.8657,-28.889017 3390.47,-30.511813 L 3390.47,-72.718563 C 3368.8656,-74.34135 3351.8303,-92.398492 3351.8303,-114.41572 C 3351.8304,-136.43297 3368.8657,-154.4901 3390.47,-156.1129 L 3390.47,-198.31964 C 3368.8656,-199.94245 3351.8303,-217.99957 3351.8303,-240.01681 C 3351.8303,-243.39434 3352.2253,-246.6634 3352.9824,-249.80966 L 3308.7152,-249.80966 C 3309.4719,-246.66416 3309.8673,-243.39346 3309.8673,-240.01681 C 3309.8673,-216.93241 3291.1437,-198.18671 3268.0594,-198.18671 C 3244.9748,-198.18672 3226.2293,-216.93242 3226.2293,-240.01681 C 3226.2293,-243.39346 3226.6247,-246.66416 3227.3814,-249.80966 L 3183.114,-249.80966 C 3183.8712,-246.6634 3184.2661,-243.39434 3184.2661,-240.01681 C 3184.2663,-216.93241 3165.5426,-198.18671 3142.4583,-198.18671 C 3119.3738,-198.18672 3100.6282,-216.93242 3100.6282,-240.01681 C 3100.6282,-243.39346 3101.0235,-246.66416 3101.7803,-249.80966 L 3057.5351,-249.80966 C 3058.2919,-246.66416 3058.6872,-243.39346 3058.6872,-240.01681 C 3058.6872,-216.93241 3039.9416,-198.18671 3016.8571,-198.18671 C 2993.7728,-198.18672 2975.0492,-216.93242 2975.0492,-240.01681 C 2975.0492,-243.39346 2975.4446,-246.66416 2976.2013,-249.80966 L 2931.9341,-249.80966 C 2932.6911,-246.6634 2933.0862,-243.39434 2933.0862,-240.01681 C 2933.0862,-216.93241 2914.3626,-198.18671 2891.2782,-198.18671 C 2868.1939,-198.18672 2849.4482,-216.93242 2849.4481,-240.01681 C 2849.4481,-243.39346 2849.8436,-246.66416 2850.6002,-249.80966 L 2806.3552,-249.80966 C 2807.1118,-246.66416 2807.5073,-243.39346 2807.5073,-240.01681 C 2807.5074,-216.93241 2788.7614,-198.18671 2765.6772,-198.18671 C 2742.5928,-198.18672 2723.8692,-216.93242 2723.8691,-240.01681 C 2723.8692,-243.39434 2724.2642,-246.6634 2725.0212,-249.80966 L 2680.7541,-249.80966 C 2681.5107,-246.66416 2681.9062,-243.39346 2681.9062,-240.01681 C 2681.9061,-216.93241 2663.1825,-198.18671 2640.0982,-198.18671 C 2617.0138,-198.18672 2598.2681,-216.93242 2598.2681,-240.01681 C 2598.2681,-243.39346 2598.6635,-246.66416 2599.4202,-249.80966 L 2555.1751,-249.80966 C 2555.9318,-246.66416 2556.3272,-243.39346 2556.3272,-240.01681 C 2556.3272,-216.93241 2537.5815,-198.18671 2514.4971,-198.18671 C 2491.4128,-198.18672 2472.6892,-216.93242 2472.6892,-240.01681 C 2472.6892,-243.39434 2473.0842,-246.6634 2473.8413,-249.80966 L 2429.5741,-249.80966 C 2430.3307,-246.66416 2430.7262,-243.39346 2430.7262,-240.01681 C 2430.7262,-216.93241 2412.0026,-198.18671 2388.9182,-198.18671 C 2365.8339,-198.18672 2347.088,-216.93242 2347.0881,-240.01681 C 2347.0881,-243.39346 2347.4835,-246.66416 2348.2402,-249.80966 L 2303.9729,-249.80966 C 2304.7301,-246.6634 2305.125,-243.39434 2305.125,-240.01681 C 2305.125,-216.93241 2286.4014,-198.18671 2263.3171,-198.18671 C 2240.2327,-198.18672 2221.487,-216.93242 2221.487,-240.01681 C 2221.487,-243.39346 2221.8824,-246.66416 2222.6391,-249.80966 L 2178.3939,-249.80966 C 2179.1507,-246.66416 2179.546,-243.39346 2179.546,-240.01681 C 2179.546,-216.93241 2160.8004,-198.18671 2137.7159,-198.18671 C 2114.6317,-198.18672 2095.9081,-216.93242 2095.9081,-240.01681 C 2095.9081,-243.39346 2096.3034,-246.66416 2097.0602,-249.80966 L 2052.7929,-249.80966 C 2053.55,-246.6634 2053.945,-243.39434 2053.945,-240.01681 C 2053.945,-216.93241 2035.2215,-198.18671 2012.137,-198.18671 C 1989.0527,-198.18672 1970.3069,-216.93242 1970.3069,-240.01681 C 1970.307,-243.39346 1970.7024,-246.66416 1971.459,-249.80966 L 1927.214,-249.80966 C 1927.9707,-246.66416 1928.3661,-243.39346 1928.3661,-240.01681 C 1928.366,-216.93241 1909.6203,-198.18671 1886.536,-198.18671 C 1863.4517,-198.18672 1844.7281,-216.93242 1844.728,-240.01681 C 1844.7281,-243.39434 1845.1231,-246.6634 1845.8801,-249.80966 L 1801.6129,-249.80966 C 1802.3696,-246.66416 1802.765,-243.39346 1802.765,-240.01681 C 1802.7649,-216.93241 1784.0414,-198.18671 1760.9571,-198.18671 C 1737.8726,-198.18672 1719.127,-216.93242 1719.127,-240.01681 C 1719.127,-243.39346 1719.5223,-246.66416 1720.2791,-249.80966 L 1676.034,-249.80966 C 1676.7907,-246.66416 1677.1861,-243.39346 1677.1861,-240.01681 C 1677.1861,-216.93241 1658.4404,-198.18671 1635.356,-198.18671 C 1612.2716,-198.18672 1593.548,-216.93242 1593.548,-240.01681 C 1593.548,-243.39434 1593.943,-246.6634 1594.7001,-249.80966 L 1550.4329,-249.80966 C 1551.1896,-246.66416 1551.585,-243.39346 1551.585,-240.01681 C 1551.585,-216.93241 1532.8614,-198.18671 1509.7771,-198.18671 C 1486.6927,-198.18672 1467.947,-216.93242 1467.947,-240.01681 C 1467.9469,-243.39346 1468.3424,-246.66416 1469.0991,-249.80966 L 1424.8317,-249.80966 C 1425.5889,-246.6634 1425.9838,-243.39434 1425.9838,-240.01681 C 1425.9838,-216.93241 1407.2602,-198.18671 1384.176,-198.18671 C 1361.0916,-198.18672 1342.3459,-216.93242 1342.3459,-240.01681 C 1342.3459,-243.39346 1342.7412,-246.66416 1343.498,-249.80966 L 1299.2528,-249.80966 C 1300.0095,-246.66416 1300.4049,-243.39346 1300.4049,-240.01681 C 1300.405,-216.93241 1281.6592,-198.18671 1258.5748,-198.18671 C 1235.4905,-198.18672 1216.7669,-216.93242 1216.7669,-240.01681 C 1216.7669,-243.39346 1217.1623,-246.66416 1217.919,-249.80966 L 1173.6518,-249.80966 C 1174.4088,-246.6634 1174.8039,-243.39434 1174.8039,-240.01681 C 1174.8039,-216.93241 1156.0803,-198.18671 1132.9959,-198.18671 C 1109.9116,-198.18672 1091.1658,-216.93242 1091.1658,-240.01681 C 1091.1658,-243.39346 1091.5613,-246.66416 1092.3179,-249.80966 L 1048.0729,-249.80966 C 1048.8296,-246.66416 1049.225,-243.39346 1049.225,-240.01681 C 1049.225,-216.93241 1030.4792,-198.18671 1007.3949,-198.18671 C 984.31053,-198.18672 965.58688,-216.93242 965.58688,-240.01681 C 965.58688,-243.39434 965.98192,-246.6634 966.73898,-249.80966 L 922.47181,-249.80966 C 923.22844,-246.66416 923.62391,-243.39346 923.62391,-240.01681 C 923.62384,-216.93241 904.90026,-198.18671 881.81593,-198.18671 C 858.73158,-198.18672 839.98582,-216.93242 839.98582,-240.01681 C 839.98582,-243.39346 840.38123,-246.66416 841.13793,-249.80966 L 796.89284,-249.80966 C 797.64954,-246.66416 798.04494,-243.39346 798.04494,-240.01681 C 798.04495,-216.93241 779.29921,-198.18671 756.21484,-198.18671 C 733.13046,-198.18672 714.40689,-216.93242 714.40689,-240.01681 C 714.40689,-243.39434 714.80191,-246.6634 715.55899,-249.80966 L 671.29175,-249.80966 C 672.04844,-246.66416 672.44385,-243.39346 672.44385,-240.01681 C 672.44386,-216.93241 653.72027,-198.18671 630.63591,-198.18671 C 607.55155,-198.18672 588.8058,-216.93242 588.8058,-240.01681 C 588.8058,-243.39346 589.20121,-246.66416 589.9579,-249.80966 L 545.69067,-249.80966 C 546.44775,-246.6634 546.84277,-243.39434 546.84277,-240.01681 C 546.84277,-216.93241 528.11919,-198.18671 505.03482,-198.18671 C 481.95044,-198.18672 463.20472,-216.93242 463.20472,-240.01681 C 463.20472,-243.39346 463.60012,-246.66416 464.35682,-249.80966 L 420.11173,-249.80966 C 420.86843,-246.66416 421.26383,-243.39346 421.26383,-240.01681 C 421.26382,-216.93241 402.5181,-198.18671 379.43373,-198.18671 C 356.34936,-198.18672 337.62578,-216.93242 337.62578,-240.01681 C 337.62578,-243.39346 338.02119,-246.66416 338.77788,-249.80966 L 294.51064,-249.80966 C 295.26773,-246.6634 295.66274,-243.39434 295.66274,-240.01681 C 295.66274,-216.93241 276.93915,-198.18671 253.85476,-198.18671 C 230.77037,-198.18672 212.02465,-216.93242 212.02465,-240.01681 C 212.02465,-243.39346 212.42006,-246.66416 213.17675,-249.80966 L 168.93167,-249.80966 C 169.68836,-246.66416 170.08377,-243.39346 170.08377,-240.01681 C 170.08377,-216.93241 151.33806,-198.18671 128.25367,-198.18671 C 105.16927,-198.18672 86.445761,-216.93242 86.445761,-240.01681 C 86.445761,-243.39346 86.841171,-246.66416 87.597862,-249.80966 L 43.330623,-249.80966 z "
     style="color:#000000;fill:#cfcecc;fill-opacity:1;fill-rule:nonzero;stroke:none;stroke-width:0.40000001;stroke-linecap:butt;stroke-linejoin:miter;marker:none;marker-start:none;marker-mid:none;marker-end:none;stroke-miterlimit:4;stroke-dasharray:none;stroke-dashoffset:0;stroke-opacity:1;visibility:visible;display:inline;overflow:visible"
     id="path10753" /><path
     d="M 37.722997,-253.48488 C 37.772431,-253.27941 37.809546,-253.07117 37.855931,-252.86452 C 37.931775,-252.52661 38.009887,-252.1863 38.077489,-251.84535 C 38.161991,-251.41918 38.249772,-250.99104 38.321203,-250.56032 C 38.392633,-250.1296 38.440303,-249.71033 38.498449,-249.27528 C 38.544967,-248.92725 38.593497,-248.56249 38.631383,-248.21181 C 38.640857,-248.12414 38.644615,-248.05593 38.653539,-247.96809 C 38.733894,-247.17762 38.795141,-246.37809 38.830785,-245.57527 C 38.838708,-245.39687 38.847269,-245.20035 38.852941,-245.02138 C 38.86713,-244.57394 38.875097,-244.1429 38.875097,-243.69203 C 38.875097,-242.7903 38.842785,-241.87663 38.786474,-240.98902 C 38.763946,-240.63399 38.751353,-240.30029 38.720007,-239.9477 C 38.704329,-239.77141 38.671397,-239.59162 38.653539,-239.41596 C 38.608891,-238.97681 38.556594,-238.54382 38.498449,-238.10877 C 38.393785,-237.3257 38.269225,-236.52904 38.121801,-235.76026 C 38.105423,-235.67485 38.094389,-235.60179 38.077489,-235.51655 C 38.043688,-235.34608 38.002576,-235.17669 37.96671,-235.00697 C 37.877041,-234.58266 37.781125,-234.16355 37.678685,-233.74409 C 37.535266,-233.15685 37.381355,-232.57103 37.213414,-231.99378 C 37.093454,-231.58146 36.968982,-231.16002 36.836766,-230.75306 C 36.730994,-230.42748 36.61792,-230.12238 36.504429,-229.80036 C 36.362561,-229.39783 36.215057,-228.97858 36.061314,-228.58179 C 36.030561,-228.50244 36.003903,-228.43936 35.97269,-228.36023 C 35.816599,-227.96462 35.652965,-227.57559 35.485263,-227.18598 C 35.418176,-227.03013 35.354775,-226.87557 35.285861,-226.72071 C 35.251405,-226.64328 35.21,-226.55417 35.175083,-226.47699 C 34.860852,-225.78235 34.528542,-225.09033 34.178073,-224.4165 C 34.06125,-224.1919 33.944338,-223.97404 33.82358,-223.75183 C 33.622317,-223.38149 33.41524,-223.00753 33.203219,-222.64404 C 32.991197,-222.28056 32.78326,-221.93698 32.560701,-221.58057 C 32.382657,-221.29544 32.19148,-220.99697 32.006807,-220.71649 C 31.868298,-220.50613 31.728016,-220.30382 31.585847,-220.09613 C 31.396282,-219.81921 31.205796,-219.54845 31.009797,-219.27637 C 30.372792,-218.39209 29.696092,-217.53698 28.993621,-216.7063 C 28.723445,-216.3868 28.453339,-216.06478 28.173858,-215.7536 C 28.006165,-215.56689 27.835246,-215.38336 27.664275,-215.1997 C 27.550288,-215.07727 27.447361,-214.96627 27.331938,-214.84521 C 26.46625,-213.93725 25.550375,-213.05819 24.606778,-212.23083 C 24.418064,-212.06536 24.222419,-211.90551 24.030728,-211.7434 C 22.880551,-210.77075 21.69301,-209.86398 20.441492,-209.01824 C 20.163375,-208.8303 19.882396,-208.64572 19.599573,-208.46435 C 17.973357,-207.42145 16.273202,-206.4862 14.503744,-205.67272 C 14.426811,-205.63735 14.337213,-205.59686 14.260031,-205.56194 C 13.951295,-205.42229 13.64216,-205.29546 13.329488,-205.16314 C 13.173157,-205.09698 13.021514,-205.02804 12.864217,-204.96373 C 12.392335,-204.77082 11.904402,-204.58582 11.424092,-204.40984 C 11.023834,-204.2632 10.633556,-204.12353 10.22768,-203.98888 C 9.9029826,-203.88117 9.5809882,-203.77861 9.2528258,-203.6787 C 9.088749,-203.62874 8.9081705,-203.5716 8.7432429,-203.52361 C 8.3309151,-203.40365 7.9199875,-203.29876 7.5025195,-203.19127 C 7.2520441,-203.12678 7.0014889,-203.05182 6.7492232,-202.99187 C 6.5810431,-202.95191 6.4086003,-202.91901 6.2396404,-202.88109 C 6.0706804,-202.84317 5.8997708,-202.80618 5.7300575,-202.77031 C 5.5603443,-202.73445 5.3909413,-202.69333 5.2204747,-202.65953 C 4.5385909,-202.52433 3.8533216,-202.40662 3.1599876,-202.30504 C 2.9866586,-202.27965 2.8244163,-202.26183 2.6504048,-202.23857 C 1.8529299,-202.132 1.0464153,-202.05578 0.23542535,-201.99486 L 0.23542535,-159.78811 C 21.839814,-158.16531 38.875097,-140.10818 38.875097,-118.09094 C 38.875097,-96.073701 21.839814,-78.016567 0.23542535,-76.393772 L 0.23542535,-34.187022 C 21.839814,-32.564224 38.875097,-14.507092 38.875097,7.5101461 C 38.875097,29.527488 21.839956,47.584667 0.23542535,49.207315 L 0.23542535,91.39191 C 21.839814,93.014706 38.875097,111.07184 38.875097,133.08908 C 38.875097,155.10632 21.839814,173.16345 0.23542535,174.78625 L 0.23542535,216.993 C 21.839814,218.61579 38.875097,236.67294 38.875097,258.69017 C 38.875097,280.7074 21.839814,298.76454 0.23542535,300.38734 L 0.23542535,342.57193 C 21.839814,344.19473 38.875097,362.25186 38.875097,384.2691 C 38.875097,406.28632 21.839814,424.34347 0.23542535,425.96627 L 0.23542535,468.17302 C 21.839814,469.79583 38.875097,487.85295 38.875097,509.87019 C 38.875097,531.88745 21.839814,549.94456 0.23542535,551.56736 L 0.23542535,593.75195 C 21.839814,595.37475 38.875097,613.43188 38.875097,635.44912 C 38.875097,638.82577 38.479687,642.11862 37.722997,645.26413 L 81.990235,645.26413 C 81.233544,642.11862 80.838135,638.82577 80.838135,635.44912 C 80.838126,612.36474 99.561697,593.64118 122.64608,593.64118 C 145.73048,593.64118 164.47619,612.36473 164.47619,635.44912 C 164.47619,638.82577 164.08078,642.11862 163.32409,645.26413 L 207.56917,645.26413 C 206.81247,642.11862 206.41707,638.82577 206.41707,635.44912 C 206.41707,612.36474 225.16279,593.64118 248.24717,593.64118 C 271.33154,593.64118 290.05512,612.36473 290.05512,635.44912 C 290.05512,638.82666 289.6601,642.11786 288.90302,645.26413 L 333.17026,645.26413 C 332.41357,642.11862 332.01816,638.82577 332.01816,635.44912 C 332.01816,612.36474 350.74174,593.64118 373.8261,593.64118 C 396.91047,593.64118 415.65621,612.36473 415.65621,635.44912 C 415.65621,638.82577 415.26081,642.11862 414.50411,645.26413 L 458.74919,645.26413 C 457.9925,642.11862 457.59709,638.82577 457.59709,635.44912 C 457.59709,612.36474 476.34282,593.64118 499.42719,593.64118 C 522.51155,593.64118 541.23514,612.36473 541.23514,635.44912 C 541.23514,638.82666 540.84012,642.11786 540.08304,645.26413 L 584.35028,645.26413 C 583.59358,642.11862 583.19818,638.82577 583.19818,635.44912 C 583.19817,612.36474 601.94391,593.64118 625.02828,593.64118 C 648.11265,593.64118 666.83623,612.36473 666.83623,635.44912 C 666.83623,638.82577 666.44082,642.11862 665.68413,645.26413 L 709.95137,645.26413 C 709.19429,642.11786 708.79927,638.82666 708.79927,635.44912 C 708.79925,612.36474 727.52285,593.64118 750.60721,593.64118 C 773.69157,593.64118 792.43732,612.36473 792.43732,635.44912 C 792.43732,638.82577 792.04191,642.11862 791.28522,645.26413 L 835.5303,645.26413 C 834.7736,642.11862 834.3782,638.82577 834.3782,635.44912 C 834.37821,612.36474 853.12393,593.64118 876.2083,593.64118 C 899.2927,593.64118 918.01628,612.36473 918.01628,635.44912 C 918.01621,638.82577 917.62081,642.11862 916.86418,645.26413 L 961.13135,645.26413 C 960.3743,642.11786 959.97925,638.82666 959.97925,635.44912 C 959.97925,612.36474 978.7029,593.64118 1001.7872,593.64118 C 1024.8716,593.64118 1043.6173,612.36473 1043.6173,635.44912 C 1043.6173,638.82577 1043.2219,642.11862 1042.4652,645.26413 L 1086.7103,645.26413 C 1085.9537,642.11862 1085.5582,638.82577 1085.5582,635.44912 C 1085.5582,612.36474 1104.304,593.64118 1127.3883,593.64118 C 1150.4727,593.64118 1169.1963,612.36473 1169.1963,635.44912 C 1169.1963,638.82666 1168.8012,642.11786 1168.0442,645.26413 L 1212.3114,645.26413 C 1211.5547,642.11862 1211.1593,638.82577 1211.1593,635.44912 C 1211.1593,612.36474 1229.8829,593.64118 1252.9673,593.64118 C 1276.0516,593.64118 1294.7974,612.36473 1294.7974,635.44912 C 1294.7974,638.82577 1294.4019,642.11862 1293.6453,645.26413 L 1337.8903,645.26413 C 1337.1337,642.11862 1336.7382,638.82577 1336.7382,635.44912 C 1336.7382,612.36474 1355.484,593.64118 1378.5683,593.64118 C 1401.6527,593.64118 1420.3763,612.36473 1420.3763,635.44912 C 1420.3763,638.82666 1419.9813,642.11786 1419.2242,645.26413 L 1463.4914,645.26413 C 1462.7348,642.11862 1462.3393,638.82577 1462.3393,635.44912 C 1462.3393,612.36474 1481.0851,593.64118 1504.1694,593.64118 C 1527.2538,593.64118 1545.9774,612.36473 1545.9774,635.44912 C 1545.9774,638.82577 1545.5819,642.11862 1544.8253,645.26413 L 1589.0925,645.26413 C 1588.3355,642.11786 1587.9404,638.82666 1587.9404,635.44912 C 1587.9404,612.36474 1606.664,593.64118 1629.7484,593.64118 C 1652.8327,593.64118 1671.5785,612.36473 1671.5785,635.44912 C 1671.5785,638.82577 1671.183,642.11862 1670.4264,645.26413 L 1714.6715,645.26413 C 1713.9148,642.11862 1713.5194,638.82577 1713.5194,635.44912 C 1713.5193,612.36474 1732.2651,593.64118 1755.3495,593.64118 C 1778.4338,593.64118 1797.1574,612.36473 1797.1574,635.44912 C 1797.1574,638.82577 1796.762,642.11862 1796.0053,645.26413 L 1840.2725,645.26413 C 1839.5154,642.11786 1839.1204,638.82666 1839.1204,635.44912 C 1839.1204,612.36474 1857.844,593.64118 1880.9284,593.64118 C 1904.0128,593.64118 1922.7585,612.36473 1922.7585,635.44912 C 1922.7585,638.82577 1922.3631,642.11862 1921.6064,645.26413 L 1965.8515,645.26413 C 1965.0948,642.11862 1964.6994,638.82577 1964.6994,635.44912 C 1964.6994,612.36474 1983.4451,593.64118 2006.5295,593.64118 C 2029.6138,593.64118 2048.3374,612.36473 2048.3374,635.44912 C 2048.3374,638.82666 2047.9423,642.11786 2047.1853,645.26413 L 2091.4526,645.26413 C 2090.6959,642.11862 2090.3005,638.82577 2090.3005,635.44912 C 2090.3005,612.36474 2109.024,593.64118 2132.1084,593.64118 C 2155.1928,593.64118 2173.9385,612.36473 2173.9385,635.44912 C 2173.9385,638.82577 2173.5431,642.11862 2172.7864,645.26413 L 2217.0315,645.26413 C 2216.2748,642.11862 2215.8794,638.82577 2215.8794,635.44912 C 2215.8793,612.36474 2234.6251,593.64118 2257.7095,593.64118 C 2280.7938,593.64118 2299.5174,612.36473 2299.5174,635.44912 C 2299.5174,638.82666 2299.1225,642.11786 2298.3653,645.26413 L 2342.6326,645.26413 C 2341.8759,642.11862 2341.4805,638.82577 2341.4805,635.44912 C 2341.4805,612.36474 2360.2262,593.64118 2383.3106,593.64118 C 2406.395,593.64118 2425.1185,612.36473 2425.1185,635.44912 C 2425.1185,638.82577 2424.7231,642.11862 2423.9664,645.26413 L 2468.2337,645.26413 C 2467.4767,642.11786 2467.0816,638.82666 2467.0816,635.44912 C 2467.0816,612.36474 2485.8051,593.64118 2508.8895,593.64118 C 2531.9739,593.64118 2550.7196,612.36473 2550.7196,635.44912 C 2550.7196,638.82577 2550.3242,642.11862 2549.5675,645.26413 L 2593.8126,645.26413 C 2593.0559,642.11862 2592.6605,638.82577 2592.6605,635.44912 C 2592.6604,612.36474 2611.4062,593.64118 2634.4906,593.64118 C 2657.575,593.64118 2676.2986,612.36473 2676.2986,635.44912 C 2676.2986,638.82577 2675.9032,642.11862 2675.1465,645.26413 L 2719.4137,645.26413 C 2718.6566,642.11786 2718.2616,638.82666 2718.2616,635.44912 C 2718.2616,612.36474 2736.9852,593.64118 2760.0695,593.64118 C 2783.1539,593.64118 2801.8996,612.36473 2801.8996,635.44912 C 2801.8996,638.82577 2801.5042,642.11862 2800.7475,645.26413 L 2844.9926,645.26413 C 2844.236,642.11862 2843.8405,638.82577 2843.8405,635.44912 C 2843.8405,612.36474 2862.5863,593.64118 2885.6706,593.64118 C 2908.755,593.64118 2927.4786,612.36473 2927.4786,635.44912 C 2927.4786,638.82666 2927.0835,642.11786 2926.3265,645.26413 L 2970.5937,645.26413 C 2969.837,642.11862 2969.4416,638.82577 2969.4416,635.44912 C 2969.4415,612.36474 2988.1652,593.64118 3011.2496,593.64118 C 3034.3339,593.64118 3053.0797,612.36473 3053.0797,635.44912 C 3053.0797,638.82577 3052.6842,642.11862 3051.9276,645.26413 L 3096.1726,645.26413 C 3095.416,642.11862 3095.0205,638.82577 3095.0205,635.44912 C 3095.0206,612.36474 3113.7663,593.64118 3136.8506,593.64118 C 3159.9349,593.64118 3178.6586,612.36473 3178.6586,635.44912 C 3178.6586,638.82666 3178.2636,642.11786 3177.5065,645.26413 L 3221.7737,645.26413 C 3221.0171,642.11862 3220.6216,638.82577 3220.6216,635.44912 C 3220.6216,612.36474 3239.3674,593.64118 3262.4517,593.64118 C 3285.5359,593.64118 3304.2597,612.36473 3304.2597,635.44912 C 3304.2597,638.82577 3303.8642,642.11862 3303.1076,645.26413 L 3347.3748,645.26413 C 3346.6178,642.11786 3346.2227,638.82666 3346.2227,635.44912 C 3346.2229,613.43189 3363.258,595.37475 3384.8624,593.75195 L 3384.8624,551.56736 C 3363.258,549.94455 3346.2227,531.88743 3346.2227,509.87019 C 3346.2229,487.85297 3363.258,469.79582 3384.8624,468.17302 L 3384.8624,425.96627 C 3363.258,424.34347 3346.2227,406.28634 3346.2227,384.2691 C 3346.2229,362.25184 3363.258,344.19473 3384.8624,342.57193 L 3384.8624,300.38734 C 3363.258,298.76454 3346.2227,280.70741 3346.2227,258.69017 C 3346.2229,236.67294 3363.258,218.6158 3384.8624,216.993 L 3384.8624,174.78625 C 3363.258,173.16345 3346.2227,155.10632 3346.2227,133.08908 C 3346.2229,111.07185 3363.258,93.014706 3384.8624,91.39191 L 3384.8624,49.207315 C 3363.2579,47.584667 3346.2227,29.527489 3346.2227,7.5101461 C 3346.2229,-14.507092 3363.258,-32.564226 3384.8624,-34.187022 L 3384.8624,-76.393772 C 3363.258,-78.016567 3346.2227,-96.073701 3346.2227,-118.09094 C 3346.2229,-140.10818 3363.258,-158.16531 3384.8624,-159.78811 L 3384.8624,-201.99486 C 3363.258,-203.61766 3346.2227,-221.67479 3346.2227,-243.69203 C 3346.2227,-247.06956 3346.6177,-250.33862 3347.3748,-253.48488 L 3303.1076,-253.48488 C 3303.8642,-250.33937 3304.2597,-247.06868 3304.2597,-243.69203 C 3304.2597,-220.60763 3285.5361,-201.86193 3262.4517,-201.86193 C 3239.3672,-201.86193 3220.6216,-220.60763 3220.6216,-243.69203 C 3220.6216,-247.06868 3221.0171,-250.33937 3221.7737,-253.48488 L 3177.5065,-253.48488 C 3178.2636,-250.33862 3178.6586,-247.06956 3178.6586,-243.69203 C 3178.6587,-220.60763 3159.935,-201.86193 3136.8506,-201.86193 C 3113.7662,-201.86193 3095.0205,-220.60763 3095.0205,-243.69203 C 3095.0205,-247.06868 3095.416,-250.33937 3096.1726,-253.48488 L 3051.9276,-253.48488 C 3052.6842,-250.33937 3053.0797,-247.06868 3053.0797,-243.69203 C 3053.0797,-220.60763 3034.3339,-201.86193 3011.2496,-201.86193 C 2988.1652,-201.86193 2969.4416,-220.60763 2969.4416,-243.69203 C 2969.4416,-247.06868 2969.837,-250.33937 2970.5937,-253.48488 L 2926.3265,-253.48488 C 2927.0835,-250.33862 2927.4786,-247.06956 2927.4786,-243.69203 C 2927.4786,-220.60763 2908.755,-201.86193 2885.6706,-201.86193 C 2862.5863,-201.86193 2843.8405,-220.60763 2843.8405,-243.69203 C 2843.8405,-247.06868 2844.236,-250.33937 2844.9926,-253.48488 L 2800.7475,-253.48488 C 2801.5042,-250.33937 2801.8996,-247.06868 2801.8996,-243.69203 C 2801.8997,-220.60763 2783.1539,-201.86193 2760.0695,-201.86193 C 2736.9852,-201.86193 2718.2616,-220.60763 2718.2616,-243.69203 C 2718.2616,-247.06956 2718.6566,-250.33862 2719.4137,-253.48488 L 2675.1465,-253.48488 C 2675.9031,-250.33937 2676.2986,-247.06868 2676.2986,-243.69203 C 2676.2986,-220.60763 2657.575,-201.86193 2634.4906,-201.86193 C 2611.4062,-201.86193 2592.6605,-220.60763 2592.6605,-243.69203 C 2592.6605,-247.06868 2593.0559,-250.33937 2593.8126,-253.48488 L 2549.5675,-253.48488 C 2550.3242,-250.33937 2550.7196,-247.06868 2550.7196,-243.69203 C 2550.7196,-220.60763 2531.9739,-201.86193 2508.8895,-201.86193 C 2485.8051,-201.86193 2467.0816,-220.60763 2467.0816,-243.69203 C 2467.0816,-247.06956 2467.4767,-250.33862 2468.2337,-253.48488 L 2423.9664,-253.48488 C 2424.7231,-250.33937 2425.1185,-247.06868 2425.1185,-243.69203 C 2425.1186,-220.60763 2406.395,-201.86193 2383.3106,-201.86193 C 2360.2263,-201.86193 2341.4805,-220.60763 2341.4805,-243.69203 C 2341.4805,-247.06868 2341.8759,-250.33937 2342.6326,-253.48488 L 2298.3653,-253.48488 C 2299.1225,-250.33862 2299.5174,-247.06956 2299.5174,-243.69203 C 2299.5174,-220.60763 2280.7939,-201.86193 2257.7095,-201.86193 C 2234.625,-201.86193 2215.8794,-220.60763 2215.8794,-243.69203 C 2215.8794,-247.06868 2216.2748,-250.33937 2217.0315,-253.48488 L 2172.7864,-253.48488 C 2173.5431,-250.33937 2173.9385,-247.06868 2173.9385,-243.69203 C 2173.9385,-220.60763 2155.1928,-201.86193 2132.1084,-201.86193 C 2109.024,-201.86193 2090.3005,-220.60763 2090.3005,-243.69203 C 2090.3005,-247.06868 2090.6959,-250.33937 2091.4526,-253.48488 L 2047.1853,-253.48488 C 2047.9423,-250.33862 2048.3374,-247.06956 2048.3374,-243.69203 C 2048.3374,-220.60763 2029.6138,-201.86193 2006.5295,-201.86193 C 1983.4451,-201.86193 1964.6994,-220.60763 1964.6994,-243.69203 C 1964.6994,-247.06868 1965.0948,-250.33937 1965.8515,-253.48488 L 1921.6064,-253.48488 C 1922.3631,-250.33937 1922.7585,-247.06868 1922.7585,-243.69203 C 1922.7584,-220.60763 1904.0128,-201.86193 1880.9284,-201.86193 C 1857.8441,-201.86193 1839.1204,-220.60763 1839.1204,-243.69203 C 1839.1204,-247.06956 1839.5154,-250.33862 1840.2725,-253.48488 L 1796.0053,-253.48488 C 1796.762,-250.33937 1797.1574,-247.06868 1797.1574,-243.69203 C 1797.1574,-220.60763 1778.4338,-201.86193 1755.3495,-201.86193 C 1732.2651,-201.86193 1713.5194,-220.60763 1713.5194,-243.69203 C 1713.5194,-247.06868 1713.9148,-250.33937 1714.6715,-253.48488 L 1670.4264,-253.48488 C 1671.183,-250.33937 1671.5785,-247.06868 1671.5785,-243.69203 C 1671.5785,-220.60763 1652.8327,-201.86193 1629.7484,-201.86193 C 1606.664,-201.86193 1587.9404,-220.60763 1587.9404,-243.69203 C 1587.9404,-247.06956 1588.3355,-250.33862 1589.0925,-253.48488 L 1544.8253,-253.48488 C 1545.5819,-250.33937 1545.9774,-247.06868 1545.9774,-243.69203 C 1545.9774,-220.60763 1527.2538,-201.86193 1504.1694,-201.86193 C 1481.0851,-201.86193 1462.3393,-220.60763 1462.3393,-243.69203 C 1462.3393,-247.06868 1462.7348,-250.33937 1463.4914,-253.48488 L 1419.2242,-253.48488 C 1419.9813,-250.33862 1420.3763,-247.06956 1420.3763,-243.69203 C 1420.3763,-220.60763 1401.6527,-201.86193 1378.5683,-201.86193 C 1355.484,-201.86193 1336.7382,-220.60763 1336.7382,-243.69203 C 1336.7382,-247.06868 1337.1337,-250.33937 1337.8903,-253.48488 L 1293.6453,-253.48488 C 1294.4019,-250.33937 1294.7974,-247.06868 1294.7974,-243.69203 C 1294.7974,-220.60763 1276.0516,-201.86193 1252.9673,-201.86193 C 1229.8829,-201.86193 1211.1593,-220.60763 1211.1593,-243.69203 C 1211.1593,-247.06868 1211.5547,-250.33937 1212.3114,-253.48488 L 1168.0442,-253.48488 C 1168.8012,-250.33862 1169.1963,-247.06956 1169.1963,-243.69203 C 1169.1963,-220.60763 1150.4727,-201.86193 1127.3883,-201.86193 C 1104.304,-201.86193 1085.5582,-220.60763 1085.5582,-243.69203 C 1085.5582,-247.06868 1085.9537,-250.33937 1086.7103,-253.48488 L 1042.4652,-253.48488 C 1043.2219,-250.33937 1043.6173,-247.06868 1043.6173,-243.69203 C 1043.6173,-220.60763 1024.8716,-201.86193 1001.7872,-201.86193 C 978.7029,-201.86193 959.97925,-220.60763 959.97925,-243.69203 C 959.97925,-247.06956 960.3743,-250.33862 961.13135,-253.48488 L 916.86418,-253.48488 C 917.62081,-250.33937 918.01628,-247.06868 918.01628,-243.69203 C 918.01621,-220.60763 899.29263,-201.86193 876.2083,-201.86193 C 853.12395,-201.86193 834.3782,-220.60763 834.3782,-243.69203 C 834.3782,-247.06868 834.7736,-250.33937 835.5303,-253.48488 L 791.28522,-253.48488 C 792.04192,-250.33937 792.43732,-247.06868 792.43732,-243.69203 C 792.43733,-220.60763 773.69158,-201.86193 750.60721,-201.86193 C 727.52284,-201.86193 708.79927,-220.60763 708.79927,-243.69203 C 708.79927,-247.06956 709.19429,-250.33862 709.95137,-253.48488 L 665.68413,-253.48488 C 666.44082,-250.33937 666.83623,-247.06868 666.83623,-243.69203 C 666.83625,-220.60763 648.11265,-201.86193 625.02828,-201.86193 C 601.94392,-201.86193 583.19818,-220.60763 583.19818,-243.69203 C 583.19818,-247.06868 583.59359,-250.33937 584.35028,-253.48488 L 540.08304,-253.48488 C 540.84012,-250.33862 541.23514,-247.06956 541.23514,-243.69203 C 541.23514,-220.60763 522.51156,-201.86193 499.42719,-201.86193 C 476.34282,-201.86193 457.59709,-220.60763 457.59709,-243.69203 C 457.59709,-247.06868 457.99249,-250.33937 458.74919,-253.48488 L 414.50411,-253.48488 C 415.26081,-250.33937 415.65621,-247.06868 415.65621,-243.69203 C 415.6562,-220.60763 396.91047,-201.86193 373.8261,-201.86193 C 350.74174,-201.86193 332.01816,-220.60763 332.01816,-243.69203 C 332.01816,-247.06868 332.41357,-250.33937 333.17026,-253.48488 L 288.90302,-253.48488 C 289.6601,-250.33862 290.05512,-247.06956 290.05512,-243.69203 C 290.05512,-220.60763 271.33154,-201.86193 248.24717,-201.86193 C 225.16278,-201.86193 206.41707,-220.60763 206.41707,-243.69203 C 206.41707,-247.06868 206.81247,-250.33937 207.56917,-253.48488 L 163.32409,-253.48488 C 164.08078,-250.33937 164.47619,-247.06868 164.47619,-243.69203 C 164.47619,-220.60763 145.73048,-201.86193 122.64608,-201.86193 C 99.561697,-201.86193 80.838135,-220.60763 80.838135,-243.69203 C 80.838135,-247.06868 81.233544,-250.33937 81.990235,-253.48488 L 37.722997,-253.48488 z "
     style="color:#000000;fill:#ffffff;fill-opacity:1;fill-rule:nonzero;stroke:#000000;stroke-width:0.37671888;stroke-linecap:butt;stroke-linejoin:miter;marker:none;marker-start:none;marker-mid:none;marker-end:none;stroke-miterlimit:4;stroke-dasharray:none;stroke-dashoffset:0;stroke-opacity:1;visibility:visible;display:inline;overflow:visible"
     id="rect7992" /><path
     d="M 103.79927,-134.99314 L 103.79927,-129.67575 L 103.79927,521.45478 L 103.79927,526.77217 L 109.11666,526.77217 L 3275.9801,526.77217 L 3281.2974,526.77217 L 3281.2974,521.45478 L 3281.2974,-129.67575 L 3281.2974,-134.99314 L 3275.9801,-134.99314 L 109.11666,-134.99314 L 103.79927,-134.99314 z M 114.43404,-124.35837 L 3270.6627,-124.35837 L 3270.6627,516.13739 L 114.43404,516.13739 L 114.43404,-124.35837 z M 266.8179,113.70132 L 190.25121,113.70132 L 190.25121,56.2763 L 266.8179,56.2763 L 266.8179,11.612401 L 254.05678,11.612401 L 254.05678,-20.290383 L 266.8179,-20.290383 L 266.8179,-33.051497 L 298.72068,-33.051497 L 298.72068,-20.290383 L 490.13739,-20.290383 C 543.01448,-47.998838 605.0778,-53.378888 658.72145,-54.039098 C 717.93036,-54.799448 720.99834,-54.133921 745.15142,-53.961114 C 847.3892,-53.199878 854.43618,-52.748808 868.86598,-55.025427 C 874.68292,-55.983396 881.06259,-52.136452 881.56684,-49.269632 C 882.73926,-42.913889 869.49163,-35.553207 865.40098,-34.256714 C 852.68329,-30.220125 829.91533,-28.393691 767.98317,-24.820579 L 766.50855,-24.790448 C 668.15139,-15.503193 612.97374,7.6857005 598.71497,14.321479 C 542.31705,40.643935 536.22894,52.898149 543.56126,60.717876 C 551.33136,69.010828 595.23669,50.769525 616.76663,44.621149 C 659.55358,32.414789 684.76831,44.104501 700.69576,56.2763 L 738.97911,56.2763 L 738.97911,49.895742 L 764.50134,49.895742 L 764.50134,56.2763 L 981.44027,56.2763 L 981.44027,113.70132 L 764.50134,113.70132 L 764.50134,158.3661 L 949.53748,158.3661 L 949.53748,190.26888 L 764.50134,190.26888 L 764.50134,292.35691 L 738.97911,292.35691 L 738.97911,190.26888 L 726.21799,190.26888 L 726.21799,158.3661 L 738.97911,158.3661 L 738.97911,113.70132 L 726.21799,113.70132 C 725.99733,136.27164 719.38637,156.96414 713.05987,165.48839 C 654.01136,244.8067 386.1733,255.01115 303.20391,256.36525 C 282.26771,256.72415 267.28137,253.21219 266.8179,247.69212 M 415.14192,54.886756 C 418.72124,39.832186 428.72275,24.492264 440.70491,11.725834 L 300.5099,12.285018 L 300.00123,56.450879 L 414.42322,56.915241 L 414.96379,57.830674 M 856.62506,-47.411295 C 855.16728,-48.137084 780.70795,-43.987063 776.5216,-44.367238 C 772.33613,-44.748298 727.48081,-44.105812 702.88819,-44.748298 C 673.77691,-45.509535 643.22645,-44.718168 614.79309,-42.084417 C 586.06286,-39.420534 556.38086,-30.478006 531.83699,-20.203537 C 508.48769,-10.427992 485.21993,1.8669869 466.9547,16.32781 C 457.60098,23.731028 450.49021,31.953971 444.12294,42.014869 C 436.89253,53.429862 433.40715,66.470126 438.22358,77.404805 C 443.41576,89.176933 455.02749,94.391265 469.42805,96.621801 C 482.50287,98.654718 498.53934,97.572682 508.81381,99.665859 C 514.91434,100.9083 524.92737,102.54952 525.55746,108.41874 C 526.12816,113.74562 516.51302,122.65359 512.0484,124.78044 C 503.67657,128.77715 492.45034,125.35204 481.60517,123.06832 C 474.13017,121.49888 463.03686,117.85931 456.10864,114.69561 C 451.43045,112.55636 446.42526,110.86728 445.47349,110.86728 C 445.0942,110.86728 298.53193,110.48799 298.72068,110.86728 C 298.72068,113.34064 298.53193,232.77137 298.72068,238.47842 C 298.92893,244.781 320.67866,242.91379 334.14695,241.60578 C 360.16633,239.05976 387.23141,235.89695 413.48918,232.09254 C 428.50298,229.91607 444.41449,227.0971 459.53376,224.10001 C 483.50782,219.34472 512.17423,212.68413 524.09436,208.87795 C 553.90751,199.36561 584.73091,190.99378 612.89044,178.81667 C 625.55053,173.34623 640.66979,166.44902 650.94515,159.40825 C 661.89666,151.90401 673.58637,141.5232 678.53396,130.86856 C 684.02745,119.03617 685.70943,104.7898 680.05555,91.862969 C 674.72867,79.685854 660.07732,68.841566 647.32949,66.747503 C 640.07428,65.558238 634.39114,64.844856 627.35127,65.415561 C 619.25327,66.069568 605.47039,69.030324 596.33733,70.172621 C 581.32352,72.05134 563.68217,74.721427 548.95992,72.456328 C 539.06651,70.932971 523.46428,58.186036 528.98168,43.345037 C 533.02536,32.463529 548.69229,21.296669 558.09298,15.185513 C 580.92562,0.34362847 621.99958,-12.612447 657.22379,-20.966545 C 686.9049,-28.00554 728.57348,-33.714366 763.77378,-34.094541 C 767.16787,-34.129988 798.96698,-36.264817 802.20776,-36.378249 C 855.67329,-38.280896 857.38541,-47.032893 856.62506,-47.413067 M 1144.1888,-27.81944 L 1144.1888,12.898261 L 1211.5391,12.898261 L 1211.5391,38.774964 L 1144.1888,38.774964 L 1144.1888,117.92666 L 1109.9376,117.92666 L 1109.9376,-54.836668 L 1236.6537,-54.836668 L 1236.6537,-27.81944 L 1144.1888,-27.81944 M 1379.4453,117.92666 L 1328.0906,46.765725 C 1322.9153,46.765725 1315.6751,46.504299 1306.379,45.975245 L 1306.379,117.92666 L 1270.9935,117.92666 L 1270.9935,-54.522071 C 1272.9165,-54.522071 1280.3162,-54.826034 1293.2013,-55.43839 C 1306.0777,-56.04986 1316.4727,-56.35914 1324.3597,-56.35914 C 1373.2596,-56.35914 1397.7105,-39.36559 1397.7105,-5.3908967 C 1397.7105,4.8587592 1394.3332,14.182348 1387.5813,22.590504 C 1380.8197,30.996888 1372.3123,36.913081 1362.0414,40.32668 L 1419.0233,117.92666 L 1379.4462,117.92666 L 1379.4453,117.92666 z M 1306.379,-27.925784 L 1306.379,20.235901 C 1312.7153,20.675451 1317.5538,20.889022 1320.8947,20.889022 C 1335.2333,20.889022 1345.7169,19.09449 1352.3544,15.497451 C 1358.992,11.90573 1362.3152,4.8419217 1362.3152,-5.6886562 C 1362.3152,-14.190748 1358.7528,-20.137072 1351.6278,-23.514337 C 1344.5029,-26.891602 1333.2926,-28.57979 1317.9881,-28.57979 C 1314.2927,-28.57979 1310.42,-28.360016 1306.3781,-27.925784 M 1473.6471,-27.81944 L 1473.6471,12.898261 L 1535.6803,12.898261 L 1535.6803,38.774964 L 1473.6471,38.774964 L 1473.6471,90.907659 L 1560.7948,90.907659 L 1560.7948,117.92666 L 1439.4047,117.92666 L 1439.4047,-54.836668 L 1560.7948,-54.836668 L 1560.7948,-27.81944 L 1473.6471,-27.81944 M 1630.7682,-27.81944 L 1630.7682,12.898261 L 1692.7926,12.898261 L 1692.7926,38.774964 L 1630.7682,38.774964 L 1630.7682,90.907659 L 1717.8983,90.907659 L 1717.8983,117.92666 L 1596.5171,117.92666 L 1596.5171,-54.836668 L 1717.8983,-54.836668 L 1717.8983,-27.81944 L 1630.7682,-27.81944 M 1829.6024,108.48432 L 1842.2217,81.014251 C 1855.7184,89.642181 1869.0023,93.952602 1882.0647,93.952602 C 1902.1369,93.952602 1912.1774,87.638509 1912.1774,74.997031 C 1912.1774,69.122488 1909.8015,63.504053 1905.0693,58.152361 C 1900.3282,52.801555 1890.5802,46.789653 1875.8074,40.118425 C 1861.0249,33.447198 1851.0738,27.965237 1845.9517,23.661019 C 1840.8304,19.355916 1836.8771,14.241722 1834.121,8.3140081 C 1831.3562,2.3854072 1829.9826,-4.1369401 1829.9826,-11.247716 C 1829.9826,-24.684992 1835.4238,-35.816405 1846.3319,-44.640184 C 1857.2338,-53.463962 1871.2178,-57.881612 1888.2946,-57.881612 C 1910.538,-57.881612 1926.8616,-54.1481 1937.292,-46.685506 L 1926.9236,-20.207968 C 1914.9512,-27.81944 1902.3053,-31.624734 1889.0205,-31.624734 C 1881.152,-31.624734 1875.0541,-29.757534 1870.7215,-26.02934 C 1866.3969,-22.295827 1864.2258,-17.449263 1864.2258,-11.486101 C 1864.2258,-1.5678796 1876.4197,8.74824 1900.8076,19.450738 C 1913.6485,25.146271 1922.9171,30.355287 1928.5976,35.082217 C 1934.2869,39.809146 1938.6125,45.345165 1941.5891,51.695592 C 1944.5587,58.045132 1946.0467,65.115143 1946.0467,72.903854 C 1946.0467,86.913607 1939.8965,98.430512 1927.5962,107.44482 C 1915.3048,116.46356 1898.8217,120.97071 1878.1646,120.97071 C 1860.2193,120.97071 1844.0375,116.81095 1829.6015,108.48521 M 1971.2064,30.164757 C 1971.2064,5.5499857 1978.7133,-15.278988 1993.7431,-32.320392 C 2008.764,-49.361795 2028.8442,-57.881612 2053.9853,-57.881612 C 2081.6698,-57.881612 2102.8232,-50.169114 2117.4541,-34.752093 C 2132.0762,-19.328869 2139.4059,2.3083087 2139.4059,30.164757 C 2139.4059,58.027408 2131.7572,80.122745 2116.4704,96.461401 C 2101.1837,112.80183 2079.4818,120.97071 2051.3622,120.97071 C 2025.521,120.97071 2005.6969,112.86741 1991.899,96.658135 C 1978.1089,80.450634 1971.2055,58.28972 1971.2055,30.164757 L 1971.2064,30.164757 z M 2006.6008,30.289709 C 2006.6008,50.458473 2010.4114,66.113878 2018.0504,77.251495 C 2025.6805,88.387338 2036.7756,93.952602 2051.3622,93.952602 C 2068.4745,93.952602 2081.5192,88.517608 2090.5148,77.643189 C 2099.5088,66.774974 2104.0195,50.987527 2104.0195,30.289709 C 2104.0195,-10.225055 2087.3326,-30.483323 2053.9853,-30.483323 C 2038.7171,-30.483323 2026.992,-25.000475 2018.839,-14.036552 C 2010.6773,-3.0726281 2006.6008,11.702792 2006.6008,30.289709 M 2207.8267,-27.81944 L 2207.8267,12.898261 L 2275.1868,12.898261 L 2275.1868,38.774964 L 2207.8267,38.774964 L 2207.8267,117.92666 L 2173.5844,117.92666 L 2173.5844,-54.836668 L 2300.3005,-54.836668 L 2300.3005,-27.81944 L 2207.8259,-27.81944 M 2417.0656,-27.81944 L 2417.0656,117.92666 L 2382.8153,117.92666 L 2382.8153,-27.81944 L 2321.5522,-27.81944 L 2321.5522,-54.836668 L 2480.9952,-54.836668 L 2480.9952,-27.81944 L 2417.0656,-27.81944 M 2666.2618,120.21036 L 2652.1802,120.21036 L 2610.3167,11.375789 L 2569.6052,120.21036 L 2555.5237,120.21036 L 2492.3562,-54.836668 L 2528.1227,-54.836668 L 2564.0842,49.430493 L 2603.0854,-54.836668 L 2617.9291,-54.836668 L 2656.94,49.430493 L 2692.9015,-54.836668 L 2728.6672,-54.836668 L 2666.2618,120.21036 M 2846.5036,117.92666 L 2832.5108,82.916897 L 2766.6501,82.916897 L 2753.2677,117.92666 L 2715.2157,117.92666 L 2792.0837,-57.121262 L 2806.9273,-57.121262 L 2884.1764,117.92666 L 2846.5036,117.92666 L 2846.5036,117.92666 z M 2799.509,-4.226445 L 2776.353,59.323902 L 2822.5668,59.323902 L 2799.5081,-4.226445 M 3013.497,117.92666 L 2962.1512,46.765725 C 2956.967,46.765725 2949.7357,46.504299 2940.4396,45.975245 L 2940.4396,117.92666 L 2905.0461,117.92666 L 2905.0461,-54.522071 C 2906.9692,-54.522071 2914.3688,-54.826034 2927.262,-55.43839 C 2940.1383,-56.04986 2950.5245,-56.35914 2958.4204,-56.35914 C 3007.3114,-56.35914 3031.7711,-39.36559 3031.7711,-5.3908967 C 3031.7711,4.8587592 3028.3938,14.182348 3021.6331,22.590504 C 3014.8804,30.996888 3006.3649,36.913081 2996.102,40.32668 L 3053.0751,117.92666 L 3013.4979,117.92666 L 3013.497,117.92666 z M 2940.4396,-27.925784 L 2940.4396,20.235901 C 2946.7582,20.675451 2951.6065,20.889022 2954.9465,20.889022 C 2969.285,20.889022 2979.7784,19.09449 2986.4151,15.497451 C 2993.0438,11.90573 2996.3759,4.8419217 2996.3759,-5.6886562 C 2996.3759,-14.190748 2992.8054,-20.137072 2985.6884,-23.514337 C 2978.5634,-26.891602 2967.3443,-28.57979 2952.0398,-28.57979 C 2948.3444,-28.57979 2944.4806,-28.360016 2940.4387,-27.925784 M 3107.7077,-27.81944 L 3107.7077,12.898261 L 3169.732,12.898261 L 3169.732,38.774964 L 3107.7077,38.774964 L 3107.7077,90.907659 L 3194.8466,90.907659 L 3194.8466,117.92666 L 3073.4565,117.92666 L 3073.4565,-54.836668 L 3194.8457,-54.836668 L 3194.8457,-27.81944 L 3107.7068,-27.81944 M 1169.5958,198.04696 L 1169.5958,225.63666 L 1211.8404,225.63666 L 1211.8404,237.2413 L 1169.5958,237.2413 L 1169.5958,285.38083 L 1153.2368,285.38083 L 1153.2368,185.67931 L 1227.4462,185.67931 L 1227.4462,198.04696 L 1169.5958,198.04696 M 1355.2169,234.67312 C 1355.2169,220.18926 1359.5857,208.10608 1368.3059,198.37928 C 1377.0259,188.6507 1388.7946,183.77578 1403.6204,183.77578 C 1420.2985,183.77578 1433.0774,188.27053 1441.9659,197.21305 C 1450.8543,206.1804 1455.303,218.6659 1455.303,234.67312 C 1455.303,251.0366 1450.8454,263.87924 1441.9304,273.1789 C 1433.0154,282.45464 1420.2453,287.09117 1403.6213,287.09117 C 1388.4675,287.09117 1376.6103,282.19321 1368.0586,272.39285 C 1359.498,262.57122 1355.2178,250.01305 1355.2178,234.67312 L 1355.2169,234.67312 z M 1372.5329,234.65009 C 1372.5329,246.13686 1375.2447,255.72187 1380.6682,263.40424 C 1386.1005,271.08661 1393.7483,274.91494 1403.6204,274.91494 C 1414.8041,274.91494 1423.3293,271.39411 1429.187,264.33208 C 1435.0535,257.29132 1437.9869,247.39702 1437.9869,234.65009 C 1437.9869,208.8682 1426.5373,195.95378 1403.6204,195.95378 C 1393.4825,195.95378 1385.7637,199.42675 1380.4732,206.34789 C 1375.1827,213.24331 1372.5329,222.68742 1372.5329,234.65009 M 1593.6636,185.67931 L 1610.0315,185.67931 L 1610.0315,253.98583 C 1610.0315,260.07395 1612.3532,265.06851 1617.0146,269.01736 C 1621.6582,272.96444 1627.8173,274.91494 1635.4828,274.91494 C 1643.5826,274.91494 1649.9631,273.01319 1654.6157,269.207 C 1659.2681,265.42475 1661.5899,260.24144 1661.5899,253.65351 L 1661.5899,185.67931 L 1677.9578,185.67931 L 1677.9578,255.1042 C 1677.9578,265.16598 1674.1738,273.01319 1666.5969,278.65023 C 1659.0288,284.2855 1648.7136,287.09117 1635.6512,287.09117 C 1622.1988,287.09117 1611.8393,284.33424 1604.5726,278.81506 C 1597.297,273.29765 1593.6636,265.35474 1593.6636,255.00849 L 1593.6636,185.67931 M 1899.7708,286.71189 L 1837.7464,213.83972 L 1837.7464,285.38083 L 1822.1407,285.38083 L 1822.1407,185.67931 L 1828.8057,185.67931 L 1889.1197,254.55565 L 1889.1197,185.67931 L 1904.7175,185.67931 L 1904.7175,286.71189 L 1899.7726,286.71189 M 2073.1181,285.38083 L 2048.8809,285.38083 L 2048.8809,185.5836 C 2064.3351,185.15646 2074.217,184.91808 2078.5416,184.91808 C 2095.3526,184.91808 2108.6632,189.1514 2118.4643,197.61715 C 2128.2745,206.08557 2133.176,217.38359 2133.176,231.51032 C 2133.176,267.42222 2113.1472,285.37995 2073.1181,285.37995 L 2073.1181,285.38083 z M 2065.2487,197.8325 L 2065.2487,272.56123 C 2068.9087,272.98749 2073.4646,273.20283 2078.8872,273.20283 C 2090.39,273.20283 2099.4211,269.63681 2106.0054,262.4764 C 2112.5624,255.31866 2115.8599,245.37562 2115.8599,232.65173 C 2115.8599,208.96392 2103.0633,197.09519 2077.4879,197.09519 C 2075.9548,197.09519 2071.8686,197.35662 2065.2487,197.8325 M 2339.7456,285.38083 L 2331.4686,264.44994 L 2286.7781,264.44994 L 2277.9065,285.38083 L 2259.4472,285.38083 L 2308.3479,184.34737 L 2312.7257,184.34737 L 2358.01,285.38083 L 2339.7456,285.38083 z M 2309.7748,210.41461 L 2291.1285,254.36689 L 2326.7975,254.36689 L 2309.7748,210.41461 M 2517.4796,198.04696 L 2517.4796,285.38083 L 2501.1206,285.38083 L 2501.1206,198.04696 L 2462.8727,198.04696 L 2462.8727,185.67931 L 2557.4379,185.67931 L 2557.4379,198.04696 L 2517.4796,198.04696 M 2693.6184,185.67931 L 2709.9863,185.67931 L 2709.9863,285.38083 L 2693.6184,285.38083 L 2693.6184,185.67931 z M 2851.2802,234.67312 C 2851.2802,220.18926 2855.6491,208.10608 2864.3603,198.37928 C 2873.0893,188.6507 2884.8579,183.77578 2899.6838,183.77578 C 2916.353,183.77578 2929.1398,188.27053 2938.0371,197.21305 C 2946.9177,206.1804 2951.3654,218.6659 2951.3654,234.67312 C 2951.3654,251.0366 2946.9079,263.87924 2937.984,273.1789 C 2929.0778,282.45464 2916.3078,287.09117 2899.6829,287.09117 C 2884.5282,287.09117 2872.6719,282.19321 2864.1104,272.39285 C 2855.5596,262.57122 2851.2793,250.01305 2851.2793,234.67312 L 2851.2802,234.67312 z M 2868.5963,234.65009 C 2868.5963,246.13686 2871.3081,255.72187 2876.7316,263.40424 C 2882.1639,271.08661 2889.8117,274.91494 2899.6838,274.91494 C 2910.8578,274.91494 2919.3829,271.39411 2925.2503,264.33208 C 2931.108,257.29132 2934.0502,247.39702 2934.0502,234.65009 C 2934.0502,208.8682 2922.6007,195.95378 2899.6847,195.95378 C 2889.5379,195.95378 2881.8192,199.42675 2876.5277,206.34789 C 2871.2372,213.24331 2868.5972,222.68742 2868.5972,234.65009 M 3167.357,286.71189 L 3105.3239,213.83972 L 3105.3239,285.38083 L 3089.726,285.38083 L 3089.726,185.67931 L 3096.3822,185.67931 L 3156.6962,254.55565 L 3156.6962,185.67931 L 3172.3019,185.67931 L 3172.3019,286.71189 L 3167.357,286.71189"
     style="color:#000000;fill:#b11107;fill-opacity:1;fill-rule:nonzero;stroke:none;stroke-width:12;stroke-linecap:butt;stroke-linejoin:miter;marker:none;marker-start:none;marker-mid:none;marker-end:none;stroke-miterlimit:4;stroke-dashoffset:0;stroke-opacity:1;visibility:visible;display:inline;overflow:visible"
     id="rect14344" /><path
     d="M 119.50816,402.78748 L 3266.9915,402.78748 L 3266.9915,513.58938 L 119.50816,513.58938 L 119.50816,402.78748 z "
     style="color:#000000;fill:#b11107;fill-opacity:1;fill-rule:nonzero;stroke:#b11107;stroke-width:15.3638258;stroke-linecap:butt;stroke-linejoin:miter;marker:none;marker-start:none;marker-mid:none;marker-end:none;stroke-miterlimit:4;stroke-dashoffset:0;stroke-opacity:1;visibility:visible;display:inline;overflow:visible"
     id="rect17838" /><path
     d="M 1467.0821,496.1925 L 1423.5539,496.1925 L 1416.6848,515.85972 L 1388.7024,515.85972 L 1428.6876,407.90692 L 1461.8761,407.90692 L 1501.8613,515.85972 L 1473.8788,515.85972 L 1467.0821,496.1925 M 1430.4952,476.16375 L 1460.0684,476.16375 L 1445.318,433.21401 L 1430.4952,476.16375 M 1516.1055,407.90692 L 1543.9433,407.90692 L 1543.9433,515.85972 L 1516.1055,515.85972 L 1516.1055,407.90692 M 1610.8986,455.77347 C 1616.7313,455.77353 1620.9009,454.68894 1623.4076,452.5197 C 1625.9623,450.35059 1627.2398,446.7835 1627.2398,441.81842 C 1627.2398,436.90169 1625.9623,433.38281 1623.4076,431.26175 C 1620.9009,429.14086 1616.7313,428.08037 1610.8986,428.08028 L 1599.1851,428.08028 L 1599.1851,455.77347 L 1610.8986,455.77347 M 1599.1851,475.00685 L 1599.1851,515.85972 L 1571.3473,515.85972 L 1571.3473,407.90692 L 1613.8632,407.90692 C 1628.0833,407.90703 1638.4953,410.29312 1645.0994,415.06521 C 1651.7514,419.8375 1655.0775,427.38142 1655.0776,437.69698 C 1655.0775,444.83124 1653.3422,450.68802 1649.8715,455.26733 C 1646.449,459.84676 1641.2671,463.22104 1634.3258,465.39017 C 1638.1338,466.25788 1641.5322,468.23424 1644.5209,471.31925 C 1647.5577,474.35614 1650.6186,478.98372 1653.7038,485.20199 L 1668.8157,515.85972 L 1639.1703,515.85972 L 1626.0106,489.03421 C 1623.3593,483.63539 1620.6599,479.9478 1617.9124,477.9714 C 1615.2129,475.99507 1611.5975,475.0069 1607.0664,475.00685 L 1599.1851,475.00685 M 1685.3015,407.90692 L 1720.7315,407.90692 L 1745.3154,465.67939 L 1770.0441,407.90692 L 1805.4017,407.90692 L 1805.4017,515.85972 L 1779.0823,515.85972 L 1779.0823,436.90161 L 1754.2091,495.10791 L 1736.5665,495.10791 L 1711.6931,436.90161 L 1711.6931,515.85972 L 1685.3015,515.85972 L 1685.3015,407.90692 M 1898.3149,496.1925 L 1854.7867,496.1925 L 1847.9176,515.85972 L 1819.9352,515.85972 L 1859.9203,407.90692 L 1893.1088,407.90692 L 1933.094,515.85972 L 1905.1116,515.85972 L 1898.3149,496.1925 M 1861.728,476.16375 L 1891.3011,476.16375 L 1876.5507,433.21401 L 1861.728,476.16375 M 1947.3382,407.90692 L 1975.1761,407.90692 L 1975.1761,515.85972 L 1947.3382,515.85972 L 1947.3382,407.90692 M 2002.58,407.90692 L 2030.4179,407.90692 L 2030.4179,494.81869 L 2079.2967,494.81869 L 2079.2967,515.85972 L 2002.58,515.85972 L 2002.58,407.90692 M 236.42583,500.14302 L 236.42583,470.18002 L 214.5981,470.18002 L 214.5981,465.48219 L 242.09761,465.48219 L 242.09761,502.89297 C 238.0108,504.91724 233.52304,506.42589 228.63431,507.41893 C 223.74545,508.45016 218.51291,509.00397 212.93667,509.08036 C 200.56186,509.08036 190.89885,505.1655 183.94761,497.33578 C 176.95814,489.54427 173.46342,478.67816 173.46343,464.73741 C 173.46342,450.75855 176.95814,439.85425 183.94761,432.02446 C 190.89885,424.23302 200.56186,420.33726 212.93667,420.33717 C 218.05458,420.33726 222.88609,420.85287 227.4312,421.88402 C 232.01439,422.99172 236.21569,424.61495 240.03514,426.75372 L 240.03514,432.31091 C 236.1775,430.17214 232.05258,428.54891 227.66037,427.44121 C 223.30622,426.37186 218.72297,425.83715 213.91061,425.83707 C 202.41426,425.83715 193.78248,429.10271 188.01525,435.63377 C 182.24797,442.12677 179.36435,451.82798 179.36436,464.73741 C 179.36435,477.8379 182.24797,487.69188 188.01525,494.29938 C 193.78248,500.9451 202.41426,504.26795 213.91061,504.26795 C 218.60839,504.26795 222.8097,503.9433 226.51455,503.29401 C 230.18109,502.60652 233.48484,501.5562 236.42583,500.14302 M 268.85233,421.88402 L 277.33134,421.88402 L 318.80976,500.08573 L 318.80976,421.88402 L 324.53883,421.88402 L 324.53883,507.41893 L 316.40356,507.41893 L 274.69597,428.7016 L 274.69597,507.41893 L 268.85233,507.41893 L 268.85233,421.88402 M 355.53305,421.88402 L 361.26211,421.88402 L 361.26211,473.84662 C 361.26209,484.69367 363.17178,492.50428 366.99118,497.27849 C 370.77233,502.01452 376.90242,504.38253 385.38147,504.38253 C 393.82224,504.38253 399.93323,502.01452 403.71447,497.27849 C 407.53378,492.50428 409.44347,484.69367 409.44353,473.84662 L 409.44353,421.88402 L 415.1726,421.88402 L 415.1726,475.27889 C 415.17253,486.43148 412.65174,494.8532 407.61023,500.54405 C 402.60679,506.23493 395.19721,509.08036 385.38147,509.08036 C 375.52745,509.08036 368.09877,506.23493 363.09541,500.54405 C 358.05382,494.8532 355.53304,486.43148 355.53305,475.27889 L 355.53305,421.88402 M 485.75468,426.63914 L 485.75468,465.94051 L 503.3429,465.94051 C 509.72121,465.94055 514.6482,464.24093 518.12388,460.84165 C 521.63765,457.44245 523.39456,452.57275 523.39462,446.23254 C 523.39456,440.00702 521.63765,435.17552 518.12388,431.73801 C 514.6482,428.33884 509.72121,426.63922 503.3429,426.63914 L 485.75468,426.63914 M 480.02561,421.88402 L 503.3429,421.88402 C 511.86006,421.8841 518.3148,423.94656 522.70713,428.07141 C 527.06116,432.19641 529.2382,438.25011 529.23827,446.23254 C 529.2382,454.25328 527.06116,460.32608 522.70713,464.45096 C 518.3148,468.57592 511.86006,470.63838 503.3429,470.63834 L 485.75468,470.63834 L 485.75468,507.41893 L 480.02561,507.41893 L 480.02561,421.88402 M 568.25318,441.70658 C 576.4266,441.70664 582.88134,444.76214 587.61741,450.87308 C 592.39157,457.02232 594.77868,465.17668 594.77874,475.33618 C 594.77868,485.83948 592.39157,494.12752 587.61741,500.20031 C 582.88134,506.31131 576.4266,509.36681 568.25318,509.36681 C 560.0033,509.36681 553.49127,506.33041 548.71707,500.2576 C 543.98104,494.18481 541.61303,485.87767 541.61303,475.33618 C 541.61303,465.0621 544.00013,456.88864 548.77436,450.81579 C 553.54856,444.74304 560.04149,441.70664 568.25318,441.70658 M 568.31047,446.34712 C 561.77931,446.34718 556.62316,448.96345 552.842,454.19593 C 549.02261,459.39033 547.11292,466.41798 547.11294,475.27889 C 547.11292,484.36902 549.00351,491.51125 552.78471,496.70558 C 556.56587,501.93813 561.74111,504.5544 568.31047,504.5544 C 574.84156,504.5544 579.99771,501.93813 583.77894,496.70558 C 587.59826,491.43486 589.50795,484.29264 589.508,475.27889 C 589.50795,466.53256 587.59826,459.52401 583.77894,454.25322 C 579.99771,448.98254 574.84156,446.34718 568.31047,446.34712 M 653.67351,445.14401 L 653.67351,450.93037 C 649.96867,448.86796 647.65795,447.72215 646.74135,447.49293 C 644.06774,446.8437 640.74489,446.46176 636.77278,446.34712 C 630.73814,446.34718 626.00212,447.55028 622.5647,449.95643 C 619.92932,451.94256 618.61163,455.3418 618.61165,460.15416 C 618.61163,463.40067 619.85293,465.94055 622.33554,467.77381 C 624.97089,469.75993 628.73297,471.28767 633.62179,472.35706 L 637.2311,473.15913 C 643.30387,474.49595 647.90621,476.38654 651.03815,478.83091 C 654.6665,481.61908 656.57619,485.24748 656.76721,489.71613 C 656.76716,495.78894 654.97205,500.54406 651.38189,503.98149 C 647.56247,507.38074 641.41328,509.08036 632.93431,509.08036 C 628.19826,509.08036 624.60805,508.75571 622.16367,508.10642 C 619.22273,507.26616 616.12904,506.25402 612.88258,505.07001 L 612.88258,498.48159 C 617.54221,501.15516 620.55951,502.68291 621.9345,503.06484 C 625.71566,504.05788 629.45865,504.5544 633.16347,504.5544 C 639.35082,504.5544 643.91497,503.27491 646.85593,500.71593 C 649.835,498.11876 651.32455,494.71952 651.3246,490.51819 C 651.32455,487.00439 650.33151,484.44541 648.34549,482.84125 C 645.48091,480.54965 640.91676,478.67816 634.65302,477.22677 L 630.98642,476.36741 C 625.60108,475.10705 621.49526,473.33104 618.66894,471.03938 C 615.11691,468.17489 613.3409,464.69926 613.34091,460.61248 C 613.3409,453.89044 615.47975,449.05893 619.75746,446.11795 C 624.03514,443.1771 629.28678,441.70664 635.51238,441.70658 C 640.82128,441.70664 644.48788,441.99309 646.51219,442.56594 C 648.95654,443.25349 651.34365,444.11285 653.67351,445.14401 M 705.80796,443.25342 L 705.80796,447.72209 L 705.80796,443.25342 M 684.09485,425.035 L 684.09485,443.25342 L 705.80796,443.25342 L 705.80796,447.72209 L 684.09485,447.72209 L 684.09485,486.27869 C 684.09483,491.1675 684.72502,494.58584 685.98544,496.53371 C 688.58259,500.81142 692.36377,502.95027 697.32898,502.95026 L 705.80796,502.95026 L 705.80796,507.41893 L 697.61544,507.41893 C 692.38286,507.41893 687.9333,505.89118 684.26672,502.83568 C 680.6001,499.78019 678.7668,494.2612 678.76682,486.27869 L 678.76682,447.72209 L 671.08987,447.72209 L 671.08987,443.25342 L 678.76682,443.25342 L 678.76682,425.035 L 684.09485,425.035 M 3051.5598,502.93207 L 3070.5146,502.93207 L 3070.5146,426.65349 L 3067.6427,426.65349 L 3047.0222,430.78907 L 3047.0222,426.02166 L 3067.5278,421.88607 L 3076.2585,421.88607 L 3076.2585,502.93207 L 3095.2133,502.93207 L 3095.2133,507.64204 L 3051.5598,507.64204 L 3051.5598,502.93207 M 3146.0465,425.0452 C 3139.0389,425.04529 3133.8312,428.45331 3130.4232,435.26929 C 3127.0151,442.12371 3125.3111,451.98401 3125.3111,464.85022 C 3125.3111,477.71652 3127.0151,487.57681 3130.4232,494.43115 C 3133.8312,501.24721 3139.0389,504.65524 3146.0465,504.65523 C 3153.2837,504.65524 3158.6064,501.24721 3162.0145,494.43115 C 3165.4224,487.57681 3167.1264,477.71652 3167.1265,464.85022 C 3167.1264,451.98401 3165.4224,442.12371 3162.0145,435.26929 C 3158.6064,428.45331 3153.2837,425.04529 3146.0465,425.0452 M 3146.0465,420.33523 C 3154.3176,420.33532 3160.8656,423.70505 3165.6905,430.44444 C 3170.5153,437.22228 3172.9277,448.69086 3172.9278,464.85022 C 3172.9277,481.00966 3170.5153,492.47824 3165.6905,499.256 C 3160.8656,505.99547 3154.3176,509.3652 3146.0465,509.36521 C 3138.0051,509.3652 3131.5719,505.99547 3126.7471,499.256 C 3121.9222,492.47824 3119.5098,481.00966 3119.5098,464.85022 C 3119.5098,448.69086 3121.9222,437.22228 3126.7471,430.44444 C 3131.5719,423.70505 3138.0051,420.33532 3146.0465,420.33523 M 3185.6167,442.37825 C 3185.6167,434.55823 3187.3829,429.01599 3190.9154,425.75152 C 3194.4478,422.51148 3199.2104,420.89144 3205.2034,420.8914 C 3207.1523,420.89144 3209.223,421.17159 3211.4156,421.73187 C 3213.6081,422.26786 3215.4717,422.97434 3217.0066,423.85132 L 3217.0066,427.43246 C 3214.9845,426.19006 3213.3158,425.34959 3212.0003,424.91104 C 3209.7346,424.2046 3207.5664,423.85136 3205.4957,423.85132 C 3199.6002,423.85136 3195.3735,425.36177 3192.8156,428.38256 C 3190.2576,431.40342 3188.9786,436.06864 3188.9786,442.37825 C 3188.9786,448.73662 3190.2576,453.4262 3192.8156,456.44702 C 3195.3735,459.46785 3199.6002,460.97826 3205.4957,460.97826 C 3207.4446,460.97826 3209.3692,460.71029 3211.2694,460.17433 C 3213.1939,459.66274 3215.1063,458.88318 3217.0066,457.83563 L 3217.0066,461.23406 C 3215.1307,462.11107 3213.1939,462.76883 3211.1963,463.20734 C 3209.1743,463.64585 3207.1767,463.8651 3205.2034,463.8651 C 3199.2104,463.8651 3194.4478,462.24506 3190.9154,459.00498 C 3187.3829,455.74054 3185.6167,450.19831 3185.6167,442.37825"
     style="font-size:167.09255981px;font-style:normal;font-variant:normal;font-weight:bold;font-stretch:normal;text-align:start;line-height:100%;writing-mode:lr-tb;text-anchor:start;fill:#ffffff;fill-opacity:1;stroke:none;stroke-width:1px;stroke-linecap:butt;stroke-linejoin:miter;stroke-opacity:1;font-family:DejaVu Sans"
     id="text1328" /></svg>