<?xml version="1.0" encoding="UTF-8" standalone="no"?>
<!-- Created with Inkscape (http://www.inkscape.org/) -->
<svg
   xmlns:svg="http://www.w3.org/2000/svg"
   xmlns="http://www.w3.org/2000/svg"
   xmlns:xlink="http://www.w3.org/1999/xlink"
   version="1.0"
   width="769.90698"
   height="771.29401"
   id="svg1329">
  <defs
     id="defs1331">
    <linearGradient
       id="linearGradient4112">
      <stop
         style="stop-color:#8b008b;stop-opacity:1"
         offset="0"
         id="stop4114" />
      <stop
         style="stop-color:#8b008b;stop-opacity:0"
         offset="1"
         id="stop4116" />
    </linearGradient>
    <linearGradient
       x1="270.93649"
       y1="241.71193"
       x2="603.95844"
       y2="790.35846"
       id="linearGradient1311"
       xlink:href="#linearGradient4112"
       gradientUnits="userSpaceOnUse" />
  </defs>
  <path
     d="M 629.41004,88.530925 C 608.7318,84.758982 577.15459,70.835298 610.64868,92.647801 C 617.7533,105.88317 636.69466,101.75045 629.41004,88.530925 z M 595.8255,63.728717 C 568.48304,45.974504 539.54785,30.493593 509.56232,23.810355 C 486.91036,15.212095 436.09344,0.6827927 429.11291,4.128841 C 462.59173,14.033408 494.98648,28.072906 528.17913,31.997268 C 548.44867,33.184127 478.84086,37.981591 520.16689,37.345995 C 539.40936,35.578284 546.19312,44.479739 522.76566,40.108125 C 517.44995,37.265446 560.9985,68.189949 571.61696,57.284672 C 579.70435,57.26283 589.45005,63.433153 595.8255,63.728717 z M 643.76832,101.01333 C 628.32062,111.1845 654.49224,110.18358 632.58217,111.00237 C 637.47021,109.08023 671.21151,161.25019 674.18626,139.57579 C 686.23896,140.38955 652.69589,109.87203 643.76832,101.01333 z M 576.39031,53.316263 C 565.71615,56.940267 574.19721,46.053032 576.39031,53.316263 z M 658.45606,115.56906 C 652.24828,125.71631 646.186,121.06367 658.45606,115.56906 z M 591.30204,77.377216 C 581.49765,70.050776 590.94762,82.194463 591.30204,77.377216 z M 689.58165,150.76533 C 666.86661,149.95573 674.74785,163.49854 693.68443,156.14425 L 689.58165,150.76533 z M 541.56265,44.401925 C 540.19647,49.463051 526.27165,39.048791 541.56265,44.401925 z M 698.91571,163.41113 C 700.92233,168.0811 672.17353,164.96118 689.85639,170.11417 C 671.61449,165.64081 731.54374,191.67972 698.91571,163.41113 z M 709.15643,178.55854 C 691.34249,171.90527 677.68036,170.43181 704.14114,177.825 L 709.73605,179.45556 L 709.15643,178.55854 z M 710.88318,181.31843 C 688.18092,169.12915 684.47998,182.50429 707.77619,190.416 C 733.44683,203.66844 708.2538,184.99267 710.88318,181.31843 z M 704.44544,181.28911 C 689.30952,178.92498 686.80678,175.12829 704.44544,181.28911 z M 503.13,33.318639 C 494.75928,31.304675 502.97323,37.279181 503.13,33.318639 z M 619.31701,121.43339 C 607.74012,112.47907 600.38909,133.79478 590.23185,139.48581 C 567.73953,153.00075 583.20614,160.09387 601.13753,170.3215 C 572.10724,165.52111 642.76094,195.07528 608.56502,184.12089 C 623.35152,196.77006 643.70863,185.02321 634.356,170.18151 C 665.26793,174.24292 637.89195,135.77756 622.93283,125.14837 C 621.72756,123.91004 620.52228,122.67171 619.31701,121.43339 z M 720.96436,198.25419 C 685.17953,179.49847 716.38313,221.49186 720.29044,211.80159 C 697.51636,209.60501 730.14071,206.21855 720.96436,198.25419 z M 531.33074,63.698675 C 514.45028,49.86785 505.52604,78.338966 506.81901,72.400142 C 507.30763,83.17815 498.41591,97.544165 489.51725,115.7524 C 444.68418,125.96444 496.05858,68.621266 462.34181,69.384042 C 437.60528,70.977485 491.70247,90.130859 456.76123,78.295758 C 440.92937,86.181091 449.50273,141.05776 473.71663,121.73393 C 472.87084,126.60508 519.40092,139.525 517.35861,107.41931 C 516.7265,98.593738 523.68949,92.808943 527.55619,75.495399 C 528.81438,71.563156 530.07256,67.630918 531.33074,63.698675 z M 729.99066,215.45789 C 685.40852,205.47282 739.3271,229.65037 729.99066,215.45789 z M 516.13676,58.845681 C 508.90419,51.021514 506.91964,74.691656 516.13676,58.845681 z M 733.4085,222.54662 C 693.77143,207.51016 741.91379,260.12391 739.08131,279.09312 C 769.76201,281.93479 735.14572,236.69418 733.4085,222.54662 z M 734.0188,226.96853 C 733.81212,228.3804 730.55925,224.81096 734.0188,226.96853 z M 617.87625,141.41608 C 643.08342,155.70559 617.11196,183.80961 602.19985,157.44555 C 606.64308,151.35478 612.28982,147.12173 617.87625,141.41608 z M 485.16027,48.936477 C 455.2683,34.89337 470.89335,56.179538 477.1556,55.44452 C 456.50514,46.587654 462.98228,55.436361 479.28735,59.054385 C 445.89949,51.73531 461.75521,78.776518 479.46701,66.777861 C 481.36476,60.830732 483.26251,54.883605 485.16027,48.936477 z M 439.64596,19.601955 C 412.39321,8.133077 385.11775,-2.8286848 371.79116,0.6577318 C 379.99242,8.5386054 433.85441,25.78267 406.31518,11.292408 C 416.78836,17.300609 427.9712,18.215891 439.64596,19.601955 z M 610.8247,147.19625 L 610.59316,147.1412 L 610.8247,147.19625 z M 595.97487,139.99146 C 596.06155,140.03569 595.90473,140.05892 595.97487,139.99146 z M 665.53559,214.64012 C 627.69294,195.76717 596.63984,250.7017 634.29709,273.19246 C 656.1016,288.55149 702.32791,244.05667 673.64587,239.45467 C 660.72186,256.93677 640.43817,263.31687 625.84779,246.20763 C 640.39567,243.65397 644.38218,227.98803 622.91931,224.9287 C 637.54141,227.13601 653.94479,232.29322 646.74019,226.49342 C 663.89676,226.35981 671.31969,257.20202 677.93221,229.71392 C 675.02292,223.84306 671.00237,218.36946 665.53559,214.64012 z M 665.37596,220.04727 C 666.42626,223.28083 657.82815,216.87052 665.37596,220.04727 z M 665.41804,220.93457 C 661.54028,229.81441 622.60702,210.6295 656.44955,219.13156 L 662.08667,219.70797 L 665.41804,220.93457 z M 416.43338,36.621837 C 407.62747,32.245915 384.22023,40.603898 405.51848,44.671957 C 389.03603,40.637844 401.82403,70.404053 399.05401,82.204511 C 402.12573,103.57696 389.06113,71.454677 383.93535,65.650949 C 375.45016,57.019323 374.04011,35.213905 358.99931,38.788703 C 338.84875,33.410533 345.9508,52.749801 345.89802,65.599805 C 346.7812,83.588743 347.66436,101.57769 348.54754,119.56663 C 358.81504,118.37642 374.54902,119.59796 363.1622,111.45993 C 371.9152,112.49829 365.25693,92.447939 366.38491,82.889477 C 363.04131,60.361368 367.95426,65.215155 376.59137,82.419689 C 383.81519,94.072389 387.05363,99.629134 394.29761,112.18694 C 408.89738,115.20963 435.59957,112.00251 404.94348,107.15244 C 396.84264,101.16133 430.69861,108.61137 418.88057,86.677197 C 415.26003,72.521246 426.18409,47.608652 402.93179,48.472843 C 415.75082,58.806381 424.9348,43.042101 406.82197,41.708949 C 411.64815,40.481703 419.10582,44.989373 416.43338,36.621837 z M 365.29706,110.94267 C 361.09361,111.5258 372.69509,112.81997 365.29706,110.94267 z M 367.53875,111.74987 C 367.95441,112.28299 367.78202,111.11917 367.53875,111.74987 z M 757.95622,291.15223 C 726.85781,284.71955 757.38749,325.5226 752.5096,345.16853 C 782.2185,353.21212 757.10728,304.41578 757.95622,291.15223 z M 512.60973,109.38328 C 498.92978,105.43854 499.58421,103.7822 512.60973,109.38328 z M 368.88552,3.2102431 C 352.45068,-0.2366957 312.52204,2.775209 325.23707,12.110361 C 304.12817,13.563559 279.25145,18.152263 275.0487,16.203685 C 258.8692,25.404835 231.13096,27.307027 221.5792,39.951315 C 214.67246,40.07181 193.49853,48.520129 208.20481,48.589123 C 181.30323,43.636784 224.72343,61.582782 194.50189,50.484782 C 165.74069,66.409915 138.60737,87.865651 115.93597,109.43431 C 137.03372,117.81631 143.86307,102.43349 158.70306,90.813601 C 178.43462,79.182383 200.80533,61.912081 219.10315,54.30177 C 255.8874,37.924575 280.22259,27.472824 309.29041,23.114754 C 323.06509,16.685371 347.10807,18.073117 373.27471,15.650283 C 363.05372,15.567127 377.30503,6.6316234 368.88552,3.2102431 z M 590.54431,168.02607 C 578.53551,161.69505 545.9751,164.35065 577.2729,169.96951 C 540.54305,155.16176 568.49009,197.77161 582.34148,175.98721 C 560.0526,168.76 585.75078,180.25215 590.54431,168.02607 z M 661.51738,225.66724 C 635.17652,218.63468 625.64621,213.67311 661.51738,225.66724 z M 665.3482,229.21004 C 667.47324,237.88554 646.0831,220.15748 665.3482,229.21004 z M 642.49272,212.44638 C 642.32549,210.28633 637.59302,212.78557 642.49272,212.44638 z M 655.88923,225.07124 C 637.3966,222.78808 625.74968,213.06311 650.56295,223.26693 L 655.88923,225.07124 z M 639.24039,222.91329 C 626.90501,220.93393 625.994,215.78168 639.24039,222.91329 z M 635.35606,222.32705 C 630.85363,222.73235 621.11475,216.39791 635.35606,222.32705 z M 758.41853,320.21273 C 751.91297,323.73604 753.48358,317.32955 758.41853,320.21273 z M 572.60289,184.28752 C 562.36183,177.3066 569.81043,189.14793 572.60289,184.28752 z M 339.5066,13.436822 C 339.37138,17.856677 331.06732,12.232303 339.5066,13.436822 z M 762.2643,339.99317 C 751.22464,340.77041 750.15346,332.98843 762.2643,339.99317 z M 697.14092,293.19076 C 678.18081,289.38769 670.73254,291.7307 693.95189,297.751 C 681.33168,302.99611 659.99463,289.79298 667.74943,319.1676 C 653.4527,354.68321 663.88749,282.76022 646.14268,297.07349 C 638.77171,301.91438 648.87051,297.10115 642.09504,311.10599 C 643.5576,317.48737 645.40068,311.66547 655.87447,324.05388 C 617.45375,315.78067 683.23355,342.02431 651.92404,343.38076 C 686.15122,365.54787 676.56187,315.41511 688.27925,306.35736 C 695.5719,321.8897 691.48925,354.25191 706.85607,329.68435 C 706.6711,317.2654 706.01484,302.84034 697.14092,293.19076 z M 628.70403,243.77412 C 637.01804,247.93746 615.87679,243.36474 628.70403,243.77412 z M 531.04104,180.88297 C 519.56591,168.37591 482.63343,155.91775 485.09646,159.53442 C 481.75631,145.89602 441.54502,135.97413 431.44123,160.56487 C 445.66654,161.25903 460.49326,172.5157 472.99806,170.26953 C 445.71372,165.48927 485.01824,169.67178 470.23589,166.70247 C 488.21067,166.45667 479.52188,168.70041 497.052,175.82061 C 462.9565,167.97914 501.31062,171.07281 502.4872,186.27398 C 491.51149,179.02407 526.57333,214.30474 536.94464,198.24565 C 553.67305,197.54781 509.50759,184.23365 536.42589,190.57666 C 556.14535,199.82255 538.24628,185.52573 531.04104,180.88297 z M 768.66676,357.42916 C 741.48759,352.79982 757.99668,407.4869 769.53586,374.20999 C 769.36718,368.61097 769.07489,363.01579 768.66676,357.42916 z M 557.25288,202.51064 C 544.76907,213.89166 529.74028,207.81014 539.01929,215.4423 C 553.03752,220.87925 592.04651,226.5776 581.04236,228.2946 C 572.64787,223.15866 544.78441,217.16156 568.67486,214.02067 L 563.05666,208.17565 L 557.25288,202.51064 z M 388.75039,82.427646 C 389.05964,97.082467 371.52601,81.910894 388.75039,82.427646 z M 584.01177,232.05435 C 552.63901,235.37385 572.42025,257.39591 590.64594,273.82695 C 598.77678,263.7493 596.52431,264.84182 599.81363,271.17341 C 625.79967,277.34881 586.87171,267.14297 608.90839,271.34529 C 610.30167,262.02998 583.5106,244.75543 598.12293,252.36938 C 593.74336,245.38031 589.05164,238.58437 584.01177,232.05435 z M 608.88243,273.58295 C 585.61778,267.04413 593.83526,278.15686 612.30754,280.87164 C 589.05209,267.16215 577.7573,278.47922 599.10388,292.3211 C 605.85772,288.74234 616.57671,302.22676 598.94494,302.70956 C 604.84983,323.62882 605.45047,326.9803 619.72417,309.56053 C 629.19345,305.60243 612.53347,280.56206 608.88243,273.58295 z M 706.3093,325.83143 C 692.61528,339.45393 691.06531,319.17744 706.3093,325.83143 z M 577.62667,231.32476 C 563.84077,228.03104 530.08055,211.75032 557.64869,234.47984 C 561.30069,245.50791 571.49799,232.16517 577.62667,231.32476 z M 420.26382,115.26563 C 414.76715,115.78014 421.52896,117.50799 420.26382,115.26563 z M 448.50836,142.02039 C 418.06504,138.64095 371.03319,118.83779 351.61749,148.88869 C 359.44702,121.8394 312.29089,147.78431 306.8618,147.90063 C 319.91107,153.29449 283.04178,144.94653 304.04914,155.15273 C 291.43377,146.22048 250.87038,165.05734 284.29196,167.14848 C 254.13998,157.12208 288.6513,170.26657 277.18685,166.83927 C 246.91648,160.09491 207.10848,206.28575 184.28643,232.56024 C 163.7558,257.66015 205.51114,224.71597 216.70957,225.29762 C 230.99746,215.15655 261.26181,194.70886 227.14641,202.10602 C 209.39959,202.24478 238.97596,204.7803 237.86473,200.11887 C 269.31974,193.13044 304.3538,168.988 321.34572,145.3982 C 331.81631,151.26687 303.7215,175.96732 333.21309,161.42123 C 334.02392,158.2451 338.59959,159.88773 361.633,156.83526 C 383.29229,147.61685 412.00382,168.29408 437.45212,150.81323 L 442.98466,146.42496 L 448.50836,142.02039 z M 267.95726,164.09514 C 281.90004,170.97223 265.66346,159.81646 267.95726,164.09514 z M 267.56625,163.4159 C 267.92636,161.3827 264.58775,163.97351 267.56625,163.4159 z M 269.5287,162.18701 C 266.43093,161.09649 271.02521,163.58687 269.5287,162.18701 z M 357.03466,75.822296 C 347.76573,82.555053 342.99237,67.885418 357.03466,75.822296 z M 680.22911,316.40324 C 673.95533,323.27538 665.36117,306.80192 680.22911,316.40324 z M 452.71128,157.12393 C 449.63413,157.79318 443.05499,153.12805 452.71128,157.12393 z M 769.63003,392.73716 C 751.05995,390.38767 772.54608,403.28832 769.63003,392.73716 z M 451.36819,157.25586 C 438.80948,159.25718 442.83864,150.33851 451.36819,157.25586 z M 769.55951,396.03132 C 738.6082,386.75891 755.69154,464.04398 763.25206,428.55176 C 778.37819,423.58335 741.36302,421.90553 768.31784,418.26301 C 768.93616,410.86582 769.36493,403.45205 769.55951,396.03132 z M 420.51077,144.98351 L 414.17104,143.35367 L 414.252,143.29699 L 414.35804,143.25894 L 420.51077,144.98351 z M 710.16599,361.06826 C 685.42878,358.62881 691.12929,379.27535 715.44791,381.79756 C 705.51779,378.97372 670.76559,375.89232 682.96364,369.19511 C 659.27154,362.07388 643.78451,380.65037 647.65699,403.52835 C 656.32625,407.07059 658.65713,402.62845 661.84966,395.61154 C 659.54939,382.68776 683.63192,389.76591 693.37379,389.00406 C 693.32557,397.86282 693.46012,418.26982 707.69046,407.43794 C 722.24163,384.62734 664.40031,382.67756 700.16404,386.54449 C 714.76975,402.49352 743.15296,378.46534 714.42241,373.21523 C 716.82214,369.49701 683.65231,359.43418 710.00658,363.93809 L 710.12742,361.76266 L 710.16599,361.06826 z M 297.12911,55.499577 C 269.36899,53.675642 225.53732,80.209126 243.84287,117.71883 C 259.94948,152.54208 287.35703,140.94327 308.42282,134.30893 C 338.01386,125.78322 321.3381,104.0768 313.79646,86.278873 C 306.91264,79.009842 280.97615,100.86462 283.62251,95.405548 C 281.61743,116.96077 302.55937,95.402366 304.25048,113.41504 C 307.77569,126.8883 250.67653,138.80801 272.0435,121.40476 C 243.3743,92.363951 265.80593,69.211877 303.7826,70.709232 C 298.7986,60.153585 289.95142,70.967228 300.26602,62.652252 C 299.22038,60.268021 298.17475,57.883808 297.12911,55.499577 z M 287.89365,140.79206 C 287.2137,142.9417 294.91308,141.4385 287.89365,140.79206 z M 417.17528,146.59447 C 414.39162,147.10531 404.21645,142.59299 417.17528,146.59447 z M 421.82129,151.87059 C 414.44295,155.85949 409.16509,145.1764 421.82129,151.87059 z M 289.90027,60.836911 C 275.63716,62.264266 281.34111,56.865092 289.90027,60.836911 z M 412.65933,151.99907 C 391.91667,151.90295 388.34501,143.3448 412.65933,151.99907 z M 391.66824,138.01959 C 373.86212,134.41279 385.72712,135.98945 391.66824,138.01959 z M 626.72836,316.39777 C 601.90545,327.48643 606.9586,347.25915 633.5911,347.95032 C 640.65469,333.731 600.28545,322.88375 628.97147,324.75507 L 626.72836,316.39777 z M 384.14237,140.29591 C 362.43877,149.9611 347.23722,127.2738 384.14237,140.29591 z M 764.82376,447.30641 C 737.04253,444.93199 741.9441,499.66239 760.5113,469.7698 C 762.17171,462.32713 763.61469,454.8357 764.82376,447.30641 z M 320.32888,124.50591 C 321.2578,126.86681 315.24844,124.30147 320.32888,124.50591 z M 635.25523,361.59817 C 616.58311,349.33173 605.29621,358.74891 617.02889,375.93606 C 618.37443,373.30765 612.22129,391.94157 613.30399,408.69945 C 648.73141,417.21976 633.5401,383.76902 635.25523,361.59817 z M 757.38769,482.76396 C 736.50358,477.46232 740.10496,496.68204 732.05285,513.65747 C 739.46389,499.24645 758.34922,504.34802 757.38769,482.76396 z M 266.57527,134.85813 C 260.07436,143.90044 262.64499,130.46922 266.57527,134.85813 z M 634.5632,416.49622 C 628.25087,414.88601 635.26373,419.21162 634.5632,416.49622 z M 634.00448,420.8679 C 627.54423,418.08304 636.47421,430.10727 634.00448,420.8679 z M 625.03115,421.21417 C 595.66283,412.08979 626.13859,448.01786 612.8491,435.63966 C 636.99242,463.88943 631.53912,433.01573 625.03115,421.21417 z M 625.77576,428.65418 C 630.30559,431.14519 640.33115,424.34716 625.77576,428.65418 z M 276.58801,168.82571 C 274.89312,179.26606 261.01401,156.63081 276.58801,168.82571 z M 745.06898,521.60297 C 734.63293,523.59166 748.03356,528.87541 745.06898,521.60297 z M 740.01528,534.23544 C 714.13358,520.82151 709.0599,582.39869 686.16819,600.50597 C 661.49832,635.14206 630.83305,665.49108 595.94654,689.80516 C 624.32675,667.54669 592.60106,719.27253 616.65212,691.17204 C 644.81354,667.62619 665.30634,628.31986 695.45258,613.12245 C 682.00675,608.52166 722.72331,586.24985 724.3729,567.18099 C 732.65039,555.30405 735.71957,533.85406 740.01528,534.23544 z M 249.46852,182.09069 C 250.25756,201.28094 206.66589,203.85239 249.46852,182.09069 z M 247.96191,182.02345 C 244.34137,186.16467 230.49318,177.56119 247.96191,182.02345 z M 622.47568,468.65921 C 606.60617,467.4753 618.37711,477.79575 622.47568,468.65921 z M 620.86775,473.18632 C 617.26619,471.58059 620.81362,474.62528 620.86775,473.18632 z M 233.11175,186.88132 C 233.19844,186.92555 233.04161,186.94877 233.11175,186.88132 z M 229.71622,193.81766 C 224.73062,195.30609 228.74965,191.00534 229.71622,193.81766 z M 617.17827,482.51171 C 587.4205,468.92374 597.78533,489.34729 614.38022,488.95747 L 617.17827,482.51171 z M 118.15209,128.31689 C 90.083903,132.96979 69.096446,156.69688 106.33682,141.1467 C 110.18182,136.78542 114.10743,132.49413 118.15209,128.31689 z M 216.91162,207.50885 C 217.14194,207.64192 216.31019,207.51017 216.91162,207.50885 z M 210.73284,211.64075 C 207.53581,214.54967 201.993,213.00415 209.21975,211.5298 L 209.28855,211.54194 L 209.33227,211.53547 L 210.73284,211.64075 z M 99.13624,149.54018 C 81.524618,149.12581 100.0142,159.17774 99.13624,149.54018 z M 584.24473,514.88815 C 556.74834,521.83477 602.40664,531.79371 584.24473,514.88815 z M 89.820353,153.75701 C 67.8632,159.51872 56.734388,178.19822 85.91994,160.46984 C 85.670075,163.39141 101.18268,153.26152 88.405165,155.66434 L 89.820353,153.75701 z M 588.09806,524.01216 C 572.14862,520.30335 578.96136,525.69519 588.09806,524.01216 z M 590.73144,530.47992 C 571.32657,508.27464 536.243,571.34744 551.33374,551.63954 C 568.6292,576.03828 578.69149,541.06307 590.73144,530.47992 z M 203.32924,243.69809 C 189.12163,244.10706 203.16231,249.3928 203.32924,243.69809 z M 192.29514,258.93642 C 174.29815,236.88937 143.77681,284.51726 174.96516,267.71338 C 180.15213,264.1687 190.48537,266.8986 192.29514,258.93642 z M 571.98545,541.00795 C 579.11421,562.76916 552.85576,534.30913 571.98545,541.00795 z M 79.147142,175.95608 C 54.514558,171.79224 29.469647,221.89281 66.608782,194.00845 C 75.967275,183.57834 68.771744,183.93475 79.147142,175.95608 z M 183.04974,261.06537 C 162.92672,267.65481 162.77989,250.8205 183.04974,261.06537 z M 185.33412,270.1537 C 172.60831,268.69007 181.13461,278.8213 185.33412,270.1537 z M 183.29632,273.73926 C 162.12608,266.71047 173.43027,284.21211 183.29632,273.73926 z M 563.79117,562.75047 C 544.70295,564.51293 540.66096,591.48188 559.23497,567.25742 L 563.79117,562.75047 z M 545.5939,549.98786 C 519.8564,570.48196 496.05909,591.14251 478.68313,619.60869 C 507.1827,607.6073 538.08379,594.77505 542.96813,561.97031 C 531.11605,577.39519 493.2326,625.07675 523.72747,582.76315 C 531.10683,571.89886 538.40669,560.98031 545.5939,549.98786 z M 180.23193,279.44263 C 164.03014,263.43578 137.56411,300.83242 155.72968,294.14821 C 151.54942,285.60352 190.20123,300.83024 173.24634,282.26573 C 158.08481,276.30473 182.9279,288.38426 180.23193,279.44263 z M 56.886106,212.67132 C 46.782232,222.70742 53.75418,223.62567 56.886106,212.67132 z M 167.66091,308.13281 C 144.99141,299.29293 130.81408,321.83904 161.13056,320.44789 C 121.61463,316.34188 134.8435,381.35807 133.57749,412.07238 C 154.33901,400.28228 121.72215,430.96322 141.45598,414.6589 C 162.81337,408.44719 153.91266,356.82953 152.11231,356.79165 C 122.26196,390.10247 167.15341,345.06944 161.73058,327.3054 C 169.09239,309.93167 158.19731,316.20014 167.66091,308.13281 z M 47.347997,231.97699 C 38.33404,237.2019 12.231848,244.71667 40.63459,247.58055 C 42.722689,242.28657 44.994146,237.16998 47.347997,231.97699 z M 39.986886,249.24017 C 13.66754,243.98855 30.483849,263.39699 31.819938,259.00868 C 1.9069486,272.60623 23.156131,315.48863 29.086748,280.76553 C 32.236823,270.09809 35.883131,259.57796 39.986886,249.24017 z M 495.51099,587.38403 C 485.98735,588.32067 479.99311,611.46872 486.57236,592.03641 C 471.50396,597.48633 440.29764,613.31697 438.90869,612.43247 C 445.3162,608.39567 388.78211,612.84416 411.34025,621.1621 C 398.79509,626.38644 367.14334,643.11428 399.13399,637.50518 C 433.23508,633.505 474.44463,632.97398 489.18437,596.0702 L 492.33347,591.7175 L 495.51099,587.38403 z M 589.65604,694.08764 C 562.92231,715.51552 543.89685,715.64141 521.67412,736.56989 C 522.46985,719.71653 486.0129,750.88546 471.17664,745.93541 C 451.96593,753.23221 424.31049,747.00088 438.10839,762.61584 C 447.82255,772.81991 496.64489,753.58587 519.74175,746.69849 C 549.84113,731.21158 579.59061,730.79673 589.65604,694.08764 z M 455.83363,622.18902 C 455.95821,622.55703 455.22356,622.32059 455.83363,622.18902 z M 146.81929,397.11018 C 152.24992,399.93978 140.12001,399.7342 146.81929,397.11018 z M 22.762515,305.1797 C -0.40313771,307.66619 -5.729566,353.9372 18.903551,325.27485 C 21.433226,313.30531 3.5455384,333.57026 20.859771,314.35213 L 21.782951,309.75493 L 22.762515,305.1797 z M 149.79265,405.26996 C 143.17135,410.37755 132.72867,401.5278 149.79265,405.26996 z M 156.04959,415.08784 C 136.09028,429.07985 151.56167,417.93672 153.68528,428.08145 C 122.7242,420.3933 142.70148,458.50467 158.90693,432.26709 C 157.74418,426.57812 156.77778,420.84851 156.04959,415.08784 z M 159.05426,432.96008 C 140.95772,443.8333 171.34837,436.6077 145.51142,442.87378 C 171.09178,448.83497 121.54304,442.31437 147.27281,452.35232 C 141.22804,482.0671 182.30523,550.98639 210.05676,559.36779 C 234.01666,539.13563 193.94881,536.86342 199.08698,522.38325 C 178.18371,491.5225 163.09517,465.43805 159.05426,432.96008 z M 17.597479,333.80045 C 10.809357,334.63924 19.961397,339.39022 17.597479,333.80045 z M 16.960214,338.69755 C -16.149772,337.69272 8.0503704,380.76573 15.920808,347.68254 L 16.415792,343.1831 L 16.960214,338.69755 z M 385.99422,615.93644 C 367.15228,610.36908 320.9778,616.87675 326.53859,631.23599 C 345.40991,647.47506 363.11219,602.51509 345.79186,634.98143 C 368.95907,642.32433 373.80891,634.37112 385.99422,615.93644 z M 142.34513,444.57138 C 136.26739,438.29375 139.40944,452.42858 142.34513,444.57138 z M 314.33744,605.10567 C 277.09842,603.64241 246.19124,552.79697 216.99951,559.33651 C 195.93932,566.17741 233.35368,594.96041 239.95702,572.71991 C 223.18224,592.63365 263.52322,562.63947 245.91505,589.40826 C 248.20543,605.3486 298.27702,629.56739 312.5924,620.62113 C 314.57372,613.56556 315.82968,613.99583 312.41305,606.44061 L 314.33744,605.10567 z M 186.92243,517.64881 C 186.61736,522.35342 183.88725,517.08263 186.92243,517.64881 z M 271.88787,587.11175 C 278.94139,591.94063 261.81249,599.2691 271.88787,587.11175 z M 14.0766,396.44443 C -7.4900734,413.23033 1.4344756,463.47499 13.035487,457.58186 C 30.375503,460.03321 8.3491444,409.4524 14.0766,396.44443 z M 359.16873,655.919 C 340.08121,652.32776 320.99369,648.73653 301.90617,645.14529 C 292.04112,663.70152 311.52878,662.18597 324.79254,664.92642 C 330.43328,668.66123 331.89184,659.49756 337.07936,666.11238 C 344.37326,672.70804 312.35039,699.06668 338.17638,681.69142 C 349.72729,675.49008 360.18948,671.00078 359.16873,655.919 z M 153.39304,519.30917 C 139.38601,519.9853 125.34508,520.59782 111.35907,521.31337 C 100.48701,539.8367 86.04594,542.38383 112.55657,539.63617 C 129.24117,538.8239 145.92578,538.01165 162.61038,537.19939 C 159.53794,531.23599 156.46548,525.27257 153.39304,519.30917 z M 192.29653,573.23435 C 157.23694,551.97391 105.41179,613.87389 143.32791,640.52419 C 158.22456,660.40629 184.97649,602.39144 188.52389,617.60482 C 182.18872,635.43458 156.5224,656.12725 186.42626,636.00294 C 209.63047,625.12176 217.09964,566.527 188.70609,602.98449 C 180.16235,615.71873 185.32194,615.54271 165.64021,626.34143 C 122.39437,640.4511 169.92419,566.27312 190.43241,591.11294 C 202.27045,579.842 210.40533,589.324 192.29653,573.23435 z M 263.02038,626.17673 C 229.43944,598.93997 206.39377,671.35114 204.80988,663.50248 C 193.8356,714.24079 274.99204,707.96284 274.93037,659.4149 C 278.17472,647.07283 274.06323,633.18662 263.02038,626.17673 z M 318.58827,675.57844 C 303.21321,680.35023 280.31675,711.69594 305.88088,687.51286 C 310.22996,683.65665 314.39081,679.59672 318.58827,675.57844 z M 21.251004,459.35828 C 1.048774,462.49858 8.0234967,493.31527 24.194268,472.59329 L 22.663668,465.99778 L 21.251004,459.35828 z M 253.22424,636.65237 C 275.42091,661.27558 208.27502,713.22121 225.30697,660.97846 C 231.06472,651.75681 238.16335,629.13082 253.22424,636.65237 z M 93.169523,522.1759 C 73.866229,517.97738 55.653499,540.17876 87.37593,524.75154 L 93.169523,522.1759 z M 347.98129,714.15869 C 335.05953,723.76349 302.15118,717.55288 315.7534,696.70584 C 262.76139,710.5955 322.37044,747.06274 345.54089,727.19868 C 346.35435,722.85201 347.16783,718.50536 347.98129,714.15869 z M 25.375308,477.39977 C 1.0934833,484.66559 21.282907,519.52139 33.136004,503.70386 C 26.919848,501.14539 29.605951,490.83137 25.375308,477.39977 z M 394.34776,756.03274 C 379.25562,755.57137 332.33485,751.14761 351.26008,769.82179 C 368.54447,773.11083 383.5291,771.845 394.34776,756.03274 z M 91.567682,541.22191 C 52.739656,548.42083 114.68628,578.26924 95.324642,548.50885 C 94.072322,546.07987 92.820002,543.65089 91.567682,541.22191 z M 377.62668,760.47524 C 368.82109,767.07888 364.21563,758.01533 377.62668,760.47524 z M 34.729122,508.42696 C -8.5371924,516.85159 50.541688,530.92324 34.729122,508.42696 z M 101.90865,561.26886 C 75.262288,569.67296 102.57246,590.89172 107.97026,573.05148 C 105.94972,569.12394 103.92919,565.1964 101.90865,561.26886 z M 105.16132,569.0522 C 106.45761,569.83743 103.68544,570.22784 105.16132,569.0522 z M 39.121559,520.28573 C -2.8217382,524.59612 62.253054,564.01737 39.121559,520.28573 z M 215.32118,651.9167 C 216.29836,656.73128 209.2112,651.82744 215.32118,651.9167 z M 294.7664,711.40797 C 295.46047,716.6209 292.36702,711.47579 294.7664,711.40797 z M 339.39633,753.47222 C 320.91076,750.73775 259.90387,734.49579 297.24237,761.30212 C 309.12367,762.09584 332.36535,775.56571 339.39633,753.47222 z M 46.164415,537.06839 C 14.690401,558.51172 67.693913,584.67234 46.164415,537.06839 z M 61.590861,567.62053 C 56.606398,570.15205 63.948784,569.24136 61.590861,567.62053 z M 65.670929,574.65584 C 34.71775,572.70712 69.061776,587.99893 65.670929,574.65584 z M 71.93596,584.82993 C 50.721995,598.68472 84.281636,623.54925 81.566557,599.2008 C 78.245491,594.48602 75.039034,589.69084 71.93596,584.82993 z M 86.319114,605.77482 C 56.704389,609.23063 97.837095,642.34691 94.480515,633.42686 C 109.40741,618.68815 84.097343,658.00296 107.66418,643.386 C 123.38072,636.75891 89.267168,617.60175 86.319114,605.77482 z M 254.63279,732.87764 C 227.3086,724.57482 233.19762,725.11719 204.68237,709.79431 C 194.97918,695.04352 154.9251,690.48263 176.0038,710.00714 C 199.0469,718.9133 233.5491,756.97234 254.63279,732.87764 z M 118.25746,643.44193 C 93.913859,655.9496 141.07751,689.4365 156.18769,689.41187 C 182.89568,685.70074 121.78507,656.69881 118.25746,643.44193 z "
     style="color:#000000;fill:url(#linearGradient1311);fill-opacity:1;fill-rule:nonzero;stroke:none;stroke-width:22;stroke-linecap:butt;stroke-linejoin:miter;marker:none;marker-start:none;marker-mid:none;marker-end:none;stroke-miterlimit:4;stroke-dashoffset:0;stroke-opacity:1;visibility:visible;display:inline;overflow:visible"
     id="path2149" />
</svg>
