<?xml version="1.0" encoding="UTF-8" standalone="no"?>
<!-- Created with Inkscape (http://www.inkscape.org/) -->
<svg
   xmlns:svg="http://www.w3.org/2000/svg"
   xmlns="http://www.w3.org/2000/svg"
   version="1.0"
   width="900"
   height="404.85501"
   id="svg2">
  <defs
     id="defs5" />
  <path
     d="M 22.414731,3.1271903 C 22.428089,3.411891 22.480159,3.6897662 22.480159,3.9777539 C 22.480159,4.2890864 22.430329,4.5862654 22.414731,4.8937455 C 22.367916,5.8162066 22.268005,6.6953491 22.087591,7.5762922 C 21.982341,8.0901687 21.842964,8.5841342 21.695024,9.0811355 C 21.35685,10.217112 20.930322,11.322206 20.386464,12.352534 C 20.28448,12.545719 20.168029,12.752409 20.059324,12.941386 C 19.298434,14.264161 18.370445,15.455285 17.31135,16.539924 C 17.059185,16.79816 16.79337,17.082233 16.526214,17.32506 C 16.205648,17.616439 15.885774,17.90763 15.544795,18.175623 C 15.203815,18.443616 14.858042,18.651981 14.497947,18.895331 C 14.197879,19.098105 13.894502,19.29933 13.581955,19.484183 C 13.394423,19.595086 13.184907,19.707098 12.993104,19.811322 C 12.865242,19.880812 12.795668,19.941131 12.665964,20.007606 C 12.53626,20.074081 12.404901,20.140493 12.273396,20.20389 C 11.878902,20.39406 11.440043,20.565639 11.030265,20.727314 C 10.483894,20.942881 9.9000253,21.153904 9.3291375,21.316166 C 9.0436831,21.397296 8.7695766,21.510649 8.4785739,21.577878 C 8.2603271,21.628294 8.0454931,21.666315 7.8242942,21.708733 C 7.6768353,21.737019 7.5150136,21.749498 7.3662984,21.774161 C 7.2175833,21.798825 7.1236392,21.81859 6.9737306,21.839589 C 6.8238221,21.860589 6.6667949,21.887723 6.5157348,21.905017 C 6.4401943,21.913664 6.3298357,21.897313 6.254023,21.905017 C 5.7233341,21.958972 5.2269818,22.028985 4.6837517,22.035873 C 4.6061384,22.036857 4.4998834,22.035873 4.4220398,22.035873 C 4.3208516,22.035873 4.1956905,22.037527 4.0949,22.035873 C 4.0949,22.035873 22.480159,43.412939 22.480159,53.37587 C 22.48018,63.338823 14.384971,71.43399 4.4220398,71.43399 C 4.3182554,71.43399 4.1982657,71.435727 4.0949,71.43399 C 4.0949,71.43399 22.480159,92.876483 22.480159,102.83941 C 22.48018,112.80237 14.384971,120.83211 4.4220398,120.83211 C 4.3182554,120.83211 4.1982657,120.83384 4.0949,120.83211 C 4.0949,120.83211 22.480159,142.2746 22.480159,152.23753 C 22.48018,162.20048 14.384971,170.29565 4.4220398,170.29565 C 4.3182554,170.29565 4.1982657,170.29739 4.0949,170.29565 C 4.0949,170.29565 22.480159,191.73814 22.480159,201.70108 C 22.48018,211.66403 14.384971,219.69377 4.4220398,219.69377 C 4.3182554,219.69377 4.1982657,219.6955 4.0949,219.69377 C 4.0949,219.69377 22.480159,241.13626 22.480159,251.09919 C 22.48018,261.06212 14.384971,269.15731 4.4220398,269.15731 C 4.3182554,269.15731 4.1982657,269.15905 4.0949,269.15731 C 4.0949,269.15731 22.480159,290.53438 22.480159,300.49731 C 22.48018,310.46026 14.384971,318.55543 4.4220398,318.55543 C 4.3182554,318.55543 4.1982657,318.55717 4.0949,318.55543 C 4.0949,318.55543 22.480159,339.99792 22.480159,349.96085 C 22.48018,359.92383 14.384971,368.01897 4.4220398,368.01897 C 4.3182554,368.01897 4.1982657,368.02071 4.0949,368.01897 C 4.0949,368.01897 22.480159,389.39604 22.480159,399.35897 C 22.480159,401.26823 22.11437,403.12722 21.564168,404.85492 L 36.6126,404.85492 C 36.064932,403.13082 35.827465,401.26365 35.827465,399.35897 C 35.827486,389.3961 43.857225,381.36628 53.820156,381.36628 C 63.783088,381.36634 71.878276,389.39604 71.878276,399.35897 C 71.878276,401.26823 71.577914,403.12722 71.027712,404.85492 L 86.076166,404.85492 C 85.525964,403.12722 85.225602,401.26823 85.225602,399.35897 C 85.225602,389.3961 93.32079,381.36628 103.28372,381.36628 C 113.24665,381.36634 121.34184,389.39604 121.34184,399.35897 C 121.34184,401.26367 121.03895,403.13082 120.49128,404.85492 L 135.53971,404.85492 C 134.98951,403.12722 134.62372,401.26823 134.62372,399.35897 C 134.62372,389.3961 142.71891,381.36628 152.68184,381.36628 C 162.64479,381.36634 170.73996,389.39604 170.73996,399.35897 C 170.73996,401.26367 170.50249,403.13082 169.95482,404.85492 L 184.8724,404.85492 C 184.32473,403.13082 184.08726,401.26365 184.08726,399.35897 C 184.08724,389.3961 192.18245,381.36628 202.14538,381.36628 C 212.10829,381.36634 220.2035,389.39604 220.2035,399.35897 C 220.2035,401.26823 219.83771,403.12722 219.28751,404.85492 L 234.33594,404.85492 C 233.78827,403.13082 233.48538,401.26365 233.48538,399.35897 C 233.48536,389.3961 241.58057,381.36628 251.5435,381.36628 C 261.50645,381.36634 269.60162,389.39604 269.60162,399.35897 C 269.60162,401.26823 269.30126,403.12722 268.75105,404.85492 L 283.79949,404.85492 C 283.24929,403.12722 282.94892,401.26823 282.94892,399.35897 C 282.94892,389.3961 291.04411,381.36628 301.00704,381.36628 C 310.96995,381.36634 319.06516,389.39604 319.06516,399.35897 C 319.06516,401.26367 318.76227,403.13082 318.2146,404.85492 L 333.26303,404.85492 C 332.71283,403.12722 332.34704,401.26823 332.34704,399.35897 C 332.34704,389.3961 340.44223,381.36628 350.40516,381.36628 C 360.36809,381.36634 368.46328,389.39604 368.46328,399.35897 C 368.46328,401.26367 368.22581,403.13082 367.67814,404.85492 L 382.59572,404.85492 C 382.04805,403.13082 381.81058,401.26365 381.81058,399.35897 C 381.81061,389.3961 389.90577,381.36628 399.8687,381.36628 C 409.83164,381.36634 417.92682,389.39604 417.92682,399.35897 C 417.92682,401.26823 417.56103,403.12722 417.01083,404.85492 L 432.05926,404.85492 C 431.5116,403.13082 431.2087,401.26365 431.2087,399.35897 C 431.20866,389.3961 439.30389,381.36628 449.26682,381.36628 C 459.22977,381.36634 467.32494,389.39604 467.32494,399.35897 C 467.32494,401.26823 467.02458,403.12722 466.47438,404.85492 L 481.52281,404.85492 C 480.97261,403.12722 480.67225,401.26823 480.67225,399.35897 C 480.67222,389.3961 488.76743,381.36628 498.73036,381.36628 C 508.69328,381.36634 516.72306,389.39604 516.72306,399.35897 C 516.72306,401.26367 516.48559,403.13082 515.93792,404.85492 L 530.98635,404.85492 C 530.43615,403.12722 530.07036,401.26823 530.07036,399.35897 C 530.07034,389.3961 538.16555,381.36628 548.12848,381.36628 C 558.09139,381.36634 566.1866,389.39604 566.1866,399.35897 C 566.1866,401.26823 565.82081,403.12722 565.27061,404.85492 L 580.31904,404.85492 C 579.77137,403.13082 579.53391,401.26365 579.53391,399.35897 C 579.53391,389.3961 587.56367,381.36628 597.5266,381.36628 C 607.48951,381.36634 615.58472,389.39604 615.58472,399.35897 C 615.58472,401.26823 615.28436,403.12722 614.73415,404.85492 L 629.78259,404.85492 C 629.23366,403.12902 628.93202,401.26593 628.93202,399.35897 C 628.93202,389.3961 637.02721,381.36628 646.99014,381.36628 C 656.95307,381.36634 665.04826,389.39604 665.04826,399.35897 C 665.04826,401.26367 664.74537,403.13082 664.1977,404.85492 L 679.24613,404.85492 C 678.69593,403.12722 678.39557,401.26823 678.39557,399.35897 C 678.39559,389.3961 686.42533,381.36628 696.38826,381.36628 C 706.35121,381.36634 714.44638,389.39604 714.44638,399.35897 C 714.44638,401.26367 714.20891,403.13082 713.66124,404.85492 L 728.57882,404.85492 C 728.03115,403.13082 727.79368,401.26365 727.79368,399.35897 C 727.79373,389.3961 735.88887,381.36628 745.8518,381.36628 C 755.81475,381.36634 763.90992,389.39604 763.90992,399.35897 C 763.90992,401.26823 763.54413,403.12722 762.99393,404.85492 L 778.04236,404.85492 C 777.49469,403.13082 777.1918,401.26365 777.1918,399.35897 C 777.19184,389.3961 785.28699,381.36628 795.24992,381.36628 C 805.21289,381.36634 813.30804,389.39604 813.30804,399.35897 C 813.30804,401.26823 813.00768,403.12722 812.45747,404.85492 L 827.50591,404.85492 C 826.95571,403.12722 826.65534,401.26823 826.65534,399.35897 C 826.65541,389.3961 834.75053,381.36628 844.71346,381.36628 C 854.67646,381.36634 862.77158,389.39604 862.77158,399.35897 C 862.77158,401.26367 862.46869,403.13082 861.92102,404.85492 L 876.96945,404.85492 C 876.41925,403.12722 876.05346,401.26823 876.05346,399.35897 C 876.05342,389.3961 884.14865,381.36628 894.11158,381.36628 C 896.15865,381.3663 898.16537,381.65339 900.0001,382.28227 L 900.0001,367.03755 C 898.16537,367.66641 896.15865,368.01897 894.11158,368.01897 C 884.14859,368.01897 876.05346,359.92378 876.05346,349.96085 C 876.05342,339.99796 884.14865,331.90273 894.11158,331.90273 C 896.15865,331.90273 898.16537,332.25527 900.0001,332.88415 L 900.0001,317.63944 C 898.16537,318.2683 896.15865,318.55543 894.11158,318.55543 C 884.14859,318.55543 876.05346,310.46024 876.05346,300.49731 C 876.05342,290.5344 884.14865,282.50462 894.11158,282.50462 C 896.15865,282.50462 898.16537,282.79175 900.0001,283.42061 L 900.0001,268.17589 C 898.16537,268.80475 896.15865,269.15731 894.11158,269.15731 C 884.14859,269.15729 876.05346,261.06212 876.05346,251.09919 C 876.05342,241.13626 884.14865,233.04107 894.11158,233.04107 C 896.15865,233.04107 898.16537,233.39363 900.0001,234.02249 L 900.0001,218.77778 C 898.16537,219.40664 896.15865,219.69377 894.11158,219.69377 C 884.14859,219.69381 876.05346,211.66401 876.05346,201.70108 C 876.05342,191.73817 884.14865,183.64296 894.11158,183.64296 C 896.15865,183.64296 898.16537,183.93009 900.0001,184.55895 L 900.0001,169.31423 C 898.16537,169.94309 896.15865,170.29565 894.11158,170.29565 C 884.14859,170.29565 876.05346,162.20046 876.05346,152.23753 C 876.05342,142.27462 884.14865,134.17941 894.11158,134.17941 C 896.15865,134.17941 898.16537,134.53197 900.0001,135.16083 L 900.0001,119.91611 C 898.16537,120.54498 896.15865,120.83211 894.11158,120.83211 C 884.14859,120.83209 876.05346,112.80235 876.05346,102.83941 C 876.05342,92.876504 884.14865,84.781295 894.11158,84.781295 C 896.15865,84.781295 898.16537,85.068425 900.0001,85.697287 L 900.0001,70.45257 C 898.16033,71.085327 896.16524,71.43399 894.11158,71.43399 C 884.14859,71.433969 876.05346,63.338802 876.05346,53.37587 C 876.05342,43.41296 884.14865,35.317751 894.11158,35.317751 C 896.15865,35.317751 898.16537,35.670308 900.0001,36.29917 L 900.0001,21.054454 C 898.16537,21.683316 896.15865,22.035873 894.11158,22.035873 C 884.14859,22.035852 876.05346,13.940685 876.05346,3.9777539 C 876.05346,3.6923624 876.10576,3.4093576 876.11889,3.1271903 L 862.70615,3.1271903 C 862.71928,3.4093576 862.77158,3.6923624 862.77158,3.9777539 C 862.77162,13.940685 854.67639,22.035873 844.71346,22.035873 C 834.75059,22.035852 826.65534,13.940685 826.65534,3.9777539 C 826.65534,3.6923624 826.64222,3.4093576 826.65534,3.1271903 L 813.30804,3.1271903 C 813.32117,3.4093576 813.30804,3.6923624 813.30804,3.9777539 C 813.30806,13.940685 805.21285,22.035873 795.24992,22.035873 C 785.28703,22.035852 777.1918,13.940685 777.1918,3.9777539 C 777.1918,3.6923624 777.2441,3.4093576 777.25723,3.1271903 L 763.84449,3.1271903 C 763.85785,3.411891 763.90992,3.6897662 763.90992,3.9777539 C 763.90994,13.940685 755.81473,22.035873 745.8518,22.035873 C 735.88889,22.035852 727.79368,13.940685 727.79368,3.9777539 C 727.79368,3.6923624 727.78056,3.4093576 727.79368,3.1271903 L 714.44638,3.1271903 C 714.45951,3.4093576 714.44638,3.6923624 714.44638,3.9777539 C 714.44638,13.940685 706.35119,22.035873 696.38826,22.035873 C 686.42535,22.035852 678.39557,13.940685 678.39557,3.9777539 C 678.39557,3.6923624 678.38244,3.4093576 678.39557,3.1271903 L 664.98283,3.1271903 C 664.99619,3.411891 665.04826,3.6897662 665.04826,3.9777539 C 665.04824,13.940685 656.95307,22.035873 646.99014,22.035873 C 637.02721,22.035852 628.93202,13.940685 628.93202,3.9777539 C 628.93202,3.6923624 628.9189,3.4093576 628.93202,3.1271903 L 615.58472,3.1271903 C 615.59784,3.4093576 615.58472,3.6923624 615.58472,3.9777539 C 615.5847,13.940685 607.48953,22.035873 597.5266,22.035873 C 587.56365,22.035852 579.53391,13.940685 579.53391,3.9777539 C 579.53391,3.6923624 579.52078,3.4093576 579.53391,3.1271903 L 566.1866,3.1271903 C 566.19973,3.4093576 566.1866,3.6923624 566.1866,3.9777539 C 566.18662,13.940685 558.09141,22.035873 548.12848,22.035873 C 538.16553,22.035852 530.07036,13.940685 530.07036,3.9777539 C 530.07036,3.6897662 530.12243,3.411891 530.13579,3.1271903 L 516.72306,3.1271903 C 516.73618,3.4093576 516.72306,3.6923624 516.72306,3.9777539 C 516.72308,13.940685 508.6933,22.035873 498.73036,22.035873 C 488.76741,22.035852 480.67225,13.940685 480.67225,3.9777539 C 480.67225,3.6923624 480.65912,3.4093576 480.67225,3.1271903 L 467.32494,3.1271903 C 467.33807,3.4093576 467.32494,3.6923624 467.32494,3.9777539 C 467.32496,13.940685 459.22975,22.035873 449.26682,22.035873 C 439.30391,22.035852 431.2087,13.940685 431.2087,3.9777539 C 431.2087,3.6897662 431.26077,3.411891 431.27413,3.1271903 L 417.8614,3.1271903 C 417.87452,3.4093576 417.92682,3.6923624 417.92682,3.9777539 C 417.92682,13.940685 409.83164,22.035873 399.8687,22.035873 C 389.90577,22.035852 381.81058,13.940685 381.81058,3.9777539 C 381.81058,3.6923624 381.79746,3.4093576 381.81058,3.1271903 L 368.46328,3.1271903 C 368.47641,3.4093576 368.46328,3.6923624 368.46328,3.9777539 C 368.46326,13.940685 360.36809,22.035873 350.40516,22.035873 C 340.44223,22.035852 332.34704,13.940685 332.34704,3.9777539 C 332.34704,3.6923624 332.39934,3.4093576 332.41247,3.1271903 L 318.99973,3.1271903 C 319.01286,3.4093576 319.06516,3.6923624 319.06516,3.9777539 C 319.06514,13.940685 310.96997,22.035873 301.00704,22.035873 C 291.04409,22.035852 282.94892,13.940685 282.94892,3.9777539 C 282.94892,3.6923624 282.9358,3.4093576 282.94892,3.1271903 L 269.60162,3.1271903 C 269.61475,3.4093576 269.60162,3.6923624 269.60162,3.9777539 C 269.60164,13.940685 261.50643,22.035873 251.5435,22.035873 C 241.58059,22.035852 233.48538,13.940685 233.48538,3.9777539 C 233.48538,3.6923624 233.53768,3.4093576 233.55081,3.1271903 L 220.13807,3.1271903 C 220.1512,3.4093576 220.2035,3.6923624 220.2035,3.9777539 C 220.20352,13.940685 212.10831,22.035873 202.14538,22.035873 C 192.18243,22.035852 184.08726,13.940685 184.08726,3.9777539 C 184.08726,3.6923624 184.07414,3.4093576 184.08726,3.1271903 L 170.73996,3.1271903 C 170.75308,3.4093576 170.73996,3.6923624 170.73996,3.9777539 C 170.73996,13.940685 162.64477,22.035873 152.68184,22.035873 C 142.71893,22.035852 134.62372,13.940685 134.62372,3.9777539 C 134.62372,3.6923624 134.67602,3.4093576 134.68915,3.1271903 L 121.27641,3.1271903 C 121.28977,3.411891 121.34184,3.6897662 121.34184,3.9777539 C 121.34182,13.940685 113.24665,22.035873 103.28372,22.035873 C 93.32079,22.035852 85.225602,13.940685 85.225602,3.9777539 C 85.225602,3.6923624 85.212475,3.4093576 85.225602,3.1271903 L 71.878276,3.1271903 C 71.891403,3.4093576 71.878276,3.6923624 71.878276,3.9777539 C 71.878276,13.940685 63.783088,22.035873 53.820156,22.035873 C 43.857225,22.035852 35.827465,13.940685 35.827465,3.9777539 C 35.827465,3.6923624 35.814337,3.4093576 35.827465,3.1271903 L 22.414731,3.1271903 z "
     style="color:#000000;fill:#cfcecc;fill-opacity:1;fill-rule:nonzero;stroke:none;stroke-width:0.1;stroke-linecap:butt;stroke-linejoin:miter;marker:none;marker-start:none;marker-mid:none;marker-end:none;stroke-miterlimit:4;stroke-dasharray:none;stroke-dashoffset:0;stroke-opacity:1;visibility:visible;display:inline;overflow:visible"
     id="path18641" />
  <path
     d="M 18.4244,0.10475317 C 18.437758,0.38945381 18.489828,0.66732901 18.489828,0.95531676 C 18.489828,1.2666492 18.439998,1.5638283 18.4244,1.8713083 C 18.377585,2.7937694 18.277674,3.6729119 18.09726,4.553855 C 17.99201,5.0677315 17.852633,5.561697 17.704692,6.0586983 C 17.366519,7.1946744 16.939991,8.2997685 16.396133,9.3300968 C 16.294149,9.523282 16.177698,9.7299716 16.068993,9.9189485 C 15.308102,11.241724 14.380114,12.432848 13.321018,13.517487 C 13.068854,13.775723 12.803038,14.059796 12.535883,14.302622 C 12.215317,14.594002 11.895442,14.885193 11.554463,15.153186 C 11.213484,15.421179 10.86771,15.629543 10.507616,15.872894 C 10.207547,16.075668 9.9041708,16.276893 9.591624,16.461745 C 9.4040918,16.572648 9.1945757,16.684661 9.0027723,16.788885 C 8.8749104,16.858375 8.8053369,16.918694 8.6756325,16.985169 C 8.5459281,17.051644 8.4145697,17.118056 8.2830647,17.181453 C 7.8885707,17.371623 7.4497112,17.543202 7.0399333,17.704877 C 6.4935626,17.920444 5.9096939,18.131467 5.3388061,18.293728 C 5.0533517,18.374859 4.7792451,18.488212 4.4882425,18.55544 C 4.2699957,18.605857 4.0551617,18.643878 3.8339628,18.686296 C 3.6865039,18.714582 3.5246822,18.727061 3.375967,18.751724 C 3.2272519,18.776388 3.1333078,18.796152 2.9833992,18.817152 C 2.8334906,18.838152 2.6764635,18.865286 2.5254034,18.88258 C 2.4498629,18.891227 2.3395042,18.874875 2.2636915,18.88258 C 1.7330027,18.936535 1.2366504,19.006548 0.69342029,19.013436 C 0.61580702,19.01442 0.509552,19.013436 0.43170842,19.013436 C 0.33052014,19.013436 0.20535905,19.01509 0.10456857,19.013436 L 0.10456857,32.295314 C 0.2079343,32.293576 0.32792396,32.295314 0.43170842,32.295314 C 10.39464,32.295335 18.489828,40.390502 18.489828,50.353433 C 18.489849,60.316386 10.39464,68.411553 0.43170842,68.411553 C 0.32792396,68.411553 0.2079343,68.41329 0.10456857,68.411553 L 0.10456857,81.758858 C 0.2079343,81.75712 0.32792396,81.758858 0.43170842,81.758858 C 10.39464,81.758879 18.489828,89.854046 18.489828,99.816978 C 18.489849,109.77993 10.39464,117.80967 0.43170842,117.80967 C 0.32792396,117.80967 0.2079343,117.81141 0.10456857,117.80967 L 0.10456857,131.15697 C 0.2079343,131.15524 0.32792396,131.15697 0.43170842,131.15697 C 10.39464,131.15695 18.489828,139.25216 18.489828,149.21509 C 18.489849,159.17805 10.39464,167.27321 0.43170842,167.27321 C 0.32792396,167.27321 0.2079343,167.27495 0.10456857,167.27321 L 0.10456857,180.62052 C 0.2079343,180.61878 0.32792396,180.62052 0.43170842,180.62052 C 10.39464,180.62054 18.489828,188.71571 18.489828,198.67864 C 18.489849,208.64159 10.39464,216.67133 0.43170842,216.67133 C 0.32792396,216.67133 0.2079343,216.67307 0.10456857,216.67133 L 0.10456857,230.01864 C 0.2079343,230.0169 0.32792396,230.01864 0.43170842,230.01864 C 10.39464,230.01866 18.489828,238.11382 18.489828,248.07675 C 18.489849,258.03969 10.39464,266.13487 0.43170842,266.13487 C 0.32792396,266.13487 0.2079343,266.13661 0.10456857,266.13487 L 0.10456857,279.48218 C 0.2079343,279.48044 0.32792396,279.48218 0.43170842,279.48218 C 10.39464,279.48222 18.489828,287.51194 18.489828,297.47487 C 18.489849,307.43782 10.39464,315.53299 0.43170842,315.53299 C 0.32792396,315.53299 0.2079343,315.53473 0.10456857,315.53299 L 0.10456857,328.8803 C 0.2079343,328.87856 0.32792396,328.8803 0.43170842,328.8803 C 10.39464,328.88034 18.489828,336.97548 18.489828,346.93842 C 18.489849,356.90139 10.39464,364.99653 0.43170842,364.99653 C 0.32792396,364.99653 0.2079343,364.99827 0.10456857,364.99653 L 0.10456857,378.34384 C 0.2079343,378.3421 0.32792396,378.34384 0.43170842,378.34384 C 10.39464,378.3439 18.489828,386.3736 18.489828,396.33653 C 18.489828,398.24579 18.124038,400.10479 17.573836,401.83248 L 32.622269,401.83248 C 32.0746,400.10839 31.837133,398.24121 31.837133,396.33653 C 31.837154,386.37366 39.866893,378.34384 49.829825,378.34384 C 59.792756,378.3439 67.887944,386.3736 67.887944,396.33653 C 67.887944,398.24579 67.587583,400.10479 67.037381,401.83248 L 82.085813,401.83248 C 81.535611,400.10479 81.23525,398.24579 81.23525,396.33653 C 81.23525,386.37366 89.330438,378.34384 99.293369,378.34384 C 109.2563,378.3439 117.35149,386.3736 117.35149,396.33653 C 117.35149,398.24123 117.04859,400.10839 116.50092,401.83248 L 131.54936,401.83248 C 130.99916,400.10479 130.63337,398.24579 130.63337,396.33653 C 130.63337,386.37366 138.72855,378.34384 148.69149,378.34384 C 158.65444,378.3439 166.7496,386.3736 166.7496,396.33653 C 166.7496,398.24123 166.51214,400.10839 165.96447,401.83248 L 180.88205,401.83248 C 180.33438,400.10839 180.09691,398.24121 180.09691,396.33653 C 180.09689,386.37366 188.1921,378.34384 198.15503,378.34384 C 208.11794,378.3439 216.21315,386.3736 216.21315,396.33653 C 216.21315,398.24579 215.84736,400.10479 215.29716,401.83248 L 230.34559,401.83248 C 229.79792,400.10839 229.49503,398.24121 229.49503,396.33653 C 229.49501,386.37366 237.59021,378.34384 247.55315,378.34384 C 257.5161,378.3439 265.61127,386.3736 265.61127,396.33653 C 265.61127,398.24579 265.3109,400.10479 264.7607,401.83248 L 279.80913,401.83248 C 279.25893,400.10479 278.95857,398.24579 278.95857,396.33653 C 278.95857,386.37366 287.05376,378.34384 297.01669,378.34384 C 306.9796,378.3439 315.07481,386.3736 315.07481,396.33653 C 315.07481,398.24123 314.77192,400.10839 314.22425,401.83248 L 329.27268,401.83248 C 328.72248,400.10479 328.35669,398.24579 328.35669,396.33653 C 328.35669,386.37366 336.45188,378.34384 346.41481,378.34384 C 356.37774,378.3439 364.47293,386.3736 364.47293,396.33653 C 364.47293,398.24123 364.23546,400.10839 363.68779,401.83248 L 378.60537,401.83248 C 378.0577,400.10839 377.82023,398.24121 377.82023,396.33653 C 377.82025,386.37366 385.91542,378.34384 395.87835,378.34384 C 405.84128,378.3439 413.93647,386.3736 413.93647,396.33653 C 413.93647,398.24579 413.57068,400.10479 413.02048,401.83248 L 428.06891,401.83248 C 427.52124,400.10839 427.21835,398.24121 427.21835,396.33653 C 427.21831,386.37366 435.31354,378.34384 445.27647,378.34384 C 455.23942,378.3439 463.33459,386.3736 463.33459,396.33653 C 463.33459,398.24579 463.03423,400.10479 462.48402,401.83248 L 477.53246,401.83248 C 476.98225,400.10479 476.68189,398.24579 476.68189,396.33653 C 476.68187,386.37366 484.77708,378.34384 494.74001,378.34384 C 504.70292,378.3439 512.7327,386.3736 512.7327,396.33653 C 512.7327,398.24123 512.49524,400.10839 511.94757,401.83248 L 526.996,401.83248 C 526.4458,400.10479 526.08001,398.24579 526.08001,396.33653 C 526.07999,386.37366 534.1752,378.34384 544.13813,378.34384 C 554.10104,378.3439 562.19625,386.3736 562.19625,396.33653 C 562.19625,398.24579 561.83046,400.10479 561.28026,401.83248 L 576.32869,401.83248 C 575.78102,400.10839 575.54355,398.24121 575.54355,396.33653 C 575.54355,386.37366 583.57331,378.34384 593.53625,378.34384 C 603.49916,378.3439 611.59436,386.3736 611.59436,396.33653 C 611.59436,398.24579 611.294,400.10479 610.7438,401.83248 L 625.79223,401.83248 C 625.24331,400.10659 624.94167,398.24349 624.94167,396.33653 C 624.94167,386.37366 633.03686,378.34384 642.99979,378.34384 C 652.96272,378.3439 661.05791,386.3736 661.05791,396.33653 C 661.05791,398.24123 660.75501,400.10839 660.20735,401.83248 L 675.25578,401.83248 C 674.70558,400.10479 674.40521,398.24579 674.40521,396.33653 C 674.40524,386.37366 682.43497,378.34384 692.39791,378.34384 C 702.36086,378.3439 710.45603,386.3736 710.45603,396.33653 C 710.45603,398.24123 710.21856,400.10839 709.67089,401.83248 L 724.58847,401.83248 C 724.0408,400.10839 723.80333,398.24121 723.80333,396.33653 C 723.80337,386.37366 731.89852,378.34384 741.86145,378.34384 C 751.8244,378.3439 759.91957,386.3736 759.91957,396.33653 C 759.91957,398.24579 759.55378,400.10479 759.00358,401.83248 L 774.05201,401.83248 C 773.50434,400.10839 773.20145,398.24121 773.20145,396.33653 C 773.20149,386.37366 781.29664,378.34384 791.25957,378.34384 C 801.22254,378.3439 809.31769,386.3736 809.31769,396.33653 C 809.31769,398.24579 809.01732,400.10479 808.46712,401.83248 L 823.51556,401.83248 C 822.96535,400.10479 822.66499,398.24579 822.66499,396.33653 C 822.66505,386.37366 830.76018,378.34384 840.72311,378.34384 C 850.68611,378.3439 858.78123,386.3736 858.78123,396.33653 C 858.78123,398.24123 858.47834,400.10839 857.93067,401.83248 L 872.9791,401.83248 C 872.4289,400.10479 872.06311,398.24579 872.06311,396.33653 C 872.06307,386.37366 880.1583,378.34384 890.12123,378.34384 C 892.1683,378.34386 894.17502,378.63095 896.00974,379.25983 L 896.00974,364.01512 C 894.17502,364.64398 892.1683,364.99653 890.12123,364.99653 C 880.15823,364.99653 872.06311,356.90135 872.06311,346.93842 C 872.06307,336.97553 880.1583,328.8803 890.12123,328.8803 C 892.1683,328.8803 894.17502,329.23283 896.00974,329.86172 L 896.00974,314.617 C 894.17502,315.24586 892.1683,315.53299 890.12123,315.53299 C 880.15823,315.53299 872.06311,307.4378 872.06311,297.47487 C 872.06307,287.51196 880.1583,279.48218 890.12123,279.48218 C 892.1683,279.48218 894.17502,279.76931 896.00974,280.39817 L 896.00974,265.15345 C 894.17502,265.78232 892.1683,266.13487 890.12123,266.13487 C 880.15823,266.13485 872.06311,258.03969 872.06311,248.07675 C 872.06307,238.11382 880.1583,230.01864 890.12123,230.01864 C 892.1683,230.01864 894.17502,230.37119 896.00974,231.00005 L 896.00974,215.75534 C 894.17502,216.3842 892.1683,216.67133 890.12123,216.67133 C 880.15823,216.67137 872.06311,208.64157 872.06311,198.67864 C 872.06307,188.71573 880.1583,180.62052 890.12123,180.62052 C 892.1683,180.62052 894.17502,180.90765 896.00974,181.53651 L 896.00974,166.29179 C 894.17502,166.92066 892.1683,167.27321 890.12123,167.27321 C 880.15823,167.27321 872.06311,159.17803 872.06311,149.21509 C 872.06307,139.25218 880.1583,131.15697 890.12123,131.15697 C 892.1683,131.15697 894.17502,131.50953 896.00974,132.13839 L 896.00974,116.89368 C 894.17502,117.52254 892.1683,117.80967 890.12123,117.80967 C 880.15823,117.80965 872.06311,109.77991 872.06311,99.816978 C 872.06307,89.854067 880.1583,81.758858 890.12123,81.758858 C 892.1683,81.758858 894.17502,82.045987 896.00974,82.67485 L 896.00974,67.430133 C 894.16997,68.06289 892.17489,68.411553 890.12123,68.411553 C 880.15823,68.411532 872.06311,60.316365 872.06311,50.353433 C 872.06307,40.390523 880.1583,32.295314 890.12123,32.295314 C 892.1683,32.295314 894.17502,32.647871 896.00974,33.276733 L 896.00974,18.032017 C 894.17502,18.660879 892.1683,19.013436 890.12123,19.013436 C 880.15823,19.013415 872.06311,10.918248 872.06311,0.95531676 C 872.06311,0.66992519 872.11541,0.38692044 872.12854,0.10475317 L 858.7158,0.10475317 C 858.72893,0.38692044 858.78123,0.66992519 858.78123,0.95531676 C 858.78127,10.918248 850.68604,19.013436 840.72311,19.013436 C 830.76024,19.013415 822.66499,10.918248 822.66499,0.95531676 C 822.66499,0.66992519 822.65186,0.38692044 822.66499,0.10475317 L 809.31769,0.10475317 C 809.33081,0.38692044 809.31769,0.66992519 809.31769,0.95531676 C 809.31771,10.918248 801.2225,19.013436 791.25957,19.013436 C 781.29668,19.013415 773.20145,10.918248 773.20145,0.95531676 C 773.20145,0.66992519 773.25375,0.38692044 773.26688,0.10475317 L 759.85414,0.10475317 C 759.8675,0.38945381 759.91957,0.66732901 759.91957,0.95531676 C 759.91959,10.918248 751.82438,19.013436 741.86145,19.013436 C 731.89854,19.013415 723.80333,10.918248 723.80333,0.95531676 C 723.80333,0.66992519 723.7902,0.38692044 723.80333,0.10475317 L 710.45603,0.10475317 C 710.46915,0.38692044 710.45603,0.66992519 710.45603,0.95531676 C 710.45603,10.918248 702.36084,19.013436 692.39791,19.013436 C 682.435,19.013415 674.40521,10.918248 674.40521,0.95531676 C 674.40521,0.66992519 674.39209,0.38692044 674.40521,0.10475317 L 660.99248,0.10475317 C 661.00584,0.38945381 661.05791,0.66732901 661.05791,0.95531676 C 661.05789,10.918248 652.96272,19.013436 642.99979,19.013436 C 633.03686,19.013415 624.94167,10.918248 624.94167,0.95531676 C 624.94167,0.66992519 624.92854,0.38692044 624.94167,0.10475317 L 611.59436,0.10475317 C 611.60749,0.38692044 611.59436,0.66992519 611.59436,0.95531676 C 611.59434,10.918248 603.49918,19.013436 593.53625,19.013436 C 583.57329,19.013415 575.54355,10.918248 575.54355,0.95531676 C 575.54355,0.66992519 575.53043,0.38692044 575.54355,0.10475317 L 562.19625,0.10475317 C 562.20938,0.38692044 562.19625,0.66992519 562.19625,0.95531676 C 562.19627,10.918248 554.10106,19.013436 544.13813,19.013436 C 534.17518,19.013415 526.08001,10.918248 526.08001,0.95531676 C 526.08001,0.66732901 526.13208,0.38945381 526.14544,0.10475317 L 512.7327,0.10475317 C 512.74583,0.38692044 512.7327,0.66992519 512.7327,0.95531676 C 512.73272,10.918248 504.70294,19.013436 494.74001,19.013436 C 484.77706,19.013415 476.68189,10.918248 476.68189,0.95531676 C 476.68189,0.66992519 476.66877,0.38692044 476.68189,0.10475317 L 463.33459,0.10475317 C 463.34771,0.38692044 463.33459,0.66992519 463.33459,0.95531676 C 463.33461,10.918248 455.2394,19.013436 445.27647,19.013436 C 435.31356,19.013415 427.21835,10.918248 427.21835,0.95531676 C 427.21835,0.66732901 427.27042,0.38945381 427.28378,0.10475317 L 413.87104,0.10475317 C 413.88417,0.38692044 413.93647,0.66992519 413.93647,0.95531676 C 413.93647,10.918248 405.84128,19.013436 395.87835,19.013436 C 385.91542,19.013415 377.82023,10.918248 377.82023,0.95531676 C 377.82023,0.66992519 377.8071,0.38692044 377.82023,0.10475317 L 364.47293,0.10475317 C 364.48605,0.38692044 364.47293,0.66992519 364.47293,0.95531676 C 364.47291,10.918248 356.37774,19.013436 346.41481,19.013436 C 336.45188,19.013415 328.35669,10.918248 328.35669,0.95531676 C 328.35669,0.66992519 328.40899,0.38692044 328.42212,0.10475317 L 315.00938,0.10475317 C 315.02251,0.38692044 315.07481,0.66992519 315.07481,0.95531676 C 315.07479,10.918248 306.97962,19.013436 297.01669,19.013436 C 287.05374,19.013415 278.95857,10.918248 278.95857,0.95531676 C 278.95857,0.66992519 278.94544,0.38692044 278.95857,0.10475317 L 265.61127,0.10475317 C 265.62439,0.38692044 265.61127,0.66992519 265.61127,0.95531676 C 265.61129,10.918248 257.51608,19.013436 247.55315,19.013436 C 237.59024,19.013415 229.49503,10.918248 229.49503,0.95531676 C 229.49503,0.66992519 229.54733,0.38692044 229.56045,0.10475317 L 216.14772,0.10475317 C 216.16085,0.38692044 216.21315,0.66992519 216.21315,0.95531676 C 216.21317,10.918248 208.11796,19.013436 198.15503,19.013436 C 188.19208,19.013415 180.09691,10.918248 180.09691,0.95531676 C 180.09691,0.66992519 180.08378,0.38692044 180.09691,0.10475317 L 166.7496,0.10475317 C 166.76273,0.38692044 166.7496,0.66992519 166.7496,0.95531676 C 166.7496,10.918248 158.65442,19.013436 148.69149,19.013436 C 138.72858,19.013415 130.63337,10.918248 130.63337,0.95531676 C 130.63337,0.66992519 130.68567,0.38692044 130.69879,0.10475317 L 117.28606,0.10475317 C 117.29942,0.38945381 117.35149,0.66732901 117.35149,0.95531676 C 117.35147,10.918248 109.2563,19.013436 99.293369,19.013436 C 89.330438,19.013415 81.23525,10.918248 81.23525,0.95531676 C 81.23525,0.66992519 81.222122,0.38692044 81.23525,0.10475317 L 67.887944,0.10475317 C 67.901072,0.38692044 67.887944,0.66992519 67.887944,0.95531676 C 67.887944,10.918248 59.792756,19.013436 49.829825,19.013436 C 39.866893,19.013415 31.837133,10.918248 31.837133,0.95531676 C 31.837133,0.66992519 31.824006,0.38692044 31.837133,0.10475317 L 18.4244,0.10475317 z "
     style="color:#000000;fill:#ffffff;fill-opacity:1;fill-rule:nonzero;stroke:#000000;stroke-width:0.20936951;stroke-linecap:butt;stroke-linejoin:miter;marker:none;marker-start:none;marker-mid:none;marker-end:none;stroke-miterlimit:4;stroke-dasharray:none;stroke-dashoffset:0;stroke-opacity:1;visibility:visible;display:inline;overflow:visible"
     id="rect15911" />
  <rect
     width="790.53845"
     height="304.88345"
     x="52.78791"
     y="48.526882"
     style="color:#000000;fill:none;fill-opacity:1;fill-rule:nonzero;stroke:#000000;stroke-width:4.09188128;stroke-linecap:butt;stroke-linejoin:miter;marker:none;marker-start:none;marker-mid:none;marker-end:none;stroke-miterlimit:4;stroke-dasharray:none;stroke-dashoffset:0;stroke-opacity:1;visibility:visible;display:inline;overflow:visible"
     id="rect20581" />
  <path
     d="M 431.77222,262.44034 C 416.06699,256.83738 408.74509,251.43226 399.86718,238.88772 L 392.85411,228.97822 L 391.68527,170.14614 C 391.0424,137.7885 390.51642,111.14674 390.51642,110.94222 C 390.51642,110.73769 397.30958,111.78986 405.61234,113.28038 L 420.70823,115.99039 L 420.80733,171.31155 C 420.90523,225.97458 420.97127,226.70187 426.35845,232.44636 C 441.58172,248.67926 481.46896,243.35648 490.7219,223.85733 C 493.91045,217.13795 494.54364,207.00901 494.54364,162.72428 C 494.54364,118.70116 495.09094,109.85503 497.75131,110.87592 C 499.51552,111.55291 505.87876,112.84458 511.89181,113.74627 L 522.82467,115.38578 L 522.12588,172.1528 L 521.42709,228.91982 L 514.13362,239.07883 C 498.00475,261.54453 459.70883,272.40702 431.77222,262.44034 z M 565.84321,265.60856 C 564.5575,265.17249 559.56068,264.15589 554.7392,263.34949 L 545.97285,261.88325 L 545.95845,192.4429 C 545.94687,136.69386 545.28286,121.73501 542.59053,116.57387 C 538.77678,109.26289 539.27372,109.11177 555.32361,112.70195 C 561.10939,113.99617 582.14862,115.85983 602.07743,116.84339 C 632.36283,118.3381 639.90648,119.45954 648.02583,123.674 C 666.34143,133.18097 671.37744,146.47047 665.15435,168.87426 C 662.24991,179.33049 646.74531,197.33765 637.26587,201.26418 L 630.21544,204.18455 L 641.9211,214.70893 C 656.47994,227.79861 664.71518,241.57749 666.71953,256.20079 C 668.228,267.20624 668.13579,267.42999 662.63798,266.1063 C 659.54433,265.36146 653.06831,264.03714 648.24682,263.1634 C 641.69634,261.97634 639.48048,260.43521 639.48048,257.06643 C 639.48048,248.78484 630.10749,234.05603 620.33003,226.97329 C 611.53857,220.6048 585.30415,210.66592 577.28542,210.66592 C 574.67796,210.66592 574.02514,216.28295 574.02514,238.71821 C 574.02514,266.77261 573.58084,268.23282 565.84321,265.60856 z M 623.84822,181.9368 C 634.08507,174.12879 641.26121,157.05847 638.09342,148.05094 C 635.29158,140.08397 629.74754,138.71421 599.1553,138.43053 L 574.02514,138.19751 L 574.02514,160.51841 L 574.02514,182.83933 L 581.62264,186.27 C 593.54447,191.65333 613.83977,189.57063 623.84822,181.9368 z M 689.74082,187.87423 L 689.74082,111.31406 L 713.11774,111.95076 C 759.30953,113.20884 781.74175,119.99138 800.76316,138.45103 C 822.90665,159.94057 828.42378,192.02915 814.69779,219.49725 C 806.76811,235.36593 796.70305,245.33514 780.24003,253.62678 C 764.30142,261.65435 748.06687,264.43272 717.09362,264.4336 L 689.74082,264.43442 L 689.74082,187.87423 z M 761.48607,230.46587 C 775.25463,225.71821 790.49868,209.82761 792.73859,197.88785 C 796.42792,178.22204 787.4695,160.93181 767.94024,150.02567 C 760.09217,145.64292 753.23457,144.08546 738.34367,143.30388 L 718.96195,142.2866 L 718.96195,187.77509 C 718.96195,212.79379 719.75092,234.07908 720.71521,235.07581 C 723.28204,237.7289 748.78568,234.84521 761.48607,230.46587 z M 114.66892,255.38432 C 100.19473,246.39474 90.123174,229.99519 90.123174,215.41639 C 90.123174,210.46453 88.990945,208.32823 86.366519,208.32823 C 83.987705,208.32823 83.103412,207.04213 83.955483,204.82171 C 84.931668,202.27774 83.687553,201.31517 79.423387,201.31517 C 73.657205,201.31517 73.558822,201.01589 74.236949,185.53574 C 74.859593,171.32244 75.43739,169.68387 80.05874,169.02629 C 83.432038,168.54626 84.744073,167.13599 83.889406,164.90878 C 82.977099,162.53135 83.712635,161.95238 86.356344,162.96686 C 89.034996,163.99474 90.123174,163.08151 90.123174,159.80561 C 90.123174,153.15516 101.03964,143.22958 110.25554,141.50067 C 117.0863,140.21922 118.17546,139.0862 118.17546,133.26198 L 118.17546,126.50906 L 134.5393,126.50906 C 149.25773,126.50906 150.90312,126.9718 150.90312,131.11106 C 150.90312,134.4535 151.97398,135.30218 154.8155,134.21178 C 157.77948,133.0744 158.36396,133.65886 157.22658,136.62282 C 156.01649,139.77626 157.18485,140.54517 163.24939,140.58654 C 171.56071,140.64326 189.28848,147.93641 196.11039,154.10544 C 203.26383,160.57433 209.34539,174.74817 209.34539,184.95133 C 209.34539,200.8516 200.18508,215.15407 185.04844,222.88738 C 181.32811,224.78812 174.49035,231.93127 169.85345,238.76107 C 165.21658,245.59083 157.75729,253.10901 153.27731,255.46815 C 142.51705,261.13436 123.86192,261.09384 114.66892,255.38432 z M 146.9238,254.26143 C 154.63919,251.0377 169.60465,235.92089 169.60465,231.35115 C 169.60465,229.86931 167.42681,229.40579 164.34485,230.23171 C 161.45195,231.00699 157.2441,231.65565 154.99409,231.6732 C 152.01414,231.69646 150.90312,233.60972 150.90312,238.71821 L 150.90312,245.73129 L 134.5393,245.73129 L 118.17546,245.73129 L 118.17546,229.36745 L 118.17546,213.00362 L 134.5393,213.00362 L 150.90312,213.00362 L 150.90312,220.01668 C 150.90312,226.39602 151.60214,227.02976 158.63823,227.02976 C 169.35713,227.02976 173.86473,222.85355 175.66975,211.25036 C 177.20985,201.35009 177.18958,201.31517 169.90342,201.31517 C 164.18889,201.31517 162.59157,200.30982 162.59157,196.71316 C 162.59157,193.37072 161.52075,192.52204 158.67921,193.61244 C 155.71525,194.74982 155.13077,194.16536 156.26815,191.2014 C 157.42201,188.19448 156.43389,187.28902 151.99862,187.28902 C 144.28001,187.28902 137.68056,180.25324 134.57251,168.71081 C 132.31961,160.34421 131.21213,159.23673 125.09843,159.23673 C 118.77175,159.23673 118.17546,158.54606 118.17546,151.21801 C 118.17546,143.29207 118.08753,143.22394 110.57797,145.33259 C 102.29407,147.65864 92.460868,157.33455 92.460868,163.15986 C 92.460868,166.30521 93.017728,166.3693 96.405075,163.61392 C 99.859086,160.80434 100.15876,160.91405 98.816153,164.49653 C 97.680617,167.52649 98.476535,168.58749 101.88501,168.58749 C 106.02426,168.58749 106.48701,170.23292 106.48701,184.95133 C 106.48701,199.66973 106.02426,201.31517 101.88501,201.31517 C 98.54257,201.31517 97.693891,202.38599 98.784308,205.22755 C 99.921687,208.19151 99.337232,208.77596 96.373251,207.63859 C 91.011654,205.58117 91.261557,211.96047 97.160145,227.72587 C 102.40523,241.74463 108.44315,248.45439 120.52984,253.69583 C 130.76877,258.136 137.31487,258.27627 146.9238,254.26143 z M 148.10318,229.95187 L 148.80978,217.679 L 135.83029,217.679 L 122.85083,217.679 L 122.85083,230.65847 L 122.85083,243.63793 L 135.12371,242.93133 L 147.3966,242.22475 L 148.10318,229.95187 z M 192.69547,211.81515 C 218.56376,188.44468 202.85058,151.24368 164.14161,144.21374 C 155.56519,142.6562 155.24693,142.82087 156.88131,147.97031 C 158.40391,152.76761 158.17077,153.00742 154.74687,150.16582 C 151.34654,147.34379 150.90312,147.68299 150.90312,153.10625 C 150.90312,158.41393 149.92264,159.23673 143.59784,159.23673 C 136.61526,159.23673 136.35698,159.57233 137.75111,166.83423 C 138.55333,171.01285 141.89937,176.79863 145.18677,179.69153 C 152.33992,185.98624 158.45179,186.72942 156.26815,181.03894 C 155.13077,178.07498 155.71525,177.49051 158.67921,178.62789 C 161.68613,179.78176 162.59157,178.79364 162.59157,174.35836 C 162.59157,168.77194 163.11462,168.58749 178.95541,168.58749 L 195.31925,168.58749 L 195.31925,184.95133 L 195.31925,201.31517 L 188.57882,201.31517 C 181.8021,201.31517 179.06886,205.47865 178.98734,215.92572 C 178.9397,222.03085 182.60417,220.932 192.69547,211.81515 z M 104.14932,186.12017 L 104.14932,173.26288 L 91.292021,173.26288 L 78.434723,173.26288 L 78.434723,186.12017 L 78.434723,198.97747 L 91.292021,198.97747 L 104.14932,198.97747 L 104.14932,186.12017 z M 190.64386,186.12017 L 190.64386,173.26288 L 177.78656,173.26288 L 164.92926,173.26288 L 164.92926,184.56171 C 164.92926,190.77607 165.63057,196.56187 166.48775,197.41901 C 167.34491,198.27617 173.13068,198.97747 179.34504,198.97747 L 190.64386,198.97747 L 190.64386,186.12017 z M 148.10318,142.28848 L 147.3966,130.0156 L 135.12371,129.309 L 122.85083,128.60242 L 122.85083,141.58188 L 122.85083,154.56134 L 135.83029,154.56134 L 148.80978,154.56134 L 148.10318,142.28848 z M 245.57959,258.11037 L 238.56653,257.21153 L 238.56653,183.67943 C 238.56653,143.2368 239.16457,110.14689 239.8955,110.14631 C 240.62643,110.14572 246.6752,111.76392 253.33723,113.74233 L 265.44997,117.33943 L 265.44997,144.08776 L 265.44997,170.83612 L 271.52644,172.36121 C 280.37037,174.58088 320.83951,174.62411 334.14665,172.4281 L 345.5699,170.54298 L 343.92827,140.34411 C 343.02537,123.73472 343.14471,110.16119 344.19346,110.1807 C 345.24223,110.20024 350.83412,111.6296 356.6199,113.35711 L 367.13952,116.49807 L 368.67309,187.54332 C 369.51655,226.6182 369.86811,258.93832 369.45431,259.36579 C 369.04055,259.79328 362.70895,259.39424 355.38413,258.47909 L 342.06629,256.81513 L 343.7479,227.65971 L 345.42951,198.50432 L 339.92069,200.35456 C 336.89082,201.37218 318.89543,202.14299 299.9309,202.06745 L 265.44997,201.9301 L 265.44997,230.84378 L 265.44997,259.75744 L 259.02132,259.38329 C 255.48557,259.17755 249.43678,258.60471 245.57959,258.11037 z M 93.593536,336.24843 L 93.593536,325.42009 L 85.705205,325.42009 L 85.705205,323.72233 L 95.643263,323.72233 L 95.643263,337.24224 C 94.166329,337.97378 92.54449,338.519 90.777746,338.87788 C 89.010961,339.25056 87.119977,339.45069 85.104775,339.47829 C 80.632643,339.47829 77.140506,338.06349 74.628407,335.23391 C 72.102468,332.41814 70.83951,328.49122 70.83951,323.45317 C 70.83951,318.40135 72.102468,314.46064 74.628407,311.63103 C 77.140506,308.81527 80.632643,307.40738 85.104775,307.40734 C 86.954345,307.40738 88.700403,307.59372 90.34297,307.96636 C 91.999271,308.36667 93.517597,308.9533 94.897908,309.72623 L 94.897908,311.73455 C 93.503779,310.96162 92.013089,310.37498 90.425775,309.97469 C 88.852238,309.58824 87.195895,309.39499 85.456746,309.39497 C 81.302081,309.39499 78.182622,310.57514 76.098411,312.93538 C 74.01418,315.28191 72.972064,318.78783 72.972064,323.45317 C 72.972064,328.18758 74.01418,331.7487 76.098411,334.13658 C 78.182622,336.53828 81.302081,337.73914 85.456746,337.73914 C 87.154482,337.73914 88.672787,337.62181 90.011684,337.38717 C 91.336742,337.13871 92.530692,336.75914 93.593536,336.24843 M 105.31216,307.96636 L 108.3764,307.96636 L 123.3663,336.22772 L 123.3663,307.96636 L 125.43673,307.96636 L 125.43673,338.87788 L 122.49672,338.87788 L 107.424,310.43017 L 107.424,338.87788 L 105.31216,338.87788 L 105.31216,307.96636 M 136.63775,307.96636 L 138.70818,307.96636 L 138.70818,326.74517 C 138.70818,330.66517 139.39833,333.48787 140.77862,335.21322 C 142.14509,336.92477 144.36045,337.78055 147.4247,337.78055 C 150.4751,337.78055 152.68355,336.92477 154.05007,335.21322 C 155.43034,333.48787 156.12046,330.66517 156.1205,326.74517 L 156.1205,307.96636 L 158.19091,307.96636 L 158.19091,327.26277 C 158.19089,331.29322 157.27991,334.33674 155.45795,336.39335 C 153.64975,338.44999 150.972,339.47829 147.4247,339.47829 C 143.86355,339.47829 141.17889,338.44999 139.37071,336.39335 C 137.54874,334.33674 136.63775,331.29322 136.63775,327.26277 L 136.63775,307.96636 M 183.69861,309.68482 L 183.69861,323.88796 L 190.05482,323.88796 C 192.35989,323.88799 194.14045,323.27376 195.39652,322.04528 C 196.66637,320.81685 197.3013,319.05699 197.30133,316.7657 C 197.3013,314.51585 196.66637,312.76979 195.39652,311.5275 C 194.14045,310.29907 192.35989,309.68486 190.05482,309.68482 L 183.69861,309.68482 M 181.62818,307.96636 L 190.05482,307.96636 C 193.13284,307.9664 195.46553,308.71175 197.05287,310.20242 C 198.62638,311.69317 199.41313,313.88092 199.41317,316.7657 C 199.41313,319.66431 198.62638,321.85896 197.05287,323.34965 C 195.46553,324.84039 193.13284,325.58572 190.05482,325.58572 L 183.69861,325.58572 L 183.69861,338.87788 L 181.62818,338.87788 L 181.62818,307.96636 M 213.51279,315.13006 C 216.46659,315.13008 218.79926,316.23429 220.51084,318.44275 C 222.23617,320.66501 223.09885,323.61193 223.09887,327.28348 C 223.09885,331.07926 222.23617,334.07448 220.51084,336.26913 C 218.79926,338.47758 216.46659,339.58182 213.51279,339.58182 C 210.53136,339.58182 208.17797,338.48449 206.45262,336.28984 C 204.74106,334.09519 203.88528,331.09306 203.88528,327.28348 C 203.88528,323.57052 204.74797,320.61671 206.47332,318.42204 C 208.19867,316.22741 210.54516,315.13008 213.51279,315.13006 M 213.53349,316.80709 C 211.17319,316.80713 209.3098,317.75262 207.94333,319.64358 C 206.56304,321.52079 205.87289,324.06051 205.87289,327.26277 C 205.87289,330.54786 206.55613,333.12899 207.92262,335.00618 C 209.28909,336.89716 211.15939,337.84265 213.53349,337.84265 C 215.89376,337.84265 217.75714,336.89716 219.12366,335.00618 C 220.50391,333.10137 221.19405,330.52025 221.19407,327.26277 C 221.19405,324.10192 220.50391,321.56909 219.12366,319.66429 C 217.75714,317.75951 215.89376,316.80713 213.53349,316.80709 M 244.38289,316.37231 L 244.38289,318.46343 C 243.044,317.71812 242.20893,317.30403 241.87766,317.22118 C 240.91144,316.98656 239.7106,316.84852 238.27513,316.80709 C 236.09425,316.80713 234.3827,317.24191 233.14046,318.11146 C 232.18806,318.82924 231.71185,320.0577 231.71185,321.79682 C 231.71185,322.97009 232.16045,323.88799 233.05764,324.55049 C 234.01004,325.26827 235.3696,325.82038 237.13639,326.20684 L 238.44076,326.49671 C 240.63539,326.97981 242.29864,327.66306 243.43049,328.54644 C 244.74173,329.55405 245.43188,330.86533 245.50093,332.48024 C 245.50091,334.67491 244.85215,336.39335 243.55471,337.63561 C 242.1744,338.86406 239.95215,339.47829 236.88793,339.47829 C 235.17637,339.47829 233.87891,339.36098 232.99552,339.12632 C 231.9327,338.82267 230.81466,338.45688 229.64144,338.02899 L 229.64144,335.648 C 231.32538,336.6142 232.41579,337.16632 232.91271,337.30434 C 234.27918,337.66322 235.63186,337.84265 236.97075,337.84265 C 239.2068,337.84265 240.85623,337.38026 241.91908,336.45547 C 242.99567,335.51687 243.53398,334.28842 243.53401,332.77011 C 243.53398,331.50024 243.17513,330.57546 242.45739,329.99573 C 241.42216,329.16757 239.77272,328.49122 237.50906,327.96671 L 236.18398,327.65615 C 234.23777,327.20067 232.75397,326.55883 231.73256,325.73065 C 230.44889,324.69544 229.80707,323.43939 229.80707,321.96246 C 229.80707,319.53318 230.58002,317.78713 232.12594,316.72428 C 233.67186,315.66148 235.56976,315.13008 237.81962,315.13006 C 239.7382,315.13008 241.06328,315.23359 241.79486,315.44062 C 242.67821,315.6891 243.54089,315.99965 244.38289,316.37231 M 263.22378,315.68908 L 263.22378,317.30401 L 263.22378,315.68908 M 255.37687,309.1051 L 255.37687,315.68908 L 263.22378,315.68908 L 263.22378,317.30401 L 255.37687,317.30401 L 255.37687,331.23799 C 255.37684,333.00477 255.6046,334.24011 256.0601,334.94406 C 256.99868,336.48998 258.36518,337.26295 260.15956,337.26293 L 263.22378,337.26293 L 263.22378,338.87788 L 260.26307,338.87788 C 258.37206,338.87788 256.76404,338.32575 255.43896,337.22154 C 254.11389,336.1173 253.45136,334.12278 253.45136,331.23799 L 253.45136,317.30401 L 250.67698,317.30401 L 250.67698,315.68908 L 253.45136,315.68908 L 253.45136,309.1051 L 255.37687,309.1051 M 722.32761,338.65919 L 731.52808,338.65919 L 731.52808,301.63423 L 730.13408,301.63423 L 720.12506,303.6416 L 720.12506,301.32754 L 730.07832,299.32015 L 734.31611,299.32015 L 734.31611,338.65919 L 743.5166,338.65919 L 743.5166,340.94536 L 722.32761,340.94536 L 722.32761,338.65919 M 768.19061,300.85357 C 764.78921,300.85361 762.26141,302.50784 760.60718,305.81626 C 758.95295,309.14333 758.12584,313.92943 758.12584,320.17459 C 758.12584,326.41976 758.95295,331.20589 760.60718,334.53292 C 762.26141,337.84137 764.78921,339.4956 768.19061,339.4956 C 771.70351,339.4956 774.28707,337.84137 775.94132,334.53292 C 777.59553,331.20589 778.42264,326.41976 778.42266,320.17459 C 778.42264,313.92943 777.59553,309.14333 775.94132,305.81626 C 774.28707,302.50784 771.70351,300.85361 768.19061,300.85357 M 768.19061,298.56738 C 772.20535,298.56742 775.38368,300.20308 777.72565,303.47431 C 780.06757,306.76422 781.23854,312.33098 781.23858,320.17459 C 781.23854,328.01824 780.06757,333.585 777.72565,336.87486 C 775.38368,340.14613 772.20535,341.78177 768.19061,341.78177 C 764.28737,341.78177 761.16477,340.14613 758.82285,336.87486 C 756.48091,333.585 755.30992,328.01824 755.30994,320.17459 C 755.30992,312.33098 756.48091,306.76422 758.82285,303.47431 C 761.16477,300.20308 764.28737,298.56742 768.19061,298.56738 M 789.85987,309.8784 C 789.85987,305.83736 790.77255,302.97337 792.59796,301.28644 C 794.42335,299.61214 796.88449,298.77497 799.98136,298.77495 C 800.98846,298.77497 802.05853,298.91975 803.19153,299.20927 C 804.32454,299.48624 805.28757,299.85132 806.08071,300.3045 L 806.08071,302.15508 C 805.03581,301.51306 804.17346,301.07875 803.49368,300.85213 C 802.32288,300.48707 801.20248,300.30452 800.13244,300.3045 C 797.0859,300.30452 794.90172,301.08505 793.57988,302.64605 C 792.25805,304.20708 791.59713,306.61787 791.59713,309.8784 C 791.59713,313.16412 792.25805,315.58747 793.57988,317.14851 C 794.90172,318.70952 797.0859,319.49005 800.13244,319.49005 C 801.13952,319.49005 802.13405,319.35156 803.11601,319.0746 C 804.11052,318.81025 805.09874,318.4074 806.08071,317.86608 L 806.08071,319.62223 C 805.11133,320.07543 804.11052,320.41532 803.07824,320.64192 C 802.03334,320.86852 801.00105,320.98183 799.98136,320.98183 C 796.88449,320.98183 794.42335,320.14467 792.59796,318.47034 C 790.77255,316.78343 789.85987,313.91944 789.85987,309.8784"
     style="fill:#000000"
     id="path1308" />
</svg>
