<?xml version="1.0" encoding="UTF-8" standalone="no"?>
<!-- Created with Inkscape (http://www.inkscape.org/) -->
<svg
   xmlns:svg="http://www.w3.org/2000/svg"
   xmlns="http://www.w3.org/2000/svg"
   xmlns:xlink="http://www.w3.org/1999/xlink"
   version="1.0"
   width="900"
   height="710.42999"
   id="svg6612">
  <defs
     id="defs6615">
    <linearGradient
       id="linearGradient2478">
      <stop
         style="stop-color:#c64e3b;stop-opacity:1"
         offset="0"
         id="stop2480" />
      <stop
         style="stop-color:#2076c1;stop-opacity:1"
         offset="1"
         id="stop2482" />
    </linearGradient>
    <linearGradient
       x1="158.77078"
       y1="63.51918"
       x2="158.91579"
       y2="126.07529"
       id="linearGradient1332"
       xlink:href="#linearGradient2478"
       gradientUnits="userSpaceOnUse"
       gradientTransform="matrix(2.57589,0,0,2.57589,100.0251,74.1854)" />
  </defs>
  <path
     d="M 33.534939,3.3484302 C 33.474599,4.7755376 33.266452,6.1803945 32.971463,7.5342514 C 32.777203,8.4258159 32.535646,9.2577099 32.246994,10.110141 C 32.118705,10.489001 31.990613,10.866801 31.844512,11.237093 C 31.734936,11.514813 31.641866,11.769409 31.522525,12.042059 C 31.283843,12.587357 30.994004,13.128273 30.71756,13.65199 C 30.441115,14.175707 30.144571,14.681025 29.832097,15.181425 C 29.675859,15.431624 29.514037,15.742345 29.349118,15.98639 C 28.964306,16.555832 28.571784,17.062353 28.14167,17.596322 C 27.711555,18.130291 27.245894,18.630013 26.773228,19.125756 C 25.760373,20.188066 24.661246,21.156709 23.472869,22.023633 C 22.759845,22.543787 22.067873,23.030556 21.299462,23.472571 C 21.128704,23.570797 20.909302,23.700367 20.735986,23.794557 C 20.302693,24.030032 19.896622,24.228978 19.448041,24.43853 C 19.26861,24.522352 19.06633,24.600458 18.884565,24.680019 C 17.975734,25.077824 17.029546,25.439987 16.067185,25.726475 C 15.489769,25.898366 14.890637,26.079948 14.296261,26.209454 C 14.197197,26.231037 14.154278,26.269573 14.054771,26.28995 C 13.855761,26.330709 13.611533,26.33456 13.410799,26.370447 C 13.310432,26.388391 13.270096,26.434229 13.169309,26.450944 C 12.564591,26.551231 11.936676,26.637423 11.317888,26.692433 C 10.802231,26.738276 10.232282,26.759631 9.7079569,26.77293 C 9.4982279,26.778249 9.2749884,26.77293 9.0639844,26.77293 C 8.2199657,26.77293 7.3906785,26.695506 6.5685909,26.611937 C 6.3630684,26.591044 6.2091049,26.557395 6.005115,26.53144 C 5.5971327,26.479531 5.1991371,26.442222 4.7976666,26.370447 C 4.7740508,26.366225 4.7407626,26.374736 4.71717,26.370447 C 4.71717,26.370447 33.534939,47.882147 33.534939,61.386452 C 33.534937,74.890759 22.568268,85.857407 9.0639844,85.857407 C 7.5621272,85.857407 6.1445144,85.714465 4.71717,85.454924 C 4.71717,85.454924 33.534939,106.96662 33.534939,120.47092 C 33.534937,133.97523 22.568268,144.94187 9.0639844,144.94187 C 7.5605739,144.94187 6.1459003,144.79948 4.71717,144.53939 C 4.71717,144.53939 33.534939,166.05111 33.534939,179.5554 C 33.534937,193.0597 22.568268,204.02635 9.0639844,204.02635 C 7.5621272,204.02635 6.1445144,203.96391 4.71717,203.70436 C 4.71717,203.70436 33.534939,225.21608 33.534939,238.72037 C 33.534937,252.22468 22.568268,263.19132 9.0639844,263.19132 C 7.5621272,263.19132 6.1445144,263.04839 4.71717,262.78884 C 4.71717,262.78884 33.534939,284.30056 33.534939,297.80485 C 33.534937,311.30918 22.568268,322.2758 9.0639844,322.2758 C 7.5621272,322.2758 6.1445144,322.13286 4.71717,321.87332 C 4.71717,321.87332 33.534939,343.38502 33.534939,356.88933 C 33.534937,370.39364 22.568268,381.36028 9.0639844,381.36028 C 7.5621272,381.36028 6.1445144,381.21735 4.71717,380.9578 C 4.71717,380.9578 33.534939,402.46949 33.534939,415.9738 C 33.534937,429.47811 22.568268,440.44476 9.0639844,440.44476 C 7.5605739,440.44476 6.1459003,440.30234 4.71717,440.04228 C 4.71717,440.04228 33.534939,461.55397 33.534939,475.05828 C 33.534937,488.56259 22.568268,499.52924 9.0639844,499.52924 C 7.5621272,499.52924 6.1445144,499.4668 4.71717,499.20725 C 4.71717,499.20725 33.534939,520.71895 33.534939,534.22325 C 33.534937,547.72756 22.568268,558.69421 9.0639844,558.69421 C 7.5621272,558.69421 6.1445144,558.55127 4.71717,558.29173 C 4.71717,558.29173 33.534939,579.80342 33.534939,593.30773 C 33.534937,606.81204 22.568268,617.77869 9.0639844,617.77869 C 7.5621272,617.77869 6.1445144,617.63575 4.71717,617.3762 C 4.71717,617.3762 33.534939,638.8879 33.534939,652.39221 C 33.534937,665.89652 22.568268,676.86316 9.0639844,676.86316 C 7.5621272,676.86316 6.1445144,676.72023 4.71717,676.46068 C 4.71717,676.46068 32.984528,697.41222 33.534939,710.43023 L 43.758013,710.43023 C 44.308404,697.41222 55.076319,687.00573 68.228968,687.00573 C 81.381565,687.00573 92.06901,697.41222 92.619427,710.43023 L 102.84249,710.43023 C 103.39288,697.41222 114.1608,687.00573 127.31344,687.00573 C 140.46957,687.00573 151.23929,697.40733 151.7844,710.43023 L 161.92697,710.43023 C 162.47205,697.40733 173.24177,687.00573 186.39792,687.00573 C 199.55052,687.00573 210.31846,697.41222 210.86888,710.43023 L 221.09194,710.43023 C 221.64233,697.41222 232.32975,687.00573 245.4824,687.00573 C 258.635,687.00573 269.40294,697.41222 269.95335,710.43023 L 280.17642,710.43023 C 280.72683,697.41222 291.41423,687.00573 304.56688,687.00573 C 317.71947,687.00573 328.48741,697.41222 329.03783,710.43023 L 339.26089,710.43023 C 339.81128,697.41222 350.57919,687.00573 363.73184,687.00573 C 376.88446,687.00573 387.57188,697.41222 388.1223,710.43023 L 398.34536,710.43023 C 398.89578,697.41222 409.66369,687.00573 422.81632,687.00573 C 435.97244,687.00573 446.74216,697.40733 447.28727,710.43023 L 457.42984,710.43023 C 457.97495,697.40733 468.74464,687.00573 481.90079,687.00573 C 495.05342,687.00573 505.82133,697.41222 506.37175,710.43023 L 516.59481,710.43023 C 517.1452,697.41222 527.83265,687.00573 540.98527,687.00573 C 554.13789,687.00573 564.90581,697.41222 565.45622,710.43023 L 575.67929,710.43023 C 576.22968,697.41222 586.99762,687.00573 600.15024,687.00573 C 613.30287,687.00573 623.99029,697.41222 624.5407,710.43023 L 634.76376,710.43023 C 635.31418,697.41222 646.0821,687.00573 659.23472,687.00573 C 672.38732,687.00573 683.07476,697.41222 683.62518,710.43023 L 693.84824,710.43023 C 694.39866,697.41222 705.16657,687.00573 718.3192,687.00573 C 731.47532,687.00573 742.24504,697.40733 742.79015,710.43023 L 752.93272,710.43023 C 753.47783,697.40733 764.24752,687.00573 777.40367,687.00573 C 790.55625,687.00573 801.32421,697.41222 801.87463,710.43023 L 812.09769,710.43023 C 812.64813,697.41222 823.33553,687.00573 836.48815,687.00573 C 849.64077,687.00573 860.40869,697.41222 860.95911,710.43023 L 871.18217,710.43023 C 871.73256,697.41222 882.5005,687.00573 895.65312,687.00573 C 897.15497,687.00573 898.57259,687.14867 899.99994,687.40821 L 899.99994,676.46068 C 898.57259,676.72023 897.15497,676.86316 895.65312,676.86316 C 882.14879,676.86316 871.18217,665.89652 871.18217,652.39221 C 871.18214,638.8879 882.14881,627.92125 895.65312,627.92125 C 897.15497,627.92125 898.57259,628.06419 899.99994,628.32374 L 899.99994,617.3762 C 898.57259,617.63575 897.15497,617.77869 895.65312,617.77869 C 882.14879,617.77869 871.18217,606.81204 871.18217,593.30773 C 871.18214,579.80342 882.14881,568.83678 895.65312,568.83678 C 897.15652,568.83678 898.57122,568.9792 899.99994,569.23926 L 899.99994,558.29173 C 898.57259,558.55127 897.15497,558.69421 895.65312,558.69421 C 882.14879,558.69421 871.18217,547.72756 871.18217,534.22325 C 871.18214,520.71895 882.14881,509.7523 895.65312,509.7523 C 897.15497,509.7523 898.57259,509.81474 899.99994,510.07429 L 899.99994,499.20725 C 898.57259,499.4668 897.15497,499.52924 895.65312,499.52924 C 882.14879,499.52924 871.18217,488.56259 871.18217,475.05828 C 871.18214,461.55397 882.14881,450.58733 895.65312,450.58733 C 897.15497,450.58733 898.57259,450.73026 899.99994,450.98981 L 899.99994,440.04228 C 898.57122,440.30234 897.15654,440.44476 895.65312,440.44476 C 882.14879,440.44476 871.18217,429.47811 871.18217,415.9738 C 871.18214,402.46949 882.14881,391.50285 895.65312,391.50285 C 897.15497,391.50285 898.57259,391.64579 899.99994,391.90533 L 899.99994,380.9578 C 898.57259,381.21735 897.15497,381.36028 895.65312,381.36028 C 882.14879,381.36028 871.18217,370.39364 871.18217,356.88933 C 871.18214,343.38502 882.14881,332.41837 895.65312,332.41837 C 897.15497,332.41837 898.57259,332.56133 899.99994,332.82086 L 899.99994,321.87332 C 898.57259,322.13286 897.15497,322.2758 895.65312,322.2758 C 882.14879,322.2758 871.18217,311.30915 871.18217,297.80485 C 871.18214,284.30056 882.14881,273.33389 895.65312,273.33389 C 897.15652,273.33389 898.57122,273.47631 899.99994,273.73637 L 899.99994,262.78884 C 898.57259,263.04839 897.15497,263.19132 895.65312,263.19132 C 882.14879,263.19132 871.18217,252.22468 871.18217,238.72037 C 871.18214,225.21608 882.14881,214.24941 895.65312,214.24941 C 897.15497,214.24941 898.57259,214.31188 899.99994,214.5714 L 899.99994,203.70436 C 898.57259,203.96391 897.15497,204.02635 895.65312,204.02635 C 882.14879,204.02638 871.18217,193.0597 871.18217,179.5554 C 871.18214,166.05111 882.14881,155.08444 895.65312,155.08444 C 897.15497,155.08444 898.57259,155.2274 899.99994,155.48692 L 899.99994,144.53939 C 898.57122,144.79948 897.15654,144.94187 895.65312,144.94187 C 882.14879,144.94187 871.18217,133.97523 871.18217,120.47092 C 871.18214,106.96662 882.14881,95.999974 895.65312,95.999974 C 897.15497,95.999974 898.57259,96.142917 899.99994,96.402456 L 899.99994,85.454924 C 898.57259,85.714465 897.15497,85.857407 895.65312,85.857407 C 882.14879,85.857407 871.18217,74.890759 871.18217,61.386452 C 871.18214,47.882147 882.14881,36.915497 895.65312,36.915497 C 897.15497,36.915497 898.57259,37.058441 899.99994,37.31798 L 899.99994,26.370447 C 898.57259,26.629986 897.15497,26.77293 895.65312,26.77293 C 882.50045,26.77293 871.73258,16.36644 871.18217,3.3484302 L 860.95911,3.3484302 C 860.40866,16.366437 849.64075,26.77293 836.48815,26.77293 C 823.33553,26.77293 812.64811,16.36644 812.09769,3.3484302 L 801.87463,3.3484302 C 801.32424,16.366437 790.55627,26.77293 777.40367,26.77293 C 764.2475,26.77293 753.47783,16.371321 752.93272,3.3484302 L 742.79015,3.3484302 C 742.24504,16.371321 731.47532,26.77293 718.3192,26.77293 C 705.16655,26.77293 694.39866,16.36644 693.84824,3.3484302 L 683.62518,3.3484302 C 683.07476,16.366437 672.38732,26.77293 659.23472,26.77293 C 646.0821,26.77293 635.31418,16.36644 634.76376,3.3484302 L 624.5407,3.3484302 C 623.99029,16.366437 613.30284,26.77293 600.15024,26.77293 C 586.99762,26.77293 576.2297,16.36644 575.67929,3.3484302 L 565.45622,3.3484302 C 564.90581,16.366437 554.13787,26.77293 540.98527,26.77293 C 527.83265,26.77293 517.14523,16.36644 516.59481,3.3484302 L 506.37175,3.3484302 C 505.82136,16.366437 495.05339,26.77293 481.90079,26.77293 C 468.74467,26.77293 457.97495,16.371321 457.42984,3.3484302 L 447.28727,3.3484302 C 446.74216,16.371321 435.97244,26.77293 422.81632,26.77293 C 409.66367,26.77293 398.89578,16.36644 398.34536,3.3484302 L 388.1223,3.3484302 C 387.57188,16.366437 376.88446,26.77293 363.73184,26.77293 C 350.57919,26.77293 339.81128,16.36644 339.26089,3.3484302 L 329.03783,3.3484302 C 328.48741,16.366437 317.71947,26.77293 304.56688,26.77293 C 291.41423,26.77293 280.72681,16.36644 280.17642,3.3484302 L 269.95335,3.3484302 C 269.40291,16.366437 258.635,26.77293 245.4824,26.77293 C 232.32975,26.77293 221.64233,16.36644 221.09194,3.3484302 L 210.86888,3.3484302 C 210.31846,16.366437 199.55052,26.77293 186.39792,26.77293 C 173.24177,26.77293 162.47205,16.371321 161.92697,3.3484302 L 151.7844,3.3484302 C 151.23929,16.371321 140.46957,26.77293 127.31344,26.77293 C 114.1608,26.77293 103.39288,16.36644 102.84249,3.3484302 L 92.619427,3.3484302 C 92.06901,16.366437 81.381565,26.77293 68.228968,26.77293 C 55.076319,26.77293 44.308404,16.36644 43.758013,3.3484302 L 33.534939,3.3484302 z "
     style="color:#000000;fill:#cfcecc;fill-opacity:1;fill-rule:nonzero;stroke:none;stroke-width:0.1;stroke-linecap:butt;stroke-linejoin:miter;marker:none;marker-start:none;marker-mid:none;marker-end:none;stroke-miterlimit:4;stroke-dasharray:none;stroke-dashoffset:0;stroke-opacity:1;visibility:visible;display:inline;overflow:visible"
     id="path5263" />
  <path
     d="M 28.946635,0.1285625 C 28.886295,1.55567 28.678148,2.9605269 28.383159,4.3143838 C 28.188899,5.2059482 27.947342,6.0378422 27.65869,6.8902738 C 27.530401,7.2691331 27.402309,7.6469337 27.256208,8.0172256 C 27.146632,8.2949452 27.053562,8.549541 26.934221,8.8221913 C 26.695539,9.3674891 26.4057,9.9084054 26.129256,10.432123 C 25.852811,10.95584 25.556267,11.461157 25.243793,11.961557 C 25.087555,12.211756 24.925733,12.522478 24.760814,12.766523 C 24.376002,13.335965 23.98348,13.842485 23.553366,14.376454 C 23.123251,14.910423 22.65759,15.410146 22.184924,15.905889 C 21.172069,16.968199 20.072942,17.936841 18.884565,18.803765 C 18.171541,19.32392 17.479569,19.810688 16.711158,20.252703 C 16.540399,20.35093 16.320998,20.480499 16.147682,20.574689 C 15.714389,20.810164 15.308318,21.009111 14.859737,21.218662 C 14.680306,21.302484 14.478026,21.38059 14.296261,21.460152 C 13.38743,21.857957 12.441241,22.220119 11.478881,22.506607 C 10.901465,22.678499 10.302333,22.860081 9.7079569,22.989586 C 9.6088933,23.01117 9.5659738,23.049705 9.4664672,23.070083 C 9.2674565,23.110841 9.0232286,23.114692 8.8224947,23.150579 C 8.7221277,23.168523 8.6817918,23.214361 8.581005,23.231076 C 7.9762865,23.331363 7.3483721,23.417555 6.7295841,23.472566 C 6.2139269,23.518409 5.6439778,23.539763 5.1196528,23.553062 C 4.9099238,23.558381 4.6866843,23.553062 4.4756803,23.553062 C 3.6316616,23.553062 2.8023744,23.475639 1.9802869,23.392069 C 1.7747643,23.371176 1.6208008,23.337527 1.4168109,23.311573 C 1.0088286,23.259663 0.61083299,23.222354 0.2093625,23.150579 C 0.18574674,23.146357 0.15245851,23.154868 0.12886594,23.150579 L 0.12886594,34.098112 C 1.5562104,33.838573 2.9738231,33.695629 4.4756803,33.695629 C 17.979967,33.695629 28.946635,44.66228 28.946635,58.166584 C 28.946633,71.67089 17.979964,82.637539 4.4756803,82.637539 C 2.9738231,82.637539 1.5562104,82.494596 0.12886594,82.235056 L 0.12886594,93.182589 C 1.5562104,92.92305 2.9738231,92.780106 4.4756803,92.780106 C 17.979967,92.780106 28.946635,103.74676 28.946635,117.25106 C 28.946633,130.75537 17.979964,141.72202 4.4756803,141.72202 C 2.9722698,141.72202 1.5575962,141.5796 0.12886594,141.31953 L 0.12886594,152.26707 C 1.5562104,152.00753 2.9738231,151.86458 4.4756803,151.86458 C 17.979967,151.86458 28.946635,162.83123 28.946635,176.33554 C 28.946633,189.83984 17.979964,200.80649 4.4756803,200.80649 C 2.9738231,200.80649 1.5562104,200.74405 0.12886594,200.48451 L 0.12886594,211.35154 C 1.5562104,211.092 2.9738231,211.02956 4.4756803,211.02956 C 17.979967,211.02956 28.946635,221.99621 28.946635,235.50051 C 28.946633,249.00482 17.979964,259.97147 4.4756803,259.97147 C 2.9738231,259.97147 1.5562104,259.82852 0.12886594,259.56898 L 0.12886594,270.51652 C 1.5575962,270.25645 2.9722698,270.11403 4.4756803,270.11403 C 17.979967,270.11403 28.946635,281.08068 28.946635,294.58499 C 28.946633,308.0893 17.979964,319.05594 4.4756803,319.05594 C 2.9738231,319.05594 1.5562104,318.913 0.12886594,318.65346 L 0.12886594,329.60099 C 1.5562104,329.34145 2.9738231,329.19851 4.4756803,329.19851 C 17.979967,329.1985 28.946635,340.16516 28.946635,353.66947 C 28.946633,367.17377 17.979964,378.14042 4.4756803,378.14042 C 2.9738231,378.14042 1.5562104,377.99748 0.12886594,377.73794 L 0.12886594,388.68547 C 1.5562104,388.42592 2.9738231,388.28299 4.4756803,388.28299 C 17.979967,388.28299 28.946635,399.24963 28.946635,412.75394 C 28.946633,426.25825 17.979964,437.2249 4.4756803,437.2249 C 2.9722698,437.2249 1.5575962,437.08248 0.12886594,436.82241 L 0.12886594,447.76995 C 1.5562104,447.5104 2.9738231,447.36746 4.4756803,447.36746 C 17.979967,447.36746 28.946635,458.33411 28.946635,471.83842 C 28.946633,485.34273 17.979964,496.30937 4.4756803,496.30937 C 2.9738231,496.30937 1.5562104,496.24693 0.12886594,495.98739 L 0.12886594,506.85442 C 1.5562104,506.59488 2.9738231,506.53244 4.4756803,506.53244 C 17.979967,506.53241 28.946635,517.49908 28.946635,531.00339 C 28.946633,544.5077 17.979964,555.47435 4.4756803,555.47435 C 2.9738231,555.47435 1.5562104,555.33141 0.12886594,555.07186 L 0.12886594,566.0194 C 1.5575962,565.75934 2.9722698,565.61691 4.4756803,565.61691 C 17.979967,565.61694 28.946635,576.58356 28.946635,590.08787 C 28.946633,603.59218 17.979964,614.55882 4.4756803,614.55882 C 2.9738231,614.55882 1.5562104,614.41589 0.12886594,614.15634 L 0.12886594,625.10387 C 1.5562104,624.84433 2.9738231,624.70139 4.4756803,624.70139 C 17.979967,624.70142 28.946635,635.66804 28.946635,649.17235 C 28.946633,662.67666 17.979964,673.6433 4.4756803,673.6433 C 2.9738231,673.6433 1.5562104,673.50036 0.12886594,673.24082 L 0.12886594,684.18835 C 1.5562104,683.9288 2.9738231,683.78587 4.4756803,683.78587 C 17.628291,683.78587 28.396224,694.19236 28.946635,707.21037 L 39.169699,707.21037 C 39.720107,694.19236 50.48802,683.78587 63.640654,683.78587 C 76.793262,683.78587 87.480702,694.19236 88.031112,707.21037 L 98.254176,707.21037 C 98.804586,694.19236 109.5725,683.78587 122.72513,683.78587 C 135.88126,683.78587 146.65098,694.18747 147.19609,707.21037 L 157.33865,707.21037 C 157.88376,694.18747 168.65346,683.78587 181.80961,683.78587 C 194.96222,683.78587 205.73015,694.19236 206.28056,707.21037 L 216.50363,707.21037 C 217.05404,694.19236 227.74145,683.78587 240.89408,683.78587 C 254.0467,683.78587 264.81463,694.19236 265.36504,707.21037 L 275.5881,707.21037 C 276.13852,694.19236 286.82593,683.78587 299.97856,683.78587 C 313.13118,683.78587 323.89911,694.19236 324.44952,707.21037 L 334.67258,707.21037 C 335.22299,694.19236 345.99091,683.78587 359.14353,683.78587 C 372.29616,683.78587 382.98358,694.19236 383.53399,707.21037 L 393.75706,707.21037 C 394.30747,694.19236 405.07539,683.78587 418.22801,683.78587 C 431.38414,683.78587 442.15386,694.18747 442.69897,707.21037 L 452.84153,707.21037 C 453.38664,694.18747 464.15634,683.78587 477.31249,683.78587 C 490.46511,683.78587 501.23303,694.19236 501.78344,707.21037 L 512.00651,707.21037 C 512.5569,694.19236 523.24434,683.78587 536.39697,683.78587 C 549.54959,683.78587 560.3175,694.19236 560.86792,707.21037 L 571.09098,707.21037 C 571.64137,694.19236 582.40932,683.78587 595.56194,683.78587 C 608.71456,683.78587 619.40198,694.19236 619.9524,707.21037 L 630.17546,707.21037 C 630.72588,694.19236 641.49379,683.78587 654.64642,683.78587 C 667.79901,683.78587 678.48646,694.19236 679.03687,707.21037 L 689.25994,707.21037 C 689.81035,694.19236 700.57827,683.78587 713.73089,683.78587 C 726.88702,683.78587 737.65674,694.18747 738.20185,707.21037 L 748.34441,707.21037 C 748.88952,694.18747 759.65922,683.78587 772.81537,683.78587 C 785.96794,683.78587 796.73591,694.19236 797.28632,707.21037 L 807.50939,707.21037 C 808.05983,694.19236 818.74722,683.78587 831.89985,683.78587 C 845.05247,683.78587 855.82039,694.19236 856.3708,707.21037 L 866.59386,707.21037 C 867.14426,694.19236 877.9122,683.78587 891.06482,683.78587 C 892.56667,683.78587 893.98428,683.9288 895.41163,684.18835 L 895.41163,673.24082 C 893.98428,673.50036 892.56667,673.6433 891.06482,673.6433 C 877.56048,673.6433 866.59386,662.67666 866.59386,649.17235 C 866.59384,635.66804 877.56051,624.70139 891.06482,624.70139 C 892.56667,624.70139 893.98428,624.84433 895.41163,625.10387 L 895.41163,614.15634 C 893.98428,614.41589 892.56667,614.55882 891.06482,614.55882 C 877.56048,614.55882 866.59386,603.59218 866.59386,590.08787 C 866.59384,576.58356 877.56051,565.61691 891.06482,565.61691 C 892.56821,565.61691 893.98292,565.75934 895.41163,566.0194 L 895.41163,555.07186 C 893.98428,555.33141 892.56667,555.47435 891.06482,555.47435 C 877.56048,555.47435 866.59386,544.5077 866.59386,531.00339 C 866.59384,517.49908 877.56051,506.53244 891.06482,506.53244 C 892.56667,506.53244 893.98428,506.59488 895.41163,506.85442 L 895.41163,495.98739 C 893.98428,496.24693 892.56667,496.30937 891.06482,496.30937 C 877.56048,496.30937 866.59386,485.34273 866.59386,471.83842 C 866.59384,458.33411 877.56051,447.36746 891.06482,447.36746 C 892.56667,447.36746 893.98428,447.5104 895.41163,447.76995 L 895.41163,436.82241 C 893.98292,437.08248 892.56824,437.2249 891.06482,437.2249 C 877.56048,437.2249 866.59386,426.25825 866.59386,412.75394 C 866.59384,399.24963 877.56051,388.28299 891.06482,388.28299 C 892.56667,388.28299 893.98428,388.42592 895.41163,388.68547 L 895.41163,377.73794 C 893.98428,377.99748 892.56667,378.14042 891.06482,378.14042 C 877.56048,378.14042 866.59386,367.17377 866.59386,353.66947 C 866.59384,340.16516 877.56051,329.19851 891.06482,329.19851 C 892.56667,329.19851 893.98428,329.34145 895.41163,329.60099 L 895.41163,318.65346 C 893.98428,318.913 892.56667,319.05594 891.06482,319.05594 C 877.56048,319.05594 866.59386,308.08929 866.59386,294.58499 C 866.59384,281.08069 877.56051,270.11403 891.06482,270.11403 C 892.56821,270.11403 893.98292,270.25645 895.41163,270.51652 L 895.41163,259.56898 C 893.98428,259.82852 892.56667,259.97147 891.06482,259.97147 C 877.56048,259.97146 866.59386,249.00482 866.59386,235.50051 C 866.59384,221.9962 877.56051,211.02956 891.06482,211.02956 C 892.56667,211.02956 893.98428,211.092 895.41163,211.35154 L 895.41163,200.48451 C 893.98428,200.74405 892.56667,200.80649 891.06482,200.80649 C 877.56048,200.8065 866.59386,189.83984 866.59386,176.33554 C 866.59384,162.83123 877.56051,151.86458 891.06482,151.86458 C 892.56667,151.86458 893.98428,152.00753 895.41163,152.26707 L 895.41163,141.31953 C 893.98292,141.5796 892.56824,141.72202 891.06482,141.72202 C 877.56048,141.72201 866.59386,130.75537 866.59386,117.25106 C 866.59384,103.74675 877.56051,92.780106 891.06482,92.780106 C 892.56667,92.780106 893.98428,92.92305 895.41163,93.182589 L 895.41163,82.235056 C 893.98428,82.494596 892.56667,82.637539 891.06482,82.637539 C 877.56048,82.637539 866.59386,71.670891 866.59386,58.166584 C 866.59384,44.66228 877.56051,33.695629 891.06482,33.695629 C 892.56667,33.695629 893.98428,33.838573 895.41163,34.098112 L 895.41163,23.150579 C 893.98428,23.410118 892.56667,23.553062 891.06482,23.553062 C 877.91215,23.553062 867.14428,13.146572 866.59386,0.1285625 L 856.3708,0.1285625 C 855.82036,13.14657 845.05244,23.553062 831.89985,23.553062 C 818.74722,23.553062 808.0598,13.146572 807.50939,0.1285625 L 797.28632,0.1285625 C 796.73593,13.14657 785.96797,23.553062 772.81537,23.553062 C 759.65919,23.553062 748.88952,13.151454 748.34441,0.1285625 L 738.20185,0.1285625 C 737.65674,13.151454 726.88702,23.553062 713.73089,23.553062 C 700.57824,23.553062 689.81035,13.146572 689.25994,0.1285625 L 679.03687,0.1285625 C 678.48646,13.14657 667.79901,23.553062 654.64642,23.553062 C 641.49379,23.553062 630.72588,13.146572 630.17546,0.1285625 L 619.9524,0.1285625 C 619.40198,13.14657 608.71454,23.553062 595.56194,23.553062 C 582.40932,23.553062 571.6414,13.146572 571.09098,0.1285625 L 560.86792,0.1285625 C 560.3175,13.14657 549.54956,23.553062 536.39697,23.553062 C 523.24434,23.553062 512.55692,13.146572 512.00651,0.1285625 L 501.78344,0.1285625 C 501.23305,13.14657 490.46509,23.553062 477.31249,23.553062 C 464.15636,23.553062 453.38664,13.151454 452.84153,0.1285625 L 442.69897,0.1285625 C 442.15386,13.151454 431.38414,23.553062 418.22801,23.553062 C 405.07536,23.553062 394.30747,13.146572 393.75706,0.1285625 L 383.53399,0.1285625 C 382.98358,13.14657 372.29616,23.553062 359.14353,23.553062 C 345.9909,23.553062 335.22299,13.146572 334.67258,0.1285625 L 324.44952,0.1285625 C 323.89911,13.14657 313.13117,23.553062 299.97856,23.553062 C 286.82594,23.553062 276.13851,13.146572 275.5881,0.1285625 L 265.36504,0.1285625 C 264.81462,13.14657 254.04669,23.553062 240.89408,23.553062 C 227.74145,23.553062 217.05404,13.146572 216.50363,0.1285625 L 206.28056,0.1285625 C 205.73015,13.14657 194.96222,23.553062 181.80961,23.553062 C 168.65346,23.553062 157.88376,13.151454 157.33865,0.1285625 L 147.19609,0.1285625 C 146.65098,13.151454 135.88126,23.553062 122.72513,23.553062 C 109.5725,23.553062 98.804586,13.146572 98.254176,0.1285625 L 88.031112,0.1285625 C 87.480702,13.14657 76.793263,23.553062 63.640654,23.553062 C 50.488018,23.553062 39.72011,13.146572 39.169699,0.1285625 L 28.946635,0.1285625 z "
     style="color:#000000;fill:#ffffff;fill-opacity:1;fill-rule:nonzero;stroke:#000000;stroke-width:0.09999999;stroke-linecap:butt;stroke-linejoin:miter;marker:none;marker-start:none;marker-mid:none;marker-end:none;stroke-miterlimit:4;stroke-dasharray:none;stroke-dashoffset:0;stroke-opacity:1;visibility:visible;display:inline;overflow:visible"
     id="rect1371" />
  <rect
     width="793.88263"
     height="600.52112"
     x="48.147625"
     y="51.496971"
     style="color:#000000;fill:none;fill-opacity:1;fill-rule:nonzero;stroke:url(#linearGradient1332);stroke-width:7.72767019;stroke-linecap:butt;stroke-linejoin:miter;marker:none;marker-start:none;marker-mid:none;marker-end:none;stroke-miterlimit:4;stroke-dasharray:none;stroke-dashoffset:0;stroke-opacity:1;visibility:visible;display:inline;overflow:visible"
     id="rect7113" />
  <path
     d="M 295.18479,476.49911 C 264.10779,484.51662 219.49379,578.71831 217.53918,594.05583 C 224.72386,595.852 375.38114,419.03227 296.23696,582.9015 C 353.62272,534.33941 411.27722,446.97179 367.09324,557.49364 C 356.65143,583.61281 407.77398,583.62942 457.67874,529.2044 C 444.59417,537.59209 378.49407,577.26041 414.8819,494.7989 C 433.99459,451.48606 370.74206,494.2981 353.09482,510.84258 C 356.78519,494.08935 370.03395,464.3381 348.58302,472.57768 C 327.13211,480.81726 304.0037,497.58166 264.4057,534.74117 C 287.14558,498.11547 288.32634,494.2803 295.18479,476.49911 z M 730.42824,569.23566 C 767.42938,564.15497 821.89668,507.84115 746.80356,504.32699 C 664.28776,500.48387 766.56143,471.27747 766.56143,471.27747 C 722.01641,468.4036 641.03079,518.18088 707.10819,510.61358 C 773.6406,502.93246 774.41303,563.23275 705.67126,563.15159 C 696.05103,563.14023 699.02544,553.54205 699.02544,553.54205 L 670.9834,565.93563 C 697.52815,573.55615 709.44463,572.11695 730.42824,569.23566 z M 180.65078,466.60746 C 141.3118,488.19695 73.235729,575.53721 105.54266,596.30888 C 135.73253,615.7194 266.99143,522.32373 289.46714,479.72091 C 100.49078,628.53216 125.63668,534.19366 158.97613,501.02583 C 181.63628,473.41675 254.27275,453.78105 273.5327,414.71868 C 173.8665,468.23079 167.72557,422.40686 250.76475,369.12674 C 266.03315,359.34869 366.95586,313.02865 289.72915,378.04339 C 335.40966,356.77826 374.11009,323.9117 344.26784,317.47021 C 305.48169,309.09818 244.48125,356.52011 213.28665,381.9759 C 194.93937,396.94787 119.97735,458.15597 180.65078,466.60746 z M 484.86592,551.30401 C 384.0802,631.23821 433.13074,507.6384 553.07847,469.91869 C 461.4475,532.18581 449.42399,559.19948 484.86592,551.30401 z M 595.07782,539.50989 C 491.59785,623.21604 476.55813,526.97965 564.15454,483.19655 C 519.94245,552.28911 562.33014,541.29838 595.07782,539.50989 z M 680.23388,544.67187 C 567.41384,627.30032 549.14099,499.09209 700.68106,470.75606 C 574.56363,545.23712 654.67088,556.5189 680.23388,544.67187 z "
     style="fill:#000000;fill-opacity:1;fill-rule:evenodd;stroke:none;stroke-width:1px;stroke-linecap:butt;stroke-linejoin:miter;stroke-opacity:1"
     id="path2258" />
  <path
     d="M 293.08121,465.17996 C 262.00421,473.19747 217.39021,567.39916 215.4356,582.73668 C 222.62028,584.53284 373.27756,407.71312 294.13338,571.58235 C 351.51914,523.02026 409.17364,435.65263 364.98966,546.17449 C 354.54785,572.29366 405.6704,572.31027 455.57516,517.88524 C 442.49059,526.27293 376.39049,565.94125 412.77832,483.47975 C 431.89101,440.16691 368.63848,482.97895 350.99124,499.52342 C 354.68161,482.7702 367.93037,453.01895 346.47944,461.25853 C 325.02853,469.4981 301.90012,486.26251 262.30212,523.42202 C 285.042,486.79631 286.22276,482.96115 293.08121,465.17996 z M 728.32466,557.91651 C 765.3258,552.83582 819.7931,496.522 744.69998,493.00784 C 662.18418,489.16471 764.45785,459.95832 764.45785,459.95832 C 719.91283,457.08445 638.92721,506.86172 705.00461,499.29443 C 771.53702,491.6133 772.30945,551.9136 703.56768,551.83243 C 693.94745,551.82108 696.92186,542.2229 696.92186,542.2229 L 668.87982,554.61648 C 695.42457,562.237 707.34105,560.79779 728.32466,557.91651 z M 178.5472,455.28831 C 139.20822,476.8778 71.132149,564.21806 103.43908,584.98973 C 133.62895,604.40024 264.88785,511.00458 287.36356,468.40175 C 98.387201,617.213 123.5331,522.87451 156.87255,489.70668 C 179.5327,462.0976 252.16917,442.4619 271.42912,403.39953 C 171.76292,456.91164 165.62199,411.08771 248.66117,357.80759 C 263.92957,348.02954 364.85228,301.7095 287.62557,366.72424 C 333.30608,345.45911 372.00651,312.59253 342.16426,306.15105 C 303.37811,297.77902 242.37767,345.20095 211.18307,370.65675 C 192.83579,385.62872 117.87377,446.83681 178.5472,455.28831 z M 482.76234,539.98486 C 381.97662,619.91905 431.02716,496.31925 550.97489,458.59954 C 459.34392,520.86666 447.32041,547.88032 482.76234,539.98486 z M 592.97424,528.19074 C 489.49427,611.89688 474.45455,515.6605 562.05096,471.8774 C 517.83887,540.96996 560.22656,529.97923 592.97424,528.19074 z M 678.1303,533.35272 C 565.31026,615.98116 547.03741,487.77294 698.57748,459.43691 C 572.46005,533.91797 652.5673,545.19975 678.1303,533.35272 z "
     style="fill:#2076c1;fill-opacity:1;fill-rule:evenodd;stroke:none;stroke-width:1px;stroke-linecap:butt;stroke-linejoin:miter;stroke-opacity:1"
     id="path2173" />
  <path
     d="M 529.95931,181.3351 C 525.85649,184.0013 510.11105,217.34763 509.8633,221.41675 C 540.42253,271.85451 596.93158,186.7596 607.16886,147.86877 C 607.16886,147.86877 580.4245,194.74543 556.21611,195.64167 C 527.83902,196.69225 534.06956,178.66407 529.95931,181.3351 z M 132.99366,124.11451 L 115.83385,167.2008 C 115.83385,167.2008 126.34474,192.27026 143.34606,193.86754 C 182.31072,197.52831 225.67603,123.75527 237.88998,124.11451 C 250.10395,124.47374 274.87831,143.85433 288.0467,170.9021 C 305.38154,136.99415 326.48084,121.93074 361.46651,147.06058 C 381.82124,161.68121 424.37219,219.51576 449.83808,222.36501 C 477.41201,225.45012 501.10442,199.21154 512.52437,151.23668 C 496.71807,171.71302 490.28265,180.90698 474.44556,181.95119 C 458.10043,183.02889 459.53734,186.26199 402.41914,126.98838 C 345.30094,67.714768 318.35841,96.094256 301.4744,121.24064 C 297.70245,117.10944 278.59651,86.144944 255.57215,86.394937 C 239.25783,86.572074 212.07971,125.18392 195.82582,139.20276 C 178.94042,153.76629 168.81612,156.33541 162.67559,156.40573 C 153.16033,156.51938 141.69373,151.65541 132.99366,124.11451 z M 272.43544,170.11374 C 229.42305,222.44927 227.70001,223.69607 205.09073,260.89924 C 182.48145,298.10242 176.48045,322.83416 187.09139,332.05903 C 197.78285,341.35392 216.83218,341.86691 240.16866,324.61815 C 272.6437,299.73118 315.99114,264.21503 327.89088,233.97848 C 330.98383,226.11944 274.66959,279.4282 252.07069,292.64787 C 238.51216,300.57922 220.28622,302.66523 210.49575,293.19265 C 190.51632,273.86191 279.95256,178.24878 272.43544,170.11374 z M 336.32009,250.20565 C 336.23027,245.98465 358.05374,213.7434 361.82569,212.48608 C 416.5522,249.29063 388.0498,343.96575 370.08809,352.22812 C 370.08809,352.22812 373.23137,311.63467 365.05879,286.12905 C 356.88622,260.62343 336.41007,254.43428 336.32009,250.20565 z M 621.24903,167.98465 C 616.0827,146.00214 639.56176,86.574562 669.50962,86.574562 C 744.28261,86.574562 707.97137,205.80773 693.39871,249.84642 C 657.83455,341.98994 635.30002,479.75709 633.76585,491.61089 C 631.89308,506.08088 609.5521,544.84975 620.83344,480.83389 C 632.11473,416.81802 652.38369,342.11451 676.73574,254.94609 C 689.5078,209.22818 705.04165,127.69145 661.86268,127.57082 C 639.83534,127.28919 641.0847,142.83302 621.24903,167.98465 z M 407.19072,561.34673 C 394.33837,554.92055 469.21632,379.27409 479.58552,438.40259 C 484.23417,464.91066 527.08665,390.64742 527.08665,390.64742 C 527.08665,390.64742 560.74388,329.42938 562.395,334.76374 C 570.23845,360.10414 471.12933,524.20152 464.09048,482.85552 C 456.97654,441.06848 408.71482,562.10878 407.19072,561.34673 z M 232.35571,623.692 C 232.35571,623.692 231.72067,586.09748 295.35188,506.3362 C 346.64249,442.04374 406.10318,349.35384 406.10318,349.35384 C 406.10318,349.35384 396.35426,398.24707 353.02993,454.06784 C 302.46017,519.22389 232.35571,623.692 232.35571,623.692 z "
     style="fill:#000000;fill-opacity:1;fill-rule:evenodd;stroke:none;stroke-width:0.125;stroke-linecap:butt;stroke-linejoin:miter;stroke-miterlimit:4;stroke-opacity:1"
     id="path2242" />
  <path
     d="M 542.15211,170.15816 C 538.04928,172.82436 522.30384,206.1707 522.0561,210.23983 C 552.61532,260.67759 609.1244,175.58267 619.36165,136.69183 C 619.36165,136.69183 592.6173,183.5685 568.4089,184.46475 C 540.03184,185.51533 546.26235,167.48714 542.15211,170.15816 z M 145.18647,112.93757 L 128.02666,156.02386 C 128.02666,156.02386 138.53755,181.09333 155.53887,182.69061 C 194.50353,186.35139 237.86884,112.57834 250.08279,112.93757 C 262.29676,113.2968 287.07112,132.67739 300.23951,159.72516 C 317.57435,125.81723 338.67365,110.75381 373.6593,135.88365 C 394.01406,150.50427 436.56499,208.33882 462.03088,211.18809 C 489.6048,214.27318 513.29724,188.0346 524.7172,140.05976 C 508.91089,160.53608 502.47547,169.73004 486.63838,170.77426 C 470.29325,171.85196 471.73016,175.08506 414.61196,115.81146 C 357.49377,56.537841 330.55122,84.917323 313.66721,110.0637 C 309.89526,105.93251 290.78932,74.967999 267.76496,75.218015 C 251.45064,75.395133 224.27252,114.00698 208.01863,128.02582 C 191.13324,142.58936 181.00893,145.15848 174.8684,145.2288 C 165.35314,145.34245 153.88654,140.47847 145.18647,112.93757 z M 284.62825,158.93681 C 241.61586,211.27232 239.89282,212.51913 217.28354,249.72233 C 194.67426,286.92549 188.67326,311.65723 199.2842,320.88211 C 209.97566,330.17701 229.02499,330.69 252.36147,313.44121 C 284.83651,288.55425 328.18395,253.03811 340.08369,222.80154 C 343.17664,214.9425 286.8624,268.25127 264.2635,281.47094 C 250.70497,289.40229 232.47903,291.4883 222.68856,282.01572 C 202.70913,262.68498 292.14537,167.07186 284.62825,158.93681 z M 348.5129,239.02872 C 348.42308,234.80772 370.24656,202.56646 374.01851,201.30914 C 428.74502,238.11369 400.24262,332.78883 382.28091,341.05121 C 382.28091,341.05121 385.42419,300.45775 377.25161,274.95211 C 369.07904,249.4465 348.60288,243.25736 348.5129,239.02872 z M 633.44183,156.80771 C 628.2755,134.82522 651.75458,75.397632 681.70244,75.397632 C 756.4754,75.397632 720.16419,194.63081 705.5915,238.66949 C 670.02735,330.81302 647.49285,468.58017 645.95867,480.43398 C 644.0859,494.90396 621.74492,533.67283 633.02623,469.65697 C 644.30755,405.64111 664.57648,330.93759 688.92853,243.76916 C 701.70062,198.05126 717.23447,116.51453 674.0555,116.3939 C 652.02816,116.11225 653.27752,131.6561 633.44183,156.80771 z M 415.39068,553.07511 C 402.53833,546.64893 477.41628,371.00247 487.78548,430.13097 C 492.43413,456.63904 535.28661,382.3758 535.28661,382.3758 C 535.28661,382.3758 568.94384,321.15776 570.59496,326.49212 C 578.43841,351.83252 479.32929,515.9299 472.29044,474.5839 C 465.1765,432.79686 416.91478,553.83716 415.39068,553.07511 z M 240.62713,626.74 C 240.62713,626.74 239.9921,589.14548 303.6233,509.3842 C 354.91393,445.09174 414.37462,352.40184 414.37462,352.40184 C 414.37462,352.40184 404.6257,401.29507 361.30137,457.11584 C 310.7316,522.27189 240.62713,626.74 240.62713,626.74 z "
     style="fill:#c64e3b;fill-opacity:1;fill-rule:evenodd;stroke:none;stroke-width:0.125;stroke-linecap:butt;stroke-linejoin:miter;stroke-miterlimit:4;stroke-opacity:1"
     id="path9706" />
  <path
     d="M 313.17294,632.51566 L 313.18106,618.59833 L 303.04243,618.59244 L 303.0437,616.41037 L 315.81678,616.41782 L 315.80664,633.79451 C 313.90784,634.73366 311.82294,635.43319 309.55193,635.89309 C 307.28085,636.37077 304.85027,636.6266 302.26018,636.66055 C 296.51228,636.6572 292.02502,634.83618 288.79841,631.19753 C 285.55402,627.57663 283.93372,622.52852 283.9375,616.05328 C 283.94129,609.56031 285.56748,604.49639 288.8161,600.86145 C 292.04695,597.24434 296.53632,595.43745 302.28422,595.44075 C 304.66141,595.44219 306.90543,595.68301 309.01628,596.16318 C 311.1448,596.67893 313.0958,597.43402 314.86929,598.4285 L 314.86779,601.00972 C 313.07655,600.01525 311.16103,599.26015 309.12122,598.74446 C 307.09908,598.24659 304.97038,597.99698 302.73511,597.99565 C 297.39524,597.99255 293.38503,599.50705 290.70448,602.53903 C 288.02391,605.55336 286.68188,610.05864 286.67839,616.05488 C 286.67484,622.13985 288.01157,626.71762 290.68858,629.78828 C 293.36557,632.87667 297.37399,634.42241 302.71386,634.42553 C 304.8959,634.42682 306.84744,634.27716 308.56846,633.97658 C 310.27169,633.65825 311.80652,633.17125 313.17294,632.51566 M 328.25573,596.17439 L 332.1941,596.17668 L 351.43897,632.51139 L 351.46016,596.18794 L 354.12122,596.18948 L 354.09805,635.91908 L 350.31934,635.91687 L 330.96817,599.34266 L 330.94684,635.90559 L 328.23256,635.90399 L 328.25573,596.17439 M 368.51753,596.19788 L 371.17858,596.19943 L 371.16452,620.33523 C 371.16158,625.37352 372.04645,629.00194 373.81923,631.22053 C 375.57421,633.42135 378.42093,634.52292 382.35931,634.52522 C 386.27992,634.52751 389.11899,633.42925 390.87659,631.23047 C 392.6519,629.01397 393.54107,625.38658 393.54403,620.34829 L 393.55809,596.21249 L 396.21914,596.21403 L 396.20469,621.01509 C 396.20163,626.1953 395.02849,630.10638 392.68525,632.74834 C 390.35969,635.39028 386.91727,636.70993 382.35802,636.70728 C 377.781,636.7046 374.33127,635.38093 372.00882,632.73629 C 369.66862,630.0916 368.50004,626.17915 368.50308,620.99894 L 368.51753,596.19788 M 429.00211,598.44184 L 428.99147,616.69671 L 437.16091,616.70148 C 440.12354,616.70323 442.4125,615.91511 444.02784,614.33712 C 445.66083,612.7592 446.47818,610.4978 446.47994,607.55287 C 446.48161,604.66122 445.66686,602.41657 444.03572,600.81895 C 442.42221,599.23916 440.13418,598.44838 437.17154,598.44661 L 429.00211,598.44184 M 426.34232,596.23162 L 437.17283,596.23794 C 441.12891,596.24028 444.1265,597.2 446.16555,599.11711 C 448.1868,601.03429 449.19637,603.84673 449.19423,607.55444 C 449.19204,611.27995 448.17917,614.10008 446.15571,616.01482 C 444.11439,617.92963 441.1157,618.88586 437.15962,618.88354 L 428.99018,618.87877 L 428.98024,635.96277 L 426.31917,635.96122 L 426.34232,596.23162 M 467.31729,605.46279 C 471.11371,605.46503 474.11099,606.88599 476.30915,609.72571 C 478.52504,612.58322 479.63159,616.37148 479.62886,621.09041 C 479.626,625.96901 478.51497,629.81801 476.29581,632.63742 C 474.0943,635.47461 471.09537,636.8921 467.29895,636.88988 C 463.467,636.88764 460.44309,635.47551 458.2272,632.6535 C 456.02904,629.83151 454.93138,625.97234 454.93424,621.07598 C 454.93702,616.30383 456.048,612.50803 458.26721,609.68859 C 460.48639,606.8692 463.50309,605.46057 467.31729,605.46279 M 467.34263,607.61824 C 464.30901,607.61649 461.91333,608.83033 460.15562,611.2597 C 458.38019,613.67138 457.49127,616.93511 457.48888,621.05084 C 457.4864,625.27308 458.36262,628.59104 460.1175,631.00475 C 461.87237,633.43623 464.2755,634.65283 467.32687,634.6546 C 470.36044,634.65638 472.7561,633.44257 474.51384,631.01315 C 476.28929,628.56602 477.17823,625.24908 477.18071,621.06233 C 477.18305,616.99981 476.29792,613.74394 474.52535,611.29471 C 472.77045,608.84553 470.37621,607.62005 467.34263,607.61824 M 506.99272,607.08256 L 506.99115,609.77022 C 505.27084,608.81127 504.1979,608.27844 503.77219,608.17172 C 502.53053,607.86944 500.98721,607.69114 499.14225,607.63679 C 496.33927,607.63519 494.13913,608.19274 492.54185,609.30942 C 491.31722,610.23123 490.70426,611.80976 490.70297,614.04504 C 490.70209,615.55299 491.27796,616.73306 492.43059,617.58524 C 493.65414,618.50849 495.40116,619.21912 497.67163,619.71715 L 499.34789,620.09068 C 502.16823,620.71327 504.30542,621.59265 505.75948,622.72885 C 507.44406,624.02491 508.33009,625.71078 508.4176,627.78646 C 508.41595,630.60716 507.58084,632.81537 505.91234,634.411 C 504.13737,635.98886 501.28071,636.77665 497.34235,636.77436 C 495.14254,636.77307 493.47504,636.6213 492.33982,636.31907 C 490.97403,635.92797 489.53735,635.45702 488.02974,634.90619 L 488.03154,631.84596 C 490.19511,633.08906 491.59618,633.79949 492.23475,633.97725 C 493.99078,634.43954 495.7292,634.67117 497.45002,634.67217 C 500.32394,634.67385 502.44426,634.08077 503.81098,632.89298 C 505.19542,631.68746 505.88823,630.10896 505.88936,628.15749 C 505.89031,626.5254 505.42974,625.33653 504.5077,624.59089 C 503.17777,623.5257 501.05833,622.65518 498.1493,621.97934 L 496.44646,621.57918 C 493.94537,620.99232 492.03877,620.16628 490.72662,619.10107 C 489.07753,617.76957 488.25356,616.15474 488.25466,614.25649 C 488.25649,611.1342 489.25125,608.89063 491.23896,607.52574 C 493.22667,606.16093 495.6664,605.47935 498.55809,605.481 C 501.02399,605.48247 502.72699,605.61652 503.66709,605.88315 C 504.80228,606.20315 505.91079,606.60298 506.99272,607.08256 M 531.20887,606.21853 L 531.20765,608.29416 L 531.20887,606.21853 M 521.12838,597.7505 L 521.12346,606.21266 L 531.20887,606.21853 L 531.20765,608.29416 L 521.12225,608.28828 L 521.11179,626.19721 C 521.11045,628.46799 521.40225,630.05592 521.98715,630.96101 C 523.19233,632.94864 524.94806,633.94312 527.25431,633.94446 L 531.19269,633.94675 L 531.19148,636.02238 L 527.38617,636.02016 C 524.95571,636.01874 522.88938,635.30793 521.18713,633.88771 C 519.48488,632.46747 518.63484,629.9035 518.637,626.19577 L 518.64746,608.28684 L 515.08163,608.28475 L 515.08284,606.20913 L 518.64867,606.21121 L 518.65359,597.74906 L 521.12838,597.7505 M 704.26478,637.63568 L 716.23113,637.63568 L 716.23113,589.48024 L 714.41804,589.48024 L 701.40013,592.09109 L 701.40013,589.08137 L 714.34553,586.47055 L 719.85729,586.47055 L 719.85729,637.63568 L 731.82363,637.63568 L 731.82363,640.60913 L 704.26478,640.60913 L 704.26478,637.63568 M 763.91515,588.46493 C 759.49122,588.46498 756.20351,590.61649 754.05199,594.91949 C 751.90046,599.24676 750.82471,605.47165 750.82471,613.59423 C 750.82471,621.71686 751.90046,627.94176 754.05199,632.26897 C 756.20351,636.57202 759.49122,638.72353 763.91515,638.72353 C 768.48409,638.72353 771.84434,636.57202 773.9959,632.26897 C 776.14739,627.94176 777.22313,621.71686 777.22318,613.59423 C 777.22313,605.47165 776.14739,599.24676 773.9959,594.91949 C 771.84434,590.61649 768.48409,588.46498 763.91515,588.46493 M 763.91515,585.49148 C 769.13679,585.49153 773.27063,587.61888 776.31665,591.87353 C 779.36256,596.15244 780.88556,603.39268 780.88561,613.59423 C 780.88556,623.79586 779.36256,631.03607 776.31665,635.31493 C 773.27063,639.56963 769.13679,641.69698 763.91515,641.69698 C 758.83851,641.69698 754.77721,639.56963 751.73125,635.31493 C 748.68528,631.03607 747.16229,623.79586 747.16229,613.59423 C 747.16229,603.39268 748.68528,596.15244 751.73125,591.87353 C 754.77721,587.61888 758.83851,585.49153 763.91515,585.49148 M 790.45354,601.82854 C 790.45354,595.9294 791.7859,591.74855 794.45063,589.28594 C 797.11534,586.84176 800.70814,585.61968 805.229,585.61963 C 806.69917,585.61968 808.26126,585.831 809.91524,586.25366 C 811.5692,586.65799 812.97507,587.19095 814.13288,587.85249 L 814.13288,590.55398 C 812.60751,589.61676 811.34865,588.98273 810.35631,588.65191 C 808.64718,588.11899 807.0116,587.85251 805.44953,587.85249 C 801.00217,587.85251 797.81369,588.99193 795.88406,591.27069 C 793.95444,593.54953 792.98961,597.06879 792.98961,601.82854 C 792.98961,606.62506 793.95444,610.16271 795.88406,612.44149 C 797.81369,614.72031 801.00217,615.8597 805.44953,615.8597 C 806.91969,615.8597 808.37151,615.65757 809.80497,615.25326 C 811.25677,614.86734 812.69939,614.27926 814.13288,613.48903 L 814.13288,616.05269 C 812.71779,616.71425 811.25677,617.21045 809.74985,617.54124 C 808.22451,617.87204 806.71756,618.03743 805.229,618.03743 C 800.70814,618.03743 797.11534,616.81533 794.45063,614.37114 C 791.7859,611.90857 790.45354,607.72769 790.45354,601.82854"
     style="font-size:21.15714264px;font-style:normal;font-variant:normal;font-weight:normal;font-stretch:normal;text-align:start;line-height:100%;writing-mode:lr-tb;text-anchor:start;fill:#000000;fill-opacity:1;stroke:none;stroke-width:1px;stroke-linecap:butt;stroke-linejoin:miter;stroke-opacity:1;font-family:DejaVu Sans"
     id="text11488" />
</svg>
