<?xml version="1.0" encoding="UTF-8" standalone="no"?>
<!-- Created with Inkscape (http://www.inkscape.org/) -->
<svg
   xmlns:svg="http://www.w3.org/2000/svg"
   xmlns="http://www.w3.org/2000/svg"
   version="1.0"
   width="900"
   height="424.73001"
   id="svg2">
  <defs
     id="defs5" />
  <path
     d="M 35.12792,3.8663102 C 35.129985,3.8786202 35.125881,3.893577 35.12792,3.905887 C 35.152426,4.05367 35.185291,4.1925498 35.207074,4.3412319 C 35.257897,4.6881654 35.290065,5.0186477 35.325804,5.3702291 C 35.361544,5.7218105 35.384631,6.0828903 35.404958,6.438803 C 35.431085,6.8963996 35.444535,7.3598852 35.444535,7.8239914 C 35.444535,8.494353 35.41956,9.1463636 35.365381,9.8028321 C 35.352881,9.9543258 35.341116,10.127071 35.325804,10.277754 C 35.310493,10.428437 35.304338,10.563251 35.286228,10.713099 C 35.274158,10.812997 35.259949,10.930195 35.246651,11.029713 C 35.213406,11.278496 35.168764,11.535359 35.12792,11.781673 C 35.103414,11.929456 35.07597,12.070159 35.048767,12.217018 C 34.976211,12.608644 34.902719,12.980046 34.811306,13.364745 C 34.777023,13.509007 34.729455,13.656854 34.692575,13.80009 C 34.680278,13.847836 34.665575,13.910766 34.652999,13.958397 C 34.439119,14.76812 34.195377,15.559251 33.901039,16.333006 C 33.883727,16.378523 33.879041,16.406359 33.861462,16.451737 C 33.826293,16.542504 33.778978,16.638552 33.742732,16.728774 C 33.706486,16.818997 33.661311,16.916134 33.624002,17.005812 C 33.605347,17.050645 33.603346,17.079836 33.584425,17.124542 C 33.546596,17.213942 33.504587,17.312738 33.465694,17.40158 C 33.368481,17.623691 33.25279,17.855859 33.14908,18.074386 C 33.04537,18.292913 32.942546,18.492786 32.832465,18.707615 C 32.656326,19.051344 32.470436,19.402761 32.27839,19.736612 C 31.798288,20.571233 31.269327,21.383413 30.695317,22.150798 C 30.150006,22.879809 29.577098,23.547359 28.953938,24.208792 C 28.789944,24.382854 28.608524,24.554206 28.439439,24.72329 C 28.270354,24.892375 28.099002,25.073795 27.924941,25.237789 C 27.750879,25.401783 27.589354,25.553935 27.410442,25.712711 C 27.231529,25.871487 27.040003,26.034201 26.856367,26.187632 C 26.709457,26.310378 26.570894,26.424574 26.421022,26.543824 C 26.308623,26.633261 26.178862,26.733413 26.06483,26.820861 C 25.988805,26.879156 25.943681,26.921773 25.866946,26.979169 C 25.253043,27.438374 24.585126,27.885598 23.927682,28.285203 C 23.598961,28.485013 23.277116,28.655123 22.938262,28.839279 C 22.768835,28.93135 22.595622,29.028247 22.423764,29.116317 C 22.208934,29.226397 22.009062,29.329221 21.790535,29.432931 C 21.659418,29.495165 21.527175,29.570912 21.394766,29.630815 C 21.306494,29.670747 21.206571,29.710653 21.117729,29.749546 C 21.028887,29.788438 20.93009,29.830447 20.840691,29.868276 C 20.706586,29.925026 20.580257,29.972227 20.444923,30.026583 C 20.3547,30.062829 20.258652,30.110144 20.167885,30.145314 C 20.077118,30.180483 19.982147,30.190374 19.890848,30.224467 C 19.616963,30.326734 19.338254,30.448681 19.059735,30.541082 C 18.874059,30.602682 18.693323,30.642246 18.505659,30.699389 C 18.458737,30.713675 18.433965,30.724959 18.386929,30.738966 C 17.96359,30.864991 17.513681,30.992321 17.080894,31.095157 C 16.792369,31.163711 16.502654,31.23505 16.210204,31.293041 C 15.771516,31.380022 15.351102,31.467901 14.904169,31.530502 C 14.705525,31.558326 14.510681,31.586746 14.310517,31.609656 C 14.160391,31.626829 13.986544,31.634846 13.835595,31.649233 C 13.483368,31.682794 13.123517,31.710301 12.767021,31.728386 C 12.716097,31.73097 12.659727,31.726119 12.608714,31.728386 C 12.557701,31.730653 12.541073,31.726436 12.489984,31.728386 C 12.387793,31.732274 12.275876,31.72579 12.173369,31.728386 C 12.122116,31.729691 12.066391,31.727411 12.015062,31.728386 C 11.91239,31.730337 11.801423,31.727728 11.698447,31.728386 C 11.646953,31.728715 11.59171,31.728386 11.54014,31.728386 C 11.48857,31.728386 11.433327,31.728715 11.381833,31.728386 C 11.330339,31.728057 11.274944,31.729032 11.223526,31.728386 C 11.172107,31.72774 11.156125,31.729361 11.104795,31.728386 C 10.950794,31.725461 10.783153,31.734225 10.629873,31.728386 C 10.476594,31.722548 10.307484,31.697523 10.154952,31.688809 C 9.799039,31.668483 9.4379592,31.645395 9.0863778,31.609656 C 9.0235994,31.603273 8.9907095,31.61652 8.9280705,31.609656 C 8.9280705,31.609656 35.444535,53.513211 35.444535,66.714288 C 35.444535,79.915378 24.74123,90.618683 11.54014,90.618683 C 10.650618,90.618683 9.7924914,90.555158 8.9280705,90.460376 C 8.9280705,90.460376 35.444535,112.36393 35.444535,125.56501 C 35.444535,138.76609 24.74123,149.50898 11.54014,149.50898 C 10.650618,149.50898 9.7924914,149.44544 8.9280705,149.35067 C 8.9280705,149.35067 35.444535,171.25423 35.444535,184.45531 C 35.444535,197.65642 24.74123,208.3597 11.54014,208.3597 C 10.651378,208.3597 9.7917822,208.33559 8.9280705,208.24097 L 8.9280705,219.55994 C 9.7924914,219.46517 10.650618,219.40163 11.54014,219.40163 C 24.74123,219.40164 35.444535,230.10495 35.444535,243.30603 C 35.444535,256.50712 24.74123,267.25 11.54014,267.25 C 10.650618,267.25 9.7924914,267.18647 8.9280705,267.09169 C 8.9280705,267.09169 35.444535,288.99525 35.444535,302.19632 C 35.444535,315.3974 24.74123,326.10072 11.54014,326.10072 C 10.651378,326.10072 9.7917822,326.0766 8.9280705,325.98199 C 8.9280705,325.98199 35.444535,347.84597 35.444535,361.04704 C 35.444535,374.24815 24.74123,384.99101 11.54014,384.99101 C 10.650618,384.99101 9.7924914,384.92748 8.9280705,384.83271 C 8.9280705,384.83271 35.444535,406.73626 35.444535,419.93734 C 35.444535,421.57535 35.283796,423.18043 34.969613,424.72613 L 47.000964,424.72613 C 46.686781,423.18043 46.486466,421.57534 46.486466,419.93734 C 46.486453,406.7363 57.22936,396.03295 70.430437,396.03295 C 83.631527,396.03296 94.334832,406.73626 94.334832,419.93734 C 94.334832,421.57459 94.173814,423.18109 93.85991,424.72613 L 105.85168,424.72613 C 105.53778,423.18109 105.37676,421.57458 105.37676,419.93734 C 105.37675,406.7363 116.08008,396.03295 129.28116,396.03295 C 142.48223,396.03296 153.22512,406.73626 153.22512,419.93734 C 153.22512,421.57535 153.02481,423.18043 152.71062,424.72613 L 164.74197,424.72613 C 164.42779,423.18043 164.26705,421.57534 164.26705,419.93734 C 164.26705,406.7363 174.97036,396.03295 188.17144,396.03295 C 201.37253,396.03296 212.07584,406.73626 212.07584,419.93734 C 212.07584,421.57459 211.91482,423.18109 211.60091,424.72613 L 223.59269,424.72613 C 223.27878,423.18109 223.11777,421.57458 223.11777,419.93734 C 223.11777,406.7363 233.82108,396.03295 247.02216,396.03295 C 260.22325,396.03296 270.96613,406.73626 270.96613,419.93734 C 270.96613,421.57535 270.76583,423.18043 270.45163,424.72613 L 282.48299,424.72613 C 282.1688,423.18043 282.00806,421.57534 282.00806,419.93734 C 282.00806,406.7363 292.71138,396.03295 305.91246,396.03295 C 319.11355,396.03296 329.81685,406.73626 329.81685,419.93734 C 329.81685,421.57535 329.65613,423.18043 329.34193,424.72613 L 341.33371,424.72613 C 341.0198,423.18109 340.85878,421.57458 340.85878,419.93734 C 340.85878,406.7363 351.56211,396.03295 364.76318,396.03295 C 377.96427,396.03296 388.70715,406.73626 388.70715,419.93734 C 388.70715,421.57535 388.50683,423.18043 388.19265,424.72613 L 400.22402,424.72613 C 399.90983,423.18043 399.74909,421.57534 399.74909,419.93734 C 399.74908,406.7363 410.45241,396.03295 423.65349,396.03295 C 436.85458,396.03296 447.55788,406.73626 447.55788,419.93734 C 447.55788,421.57535 447.39714,423.18043 447.08296,424.72613 L 459.07474,424.72613 C 458.76083,423.18109 458.59981,421.57458 458.59981,419.93734 C 458.5998,406.7363 469.30313,396.03295 482.50421,396.03295 C 495.7053,396.03296 506.44818,406.73626 506.44818,419.93734 C 506.44818,421.57535 506.24786,423.18043 505.93368,424.72613 L 517.96503,424.72613 C 517.65085,423.18043 517.49011,421.57534 517.49011,419.93734 C 517.49011,406.7363 528.19343,396.03295 541.39451,396.03295 C 554.59558,396.03296 565.2989,406.73626 565.2989,419.93734 C 565.2989,421.57535 565.13816,423.18043 564.82398,424.72613 L 576.81575,424.72613 C 576.50185,423.18109 576.34083,421.57458 576.34083,419.93734 C 576.34083,406.7363 587.04415,396.03295 600.24523,396.03295 C 613.44633,396.03296 624.1892,406.73626 624.1892,419.93734 C 624.1892,421.57535 623.98888,423.18043 623.6747,424.72613 L 635.70605,424.72613 C 635.39187,423.18043 635.23113,421.57534 635.23113,419.93734 C 635.23112,406.7363 645.93445,396.03295 659.13552,396.03295 C 672.33661,396.03296 683.03992,406.73626 683.03992,419.93734 C 683.03992,421.57535 682.87919,423.18043 682.565,424.72613 L 694.55677,424.72613 C 694.24287,423.18109 694.08185,421.57458 694.08185,419.93734 C 694.08186,406.7363 704.78517,396.03295 717.98624,396.03295 C 731.18736,396.03296 741.93021,406.73626 741.93021,419.93734 C 741.93021,421.57535 741.7299,423.18043 741.41572,424.72613 L 753.44707,424.72613 C 753.13288,423.18043 752.97215,421.57534 752.97215,419.93734 C 752.97215,406.7363 763.67546,396.03295 776.87654,396.03295 C 790.07764,396.03296 800.78093,406.73626 800.78093,419.93734 C 800.78093,421.57535 800.6202,423.18043 800.30601,424.72613 L 812.33736,424.72613 C 812.02318,423.18043 811.82287,421.57534 811.82287,419.93734 C 811.82288,406.7363 822.56576,396.03295 835.76684,396.03295 C 848.96791,396.03296 859.67123,406.73626 859.67123,419.93734 C 859.67123,421.57535 859.47092,423.18043 859.15673,424.72613 L 871.18808,424.72613 C 870.8739,423.18043 870.71316,421.57534 870.71316,419.93734 C 870.71318,406.7363 881.41648,396.03295 894.61756,396.03295 C 896.47396,396.03295 898.26486,396.22573 900,396.6266 L 900,384.35779 C 898.26484,384.75866 896.47396,384.99101 894.61756,384.99101 C 881.41646,384.991 870.71316,374.24813 870.71316,361.04704 C 870.71318,347.84598 881.41648,337.14265 894.61756,337.14265 C 896.47396,337.14265 898.26486,337.37502 900,337.77588 L 900,325.50707 C 898.26484,325.90794 896.47396,326.10072 894.61756,326.10072 C 881.41646,326.10073 870.71316,315.39741 870.71316,302.19632 C 870.71318,288.99523 881.41648,278.29193 894.61756,278.29193 C 896.47396,278.29193 898.26486,278.48471 900,278.88558 L 900,266.61677 C 898.26484,267.01764 896.47396,267.25 894.61756,267.25 C 881.41646,267.24998 870.71316,256.50712 870.71316,243.30603 C 870.71318,230.10495 881.41648,219.40163 894.61756,219.40163 C 896.47396,219.40163 898.26486,219.59441 900,219.99528 L 900,207.76605 C 898.26484,208.16692 896.47396,208.3597 894.61756,208.3597 C 881.41646,208.3597 870.71316,197.6564 870.71316,184.45531 C 870.71318,171.25425 881.41648,160.51133 894.61756,160.51133 C 896.47396,160.51133 898.26486,160.74369 900,161.14456 L 900,148.87575 C 898.26484,149.27662 896.47396,149.50898 894.61756,149.50898 C 881.41646,149.50899 870.71316,138.7661 870.71316,125.56501 C 870.71318,112.36392 881.41648,101.66061 894.61756,101.66061 C 896.47396,101.66061 898.26486,101.85339 900,102.25427 L 900,90.025031 C 898.26484,90.425903 896.47396,90.618683 894.61756,90.618683 C 881.41646,90.618671 870.71316,79.915378 870.71316,66.714288 C 870.71318,53.513211 881.41648,42.770317 894.61756,42.770317 C 896.47396,42.770317 898.26486,43.002674 900,43.403546 L 900,31.134734 C 898.26484,31.535606 896.47396,31.728386 894.61756,31.728386 C 881.41646,31.728386 870.71316,21.025081 870.71316,7.8239914 C 870.71316,6.471123 870.81358,5.1580847 871.02978,3.8663102 L 859.35462,3.8663102 C 859.57081,5.1580847 859.67123,6.471123 859.67123,7.8239914 C 859.67124,21.025081 848.96793,31.728386 835.76684,31.728386 C 822.56575,31.728386 811.82287,21.025081 811.82287,7.8239914 C 811.82287,6.471123 811.92328,5.1580847 812.13948,3.8663102 L 800.46432,3.8663102 C 800.68052,5.1580847 800.78093,6.471123 800.78093,7.8239914 C 800.78093,21.025081 790.07763,31.728386 776.87654,31.728386 C 763.67548,31.728386 752.97215,21.025081 752.97215,7.8239914 C 752.97215,6.471123 753.07256,5.1580847 753.28876,3.8663102 L 741.6136,3.8663102 C 741.82978,5.1580847 741.93021,6.471123 741.93021,7.8239914 C 741.93021,21.025081 731.18733,31.728386 717.98624,31.728386 C 704.78519,31.728386 694.08185,21.025081 694.08185,7.8239914 C 694.08185,6.471123 694.18227,5.1580847 694.39846,3.8663102 L 682.7233,3.8663102 C 682.9395,5.1580847 683.03992,6.471123 683.03992,7.8239914 C 683.03991,21.025081 672.33661,31.728386 659.13552,31.728386 C 645.93445,31.728386 635.23113,21.025081 635.23113,7.8239914 C 635.23113,6.4703631 635.33132,5.1587686 635.54774,3.8663102 L 623.87258,3.8663102 C 624.08878,5.1580847 624.1892,6.471123 624.1892,7.8239914 C 624.1892,21.025081 613.44632,31.728386 600.24523,31.728386 C 587.04416,31.728386 576.34083,21.025081 576.34083,7.8239914 C 576.34083,6.471123 576.44125,5.1580847 576.65745,3.8663102 L 564.98229,3.8663102 C 565.19848,5.1580847 565.2989,6.471123 565.2989,7.8239914 C 565.29891,21.025081 554.5956,31.728386 541.39451,31.728386 C 528.19342,31.728386 517.49011,21.025081 517.49011,7.8239914 C 517.49011,6.4703631 517.5903,5.1587686 517.80673,3.8663102 L 506.09199,3.8663102 C 506.30841,5.1587686 506.44818,6.4703631 506.44818,7.8239914 C 506.44818,21.025081 495.7053,31.728386 482.50421,31.728386 C 469.30313,31.728386 458.59981,21.025081 458.59981,7.8239914 C 458.59981,6.471123 458.70024,5.1580847 458.91643,3.8663102 L 447.24127,3.8663102 C 447.45747,5.1580847 447.55788,6.471123 447.55788,7.8239914 C 447.55788,21.025081 436.85458,31.728386 423.65349,31.728386 C 410.45241,31.728386 399.74909,21.025081 399.74909,7.8239914 C 399.74909,6.4703631 399.84928,5.1587686 400.06571,3.8663102 L 388.35096,3.8663102 C 388.56738,5.1587686 388.70715,6.4703631 388.70715,7.8239914 C 388.70715,21.025081 377.96427,31.728386 364.76318,31.728386 C 351.56211,31.728386 340.85878,21.025081 340.85878,7.8239914 C 340.85878,6.471123 340.95921,5.1580847 341.1754,3.8663102 L 329.50024,3.8663102 C 329.71644,5.1580847 329.81685,6.471123 329.81685,7.8239914 C 329.81685,21.025081 319.11355,31.728386 305.91246,31.728386 C 292.71138,31.728386 282.00806,21.025081 282.00806,7.8239914 C 282.00806,6.4703631 282.10825,5.1587686 282.32468,3.8663102 L 270.60994,3.8663102 C 270.82638,5.1587686 270.96613,6.4703631 270.96613,7.8239914 C 270.96613,21.025081 260.22325,31.728386 247.02216,31.728386 C 233.82108,31.728386 223.11777,21.025081 223.11777,7.8239914 C 223.11777,6.471123 223.2182,5.1580847 223.43438,3.8663102 L 211.75922,3.8663102 C 211.97542,5.1580847 212.07584,6.471123 212.07584,7.8239914 C 212.07584,21.025081 201.37253,31.728386 188.17144,31.728386 C 174.97036,31.728386 164.26705,21.025081 164.26705,7.8239914 C 164.26705,6.4703631 164.36724,5.1587686 164.58366,3.8663102 L 152.86892,3.8663102 C 153.08536,5.1587686 153.22512,6.4703631 153.22512,7.8239914 C 153.22513,21.025081 142.48223,31.728386 129.28116,31.728386 C 116.08008,31.728386 105.37676,21.025081 105.37676,7.8239914 C 105.37676,6.471123 105.47718,5.1580847 105.69338,3.8663102 L 94.018217,3.8663102 C 94.234414,5.1580847 94.334832,6.471123 94.334832,7.8239914 C 94.334832,21.025081 83.631527,31.728386 70.430437,31.728386 C 57.22936,31.728386 46.486466,21.025081 46.486466,7.8239914 C 46.486466,6.4703631 46.626232,5.1587686 46.842657,3.8663102 L 35.12792,3.8663102 z "
     style="color:#000000;fill:#cfcecc;fill-opacity:1;fill-rule:nonzero;stroke:none;stroke-width:0.1;stroke-linecap:butt;stroke-linejoin:miter;marker:none;marker-start:none;marker-mid:none;marker-end:none;stroke-miterlimit:4;stroke-dasharray:none;stroke-dashoffset:0;stroke-opacity:1;visibility:visible;display:inline;overflow:visible"
     id="path14964" />
  <path
     d="M 26.263175,0.067138817 C 26.26524,0.079448788 26.261136,0.094405657 26.263175,0.10671563 C 26.287681,0.25449861 26.320546,0.3933784 26.342329,0.54206057 C 26.393152,0.88899407 26.42532,1.2194763 26.461059,1.5710577 C 26.496799,1.9226391 26.519886,2.2837189 26.540213,2.6396316 C 26.56634,3.0972282 26.57979,3.5607139 26.57979,4.0248201 C 26.57979,4.6951816 26.554815,5.3471922 26.500636,6.0036607 C 26.488136,6.1551544 26.476371,6.3278993 26.461059,6.4785824 C 26.445748,6.6292656 26.439593,6.7640801 26.421483,6.9139274 C 26.409413,7.0138256 26.395204,7.1310236 26.381906,7.2305419 C 26.348661,7.4793249 26.304019,7.7361879 26.263175,7.9825013 C 26.238669,8.1302843 26.211225,8.2709878 26.184022,8.4178463 C 26.111466,8.8094731 26.037974,9.1808745 25.946561,9.5655738 C 25.912278,9.709836 25.86471,9.8576824 25.82783,10.000919 C 25.815533,10.048664 25.80083,10.111595 25.788254,10.159226 C 25.574374,10.968949 25.330632,11.76008 25.036294,12.533835 C 25.018982,12.579351 25.014296,12.607188 24.996717,12.652565 C 24.961548,12.743332 24.914233,12.83938 24.877987,12.929603 C 24.841741,13.019825 24.796566,13.116963 24.759256,13.206641 C 24.740602,13.251473 24.738601,13.280665 24.71968,13.325371 C 24.681851,13.41477 24.639842,13.513567 24.600949,13.602409 C 24.503736,13.82452 24.388045,14.056687 24.284335,14.275215 C 24.180624,14.493742 24.077801,14.693614 23.96772,14.908444 C 23.791581,15.252173 23.605691,15.60359 23.413645,15.937441 C 22.933543,16.772062 22.404582,17.584241 21.830572,18.351626 C 21.285261,19.080637 20.712353,19.748187 20.089193,20.40962 C 19.925199,20.583682 19.743779,20.755034 19.574694,20.924119 C 19.405609,21.093204 19.234257,21.274624 19.060195,21.438618 C 18.886134,21.602611 18.724609,21.754763 18.545697,21.913539 C 18.366784,22.072315 18.175258,22.23503 17.991622,22.388461 C 17.844712,22.511206 17.706149,22.625403 17.556277,22.744652 C 17.443878,22.83409 17.314117,22.934241 17.200085,23.02169 C 17.12406,23.079985 17.078936,23.122601 17.002201,23.179997 C 16.388298,23.639202 15.720381,24.086427 15.062937,24.486032 C 14.734216,24.685841 14.412371,24.855952 14.073517,25.040108 C 13.90409,25.132179 13.730877,25.229076 13.559019,25.317145 C 13.344189,25.427226 13.144317,25.530049 12.92579,25.63376 C 12.794673,25.695993 12.66243,25.77174 12.530021,25.831644 C 12.441749,25.871575 12.341826,25.911481 12.252984,25.950374 C 12.164142,25.989267 12.065345,26.031276 11.975946,26.069105 C 11.841841,26.125855 11.715512,26.173056 11.580178,26.227412 C 11.489955,26.263658 11.393907,26.310973 11.30314,26.346142 C 11.212373,26.381312 11.117402,26.391203 11.026103,26.425296 C 10.752218,26.527562 10.473509,26.64951 10.194989,26.74191 C 10.009314,26.803511 9.8285779,26.843075 9.6409141,26.900218 C 9.5939918,26.914503 9.5692199,26.925787 9.5221837,26.939795 C 9.0988448,27.06582 8.6489356,27.193149 8.2161489,27.295986 C 7.9276244,27.364539 7.6379095,27.435879 7.345459,27.49387 C 6.9067706,27.58085 6.4863572,27.66873 6.0394242,27.731331 C 5.8407802,27.759155 5.6459357,27.787574 5.445772,27.810484 C 5.2956461,27.827658 5.1217994,27.835674 4.9708502,27.850061 C 4.6186229,27.883622 4.2587716,27.91113 3.9022763,27.929215 C 3.851352,27.931798 3.794982,27.926948 3.7439691,27.929215 C 3.6929561,27.931482 3.6763275,27.927264 3.6252386,27.929215 C 3.5230481,27.933103 3.4111312,27.926619 3.3086241,27.929215 C 3.2573706,27.930519 3.2016464,27.92824 3.1503169,27.929215 C 3.0476451,27.931165 2.9366781,27.928556 2.8337024,27.929215 C 2.7822082,27.929544 2.7269653,27.929215 2.6753951,27.929215 C 2.6238249,27.929215 2.568582,27.929544 2.5170879,27.929215 C 2.4655937,27.928886 2.4101988,27.929861 2.3587806,27.929215 C 2.3073624,27.928569 2.2913797,27.93019 2.2400502,27.929215 C 2.0860489,27.926289 1.9184078,27.935053 1.7651284,27.929215 C 1.611849,27.923376 1.4427389,27.898351 1.2902067,27.889638 C 0.93429399,27.869311 0.57321415,27.846224 0.22163274,27.810484 C 0.15885442,27.804101 0.1259645,27.817349 0.063325491,27.810484 L 0.063325491,39.129453 C 0.9277464,39.034684 1.785873,38.971146 2.6753951,38.971146 C 15.876485,38.971146 26.57979,49.71404 26.57979,62.915117 C 26.57979,76.116207 15.876485,86.819512 2.6753951,86.819512 C 1.785873,86.819512 0.9277464,86.755986 0.063325491,86.661205 L 0.063325491,97.980173 C 0.92703718,97.885556 1.7866329,97.861443 2.6753951,97.861443 C 15.876485,97.861443 26.57979,108.56476 26.57979,121.76584 C 26.57979,134.96691 15.876485,145.70981 2.6753951,145.70981 C 1.785873,145.70981 0.9277464,145.64627 0.063325491,145.5515 L 0.063325491,156.87047 C 0.9277464,156.7757 1.785873,156.71216 2.6753951,156.71216 C 15.876485,156.71216 26.57979,167.45506 26.57979,180.65613 C 26.57979,193.85725 15.876485,204.56053 2.6753951,204.56053 C 1.7866329,204.56053 0.92703718,204.53642 0.063325491,204.4418 L 0.063325491,215.76077 C 0.9277464,215.666 1.785873,215.60246 2.6753951,215.60246 C 15.876485,215.60247 26.57979,226.30578 26.57979,239.50685 C 26.57979,252.70794 15.876485,263.45083 2.6753951,263.45083 C 1.785873,263.45083 0.9277464,263.3873 0.063325491,263.29252 L 0.063325491,274.61149 C 0.9277464,274.51672 1.785873,274.49276 2.6753951,274.49276 C 15.876485,274.49276 26.57979,285.19607 26.57979,298.39715 C 26.57979,311.59823 15.876485,322.30155 2.6753951,322.30155 C 1.7866329,322.30155 0.92703718,322.27743 0.063325491,322.18282 L 0.063325491,333.50178 C 0.9277464,333.40702 1.785873,333.34348 2.6753951,333.34348 C 15.876485,333.34346 26.57979,344.04679 26.57979,357.24787 C 26.57979,370.44897 15.876485,381.19184 2.6753951,381.19184 C 1.785873,381.19184 0.9277464,381.1283 0.063325491,381.03354 L 0.063325491,392.3525 C 0.92703718,392.25789 1.7866329,392.23377 2.6753951,392.23377 C 15.876485,392.23379 26.57979,402.93709 26.57979,416.13817 C 26.57979,417.77618 26.419051,419.38126 26.104868,420.92696 L 38.136219,420.92696 C 37.822036,419.38126 37.621721,417.77617 37.621721,416.13817 C 37.621708,402.93713 48.364615,392.23377 61.565692,392.23377 C 74.766782,392.23379 85.470087,402.93709 85.470087,416.13817 C 85.470087,417.77542 85.309069,419.38192 84.995165,420.92696 L 96.986939,420.92696 C 96.673034,419.38192 96.512018,417.77541 96.512018,416.13817 C 96.512014,402.93713 107.21534,392.23377 120.41642,392.23377 C 133.6175,392.23379 144.36039,402.93709 144.36039,416.13817 C 144.36039,417.77618 144.16008,419.38126 143.84589,420.92696 L 155.87724,420.92696 C 155.56305,419.38126 155.40232,417.77617 155.40232,416.13817 C 155.40232,402.93713 166.10564,392.23377 179.30672,392.23377 C 192.50779,392.23379 203.21111,402.93709 203.21111,416.13817 C 203.21111,417.77542 203.05009,419.38192 202.73619,420.92696 L 214.72796,420.92696 C 214.41406,419.38192 214.25304,417.77541 214.25304,416.13817 C 214.25304,402.93713 224.95636,392.23377 238.15744,392.23377 C 251.35851,392.23379 262.10141,402.93709 262.10141,416.13817 C 262.10141,417.77618 261.90109,419.38126 261.58691,420.92696 L 273.61826,420.92696 C 273.30407,419.38126 273.14334,417.77617 273.14334,416.13817 C 273.14334,402.93713 283.84666,392.23377 297.04773,392.23377 C 310.24881,392.23379 320.95213,402.93709 320.95213,416.13817 C 320.95213,417.77618 320.79139,419.38126 320.47721,420.92696 L 332.46898,420.92696 C 332.15508,419.38192 331.99406,417.77541 331.99406,416.13817 C 331.99406,402.93713 342.69738,392.23377 355.89845,392.23377 C 369.09954,392.23379 379.84243,402.93709 379.84243,416.13817 C 379.84243,417.77618 379.64211,419.38126 379.32793,420.92696 L 391.35928,420.92696 C 391.0451,419.38126 390.88436,417.77617 390.88436,416.13817 C 390.88434,402.93713 401.58767,392.23377 414.78875,392.23377 C 427.98984,392.23379 438.69315,402.93709 438.69315,416.13817 C 438.69315,417.77618 438.53241,419.38126 438.21822,420.92696 L 450.21,420.92696 C 449.89609,419.38192 449.73508,417.77541 449.73508,416.13817 C 449.73506,402.93713 460.43839,392.23377 473.63947,392.23377 C 486.84056,392.23379 497.58344,402.93709 497.58344,416.13817 C 497.58344,417.77618 497.38313,419.38126 497.06894,420.92696 L 509.1003,420.92696 C 508.78611,419.38126 508.62537,417.77617 508.62537,416.13817 C 508.62537,402.93713 519.32869,392.23377 532.52977,392.23377 C 545.73085,392.23379 556.43416,402.93709 556.43416,416.13817 C 556.43416,417.77618 556.27342,419.38126 555.95924,420.92696 L 567.95102,420.92696 C 567.63711,419.38192 567.47609,417.77541 567.47609,416.13817 C 567.47609,402.93713 578.17941,392.23377 591.38049,392.23377 C 604.58159,392.23379 615.32446,402.93709 615.32446,416.13817 C 615.32446,417.77618 615.12414,419.38126 614.80996,420.92696 L 626.84131,420.92696 C 626.52713,419.38126 626.36639,417.77617 626.36639,416.13817 C 626.36638,402.93713 637.06971,392.23377 650.27079,392.23377 C 663.47188,392.23379 674.17518,402.93709 674.17518,416.13817 C 674.17518,417.77618 674.01445,419.38126 673.70026,420.92696 L 685.69203,420.92696 C 685.37813,419.38192 685.21711,417.77541 685.21711,416.13817 C 685.21712,402.93713 695.92043,392.23377 709.12151,392.23377 C 722.32262,392.23379 733.06548,402.93709 733.06548,416.13817 C 733.06548,417.77618 732.86516,419.38126 732.55098,420.92696 L 744.58233,420.92696 C 744.26815,419.38126 744.10741,417.77617 744.10741,416.13817 C 744.10741,402.93713 754.81073,392.23377 768.0118,392.23377 C 781.21291,392.23379 791.9162,402.93709 791.9162,416.13817 C 791.9162,417.77618 791.75546,419.38126 791.44128,420.92696 L 803.47263,420.92696 C 803.15844,419.38126 802.95813,417.77617 802.95813,416.13817 C 802.95814,402.93713 813.70102,392.23377 826.9021,392.23377 C 840.10318,392.23379 850.80649,402.93709 850.80649,416.13817 C 850.80649,417.77618 850.60618,419.38126 850.292,420.92696 L 862.32335,420.92696 C 862.00916,419.38126 861.84843,417.77617 861.84843,416.13817 C 861.84844,402.93713 872.55174,392.23377 885.75282,392.23377 C 887.60922,392.23377 889.40012,392.42655 891.13527,392.82743 L 891.13527,380.55861 C 889.40011,380.95949 887.60922,381.19184 885.75282,381.19184 C 872.55172,381.19183 861.84843,370.44896 861.84843,357.24787 C 861.84844,344.04681 872.55174,333.34348 885.75282,333.34348 C 887.60922,333.34348 889.40012,333.57585 891.13527,333.97671 L 891.13527,321.70789 C 889.40011,322.10877 887.60922,322.30155 885.75282,322.30155 C 872.55172,322.30156 861.84843,311.59824 861.84843,298.39715 C 861.84844,285.19606 872.55174,274.49276 885.75282,274.49276 C 887.60922,274.49276 889.40012,274.68554 891.13527,275.08641 L 891.13527,262.8176 C 889.40011,263.21847 887.60922,263.45083 885.75282,263.45083 C 872.55172,263.45081 861.84843,252.70794 861.84843,239.50685 C 861.84844,226.30578 872.55174,215.60246 885.75282,215.60246 C 887.60922,215.60246 889.40012,215.79524 891.13527,216.19611 L 891.13527,203.96688 C 889.40011,204.36775 887.60922,204.56053 885.75282,204.56053 C 872.55172,204.56053 861.84843,193.85722 861.84843,180.65613 C 861.84844,167.45508 872.55174,156.71216 885.75282,156.71216 C 887.60922,156.71216 889.40012,156.94452 891.13527,157.34539 L 891.13527,145.07658 C 889.40011,145.47745 887.60922,145.70981 885.75282,145.70981 C 872.55172,145.70982 861.84843,134.96693 861.84843,121.76584 C 861.84844,108.56475 872.55174,97.861443 885.75282,97.861443 C 887.60922,97.861443 889.40012,98.054223 891.13527,98.455095 L 891.13527,86.22586 C 889.40011,86.626732 887.60922,86.819512 885.75282,86.819512 C 872.55172,86.819499 861.84843,76.116207 861.84843,62.915117 C 861.84844,49.71404 872.55174,38.971146 885.75282,38.971146 C 887.60922,38.971146 889.40012,39.203503 891.13527,39.604375 L 891.13527,27.335563 C 889.40011,27.736435 887.60922,27.929215 885.75282,27.929215 C 872.55172,27.929215 861.84843,17.22591 861.84843,4.0248201 C 861.84843,2.6719516 861.94884,1.3589133 862.16504,0.067138817 L 850.48988,0.067138817 C 850.70608,1.3589133 850.80649,2.6719516 850.80649,4.0248201 C 850.80651,17.22591 840.10319,27.929215 826.9021,27.929215 C 813.70101,27.929215 802.95813,17.22591 802.95813,4.0248201 C 802.95813,2.6719516 803.05855,1.3589133 803.27474,0.067138817 L 791.59958,0.067138817 C 791.81578,1.3589133 791.9162,2.6719516 791.9162,4.0248201 C 791.9162,17.22591 781.21289,27.929215 768.0118,27.929215 C 754.81074,27.929215 744.10741,17.22591 744.10741,4.0248201 C 744.10741,2.6719516 744.20783,1.3589133 744.42402,0.067138817 L 732.74886,0.067138817 C 732.96505,1.3589133 733.06548,2.6719516 733.06548,4.0248201 C 733.06548,17.22591 722.3226,27.929215 709.12151,27.929215 C 695.92045,27.929215 685.21711,17.22591 685.21711,4.0248201 C 685.21711,2.6719516 685.31753,1.3589133 685.53373,0.067138817 L 673.85857,0.067138817 C 674.07476,1.3589133 674.17518,2.6719516 674.17518,4.0248201 C 674.17517,17.22591 663.47188,27.929215 650.27079,27.929215 C 637.06971,27.929215 626.36639,17.22591 626.36639,4.0248201 C 626.36639,2.6711918 626.46658,1.3595972 626.68301,0.067138817 L 615.00785,0.067138817 C 615.22404,1.3589133 615.32446,2.6719516 615.32446,4.0248201 C 615.32446,17.22591 604.58158,27.929215 591.38049,27.929215 C 578.17942,27.929215 567.47609,17.22591 567.47609,4.0248201 C 567.47609,2.6719516 567.57651,1.3589133 567.79271,0.067138817 L 556.11755,0.067138817 C 556.33375,1.3589133 556.43416,2.6719516 556.43416,4.0248201 C 556.43418,17.22591 545.73086,27.929215 532.52977,27.929215 C 519.32868,27.929215 508.62537,17.22591 508.62537,4.0248201 C 508.62537,2.6711918 508.72556,1.3595972 508.94199,0.067138817 L 497.22725,0.067138817 C 497.44368,1.3595972 497.58344,2.6711918 497.58344,4.0248201 C 497.58344,17.22591 486.84056,27.929215 473.63947,27.929215 C 460.43839,27.929215 449.73508,17.22591 449.73508,4.0248201 C 449.73508,2.6719516 449.83551,1.3589133 450.05169,0.067138817 L 438.37653,0.067138817 C 438.59273,1.3589133 438.69315,2.6719516 438.69315,4.0248201 C 438.69315,17.22591 427.98984,27.929215 414.78875,27.929215 C 401.58767,27.929215 390.88436,17.22591 390.88436,4.0248201 C 390.88436,2.6711918 390.98455,1.3595972 391.20097,0.067138817 L 379.48623,0.067138817 C 379.70266,1.3595972 379.84243,2.6711918 379.84243,4.0248201 C 379.84243,17.22591 369.09954,27.929215 355.89845,27.929215 C 342.69738,27.929215 331.99406,17.22591 331.99406,4.0248201 C 331.99406,2.6719516 332.09448,1.3589133 332.31067,0.067138817 L 320.63551,0.067138817 C 320.8517,1.3589133 320.95213,2.6719516 320.95213,4.0248201 C 320.95213,17.22591 310.24881,27.929215 297.04773,27.929215 C 283.84664,27.929215 273.14334,17.22591 273.14334,4.0248201 C 273.14334,2.6711918 273.24352,1.3595972 273.45995,0.067138817 L 261.74522,0.067138817 C 261.96164,1.3595972 262.10141,2.6711918 262.10141,4.0248201 C 262.10141,17.22591 251.35851,27.929215 238.15744,27.929215 C 224.95636,27.929215 214.25304,17.22591 214.25304,4.0248201 C 214.25304,2.6719516 214.35346,1.3589133 214.56966,0.067138817 L 202.8945,0.067138817 C 203.11068,1.3589133 203.21111,2.6719516 203.21111,4.0248201 C 203.21111,17.22591 192.50779,27.929215 179.30672,27.929215 C 166.10564,27.929215 155.40232,17.22591 155.40232,4.0248201 C 155.40232,2.6711918 155.5025,1.3595972 155.71894,0.067138817 L 144.0042,0.067138817 C 144.22063,1.3595972 144.36039,2.6711918 144.36039,4.0248201 C 144.36039,17.22591 133.6175,27.929215 120.41642,27.929215 C 107.21534,27.929215 96.512018,17.22591 96.512018,4.0248201 C 96.512018,2.6719516 96.612441,1.3589133 96.828632,0.067138817 L 85.153472,0.067138817 C 85.369669,1.3589133 85.470087,2.6719516 85.470087,4.0248201 C 85.470087,17.22591 74.766782,27.929215 61.565692,27.929215 C 48.364615,27.929215 37.621721,17.22591 37.621721,4.0248201 C 37.621721,2.6711918 37.761487,1.3595972 37.977912,0.067138817 L 26.263175,0.067138817 z "
     style="color:#000000;fill:#ffffff;fill-opacity:1;fill-rule:nonzero;stroke:#000000;stroke-width:0.1266458;stroke-linecap:butt;stroke-linejoin:miter;marker:none;marker-start:none;marker-mid:none;marker-end:none;stroke-miterlimit:4;stroke-dasharray:none;stroke-dashoffset:0;stroke-opacity:1;visibility:visible;display:inline;overflow:visible"
     id="rect13909" />
  <rect
     width="796.65717"
     height="309.81116"
     x="47.270699"
     y="55.591476"
     style="color:#000000;fill:none;fill-opacity:1;fill-rule:nonzero;stroke:#bd0000;stroke-width:6.33229017;stroke-linecap:butt;stroke-linejoin:miter;marker:none;marker-start:none;marker-mid:none;marker-end:none;stroke-miterlimit:4;stroke-dasharray:none;stroke-dashoffset:0;stroke-opacity:1;visibility:visible;display:inline;overflow:visible"
     id="rect17728" />
  <path
     d="M 480.63195,340.79383 C 480.21788,340.09906 94.195912,340.80232 94.22366,340.79383 C 94.253117,340.78484 107.5314,279.33274 123.71121,208.97239 L 153.12906,81.044425 C 153.12906,81.044425 463.35331,79.810895 463.33562,79.908033 C 452.61979,138.7497 442.95845,204.83018 458.2824,270.60672 C 460.33577,279.42063 462.71354,286.20074 463.56632,285.67364 C 464.4191,285.14654 465.76393,280.6686 466.55484,275.72258 C 467.34575,270.77655 473.06214,256.98824 479.25799,245.08176 L 490.52309,223.43382 L 485.64104,206.74747 C 472.96732,163.43056 465.72399,123.62832 465.71025,97.227352 L 465.70131,80.037845 L 593.07307,79.303172 C 707.93703,78.640815 721.64648,78.179317 732.68144,74.60398 C 749.06916,69.294228 773.83157,68.986732 783.25875,73.975817 C 797.6897,81.612938 801.05381,99.375645 791.82371,119.19939 C 788.88973,125.50065 779.53418,138.01541 771.0336,147.00979 L 755.578,163.36331 L 761.6692,168.32377 C 769.18497,174.44431 770.9366,184.38284 766.90173,198.01297 C 751.82453,248.94509 647.45951,326.51767 566.60331,346.89132 C 545.01541,352.33089 489.54617,352.84975 480.63195,340.79383 z M 569.66275,338.13415 C 641.98184,317.63005 730.80347,254.23534 755.02443,205.836 C 763.39935,189.1009 763.60772,179.72354 755.74216,173.53651 C 752.51799,171.00043 747.0008,168.92534 743.48171,168.92534 C 737.47854,168.92534 738.37365,167.65445 757.97655,148.34565 C 769.46781,137.02681 780.65029,124.2618 782.82656,119.97902 C 801.83648,82.567974 777.88619,68.084381 725.42833,85.268316 C 697.39533,94.45115 674.95927,107.46223 654.32007,126.5052 C 639.78332,139.91775 622.54817,161.87611 624.79441,164.1223 C 625.3469,164.67485 629.66435,162.56886 634.38873,159.44235 C 648.49465,150.10755 677.5838,136.17182 691.26568,132.19438 C 704.76323,128.27052 713.59685,128.99278 715.58852,134.18298 C 719.28215,143.80844 692.68554,174.11478 660.11154,197.3981 C 638.55043,212.8095 623.1681,225.74599 629.22664,223.37227 C 671.66882,206.74279 700.1591,200.84211 705.71072,207.53141 C 715.18786,218.95068 655.50225,260.82371 603.64103,279.13935 C 583.90907,286.10804 576.65148,287.54192 556.91952,288.37006 C 537.36486,289.19072 532.31583,288.69301 525.92998,285.31498 C 506.77075,275.18003 503.92761,255.83475 517.56173,228.37579 C 539.74374,183.70161 595.18638,134.83748 659.51452,103.26633 C 687.02912,89.762596 688.73585,87.412556 663.46136,97.831833 C 562.46325,139.46753 470.15099,235.66299 470.15099,299.27388 C 470.15099,319.9692 484.39483,336.84641 506.86074,342.77027 C 517.65333,345.616 552.29283,343.05889 569.66275,338.13415 z M 228.39743,259.58739 C 232.11756,255.8635 234.98728,247.17459 239.60326,225.6586 C 243.016,209.75101 246.22213,194.22436 246.88783,192.10418 C 247.13752,191.30897 196.49635,192.58784 196.49635,192.10418 C 196.49635,191.74413 195.18421,203.64415 195.1459,203.96646 C 195.11918,204.19138 220.92136,203.04878 220.8625,203.96646 C 220.80361,204.88426 218.47434,215.64687 215.68629,227.88352 L 210.43377,250.27285 L 154.58135,250.27285 L 182.00176,126.6535 L 209.27257,126.6535 C 240.29818,126.6535 238.63854,125.24166 233.46345,147.23319 L 230.45305,160.02607 L 253.98538,160.02607 L 257.50099,144.5692 C 264.24039,114.93826 263.95391,114.32289 222.56505,114.37431 C 187.56639,114.41775 170.66994,114.30541 164.45152,118.9309 C 161.19124,121.35604 156.98153,136.55366 146.15238,184.99378 C 138.41678,219.59607 132.06257,250.61049 132.0319,253.91468 C 132.00017,257.33525 133.65283,258.29624 135.86963,259.58739 C 138.12689,260.9021 223.56062,264.42906 228.39743,259.58739 z M 270.87282,260.65249 C 271.52387,257.89921 274.51647,244.0691 277.34949,231.22076 L 282.5004,206.62146 L 315.69896,206.62146 C 352.33472,207.17655 359.9335,202.93683 362.16888,195.842 C 366.29319,182.75177 378.37853,123.3483 377.42362,120.85984 C 375.21971,115.11658 359.46201,113.19612 319.56612,113.80883 L 279.97113,114.41686 L 263.93022,186.72401 C 255.1077,226.49295 248.08225,260.01419 247.63642,260.65249 C 247.51578,260.8251 270.87849,260.47695 270.87282,260.65249 z M 300.26007,126.51204 L 355.01553,126.51204 L 340.0858,193.3985 L 285.40495,193.3985 L 300.26007,126.51204 z M 439.00329,261.43794 C 439.00329,261.19605 437.465,249.30376 437.41192,248.96599 C 437.30206,248.26703 385.37682,249.27285 385.60728,248.96599 C 385.8666,248.62063 415.35181,114.62469 415.42159,114.60468 C 415.49459,114.58378 392.18906,114.56972 392.26791,114.60468 C 392.29823,114.6181 384.06784,151.23406 375.55162,187.83647 L 358.42687,261.43794 C 358.42687,261.43794 439.13296,261.58194 439.00329,261.43794 z M 101.31583,262.46974 L 93.56594,260.70706 L 92.281843,266.35278 L 91.06676,266.07641 L 92.684514,258.96369 L 102.36077,261.16451 C 102.64392,262.34064 102.77013,263.59016 102.73936,264.91304 C 102.71849,266.2382 102.5539,267.62417 102.24562,269.07095 C 101.51762,272.27168 99.9366,274.5407 97.502521,275.87801 C 95.07608,277.22747 92.059983,277.49213 88.45423,276.67201 C 84.838614,275.84967 82.223824,274.30427 80.609839,272.03584 C 79.003528,269.77956 78.564355,267.05105 79.292324,263.8503 C 79.593428,262.52658 80.011018,261.30726 80.545107,260.19232 C 81.101231,259.07206 81.768236,258.08089 82.546122,257.21881 L 83.98348,257.54572 C 83.203349,258.41769 82.540837,259.38909 81.995944,260.45997 C 81.463213,261.52325 81.055281,262.67725 80.772161,263.92195 C 80.095865,266.89548 80.432706,269.32019 81.782675,271.19609 C 83.122797,273.06975 85.462367,274.3863 88.801369,275.14574 C 92.189795,275.91642 94.908151,275.75029 96.956448,274.6473 C 99.014637,273.54656 100.38188,271.50945 101.05819,268.53592 C 101.33456,267.32087 101.49774,266.21511 101.54775,265.21864 C 101.58565,264.22985 101.50833,263.31357 101.31583,262.46974 M 82.98185,249.47881 L 83.480656,247.28573 L 106.14753,241.15789 L 85.920772,236.55739 L 86.257809,235.07558 L 108.38129,240.10747 L 107.9027,242.21164 L 85.088981,248.36841 L 105.4491,252.99925 L 105.10534,254.5107 L 82.98185,249.47881 M 88.081151,227.05897 L 88.418178,225.57715 L 101.85825,228.63403 C 104.66381,229.27216 106.79636,229.2377 108.25589,228.53068 C 109.7033,227.8313 110.67641,226.38506 111.17522,224.19197 C 111.67177,222.00879 111.41881,220.28887 110.41626,219.03224 C 109.40611,217.76353 107.49826,216.8101 104.69269,216.17197 L 91.252628,213.1151 L 91.589658,211.63328 L 105.40017,214.77442 C 108.28478,215.43053 110.31473,216.57796 111.49008,218.21673 C 112.66769,219.84565 112.96775,221.92951 112.39031,224.46835 C 111.8106,227.01708 110.63762,228.7711 108.87135,229.73042 C 107.10282,230.69964 104.77626,230.8562 101.89166,230.20011 L 88.081151,227.05897 M 96.97181,193.65707 L 107.13705,195.96912 L 108.17175,191.41995 C 108.54699,189.7702 108.39723,188.39586 107.72248,187.29692 C 107.04998,186.1881 105.89381,185.44721 104.25391,185.07421 C 102.6437,184.70799 101.29066,184.87818 100.19486,185.58478 C 99.111196,186.28379 98.381748,187.45818 98.006504,189.10791 L 96.97181,193.65707 M 95.404869,194.85914 L 96.776593,188.82818 C 97.277674,186.62522 98.190836,185.07705 99.516132,184.18364 C 100.83919,183.30014 102.53303,183.09318 104.59769,183.56276 C 106.67224,184.03463 108.11488,184.95497 108.92564,186.32379 C 109.73416,187.70252 109.8879,189.49336 109.38684,191.6963 L 108.35214,196.24549 L 117.86538,198.40923 L 117.52836,199.89105 L 95.404869,194.85914 M 105.72225,173.20533 C 106.20309,171.0913 107.37312,169.60154 109.23232,168.73605 C 111.10369,167.86298 113.35322,167.72527 115.98095,168.32294 C 118.69763,168.94083 120.70088,170.04581 121.99074,171.63791 C 123.29272,173.22238 123.70331,175.07165 123.22247,177.1857 C 122.73715,179.31951 121.56868,180.82521 119.71711,181.7028 C 117.86777,182.57051 115.57984,182.69431 112.85328,182.07415 C 110.19591,181.46974 108.2223,180.37149 106.93242,178.77938 C 105.64257,177.18731 105.23917,175.32929 105.72225,173.20533 M 106.92588,173.46351 C 106.54168,175.15279 106.91505,176.64035 108.04599,177.92614 C 109.16483,179.21962 110.87018,180.12697 113.16202,180.64824 C 115.51319,181.18301 117.47173,181.11419 119.03768,180.44175 C 120.61351,179.77158 121.59467,178.58693 121.98113,176.88776 C 122.36533,175.19851 121.99196,173.71097 120.86104,172.42513 C 119.72244,171.1272 117.98747,170.21311 115.65607,169.68282 C 113.39383,169.1683 111.46875,169.24993 109.88079,169.92773 C 108.29509,170.59566 107.31011,171.77426 106.92588,173.46351 M 111.6365,151.31375 L 113.13312,151.65414 C 112.38173,152.49106 111.94944,153.02134 111.83622,153.24493 C 111.51102,153.89824 111.21676,154.73525 110.95342,155.75587 C 110.59842,157.31672 110.63101,158.61247 111.05114,159.6431 C 111.4098,160.44158 112.21149,160.98237 113.45621,161.26547 C 114.29592,161.45645 115.02587,161.28482 115.6461,160.75054 C 116.31483,160.18575 116.93129,159.30256 117.4955,158.101 L 117.91528,157.21464 C 118.61829,155.72258 119.37804,154.6434 120.19451,153.97712 C 121.12913,153.20268 122.17995,152.9222 123.347,153.13569 C 124.91773,153.49295 126.04203,154.23698 126.71991,155.36779 C 127.37443,156.55565 127.45229,158.24611 126.95348,160.43918 C 126.67488,161.66417 126.37968,162.57367 126.06794,163.16772 C 125.6776,163.87893 125.23382,164.61957 124.7366,165.38962 L 123.0325,165.00203 C 123.99814,163.9541 124.57079,163.26356 124.75047,162.9304 C 125.22976,162.01081 125.57838,161.07191 125.79632,160.11367 C 126.16031,158.51332 126.09789,157.25754 125.60901,156.34631 C 125.11252,155.423 124.32095,154.83774 123.23428,154.59058 C 122.32544,154.38388 121.60513,154.4902 121.07339,154.90951 C 120.31215,155.5156 119.55959,156.58602 118.81571,158.12074 L 118.37773,159.01856 C 117.73492,160.33731 117.03403,161.29482 116.27503,161.89101 C 115.32516,162.64123 114.32172,162.89611 113.26468,162.6557 C 111.52604,162.26026 110.40219,161.42282 109.89317,160.14338 C 109.38416,158.86396 109.31279,157.41911 109.67901,155.80886 C 109.99134,154.43574 110.28113,153.50424 110.54839,153.01435 C 110.87001,152.42257 111.23273,151.8557 111.6365,151.31375 M 114.21449,137.71802 L 115.37031,137.98091 L 114.21449,137.71802 M 108.22498,142.26233 L 112.93715,143.3341 L 114.21449,137.71802 L 115.37031,137.98091 L 114.09296,143.59698 L 124.06557,145.8652 C 125.33005,146.15282 126.25127,146.19091 126.82923,145.9795 C 128.08845,145.55939 128.8641,144.70723 129.15618,143.42298 L 129.65499,141.22989 L 130.81081,141.49278 L 130.32886,143.61178 C 130.02103,144.96517 129.36412,146.02617 128.35811,146.79478 C 127.35211,147.5634 125.81679,147.71289 123.75213,147.2433 L 113.77952,144.97507 L 113.32789,146.9607 L 112.17207,146.69781 L 112.6237,144.71218 L 107.91154,143.64042 L 108.22498,142.26233 M 724.24198,348.16358 L 734.43643,348.16358 L 734.43643,307.1386 L 732.89182,307.1386 L 721.80147,309.36284 L 721.80147,306.79878 L 732.83003,304.57453 L 737.52566,304.57453 L 737.52566,348.16358 L 747.72012,348.16358 L 747.72012,350.69675 L 724.24198,350.69675 L 724.24198,348.16358 M 775.05982,306.27361 C 771.29094,306.27366 768.49004,308.1066 766.65711,311.77244 C 764.82415,315.45896 763.90768,320.76213 763.90769,327.68198 C 763.90768,334.60188 764.82415,339.90505 766.65711,343.59152 C 768.49004,347.25741 771.29094,349.09035 775.05982,349.09035 C 778.95223,349.09035 781.8149,347.25741 783.64787,343.59152 C 785.48079,339.90505 786.39726,334.60188 786.39729,327.68198 C 786.39726,320.76213 785.48079,315.45896 783.64787,311.77244 C 781.8149,308.1066 778.95223,306.27366 775.05982,306.27361 M 775.05982,303.74044 C 779.50829,303.74049 783.03001,305.55284 785.62499,309.17748 C 788.21991,312.82282 789.51739,318.99097 789.51741,327.68198 C 789.51739,336.37303 788.21991,342.54119 785.62499,346.18648 C 783.03001,349.81117 779.50829,351.62352 775.05982,351.62352 C 770.73488,351.62352 767.27494,349.81117 764.68001,346.18648 C 762.08505,342.54119 760.78756,336.37303 760.78757,327.68198 C 760.78756,318.99097 762.08505,312.82282 764.68001,309.17748 C 767.27494,305.55284 770.73488,303.74049 775.05982,303.74044 M 798.90767,318.45491 C 798.90767,312.78594 800.18804,308.7682 802.74881,306.40169 C 805.30956,304.05287 808.76217,302.87846 813.10664,302.87842 C 814.51945,302.87846 816.02058,303.08155 817.61005,303.48772 C 819.19945,303.87627 820.55047,304.38842 821.66311,305.02417 L 821.66311,307.62025 C 820.19727,306.71959 818.98754,306.11031 818.03389,305.79239 C 816.39145,305.28027 814.81967,305.0242 813.31857,305.02417 C 809.04473,305.0242 805.98066,306.11914 804.12632,308.30901 C 802.27197,310.49892 801.3448,313.88088 801.3448,318.45491 C 801.3448,323.06428 802.27197,326.46391 804.12632,328.6538 C 805.98066,330.84369 809.04473,331.93863 813.31857,331.93863 C 814.73138,331.93863 816.12654,331.74437 817.50408,331.35585 C 818.89923,330.98498 820.28557,330.41985 821.66311,329.66044 L 821.66311,332.12407 C 820.30323,332.75984 818.89923,333.23668 817.45109,333.55456 C 815.98526,333.87245 814.53711,334.03139 813.10664,334.03139 C 808.76217,334.03139 805.30956,332.85698 802.74881,330.50814 C 800.18804,328.14165 798.90767,324.12392 798.90767,318.45491"
     style="fill:#bd0000;fill-opacity:1"
     id="path1308" />
</svg>
