<?xml version="1.0" encoding="UTF-8" standalone="no"?>
<!-- Created with Inkscape (http://www.inkscape.org/) -->
<svg
   xmlns:svg="http://www.w3.org/2000/svg"
   xmlns="http://www.w3.org/2000/svg"
   version="1.0"
   width="2137.5"
   height="900"
   id="svg2">
  <defs
     id="defs5" />
  <rect
     width="2137.5"
     height="900"
     x="0"
     y="0"
     style="opacity:1;color:#000000;fill:#ffffff;fill-opacity:1;fill-rule:nonzero;stroke:none;stroke-width:79.81600189;stroke-linecap:butt;stroke-linejoin:miter;marker:none;marker-start:none;marker-mid:none;marker-end:none;stroke-miterlimit:4;stroke-dasharray:none;stroke-dashoffset:0;stroke-opacity:1;visibility:visible;display:inline;overflow:visible"
     id="rect1334" />
  <path
     d="M 856.96381,401.90637 C 849.06921,402.31007 841.97321,408.24357 848.45861,415.82337 C 856.17991,423.31977 867.95471,417.10957 877.35981,416.94797 C 890.04581,416.17627 877.88171,400.25577 870.25191,401.23837 C 865.24811,400.79937 849.82761,405.17307 855.45361,395.45287 C 863.91391,387.15587 878.43501,388.53737 888.65871,392.72737 C 903.76391,398.43777 896.40231,417.87517 884.12661,421.99767 C 870.22201,428.57027 854.28421,431.71267 839.02391,429.64447 C 825.93711,424.25647 830.21471,405.00247 842.20451,400.92967 C 848.18771,398.12517 860.16001,388.48297 864.13421,395.82157 C 862.82131,398.91257 858.44821,398.92937 856.96381,401.90637 z M 913.19561,358.45067 C 906.60611,358.78767 900.68321,363.74017 906.09651,370.06687 C 912.54131,376.32397 922.36941,371.14047 930.21961,371.00557 C 940.80841,370.36137 930.65531,357.07297 924.28691,357.89307 C 920.11031,357.52667 907.23921,361.17737 911.93511,353.06407 C 918.99671,346.13879 931.11711,347.29189 939.65061,350.78917 C 952.25861,355.55557 946.11401,371.77947 935.86781,375.22047 C 924.26191,380.70647 910.95901,383.32937 898.22151,381.60307 C 887.29831,377.10577 890.86871,361.03497 900.87631,357.63547 C 905.87041,355.29467 915.86341,347.24647 919.18051,353.37187 C 918.08471,355.95187 914.43461,355.96587 913.19561,358.45067 z M 964.73191,322.102 C 959.18661,322.38558 954.20221,326.55335 958.75771,331.87755 C 964.18131,337.14318 972.45221,332.78101 979.05851,332.66749 C 987.96941,332.12542 979.42511,320.94258 974.06581,321.63273 C 970.55101,321.32439 959.71931,324.39658 963.67121,317.56891 C 969.61381,311.74095 979.81371,312.71133 986.99511,315.65447 C 997.60521,319.66559 992.43431,333.31879 983.81161,336.2145 C 974.04481,340.83124 962.84971,343.03856 952.13051,341.5858 C 942.93821,337.80112 945.94281,324.27674 954.36471,321.41592 C 958.56741,319.44602 966.97701,312.67311 969.76861,317.82793 C 968.84631,319.99908 965.77461,320.01086 964.73191,322.102 z M 1003.2556,291.49596 C 999.53751,291.6861 996.19541,294.48057 999.24991,298.05042 C 1002.8864,301.581 1008.432,298.65619 1012.8615,298.58007 C 1018.8362,298.21662 1013.1073,290.71858 1009.5139,291.18132 C 1007.1572,290.97458 999.89471,293.03447 1002.5443,288.45655 C 1006.5289,284.54893 1013.3679,285.19956 1018.1829,287.17293 C 1025.297,289.86236 1021.8299,299.01677 1016.0485,300.95833 C 1009.4998,304.05383 1001.9936,305.53383 994.80641,304.55976 C 988.64301,302.02215 990.65761,292.95412 996.30441,291.03595 C 999.12231,289.71514 1004.7609,285.17394 1006.6326,288.63022 C 1006.0143,290.08597 1003.9547,290.09386 1003.2556,291.49596 z M 639.63351,187.25834 C 632.09801,184.24588 622.81601,186.28753 625.44321,195.50738 C 629.25931,205.18164 643.02401,204.89335 651.85741,208.75444 C 664.02181,213.4904 659.86141,194.74498 652.31191,192.33861 C 647.84861,189.83678 631.51501,187.00924 641.13321,181.11406 C 652.75051,177.6374 665.65441,184.98935 673.29051,192.9086 C 684.78871,204.19967 669.17751,217.64158 655.88641,215.93689 C 639.97451,215.62858 623.71351,211.53129 610.43031,203.27951 C 600.66701,193.12152 613.32301,178.52472 626.32541,180.15019 C 633.16171,180.30311 648.65621,177.17275 649.05291,185.11929 C 646.43781,187.19632 642.35691,185.35128 639.63351,187.25834 z M 711.58321,174.1176 C 705.29351,171.60321 697.54601,173.30729 699.73891,181.00291 C 702.92411,189.0778 714.41331,188.83722 721.78631,192.05998 C 731.93971,196.01297 728.46701,180.36657 722.16561,178.35801 C 718.44021,176.2698 704.80691,173.9097 712.83511,168.98912 C 722.53181,166.08727 733.30231,172.22377 739.67601,178.83379 C 749.27341,188.25818 736.24301,199.47784 725.14921,198.055 C 711.86791,197.79765 698.29521,194.37771 687.20811,187.49018 C 679.05881,179.01151 689.62241,166.82788 700.47531,168.18461 C 706.18141,168.3123 719.11431,165.69943 719.44541,172.33221 C 717.26271,174.06585 713.85651,172.52589 711.58321,174.1176 z M 775.95851,165.03979 C 770.66551,162.9238 764.14561,164.35787 765.99111,170.83411 C 768.67151,177.62949 778.34021,177.42699 784.54501,180.13913 C 793.08941,183.46574 790.16711,170.29858 784.86411,168.60826 C 781.72911,166.85099 770.25601,164.86484 777.01201,160.72393 C 785.17231,158.28186 794.23621,163.44601 799.59991,169.00863 C 807.67651,176.9397 796.71091,186.38159 787.37491,185.18419 C 776.19801,184.96761 764.77611,182.08961 755.44571,176.29341 C 748.58771,169.1582 757.47751,158.90512 766.61081,160.04689 C 771.41271,160.1543 782.29631,157.95547 782.57491,163.53727 C 780.73811,164.99624 777.87161,163.70026 775.95851,165.03979 z M 825.62661,155.32528 C 822.07761,153.90652 817.70601,154.86803 818.94341,159.21034 C 820.74061,163.76662 827.22351,163.63088 831.38371,165.44933 C 837.11271,167.67978 835.15331,158.85128 831.59771,157.71795 C 829.49561,156.53966 821.80311,155.20799 826.33291,152.43151 C 831.80431,150.79414 837.88161,154.25667 841.47801,157.98637 C 846.89331,163.30413 839.54091,169.63485 833.28121,168.83203 C 825.78721,168.6868 818.12881,166.75713 811.87281,162.87077 C 807.27451,158.08664 813.23501,151.21199 819.35891,151.97756 C 822.57851,152.04959 829.87601,150.57527 830.06281,154.31785 C 828.83121,155.2961 826.90921,154.42712 825.62661,155.32528 z M 863.12141,148.09584 C 860.40301,147.0091 857.05451,147.74564 858.00221,151.07173 C 859.37891,154.56176 864.34461,154.45778 867.53141,155.85072 C 871.91961,157.55919 870.41881,150.79672 867.69531,149.9286 C 866.08511,149.02605 860.19271,148.00599 863.66251,145.87927 C 867.85351,144.62506 872.50871,147.27732 875.26341,150.13422 C 879.41151,154.20754 873.77961,159.05674 868.98471,158.44177 C 863.24451,158.33056 857.37821,156.85241 852.58631,153.87558 C 849.06411,150.21103 853.62991,144.94519 858.32051,145.53154 C 860.78671,145.58673 866.37651,144.45745 866.51961,147.3242 C 865.57611,148.07348 864.10391,147.40787 863.12141,148.09584 z M 944.07911,202.46502 C 1045.7339,241.82206 1136.4601,407.89387 1194.2697,491.32932 C 1237.1201,556.23292 1282.8087,556.07472 1348.1707,557.04262 C 1410.1137,557.13722 1472.3233,556.97152 1536.7308,566.29722 C 1671.2166,575.39722 1814.752,596.49332 1941.1324,536.37302 C 2040.5007,483.29864 2101.3335,346.81002 2055.4505,249.77039 C 2033.2918,162.1888 1947.0805,69.423251 1852.2109,63.426731 C 1753.381,34.603191 1555.6636,55.429311 1409.6408,53.728241 C 1358.8354,54.846331 1319.9661,48.517451 1264.0112,57.862941 C 1116.7883,64.946021 985.16901,154.37537 906.00991,216.21095 C 979.28931,113.70944 1196.0311,44.392101 1316.4082,41.094301 C 1435.5286,39.234931 1552.2117,53.106691 1679.1942,40.183061 C 1799.5322,32.303091 1928.1812,46.074111 2012.5412,139.25816 C 2087.4535,228.249 2114.3731,370.67497 2041.0409,468.49748 C 1975.417,557.89602 1858.925,595.40342 1751.3486,588.79472 C 1599.9602,587.77202 1449.3209,563.49772 1297.7811,570.56452 C 1203.7992,557.68322 1156.2404,467.76665 1118.6243,388.55209 C 1089.0114,329.12638 1006.7281,235.94308 944.07911,202.46502 z "
     style="fill:#040404;stroke:#040404"
     id="path1489" />
  <path
     d="M 1126.6979,125.41452 C 1125.6297,143.45825 1120.0647,161.97029 1123.0455,180.14589 C 1139.4483,213.06278 1168.5802,163.6366 1168.4313,145.12642 C 1178.4442,126.11398 1155.1781,121.93424 1163.0854,145.52593 C 1164.7124,174.81867 1120.8848,200.34809 1128.4166,160.11172 C 1129.392,148.38575 1133.62,137.58337 1132.4181,127.09305 C 1131.3732,125.2699 1128.5595,123.7815 1126.6979,125.41452 z M 1173.0504,166.82559 C 1157.8291,177.26507 1166.4819,204.19785 1181.2145,183.09999 C 1187.5451,212.866 1229.2221,162.32424 1198.5631,186.4838 C 1180.994,192.05807 1193.6901,153.18296 1178.586,177.49728 C 1159.6999,198.30497 1176.7041,172.12399 1173.0504,166.82559 M 1227.4596,149.20842 C 1216.5672,164.05539 1241.4036,158.87622 1227.4596,149.20842 z M 1210.9166,173.3783 C 1196.7055,186.20817 1219.2555,204.3351 1210.9166,173.3783 z M 1233.6901,134.27682 C 1226.5722,140.50046 1228.5855,153.94691 1224.0221,159.84322 C 1207.605,161.83073 1235.5204,165.15002 1223.4313,180.95159 C 1223.0372,202.64994 1230.2087,172.53645 1228.8805,164.3808 C 1232.1312,160.09975 1261.8557,162.25011 1244.862,157.80222 C 1221.5791,167.01102 1233.0949,144.92971 1234.8717,134.27682 L 1233.6901,134.27682 z M 1259.2028,156.51312 C 1231.8411,159.68799 1237.6891,208.7203 1264.7887,185.78559 C 1286.2481,170.09512 1270.2728,176.55702 1258.4048,185.08345 C 1222.2594,192.81068 1287.6845,161.14327 1260.7604,155.86862 L 1259.2028,156.51312 z M 1262.6403,161.18588 C 1255.8588,178.06827 1235.7235,179.13097 1255.4967,162.98528 C 1257.7007,158.99384 1260.184,160.34844 1262.6403,161.18588 z M 1308.0797,147.43591 C 1302.0825,165.71986 1286.6437,160.29753 1273.7584,173.32458 C 1258.4726,186.30596 1284.2989,197.81317 1294.3297,183.04629 C 1286.6445,218.69523 1334.2833,179.95106 1315.671,186.09144 C 1288.2975,207.35526 1302.7597,160.66396 1315.7604,150.92722 C 1316.2199,145.82605 1311.2457,144.82177 1308.0797,147.43591 z M 1308.778,153.77382 C 1312.3653,150.74213 1298.3684,170.01873 1308.778,153.77382 M 1290.7848,166.7719 C 1309.8956,177.37742 1255.9783,191.32356 1282.2179,171.55218 L 1286.4007,168.83977 L 1290.7848,166.77189 L 1290.7848,166.7719 z M 1323.1725,179.7699 C 1305.8599,190.63667 1339.2418,189.33585 1323.1725,179.76989 M 1337.567,179.7699 C 1320.2545,190.63661 1353.6363,189.33589 1337.567,179.76989 M 1351.9615,179.7699 C 1334.6491,190.63674 1368.0309,189.33577 1351.9616,179.76989 M 1418.402,162.47499 C 1401.2501,162.44084 1399.6693,177.33688 1389.1832,186.96719 C 1398.6883,155.64517 1371.6176,193.85 1391.1303,190.95524 C 1398.3788,167.6191 1410.0628,206.51757 1408.5729,179.66249 C 1399.6373,162.58099 1452.7376,162.13578 1418.402,162.47499 z M 1435.3746,156.51312 C 1408.0129,159.68802 1413.861,208.72029 1440.9606,185.78559 C 1462.42,170.09508 1446.4447,176.55705 1434.5766,185.08344 C 1398.4313,192.8107 1463.8562,161.14331 1436.9323,155.86862 L 1435.3746,156.51312 z M 1438.8121,161.18588 C 1432.0306,178.06823 1411.8955,179.13098 1431.6686,162.98528 C 1433.8726,158.99383 1436.3559,160.34843 1438.8121,161.18588 z M 1452.4547,120.68792 C 1442.696,134.04549 1451.3197,147.53093 1456.7516,124.98482 L 1454.6032,120.95652 L 1452.4547,120.68792 M 1470.985,139.32562 C 1467.3129,155.2747 1453.7799,172.40335 1461.693,188.7934 C 1474.0687,206.88705 1496.7291,165.93673 1471.6832,187.55799 C 1445.2602,181.40328 1491.3478,136.57827 1470.985,139.32562 z M 1495.2623,139.32562 C 1491.5902,155.27471 1478.0573,172.40335 1485.9703,188.7934 C 1498.346,206.88708 1521.0064,165.93671 1495.9606,187.55799 C 1469.5375,181.40331 1515.6252,136.57834 1495.2623,139.32562 z M 1548.9733,161.83049 C 1520.6567,164.61753 1565.7504,195.43362 1534.0953,182.34809 C 1547.4517,196.85925 1559.9246,182.66229 1542.4205,169.61859 C 1553.9704,154.24697 1547.7887,188.81954 1555.15,166.58394 L 1553.2702,163.81111 L 1548.9733,161.83049 M 1563.2067,140.72212 C 1559.7211,148.9731 1548.7195,184.18389 1561.4879,185.14099 C 1571.3497,176.45875 1585.4746,159.6034 1576.4464,185.68821 C 1584.3672,206.92895 1617.9217,157.53923 1588.4105,184.20109 C 1569.7027,194.68787 1598.2262,148.37639 1579.2125,161.72309 C 1567.5662,177.64278 1553.8854,183.80469 1563.2067,159.19862 C 1562.8928,153.36487 1568.2843,144.71181 1563.2067,140.72212 M 1623.4703,164.94569 C 1605.5406,172.31354 1606.3687,181.57479 1621.4293,171.49838 C 1612.7349,185.83969 1604.1855,181.73202 1601.0192,172.89489 C 1583.2788,201.89944 1644.5521,178.93586 1623.4703,164.94569 z M 1659.6715,162.47499 C 1642.5196,162.44087 1640.9388,177.33685 1630.4528,186.96719 C 1639.9577,155.64515 1612.8873,193.85002 1632.3998,190.95524 C 1639.6483,167.61912 1651.3323,206.51756 1649.8424,179.66249 C 1640.9069,162.58101 1694.0071,162.13578 1659.6715,162.47499 z M 1701.1901,134.27682 C 1694.0722,140.50046 1696.0855,153.94691 1691.5221,159.84322 C 1675.105,161.83073 1703.0204,165.15002 1690.9313,180.95159 C 1690.5372,202.64994 1697.7087,172.53645 1696.3805,164.3808 C 1699.6312,160.09975 1729.3557,162.25011 1712.362,157.80222 C 1689.0791,167.01102 1700.5949,144.92971 1702.3717,134.27682 L 1701.1901,134.27682 z M 1718.9684,140.72212 C 1715.4828,148.97321 1704.4812,184.18386 1717.2496,185.14099 C 1727.1114,176.45874 1741.2363,159.60341 1732.2081,185.68821 C 1740.129,206.92901 1773.6834,157.53923 1744.1722,184.20109 C 1725.4645,194.68791 1753.9879,148.37645 1734.9743,161.72309 C 1723.3279,177.64269 1709.6471,183.80477 1718.9684,159.19862 C 1718.6544,153.36487 1724.046,144.71178 1718.9684,140.72212 M 1770.316,156.51312 C 1742.9544,159.68805 1748.8024,208.72029 1775.902,185.78559 C 1797.3614,170.09509 1781.3861,176.55704 1769.518,185.08344 C 1733.3726,192.81069 1798.7977,161.14329 1771.8737,155.86862 L 1770.316,156.51312 z M 1773.7535,161.18588 C 1766.972,178.06823 1746.8369,179.13098 1766.61,162.98528 C 1768.814,158.99383 1771.2973,160.34843 1773.7535,161.18588 z M 1834.5006,165.26799 C 1832.5106,177.56372 1811.15,191.22777 1821.3952,170.69279 C 1810.8943,162.08004 1803.1345,209.19982 1815.111,185.78559 C 1826.4802,195.00112 1831.7303,166.2904 1837.025,185.19469 C 1849.3708,184.53965 1855.6619,175.49063 1839.6031,180.15938 C 1831.2871,176.30458 1842.3546,167.07302 1834.5006,165.26799 M 1861.5709,161.83049 C 1833.2544,164.61751 1878.3481,195.43363 1846.693,182.34809 C 1860.0493,196.85931 1872.5223,182.66227 1855.0182,169.61859 C 1866.5679,154.24699 1860.3865,188.81955 1867.7477,166.58394 L 1865.8678,163.81111 L 1861.5709,161.83049 M 1883.5387,156.51312 C 1856.1771,159.688 1862.0251,208.72029 1889.1246,185.78559 C 1910.5841,170.09512 1894.6088,176.55702 1882.7407,185.08344 C 1846.5953,192.81073 1912.0204,161.14327 1885.0963,155.86862 L 1883.5387,156.51312 z M 1886.9762,161.18588 C 1880.1947,178.06828 1860.0594,179.13095 1879.8327,162.98528 C 1882.0366,158.99385 1884.5199,160.34845 1886.9762,161.18588 z M 1898.0944,161.99159 C 1890.3194,171.80071 1897.9771,203.93185 1905.4527,176.05046 C 1926.5486,158.69147 1901.296,169.68055 1900.9948,169.34999 C 1904.0553,166.39284 1901.4609,161.82083 1898.0944,161.99159 M 1927.3131,161.83049 C 1898.9966,164.61753 1944.0902,195.43362 1912.4352,182.34809 C 1925.7915,196.85931 1938.2646,182.66227 1920.7604,169.61859 C 1932.3101,154.24698 1926.1287,188.81956 1933.4899,166.58394 L 1931.61,163.81111 L 1927.3131,161.83049 M 1208.0685,205.62129 C 1200.9506,211.84488 1202.9639,225.2914 1198.4005,231.18768 C 1181.9834,233.17532 1209.8988,236.49432 1197.8097,252.29609 C 1197.4156,273.99445 1204.5871,243.88095 1203.2589,235.7253 C 1206.5096,231.44425 1236.2342,233.59459 1219.2404,229.14669 C 1195.9575,238.3555 1207.4733,216.27418 1209.2501,205.62129 L 1208.0685,205.62129 z M 1225.8468,212.06659 C 1222.3612,220.31768 1211.3597,255.52836 1224.1281,256.4855 C 1233.9898,247.80322 1248.1148,230.94792 1239.0865,257.03271 C 1247.0074,278.27351 1280.5618,228.88374 1251.0506,255.54559 C 1232.3429,266.03235 1260.8663,219.72087 1241.8527,233.06759 C 1230.2063,248.98723 1216.5256,255.14921 1225.8468,230.54309 C 1225.5329,224.70934 1230.9244,216.05625 1225.8468,212.06659 z M 1276.1202,231.45619 C 1252.2204,235.03801 1259.1915,276.82874 1281.5451,255.03529 C 1298.4977,260.3392 1311.5821,234.25126 1290.0314,251.97379 C 1281.045,252.47743 1301.2682,227.88895 1285.7882,239.88879 C 1285.6461,234.88844 1281.1874,230.72321 1276.1203,231.45619 M 1275.9054,236.07539 C 1297.268,245.13705 1253.5877,272.19873 1266.6671,243.4338 L 1270.494,239.47263 L 1275.9054,236.07539 z M 1313.7716,205.62129 C 1306.6537,211.84487 1308.667,225.2914 1304.1036,231.18768 C 1287.6867,233.17527 1315.6019,236.49444 1303.5128,252.29609 C 1303.1188,273.99444 1310.2902,243.8809 1308.962,235.7253 C 1312.2127,231.44427 1341.9374,233.59457 1324.9435,229.14669 C 1301.6608,238.35546 1313.1763,216.2743 1314.9533,205.62129 L 1313.7716,205.62129 z M 1377.6876,203.36539 C 1365.8361,218.30547 1365.2194,237.91708 1358.4591,254.55189 C 1329.9178,252.01348 1342.769,266.19671 1358.8351,261.2121 C 1356.0875,279.39123 1351.9808,296.99885 1350.8322,305.63099 C 1359.9682,327.64972 1359.6539,292.5556 1361.0687,284.07752 C 1358.4269,265.05823 1368.8396,255.57421 1385.8183,252.84173 C 1401.0835,238.15889 1351.679,264.62905 1368.879,241.66129 C 1375.324,232.08936 1394.5391,206.79022 1378.0699,203.11739 L 1377.6876,203.36539 z M 1376.882,215.82629 C 1376.3138,224.425 1369.9644,228.732 1376.882,215.82629 M 1384.7775,233.33609 C 1377.0025,243.1452 1384.6602,275.27636 1392.1359,247.39497 C 1413.2317,230.03596 1387.9791,241.02504 1387.6779,240.69449 C 1390.7384,237.73733 1388.144,233.16533 1384.7775,233.33609 M 1415.9835,227.85759 C 1388.6218,231.03252 1394.4699,280.06482 1421.5695,257.13009 C 1443.0289,241.43957 1427.0536,247.90156 1415.1855,256.42793 C 1379.0401,264.15525 1444.4652,232.48774 1417.5411,227.21309 L 1415.9835,227.85759 z M 1419.421,232.5304 C 1412.6395,249.41279 1392.5042,250.47544 1412.2774,234.32978 C 1414.4814,230.33834 1416.9647,231.69296 1419.421,232.5304 z M 1443.0538,227.85759 C 1415.6921,231.0325 1421.5402,280.06482 1448.6398,257.13009 C 1470.0992,241.43959 1454.1239,247.90155 1442.2558,256.42793 C 1406.1105,264.15521 1471.5354,232.48779 1444.6115,227.21309 L 1443.0538,227.85759 z M 1446.4913,232.5304 C 1439.7098,249.41274 1419.5747,250.47547 1439.3478,234.32978 C 1441.5518,230.33831 1444.0351,231.69293 1446.4913,232.5304 z M 1491.9308,218.7804 C 1485.9336,237.06433 1470.4948,231.64205 1457.6095,244.66908 C 1442.3237,257.65049 1468.1499,269.15767 1478.1808,254.39079 C 1470.4955,290.03988 1518.1346,251.29531 1499.522,257.43598 C 1472.1485,278.69968 1486.6108,232.00835 1499.6115,222.27169 C 1500.071,217.17048 1495.0968,216.16626 1491.9308,218.7804 z M 1492.629,225.11829 C 1496.2162,222.08654 1482.2196,241.36326 1492.629,225.11829 M 1474.6359,238.11639 C 1493.7465,248.7219 1439.8295,262.66806 1466.069,242.89668 L 1470.2517,240.18427 L 1474.6359,238.11639 M 1523.9425,236.29019 C 1506.0128,243.65803 1506.8409,252.91925 1521.9015,242.8429 C 1513.2069,257.18436 1504.6579,253.07631 1501.4913,244.23939 C 1483.7509,273.24402 1545.0243,250.2803 1523.9425,236.29019 z M 1530.3341,240.90939 C 1515.3799,269.77124 1554.5234,249.49405 1557.8819,254.57879 C 1560.7937,275.90742 1595.6362,245.25763 1563.9035,257.72089 C 1570.7891,235.70082 1555.6971,244.67026 1546.4474,249.9865 C 1552.372,226.94772 1523.4407,266.97846 1536.3497,242.25209 C 1535.0297,237.4043 1532.5214,240.18767 1530.3341,240.90939 z M 1603.5958,240.90939 C 1588.6417,269.77134 1627.7852,249.49398 1631.1437,254.57879 C 1634.0555,275.9074 1668.8979,245.25763 1637.1652,257.72089 C 1644.0508,235.70083 1628.9589,244.67027 1619.7091,249.9865 C 1625.6337,226.94775 1596.7023,266.97844 1609.6115,242.25209 C 1608.2914,237.4043 1605.7831,240.18765 1603.5958,240.90939 z M 1662.6241,227.85759 C 1635.2625,231.03251 1641.1105,280.06481 1668.2101,257.13009 C 1689.6695,241.4396 1673.6942,247.90153 1661.8261,256.42793 C 1625.6807,264.15519 1691.1058,232.48777 1664.1818,227.21309 L 1662.6241,227.85759 z M 1666.0616,232.5304 C 1659.2801,249.41273 1639.145,250.47547 1658.9181,234.32978 C 1661.1221,230.33831 1663.6054,231.69293 1666.0616,232.5304 z M 1688.6202,231.45619 C 1664.7204,235.03801 1671.6915,276.82874 1694.0451,255.03529 C 1710.9977,260.3392 1724.0821,234.25126 1702.5314,251.97379 C 1693.545,252.47743 1713.7682,227.88895 1698.2882,239.88879 C 1698.1461,234.88844 1693.6874,230.72321 1688.6203,231.45619 M 1688.4054,236.07539 C 1709.768,245.13705 1666.0877,272.19873 1679.1671,243.4338 L 1682.994,239.47263 L 1688.4054,236.07539 z M 1720.2023,238.17009 C 1704.981,248.60958 1713.6336,275.54235 1728.3663,254.44449 C 1734.6968,284.21048 1776.3739,233.6688 1745.715,257.82828 C 1728.1458,263.4026 1740.8419,224.52751 1725.7378,248.84178 C 1706.8518,269.64946 1723.8559,243.46845 1720.2023,238.17009 M 1767.1993,233.17499 C 1738.8828,235.96203 1783.9765,266.77814 1752.3214,253.69259 C 1765.6778,268.20381 1778.1507,254.00677 1760.6466,240.96309 C 1772.1963,225.59147 1766.0149,260.16404 1773.3761,237.92844 L 1771.4962,235.15561 L 1767.1994,233.17499 M 1814.9484,231.45619 C 1791.0486,235.03804 1798.0196,276.82873 1820.3732,255.03529 C 1837.3258,260.33925 1850.4102,234.25125 1828.8595,251.97379 C 1819.8731,252.47745 1840.0963,227.88895 1824.6163,239.88879 C 1824.4743,234.8884 1820.0155,230.72322 1814.9484,231.45619 M 1814.7335,236.07539 C 1836.0961,245.13712 1792.4159,272.19872 1805.4952,243.4338 L 1809.3221,239.47263 L 1814.7335,236.07539 M 1850.3439,210.67009 C 1846.6718,226.61917 1833.1389,243.7478 1841.0519,260.13788 C 1853.4276,278.23163 1876.088,237.28118 1851.0421,258.90249 C 1824.619,252.74787 1870.7067,207.92276 1850.3439,210.67009 z M 1877.1993,233.17499 C 1848.8828,235.96203 1893.9765,266.77814 1862.3214,253.69259 C 1875.6778,268.20381 1888.1507,254.00677 1870.6466,240.96309 C 1882.1963,225.59147 1876.0149,260.16404 1883.3761,237.92844 L 1881.4962,235.15561 L 1877.1994,233.17499 M 1908.0831,236.29019 C 1890.1534,243.65801 1890.9815,252.91926 1906.0421,242.8429 C 1897.3477,257.1842 1888.7983,253.07651 1885.632,244.23939 C 1867.8916,273.24396 1929.1649,250.28035 1908.0831,236.29019 z M 1520.7323,286.76889 C 1507.2635,299.25416 1500.3236,340.23102 1529.5308,324.02086 C 1558.3048,309.2932 1527.2291,282.8927 1514.7167,310.99259 C 1506.7092,345.86562 1534.8976,276.43049 1536.6542,310.45547 C 1528.6409,335.52681 1498.8886,322.28609 1517.1203,301.53948 C 1517.8328,300.152 1530.3074,279.72492 1520.7323,286.76889 z M 1557.0946,297.6185 C 1529.7328,300.79375 1535.5811,349.82565 1562.6806,326.89099 C 1584.1401,311.20055 1568.1646,317.66248 1556.2966,326.18894 C 1520.1512,333.91623 1585.5763,302.24867 1558.6522,296.97399 L 1557.0946,297.6185 z M 1560.5321,302.29138 C 1553.7507,319.17376 1533.6153,320.2363 1553.3886,304.09074 C 1555.5925,300.09936 1558.0758,301.45396 1560.5321,302.29138 z M 1581.8553,275.3822 C 1574.7375,281.60586 1576.7508,295.0523 1572.1874,300.94858 C 1555.7704,302.93639 1583.6855,306.25527 1571.5966,322.05699 C 1571.2025,343.7554 1578.374,313.64182 1577.0457,305.48621 C 1580.2965,301.20531 1610.0211,303.35544 1593.0272,298.90759 C 1569.7444,308.11652 1581.2602,286.03506 1583.037,275.38219 L 1581.8553,275.3822 z M 1605.0585,275.3822 C 1597.9406,281.60585 1599.9539,295.0523 1595.3905,300.94858 C 1578.9734,302.93637 1606.8887,306.25528 1594.7997,322.05699 C 1594.4056,343.7554 1601.5771,313.64184 1600.2489,305.48621 C 1603.4996,301.20528 1633.2241,303.35549 1616.2304,298.90759 C 1592.9475,308.11653 1604.4633,286.03501 1606.2401,275.38219 L 1605.0585,275.3822 z M 1630.5712,297.6185 C 1603.2094,300.79366 1609.0576,349.82566 1636.1571,326.89099 C 1657.6166,311.2006 1641.6412,317.66245 1629.7732,326.18894 C 1593.6279,333.91619 1659.0529,302.24874 1632.1288,296.97399 L 1630.5712,297.6185 z M 1634.0087,302.29138 C 1627.2272,319.17373 1607.0919,320.23632 1626.8651,304.09074 C 1629.0691,300.09935 1631.5524,301.45394 1634.0087,302.29138 z M 1645.1268,303.09708 C 1637.3519,312.90637 1645.0095,345.0373 1652.4852,317.15592 C 1673.5811,299.79703 1648.3284,310.78615 1648.0272,310.45547 C 1651.0878,307.49836 1648.4933,302.92618 1645.1268,303.09709 M 1699.4823,299.87439 C 1686.9417,304.73965 1677.4804,327.03337 1688.412,338.12582 C 1713.103,333.16975 1694.534,359.26176 1696.0423,372.84171 C 1704.2778,381.16042 1705.0666,350.6501 1715.0585,342.7894 C 1727.051,325.54372 1716.4652,327.51659 1709.7411,343.05798 C 1694.2318,371.0454 1721.5986,314.75306 1696.8136,336.26692 C 1699.3054,334.68187 1722.4849,302.47744 1699.4823,299.87439 z M 1699.2137,303.25818 C 1724.718,313.32859 1673.9191,351.95833 1690.6468,314.22867 L 1694.2656,308.33725 L 1699.2138,303.25819 M 1744.5995,306.37338 C 1742.6095,318.66915 1721.249,332.33329 1731.494,311.79819 C 1720.9932,303.18569 1713.2334,350.30522 1725.2099,326.89099 C 1736.5791,336.10652 1741.8292,307.3959 1747.1239,326.3002 C 1759.4696,325.6451 1765.7608,316.59613 1749.702,321.26479 C 1741.3859,317.40988 1752.4535,308.17858 1744.5995,306.37339 M 1772.5829,301.21719 C 1748.6831,304.79899 1755.6542,346.58968 1778.0077,324.79629 C 1794.9604,330.10022 1808.0446,304.01214 1786.494,321.7348 C 1777.5077,322.23819 1797.7307,297.64994 1782.2509,309.64979 C 1782.1088,304.64938 1777.65,300.48424 1772.5829,301.21719 M 1772.368,305.8363 C 1793.7307,314.89807 1750.0503,341.95957 1763.1298,313.19475 L 1766.9567,309.23354 L 1772.3681,305.83629 M 1807.9784,280.431 C 1804.3064,296.38008 1790.7733,313.50876 1798.6864,329.8988 C 1811.0621,347.99255 1833.7225,307.04212 1808.6766,328.66349 C 1782.2536,322.50859 1828.3413,277.68363 1807.9784,280.431 z M 1842.246,290.3139 C 1831.3534,305.16092 1856.19,299.98159 1842.246,290.31389 M 1825.703,314.4838 C 1811.4918,327.31363 1834.0419,345.44057 1825.703,314.4838 z M 1848.4764,275.3822 C 1841.3586,281.60587 1843.3719,295.05231 1838.8085,300.94858 C 1822.3914,302.93636 1850.3066,306.25528 1838.2177,322.05699 C 1837.8236,343.7554 1844.9951,313.64182 1843.6668,305.48621 C 1846.9176,301.20531 1876.6422,303.35544 1859.6483,298.90759 C 1836.3655,308.1165 1847.8813,286.03508 1849.6581,275.38219 L 1848.4764,275.3822 z M 1891.66,305.9975 C 1882.2643,308.05242 1874.2207,323.60742 1866.7919,320.98279 C 1873.8588,293.29366 1852.7454,323.36253 1850.4638,332.79919 C 1861.2808,323.64819 1859.4104,318.06518 1869.9071,326.6225 C 1882.5876,315.57429 1897.4925,304.76004 1886.0204,328.6098 C 1882.3584,346.52067 1875.6634,365.66196 1877.2387,383.58287 C 1883.7327,375.07773 1883.2182,356.35555 1886.5575,343.70248 C 1887.2706,331.21872 1899.157,314.73212 1892.2887,305.74125 L 1892.1971,305.72888 L 1891.66,305.9975 z M 1929.7948,320.8754 C 1912.4823,331.74197 1945.8641,330.44133 1929.7948,320.87539 L 1929.7948,320.8754 z M 1229.4641,406.32709 C 1221.9214,408.4861 1191.1529,432.82546 1213.4549,421.7556 C 1239.5088,404.74721 1214.4343,442.48154 1222.2131,445.37499 C 1221.2009,461.16901 1208.6642,481.22636 1232.5349,470.37993 C 1259.3514,472.70402 1278.6738,428.25314 1240.26,434.04199 C 1262.4731,425.21309 1263.1933,402.87964 1238.7024,409.44229 C 1233.7664,410.28263 1231.843,411.09276 1229.4641,406.32709 M 1245.6848,413.41699 C 1269.0204,413.17614 1218.9277,448.02004 1229.7864,424.9111 C 1227.9751,412.1429 1236.8711,414.23242 1245.6848,413.41699 M 1247.135,439.09079 C 1281.5629,445.89982 1216.8458,484.91535 1226.1877,453.0556 C 1223.5642,436.9345 1235.6036,440.06053 1247.135,439.09079 z M 1278.9856,437.0498 C 1251.6239,440.22459 1257.4721,489.25714 1284.5715,466.32219 C 1306.0311,450.63179 1290.0557,457.09374 1278.1876,465.62013 C 1242.0422,473.34739 1307.4673,441.68001 1280.5432,436.40519 L 1278.9856,437.0498 z M 1282.4231,441.7226 C 1275.6416,458.60494 1255.5063,459.66763 1275.2796,443.52198 C 1277.4835,439.53053 1279.9668,440.88515 1282.4231,441.7226 z M 1323.2434,443.01169 C 1306.0916,442.9775 1304.5107,457.87346 1294.0247,467.50389 C 1303.5296,436.18178 1276.4591,474.38676 1295.9717,471.4919 C 1303.2202,448.15592 1314.9042,487.05413 1313.4143,460.19919 C 1304.4787,443.11766 1357.579,442.67243 1323.2434,443.01169 z M 1339.1418,440.64838 C 1315.242,444.23023 1322.2132,486.02085 1344.5667,464.22749 C 1361.5193,469.53148 1374.6036,443.44331 1353.053,461.16599 C 1344.0666,461.66961 1364.2898,437.08102 1348.8098,449.08099 C 1348.6677,444.08064 1344.209,439.91541 1339.1419,440.64839 M 1338.927,445.26749 C 1360.2897,454.32926 1316.6093,481.39076 1329.6887,452.62595 L 1333.5156,448.66474 L 1338.927,445.26749 z M 1366.5881,442.52829 C 1358.8132,452.33754 1366.4708,484.46855 1373.9465,456.58713 C 1395.0424,439.22819 1369.7897,450.21733 1369.4885,449.88669 C 1372.5491,446.92955 1369.9546,442.3574 1366.5881,442.52829 M 1397.7942,437.0498 C 1370.4324,440.22452 1376.2806,489.25716 1403.3801,466.32219 C 1424.8397,450.63178 1408.8642,457.09375 1396.9962,465.62013 C 1360.8509,473.34739 1426.2759,441.68002 1399.3518,436.40519 L 1397.7942,437.0498 z M 1401.2317,441.7226 C 1394.4502,458.60493 1374.3149,459.66765 1394.0881,443.52198 C 1396.2921,439.53052 1398.7754,440.88515 1401.2317,441.7226 z M 1418.2043,456.60049 C 1408.269,465.28668 1421.6742,494.57155 1421.3465,463.69044 C 1424.2704,460.78407 1421.3633,455.82186 1418.2043,456.60049 z M 1461.0657,421.58099 C 1454.4555,435.82175 1457.0541,452.69185 1446.3758,465.27485 C 1438.2703,476.11432 1429.7949,531.23197 1443.5559,516.21967 C 1448.7548,495.96435 1453.4619,475.54297 1457.3596,455.25778 C 1468.4516,438.39921 1456.6307,481.38549 1469.4446,454.61319 C 1463.665,441.75903 1452.9705,441.79059 1466.0071,423.19229 C 1465.5554,419.80334 1463.2919,419.29954 1461.0657,421.58099 z M 1451.344,465.89249 C 1448.4116,478.83981 1446.854,495.14121 1441.1389,504.99408 C 1442.3434,492.0153 1444.1733,473.28442 1451.344,465.89249 z M 1478.7366,442.52829 C 1470.9615,452.33738 1478.6193,484.46859 1486.095,456.58713 C 1507.1908,439.22818 1481.9381,450.21733 1481.637,449.88669 C 1484.6974,446.92964 1482.1031,442.35743 1478.7366,442.52829 M 1518.8586,445.48239 C 1500.9289,452.85018 1501.757,462.11143 1516.8176,452.0351 C 1508.1232,466.37639 1499.5738,462.26872 1496.4075,453.43159 C 1478.6671,482.436 1539.9403,459.47242 1518.8586,445.48239 z M 1531.1047,421.58099 C 1524.4946,435.82175 1527.0932,452.69181 1516.4148,465.27485 C 1508.3094,476.11439 1499.834,531.23196 1513.595,516.21967 C 1518.7939,495.96435 1523.501,475.543 1527.3987,455.25778 C 1538.4907,438.39922 1526.6695,481.38547 1539.4837,454.61319 C 1533.7041,441.75905 1523.0095,441.79054 1536.0462,423.19229 C 1535.5945,419.80329 1533.331,419.29958 1531.1047,421.58099 z M 1521.3831,465.89249 C 1518.4506,478.83978 1516.8931,495.14119 1511.178,504.99408 C 1512.3823,492.01529 1514.2124,473.28442 1521.3831,465.89249 z M 1548.7756,442.52829 C 1541.0007,452.33754 1548.6583,484.46855 1556.134,456.58713 C 1577.2299,439.22819 1551.9772,450.21733 1551.676,449.88669 C 1554.7366,446.92955 1552.1421,442.3574 1548.7756,442.52829 M 1585.4065,429.74509 C 1574.5141,444.59204 1599.3505,439.4129 1585.4065,429.74509 z M 1568.8635,453.91498 C 1554.6524,466.74471 1577.2024,484.87187 1568.8635,453.91498 z M 1593.9465,437.0498 C 1566.5847,440.22461 1572.433,489.25714 1599.5325,466.32219 C 1620.9919,450.63175 1605.0165,457.09377 1593.1485,465.62013 C 1557.0032,473.34737 1622.4281,441.68006 1595.5042,436.40519 L 1593.9465,437.0498 z M 1597.384,441.7226 C 1590.6025,458.6049 1570.4674,459.66765 1590.2405,443.52198 C 1592.4445,439.53051 1594.9278,440.88513 1597.384,441.7226 z M 1618.7073,414.81339 C 1611.5894,421.03706 1613.6027,434.48348 1609.0393,440.37979 C 1592.6222,442.36761 1620.5375,445.68648 1608.4485,461.48819 C 1608.0544,483.18663 1615.2259,453.07303 1613.8977,444.91739 C 1617.1486,440.63644 1646.8729,442.78677 1629.8792,438.33879 C 1606.5963,447.54771 1618.1121,425.46623 1619.8889,414.81339 L 1618.7073,414.81339 z M 1643.1458,440.64838 C 1619.246,444.23022 1626.2171,486.02085 1648.5706,464.22749 C 1665.5232,469.53148 1678.6075,443.44331 1657.0569,461.16599 C 1648.0705,461.66962 1668.2938,437.08102 1652.8137,449.08099 C 1652.6716,444.08064 1648.2129,439.91541 1643.1458,440.64839 M 1642.9309,445.26749 C 1664.2936,454.32931 1620.6132,481.39076 1633.6926,452.62595 L 1637.5195,448.66474 L 1642.9309,445.26749 z M 1670.592,442.52829 C 1662.8171,452.33748 1670.4747,484.46857 1677.9504,456.58713 C 1699.0463,439.22819 1673.7936,450.21734 1673.4924,449.88669 C 1676.5529,446.92967 1673.9586,442.35741 1670.5921,442.52829 M 1719.469,445.42868 C 1710.0732,447.48363 1702.0297,463.03859 1694.6008,460.414 C 1701.6678,432.72485 1680.5544,462.79375 1678.2727,472.23039 C 1689.0899,463.0793 1687.2193,457.4965 1697.7161,466.05368 C 1710.3965,455.0056 1725.3014,444.19126 1713.8293,468.04099 C 1710.1673,485.95188 1703.4725,505.09312 1705.0476,523.0141 C 1711.5417,514.50887 1711.0272,495.7868 1714.3665,483.1337 C 1715.0796,470.64993 1726.9661,454.16322 1720.0976,445.17246 L 1720.0061,445.1601 L 1719.469,445.42868 z M 1763.6194,442.3671 C 1735.3029,445.1541 1780.3964,475.97036 1748.7415,462.88469 C 1762.0975,477.39601 1774.5709,463.19897 1757.0667,450.15519 C 1768.6164,434.78364 1762.4349,469.35611 1769.7962,447.12058 L 1767.9163,444.34773 L 1763.6194,442.36709 M 1794.5032,445.48239 C 1776.5733,452.85016 1777.4015,462.11145 1792.4622,452.0351 C 1783.7678,466.37637 1775.2183,462.26874 1772.052,453.43159 C 1754.3116,482.43612 1815.585,459.47229 1794.5032,445.48239 z M 1825.0647,412.55759 C 1813.2133,427.4977 1812.5964,447.10921 1805.8362,463.74409 C 1777.2949,461.2056 1790.1461,475.38882 1806.2122,470.4043 C 1803.4645,488.58331 1799.358,506.19089 1798.2092,514.82319 C 1807.3454,536.8418 1807.0309,501.74772 1808.4458,493.26972 C 1805.804,474.25046 1816.2167,464.76632 1833.1954,462.03393 C 1848.4606,447.35109 1799.0561,473.82122 1816.2561,450.85349 C 1822.701,441.28154 1841.9162,415.98242 1825.447,412.30958 L 1825.0647,412.55759 z M 1824.259,425.01849 C 1823.6907,433.61747 1817.3417,437.92373 1824.259,425.01849 M 1842.3596,414.81339 C 1835.2418,421.03703 1837.2551,434.48351 1832.6917,440.37979 C 1816.2746,442.3676 1844.1898,445.68651 1832.1008,461.48819 C 1831.7069,483.18662 1838.8782,453.07298 1837.55,444.91739 C 1840.801,440.63647 1870.5253,442.78671 1853.5315,438.33879 C 1830.2487,447.54769 1841.7643,425.46631 1843.5413,414.81339 L 1842.3596,414.81339 z M 1885.0598,443.01169 C 1867.908,442.97753 1866.3271,457.87348 1855.8411,467.50389 C 1865.346,436.18178 1838.2755,474.38676 1857.7881,471.4919 C 1865.0366,448.15592 1876.7206,487.05413 1875.2307,460.19919 C 1866.2951,443.11766 1919.3954,442.67243 1885.0598,443.01169 z M 1900.9583,440.64838 C 1877.0585,444.23022 1884.0296,486.02085 1906.3831,464.22749 C 1923.3357,469.53148 1936.42,443.44331 1914.8694,461.16599 C 1905.883,461.66962 1926.1063,437.08102 1910.6262,449.08099 C 1910.4841,444.08064 1906.0254,439.91541 1900.9583,440.64839 M 1900.7434,445.26749 C 1922.1061,454.32931 1878.4257,481.39076 1891.5051,452.62595 L 1895.332,448.66474 L 1900.7434,445.26749 z M 1928.4045,442.52829 C 1920.6296,452.33748 1928.2872,484.46857 1935.7629,456.58713 C 1956.8588,439.22819 1931.6061,450.21734 1931.3049,449.88669 C 1934.3654,446.92967 1931.7711,442.35741 1928.4046,442.52829 M 1959.6106,437.0498 C 1932.2489,440.22459 1938.0971,489.25714 1965.1965,466.32219 C 1986.6561,450.63179 1970.6807,457.09374 1958.8126,465.62013 C 1922.6672,473.34739 1988.0923,441.68001 1961.1682,436.40519 L 1959.6106,437.0498 z M 1963.0481,441.7226 C 1956.2666,458.60494 1936.1313,459.66763 1955.9046,443.52198 C 1958.1085,439.53053 1960.5918,440.88515 1963.0481,441.7226 z M 1984.4788,403.6416 C 1982.684,419.89763 1982.6262,436.68253 1979.2688,452.67959 C 1990.1239,459.35889 1981.7604,426.36112 1987.9163,416.58588 C 1985.8557,413.3614 1993.8487,395.09868 1984.4788,403.6416 z M 1975.9924,468.63177 C 1962.5301,476.39517 1986.397,477.82628 1975.9924,468.63179 M 1035.5573,774.12201 C 994.5751,775.82759 983.31315,862.1119 1034.0726,833.9325 C 1035.3934,831.41469 1059.8216,845.88426 1044.2047,828.79974 C 1043.2065,817.42876 1062.9414,792.72092 1039.3708,801.13861 C 1020.5174,800.60274 1002.1178,815.23476 1031.0457,808.12103 C 1061.7963,799.41119 1024.7745,847.98297 1007.5739,831.00188 C 986.79453,811.63701 1032.3419,760.68647 1048.9363,788.75994 C 1057.4996,808.04347 1053.7596,763.12693 1035.5573,774.122 M 1096.734,769.44916 C 1093.3079,784.06253 1094.6157,801.0087 1091.0406,817.84271 C 1091.825,839.87389 1078.4525,818.44555 1074.9811,809.62494 C 1063.5924,796.80047 1075.5097,782.3977 1062.7887,782.76946 C 1053.4772,785.29195 1069.2186,805.14849 1060.2643,817.57416 C 1058.7935,825.6743 1045.674,861.5597 1059.0827,840.77728 C 1061.4098,829.41609 1064.5077,813.15146 1067.3004,804.57611 C 1072.9504,815.28473 1079.0486,826.83485 1087.3883,835.67474 C 1095.127,854.37379 1093.1556,829.07374 1095.2838,816.17767 C 1096.9825,800.83555 1100.0631,783.9194 1099.2585,770.03998 L 1097.5934,769.44916 L 1096.734,769.44916 z M 1103.0182,772.88666 C 1102.5218,792.42822 1093.8732,813.30949 1101.5277,832.47896 C 1123.6143,855.17337 1142.6543,807.48128 1146.0835,790.78723 C 1150.0044,764.10908 1132.19,779.52054 1137.8967,799.43331 C 1135.8328,830.28767 1095.0295,842.02433 1105.3815,805.86517 C 1103.4531,795.71326 1116.9411,773.92053 1103.0182,772.88666 z M 1197.7643,769.77142 C 1179.2951,794.4309 1156.5893,816.62716 1136.3727,840.13274 C 1143.9114,856.50752 1153.5586,818.21736 1166.236,814.56634 C 1177.7334,800.11564 1192.7682,785.69913 1201.1346,770.44288 L 1199.0534,769.44915 L 1197.7643,769.77142 z M 1216.0797,767.73041 C 1209.4214,781.07482 1207.806,800.39773 1202.1963,816.18703 C 1195.9107,833.42763 1194.9454,848.39854 1217.1541,841.58295 C 1228.5143,837.28144 1241.9724,839.03809 1252.818,833.20404 C 1243.9185,826.51538 1229.9902,835.56113 1219.0059,835.27219 C 1204.6737,839.74923 1200.8095,831.21265 1206.6266,819.45404 C 1209.7779,803.08299 1217.298,786.02394 1218.8995,769.93262 L 1216.402,767.7304 L 1216.0797,767.73041 z M 1274.6783,796.6806 C 1260.6856,813.72123 1291.6447,805.05817 1274.6784,796.6806 M 1258.1354,820.85052 C 1244.9018,837.83059 1267.6315,842.74075 1258.7799,820.85052 L 1258.1354,820.85052 z M 1274.8395,814.29779 C 1260.1684,823.74024 1267.5662,852.93985 1283.0036,830.5722 C 1289.2183,860.49801 1331.184,809.62418 1300.3522,833.95599 C 1282.3562,837.26156 1294.4757,800.13104 1277.6459,828.0881 C 1262.4206,842.76032 1279.9087,816.15161 1274.8395,814.29778 M 1334.0826,812.74017 C 1325.4007,830.61424 1315.9415,834.0939 1317.862,815.58685 C 1308.8949,825.44769 1302.0439,849.39772 1319.1678,834.67438 C 1331.8952,815.895 1336.7899,840.66612 1349.6051,826.40963 C 1332.6218,834.67688 1339.5895,818.14866 1334.0827,812.74017 M 1369.7467,812.95502 C 1362.9166,813.0278 1356.2082,825.00205 1350.1422,811.98821 C 1361.577,819.78039 1338.0615,841.16841 1352.8278,832.45209 C 1372.7608,834.25985 1350.6231,828.65468 1369.7467,812.95501 L 1369.7467,812.95502 z M 1379.9518,807.10052 C 1369.2038,811.02826 1391.7044,824.31866 1379.9518,807.10052 z M 1377.6422,827.56439 C 1364.3681,837.52696 1389.8353,833.42784 1377.6422,827.56438 M 1426.2506,793.13568 C 1408.2769,808.62906 1411.7044,853.91513 1440.8734,825.37569 C 1468.5424,793.68266 1404.4929,806.95603 1421.6852,828.90717 C 1427.1743,789.95353 1460.9984,820.72844 1424.0619,832.12984 C 1402.8268,827.76534 1438.8998,790.81288 1426.2506,793.13568 z M 1462.6129,803.98529 C 1430.5835,810.35813 1446.7193,857.97982 1471.8085,830.57629 C 1492.4405,809.91103 1461.3991,838.27548 1451.3874,834.17083 C 1440.8419,829.28998 1494.2042,804.44341 1462.6129,803.98529 z M 1466.0504,808.65814 C 1451.9489,834.63522 1435.713,821.07382 1466.0504,808.65814 z M 1490.1667,809.08783 C 1455.1381,820.32477 1478.384,861.8388 1504.2658,831.99555 C 1524.9085,811.44781 1465.1091,857.64243 1479.4245,823.75091 C 1496.8538,798.71158 1483.9917,844.60543 1497.1356,814.00242 L 1495.3061,810.75961 L 1490.1667,809.08782 M 1518.902,807.58392 C 1485.1441,825.66911 1515.7681,846.90892 1538.436,829.55171 C 1563.5549,807.15904 1511.5546,844.27432 1536.1432,815.15716 C 1526.3569,811.98489 1533.9015,815.42783 1518.902,807.58392 M 1518.6873,812.20306 C 1541.1818,826.76538 1488.9298,844.96962 1513.2758,815.6003 L 1518.6872,812.20306 M 1569.1217,812.74017 C 1560.4398,830.61432 1550.9806,834.09377 1552.901,815.58685 C 1543.9341,825.44778 1537.0828,849.39766 1554.2069,834.67438 C 1566.9343,815.89495 1571.829,840.66617 1584.6442,826.40963 C 1567.6608,834.67688 1574.6286,818.14869 1569.1217,812.74017 z M 1596.192,809.30267 C 1570.394,814.93482 1609.6976,840.41937 1582.066,831.539 C 1601.0202,844.16236 1602.4985,828.01394 1590.3376,815.64056 C 1599.7741,808.2155 1600.7727,832.3426 1600.4889,811.28329 L 1596.192,809.30267 M 1618.1598,803.98529 C 1586.1303,810.3581 1602.2662,857.97985 1627.3554,830.57628 C 1647.9874,809.91101 1616.9459,838.27557 1606.9342,834.17083 C 1596.3891,829.28992 1649.751,804.44342 1618.1598,803.98529 z M 1621.5973,808.65814 C 1607.496,834.63504 1591.2595,821.07411 1621.5973,808.65814 z M 1683.6335,779.4931 C 1671.7227,794.41719 1671.2233,814.06685 1664.4049,830.67962 C 1636.6792,828.42912 1648.4377,842.17213 1664.7809,837.33978 C 1664.8593,860.12427 1646.8476,881.93854 1664.4049,888.41888 C 1666.319,870.70286 1666.6207,853.15996 1670.4206,835.56731 C 1689.4383,833.90904 1707.3714,817.14531 1675.7916,828.20894 C 1664.8446,817.93008 1698.2655,797.22745 1689.5954,779.11712 C 1687.1287,776.52781 1685.4385,778.33518 1683.6335,779.4931 z M 1682.8278,791.95404 C 1682.9025,802.22761 1675.8603,801.06142 1682.8278,791.95403 M 1690.7233,809.46381 C 1682.0737,823.97486 1692.5052,850.27881 1700.7941,819.28957 C 1719.5746,800.05377 1684.4489,828.97688 1694.2682,811.39739 L 1690.7233,809.4638 M 1721.9294,803.98529 C 1689.9,810.358 1706.0356,857.97979 1731.125,830.57635 C 1751.7568,809.91096 1720.7156,838.2755 1710.7038,834.17083 C 1700.1583,829.2899 1753.5207,804.44361 1721.9294,803.98529 z M 1725.3669,808.65814 C 1711.2654,834.63501 1695.0291,821.07405 1725.3669,808.65814 z M 1748.9998,803.98529 C 1716.9703,810.35793 1733.1058,857.97982 1758.1953,830.57636 C 1778.8271,809.91095 1747.7859,838.27555 1737.7741,834.17083 C 1727.2286,829.2899 1780.591,804.44361 1748.9998,803.98529 z M 1752.4373,808.65814 C 1738.3357,834.63498 1722.0994,821.0741 1752.4373,808.65814 z M 1797.8766,794.90814 C 1791.8136,813.20402 1776.4722,807.77058 1763.5553,820.79681 C 1744.3189,843.49771 1787.7452,830.22047 1784.4455,838.05146 C 1796.6457,863.69167 1824.9756,811.26878 1795.6208,841.52923 C 1767.6731,833.06159 1822.8145,793.88278 1797.8766,794.90814 z M 1798.575,801.24603 C 1802.1617,798.21418 1788.1655,817.49104 1798.5749,801.24603 M 1780.5817,814.24408 C 1797.8465,828.83113 1742.9036,834.99475 1776.1976,816.31197 L 1780.5817,814.24407 M 1829.8883,812.41791 C 1812.2712,819.62877 1812.3436,829.31272 1827.8473,818.97064 C 1817.8655,843.53628 1800.9853,806.76935 1806.4167,832.82806 C 1815.9462,840.33995 1845.5639,821.06303 1829.8883,812.41791 z M 1836.2799,817.03705 C 1820.667,852.85659 1869.5098,813.18805 1866.64,838.3603 C 1885.3659,838.76234 1887.6801,827.12611 1870.1715,833.15033 C 1880.3488,800.98471 1847.9615,838.51761 1853.4137,818.37981 C 1839.5675,821.92525 1839.2909,834.7673 1839.2878,815.69427 L 1837.2348,816.61077 L 1836.2799,817.03705 z M 1909.5417,817.03705 C 1893.9284,852.85664 1942.7716,813.18802 1939.9017,838.3603 C 1958.6279,838.7623 1960.9415,827.12616 1943.4333,833.15033 C 1953.6104,800.98474 1921.2233,838.51756 1926.6754,818.37981 C 1912.8292,821.9252 1912.5527,834.76734 1912.5495,815.69427 L 1910.4965,816.61081 L 1909.5417,817.03705 z M 1967.4958,807.58392 C 1933.7379,825.66892 1964.3618,846.909 1987.0297,829.55171 C 2012.1486,807.15903 1960.1483,844.27433 1984.737,815.15716 C 1974.9507,811.98485 1982.495,815.42786 1967.4958,807.58392 M 1967.2809,812.20306 C 1989.7756,826.76514 1937.5236,844.96976 1961.8695,815.6003 L 1967.2809,812.20306 M 2005.1471,781.74896 C 1995.4983,787.90055 2003.6965,809.73251 1989.8932,807.58392 C 2000.4359,806.8687 1992.3227,829.91988 1996.5533,836.69525 C 2004.2396,828.84394 1992.6144,806.59822 2009.3114,809.37772 C 2039.7587,803.72198 1999.8984,811.33322 2001.7223,800.77815 C 2000.2612,794.63435 2011.7724,784.73884 2005.1471,781.74896 z M 2028.3503,781.74896 C 2018.7014,787.90049 2026.8996,809.73257 2013.0963,807.58392 C 2023.6393,806.86863 2015.5258,829.92011 2019.7565,836.69525 C 2027.4428,828.84382 2015.8173,806.59821 2032.5145,809.37772 C 2062.9618,803.72198 2023.1015,811.33322 2024.9255,800.77815 C 2023.4647,794.63436 2034.9752,784.73918 2028.3503,781.74896 z M 2053.8628,803.98529 C 2021.8333,810.35825 2037.9695,857.97984 2063.0585,830.57624 C 2083.6906,809.91107 2052.6492,838.27549 2042.6374,834.17083 C 2032.092,829.29002 2085.4544,804.44321 2053.8628,803.98529 z M 2057.3003,808.65814 C 2043.1986,834.63545 2026.9634,821.07356 2057.3003,808.65814 z M 2068.4187,809.46381 C 2059.769,823.97456 2070.2006,850.27899 2078.4894,819.28957 C 2097.27,800.05379 2062.1443,828.97686 2071.9635,811.39739 L 2068.4186,809.4638 M 2097.6375,809.30267 C 2071.8393,814.93469 2111.1428,840.41941 2083.5115,831.539 C 2102.4658,844.16249 2103.9436,828.01377 2091.783,815.64056 C 2101.2196,808.21542 2102.2178,832.34267 2101.9342,811.28329 L 2097.6374,809.30267 M 2111.6023,827.24213 C 2093.2801,839.7327 2128.2589,835.86033 2111.6022,827.24212"
     style="font-size:110px;font-style:normal;font-variant:normal;font-weight:normal;font-stretch:normal;text-align:start;line-height:100%;writing-mode:lr-tb;text-anchor:start;fill:#000000;fill-opacity:1;stroke:none;stroke-width:1px;stroke-linecap:butt;stroke-linejoin:miter;stroke-opacity:1;font-family:NewUnicodeFont"
     id="text3706" />
  <g
     transform="matrix(1.433853,0,0,1.433853,-6.491634,-5.048713)"
     id="g1388">
    <path
       d="M 339,78 L 337,80 L 333.25,78.75 L 342,69 C 343.885,69.1397 341.8603,67.115 342,69 L 339.25,69.25 C 333.369,76.088 324.94,79.146 317,82 L 312.25,81.25 L 301.25,91.25 L 299.25,93.25 L 293.75,98.75 L 282,101 L 280,100 L 278.25,101.25 C 275.68,105.845 277.173,111.37 279.25,115.75 L 281,116 L 282.75,115.75 C 280.115,112.802 278.17,109.086 280.25,105.25 L 283.25,111.75 L 298.75,102.75 L 301.75,99.75 L 308.25,90.25 L 313.25,86.25 L 330.25,79.25 L 331.75,79.25 C 330,85.231 323.546,87.044 318.25,88.25 L 318.75,90.75 C 316.581,90.866 314.046,90.9722 315,94 L 312,96 L 310.25,96.75 L 312,96 C 313.425,96.2121 315.671,96.1135 315,94 L 320,93 L 320.25,94.75 L 322.75,94.75 L 327.25,89.25 L 328.75,88.75 L 334.75,82.75 L 337,80 L 339,78 L 345.75,74.25 L 343.75,78.75 L 341.75,80.75 L 335.25,85.25 L 331.25,90.25 L 327.25,96.25 L 321.25,102.25 L 320.25,104.25 L 321.75,110.75 C 319.272,112.821 317.434,115.655 318,119 C 316.115,118.8603 318.1397,120.885 318,119 L 324.25,114.25 C 328.663,112.382 330.217,107.213 332.25,103.25 L 335.75,100.25 L 334.25,112.75 L 338.75,108.25 L 337.25,112.25 L 339,117 C 335.609,121.038 333.86,127.05 334.75,131.75 C 329.105,137.425 324.2,143.22 316.25,146.25 C 319.021,153.992 307.947,157.93 303,158 C 302.3641,161.1 306.275,159.702 308,160 L 323.75,150.25 L 323,155 C 329.421,155.754 323.3947,164.73 318.25,165.25 C 318.7485,168.544 312.539,174.212 311.25,169.75 L 307.25,165.25 L 314,165 C 317.955,165.8687 323.241,159.775 317,159 C 311.997,162.787 297.64,165.71 300.75,155.75 L 309.75,152.75 L 299.25,147.25 C 312.17,148.627 324.17,140.719 330.75,130.25 L 321.25,133.25 C 327.706,129.405 332.68,123.715 336,117 L 331.75,112.25 C 322.422,124.48 306,133.16 290.25,127.75 C 289.547,126.121 289.8605,122.904 292,125 C 299.036,130.99 324.92,121.067 308.75,115.25 L 307.75,111.25 L 284.25,119.25 L 286,124 L 288.25,128.75 C 289.809,134.279 295.539,136.888 300,138 C 297.981,140.516 293.613,138.4098 291.25,137.25 C 291.038,141.716 297.265,142.761 301,143 L 293.25,145.25 C 297.109,156 299.354,168.15 308.75,175.75 L 308.75,169.25 C 309.353,172.716 312.864,173.274 315.75,173.25 C 311.422,177.467 319.088,181.629 321.25,176.25 C 338.02,155.93 355.4,135.97 378.25,121.25 L 383,121 C 394.7,138.37 394.88,162.54 391.25,182.75 L 407.25,196.75 C 415.328,194.661 423.88,198.359 430,204 C 437.121,201.323 445.39,198.969 452.75,199.75 C 457.582,194.107 463.14,189.46 470,188 C 486.94,198.87 504.14,209.24 523,216 C 540.75,212.536 560.36,217.588 576.75,220.25 L 592,241 L 584.75,264.75 C 579.325,266.527 573.73,265.2034 568.25,264.25 C 562.881,271.523 550.56,273.631 543,268 C 535.638,266.945 526.87,266.393 522.75,259.25 L 500,260 C 484.56,259.8301 471.3,267.223 457,271 L 453.25,266.75 C 450.603,249.29 430.72,255.75 420,259 C 425.188,262.365 430.58,266.288 434,272 L 452.25,306.75 C 459.738,304.827 462.34,294.9 465.75,289.25 C 471.858,299.56 468.667,311.29 469.25,322.75 L 478.75,322.25 C 481.726,323.948 486.179,325.594 486.25,329.75 C 516.54,335.282 544.38,324.125 572,310 L 575.75,313.25 C 576.788,343.06 546.37,358.86 523.25,370.25 C 523.4921,374.85 519.878,378.153 516.25,380.25 L 517,395 L 520.25,403.75 C 528.384,404.6237 530.62,416.66 525,422 C 527.343,432.03 521.596,441.67 511.25,442.25 L 508.25,445.25 C 507.114,457.35 490.25,461.31 486.75,448.25 L 482.25,449.25 L 471.25,453.25 L 464.75,466.75 L 440,472 L 414.25,468.75 C 410.535,463.1 415.304,457.44 416.75,452.25 C 408.492,447.535 401.75,442.676 392.25,442.75 C 390.684,431.39 383.549,422.46 373,420 L 370.25,420.75 L 378,445 L 370,477 C 373.584,485.545 373.572,493.54 373,503 C 377.066,510.6 381.199,521.78 375.75,529.75 L 368,519 L 366.75,532.75 L 350,501 L 350,495 C 359.092,475.9 330.21,463.47 338.75,443.25 L 327.75,424.25 L 314.25,423.25 L 324,444 L 334.75,473.25 C 334.4778,483.41 334.895,493.18 343.75,499.25 L 348.75,530.75 C 345.801,531.6105 341.517,530.5976 340.75,527.25 L 337.75,537.75 C 325.2,525.87 314.94,508.94 319.75,492.25 C 318.9193,486.204 317.189,480.51 313.75,475.25 L 293.25,461.75 L 286.25,454.75 L 282.75,446.25 C 256.99,422.83 210.34,403.35 222,361 L 224.75,335.25 L 179,300 C 170.915,305.172 161.98,308.884 152.25,309.25 C 146.849,318.169 136,321.76 138,334 L 133.75,339.75 C 120.2,344.984 105.58,345.722 91.25,348.25 L 90,350 C 100.36,369.96 79.12,387.88 60.25,389.75 L 55,381 C 43.79,381.79 40.66,397.75 28.25,393.75 L 12,365 C 12.6185,361.833 12.9633,357.342 17.75,356.75 C 18.3968,337.88 37.94,332.23 52.75,327.75 L 89.25,274.25 C 98.485,272.892 106.62,275.1823 115,269 C 128.26,272.579 139.23,257.37 134,246 C 139.19,246.6168 139.806,240.179 142,237 L 144.75,233.25 L 133.25,227.25 L 143.75,228.25 L 134.75,224.25 C 132.334,224.32227 129.062,221.977 130.25,219.25 L 140.75,222.75 L 133.25,218.75 L 126.25,214.75 L 125.25,212.25 L 139,218 L 139.75,217.25 L 138.75,215.25 L 123.25,206.75 L 123.25,204.25 L 129,206 L 131,207 L 132,208 L 132.25,208.75 L 137.75,210.75 L 132,208 L 131,207 L 129,206 L 125.25,202.75 L 120,197 L 120.25,196.25 L 121.75,196.25 C 125.919,200.038 130.549,203.673 136,205 C 135.8602,206.885 137.885,204.8602 136,205 L 134.75,203.25 L 120.25,193.75 L 120.25,193.25 L 125,193 L 125.25,194.75 L 135,201 L 135.75,200.75 L 134.75,199.25 L 125,193 C 124.0824,190.962 121.271,188.583 119.25,189.75 L 117.25,188.25 L 116,190 L 117,195 L 117,200 L 120,212 L 123,221 L 128,234 L 128,236 C 119.213,221.5 116.17,202.29 114,186 L 115.25,184.25 C 142.28,183.333 167.83,196 193,205 L 210.75,190.75 C 208.065,175.6 208.586,158.96 212,144 L 205,131 L 201.25,132.25 C 186.54,144.96 165.47,150.8 147.25,141.75 L 147.75,137.25 C 140.673,134.379 130.24,130.927 129.25,122.25 C 132.433,124.785 140.39,129.734 137,122 L 136.25,115.25 C 142.042,119.105 148.53,124.734 156.75,122.75 L 158.25,119.25 L 161,118 L 168.75,116.75 C 162.245,104.59 160.809,89.29 165,76 L 168,29 L 170,27 L 175.75,28.25 L 181.75,92.25 C 182.0409,96.007 185.877,98.586 189,100 L 191.75,99.75 C 199.818,92.201 214.95,85.15 208.25,72.25 L 211.75,71.75 C 208.227,59.04 222.54,50.34 231.75,45.25 C 228.313,50.264 220.61,58.65 223.75,65.75 C 229.845,51.69 248.05,56.905 258,48 L 263.75,48.25 C 254.801,59.04 233.75,56.591 231.25,73.75 L 233.75,71.75 L 255.75,60.25 L 250.25,68.75 L 256,67 L 270.75,51.25 C 271.5412,57.099 266.782,65.03 262.75,69.75 L 261,72 L 262.25,73.75 C 269.32,72.607 273.43,62.06 275.25,55.25 C 280.666,53.09 278.685,59.951 279,63 L 278,71 L 278.25,72.75 C 281.855,72.8787 285.908,72.8908 288,76 L 285,80 L 290.75,76.75 C 298.299,50.02 264.74,33.5 265.25,7.25 L 270,4 L 273.75,8.25 C 280.172,34.05 308.88,49.54 310.25,77.75 L 319,74 L 316.25,78.75 C 326.87,77.694 337.54,70.151 342.25,60.25 L 343.75,60.25 L 344.25,64.75 L 347.75,63.25 L 339,78 z "
       style="fill:#030303;stroke:#030303"
       id="path1166" />
    <path
       d="M 249,72 L 254,71 L 258.75,74.25 L 260.25,76.75 C 266.95,78.387 271.55,71.195 274.25,66.25 L 275.75,65.25 L 272,75 L 274.25,77.75 L 282.75,76.25 L 279,83 L 278,84 L 276.25,84.25 L 275.75,85.75 L 270,96 L 272,98 L 271.75,99.75 L 259.75,132.75 L 256.25,133.25 L 255.25,135.75 L 258,136 L 263.75,132.75 L 268.75,125.75 L 274,102 L 274,99 L 275,100 L 275,104 C 273.561,106.008 273.561,108.992 275,111 L 277,118 L 275.25,118.25 L 273.25,124.25 C 273.26089,132.743 264.689,138 257.25,139.25 L 257.25,139.75 C 258.575,141.77 261.38,141.153 263,140 L 270,137 L 271.75,137.25 C 274.961,141.581 280.462,137.6019 281.75,133.75 L 278,126 L 278,119 L 282.75,123.25 L 286,131 L 295.25,169.75 L 296.75,169.75 C 297.2604,163.874 300.456,173.237 302,175 C 302.4464,181.084 301.3839,186.73 299,192 L 299,213 L 287.25,249.75 L 291.75,247.75 L 302,214 L 302.25,195.25 C 308.404,195.2024 315.03,196.357 320.75,200.25 L 327.25,225.75 C 337.6,244.87 346.41,265.88 363,281 L 358.75,294.75 L 354.75,298.75 L 351.25,300.25 L 350.25,302.25 L 346.75,310.75 C 338.945,314.603 330.96,317.34 322,317 C 314.068,321.354 305.03,317.6649 297.25,316.25 L 301.25,319.75 L 339,317 L 341,316 L 342.75,317.25 L 340.75,321.75 L 336,324 L 301,329 L 299.25,329.75 L 305,334 L 337.75,326.25 L 335.75,335.75 L 326.25,342.25 L 321.25,350.25 L 323,352 L 317.25,367.25 C 319.41,368.0726 319.827,371.813 317.25,373.25 C 320.475,375.839 316.5476,378.523 315,381 L 315.75,382.75 L 316,388 L 314.75,389.75 L 296.25,391.75 C 291.111,382.644 284.46,372.58 275.25,367.75 L 273.75,364.25 L 263.25,357.75 L 263,356 C 264.885,356.1397 262.8603,354.115 263,356 L 261,357 C 250.75,353.727 237.44,349.65 235.25,337.25 L 248.75,341.25 C 258.145,357.41 281.49,354.08 296,348 L 329.75,335.75 L 330.75,333.25 C 304.29,338.23 269.55,365.24 246.75,337.25 C 234.72,334.625 220.13,332.918 215,320 C 210.07,315.6 209.557,310.355 211.25,304.25 L 225.75,321.25 L 236.75,324.25 L 236.25,327.75 L 250.75,336.75 C 252.245,329.267 237.58,332.326 238.25,324.25 L 275.75,325.75 C 276.2039,324.382 277.761,322.488 275,323 L 252,321 C 244.627,321.1064 236.74,322.443 229.25,319.75 L 211.25,299.75 C 213.813,282.02 213.622,263.13 213.25,245.25 C 223.89,238.52 237.04,245.7112 248,250 L 249,249 C 241.366,238.96 225.18,239.036 213.25,240.75 C 209.957,231.801 218.798,223.64 223.25,216.25 C 228.305,223.641 232.839,233.88 242.75,237.25 C 250.561,245.428 260.17,251.9 268.75,257.25 L 271.75,262.25 L 267,267 L 275,293 L 277,295 C 284.759,293.301 281.88,287.987 281.25,282.25 C 289.568,280.155 286.852,271.34 284.25,265.75 L 278,255 L 279.25,253.25 L 283.75,251.75 C 285.831,244.743 289.854,234.84 283.25,227.75 L 283,225 C 286.791,222.185 291.104,219.114 287,214 C 290.699,207.767 291.905,197.05 285.25,192.75 L 284,187 L 285,137 L 284,134 C 274.276,147.57 286.204,166.24 280.75,181.75 L 277,178 L 280.75,190.75 C 274.681,190.7288 271.247,196.138 272.25,201.75 L 273.75,201.75 C 273.8854,196.085 282.077,189.63 285.75,196.25 L 286.75,211.75 C 274.79,218.505 261.03,223.96 247.25,218.75 L 243,211 L 245.25,209.25 L 247.25,213.75 C 247.0968,217.096 254.288,218.141 250.25,214.75 C 251.1878,209.815 247.934,201.33 242.25,205.75 L 242.75,203.75 C 240.967,201.818 244.908,199.748 246.25,201.75 L 253.75,208.75 L 251,200 C 253.054,199.5413 251.6245,197.065 251,196 L 251.75,193.25 L 249.25,192.25 L 251,200 L 245.75,198.25 L 243.25,198.25 L 241.25,199.75 L 236.75,186.25 L 234.25,185.25 L 233,187 L 221.25,164.75 L 215.25,154.25 L 215,158 L 235.75,194.25 L 237.75,197.25 L 240,203 C 237.507,210.24 241.607,219.25 248.75,222.25 C 249.1351,225.932 250.536,230.284 254.25,231.75 L 268.75,229.25 L 264.75,250.75 L 259.25,247.75 L 226.75,213.25 C 218.186,205.434 214.23,194.86 212.25,184.25 L 225,199 L 226.75,197.25 C 218.828,186.16 205.92,174 213,159 L 214.75,150.75 L 213.25,147.25 C 216.83,148.213 222.772,152.4 225,147 L 232,147 L 231,146 L 210.25,135.75 L 211.25,110.25 L 215,110 C 205.762,104.228 208.142,92.06 211.25,83.25 L 215.75,86.75 L 215,85 L 220.75,56.25 C 218.715,62.791 218.627,72.92 224.75,77.75 L 227.25,65.25 C 230.019,62.747 232.87,58.769 236.75,59.25 L 232.75,63.75 C 230.506,67.846 222.65,78.49 231.75,78.75 L 232.25,77.25 C 234.257,74.052 237.107,71.462 241,71 L 246.75,68.25 C 235.9,77.217 228.27,94.19 236.25,105.75 L 237,103 C 233.498,96.862 235.746,89.91 236.25,83.25 C 239.43,77.925 244.142,73.824 249,72 z M 421,242 C 422.834,242.6653 423.559,240.569 422.75,239.25 L 421,242 L 416.75,244.75 L 415,247 L 414,248 L 416.25,242.25 C 417.697,242.5043 418.919,240.226 417,240 L 415.25,241.25 L 412.75,243.75 L 410.25,246.25 L 409,247 C 407.081,246.7735 408.3034,244.496 409.75,244.75 L 412.75,239.25 L 411.75,239.75 L 409.75,241.75 L 404.75,246.75 C 401.483,246.1283 404.9302,242.882 406.75,242.75 L 406.75,240.25 L 404,242 C 400.776,238.87 401.548,232.037 403,228 L 400.75,224.25 L 396,223 C 391.967,225.134 388.509,228.475 386.75,232.75 L 380.75,243.75 L 380,244 L 379.75,243.25 L 369,239 L 368.25,239.25 C 366.96,241.66 369.751,243.743 372,243 C 374.541,243.8849 377.459,246.088 380,244 C 379.0245,247.771 378.812,252.979 374,254 L 361.25,249.75 C 361.8231,244.927 363.134,239.72 367.25,236.25 L 379,227 L 385.75,223.25 L 379.75,223.75 C 365.36,230.029 353.93,245.3 355.75,261.75 L 349.25,246.75 C 348.7171,240.725 345.694,233.35 348,228 L 372.25,220.25 L 392.75,210.75 L 394.75,207.25 L 390.25,206.75 L 384.25,208.75 C 380.633,206.901 382.813,210.759 384.75,210.75 L 378,211 L 377.25,212.75 C 383.595,214.331 373.78,216.215 372,213 L 371.25,214.75 C 377.568,216.852 367.684,219.937 366,216 L 364,216 L 367.75,219.75 L 357.25,218.25 L 360.75,221.75 C 358.414,223.726 356.633,221.4794 354.25,220.75 C 353.088,219.8148 350.521,218.233 350.25,220.75 L 355.75,223.75 L 346.25,220.75 C 344.783,208.34 345.9982,195.46 350.25,183.25 C 362.16,175.849 376.8,179.651 388.75,183.25 L 404,197 L 400.25,202.75 C 408.078,200.958 418.86,197.537 425,205 L 418,215 C 428.39,209.85 438.42,201.65 450.75,203.25 C 444.951,215.5 437.57,229.73 444,243 L 445.75,250.75 C 431.75,251.1841 417.66,258.704 404.25,251.75 L 404,250 L 416.25,249.25 L 433.75,247.75 L 433.75,245.25 L 429,246 L 430.75,240.25 L 425.75,246.75 C 419.859,248.386 423.951,244.059 426.25,242.25 L 428,239 L 419.75,247.75 L 416.25,247.75 L 421,242 z M 450,254 C 451.885,254.1398 449.8603,252.115 450,254 C 447.306,250.984 445.702,246.365 446,242 C 439.207,223.04 451.435,204.17 465.25,191.25 L 469.75,191.25 C 486.14,202.99 504.05,212.42 522.75,219.25 L 519.25,229.75 L 522.75,226.75 L 527.25,219.25 C 533.164,216.502 540.2,218.5321 546,220 L 567.75,221.25 L 569,227 C 565.296,235.938 561.422,244.83 562,255 L 560.75,257.75 C 555.939,258.1548 550.35,259.093 547,255 L 542,249 C 544.089,243.03 549.279,249.0217 551.75,249.75 L 550.75,237.25 L 547,244 L 544.75,230.25 L 544,231 L 543.75,243.75 C 536.049,245.488 537.485,253.594 543.75,256.25 C 548.096,263.115 556.75,262.609 562.75,259.25 L 564.75,261.25 L 564.75,264.75 L 553,265 L 551.75,263.25 L 550.75,266.75 L 528.25,260.75 C 526.317,257.331 524.871,252.966 526.75,249.25 L 521.75,234.25 L 522.25,254.75 L 520.75,251.25 L 517.25,247.25 L 518.75,254.75 L 517,256 C 497.92,256.5777 479.7,259.828 462.25,266.25 L 461.75,267.75 L 459,268 L 450,254 z M 573,222 C 578.034,225.464 577.885,233.15 575,238 L 574,248 L 573,254 L 571.75,256.75 L 566.25,258.75 L 565,257 L 566,251 L 573,222 z M 389,293 L 388.25,294.75 L 389,293 L 390.75,291.75 L 395,285 L 396,284 C 397.885,284.1397 395.8603,282.115 396,284 L 395,285 L 391.25,285.75 L 395.75,281.75 L 396,280 C 397.885,280.1397 395.8603,278.115 396,280 L 392.75,281.75 L 391.25,282.75 L 393.25,278.25 C 395.191,277.5469 398.164,275.492 397.75,273.25 L 393,276 C 392.237,272.578 396,271.059 397.75,268.75 L 395.25,268.75 L 402.25,257.25 C 412.66,256.6003 421.25,263.072 428.75,269.25 L 447.25,306.75 L 454,313 L 452.75,333.75 L 449,334 C 438.27,328.852 432.77,317.61 428.75,307.25 C 424.993,297.04 415.32,282.57 402.75,288.75 L 388.75,297.75 L 374.25,300.25 L 368.25,304.25 L 367.25,308.75 L 368,314 C 374.423,323.916 374.119,335.77 376,347 L 374.75,348.75 L 373,345 L 371,330 C 366.188,317.52 360.92,305.18 362,291 C 364.454,284.177 368.485,277.46 374.75,273.25 L 379.25,297.75 L 380.75,297.75 C 376.652,281.27 377.742,263.17 382,247 L 391.25,228.25 L 394.75,227.25 L 385,249 C 380.72,263.27 380.625,279.52 384.25,293.75 L 385.75,294.75 C 387.55,293.387 387.744,289.099 386,288 L 385,280 L 384,278 C 382.815,259.95 387.115,242.76 397.75,228.75 L 398.25,226.25 L 399.75,226.25 L 401,249 L 401,253 L 395.25,260.25 C 396.2387,261.462 394.9847,264.822 393.25,263.25 L 393.75,265.75 L 392.25,266.25 L 389,288 L 388,291 L 389,293 z M 580,231 L 583,234 L 579,252 L 578,257 L 576.75,259.75 L 573.25,260.75 L 576.75,253.75 L 577,245 L 580,231 z M 586,238 L 588,240 L 585,248 L 582.75,260.75 L 580.25,262.75 L 580,261 L 585.75,239.75 L 586,238 z M 568,313 L 570.75,314.75 L 569.25,315.25 L 567.75,317.75 C 556.32,325.401 543.78,330.73 531,335 L 527,335 C 517.645,337.899 507.13,336.793 497,337 L 495,336 L 482.25,334.75 L 480.25,332.25 L 482,331 C 493.7,334.283 505.26,333.976 518,334 L 523,332 C 531.553,331.0828 539.67,328.346 547.25,324.25 C 554.742,322.044 562.02,317.762 568,313 z M 283,388 L 282,389 C 283.035,394.915 271.1,388.8397 275.75,394.25 L 276.25,396.75 C 284.987,405.399 291.68,414.62 302.75,419.25 L 303.25,428.75 L 305.25,424.25 C 308.973,430.56 305.8518,439.02 303.75,445.75 L 292.25,447.75 L 320.25,473.75 L 321.75,472.75 L 321.75,471.25 L 318.25,468.75 L 302,451 L 306,448 L 309.25,433.25 L 311,437 C 312.715,433.403 314.785,437.1955 314,440 L 315.75,439.25 L 317.25,443.75 C 319.37,445.171 319.905,445.351 319.25,447.75 L 320.75,448.25 L 324,465 L 332,475 L 333,479 C 328.241,488.744 337.513,494.81 342,502 L 339.75,508.75 C 338.614,506.674 335.481,497.46 332.25,502.75 L 337.75,510.75 L 336.75,512.75 L 327.25,516.75 L 322,511 C 322.3851,498.55 322.2,486.36 317.75,475.25 L 292.25,456.75 L 286.25,449.75 L 284.75,444.25 L 239,407 C 240.885,407.1397 238.8602,405.115 239,407 C 233.07,402.323 227.91,395.73 226.75,388.25 L 224,376 C 222.469,373.437 222.469,369.563 224,367 L 226,350 L 227,348 L 228,338 L 229.75,338.25 L 230.25,340.75 L 231.75,341.25 L 237.75,347.25 L 249.25,356.75 C 259.008,357.7037 267.64,362.305 274.75,369.25 L 274.25,371.75 C 278.609,369.18 276.549,376.534 277,379 C 279.476,381.822 278.461,375.294 279.25,373.25 L 280,385 L 279,388 L 279.25,389.75 L 283,377 L 284,378 L 283,383 L 283,388 z M 175,90 L 170.25,87.25 L 174.75,92.25 C 176.072,97.82 180.812,100.708 185,104 C 192.249,105.532 199.01,101.605 202.25,95.25 L 205.75,93.25 L 205,102 L 209,109 C 205.025,115.011 196.89,121.33 190,116 L 182,116 L 174.25,115.75 L 170.25,111.75 C 164.426,97.62 164.858,80.94 169,66 L 170.75,45.25 L 170,44 C 171.607,40.22 171.607,34.78 170,31 L 172,29 L 176,40 L 174,42 L 175,51 C 171.466,52.595 174.7029,54.36 175,57 L 174,63 L 172.25,64.75 L 174.75,67.75 L 171.25,69.75 L 175,75 L 171.25,74.25 L 171.25,75.75 C 172.613,77.588 176.021,78.991 174.75,81.75 L 171.25,80.25 L 175,90 z M 168,119 L 187,119 L 191.75,121.75 L 177,123 C 172.423,126.891 166.23,127.701 160.25,126.75 L 160.25,126.25 C 163.041,126.1914 166.618,124.206 164.25,121.25 L 168,119 z M 142,131 L 144.75,127.25 C 141.985,127.551 139.961,124.605 140.25,122.25 L 141.75,122.25 L 156,130 L 165,130 C 166.467,130.7516 171.309,133.893 167.25,133.75 L 163.25,132.25 L 164.25,135.75 L 170,137 L 171.25,135.25 L 186.75,131.75 L 198.75,126.75 L 202.75,124.75 L 204.25,121.25 L 207.75,121.25 L 206.75,124.75 L 203.75,127.75 L 187.25,136.25 C 181.234,141.85 171.87,144.538 164,142 L 153.25,140.75 L 154.75,139.75 L 158,137 C 152.389,136.3 146.34,134.405 142,131 z M 213,139 C 215.461,138.7612 218.244,141.987 216,144 L 216.25,144.75 L 217,145 C 218.81,142.786 222.374,145.4533 221.75,147.75 C 216.183,149.413 213.527,143.316 213,139 z M 125,187 L 127,188 L 134,188 L 138,190 L 142,190 L 150,193 C 167.1,195.845 182.53,204.16 198.75,210.25 L 200.75,212.25 C 210.414,236.55 211.16,264.23 209,291 L 208,293 L 208.75,296.75 L 207.25,295.75 L 206,289 L 203.25,283.75 C 192.56,253.83 175,224.4 148.25,204.75 L 136.75,195.25 L 125.25,189.75 L 125,187 z M 125,193 L 120.25,193.25 L 120.25,193.75 L 134.75,203.25 L 136,205 C 130.549,203.673 125.92,200.038 121.75,196.25 L 120.25,196.25 L 120,197 L 125.25,202.75 L 129,206 L 123.25,204.25 L 123.25,206.75 L 138.75,215.25 L 139.75,217.25 L 139,218 L 125.25,212.25 L 126.25,214.75 L 133.25,218.75 L 140.75,222.75 L 130.25,219.25 C 129.062,221.977 132.334,224.322 134.75,224.25 L 143.75,228.25 L 133.25,227.25 L 144.75,233.25 L 142,237 L 135.25,231.25 C 134.5794,233.163 137.129,234.819 138.75,235.25 L 142,237 C 139.806,240.179 139.19,246.617 134,246 L 132,244 L 130,240 L 129,238 L 128,236 L 128,234 L 123,221 L 120,212 L 117,200 L 117,195 L 116,190 L 117.25,188.25 L 119.25,189.75 C 121.271,188.583 124.082,190.962 125,193 z M 125,193 L 134.75,199.25 L 135.75,200.75 L 135,201 L 125.25,194.75 L 125,193 z M 211,193 L 212.75,193.25 C 214.667,200.597 216.357,208.34 222,214 L 221.75,214.75 L 220.25,214.25 L 210.75,228.75 L 210,229 L 209.25,228.75 L 209,226 L 201.75,208.25 L 198.25,207.75 L 196,206 L 211.75,194.75 L 211,193 z M 131,207 L 129,206 L 131,207 z M 132,208 L 131,207 L 132,208 z M 132,208 L 137.75,210.75 L 132.25,208.75 L 132,208 z M 194,284 C 195.959,281.668 198.305,279.234 195.75,276.25 L 192.25,281.25 C 182.977,292.06 168.8,297.03 156,298 L 152,300 L 145.25,299.75 L 138.25,292.25 C 135.843,296.456 140.028,301.725 143.75,302.75 C 139.844,303.3309 137.913,307.208 136.25,309.75 C 133.6,301.074 128.17,293.04 122.75,286.25 L 119.25,284.75 L 119.25,283.25 C 121.648,283.8374 129.54,287.198 128.25,282.25 L 129,282 C 132.005,282.206 136.683,282.6119 136.25,278.25 L 137.75,276.25 L 129,276 L 128,277 C 130.182,281.184 123.003,277.7238 121,278 L 115,281 L 108,276 L 109.25,274.25 L 135,273 C 141.175,276.479 151.17,278.063 157.25,273.25 L 159.75,272.75 L 154,271 L 139.75,269.75 L 128.25,269.25 L 129.75,268.75 C 135.264,264.117 142.29,262.374 149,261 L 151.75,262.75 L 151.75,259.25 L 147,258 L 156.75,253.75 L 150.25,253.75 L 157.75,249.25 L 150,251 L 155,246 L 158,245 L 159.75,244.25 L 158,245 L 155,246 L 151.25,246.75 L 160.75,240.75 L 160,239 L 155.25,240.75 L 158.75,236.75 L 164.75,229.25 L 163.25,228.25 L 161.75,230.75 L 149.75,239.75 L 143,255 L 144.75,258.75 L 138,261 L 137,257 C 141.673,243.97 148.68,230.85 160.25,222.25 L 162,222 L 182.75,249.25 L 182.75,250.75 C 181.192,249.997 175.568,248.68 176.25,251.75 L 185.75,253.25 L 199.75,282.75 L 194,284 z M 150,251 L 148.25,251.75 L 150,251 z M 120,325 C 121.885,325.1397 119.8602,323.115 120,325 L 114,329 L 116.75,325.25 L 109,330 L 109.75,327.25 L 107,331 L 103,332 L 104,330 L 103.75,329.25 L 96.25,335.75 L 96,334 L 96.75,332.25 L 96,334 L 90.25,337.75 L 90,337 L 92.75,332.25 L 90,337 L 89.25,337.25 L 88,334 C 89.885,334.1397 87.8602,332.115 88,334 L 85.25,335.25 L 85,341 C 81.629,350.36 95.86,361.04 86.25,369.25 L 82,377 L 76.25,372.25 L 76.25,374.75 L 79.75,378.75 L 63,387 L 60.25,384.75 C 58.889,378.701 65.527,374.71 70.75,374.75 C 74.065,369.711 76.935,364.13 77,358 L 77.75,356.25 L 72,357 C 69.602,355.063 67.058,353.51 64.25,354.75 L 64,353 C 65.823,349.696 69.441,344.654 67.25,341.25 L 66.25,344.25 C 62.35,349.706 63.101,336.045 59,341 L 60.75,344.25 L 61.75,345.25 L 56.25,344.25 L 56.25,345.75 L 62,361 C 61.8469,363.156 62.9855,367.374 65.75,366.75 L 64.25,358.25 C 68.186,356.909 71.488,362.369 71,366 C 70.1433,369.77 66.389,370.876 63.25,372.25 C 60.874,375.383 56.692,377.314 53.25,374.75 L 41,349 L 43,357 L 45.75,363.25 L 49.75,376.75 L 45,380 L 34,357 L 34,355 L 35.75,355.75 L 33.25,352.75 L 28,343 C 29.977,339.182 34.51,336.936 38.75,338.25 C 38.4833,341.965 41.238,345.577 44.75,345.75 L 43.75,342.25 C 37.617,335.194 49.446,327.49 56,332 L 70.75,329.75 C 70.69239,322.459 62.215,328.354 58.25,327.75 L 60.25,322.25 C 71.23,307.39 86.35,294.41 91.25,276.25 L 96,278 L 101,278 C 123.06,284.262 139.02,308.44 135,331 L 133.25,333.25 L 133.75,334.75 L 94,345 L 89.25,343.75 L 90.25,341.25 L 124.75,328.75 L 126.75,325.25 L 120,325 z M 188,293 L 198.75,296.25 L 203.75,302.25 L 203.75,303.75 L 203,304 L 191.75,297.25 L 188,293 z M 182,294 L 183.75,294.25 C 189.027,299.753 194.85,304.37 201.75,307.25 L 202.75,308.75 L 202,309 C 194.639,305.736 185.95,303.012 181,296 L 182,294 z M 172,297 L 173,298 C 168.974,302.913 162.13,304.482 156,305 L 154,306 L 150.25,305.75 L 154.25,302.25 L 171.75,297.75 L 172,297 z M 146,307 L 147.75,307.25 C 148.3322,312.255 142.501,315.812 139.25,318.75 C 139.21347,317.133 136.313,312.13 139.75,313.75 L 141.25,309.25 L 145.75,307.75 L 146,307 z M 206,314 L 207.25,314.75 L 213.75,322.25 L 213.75,323.75 C 210.203,322.152 205.157,318.646 206,314 z M 24,346 L 25.75,346.25 C 28.767,353.515 33.94,359.64 34.25,367.75 L 39.25,380.75 L 40.75,382.25 L 39.75,383.75 C 35.622,385.417 33.08,380.542 32.75,377.25 L 27,367 L 27.25,366.25 L 28.75,366.75 C 30.059,362.637 27.095,358.162 23.25,356.75 L 22,354 L 24,346 z M 17,359 L 19.75,359.25 L 21.25,362.75 L 23.75,365.25 L 24.25,367.75 C 28.553,374.837 29.858,384.85 37.75,389.25 L 37.75,390.75 L 30.25,390.75 L 19.25,372.75 L 20,372 L 21.25,373.75 L 22.75,373.75 L 15,366 L 17,359 z M 516,406 L 519,406 C 526.934,404.617 528.3,416.31 523.25,420.25 L 522,423 L 521.25,434.25 L 520.75,436.75 L 508.25,440.25 L 505.25,445.25 C 505.7276,453.027 495.02,457.48 490.25,450.75 L 489.25,445.25 L 492.75,442.25 L 493.75,443.75 L 495,440 L 497.75,444.75 L 500.25,434.25 L 501.75,434.25 L 501,438 L 502.25,438.25 L 505.75,429.25 L 505.75,434.75 L 509.75,422.25 L 510.75,427.75 L 512.25,415.25 L 513.75,414.25 L 515.75,416.75 L 514.25,407.25 L 516,406 z M 414,441 L 416.25,437.25 C 417.654,434.81 419.896,436.7131 419,439 C 417.115,438.8603 419.1397,440.885 419,439 L 422.25,434.25 C 423.658,433.9121 425.127,432.216 425.25,434.75 L 425.75,434.75 L 427.25,432.25 L 439.75,421.75 L 444.25,414.25 L 445,414 L 445.75,415.75 L 445,414 L 447,412 C 469.29,411.7562 492.25,413.507 512.75,407.25 L 505.25,423.25 L 500.75,431.75 C 493.827,440.571 483.68,444.18 474.75,449.75 C 461.96,453.32 449.06,456.015 435,455 C 428.055,452.122 421.01,449.143 415.75,443.25 L 414.25,442.75 L 414,441 z M 358,441 L 359,440 C 360.885,440.1397 358.8603,438.115 359,440 L 358,441 L 356.25,441.25 C 351.45,444.213 343.45,444.221 339.75,439.25 L 337.25,437.75 L 337.75,436.25 L 335.25,434.75 L 335,432 L 334,430 L 331.25,423.25 L 337.75,428.75 C 340.357,427.26 337.5664,425.038 337.25,423.25 L 339,422 L 366.75,420.25 C 368.903,427.591 366.0729,436.84 360.25,442.75 L 370.75,432.25 C 379.836,450.62 365.379,468.84 366,487 L 365,489 L 366.25,492.75 L 370,495 L 369.75,497.75 C 368.285,497.4475 365.693,494.853 365.25,497.75 C 367.902,501.079 371.236,504.189 370,509 L 365,512 L 362.75,510.25 L 358.25,498.25 L 355.25,503.75 L 353,499 L 353,496 C 356.437,487.9 356.306,476.65 350.25,469.75 L 350.75,468.25 L 345.25,464.75 L 345.25,458.25 L 343.25,460.75 L 344.75,451.25 L 342.25,453.75 L 341.25,446.25 L 343,445 C 347.398,446.493 358.08,448.036 358,441 z M 334,430 L 334,432 L 334,430 z M 423,458 C 421.115,457.8603 423.1397,459.885 423,458 L 429.75,456.25 L 427.25,459.75 L 434.75,457.25 L 434,460 C 432.115,459.8603 434.1397,461.885 434,460 L 435.75,459.75 C 437.018,457.647 439.652,457.675 441.75,458.25 L 440.25,460.75 L 448.75,458.25 L 447.25,461.75 C 449.883,460.131 453.629,454.979 456.75,457.75 L 455.25,460.75 L 458.25,458.25 L 465.75,456.25 C 468.378,464.579 458.358,467.38 452,466 L 443,470 L 431,466 L 417.25,467.75 C 412.499,464.647 414.24,458.995 417.75,455.75 C 417.9245,453.88 419.897,452.205 421.75,453.25 L 418.75,456.75 L 418.25,457.75 L 424.75,455.25 L 423,458 z M 286,95 L 282.25,91.25 L 282.75,95.75 L 279.25,96.75 L 277.75,94.25 C 274.296,96.136 273.896,88.929 276.75,87.75 L 278,84 L 279,83 L 282,82 L 283.75,82.25 C 288.008,85.142 293.82,80.796 294.25,76.25 L 295.25,73.25 L 297,74 C 299.26,76.67 295.742,79.33 295,82 L 292,84 L 293.25,86.75 L 298.75,81.75 L 300.75,75.75 L 298.25,66.75 L 297.75,65.25 L 296,66 L 295.75,59.25 L 293.25,57.75 L 289.75,48.25 L 283.25,40.75 L 283.25,39.25 L 283.75,38.25 C 280.499,36.373 277.769,33.224 277.75,29.25 L 274.25,26.75 L 269.25,8.25 L 271.75,12.25 L 286.25,37.75 C 292.95,45.218 300.01,52.97 302.25,62.75 L 307,74 L 306.75,82.75 L 296,93 L 291,91 C 289.182,91.1523 290.2833,93.249 291.25,93.75 C 293.98,100.006 283.152,89.419 286,95 z M 342,69 L 333.25,78.75 L 337,80 L 334.75,82.75 L 328.75,88.75 L 327.25,89.25 L 322.75,94.75 L 320.25,94.75 L 320,93 L 315,94 C 314.0461,90.972 316.581,90.866 318.75,90.75 L 318.25,88.25 C 323.546,87.044 330,85.231 331.75,79.25 L 330.25,79.25 L 313.25,86.25 L 308.25,90.25 L 301.75,99.75 L 298.75,102.75 L 283.25,111.75 L 280.25,105.25 C 278.17,109.086 280.1153,112.802 282.75,115.75 L 281,116 L 279.25,115.75 C 277.173,111.374 275.68,105.845 278.25,101.25 L 280,100 L 282,101 L 293.75,98.75 L 299.25,93.25 L 301.25,91.25 L 312.25,81.25 L 317,82 C 324.941,79.146 333.37,76.088 339.25,69.25 L 342,69 z M 318,96 L 321.75,96.25 C 320.001,99.665 315.846,101.479 312.25,102.25 L 311.75,103.75 L 300,107 L 287.75,113.75 L 284.25,113.75 L 284.25,113.25 L 292.25,108.25 L 306.75,102.75 L 307,102 C 304.921,100.029 308.179,98.109 309.75,99.75 L 318,96 z M 274,99 L 272,98 C 271.2675,94.716 274.828,97.1181 274,99 z M 348,255 L 346.25,253.75 C 339.345,242.19 331.24,230.37 329,217 L 324,199 L 322,194 L 322,181 C 335.37,163.61 351.4,144.45 369.75,131.25 L 364.75,140.75 L 359.25,147.25 L 357.75,151.75 C 340.3,182.41 336.64,220.19 348,253.05 L 348,255.05 L 348,255 z M 305,178 L 309.25,180.75 L 318.75,182.25 L 319,187 L 319.75,193.75 L 303.25,190.75 L 304.25,183.25 L 305,178 z M 283,217 L 284.75,218.75 L 282.75,220.75 L 280.25,221.25 L 278.75,222.75 L 259,228 L 256,228 L 253.25,226.75 L 252,224 L 253,223 L 254.25,223.75 L 255.25,223.25 L 257,224 L 260,223 L 280.75,218.75 L 283,217 z M 278,225 L 278.75,225.25 L 282.75,232.75 L 280,232 L 279,233 L 279,237 L 279.75,238.25 L 276.25,247.25 L 276,258 L 275.75,260.75 L 274.25,260.75 C 269.377,256.064 270.965,248.85 274.75,244.25 L 272.75,242.25 L 269.75,246.75 L 268.25,249.75 L 268,247 C 270.416,242.187 273.896,236.41 271,231 L 270.25,227.25 L 278,225 z M 463,301 L 465,302 C 465.4073,307.428 467.422,313.7 465,319 L 463,346 L 454.75,373.75 L 452.25,374.75 L 454.25,367.25 C 460.82,353.9 461.579,337.94 464,324 C 463.5261,321.393 465.389,317.074 462,316 L 461.25,316.25 C 462.355,319.687 462.686,324.62 461,328 L 459,340 L 459,346 C 455.359,357.48 453.452,369.56 447.25,380.25 L 442.75,392.75 L 434.25,396.75 L 434.25,394.25 L 435.75,393.75 L 442.25,377.25 L 448.25,364.25 L 449.75,363.75 L 449,362 L 450.75,360.75 L 450,359 L 455,346 L 454.25,343.25 L 456,340 L 458,330 L 457,328 C 459.336,322.078 457.5855,315.03 457,309 L 463,301 z M 346,321 L 345,326 L 344.25,330.75 L 345.75,331.75 L 346.75,329.25 C 347.2197,331.181 346.2412,335.392 349.75,333.75 L 351,328 L 350.75,325.75 L 350.75,323.25 L 348.25,322.75 L 346,321 L 349,315 L 351.75,317.25 L 364,340 L 361,344 L 361.75,344.75 C 364.021,341.549 364.802,344.9044 364.75,346.75 L 350,346 L 347.25,348.25 L 362.75,369.75 L 360.25,370.25 C 352.864,378.464 342.62,381.89 333,386 L 330.25,385.75 L 335,369 L 335.75,363.25 C 331.664,363.4998 333.52,367.99 332.75,370.75 L 328.25,383.25 C 330.291,385.71 327.015,387.241 325,388 L 324,387 C 324.1358,379.514 323.2223,371.72 326,365 C 326.4532,355.135 329.609,345.27 337.75,338.75 L 346,321 z M 364,373 L 365.75,375.75 L 361.25,378.25 L 359.75,380.75 L 356.25,382.25 C 353.12,385.962 348.748,388.124 344.25,389.25 C 338.633,392.871 332.08,395.564 325,395 L 313,397 C 308.262,398.629 301.74,398.629 297,397 L 295.75,397.75 L 281,397 L 279.25,394.25 L 289,394 L 291,395 L 295.75,394.25 L 297,395 L 306,394 C 327.37,394.4298 345.31,383.09 363.75,373.75 L 364,373 z M 283,388 L 284,385 L 285.25,381.25 L 285.75,381.25 L 284.75,391.75 C 282.304,392.862 283.104,389.3 283,388 z M 288,384 C 289.362,384.6702 290.267,386.742 289,388 L 288.75,391.75 L 288,392 L 287.25,391.75 L 288,384 z M 291,389 L 292.75,391.75 C 290.82,392.859 290.836,390.162 291,389 z M 383,150 C 384.885,150.1398 382.8603,148.115 383,150 L 376.75,154.75 L 375.25,156.25 L 373.25,157.75 L 373.25,156.25 L 375.75,153.75 L 383,145 L 381.75,142.25 L 379,144 L 379.25,142.25 L 383.75,136.25 L 380,135 L 382,131 L 378.25,128.75 L 381,124 L 383.75,127.25 C 387.151,141.85 391.344,156.08 390,172 L 389,174 L 389,178 L 387.75,179.75 L 381.75,177.25 C 375.629,178.2176 376.785,171.913 379.75,169.25 L 375.75,170.75 L 375,170 L 378.25,165.25 L 382.75,160.25 L 375.25,163.75 C 374.7418,162.268 374.5412,159.721 376.75,159.75 L 383,150 z M 376,131 L 371.75,138.75 L 370.25,138.75 L 372.75,134.75 L 376,131 z M 380,135 L 379,136 L 380,135 z M 379,136 L 378,137 L 379,136 z M 378,137 L 372,144 L 378,137 z M 379,144 L 378,145 L 379,144 z M 378,145 L 376,146 L 378,145 z M 376,146 C 375.8294,147.597 375.1859,150.491 373,150 L 376,146 z M 367,255 L 375.75,257.25 L 369.75,270.75 L 366.75,273.75 L 363.25,277.75 L 367.75,267.75 L 369.75,262.25 L 360.25,270.75 L 360,268 L 367,255 z M 356,287 L 355,288 L 356,287 z M 408,294 L 415.75,294.25 C 420.273,297.894 422.982,303.105 422,309 L 421.75,314.75 L 418.25,313.75 L 419,309 L 416.75,299.25 L 411.25,297.25 L 407.75,300.75 L 406.25,301.25 L 406.25,306.75 L 408.75,312.75 L 405.25,312.75 L 403,302 L 408,294 z M 358,299 L 359,300 L 359,305 L 370,338 L 369.75,344.75 L 368,343 L 367,340 L 367,337 C 364.265,331.519 362.495,325.76 357.25,321.75 L 350,311 L 356.25,301.25 L 357.75,300.75 L 358,299 z M 413,302 C 415.986,300.798 418.707,304.958 415.75,306.75 C 413.363,308.196 411.351,304.59 413,303 L 413,302 z M 391,319 L 388.25,317.75 L 389,316 C 387.182,312.751 384.068,309.509 380.25,309.25 C 376.018,310.62 374.71,316.438 377,320 L 382,328 L 380.75,331.75 L 377.25,328.75 C 375.084,322.457 371.383,316.47 373.25,309.25 C 376.608,304.15 383.157,303.968 387.75,307.25 L 392,316 L 391,319 z M 381,313 C 383.464,312.1028 385.131,314.746 384.75,316.75 L 379.25,316.75 L 381,313 z M 391,319 L 392.75,318.75 C 395.716,314.568 401.401,312.304 406,315 L 407.75,314.25 L 419.25,316.75 L 421.75,317.25 L 421.75,319.75 C 417.951,325.109 413.789,330.56 407.25,332.25 C 404.024,335.43 399.479,336.272 395,336 L 386,337 L 383.25,337.75 L 382,336 L 391,319 z M 425,320 L 426,322 C 420.842,333.81 409.95,344.67 396,343 L 385.25,342.75 L 383,341 L 384,340 L 385.25,340.75 L 401,338 L 405.25,336.25 C 413.905,334.985 418.92,327.807 424.75,321.75 L 425,320 z M 401,391 C 387.43,386.627 376.51,377.08 366.25,366.75 L 357.75,357.25 C 354.814,356.5507 353.547,352.675 353.25,350.25 L 367.75,349.25 C 370.686,357.832 375.751,366.69 383.75,371.25 L 385.25,373.75 L 422.25,392.75 L 429.75,395.25 L 433,400 L 426.25,399.75 C 406.42,390.831 385.39,381.01 371.75,363.25 L 364.25,355.25 L 364.25,357.75 C 374.146,370.11 385.6,381.97 399.75,389.25 L 401,391 z M 372,378 L 385.75,387.25 L 388.25,389.75 L 432.75,406.25 C 433.3391,410.368 437.401,411.988 440,414 C 431.59,430.62 412.36,437.01 396.25,441.75 L 394.25,440.75 L 386.25,422.75 C 389.092,416.57 392.448,407.32 388.25,401.25 L 386.25,415.25 C 385.3691,418.578 383.543,422.862 379.25,421.75 L 378.25,418.25 L 380.75,416.75 C 386.386,403.54 377.157,390.23 372,378 z M 448,392 L 445,391 L 448.25,386.25 L 448,389 L 448,392 z M 440,397 C 447.566,395.686 451.05,408.06 444,411 L 436.25,409.75 L 436,408 C 433.811,405.285 435.6388,402.086 436.25,399.25 L 439.75,397.75 L 440,397 z M 414,441 L 414,440 L 414,441 z "
       style="fill:#fcfcfc;stroke:#fcfcfc"
       id="path1169" />
    <path
       d="M 317,107 C 320.489,106.2989 318.277,111.286 316.25,111.25 C 316.0049,114.286 312.507,114.469 310.25,113.75 C 309.2526,110.269 313.651,107.448 316.75,107.75 L 317,107 z "
       style="fill:#fcfcfc;stroke:#fcfcfc"
       id="path1200" />
    <path
       d="M 286,95 L 286.75,96.75 C 284.872,97.6425 285.195,95.941 286,95 z "
       style="fill:#fefefe;stroke:#fefefe"
       id="path1190" />
    <path
       d="M 277,118 L 278,119 L 278,126 L 281.75,133.75 C 280.462,137.602 274.961,141.581 271.75,137.25 L 270,137 L 263,140 C 261.38,141.153 258.575,141.77 257.25,139.75 L 257.25,139.25 C 264.689,137.998 273.26,132.743 273.25,124.25 L 275.25,118.25 L 277,118 z "
       style="fill:#030303;stroke:#030303"
       id="path1204" />
    <path
       d="M 277,128 C 280.657,129.232 279.777,137.516 275,136 L 272.25,135.75 L 274.75,132.75 L 277,128 z "
       style="fill:#fafafa;stroke:#fafafa"
       id="path1213" />
    <path
       d="M 276,131 C 277.834,130.3347 278.559,132.431 277.75,133.75 C 275.82,134.859 275.836,132.162 276,131 z "
       style="fill:#050505;stroke:#050505"
       id="path1217" />
    <path
       d="M 282,234 L 283.75,234.25 L 283,244 L 280.25,247.75 L 280.25,246.25 L 282,234 z "
       style="fill:#fcfcfc;stroke:#fcfcfc"
       id="path1281" />
    <path
       d="M 252,258 C 257.521,256.475 260.311,261.925 262,266 L 258.25,268.25 C 257.187,269.98 255.486,270.35 254,269 L 253,271 L 254.75,272.75 L 262.75,270.25 L 265.75,282.75 L 261.25,285.25 C 259.238,287.922 256.146,288.885 253,289 C 247.705,283.007 245.801,274.39 243,267 L 243.25,263.25 L 252,258 z "
       style="fill:#030303;stroke:#030303"
       id="path1303" />
    <path
       d="M 252,260 C 255.316,259.6027 258.153,261.927 259,265 C 257.489,268.196 253.581,265.5573 252.75,263.25 L 250.25,264.25 C 249.214,270.231 252.641,275.29 254.25,280.75 C 256.083,282.038 258.746,281.619 260,280 L 258,275 L 261.25,273.75 L 263.75,280.75 L 262.75,281.75 L 253.25,285.75 L 246.75,269.25 L 245,267 L 245,265 L 252,260 z "
       style="fill:#fbfbfb;stroke:#fbfbfb"
       id="path1304" />
    <path
       d="M 273,266 L 274.75,267.25 L 277.25,276.75 L 279,277 C 284.377,276.8979 280.461,271.618 280,269 C 278.444,267.12 277.192,264.851 278.25,262.25 L 280.75,262.25 L 284.75,277.75 L 278.25,280.25 C 277.9853,283.864 282.9,289.666 277.25,291.75 L 276,286 L 272.75,274.25 L 269,268 C 269.6692,266.46 271.48478,265.55015 273,266 z "
       style="fill:#fbfbfb;stroke:#fbfbfb"
       id="path1306" />
    <path
       d="M 295,265 L 304,282 L 304.25,284.75 L 306,285 C 307.927,283.771 310.879,282.084 311.25,285.75 C 313.431,285.7652 312.977,287.575 312.25,288.75 L 313.75,291.75 L 298.25,296.75 C 295.96,287.2 294.203,277.47 289,269 L 295,265 z "
       style="fill:#040404;stroke:#040404"
       id="path1308" />
    <path
       d="M 292,268 L 295.75,268.25 L 303.25,288.75 L 308.75,287.25 L 310,290 L 301.25,293.75 L 299.25,290.75 L 292.25,269.75 L 292,268 z "
       style="fill:#fbfbfb;stroke:#fbfbfb"
       id="path1310" />
    <path
       d="M 277,271 C 278.834,270.3347 279.559,272.431 278.75,273.75 L 277,271 z "
       style="fill:#fefefe;stroke:#fefefe"
       id="path1313" />
    <path
       d="M 256,277 C 254.115,277.1397 256.1397,275.115 256,277 z "
       style="fill:#f4f4f4;stroke:#f4f4f4"
       id="path1319" />
    <path
       d="M 256,277 L 256.75,278.75 L 256,277 z "
       style="fill:#ffffff;stroke:#ffffff"
       id="path1322" />
    <path
       d="M 498,393 L 499,393 L 506.75,392.75 C 507.876,390.052 506.6434,385.917 503,387 L 502.25,386.75 L 501,380 L 500,373 L 511.75,380.25 L 512.75,381.25 L 516,400 L 515.75,402.75 L 510,404 L 503,407 L 499,407 C 483.94,411.582 466.88,409.792 450.25,409.75 C 452.476,405.154 450.4156,399.68 446.25,396.75 L 448,392 L 449.75,390.75 C 456.401,375.03 463.07,359.45 467,343 L 467,336 L 468,329 L 470,326 L 471,327 C 469.379,329.84 468.96,335.487 472.75,336.75 C 471.8629,331.653 473.0617,321.56 480.75,325.25 L 483.75,328.75 L 476.25,330.25 C 478.11,339.652 484.807,347.83 490.25,355.75 L 491.75,356.25 C 494.255,360.963 497.665,364.918 502.75,367.25 L 503.25,368.75 L 518,375 L 518.75,375.75 L 513,378 L 498.25,367.75 L 491.25,363.25 C 491.4236,366.154 495.158,368.942 497.75,370.25 C 498.6821,372.409 495.796,373.194 494.25,373.25 L 495,381 L 498,393 z "
       style="fill:#fdfdfd;stroke:#fdfdfd"
       id="path1365" />
    <path
       d="M 423,332 C 422.8603,333.885 424.885,331.8603 423,332 L 423.25,331.25 L 426,328 L 427.75,328.25 L 449.75,349.25 L 450,350 C 446.864,359.492 445.47,369.91 439.25,378.25 C 437.794,383.733 435.645,389.38 431.75,393.75 L 398.25,378.75 L 396.25,376.75 L 395,374 C 395.6023,364.592 393.315,355.7 391.25,347.25 L 393,346 L 406,345 L 416.75,339.75 L 423,332 z "
       style="fill:#fdfdfd;stroke:#fdfdfd"
       id="path1371" />
    <path
       d="M 465,363 L 466.75,363.75 C 470.517,360.762 475.94,365.416 473.75,369.75 L 468.75,368.25 L 467.25,369.75 L 468.25,373.75 L 474.75,372.25 L 475,375 C 477.374,377.942 475.3915,383.166 471.25,382.25 L 467,383 C 465.074,382.226 463.417,380.224 464,378 L 462,369 L 462.25,365.25 L 465,363 z "
       style="fill:#030303;stroke:#030303"
       id="path1399" />
    <path
       d="M 468,380 L 463,368 L 467,365 C 468.876,363.009 471.232,364.96603 472,367 L 470.25,367.75 L 469.75,366.25 L 466.25,366.25 L 468,380 z "
       style="fill:#fcfcfc;stroke:#fcfcfc"
       id="path1400" />
    <path
       d="M 490,380 L 489,376 L 488.75,370.25 L 484,371 L 480.25,372.25 L 480,373 L 482,381 L 483.75,386.75 L 484.25,381.25 L 490,380 L 486.25,382.25 L 486.25,383.75 C 489.188,386.991 484.346,390.166 481.25,388.75 L 478.25,371.25 L 484,369 L 488.75,368.25 C 492.512,370.782 490.737,375.976 490.75,379.75 L 490,380 z "
       style="fill:#030303;stroke:#030303"
       id="path1401" />
    <path
       d="M 489,376 L 488.25,375.75 C 488.5801,372.94 485.847,370.991 483.25,372.25 C 481.752,374.877 484.0659,380.06 487.25,377.25 L 489,376 L 490,380 L 484.25,381.25 L 483.75,386.75 L 482,381 L 480,373 L 480.25,372.25 L 484,371 L 488.75,370.25 L 489,376 z "
       style="fill:#fbfbfb;stroke:#fbfbfb"
       id="path1402" />
    <path
       d="M 489,376 L 487.25,377.25 C 484.066,380.06 481.752,374.877 483.25,372.25 C 485.847,370.991 488.58,372.9402 488.25,375.75 L 489,376 z "
       style="fill:#030303;stroke:#030303"
       id="path1403" />
    <path
       d="M 485,373 L 486.75,375.75 C 484.82,376.859 484.836,374.162 485,373 z "
       style="fill:#fafafa;stroke:#fafafa"
       id="path1406" />
    <path
       d="M 471,374 C 475.346,372.782 473.973,378.285 473.75,380.75 C 471.866,380.6059 469.676,378.517 471.75,376.75 L 471,374 z "
       style="fill:#fcfcfc;stroke:#fcfcfc"
       id="path1408" />
    <path
       d="M 499,393 L 498,393 L 497,384 L 496,375 L 497,374 L 497.75,374.25 L 500.25,388.75 L 502,389 C 505.628,385.514 506.004,392.944 502,392 L 500,392 L 499,393 z "
       style="fill:#fbfbfb;stroke:#fbfbfb"
       id="path1409" />
    <path
       d="M 363,192 C 364.375,192.1402 367.63,192.8102 366.75,194.75 L 363,192 z M 130,240 L 129,238 L 130,240 z M 134,246 L 132,244 L 134,246 z M 354,335 L 357.75,333.25 L 355.75,339.75 L 354,335 z M 142,237 L 138.75,235.25 C 137.129,234.8187 134.579,233.163 135.25,231.25 L 142,237 z M 132,244 L 130,240 L 132,244 z M 469,202 L 472.75,202.25 L 478.25,208.75 L 483.25,211.75 L 488.25,214.75 L 490.75,215.25 L 511.75,226.25 L 512.75,227.75 L 510,230 L 507.75,227.25 L 500.25,224.75 L 473.25,207.75 L 472.75,206.25 L 469,202 z M 566,226 L 559.25,224.75 L 559.25,224.25 C 561.442,223.9596 565.226,223.087 566,226 z M 516,226 L 517,227 L 517,233 C 518.292,234.346 518.148,236.594 516,237 C 512.088,234.932 514.134,228.935 516,226 z M 509,232 C 511.142,231.5148 512.41,234.642 511,236 L 511.75,241.75 L 510.25,241.75 L 509,232 z M 439,211 L 440.75,214.75 L 431.25,216.75 L 435.75,217.75 L 430,219 L 429,219 L 427,221 L 420.25,223.75 L 420.25,222.25 L 426.25,216.25 L 438.75,211.75 L 439,211 z M 383,190 C 383.1397,188.115 381.115,190.1398 383,190 L 384,193 L 378.25,189.75 L 373.25,187.25 L 376,191 L 365.25,187.25 L 369,191 L 359.25,187.25 L 363,192 L 355.25,188.75 L 355,188 L 360,185 L 367.75,184.25 L 377,185 L 386.75,188.25 L 393.75,192.25 L 393.75,195.75 L 383,190 z M 297.98434,72.0064 C 298.22398,70.4574 298.14894,68.6995 297.0967,67.4427 C 296.03378,67.1442 295.85459,65.5213 297.12212,65.4425 C 298.24507,65.1438 298.13949,66.7411 298.4329,67.4271 C 299.20157,70.0656 299.86815,72.733 300.66691,75.3628 C 300.74455,76.5206 300.03371,77.5226 299.79265,78.622 C 299.44509,79.6647 299.09756,80.7073 298.75,81.75 C 296.91667,83.4167 295.08333,85.0833 293.25,86.75 C 293.01865,85.7856 292.09716,85.0309 292.21991,83.9846 C 292.57487,83.4552 293.30237,83.2094 293.80798,82.7947 C 294.29359,82.385 295.07758,82.2106 295.16969,81.4983 C 295.92366,79.5675 297.65014,78.013 297.74892,75.8446 C 297.73562,75.1648 297.95921,72.7524 297.98434,72.0064 z M 261,84 L 261.75,84.25 L 257.75,91.75 L 256.25,92.75 L 258.25,85.25 L 261,84 z M 249,85 L 250.75,85.25 L 251,86 L 249.75,98.75 L 249,99 L 248.25,98.75 L 247.25,94.25 L 249,87 L 249,85 z M 224,86 L 225.75,86.25 L 225.75,89.75 C 222.892,92.489 225.73199,95.835 226.75,98.75 L 224.25,98.75 C 223.8206,94.941 221.569,90.664 224,87 L 224,86 z M 244,87 L 244,89 L 242.75,100.75 L 242,100 L 243.25,87.25 L 244,87 z M 218,88 L 219.75,88.25 L 220.25,95.75 L 221.25,99.75 L 223,102 L 222.75,103.75 L 218,97 L 218,88 z M 270,88 L 271,89 L 269.75,90.75 L 265.75,94.75 L 261.75,102.75 L 261,103 L 260,102 L 263.75,92.75 L 264.25,91.25 L 270,88 z M 212,92 L 213,93 C 210.44,98.023 213.116,104.25 217.25,107.75 L 221,107 L 222,108 L 220,110 C 215.772,109.1038 210.315,104.91 211,100 C 209.053,97.46 209.953,94.092 212,92 z M 255,97 L 256.25,97.75 L 257.75,97.25 L 256.75,103.75 C 253.172,104.5102 253.393,98.862 255,97 z M 274,99 L 274,102 L 268.75,125.75 L 263.75,132.75 L 258,136 L 255.25,135.75 L 256.25,133.25 L 259.75,132.75 L 271.75,99.75 L 272,98 L 274,99 z M 176,100 L 176.75,100.25 C 178.559,104.28 181.817,108.947 187,108 L 188.75,108.75 L 190.25,107.25 C 194.231,109.615 197.537,104.808 200.25,102.25 L 202.75,102.25 C 199.595,106.545 194.858,111.474 189,111 L 186,112 C 181.328,110.1 176.146,106.43 175.25,101.25 L 176,100 z M 230,107 C 228.291,106.6904 227.855,105.164 229,104 L 230,107 z M 216,111 C 218.852,113.039 218.473,117.875 216.75,120.75 L 216.25,120.75 L 216,111 z M 298,115 L 301.75,116.25 C 299.369,119.066 304.884,122.258 307,120 L 308.75,120.25 L 307.75,122.75 L 307,123 L 305,122 C 301.783,122.8337 295.655,120.826 298,117 L 298,115 z M 326,122 L 328.75,122.25 C 327.233,126.228 323.355,129.845 319.25,131.25 C 315.649,134.665 311.233,136.963 306,136 L 304.25,136.75 L 302.25,135.75 L 303.25,134.25 C 308.786,134.0252 314.29,133.4294 318.25,129.25 C 321.795,128.234 324.786,125.472 326,122 z M 216,126 L 217.75,127.25 C 217.6265,129.886 218.873,132.704 221.75,133.25 L 223.25,135.75 L 232.75,141.25 L 232.75,141.75 L 231,142 L 220.75,136.25 C 216.385,135.009 215.495,129.964 216,126 z M 252,141 L 256.75,149.25 L 257.75,150.25 L 257.75,150.75 C 254.043,151.2525 257.513,154.911 259.75,154.25 L 258.25,156.75 L 262.25,160.75 L 263.25,161.75 L 265.75,162.25 C 268.251,165.86 270.609,170.198 269.75,174.75 L 268.25,174.75 L 263.25,163.75 L 260.25,161.75 L 259.75,160.25 C 254.537,155.423 251.611,149.27 249,143 L 252,141 z M 271,142 L 272.75,142.25 L 273.25,146.75 C 275.353,148.018 275.325,150.652 274.75,152.75 L 273.25,151.75 L 271,142 z M 238,145 L 240.75,145.25 L 242,167 C 240.679,171.594 238.635,177.27 241,182 L 239.25,183.75 L 236,172 L 236.25,171.25 C 239.514,172.871 236.6732,168.588 236.25,167.25 L 238.75,167.75 L 236.25,160.25 L 237.75,160.25 L 238.25,161.75 C 240.862,160.262 239.396,157.12 238,155 C 240.001,152.01 238.8488,148.069 238,145 z M 223,153 L 223.75,153.25 C 225.477,157.308 229.691,160.987 228.75,165.75 L 228.25,165.75 L 222.25,154.75 L 223,153 z M 292,166 L 293.75,169.25 L 293,171 L 293,211 L 291.25,214.75 L 290,213 L 291,196 L 290,194 C 290.5378,185.297 288.509,175.85 292,168 L 292,166 z M 272,185 L 271,192 C 273.277,194.24 270.6576,195.981 268.25,194.75 L 268,194 L 272,185 z M 251,200 L 249.25,192.25 L 251.75,193.25 L 251,196 C 251.6245,197.065 253.054,199.541 251,200 z M 278,197 L 283.75,197.25 C 285.302,199.889 281.891,200.623 281,202 L 282.75,203.25 C 283.4288,205.276 286.804,207.89 283,209 L 281.25,207.75 L 281.75,206.25 C 278.551,204.039 277.236,200.854 278,197 z M 249,234 L 227.25,206.75 L 226.25,203.25 L 228.75,203.25 L 236.75,213.25 C 238.946,220.428 243.679,226.61 248.75,232.25 L 249,234 z M 321,220 L 323.75,220.25 L 322.75,224.75 L 312.25,232.25 L 302,242 L 299.25,240.75 L 299.25,239.25 C 303.675,238.101 306.409,234.083 308.25,230.25 L 310.25,228.25 L 320.75,220.75 L 321,220 z M 380,244 C 377.459,246.088 374.541,243.8849 372,243 C 369.751,243.7433 366.96,241.66 368.25,239.25 L 369,239 L 379.75,243.25 L 380,244 z M 421,242 L 422.75,239.25 C 423.5589,240.569 422.83368,242.665 421,242 z M 494,247 L 499.75,247.25 L 506.75,248.25 C 507.1978,250.553 500.914,255.38 503,251 L 501.75,249.25 L 495.25,254.25 C 491.616,254.6867 496.483,250.645 497.75,250.25 C 493.508,249.135 490.676,253.545 487.25,255.25 C 484.938,258.103 482.418,255.3748 486,254 L 490.75,250.25 L 477.25,257.75 L 481.75,251.25 L 478.25,251.25 L 477.75,253.75 L 467.25,260.75 C 466.121,258.418 468.722,256.251 470.75,255.75 L 474.75,252.25 C 471.896,250.71 470.303,253.462 469,255 L 460.25,259.75 L 465.75,254.25 L 458.25,254.75 L 459.25,252.25 L 471,249 L 493,248 L 494,247 z M 557,253 L 560.75,253.75 L 558.25,254.25 L 557,253 z M 168,254 L 176,255 L 186.75,258.25 L 186.75,258.75 L 184,259 L 175,257 L 168.25,255.75 L 168,254 z M 162,257 L 165,258 L 185.75,262.25 L 187.75,263.75 L 186,264 L 184,263 L 169,261 L 161.25,259.75 L 162,257 z M 159,262 L 170.75,264.75 L 162.25,264.25 L 163,265 L 168.75,266.25 L 168.75,266.75 L 154.25,265.75 L 154,265 L 155,264 L 160.75,264.75 L 159,262 z M 149,267 L 156,268 L 164.75,269.75 L 160.75,270.75 L 150.25,269.75 L 149,267 z M 315,303 L 317.25,299.25 L 321.25,296.25 L 328.75,291.75 L 336.25,278.25 L 339.25,275.25 L 344.25,271.25 L 345.75,271.25 L 339.25,279.25 L 335.25,286.25 L 334.75,288.75 L 317.75,302.75 L 315,303 z M 352,276 L 352.75,283.75 C 348.09,291.064 340.06,295.41 333.25,300.25 C 330.255,303.646 326.713,306.6 322.25,307.25 C 316.348,311.066 309.46,312.94 302.25,311.75 L 304,310 L 305.75,310.75 L 317.75,306.75 L 326.75,300.75 L 343.25,288.25 L 344.75,287.75 L 348.25,280.25 L 350.75,280.75 L 352,276 z M 356,287 L 355,288 C 352.236,286.948 355.6369,282.336 357.75,283.25 L 356.25,285.25 L 356,287 z M 355,288 L 356,287 L 357.75,287.25 C 357.3555,288.74 353.343,291.824 356.75,292.25 L 357,293 L 353.25,296.75 L 354.75,293.75 L 355,288 z M 94,288 L 90.25,297.25 L 80.75,311.75 L 76.25,317.25 L 76,320 L 81.25,324.75 C 83.894,326.46 80.029,329.923 79,327 L 79,326 L 78,325 L 70,319 L 73.25,314.25 L 76.75,311.75 L 85.25,299.25 L 93.25,288.25 L 94,288 z M 216,292 L 217.75,292.25 L 228.25,305.75 C 233.847,310.967 240.37,315.312 248,316 L 252,318 L 245,317 C 242.211,316.6425 238.553,318.135 236.75,315.25 L 216.25,294.75 L 216,292 z M 259,318 L 271,318 L 278.75,318.25 L 278.75,318.75 L 271.75,320.25 L 259.25,320.75 L 257.25,319.75 L 259,318 z M 293,320 L 295,321 L 293.25,323.25 C 290.893,336.72 274.29,330.696 265.75,335.75 L 262,337 L 257,337 L 253,334 L 259,335 L 268,331 L 276,330 C 283.185,330.9536 290.19,326.57 293,320 z M 78,325 L 79,326 L 79,327 L 77,328 L 68,323 L 67.25,322.25 C 68.317,320.252 70.309,321.247 71.25,322.75 L 78,325 z M 346,321 L 348.25,322.75 L 350.75,323.25 L 350.75,325.75 L 351,328 L 349.75,333.75 C 346.241,335.392 347.22,331.181 346.75,329.25 L 345.75,331.75 L 344.25,330.75 L 345,326 L 346,321 z M 109,330 L 108,331 L 107,331 L 109.75,327.25 L 109,330 z M 354,335 L 350.25,336.75 L 350,336 L 352,331 L 353.75,327.25 L 354,331 L 354,335 z M 56,335 C 54.115,334.8603 56.1398,336.885 56,335 L 59,333 C 57.927,335.727 63.073,335.727 62,333 L 62.25,332.25 L 63.25,334.75 L 67.75,335.75 L 61,336 L 53,337 L 47.25,337.75 L 48.25,335.25 L 51,335 L 56,335 z M 296,332 L 297,334 L 292.25,339.25 L 271.75,347.75 L 268,349 L 260,344 L 260.25,343.25 L 268,345 L 295.75,333.75 L 296,332 z M 358,338 C 362.096,337.8712 358.844,342.681 358.75,344.75 L 358,338 z M 229,363 L 230.75,366.25 C 235.546,383.6 241.49,401.6 255.25,414.75 L 261.75,418.25 L 268.75,423.25 L 269.75,427.75 L 268.25,427.75 L 259.75,420.25 L 252.25,415.75 L 251.75,414.25 C 246.091,408.77 241.05,402.57 238.75,395.25 L 229,370 L 228,364 L 229,363 z M 363,424 C 365.679,424.4754 364.373,426.919 363.25,428.25 L 363.25,428.75 L 364.75,429.25 L 360.25,433.75 L 363,424 z M 285,426 L 285.75,426.25 L 291.75,433.25 L 296,438 L 301.75,434.25 C 302.1565,437.181 300.225,441.123 297.25,441.75 L 284.25,427.75 L 285,426 z M 339,429 L 341.75,429.25 L 344.75,433.25 L 345.25,434.75 L 358.75,437.25 C 354.804,442.5 345.55,440.065 341.75,435.25 L 339.25,434.75 L 339,429 z M 207,489 L 207.25,489.75 L 213.25,492.75 C 216.57,490.279 217.754,494.02 217,497 L 216,500 L 215.25,499.75 L 198.75,487.25 L 196,486 L 198.75,483.75 L 204.25,476.25 L 212.25,467.25 L 213.75,466.75 L 215,461 C 217.954,463.485 215.8755,467.233 215.75,470.75 C 212.793,468.521 211.307,472.965 209.75,474.75 L 202.75,482.75 L 200.25,485.75 L 207,489 z M 360,461 L 362,462 L 361,469 L 360,474 L 358.75,492.75 L 356.25,490.75 L 356.75,477.25 L 356,476 L 360,461 z M 499,461 C 502.295,460.4567 501.699,464.278 503,466 L 502.25,468.75 L 509,500 L 512,518 L 515,534 L 515,538 L 516,540 L 516,545 L 517.75,549.25 L 516.75,550.75 L 514.25,549.75 L 511,535 L 511,528 L 506,502 L 503,486 L 499,461 z M 207,489 L 207.25,486.25 L 209,486 L 211,486 C 215.307,487.077 215.033,477.559 211.25,479.75 L 209.25,478.75 L 209.25,477.25 L 211.25,476.25 L 218.75,473.25 L 218.75,474.75 C 214.659,476.27 216.109,482.187 216.25,485.75 L 236.75,484.75 L 239,483 L 244,488 L 242.75,489.75 L 212.25,488.25 L 207,489 z M 482,508 L 480.25,506.75 L 479.75,504.25 L 473.75,490.25 L 469.25,479.25 L 470.75,479.25 L 472.75,482.25 L 482,506 L 482,508 z M 456,502 C 454.115,501.8603 456.1397,503.885 456,502 L 457.75,503.25 L 468.25,523.75 L 470.75,527.25 L 480.25,543.75 L 481.75,544.25 L 487,555 L 486.75,556.75 L 483.25,553.75 L 481.75,550.25 L 465.25,523.75 L 446.75,489.25 L 440.25,480.25 L 442.75,480.25 L 456,502 z M 321,481 L 323.75,481.25 L 327.75,491.25 L 327.25,492.75 L 328.75,493.25 L 328,507 L 327.25,507.75 L 326,506 C 326.7618,496.966 324.454,488.82 321,481 z M 378,535 L 380.75,536.25 L 382.75,540.25 L 382.25,541.75 L 399,593 L 403,609 L 402,614 L 400,611 L 391,580 L 380.75,544.25 L 378,538 L 378,535 z M 353,544 L 357.75,547.25 L 358,550 L 366.75,566.25 L 371,577 L 370.75,577.75 L 368.25,576.75 L 359.75,559.25 L 358.25,557.75 L 357.75,555.25 L 353,544 z M 338,552 L 340.75,553.25 L 343.25,559.75 L 349.25,569.75 L 352.75,573.25 L 382.75,623.75 L 378.25,621.75 L 357.75,586.25 L 356.25,585.75 L 340.75,559.25 L 337.25,554.75 L 338,552 z "
       style="fill:#030303;stroke:#030303"
       id="path1251" />
  </g>
</svg>
