/* XPM */
static char *logo_icon[] = {
/* width height num_colors chars_per_pixel */
"    64    64       57            1",
/* colors */
". c #ffffff",
"# c #3a3a3a",
"a c #4b4b4b",
"b c #535353",
"c c #757575",
"d c #a8a8a8",
"e c #dadada",
"f c #f3f3f3",
"g c #292121",
"h c #100808",
"i c #ff0000",
"j c #fb1000",
"k c #da3a00",
"l c #5b4321",
"m c #b8863a",
"n c #433a29",
"o c #d2a83a",
"p c #ffc010",
"q c #7d5b00",
"r c #ffd229",
"s c #b88e10",
"t c #ffc908",
"u c #8e7518",
"v c #fbc910",
"w c #fbc908",
"x c #7d6d29",
"y c #f3c908",
"z c #e2c93a",
"A c #c9c9c0",
"B c #969f00",
"C c #5b6453",
"D c #3a4b31",
"E c #53fb00",
"F c #75ff3a",
"G c #53eb10",
"H c #5bff10",
"I c None",
"J c #8ee26d",
"K c #4bfb08",
"L c #649f53",
"M c #435b43",
"N c #3ac93a",
"O c #3a869f",
"P c #2131c9",
"Q c #b0b0b8",
"R c #10089f",
"S c #3100da",
"T c #4308b0",
"U c #5308c0",
"V c #5b21a8",
"W c #21004b",
"X c #6d08e2",
"Y c #180821",
"Z c #8618b0",
"0 c #640886",
"1 c #8e868e",
"2 c #000000",
/* pixels */
"IiiiiiiiIIIIIiiiiiiIIIIIIIIIIIIIIIIIIIIIIIIIIIIIIIIIIIIIIIIIIIII",
"IiiiiiiiIIIIIjiiiiiIIIIIIIIIIIIIIIIIIIIIJ222JIIIIIIIIIIIIIIIIIII",
"IIiiiiiiIIIIIjiiiijIIIIIIIIIIIIIIIIIII222222222IIIIIIIIIIIIIIIII",
"IIjiiiijIIIIiiiiiiiIIIIIIIIIIIIIIIIIC22222222222hIIIIIIIIIIIIIII",
"IIiiiiiiiIIIiiiiiiiIIIIIIIIIIIIIIIIL222222222h.#22IIIIIIIIIIIIII",
"IIiiiiiiiIIIiiiiiiIIIIIIIIIIIIIIVCI2222222222b#h22JIIIIIIIIIIIII",
"IIIiiiiiiiIijiiiiiIIIIIIIIIIIIIXRcI2222222222222222cVIIIIIIIIIII",
"IIIiiiiiiiIiiiiijiIIIIIIIIIIIIXSXXZ0agY2222hW00ZXXUXXIIIIIIIIIII",
"IIIIiiiiiiIiiiiikIIIIIIIIIIIIZTNKNORSXXY22USXXTWWWWPXIIIIIIIIIII",
"IIIIiiiiiiiiiiiiiIIIIIIIIIIIIcVGIIF2A.QXWZS.f..h222VSIIIIIIIIIII",
"IIIIiiiiiiiiiiijIIIIIIIIIIIIIIVNIIH2fhaPPRAA2d.d222VVIIIIIIIIIII",
"IIIIIjiiiiiiiiiiIIIIIIIIIIIIIILaIIE2e2cU0VQg22dA222TIIIIIIIIIIII",
"IIIIIiiiiiiiiiiiIIIIIIIIIIIIIIIVLIE2ccxZvoUo22.A22YVIIIIIIIIIIII",
"IIIIIiiiiiiiiiiIIIIIIIIIIIIIIIIIPUcWWmcovwmczogYWWPYIIIIIIIIIIII",
"IIIIIIiiiiiiiijIIIIIIIIIIIIIIIIIIIVPSXZvppwZUUTTT0h2IIIIIIIIIIII",
"IIIIIIiiiiiiiiiIIIIIIIIIIIIIIIIIIII22rtvvpppm2ru2h22JIIIIIIIIIII",
"IIIIIIIiiiiiiiIIIIIIIIIIIIIIIIIIIII222xBublsrqf221e#2IIIIIIIIIII",
"IIIIIIiiiiiiiiIIIIIIIIIIIIIIIIIIIII212ztwrrl2..d22#g2LIIIIIIIIII",
"IIIIIIjiiiiiiiiIIIIIIijjjjjiIIIIIII2fQ2ha22A....g22222IIIIIIIIII",
"IIIIIiiiiiiiiijIIIIIIiiiiiiiIIIIII2#..c22a......f22222hIIIIIIIII",
"IIIIIkiiiiiiiiiiIIIIIiiiiiiiIIIII22..............b22222gIIIIIIII",
"IIIIIjiiiiiiiiiiIIIIIiiiiiiiIIIIn2b..............f222222JIIIIIII",
"IIIIiiiiiiiiiiiiIIIIIiiiiiiiIIIM22e...............g2#2222LIIIIII",
"IIIIiiiiiijiiiiiiIIIIiiiiiiiIIC222C...............Q22Cg222IIIIII",
"IIIiiiiiiiiiiiiiiIIIIiiiiiiiII2C22.................M22A2222IIIII",
"IIIiiiiiiIIiiiiiiiIIIIIIIIIIIDah2f..................222d222CIIII",
"IIIjiiiiiIIiiiiiiiIIIIIIIIIII222g...................c22e2222IIII",
"IIiiiiiiiIIiiiiiiiIIIIIIIIIIh222e...................e22#c222IIII",
"IIiiiiiiIIIIiiiiiiIIIIIIIIII222h.....................222A222hIII",
"IIjiiiiiIIIIiiiiiiiIIIIIIIILhh2d.....................222f2222III",
"IIiiiiiiIIIIIiiiiiiIIIIIIII2M22e.....................h22d2222LII",
"IiiiiiiiIIIIIiiiiiiIIIIIII22M22e.....................h22e22222II",
"IiiiiiiIIIIIIiiiiiiiIIIIII22hc2e.....................Y2cc22222II",
"IiiiiiiIIIIIIiiiiiiiIIIIII222f2e.....................fbhgA222MII",
"IIIIIIIIIIIIIIIIIIIIIIIIIInuh2f......................22222222CII",
"IIIIIIIIIIIIIIIIIIIIIIIIIItptx2e...................#x2222222hIII",
"IIIIIIIIIIIIIIIIIIIIIIIIIlvpvtx2b..................ntu22222hptII",
"IIIIIIIIIIIIIIIIIIIIIIIIDztppptn22e................opvl222ltpoII",
"IIIIIIIIIIIIIIIIIIII2h22mtpwppprh221...............opptrpptpwoJI",
"IIIIIIIIIIIIIIIIIIIJrtrtwptptppvr2222..............xppvvtpvwpv2I",
"IIIIIIIIIIIIIIIIIIIIltpppppppppwto222c............fgpvppppppwtu2",
"IIIIIIIIIIIIIIIIIIII2tvppppppppvwpl22e...........gd2pwpppppptptr",
"IIIIIIIIIIIIIIIIIIII2oppppppppptppp2f...........a212tpvpppppttpv",
"IIIIIIIIIIIIIIIIIIII2rtppppppppppvtvcM1......fd222Mgppwpppppvptt",
"IIIIIIIIIIIIIIIIIIIMmpvvpptwppppppvphQ22bCbg22222hCnppwppppttvuh",
"IIIIIIIIIIIIIIIIIIIMxrtpvwwtppppppvtnYC2222222222egltpwppwpo2gII",
"IIIIIIIIIIIIIIIIIIIIILMgqsvptpptppvr2g22222222222ahhtypptvg2IIII",
"IIIIIIIIIIIIIIIIIIIIIIIIIIL2hlvttptn2hIIIIIIIIIIIIn2ltppx2IIIIII",
"IIIIIIIIIIIIIIIIIIIIIIIIIIIIIID22n2hIIIIIIIIIIIIIII222222IIIIIII",
"IiiIIIIIIiiiiIIIiiiiIIiiIIIiiIIiiiIIIIiiiIIiiiiiiIiiiiiIiiiiiIII",
"IiiIIIIIiiiiiIIIiiiiIIiiIIIiiIIiiiIIIIiiiiIiiiiiiIiiiiiIiiiiiIII",
"IiiIIIIIiiiiiiIiiiiiiIiiiIiiiIIiiiIIIiiiiiIiiiiiiIiiiiiIiiiiiiII",
"IiiIIIIIiiiiiiIiiiiiiIiiiIiiiIIiiiIIIiiiiiIiiiiiiIiiiiiIiiiiiiII",
"IiiIIIIIiiIIiiIiiIIIIIiiiiiiiIiiIiiIIiiIIIIIIiiIIIiiIIIIiiIIiiII",
"IiiIIIIIiiIIiiIiiIIIIIiiiiiiiIiiIiiIIiiIIIIIIiiIIIiiIIIIiiIIiiII",
"IiiIIIIIiiIIiiIiiIiiiIiiiiiiiIiiIiiIIIiiiIIIIiiIIIiiiiiIiiiiiiII",
"IiiIIIIIiiIIiiIiiIiiiIiiiiiiiIiiIiiIIIiiiiIIIiiIIIiiiiiIiiiiiiII",
"IiiIIIIIiiIIiiIiiIIiiIiiIiIiiIiiiiiIIIIIiiIIIiiIIIiiIIIIiiiiiIII",
"IiiIIIIIiiIIiiIiiIIiiIiiIiIiiIiiiiiIIIIIiiiIIiiIIIiiIIIIiiiiiIII",
"IiiiiiIIiiiiiiIiiiiiiIiiIiIiiiiiiiiiIIiiiiiIIiiIIIiiiiIIiiIiiiII",
"IiiiiiIIiiiiiiIiiiiiiIiiIiIiiiiiiiiiIIiiiiIIIiiIIIiiiiiIiiIiiiII",
"IiiiiiIIiiiiiIIiiiiiIIiiIiIiiiiIIIiiIIiiiiIIIiiIIIiiiiiIiiIIiiiI",
"IiiiiiIIIiiiiIIIiiiiIIiiIiIiiiiIIIiiIIiiiIIIIiiIIIiiiiiIiiIIiiiI",
"IIIIIIIIIIIIIIIIIIIIIIIIIIIIIIIIIIIIIIIIIIIIIIIIIIIIIIIIIIIIIIII"
};
