<?xml version="1.0" encoding="UTF-8" standalone="no"?>
<!-- Created with Inkscape (http://www.inkscape.org/) -->
<svg
   xmlns:dc="http://purl.org/dc/elements/1.1/"
   xmlns:cc="http://web.resource.org/cc/"
   xmlns:rdf="http://www.w3.org/1999/02/22-rdf-syntax-ns#"
   xmlns:svg="http://www.w3.org/2000/svg"
   xmlns="http://www.w3.org/2000/svg"
   xmlns:sodipodi="http://sodipodi.sourceforge.net/DTD/sodipodi-0.dtd"
   xmlns:inkscape="http://www.inkscape.org/namespaces/inkscape"
   width="250.51346"
   height="347.96979"
   id="svg2"
   sodipodi:version="0.32"
   inkscape:version="0.45"
   version="1.0"
   sodipodi:docname="aq_head.svg"
   sodipodi:docbase="/home/chisulo/inkscape"
   inkscape:output_extension="org.inkscape.output.svg.inkscape"
   sodipodi:modified="true">
  <defs
     id="defs4" />
  <sodipodi:namedview
     id="base"
     pagecolor="#ffffff"
     bordercolor="#666666"
     borderopacity="1.0"
     gridtolerance="10000"
     guidetolerance="10"
     objecttolerance="10"
     inkscape:pageopacity="0.0"
     inkscape:pageshadow="2"
     inkscape:zoom="1.1696418"
     inkscape:cx="133.80636"
     inkscape:cy="173.98489"
     inkscape:document-units="px"
     inkscape:current-layer="layer1"
     inkscape:window-width="872"
     inkscape:window-height="619"
     inkscape:window-x="0"
     inkscape:window-y="25"
     showguides="true"
     inkscape:guide-bbox="true" />
  <metadata
     id="metadata7">
    <rdf:RDF>
      <cc:Work
         rdf:about="">
        <dc:format>image/svg+xml</dc:format>
        <dc:type
           rdf:resource="http://purl.org/dc/dcmitype/StillImage" />
      </cc:Work>
    </rdf:RDF>
  </metadata>
  <g
     inkscape:label="Layer 1"
     inkscape:groupmode="layer"
     id="layer1"
     transform="translate(81.909799,-294.78047)">
    <path
       style="fill:#000000;fill-opacity:1;fill-rule:evenodd;stroke:none;stroke-width:1px;stroke-linecap:butt;stroke-linejoin:miter;stroke-opacity:1"
       d="M -14.5625,293.3125 C -28.408593,294.82482 -43.894705,295.69411 -54.119835,306.386 C -58.500888,309.94174 -63.820986,316.30967 -66.9375,318.75 C -65.133726,314.59386 -59.714251,311.24124 -61.375,306.03125 C -67.442397,304.85348 -71.325585,311.7914 -73.8125,316.25 C -78.207462,328.15947 -76.987084,342.13016 -71.6875,353.625 C -75.456197,352.61467 -79.0429,347.29587 -82.53125,348.65625 C -85.027228,352.5292 -79.53288,355.59364 -78.46875,359.09375 C -75.373778,364.02355 -69.325868,366.49015 -64.59375,368.75 C -66.816354,374.69842 -71.837582,381.53123 -67.25,387.78125 C -64.320777,384.55084 -65.306311,378.41591 -61.34375,376.4375 C -58.328777,380.20876 -53.893818,375.39202 -53.978271,371.85013 C -52.052023,365.15467 -50.386204,357.61708 -44.78125,352.96875 C -26.586968,360.4324 -5.912463,363.065 13.5,359.6875 C 26.115117,357.62119 38.313218,352.13089 51.03125,351.625 C 62.122611,353.95039 72.553505,358.84443 83.03125,362.875 C 90.760692,366.71972 93.578605,375.53761 99.1875,381.3125 C 100.74669,383.08698 106.80923,384.10316 103.4375,386.65625 C 100.86849,392.7073 97.774488,400.32055 100.5625,406.8125 C 103.24248,411.21496 109.95435,413.23712 109.375,419.28125 C 109.88251,422.95088 110.37789,428.15674 108.78125,430.90625 C 105.2113,429.61675 104.28281,434.94776 101.50595,436.01188 C 99.424333,437.39921 96.484801,441.11038 94.46875,440.625 C 91.300394,437.38139 86.461728,442.53005 85.53125,445.71875 C 81.5836,454.94953 81.576739,467.42828 88.4375,475.21875 C 91.59289,477.56731 92.657251,471.62251 91.15625,469.4375 C 90.326064,465.19309 91.827436,460.50827 93,456.53125 C 92.039596,460.20121 96.549944,465.64004 98.9375,460.9375 C 100.69304,456.52125 102.25501,452.28591 105.94025,449.06534 C 107.49311,447.05773 108.31283,452.53106 109.90625,453.21875 C 116.64494,459.57209 118.25675,468.83811 123.96875,475.84375 C 119.27229,481.81977 114.69433,489.80423 117.78125,497.5625 C 124.97396,494.96636 136.20481,496.01888 138.875,487.09375 C 139.07622,485.34894 137.24857,481.44458 139.78125,485.1875 C 141.38801,488.30975 147.69737,488.54588 146.46875,483.71875 C 146.38737,476.5681 141.39018,468.99275 139.75,463.375 C 142.96077,465.2354 144.26735,460.08271 143.15625,458.65625 C 144.43767,461.99281 143.48598,469.73008 146.5625,462.96875 C 149.53408,456.29054 143.25344,450.01531 144.40625,443.125 C 144.11081,440.50224 142.95804,436.62968 145.03125,441.21875 C 147.33994,446.6652 148.27537,452.8865 148.4375,458.65625 C 146.67414,461.16513 148.50394,467.56793 151.8125,464.09375 C 153.83643,460.9266 151.89371,456.57611 154.53125,453.5625 C 156.85705,448.80709 154.72989,441.03599 154.28125,438 C 155.96754,440.38683 159.45181,440.36233 158.65625,436.875 C 158.60597,432.33226 155.32928,428.1439 154.28125,424.28125 C 156.95872,424.64616 161.66445,429.65319 163.625,425.6875 C 163.91135,420.91416 157.88458,419.22799 156.09375,415.1875 C 152.84059,411.28145 151.20289,406.34629 150.53125,401.375 C 154.58264,402.66175 160.99161,406.45061 163.84375,401.375 C 167.14009,395.16589 170.47693,388.4378 169.75,381.1875 C 165.03073,378.63418 165.33954,387.39591 161,385.8125 C 155.81352,385.53698 152.52748,379.03965 152.96875,375 C 156.41318,375.83843 161.98696,380.12835 164.65625,376.4375 C 164.32889,370.18286 156.90139,367.83291 153.46503,363.36885 C 145.44597,357.48747 140.86612,348.08602 131.5,344.125 C 119.86271,338.23945 106.75319,336.12306 94.40625,332.25 C 89.1106,331.80365 91.112348,330.95782 95.21875,331.0625 C 100.27531,330.6497 105.2845,334.09737 109.78125,334.125 C 113.01227,331.02202 107.18746,328.33073 105.03125,327 C 92.510346,319.07664 76.627488,320.34617 62.65625,319.96875 C 65.371219,317.35769 71.46188,315.92065 71.75,312.15625 C 68.190675,308.32676 62.903244,312.94708 58.5625,312.625 C 53.401507,313.20411 46.455455,315.94943 42.5,316.28125 C 43.654872,312.0298 38.424162,309.94331 35.229114,312.22298 C 27.020664,314.94577 17.969124,317.88882 10.4375,320.96875 C 11.628822,313.08573 19.517483,307.69812 26.96875,306.96875 C 30.132033,305.00215 25.630352,302.33293 23.625,301.9375 C 11.723775,296.53639 -1.5547155,294.05042 -14.5625,293.3125 z "
       id="path7358" />
    <path
       style="fill:#000000;fill-rule:evenodd;stroke:none;stroke-width:1px;stroke-linecap:butt;stroke-linejoin:miter;stroke-opacity:1"
       d="M -32.28125,532.03125 C -37.221763,534.13359 -33.210951,540.17464 -31.46875,543.09375 C -23.570569,559.28936 -16.48508,576.61371 -2.1533184,588.25473 C 16.413684,605.39347 34.772857,622.92819 54.25,639.09375 C 57.479535,640.81181 61.570875,645.34731 65.125,643.4375 C 67.51399,640.37782 65.293715,636.00445 67.375,632.6875 C 69.916428,622.99892 68.240598,612.14635 73.375,603.3125 C 77.130472,603.11107 81.130745,602.50948 83.6875,599.4375 C 77.954734,597.6796 70.869107,599.91367 66.78125,594.21875 C 47.296131,579.06867 27.343681,564.48963 5.4206347,552.95943 C -6.3846817,547.22579 -16.29236,538.31955 -28.03125,532.625 C -29.388993,532.21213 -30.853993,531.79764 -32.28125,532.03125 z "
       id="path7344" />
    <path
       style="fill:#000000;fill-rule:evenodd;stroke:#000000;stroke-width:1px;stroke-linecap:butt;stroke-linejoin:miter;stroke-opacity:1"
       d="M 78.71875,542.59375 C 73.895149,545.25103 76.005222,552.57303 76.0625,557.125 C 77.175828,571.22887 75.164107,585.35799 72.0625,599 C 72.986304,603.98024 80.0132,602.15978 81.9375,606.625 C 90.304363,615.03647 91.723242,627.73155 90.59375,638.9375 C 90.742413,642.00159 95.233196,642.4822 95.28125,639.15625 C 101.03007,616.12178 106.9923,590.65554 97.832832,567.71617 C 93.367378,558.3442 87.60593,548.7921 79.28125,542.59375 C 79.098711,542.5842 78.898447,542.51973 78.71875,542.59375 z "
       id="path7338" />
    <path
       style="fill:#000000;fill-opacity:1;fill-rule:evenodd;stroke:none;stroke-width:1px;stroke-linecap:butt;stroke-linejoin:miter;stroke-opacity:1"
       d="M 95.40625,491.1029 C 92.77592,493.67151 96.97727,498.19042 97.29011,501.22617 C 97.54231,502.98111 100.5747,506.93312 97.0625,506.63415 C 80.26966,511.55673 64.80339,520.48828 47.625,524.13415 C 33.24803,531.7356 16.590636,527.6998 1.094435,528.09714 C -9.310703,528.19738 -20.639305,526.38367 -30.46875,530.1654 C -34.070602,533.98393 -28.33878,538.93158 -26,541.7904 C -7.672468,561.97149 17.595409,573.17794 41.29335,585.63622 C 53.09132,591.69951 64.3929,600.73311 77.9375,601.88415 C 88.362,600.4432 91.02491,587.74505 95.11039,579.85297 C 104.13314,560.19021 112.18167,539.14846 112.5625,517.2279 C 112.98772,508.61719 104.9955,502.91957 100.95063,496.09319 C 99.27092,494.58096 97.99227,491.05531 95.40625,491.1029 z "
       id="path7334" />
    <path
       style="fill:#000000;fill-rule:evenodd;stroke:none;stroke-width:1.10806763px;stroke-linecap:butt;stroke-linejoin:miter;stroke-opacity:1"
       d="M -24.75,362.25 C -37.076768,363.0103 -53.012908,362.99781 -60.4375,374.625 C -62.821471,382.89126 -53.491021,388.54117 -53.59375,396.65625 C -51.396271,403.27665 -49.427328,411.11429 -54.775969,416.88175 C -59.302204,422.45842 -60.680206,429.32108 -62.5625,435.96875 C -65.804637,443.54396 -73.185339,450.64783 -70.0625,459.53125 C -67.842327,468.56556 -63.92049,477.69402 -66.1875,487.03125 C -66.235262,504.93156 -58.456853,521.90215 -46.455178,534.83206 C -34.109782,549.13872 -18.953156,561.14606 -2.5,570.46875 C 14.220774,576.26642 31.645842,568.76622 48.3125,566.53125 C 64.9815,562.27775 79.999294,553.48956 95.5,546.34375 C 118.19515,534.21832 130.1149,509.52575 137.61057,485.99199 C 143.5428,466.18898 143.86646,445.20239 142.84375,424.71875 C 141.93242,413.37651 132.92282,405.41819 125.375,397.9375 C 120.6031,394.93793 116.1327,391.8068 111.84375,388.0625 C 90.946164,373.91774 64.990327,370.32953 40.46875,367 C 18.805577,364.95844 -2.9656391,362.10146 -24.75,362.25 z "
       id="path5307" />
    <path
       style="fill:#008080;fill-rule:evenodd;stroke:none;stroke-width:1px;stroke-linecap:butt;stroke-linejoin:miter;stroke-opacity:1"
       d="M 77.607284,600.81112 C 82.896304,603.45563 88.935054,610.41559 91.913354,620.83962 C 93.409974,626.0778 92.060044,643.85787 93.343964,638.7222 C 98.572464,617.80819 102.74082,599.96801 99.066384,577.9214 C 97.173284,566.56276 87.343094,552.60735 79.753194,545.01744 C 76.271034,541.53528 78.322584,560.79225 78.322584,565.04594 C 78.322584,574.09178 77.540154,583.91233 75.461374,592.22747 C 74.401914,596.4653 71.882094,600.81112 77.607284,600.81112 z "
       id="path2228" />
    <path
       style="fill:#008080;fill-rule:evenodd;stroke:#000000;stroke-width:1px;stroke-linecap:butt;stroke-linejoin:miter;stroke-opacity:1"
       d="M 79.037884,600.30789 C 81.756464,600.30789 72.385334,600.02223 71.169554,602.4538 C 66.934224,610.92445 67.686984,622.8218 65.447124,631.78124 C 64.593834,635.19438 64.016514,638.06903 64.016514,641.79549 C 64.016514,645.55061 40.041594,624.9736 34.689064,619.62108 C 22.052439,606.98445 8.0468164,595.84004 -4.6526256,583.1406 C -12.35314,575.44009 -19.24279,565.26308 -23.250518,555.24376 C -25.602806,549.36304 -29.209958,543.32488 -31.83416,538.07648 C -36.718289,528.30822 -20.663681,538.586 -17.528089,540.93769 C 0.41221237,554.39292 22.230306,562.73016 39.696194,576.70287 C 48.106514,583.43113 58.134144,588.70309 65.447124,596.01606 C 68.180494,598.74943 71.320504,599.31041 74.746064,601.02319 C 76.043294,601.6718 77.607284,600.54632 79.037884,600.30789 z "
       id="path2226" />
    <path
       style="fill:#ffdab9;fill-opacity:1;fill-rule:evenodd;stroke:#000000;stroke-width:1px;stroke-linecap:butt;stroke-linejoin:miter;stroke-opacity:1"
       d="M 189.33638,175.33195 C 193.19829,190.77958 181.63423,225.22483 172.94178,242.69997 C 169.41915,249.78179 165.19192,264.66231 155.93617,264.66231 C 145.63601,264.66231 123.97661,250.11314 114.44857,245.34911 C 103.56717,239.90842 92.621879,234.39901 82.259907,228.18183 C 72.00734,222.03029 63.742036,215.38639 55.078372,206.72272 C 50.214856,201.85921 44.035023,195.19756 50.786551,193.84726 C 62.660853,191.4724 78.059942,193.13196 90.128246,193.13196 C 100.6802,193.13196 113.43652,195.06859 123.03221,190.27074 C 127.44706,188.06332 132.64888,187.15127 137.33828,185.97892 C 141.99117,184.8157 172.72305,171.04013 177.89152,171.04013 C 181.4621,171.04013 160.82174,134.09493 189.33638,175.33195 z "
       id="path2224"
       transform="translate(-80.5,336.2279)"
       sodipodi:nodetypes="cssssssssssc" />
    <path
       style="fill:#ffa07a;fill-opacity:1;fill-rule:evenodd;stroke:none;stroke-width:1px;stroke-linecap:butt;stroke-linejoin:miter;stroke-opacity:1"
       d="M 107.83638,511.55985 C 111.69829,527.00748 108.58048,540.91261 86.312,554.13395 C 61.52526,571.52895 34.10409,570.11156 74.43617,600.89021 C 64.13601,600.89021 42.47661,586.34104 32.94857,581.57701 C 22.06717,576.13632 11.121879,570.62691 0.759907,564.40973 C -9.49266,558.25819 -17.757964,551.61429 -26.421628,542.95062 C -31.285144,538.08711 -37.464977,531.42546 -30.713449,530.07516 C -18.839147,527.7003 -3.440058,529.35986 8.628246,529.35986 C 19.1802,529.35986 31.93652,531.29649 41.53221,526.49864 C 45.94706,524.29122 51.14888,523.37917 55.83828,522.20682 C 60.49117,521.0436 91.22305,507.26803 96.39152,507.26803 C 99.9621,507.26803 79.32174,470.32283 107.83638,511.55985 z "
       id="path8333"
       sodipodi:nodetypes="cccssssssssc" />
    <path
       style="fill:#ffdab9;fill-rule:evenodd;stroke:none;stroke-width:1.10806763px;stroke-linecap:butt;stroke-linejoin:miter;stroke-opacity:1"
       d="M 122.07113,385.73534 C 104.99959,366.65073 55.434733,330.90665 27.473603,329.05887 C 14.162808,328.17924 -42.559611,339.78795 -57.640105,353.62257 C -58.275271,384.74356 -61.481819,374.88479 -53.069022,391.04423 C -49.865553,397.1975 -47.306161,407.83032 -50.809468,414.31268 C -53.20921,418.75305 -54.417627,419.52798 -56.77912,423.89757 C -58.762409,427.56736 -57.958033,434.71107 -67.801782,449.62453 C -71.866832,455.78315 -61.652441,474.62419 -63.622949,481.85658 C -65.532377,488.86479 -62.464536,502.07035 -60.146466,509.57654 C -57.828396,517.08272 -49.861854,528.16049 -40.644346,538.39388 C -31.426838,548.62727 -18.457818,557.54251 -7.9597869,565.31254 C -3.8466256,568.35686 -1.4674338,568.72012 3.5766662,569.88679 C 14.759641,572.47335 24.968603,568.49418 35.713927,566.83728 C 47.153773,565.07331 60.362485,561.69333 70.323286,556.16402 C 83.5915,548.79876 96.179791,545.91544 107.40474,535.53038 C 121.51292,522.47782 132.19823,498.90325 136.93154,481.38668 C 141.34806,465.0424 141.19006,444.84404 141.19006,428.03544 C 141.19006,419.20993 136.21594,411.23548 129.65361,405.16417 C 124.26345,400.17732 128.7729,388.21547 122.07113,385.73534 z "
       id="path2162"
       sodipodi:nodetypes="cscsssszzzssssssssc" />
    <path
       style="fill:#000000;fill-rule:evenodd;stroke:none;stroke-width:1px;stroke-linecap:butt;stroke-linejoin:miter;stroke-opacity:1"
       d="M -45.15625,478.0625 C -45.18544,486.35467 -39.251166,495.21992 -44.25,503.1875 C -46.183029,508.62632 -47.577246,514.26694 -49.375,519.78125 C -36.076031,518.06026 -22.441186,520.46634 -10.9375,527.25 C -4.9704014,529.90983 1.4787405,524.55693 0.875,518.3125 C -0.3309389,505.86034 1.0022669,491.03486 -8.65625,481.625 C -14.353765,476.27177 -22.680543,478.04546 -29.34375,480.1875 C -34.834867,481.12396 -39.930071,478.3429 -45.03125,476.78125 L -45.12835,477.77652 L -45.15625,478.0625 z "
       id="path7350" />
    <path
       style="fill:#696969;fill-rule:evenodd;stroke:none;stroke-width:1px;stroke-linecap:butt;stroke-linejoin:miter;stroke-opacity:1"
       d="M -49.026646,389.16037 C -52.434146,393.72973 -57.314289,396.96418 -60.599268,401.63768 C -62.936319,402.57301 -65.105886,405.12367 -62.787253,407.297 C -61.107022,411.14038 -60.807279,415.39833 -60.181782,419.49499 C -60.065137,423.24187 -60.707171,427.06504 -62.26553,430.47462 C -63.346175,433.0839 -60.561954,434.45882 -58.763457,435.59694 C -53.943884,438.34746 -48.257072,439.17354 -42.781337,439.26517 C -40.072894,439.37631 -37.30196,439.10241 -35.028339,437.47915 C -32.106584,435.67008 -29.451393,433.42185 -26.578943,431.57064 C -24.803153,429.12781 -27.736259,426.67276 -27.57351,424.13324 C -27.632542,420.64423 -26.557106,417.23377 -26.757564,413.73732 C -26.347126,407.77127 -25.200835,401.39513 -27.895458,395.77156 C -29.580972,392.83263 -29.278457,388.61235 -32.378243,386.58147 C -34.888466,385.27906 -37.864547,385.66191 -40.585515,385.79564 C -43.623478,386.15515 -46.642444,387.20053 -49.026646,389.16037 z "
       id="path2234" />
    <path
       style="fill:#f9f9f9;fill-rule:evenodd;stroke:none;stroke-width:1px;stroke-linecap:butt;stroke-linejoin:miter;stroke-opacity:1"
       d="M 43.633516,56.50898 C 38.262282,50.917553 32.308628,54.958404 26.466231,60.800801 C 19.101152,68.16588 20.149799,85.782022 23.605017,94.420067 C 26.501194,101.66051 36.022292,105.73637 42.918212,102.28841 C 50.650985,98.42202 52.932462,85.41511 52.932462,77.968086 C 52.932462,71.956105 52.686655,66.031616 50.071248,60.800801 C 48.368899,57.396103 48.235613,58.349818 43.633516,56.50898 z "
       id="path2164"
       transform="translate(-80.5,336.2279)" />
    <path
       style="fill:#000000;fill-rule:evenodd;stroke:#000000;stroke-width:1.09103239px;stroke-linecap:butt;stroke-linejoin:miter;stroke-opacity:1"
       d="M -44.085069,423.59679 L -43.709092,451.93856 C -43.709092,451.93856 -62.507932,442.4913 -70.403445,445.13654 C -70.403445,445.13654 -77.359015,424.82494 -70.779421,419.44 C -64.199827,414.05506 -44.085069,423.59679 -44.085069,423.59679 z "
       id="path3254"
       sodipodi:nodetypes="ccczc" />
    <path
       style="fill:#696969;fill-rule:evenodd;stroke:none;stroke-width:1px;stroke-linecap:butt;stroke-linejoin:miter;stroke-opacity:1"
       d="M 79.398693,42.918212 C 81.91337,44.170557 86.686769,47.925337 91.558853,47.925337 C 94.154812,47.925337 98.62681,48.640641 102.28841,48.640641 C 106.81866,48.640641 111.34892,48.640641 115.87917,48.640641 C 121.40828,48.640641 127.44912,49.54904 132.33115,51.501855 C 139.23738,54.264343 146.43922,59.172185 151.64435,64.377318 C 154.67163,67.404596 157.16347,69.896437 159.51269,72.245657 C 164.97608,77.709052 160.07606,74.098793 156.65147,71.530354 C 151.73178,67.840584 153.07496,73.788462 153.07496,77.968086 C 153.07496,82.826364 150.6929,88.926929 149.49844,93.704764 C 148.34005,98.338334 146.51134,102.54018 144.49131,106.58023 C 142.72425,110.11435 141.4112,112.02516 140.19949,114.44857 C 139.19354,116.46048 144.33137,116.43453 145.92192,118.02508 C 146.48683,118.58999 135.71402,118.74039 127.32403,118.74039 C 121.25555,118.74039 114.50379,118.02508 108.01083,118.02508 C 103.26066,118.02508 98.937468,114.86261 94.420067,113.73326 C 90.239822,112.6882 87.125009,110.47889 82.97521,109.44144 C 79.869184,108.66493 76.200961,105.33901 72.960961,103.71901 C 69.548416,102.01274 73.905522,102.08668 75.106872,97.281281 C 76.055905,93.485147 77.032692,89.578 77.968086,85.836425 C 79.111923,81.261075 79.749887,77.278613 80.8293,72.960961 C 81.74926,69.281122 82.259907,66.790724 82.259907,62.946711 C 82.259907,59.989889 83.690514,55.838154 83.690514,52.217158 C 83.690514,47.646519 83.203426,45.961999 79.398693,42.918212 z "
       id="path2232"
       transform="translate(-80.5,336.2279)" />
    <path
       style="fill:#ffffff;fill-rule:evenodd;stroke:none;stroke-width:1px;stroke-linecap:butt;stroke-linejoin:miter;stroke-opacity:1"
       d="M 67.99844,401.46643 C 64.02843,393.52641 39.83895,388.78563 30.08735,387.16036 C 20.67669,385.59192 15.376504,388.48978 7.197639,386.44506 C 6.566019,386.28715 4.885673,403.72731 1.47521,420.77963 C 0.037292,427.96922 -1.74997,439.81985 4.336425,444.38464 C 12.80017,450.73245 30.61383,452.96829 40.81691,452.96829 C 45.65726,452.96829 51.35497,453.19498 55.12298,452.25298 C 58.95482,451.29502 63.41103,430.04019 64.42192,426.50206 C 66.04992,420.80408 67.28314,413.15573 67.28314,407.18886 C 67.28314,403.76673 67.99844,406.20776 67.99844,401.46643 z "
       id="path2166" />
    <path
       style="fill:#aa4400;fill-opacity:1;fill-rule:evenodd;stroke:#000000;stroke-width:1px;stroke-linecap:butt;stroke-linejoin:miter;stroke-opacity:1"
       d="M 68.8125,0.5 C 61.283448,0.5183764 54.309359,2.513845 46.53125,3.625 C 38.569126,4.76245 32.52101,9.72899 27.5625,14.6875 C 23.483872,18.76613 18.064904,23.13221 14.90625,27.34375 C 9.7448138,34.22566 11.763657,24.40887 14.90625,20.21875 C 21.013092,12.076289 20.358652,10.01635 13.3125,17.0625 C 6.3969936,23.978011 7.78125,34.99659 7.78125,43.9375 C 7.7812499,49.173929 13.992379,62.40702 14.125,62.9375 C 14.166337,63.102849 3.13393,57.47768 2.25,56.59375 C -2.780722,51.563031 4.453913,62.14688 6.21875,64.5 C 9.1805712,68.449091 14.447822,70.72133 18.0625,71.625 C 22.777882,72.803849 14.90625,80.98325 14.90625,85.84375 C 14.90625,89.783798 14.90625,97.4484 14.90625,89.03125 C 14.90625,84.1424 20.051081,75.60216 22.8125,81.125 C 27.286755,81.581927 25.197165,66.58116 36.25,55.8125 C 41.467329,57.116831 46.404774,60.26538 52.875,61.34375 C 61.875293,62.843798 71.442096,64.5 80.53125,64.5 C 87.863883,64.500001 98.846883,62.31172 105.84375,60.5625 C 109.81949,59.568569 113.83554,58.3458 117.71875,57.375 C 121.53881,56.419979 123.99615,55.82909 127.1875,55.03125 C 133.0907,53.555449 139.6103,56.19412 144.59375,58.1875 C 151.6218,60.998722 158.21338,62.62232 165.15625,66.09375 C 170.04068,68.535962 173.54744,71.92282 176.21875,76.375 C 178.74164,80.579823 179.75076,82.25076 182.5625,85.0625 C 183.90925,86.409253 185.86487,87.37352 187.875,88.0625 C 187.36289,85.852083 195.36728,89.849635 195.21875,89.8125 C 194.17098,89.550559 190.97246,89.124168 187.875,88.0625 C 188.01288,88.657652 188.77261,89.710105 190.46875,91.40625 C 193.78455,94.722057 198.04867,99.76742 192.03125,93.75 C 187.25949,88.978242 187.50673,92.54904 185.71875,96.125 C 184.28603,98.990459 184.32363,102.48676 183.34375,106.40625 C 182.35155,110.37509 186.64943,113.68068 188.09375,115.125 C 193.56532,119.70213 189.64678,114.05456 193.65625,123.96875 C 193.57175,124.90948 193.53125,125.87056 193.53125,126.78125 C 193.53125,131.92515 194.1832,137.97305 190.375,141.78125 C 189.42458,142.73166 190.4002,136.76847 189.59375,137.84375 C 186.80046,141.56814 182.31017,144.68143 177.71875,148.125 C 172.39802,152.11554 175.05351,146.28574 174.5625,146.53125 C 172.72109,147.45196 170.31181,148.5027 169.8125,150.5 C 169.10473,153.33107 166.65626,157.79583 166.65625,161.5625 C 166.65625,165.93965 167.29674,168.93691 168.21875,172.625 C 168.99877,175.7451 172.91962,182.77229 171.375,176.59375 C 170.05654,171.31991 171.61093,164.53516 173.75,159.1875 C 175.88397,153.85258 184.06305,146.76991 183.25,148.125 C 181.88668,150.3972 176.06791,159.67785 176.9375,163.15625 C 178.7009,170.20982 178.88429,163.80745 181.65625,159.1875 C 184.01189,155.26143 187.53625,151.32584 191.34375,148.71875 C 190.43182,150.74873 190.11057,152.34614 190.46875,153.0625 C 191.84107,155.80717 193.96888,157.47934 196,160.1875 C 198.65704,163.73022 199.85138,166.32776 201.53125,169.6875 C 203.02287,172.67077 204.584,176.709 207.84375,179.96875 C 210.30166,182.42666 198.68093,188.40432 201.07966,200.29803 C 206.3615,198.97235 220.35034,197.54788 218.61693,190.61424 C 216.21323,180.99944 218.70768,184.45767 223.6875,189.4375 C 230.71841,196.46841 222.81827,176.39517 222.68212,176.39517 C 220.68953,170.56782 216.53086,165.23985 215.78125,157.8125 C 236.30928,190.54494 207.1124,124.06407 219.71875,145.96875 C 221.30034,152.29511 227.97076,160.78705 227.26242,166.61962 C 228.0334,162.91757 224.46875,155.33212 224.46875,152.28125 C 224.46875,144.35075 222.65962,141.56925 219.71875,135.6875 C 217.7758,131.8016 225.35594,140.56834 227.625,143.59375 C 231.85471,149.23334 230.82558,156.3648 232.375,162.5625 C 232.45733,162.89182 232.51205,163.21593 232.5625,163.53125 C 233.66524,159.64013 235.53125,157.00773 235.53125,152.28125 C 235.53125,146.71301 233.40865,142.97834 232.375,138.84375 C 231.77187,136.43123 229.51837,134.72425 228.40625,132.5 C 226.40567,128.49887 235.6047,138.16409 237.90625,142 C 241.00388,147.16271 235.63469,131.69691 231.71875,125.21875 C 226.7469,121.47725 227.24023,119.38692 231.71875,125.21875 C 235.23818,127.50401 239.66576,128.66101 242.65625,130.15625 C 247.56229,132.60927 235.19337,121.7803 233.15625,116.6875 C 231.01518,111.33485 230.95599,106.14315 228.90625,101.1875 C 229.50315,101.90162 230.11773,102.58648 230.78125,103.25 C 233.49441,105.96315 238.78876,106.08187 241.0625,107.21875 C 244.26018,108.81758 248.5699,95.74425 248.96875,93.75 C 249.92453,88.971092 251.03475,84.89923 248.1875,90.59375 C 246.07526,94.818212 240.17693,92.88269 237.125,90.59375 C 233.91299,88.184742 233.34878,83.42638 232.375,79.53125 C 231.47087,75.914723 239.82097,80.22087 243.4375,81.125 C 248.87435,82.484207 236.33775,72.43149 232.375,68.46875 C 229.75097,65.844719 222.29787,63.58228 219.71875,62.9375 C 212.69834,61.182399 222.10072,62.53473 224.46875,63.71875 C 232.27987,67.624311 227.71836,65.12448 223.6875,59.75 C 219.27533,53.867109 213.72087,52.01669 207.0625,48.6875 C 199.50143,44.906971 191.18959,44.70084 183.34375,41.5625 C 177.28996,39.140988 170.83351,38.40625 164.375,38.40625 C 161.52724,38.40625 171.09341,35.01882 173.84375,34.46875 C 179.70552,33.296402 186.44945,36.01728 190.46875,37.625 C 192.73916,38.53317 184.24954,31.14365 173.0625,28.90625 C 162.85263,26.864271 151.86814,27.34375 141.4375,27.34375 C 137.00984,27.34375 149.12777,19.52986 150.9375,18.625 C 155.70563,16.24093 140.35216,20.1236 135.09375,21 C 129.66456,21.904871 124.621,24.41506 119.28125,25.75 C 117.43718,26.21102 122.00773,22.84408 122.46875,21 C 124.02428,14.777881 109.75781,22.92969 103.46875,24.1875 C 98.763363,25.128581 94.571458,27.43302 91.625,28.90625 C 88.629912,30.403791 91.766463,20.51971 93.1875,18.625 C 95.847674,15.07809 100.4628,13.19977 102.6875,11.53125 C 106.28636,8.8321103 111.28077,12.26539 105.0625,9.15625 C 101.15396,7.2019796 98.048762,6.00438 94.78125,5.1875 C 88.543453,3.62805 83.276264,2.58651 76.59375,1.25 C 73.912679,0.7137875 71.322184,0.49387453 68.8125,0.5 z M 220,89.46875 C 219.98817,89.347441 220.85824,90.290507 222.625,92.625 C 220.94576,90.80647 220.01211,89.592924 220,89.46875 z M 222.75,92.78125 C 223.25784,93.327197 223.82822,93.921967 224.46875,94.5625 C 226.61936,96.713103 227.96952,98.899958 228.90625,101.15625 C 226.70512,98.519503 224.85926,95.614434 222.875,92.96875 C 222.82144,92.897341 222.80201,92.850274 222.75,92.78125 z M 232.5625,163.5625 C 232.50592,163.76319 232.42701,163.94822 232.375,164.15625 C 230.57535,171.35488 233.32861,168.43162 232.5625,163.5625 z "
       transform="translate(-81.909799,294.78047)"
       id="path4330"
       sodipodi:nodetypes="cssssssssssssccssssssssscscssssccssssssssssssscssssccsccccsssscssssccsscssssssssssssssssssssssssssssscccccscsccsc" />
    <path
       style="fill:#000000;fill-rule:evenodd;stroke:#000000;stroke-width:0.87902594px;stroke-linecap:butt;stroke-linejoin:miter;stroke-opacity:1"
       d="M 126.01171,454.41802 C 125.04687,454.23207 119.70897,445.1758 113.95125,444.37685 C 108.19353,443.5779 72.871362,438.08823 48.34235,457.49513 L 22.050546,454.04613 L 21.568127,458.69482 L 48.342349,462.88761 C 69.08634,445.78043 106.04423,446.14069 112.50399,448.65365 C 118.86963,451.13 122.39357,458.13698 122.39357,458.13698 L 126.01171,454.41802 z "
       id="path3357"
       sodipodi:nodetypes="czcccczcc" />
    <path
       style="fill:#ffdab9;fill-opacity:1;fill-rule:evenodd;stroke:#000000;stroke-width:1px;stroke-linecap:butt;stroke-linejoin:miter;stroke-opacity:1"
       d="M 187.40953,111.58735 C 191.21354,114.44036 199.77225,109.54145 207.43803,118.74039 C 215.7474,128.71164 204.4283,147.79806 201.00029,158.08208 C 198.92775,164.29972 191.74347,170.23171 185.97892,171.67285 C 179.24282,173.35687 173.27732,169.15937 170.24224,163.08921 C 169.1149,160.83453 169.36726,158.87398 168.81164,156.65147"
       id="path2176"
       transform="translate(-80.5,336.2279)" />
    <path
       style="fill:#000000;fill-rule:evenodd;stroke:none;stroke-width:1px;stroke-linecap:butt;stroke-linejoin:miter;stroke-opacity:1"
       d="M 175.24937,143.06071 C 173.64635,139.85467 183.44433,144.88 185.97892,142.3454 C 190.98823,137.3361 182.59219,128.4189 181.6871,126.60873 C 180.20895,123.65243 190.95572,123.03221 192.41665,123.03221 C 198.76509,123.03221 201.44608,128.12236 202.4309,133.04646 C 203.7804,139.79393 198.67501,146.8166 194.56256,150.92905 C 191.73633,153.75528 197.482,143.4267 198.13908,139.48419 C 198.53106,137.13229 198.60669,134.6692 198.13908,132.33115 C 197.90065,131.13898 194.56256,134.26224 194.56256,133.04646 C 194.56256,126.97426 195.66179,125.17812 189.55544,125.17812 C 185.77018,125.17812 185.97892,129.09123 185.97892,133.04646 C 185.97892,138.47406 189.12936,140.05488 183.11771,143.06071 C 181.1842,144.02746 177.13688,143.43821 175.24937,143.06071 z "
       id="path2178"
       transform="translate(-80.5,336.2279)" />
    <path
       style="fill:#ffffff;fill-rule:evenodd;stroke:#000000;stroke-width:1.09103239px;stroke-linecap:butt;stroke-linejoin:miter;stroke-opacity:1"
       d="M -67.84375,419.8125 C -74.804244,421.73768 -72.553464,431.02674 -71.71875,436.1875 C -70.852006,438.70607 -71.326453,444.28451 -67.09375,442.75 C -59.949479,443.00885 -53.204546,446.10538 -46.8125,448.75 C -46.986821,440.76102 -46.657043,432.75442 -47.3125,424.78125 C -53.887115,422.0747 -60.621276,419.51941 -67.84375,419.8125 z "
       id="path3278" />
    <path
       sodipodi:type="arc"
       style="opacity:1;fill:#ffdab9;fill-opacity:1;stroke:none;stroke-width:1;stroke-miterlimit:4;stroke-dasharray:none;stroke-opacity:1"
       id="path3355"
       sodipodi:cx="39.903118"
       sodipodi:cy="127.52129"
       sodipodi:rx="8.5592794"
       sodipodi:ry="8.1976194"
       d="M 48.462398 127.52129 A 8.5592794 8.1976194 0 1 1  31.343839,127.52129 A 8.5592794 8.1976194 0 1 1  48.462398 127.52129 z"
       transform="translate(-83.901293,322.46346)" />
    <path
       style="fill:#6c5353;fill-rule:evenodd;stroke:#000000;stroke-width:1px;stroke-linecap:butt;stroke-linejoin:miter;stroke-opacity:1"
       d="M -43.28929,478.52705 C -39.486109,479.92254 -30.325884,483.47887 -22.73156,479.43653 C -0.094157307,474.69459 -1.8950868,508.22646 -1.1578254,520.26918 C -6.6860235,528.72824 -8.5896355,524.09861 -22.060793,519.14792 C -30.795892,515.93775 -36.266288,516.34127 -46.595389,516.62441 C -44.107103,508.5601 -43.178414,504.31888 -40.809248,498.94885 C -38.498073,489.59028 -43.789805,481.65241 -43.28929,478.52705 z "
       id="path2182"
       sodipodi:nodetypes="cccsccc" />
    <path
       style="fill:#000000;fill-rule:evenodd;stroke:#000000;stroke-width:1px;stroke-linecap:butt;stroke-linejoin:miter;stroke-opacity:1"
       d="M -26.089633,452.04414 C -26.089633,456.39921 -13.339575,457.89198 -21.082508,465.63491 C -22.365899,466.9183 -24.551272,466.13045 -26.089633,466.35021 C -24.920179,466.40705 -23.96393,466.35782 -23.12534,465.72888 C -22.533044,465.28466 -21.121324,464.34219 -21.121324,463.05686 C -21.121324,461.90443 -20.880637,460.18619 -21.566661,459.27149 C -22.263044,458.34298 -23.232952,457.6052 -24.238682,456.59947 C -25.601265,455.23689 -27.050542,454.07614 -26.089633,452.04414 z "
       id="path2186" />
    <path
       style="fill:#000000;fill-rule:evenodd;stroke:#000000;stroke-width:1px;stroke-linecap:butt;stroke-linejoin:miter;stroke-opacity:1"
       d="M -28.220813,461.18646 C -29.9068,462.87245 -31.605199,456.42703 -33.943242,456.89464 C -34.293976,456.96479 -32.382992,462.0189 -28.220813,461.18646 z "
       id="path2188" />
    <path
       style="fill:#000000;fill-rule:evenodd;stroke:#000000;stroke-width:1px;stroke-linecap:butt;stroke-linejoin:miter;stroke-opacity:1"
       d="M -39.957492,456.38015 C -42.024342,456.79352 -43.53401,449.77 -43.53401,458.52606 C -43.53401,459.91636 -40.473837,457.67101 -39.957492,456.38015 z "
       id="path2190" />
    <path
       style="fill:#803300;fill-opacity:1;fill-rule:evenodd;stroke:none;stroke-width:1px;stroke-linecap:butt;stroke-linejoin:miter;stroke-opacity:1"
       d="M 34.33457,162.3739 C 34.33457,162.3739 34.33457,162.3739 34.33457,162.3739 z "
       id="path2212"
       transform="translate(-80.5,336.2279)" />
    <path
       style="fill:#aa4400;fill-opacity:1;fill-rule:evenodd;stroke:none;stroke-width:1px;stroke-linecap:butt;stroke-linejoin:miter;stroke-opacity:1"
       d="M 161.6586,164.51981 C 161.6586,164.51981 161.6586,164.51981 161.6586,164.51981 z "
       id="path2222"
       transform="translate(-80.5,336.2279)" />
    <path
       style="fill:#803300;fill-rule:evenodd;stroke:#000000;stroke-width:1px;stroke-linecap:butt;stroke-linejoin:miter;stroke-opacity:1"
       d="M 73.676264,22.17441 C 72.699439,21.441791 81.138004,33.619266 93.704764,33.619266 C 105.80394,33.619266 116.47663,25.917557 128.03933,23.605017 C 136.78549,21.855786 136.57925,17.470283 143.77601,26.466231 C 153.76344,38.950517 157.23862,52.612054 163.08921,67.238533 C 165.8955,74.254265 155.12329,58.354092 153.07496,55.793676 C 148.41844,49.973031 144.89615,44.038351 139.48419,38.626391 C 136.57478,35.716976 132.9184,34.33457 128.75464,34.33457 C 123.05466,34.33457 115.84459,36.058214 110.15674,37.195784 C 105.5943,38.108273 99.846453,37.195784 95.135371,37.195784 C 90.84981,37.195784 88.202308,36.590467 85.121121,35.049873 C 82.319723,33.649175 79.412398,29.34115 76.537479,26.466231 C 75.355148,25.2839 70.805133,18.346235 75.822175,25.035624"
       id="path2236"
       transform="translate(-80.5,336.2279)" />
    <path
       style="fill:#803300;fill-rule:evenodd;stroke:#000000;stroke-width:1px;stroke-linecap:butt;stroke-linejoin:miter;stroke-opacity:1"
       d="M 46.49473,38.626391 C 38.981756,31.113417 39.576788,36.100322 31.473356,39.341695 C 23.586986,42.496242 15.105745,48.756189 8.5836425,53.647765 C 3.9268998,57.140322 17.898308,46.628359 22.889713,43.633516 C 28.892574,40.0318 34.231375,34.968729 40.056998,31.473356 C 45.144128,28.421078 46.942845,30.137414 47.925337,35.049873 C 48.32168,37.031588 49.982164,47.344975 46.49473,38.626391 z "
       id="path2238"
       transform="translate(-80.5,336.2279)" />
    <path
       style="fill:#e9afaf;fill-rule:evenodd;stroke:#000000;stroke-width:1px;stroke-linecap:butt;stroke-linejoin:miter;stroke-opacity:1"
       d="M -3.1933308,511.02792 C -3.1746908,511.12112 -5.6473508,502.9285 -13.922881,496.72185 C -18.367271,493.38856 -15.872851,501.92492 -21.791221,496.00655 C -24.887371,492.9104 -27.507831,491.69147 -28.944251,497.43716 C -29.677431,500.36985 -32.785281,505.1928 -27.513651,503.87489 C -22.031841,502.50444 -22.199431,502.34316 -19.645311,507.45141 C -17.739951,511.26211 -19.937721,514.47396 -21.075921,516.75035 C -22.761901,520.12233 -15.148941,521.5021 -11.776971,523.18808 C -8.2428908,524.95512 -8.6241208,526.97644 -3.9086308,524.61869 C -2.6772408,524.003 -1.3745608,516.62834 -1.0474208,515.31975 C -0.65949075,513.76803 -2.4780208,512.45853 -3.1933308,511.02792 z "
       id="path2240" />
    <path
       style="fill:#803300;fill-rule:evenodd;stroke:none;stroke-width:1px;stroke-linecap:butt;stroke-linejoin:miter;stroke-opacity:1"
       d="M -36.753929,532.8269 C -35.335687,530.71248 -37.609577,524.09268 -39.114208,529.25118 C -43.512622,536.75902 -43.139899,546.92614 -37.772352,553.85976 C -37.280245,556.68053 -30.739837,558.75275 -34.04176,554.26454 C -36.983301,548.1713 -39.327643,541.06522 -37.008823,534.37083 C -36.920417,533.85677 -36.833919,533.34234 -36.753929,532.8269 z "
       id="path2197" />
    <path
       style="fill:#803300;fill-rule:evenodd;stroke:none;stroke-width:1px;stroke-linecap:butt;stroke-linejoin:miter;stroke-opacity:1"
       d="M -45.390987,526.60828 C -47.294184,520.83883 -54.447339,531.06866 -51.021529,533.8134 C -50.748164,537.02384 -49.387972,539.69881 -46.683374,541.87434 C -48.357716,537.18061 -50.265584,530.75574 -45.843008,526.95284 L -45.390987,526.60828 L -45.390987,526.60828 z "
       id="path2199"
       sodipodi:nodetypes="cccccc" />
    <path
       style="fill:#803300;fill-rule:evenodd;stroke:none;stroke-width:1px;stroke-linecap:butt;stroke-linejoin:miter;stroke-opacity:1"
       d="M -5.875,536.6875 C -2.1371958,544.35891 -4.7732611,553.49968 -9.3907166,560.17659 C -10.16,563.76911 -17.193588,565.4925 -15.385654,569.19327 C -12.12513,568.66499 -10.203948,565.33277 -8.0242579,563.11107 C -3.1441896,557.96945 1.2029578,551.36937 0.60053412,543.96668 C 0.31972935,540.16893 -1.7963213,535.87739 -5.6455472,534.74852 C -7.0766523,534.65476 -6.5587893,536.12283 -5.875,536.6875 z "
       id="path2207" />
    <path
       style="fill:#803300;fill-rule:evenodd;stroke:none;stroke-width:1px;stroke-linecap:butt;stroke-linejoin:miter;stroke-opacity:1"
       d="M 8.15625,528.78125 C 6.5384275,529.83933 2.3689675,531.31986 5.997754,533.08841 C 9.3798617,536.24154 12.668499,540.50687 11.812671,545.42755 C 11.551778,553.15841 8.1575091,560.9174 2.4122301,566.09654 C 0.8284957,566.59426 -5.3348467,569.08739 -1.6399801,570.15373 C 5.3392682,568.37608 10.324329,562.34992 13.57896,556.24599 C 17.120922,548.97866 17.045211,539.85276 12.397086,533.07737 C 11.367176,531.33418 10.026475,529.6625 8.15625,528.78125 z "
       id="path2209" />
    <path
       style="fill:#803300;fill-rule:evenodd;stroke:none;stroke-width:1px;stroke-linecap:butt;stroke-linejoin:miter;stroke-opacity:1"
       d="M 21.375,534.34375 C 26.995248,538.48399 26.739264,546.78738 23.798229,552.46368 C 21.876029,556.94851 19.181534,561.48211 19.610868,566.54617 C 24.469477,562.03027 23.560606,554.29857 28.251511,549.66919 C 32.868874,543.33674 27.995715,533.33312 20.450667,532.267 C 19.134953,532.84733 20.867759,533.95275 21.375,534.34375 z "
       id="path2211" />
    <path
       style="fill:#803300;fill-rule:evenodd;stroke:none;stroke-width:1px;stroke-linecap:butt;stroke-linejoin:miter;stroke-opacity:1"
       d="M 34.59375,528.59375 C 31.887294,532.68628 38.167542,534.92088 38.495265,538.6453 C 39.359416,542.9969 39.022585,547.52339 37.928297,551.80204 C 41.102323,554.65726 39.826136,547.52507 41.198704,545.96201 C 42.805305,542.10317 44.994045,537.33059 42.338582,533.41725 C 40.703921,530.73785 37.820539,528.62363 34.59375,528.59375 z M 39.6875,546.90625 C 39.050092,544.93546 38.409597,548.49567 39.6875,546.90625 z M 38.78125,546.59375 C 39.169533,547.56744 39.616266,546.11063 38.78125,546.59375 z M 38.59375,549.21875 C 38.378873,549.92439 38.293799,548.38601 38.59375,549.21875 z M 39.09375,554.5 C 39.69158,553.97251 38.207115,554.57321 39.09375,554.5 z "
       id="path2213" />
    <path
       style="fill:#803300;fill-rule:evenodd;stroke:none;stroke-width:1px;stroke-linecap:butt;stroke-linejoin:miter;stroke-opacity:1"
       d="M 43.59375,524.34375 C 45.614288,528.11873 52.721996,527.41509 52.279917,532.84541 C 52.806517,537.32176 51.139207,541.83502 52.232141,546.27616 C 56.62685,543.71598 53.072036,537.77172 55.904677,534.19837 C 57.46124,529.00194 53.310772,523.15037 47.903676,522.81835 C 46.744989,522.64648 40.830788,521.64232 43.59375,524.34375 z "
       id="path2215" />
    <path
       style="fill:#803300;fill-rule:evenodd;stroke:none;stroke-width:1px;stroke-linecap:butt;stroke-linejoin:miter;stroke-opacity:1"
       d="M 55.09375,509.59375 C 51.305286,513.4148 56.506778,517.65504 59.714611,519.52996 C 62.777955,522.29019 61.517829,527.20868 61.830929,530.20622 C 65.722794,529.75699 65.416861,524.23044 64.96662,521.24674 C 64.234003,515.98566 60.592913,510.58566 55.09375,509.59375 z "
       id="path2217" />
    <path
       style="fill:#483737;fill-rule:evenodd;stroke:#000000;stroke-width:1px;stroke-linecap:butt;stroke-linejoin:miter;stroke-opacity:1"
       d="M -44.191292,435.05545 C -44.191292,436.30223 -44.568406,439.35693 -44.191292,441.61961 C -44.010797,442.70258 -41.124439,439.66496 -40.045505,438.85576 C -38.728099,437.8677 -36.779822,437.52111 -35.208753,437.12835 C -33.60682,436.72786 -31.095509,437.12021 -29.681037,437.47383 C -27.332209,438.06103 -33.896372,434.95169 -36.2452,434.36449 C -38.094749,433.9021 -39.227538,433.67352 -41.081951,433.67352 C -42.802896,433.67352 -42.369406,433.59794 -44.191292,435.05545 z "
       id="path3252" />
    <path
       style="fill:#000000;fill-opacity:1;fill-rule:evenodd;stroke:#000000;stroke-width:1px;stroke-linecap:butt;stroke-linejoin:miter;stroke-opacity:1"
       d="M -27.583569,422.7235 C -27.582736,435.30023 -36.620055,445.03182 -49.370884,441.3236 C -53.488535,443.97107 -52.101959,451.91069 -51.684224,456.17899 C -48.977705,459.52372 -44.828697,458.6032 -47.79265,465.425 C -46.026089,464.40068 -45.167556,462.03906 -46.006868,460.15077 C -46.076975,457.85226 -48.532825,457.00829 -49.816461,455.48178 C -50.9786,452.22326 -52.423228,444.55387 -47.38416,444.12627 C -38.66307,444.2669 -34.263014,441.55025 -28.547995,435.01994 C -26.13693,426.099 -27.583569,422.7235 -27.583569,422.7235 z "
       id="path2184"
       sodipodi:nodetypes="ccccccccc" />
    <path
       style="fill:#000000;fill-rule:evenodd;stroke:#000000;stroke-width:1px;stroke-linecap:butt;stroke-linejoin:miter;stroke-opacity:1"
       d="M -14.479817,447.8383 C -16.23644,447.66315 -20.736334,446.76401 -22.771391,444.72896 C -24.98844,442.51191 -27.807237,441.07504 -30.026519,438.85576 C -31.678394,437.20388 -33.434916,436.4722 -34.863271,435.40093 C -36.282484,434.33652 -37.337427,433.65958 -38.663576,433.32804 C -41.491183,432.62114 -39.893211,432.98256 -37.627129,432.98256 C -35.899717,432.98256 -34.172306,432.98256 -32.444895,432.98256 C -30.542353,432.98256 -27.916654,433.86475 -26.226214,434.70997 C -24.034705,435.80572 -22.376333,437.49862 -20.353015,438.51027 C -18.398014,439.48778 -17.69145,440.03937 -15.516264,440.58317 C -13.107977,441.18524 -12.752406,439.48546 -12.752406,442.65606 C -12.752406,444.76598 -13.350753,445.95652 -14.479817,447.8383 z "
       id="path3250" />
    <path
       sodipodi:type="arc"
       style="opacity:1;fill:#241c1c;fill-opacity:1;stroke:none;stroke-width:1;stroke-miterlimit:4;stroke-dasharray:none;stroke-opacity:1"
       id="path3256"
       sodipodi:cx="33.166298"
       sodipodi:cy="98.15332"
       sodipodi:rx="4.8367519"
       sodipodi:ry="5.7004576"
       d="M 38.00305 98.15332 A 4.8367519 5.7004576 0 1 1  28.329546,98.15332 A 4.8367519 5.7004576 0 1 1  38.00305 98.15332 z"
       transform="translate(-82.849584,317.78032)" />
    <path
       style="fill:#803300;fill-opacity:1;fill-rule:evenodd;stroke:none;stroke-width:1px;stroke-linecap:butt;stroke-linejoin:miter;stroke-opacity:1"
       d="M 65.339848,153.56079 C 65.988855,152.5023 67.204958,151.07697 68.715338,149.94419 C 71.665997,147.7312 79.028222,149.19352 81.976193,150.66751 C 85.261403,152.31011 87.521641,155.74156 87.521641,156.45406 C 87.521641,158.19271 84.796015,154.2065 83.181725,153.56079 C 79.5017,152.08878 76.01694,151.39083 72.090829,151.39083 C 70.245666,151.39083 69.096891,151.32061 67.509806,152.11415 C 66.48094,152.62858 66.565267,152.58045 65.339848,153.56079 z "
       id="path3284"
       transform="translate(-80.284696,322.9101)" />
    <path
       style="fill:#803300;fill-opacity:1;fill-rule:evenodd;stroke:none;stroke-width:1px;stroke-linecap:butt;stroke-linejoin:miter;stroke-opacity:1"
       d="M 79.806235,160.79398 C 79.673969,160.86011 84.165286,162.0043 88.003854,162.96394 C 90.281923,163.53345 91.725954,169.56928 92.825983,171.40266 C 93.8541,173.11619 96.862304,176.1623 97.407006,176.70701 C 98.728822,178.02882 94.015751,175.13193 92.34377,174.29594 C 92.022295,174.1352 91.70082,173.97447 91.379345,173.81373 C 89.359149,172.80363 88.396804,171.04254 87.039428,169.23271 C 85.844017,167.63882 85.268777,165.77431 83.905045,164.41058 C 82.419052,162.92458 81.283657,162.2714 79.806235,160.79398 z "
       id="path3286"
       transform="translate(-80.284696,322.9101)" />
    <path
       style="fill:#803300;fill-opacity:1;fill-rule:evenodd;stroke:none;stroke-width:1px;stroke-linecap:butt;stroke-linejoin:miter;stroke-opacity:1"
       d="M 87.521641,181.52913 C 86.481313,180.48881 92.489841,182.63963 94.031515,184.18131 C 97.059031,187.20882 96.496336,190.10146 94.754835,193.58446 C 93.812716,195.4687 91.449969,199.315 93.06709,195.2722 C 94.185879,192.47523 93.130122,190.09392 91.861557,187.5568 C 90.900403,185.63449 90.519956,184.59548 88.727174,183.69909 C 86.671849,182.67143 87.287953,182.13561 85.59279,181.28803 C 84.87416,180.92871 87.339159,181.43789 87.521641,181.52913 z "
       id="path3288"
       transform="translate(-80.284696,322.9101)" />
    <path
       style="fill:#803300;fill-opacity:1;fill-rule:evenodd;stroke:none;stroke-width:1px;stroke-linecap:butt;stroke-linejoin:miter;stroke-opacity:1"
       d="M 31.343838,180.56471 C 30.68315,180.23436 26.776333,184.63648 27.968348,182.25245 C 29.118768,179.95161 29.390279,178.17835 31.343838,176.22479 C 33.107078,174.46155 32.308264,177.64655 32.308264,178.63586 C 32.308264,179.87379 32.458882,179.1709 31.343838,180.56471 z "
       id="path3290"
       transform="translate(-80.284696,322.9101)" />
    <path
       style="fill:#803300;fill-opacity:1;fill-rule:evenodd;stroke:none;stroke-width:1px;stroke-linecap:butt;stroke-linejoin:miter;stroke-opacity:1"
       d="M 30.620519,167.30385 C 30.620519,168.67249 28.476645,169.1675 27.968348,170.43824 C 27.573769,171.42469 27.543583,176.45458 27.003922,174.29594 C 26.331786,171.6074 27.010735,169.21567 27.968348,166.82164 C 28.599355,165.24412 29.731873,164.9944 31.102732,164.65168 C 33.148021,164.14036 32.20225,164.7577 30.861626,166.09832 C 30.571852,166.3881 30.700888,166.90201 30.620519,167.30385 z "
       id="path3292"
       transform="translate(-80.284696,322.9101)" />
    <path
       style="fill:#803300;fill-opacity:1;fill-rule:evenodd;stroke:none;stroke-width:1px;stroke-linecap:butt;stroke-linejoin:miter;stroke-opacity:1"
       d="M 32.308264,150.66751 C 31.683142,151.29263 30.281216,150.04239 29.656093,150.66751 C 27.570391,152.75321 30.462126,157.84218 27.968348,155.97185 C 26.194271,154.64129 26.661519,151.83453 27.486135,150.1853 C 28.40885,148.33987 31.750399,149.27285 32.308264,150.66751 z "
       id="path3294"
       transform="translate(-80.284696,322.9101)" />
    <path
       style="fill:#aa4400;fill-opacity:1;fill-rule:evenodd;stroke:none;stroke-width:1px;stroke-linecap:butt;stroke-linejoin:miter;stroke-opacity:1"
       d="M 162.11273,141.5521 C 161.44056,144.91297 164.21221,150.67774 166.8575,154.2048 C 169.11753,157.21817 167.45781,166.82863 166.8575,169.22988 C 165.62774,174.1489 164.48512,159.2752 164.48512,154.2048 C 164.48512,147.2493 159.14091,148.98167 162.11273,141.5521 z "
       id="path4332"
       transform="translate(-80.284696,322.9101)" />
    <path
       style="fill:#aa4400;fill-opacity:1;fill-rule:evenodd;stroke:none;stroke-width:1px;stroke-linecap:butt;stroke-linejoin:miter;stroke-opacity:1"
       d="M 152.62321,157.36797 C 152.62321,155.66929 156.18532,166.08087 158.94956,177.13782 C 160.52411,183.436 163.58839,189.64927 158.94956,183.46417 C 156.44878,180.12979 156.57718,175.79708 156.57718,171.60226 C 156.57718,166.40431 155.1865,161.64013 152.62321,157.36797 z "
       id="path4334"
       transform="translate(-80.284696,322.9101)" />
    <path
       style="fill:#aa4400;fill-opacity:1;fill-rule:evenodd;stroke:none;stroke-width:1px;stroke-linecap:butt;stroke-linejoin:miter;stroke-opacity:1"
       d="M 65.221364,495.30315 C 65.221364,489.62508 70.170584,505.61049 71.547724,511.11903 C 72.641764,515.49521 78.042704,523.94037 72.338514,518.23618 C 69.006034,514.9037 68.072284,509.12109 66.012164,506.37427 C 64.278344,504.06251 65.221364,497.84168 65.221364,495.30315 z "
       id="path4336" />
    <path
       style="fill:#000000;fill-rule:evenodd;stroke:#000000;stroke-width:1px;stroke-linecap:butt;stroke-linejoin:miter;stroke-opacity:1"
       d="M -16.051025,424.3595 C -17.088582,418.61472 19.178404,429.72111 21.393244,432.57897 C 23.752534,435.62322 21.393244,471.8498 21.393244,471.8498 L 15.913599,472.76307 C 13.782624,469.10997 -5.4722559,460.81439 -17.268725,458.75952 C -16.888193,444.83208 -13.539518,431.51349 -16.051025,424.3595 z "
       id="path6342"
       sodipodi:nodetypes="czcccc" />
    <path
       style="fill:#ffffff;fill-rule:evenodd;stroke:#000000;stroke-width:1px;stroke-linecap:butt;stroke-linejoin:miter;stroke-opacity:1"
       d="M -13.875,424.71875 C -11.296513,435.08719 -15.59469,446.45642 -14.96875,457.21875 C -3.4316971,459.74869 7.8019591,464.34413 17.46875,470.71875 C 19.608242,465.17188 17.729604,463.36048 19,460.09375 C 18.949221,451.30765 20.515442,442.30729 18.53125,433.6875 C 7.9487729,428.89547 -2.2640777,425.47257 -13.875,424.71875 z "
       id="path6344"
       sodipodi:nodetypes="cccccc" />
    <path
       sodipodi:type="arc"
       style="opacity:1;fill:#241c1c;fill-opacity:1;stroke:none;stroke-width:1;stroke-miterlimit:4;stroke-dasharray:none;stroke-opacity:1"
       id="path3258"
       sodipodi:cx="95.353104"
       sodipodi:cy="107.65408"
       sodipodi:rx="6.5641632"
       sodipodi:ry="8.2915745"
       d="M 101.91727 107.65408 A 6.5641632 8.2915745 0 1 1  88.78894,107.65408 A 6.5641632 8.2915745 0 1 1  101.91727 107.65408 z"
       transform="translate(-73.864845,316.34521)" />
    <path
       style="fill:#803300;fill-rule:evenodd;stroke:none;stroke-width:1px;stroke-linecap:butt;stroke-linejoin:miter;stroke-opacity:1;fill-opacity:1"
       d="M 62.412271,242.80938 C 59.011991,246.59615 57.282496,256.00997 57.282496,263.32849 C 57.282496,272.49281 57.511949,269.77213 54.717608,264.18345 C 53.024971,260.79818 53.862645,254.56605 53.862645,250.50405 C 53.862645,245.251 55.248082,242.6034 57.282496,238.53457 C 60.316433,232.4667 61.369163,238.63695 62.412271,242.80938 z "
       id="path6360"
       transform="translate(-81.909799,294.78047)" />
  </g>
</svg>
