<?xml version="1.0" encoding="UTF-8" standalone="no"?>
<!-- Created with Inkscape (http://www.inkscape.org/) -->

<svg
   xmlns:dc="http://purl.org/dc/elements/1.1/"
   xmlns:cc="http://creativecommons.org/ns#"
   xmlns:rdf="http://www.w3.org/1999/02/22-rdf-syntax-ns#"
   xmlns:svg="http://www.w3.org/2000/svg"
   xmlns="http://www.w3.org/2000/svg"
   xmlns:xlink="http://www.w3.org/1999/xlink"
   xmlns:sodipodi="http://sodipodi.sourceforge.net/DTD/sodipodi-0.dtd"
   xmlns:inkscape="http://www.inkscape.org/namespaces/inkscape"
   width="729"
   height="91"
   id="svg3298"
   version="1.1"
   inkscape:version="0.48.2 r9819">
  <defs
     id="defs3300">
    <clipPath
       clipPathUnits="userSpaceOnUse"
       id="clipPath6036">
      <rect
         y="1466.6478"
         x="17.142857"
         height="90"
         width="728"
         id="rect6038"
         style="fill:#000000;fill-opacity:1;stroke:none" />
    </clipPath>
    <filter
       id="filter4576"
       inkscape:label="Glow"
       inkscape:menu="Shadows and Glows"
       inkscape:menu-tooltip="Glow of object's own color at the edges"
       color-interpolation-filters="sRGB">
      <feGaussianBlur
         id="feGaussianBlur4578"
         stdDeviation="5"
         result="result91" />
      <feComposite
         id="feComposite4580"
         in2="result91"
         in="SourceGraphic"
         operator="over" />
    </filter>
  </defs>
  <sodipodi:namedview
     id="base"
     pagecolor="#ffffff"
     bordercolor="#666666"
     borderopacity="1.0"
     inkscape:pageopacity="0.0"
     inkscape:pageshadow="2"
     inkscape:zoom="0.35"
     inkscape:cx="364.5"
     inkscape:cy="45.512817"
     inkscape:document-units="px"
     inkscape:current-layer="layer1"
     showgrid="false"
     fit-margin-top="0"
     fit-margin-left="0"
     fit-margin-right="0"
     fit-margin-bottom="0"
     inkscape:window-width="1280"
     inkscape:window-height="746"
     inkscape:window-x="0"
     inkscape:window-y="0"
     inkscape:window-maximized="1" />
  <metadata
     id="metadata3303">
    <rdf:RDF>
      <cc:Work
         rdf:about="">
        <dc:format>image/svg+xml</dc:format>
        <dc:type
           rdf:resource="http://purl.org/dc/dcmitype/StillImage" />
        <dc:title></dc:title>
      </cc:Work>
    </rdf:RDF>
  </metadata>
  <g
     inkscape:label="Layer 1"
     inkscape:groupmode="layer"
     id="layer1"
     transform="translate(-10.5,-486.875)">
    <rect
       inkscape:export-ydpi="90"
       inkscape:export-xdpi="90"
       inkscape:export-filename="/home/mattl/banner-1.png"
       y="487.36218"
       x="11"
       height="90"
       width="728"
       id="rect6760"
       style="fill:#ffffff;fill-opacity:1;stroke:#000000;stroke-opacity:1" />
    <image
       style="opacity:0.43673467"
       transform="translate(26.714286,-979.28562)"
       clip-path="url(#clipPath6036)"
       width="615.01929"
       height="455.11432"
       xlink:href="file:///home/mattl/campaigns/defectivebydesign/dayagainstdrm/2012/in-chains.png"
       id="image6762"
       x="-35.547997"
       y="1244.2468" />
    <text
       xml:space="preserve"
       style="font-size:20.10387039px;font-style:normal;font-weight:normal;line-height:125%;letter-spacing:0px;word-spacing:0px;fill:#000000;fill-opacity:1;stroke:none;font-family:Sans"
       x="38.729004"
       y="560.87219"
       id="text6774"
       sodipodi:linespacing="125%"><tspan
         sodipodi:role="line"
         id="tspan6776"
         x="38.729004"
         y="560.87219"
         style="font-size:20.10387039px;font-style:normal;font-variant:normal;font-weight:normal;font-stretch:normal;text-align:start;line-height:125%;writing-mode:lr-tb;text-anchor:start;fill:#000000;font-family:LuzSans-Heavy;-inkscape-font-specification:LuzSans-Heavy">DAY AGAINST DRM — MAY 4th, 2012</tspan></text>
    <g
       transform="translate(265.58817,-812.61052)"
       id="g6778">
      <path
         inkscape:connector-curvature="0"
         id="path6780"
         d="m 349.29177,1352.1006 c -0.2456,0 -0.87759,0.011 -1.40444,0.021 -1.98568,0.039 -1.86406,0.046 -1.89109,-0.1002 -0.03,-0.1617 0.2672,-0.1624 -4.70247,0.011 -2.55932,0.09 -4.85341,0.213 -7.01175,0.3775 -1.76434,0.1345 -3.26107,0.2407 -3.32606,0.236 -0.065,0 -0.14679,-0.053 -0.18178,-0.1076 -0.0964,-0.1499 -6.26179,-0.1374 -8.5167,0.017 -0.89624,0.062 -1.65409,0.1247 -1.6841,0.1404 -0.1066,0.056 -0.066,0.2163 0.0707,0.2799 0.12719,0.059 0.12001,0.066 -0.0859,0.085 -0.12356,0.011 -0.48283,0.019 -0.79837,0.018 -0.95163,0 -2.93383,0.068 -4.11235,0.1496 -1.21231,0.084 -3.25512,0.3322 -3.43497,0.4167 -0.0621,0.029 -0.15352,0.034 -0.20314,0.011 -0.0531,-0.025 -0.12314,0.01 -0.1703,0.084 -0.062,0.098 -0.14164,0.1222 -0.35207,0.1069 -0.32389,-0.024 -3.31377,0.035 -4.55916,0.089 -0.4837,0.021 -1.0409,0.033 -1.23823,0.027 -0.31161,-0.01 -0.3974,0.017 -0.65257,0.2055 -0.27496,0.2028 -0.31274,0.2126 -0.58923,0.154 -0.24921,-0.053 -0.34698,-0.039 -0.62485,0.087 l -0.32942,0.1495 -0.18627,-0.1814 c -0.27171,-0.2645 -0.46007,-0.3082 -0.69323,-0.1606 -0.1496,0.095 -0.19357,0.1019 -0.18842,0.031 0.013,-0.179 -0.17386,-0.2965 -0.75367,-0.4736 -0.58017,-0.1772 -0.5864,-0.1813 -0.68171,-0.4414 -0.0529,-0.1444 -0.1469,-0.2947 -0.20889,-0.3339 -0.062,-0.039 -0.0928,-0.099 -0.0686,-0.1323 0.0243,-0.034 -0.0212,-0.1772 -0.10102,-0.3192 -0.11427,-0.2033 -0.18157,-0.2583 -0.31645,-0.2585 -0.23117,-3e-4 -0.40031,-0.3349 -0.3735,-0.739 0.0329,-0.496 0.14234,-1.0549 0.2353,-1.2019 0.0609,-0.096 0.0853,-0.2836 0.0786,-0.6042 l -0.01,-0.4647 0.21029,0.025 c 0.20949,0.025 0.21035,0.024 0.2241,-0.2607 0.0347,-0.7185 -0.01,-1.8462 -0.0797,-2.0198 -0.0434,-0.108 -0.12396,-0.1913 -0.1845,-0.1908 -0.0738,6e-4 -0.11289,-0.062 -0.12485,-0.2004 -0.0494,-0.5708 -0.0826,-1.2064 -0.0634,-1.2143 0.21941,-0.09 0.29128,-0.1601 0.31995,-0.3125 0.0189,-0.1003 0.1,-0.2435 0.18031,-0.3181 0.1625,-0.1509 0.21272,-0.5865 0.10518,-0.9121 -0.061,-0.1847 -0.10816,-0.2144 -0.49739,-0.3129 -0.12915,-0.033 -0.23408,-0.07 -0.23319,-0.082 8.9e-4,-0.012 0.0582,-0.1556 0.12731,-0.3184 0.10333,-0.2434 0.12946,-0.4488 0.14697,-1.1554 0.0578,-2.334 -0.16184,-4.5008 -0.59284,-5.8473 -0.1116,-0.3487 -0.12812,-0.521 -0.0912,-0.9519 0.0423,-0.494 0.0546,-0.5291 0.20119,-0.573 0.0859,-0.026 0.1748,-0.086 0.19759,-0.135 0.0228,-0.049 0.0228,-0.4436 -2e-5,-0.8778 -0.0298,-0.5676 -0.0913,-0.9544 -0.21866,-1.3762 -0.1709,-0.566 -0.17267,-0.5886 -0.0497,-0.6358 0.14405,-0.055 0.16075,-0.1012 0.30805,-0.8468 0.0929,-0.4704 0.0946,-0.5809 0.0136,-0.8917 -0.15268,-0.5857 -0.47783,-0.5347 -0.53222,0.083 -0.0276,0.3136 -0.0366,0.3332 -0.0744,0.1622 -0.0237,-0.1069 -0.0118,-0.3821 0.0264,-0.6114 0.0417,-0.2507 0.0478,-0.5483 0.0153,-0.7461 -0.0678,-0.4122 -0.35011,-0.9287 -0.51414,-0.9406 -0.10978,-0.01 -0.11716,-0.06 -0.0802,-0.5691 0.0224,-0.3082 0.0619,-0.5787 0.0878,-0.6011 0.0259,-0.022 0.10063,0.038 0.16607,0.133 0.15639,0.2283 0.3092,0.1794 0.44277,-0.1417 0.0914,-0.2197 0.14098,-0.2582 0.42602,-0.3303 0.26268,-0.066 0.33705,-0.1173 0.40059,-0.274 0.0763,-0.1883 0.08,-0.1895 0.16752,-0.058 0.13941,0.2101 0.37767,0.1324 0.56179,-0.1833 l 0.15292,-0.2621 1.48632,-0.3875 c 0.81747,-0.2132 1.56611,-0.3812 1.66364,-0.3734 0.0975,0.01 0.50123,-0.019 0.8971,-0.06 1.97195,-0.2028 3.14588,-0.2279 7.83672,-0.1674 1.81572,0.024 3.19112,0.01 4.85085,-0.061 1.33213,-0.054 1.67014,-0.062 1.51316,-0.035 -0.14408,0.025 -0.2244,0.1791 -0.14236,0.274 0.0703,0.081 0.99526,0.075 2.98144,-0.02 0.7039,-0.034 2.15668,-0.084 3.2284,-0.1116 2.51099,-0.065 4.13884,-0.1285 5.01332,-0.196 0.56637,-0.044 0.70588,-0.075 0.73691,-0.1663 0.021,-0.062 0.0563,-0.1109 0.0784,-0.1091 0.0221,0 1.73254,-0.064 3.80101,-0.1457 3.56024,-0.1409 3.76479,-0.1426 3.83438,-0.031 0.0666,0.1064 0.13933,0.1169 0.76943,0.1109 0.38277,0 0.98086,0.022 1.3291,0.056 1.54879,0.1523 2.36159,0.1572 4.6168,0.028 0.94198,-0.054 1.00696,-0.067 1.39111,-0.2768 0.22163,-0.121 0.45692,-0.2613 0.52285,-0.3119 0.0987,-0.076 0.41943,-0.08 1.81933,-0.027 1.24581,0.048 2.64605,0.039 5.24572,-0.033 13.30897,-0.3687 22.75283,-0.797 29.75023,-1.3492 1.25225,-0.099 2.79394,-0.1878 3.42597,-0.1977 0.63202,-0.01 1.6233,-0.027 2.20284,-0.039 0.57954,-0.012 1.3511,-0.016 1.71458,-0.01 0.58745,0.01 0.66691,0.024 0.71517,0.127 0.0665,0.1421 -0.18893,0.144 4.77015,-0.035 2.35177,-0.085 4.85913,-0.2211 6.75415,-0.3663 1.65763,-0.1269 3.07584,-0.2401 3.15158,-0.2515 0.0999,-0.015 0.1445,0.016 0.16242,0.1126 0.0216,0.1165 0.0597,0.1313 0.30165,0.1175 0.15231,-0.01 1.5678,-0.01 3.14552,0 2.13788,0.01 3.34188,-0.017 4.72664,-0.1071 1.02193,-0.066 1.88507,-0.144 1.91809,-0.1724 0.033,-0.028 0.0461,-0.098 0.0291,-0.1538 -0.0232,-0.076 -0.13093,-0.1113 -0.42883,-0.1387 -0.21885,-0.02 0.23391,-0.043 1.00612,-0.052 2.64079,-0.029 4.28781,-0.1252 6.30798,-0.3692 0.72535,-0.088 1.3704,-0.1834 1.43345,-0.213 0.0631,-0.03 0.15547,-0.051 0.20537,-0.047 0.0499,0 0.10301,-0.023 0.11803,-0.059 0.0158,-0.038 0.48599,-0.072 1.11113,-0.08 0.5961,-0.01 1.79239,-0.034 2.65843,-0.058 1.81372,-0.051 2.49399,-0.02 1.45337,0.066 -0.53892,0.044 -0.67879,0.077 -0.70212,0.1647 -0.0467,0.175 0.19376,0.2333 1.05966,0.2569 0.85506,0.023 1.05335,-0.03 0.99691,-0.2653 -0.0263,-0.11 -0.0143,-0.1162 0.0935,-0.048 0.18897,0.1195 0.2389,0.1064 0.55544,-0.1455 0.27226,-0.2167 0.32054,-0.2318 0.66163,-0.207 0.27722,0.02 0.43693,-0.01 0.6478,-0.1111 0.24944,-0.1229 0.28795,-0.1266 0.35415,-0.034 0.10807,0.1513 0.38862,0.3097 0.57214,0.323 0.0876,0.01 0.222,-0.047 0.29868,-0.1178 0.13457,-0.125 0.13911,-0.1251 0.13027,0 -0.0148,0.2033 0.0944,0.2744 0.71445,0.466 0.48609,0.1501 0.6023,0.2107 0.67957,0.3543 0.0513,0.095 0.10918,0.1888 0.1287,0.2078 0.0195,0.019 0.0509,0.088 0.0697,0.1526 0.0188,0.065 0.13541,0.3245 0.25918,0.5768 0.18584,0.3788 0.25338,0.4607 0.38787,0.4705 0.15152,0.011 0.15886,0.027 0.10551,0.2291 -0.0404,0.1533 -0.0295,0.2675 0.0372,0.3874 0.0731,0.1314 0.0799,0.252 0.0302,0.53 -0.0447,0.2501 -0.0399,0.4637 0.0157,0.7001 0.078,0.3313 0.0763,0.3436 -0.0644,0.4736 -0.21984,0.203 -0.30504,0.4313 -0.25316,0.6786 0.0335,0.1599 0.017,0.2636 -0.065,0.4084 -0.17347,0.3061 -0.28814,1.2566 -0.1876,1.5549 0.0454,0.1349 0.1126,0.2473 0.14927,0.25 0.0367,0 0.063,0.055 0.0585,0.1168 -0.004,0.062 0.0437,0.2281 0.10695,0.37 0.10566,0.2369 0.1065,0.2877 0.0103,0.6203 -0.14271,0.4933 -0.14214,1.235 0.001,1.5868 0.10322,0.2533 0.10412,0.2957 0.01,0.4501 -0.093,0.1517 -0.0987,0.3824 -0.0522,2.104 0.0439,1.6256 0.0368,1.9848 -0.0446,2.2551 -0.0912,0.3028 -0.0881,0.3393 0.0539,0.6275 0.14427,0.293 0.15483,0.4366 0.24619,3.3487 l 0.0955,3.0425 -0.14932,0.2588 c -0.28922,0.5013 -0.17908,0.9882 0.28735,1.2705 0.37498,0.227 0.48853,0.4916 0.40507,0.944 -0.0373,0.2022 -0.0634,0.5787 -0.058,0.8366 0.009,0.4383 0.0284,0.4958 0.29374,0.8805 l 0.2839,0.4116 -0.0371,0.5112 -0.0371,0.5112 -0.203,-0.059 c -0.11165,-0.032 -0.34988,-0.086 -0.5294,-0.1187 l -0.32639,-0.06 -0.24142,0.4152 -0.24142,0.4152 -1.07474,0.3108 c -0.95198,0.2752 -1.07536,0.3267 -1.08017,0.4509 -0.006,0.1634 -0.0929,0.1804 -1.6221,0.3187 -1.77662,0.1608 -2.93253,0.1958 -5.52812,0.1675 -4.39027,-0.048 -5.14228,-0.041 -7.51684,0.067 -0.6088,0.028 -1.14013,0.034 -1.18073,0.014 -0.0406,-0.02 -0.009,-0.034 0.0713,-0.031 0.15776,0.01 0.26924,-0.1492 0.18074,-0.2515 -0.0618,-0.072 -1.32114,-0.056 -3.43571,0.043 -0.73903,0.034 -2.49376,0.094 -3.89941,0.1314 -3.57939,0.096 -4.64586,0.1666 -4.69442,0.3092 -0.04,0.1174 -0.15332,0.1485 -0.14544,0.04 0.003,-0.035 -0.0382,-0.067 -0.0905,-0.07 -0.0523,0 -0.0983,0.036 -0.10206,0.088 -0.004,0.052 -0.0426,0.092 -0.0862,0.089 -0.0436,0 -1.77169,0.061 -3.84023,0.1426 -3.60808,0.1429 -3.76405,0.1441 -3.83694,0.027 -0.0716,-0.1145 -0.13053,-0.121 -1.02428,-0.1128 -1.16827,0.011 -1.50253,-0.013 -1.69419,-0.1172 -0.17178,-0.094 -1.64611,-0.083 -3.77352,0.029 -1.26264,0.066 -1.28429,0.07 -1.67868,0.2851 -0.21974,0.12 -0.45297,0.259 -0.51828,0.309 -0.096,0.073 -0.43209,0.081 -1.75657,0.04 -15.98342,1.0054 -34.99449,1.986 -40.4664,1.6192 z m -42.68967,1.7099 c 0.51568,-0.037 0.61868,-0.08 0.57013,-0.2406 -0.0443,-0.1463 -1.08328,-0.2223 -1.29664,-0.095 -0.24266,0.145 -0.16151,0.4253 0.11229,0.3879 0.0735,-0.01 0.3499,-0.034 0.61422,-0.053 z m -1.1096,-3.2674 c 0.3059,-0.047 1.86872,-0.181 3.47294,-0.2969 2.80131,-0.2025 2.94549,-0.2067 3.6426,-0.1075 1.17581,0.1674 2.25994,0.1854 4.1081,0.068 0.49329,-0.031 0.99657,-0.047 1.1184,-0.034 1.25548,0.1306 6.77953,0.102 8.80334,-0.045 0.48777,-0.036 0.70164,-0.079 0.77667,-0.1577 0.0846,-0.089 0.23761,-0.1064 0.83795,-0.097 0.6868,0.011 1.56959,-0.045 2.78486,-0.1775 0.65074,-0.071 1.76028,-0.087 3.38327,-0.049 2.70196,0.063 8.075,-0.1741 8.68531,-0.3839 0.23884,-0.082 0.41238,-0.082 1.25828,0 0.93373,0.094 1.48888,0.081 11.46541,-0.2616 5.96124,-0.205 11.00605,-0.3492 11.69387,-0.3343 1.73589,0.038 1.84073,0.033 3.96539,-0.1618 1.64688,-0.1513 4.24913,-0.2576 17.96192,-0.734 13.68141,-0.4752 16.17726,-0.5469 16.9978,-0.4878 2.6082,0.1877 5.26021,0.024 7.05638,-0.4352 1.08701,-0.278 2.90806,-0.4634 4.46491,-0.4546 0.5434,0 2.43986,-0.032 4.21436,-0.078 3.15079,-0.082 3.27312,-0.09 5.22274,-0.3529 1.89353,-0.2557 3.21503,-0.3561 5.35421,-0.4071 0.43917,-0.011 0.83171,-0.041 0.87231,-0.069 0.0406,-0.027 0.14205,-0.041 0.22545,-0.031 0.52654,0.064 1.03104,0.065 1.12078,6e-4 0.0725,-0.052 0.0985,-0.1453 0.0881,-0.3164 -0.0146,-0.2397 -0.012,-0.2426 0.19998,-0.2272 0.17613,0.013 0.224,-0.012 0.26604,-0.14 0.0282,-0.086 0.0352,-0.207 0.0156,-0.2699 -0.0196,-0.063 -0.0353,-0.4443 -0.0349,-0.8476 7.7e-4,-0.7911 -0.0664,-1.0889 -0.24867,-1.1021 -0.0681,-0.01 -0.12413,-0.068 -0.1366,-0.1534 -0.0316,-0.2167 -0.0821,-1.1567 -0.0625,-1.1623 0.16805,-0.047 0.28736,-0.1594 0.31343,-0.2941 0.0179,-0.092 0.10965,-0.2347 0.20393,-0.3162 0.15532,-0.1343 0.16948,-0.1796 0.15081,-0.4818 -0.0263,-0.426 -0.0835,-0.552 -0.27493,-0.6064 -0.0849,-0.024 -0.22468,-0.064 -0.31059,-0.088 -0.17686,-0.05 -0.18812,-0.1636 -0.0403,-0.4048 0.0836,-0.1365 0.10461,-0.3483 0.11738,-1.184 0.0331,-2.1678 -0.16022,-4.0473 -0.53878,-5.2369 -0.1545,-0.4855 -0.17202,-0.6252 -0.13215,-1.0533 0.0416,-0.4467 0.0597,-0.4977 0.1904,-0.5369 0.0794,-0.024 0.16607,-0.073 0.19251,-0.1097 0.0265,-0.037 0.0364,-0.3891 0.022,-0.7835 -0.0188,-0.517 -0.0741,-0.8776 -0.19831,-1.2931 -0.17082,-0.5713 -0.17114,-0.577 -0.0385,-0.6724 0.10395,-0.075 0.16054,-0.2336 0.25374,-0.7125 0.10564,-0.5428 0.10994,-0.6584 0.0361,-0.9698 -0.07,-0.295 -0.10832,-0.3554 -0.23151,-0.3643 -0.16201,-0.012 -0.27724,0.1656 -0.35593,0.548 -0.0249,0.121 -0.0153,-0.037 0.0214,-0.3502 0.043,-0.3677 0.0435,-0.674 0.001,-0.8628 -0.0902,-0.4036 -0.39489,-0.9183 -0.55029,-0.9296 -0.15746,-0.012 -0.2138,-0.1877 -0.10682,-0.3342 0.12373,-0.1694 0.12676,-0.5247 0.006,-0.6982 -0.10505,-0.1509 -0.11757,-0.1532 -0.58201,-0.1081 -0.26105,0.025 -0.63462,0.076 -0.83015,0.112 -0.19554,0.036 -1.65368,0.1603 -3.24032,0.2757 l -2.8848,0.2097 -1.17055,-0.1263 c -1.27282,-0.1373 -1.99373,-0.142 -3.90881,-0.025 -0.78925,0.048 -1.23002,0.051 -1.27586,0.01 -0.0732,-0.07 -0.33976,-0.075 -3.41801,-0.065 -2.09794,0.01 -4.02016,0.056 -4.97099,0.1269 -0.56495,0.042 -0.74063,0.079 -0.79541,0.1654 -0.0555,0.088 -0.14693,0.1056 -0.4332,0.085 -0.50277,-0.036 -1.87219,0.029 -2.62294,0.1262 -0.87828,0.1133 -1.4537,0.133 -2.98668,0.1021 -3.58691,-0.072 -8.64703,0.1422 -9.38755,0.3979 -0.27306,0.094 -0.35355,0.096 -0.66994,0.012 -0.20735,-0.055 -0.66954,-0.1025 -1.09166,-0.1126 -0.40264,-0.01 -5.30608,0.1393 -10.89654,0.331 -6.41307,0.22 -10.64474,0.3376 -11.46578,0.3187 -1.56199,-0.036 -1.96816,-0.018 -3.84233,0.1717 -1.15313,0.1165 -4.68224,0.2593 -17.4527,0.706 -14.37092,0.5026 -16.11536,0.552 -17.06441,0.4831 -2.48475,-0.1805 -5.25641,0.01 -6.80736,0.459 -0.92041,0.2686 -2.93934,0.4445 -4.99507,0.4352 -0.78887,0 -2.6568,0.034 -4.15096,0.083 -2.49964,0.082 -2.86074,0.1097 -4.5206,0.3434 -1.70316,0.2399 -2.98763,0.3384 -5.09797,0.3909 -0.40406,0.01 -0.84682,0.057 -0.98391,0.1047 -0.20511,0.071 -0.28492,0.071 -0.45066,0 -0.26677,-0.119 -0.35665,-0.1209 -0.53968,-0.012 -0.12264,0.073 -0.30375,0.079 -0.90117,0.027 -0.78813,-0.068 -0.95722,-0.027 -0.97633,0.2357 -0.004,0.06 -0.0381,0.1357 -0.075,0.1676 -0.10173,0.088 -0.27143,1.148 -0.23592,1.4737 0.018,0.1647 0.0846,0.3368 0.15637,0.4042 0.0688,0.064 0.12019,0.1848 0.11419,0.2674 -0.006,0.083 0.0305,0.2194 0.081,0.304 0.0729,0.122 0.0766,0.2275 0.0179,0.5097 -0.16261,0.7821 -0.13344,1.7366 0.0599,1.9602 0.0731,0.085 0.0692,0.1222 -0.0302,0.2843 -0.10623,0.1733 -0.11069,0.3365 -0.0623,2.2738 0.0438,1.7501 0.0368,2.1314 -0.043,2.3617 -0.0881,0.2541 -0.0834,0.3069 0.0636,0.7093 0.15198,0.416 0.163,0.571 0.25548,3.5905 l 0.0966,3.1557 -0.15336,0.2955 c -0.27992,0.5393 -0.1965,0.9501 0.26187,1.2897 0.41859,0.3102 0.52,0.5341 0.44181,0.9754 -0.0492,0.2776 -0.0423,0.3836 0.0307,0.4772 0.0809,0.1036 0.0804,0.153 -0.004,0.3573 -0.12215,0.2961 -0.10526,0.4589 0.0576,0.5555 0.0697,0.041 0.11188,0.1106 0.0938,0.154 -0.0508,0.1222 0.0908,0.275 0.26686,0.2878 0.0874,0.01 0.40911,-0.027 0.71501,-0.075 z m 6.22352,-3.9272 c -0.0864,-0.018 -0.30408,-0.075 -0.48382,-0.125 -0.37437,-0.1051 -0.34733,-0.037 -0.49966,-1.2635 -0.15176,-1.2223 -0.34618,-1.7561 -0.82582,-2.2672 -0.2608,-0.278 -0.27155,-0.3044 -0.18567,-0.4562 0.0501,-0.089 0.13949,-0.5382 0.19857,-0.9989 0.0998,-0.7784 0.1214,-0.855 0.30524,-1.0831 0.22566,-0.2799 0.19382,-0.4708 -0.077,-0.4618 -0.15127,0.01 -0.15369,-0.01 -0.17177,-0.8096 -0.0101,-0.448 -0.007,-0.9645 0.006,-1.1477 0.0237,-0.3259 0.0282,-0.3327 0.21,-0.3195 0.20048,0.015 0.39539,-0.1133 0.40653,-0.2667 0.004,-0.052 -0.0983,-0.2045 -0.22697,-0.338 l -0.23389,-0.2428 0.20731,-0.3124 c 0.29898,-0.4507 0.33462,-0.6932 0.24702,-1.6806 -0.0956,-1.0781 -0.0365,-1.5587 0.23312,-1.8931 0.21773,-0.2701 0.22338,-0.2444 -0.22668,-1.0312 -0.36027,-0.6298 -0.52461,-1.0789 -0.54865,-1.4992 -0.0163,-0.2849 -0.004,-0.335 0.0832,-0.3287 0.0572,0 0.15063,-0.088 0.21136,-0.2079 0.0599,-0.1184 0.13443,-0.2134 0.16563,-0.2111 0.0312,0 0.21853,0.073 0.41627,0.1577 0.19834,0.085 0.52474,0.1657 0.728,0.1804 0.32129,0.023 0.39885,0 0.6058,-0.1529 l 0.23733,-0.1797 2.13234,0.1617 c 1.17279,0.089 2.33286,0.205 2.57792,0.2581 1.61124,0.3492 2.31339,0.9162 2.92213,2.3601 0.7351,1.7436 0.84763,2.683 0.72198,6.0276 -0.038,1.0118 -0.0465,2.141 -0.0188,2.5093 0.0499,0.6652 0.0493,0.6703 -0.0956,0.7869 -0.11535,0.093 -0.13975,0.1595 -0.11664,0.3186 0.0161,0.1107 0.0294,0.3883 0.0297,0.6169 7.7e-4,0.7295 -0.41262,1.3858 -1.53614,2.4387 -0.29555,0.2769 -0.65767,0.6309 -0.80471,0.7865 l -0.26736,0.2829 -0.56198,-0.041 c -0.66729,-0.049 -1.00391,0.038 -1.25526,0.3221 l -0.17516,0.1981 -0.26423,-0.12 c -0.44154,-0.2005 -1.32688,-0.2275 -2.30843,-0.07 -0.82361,0.1319 -1.45025,0.1683 -1.76106,0.1024 z m 3.66399,-3.0366 c 1.86746,-0.4939 2.46102,-0.7931 2.84032,-1.4318 0.27026,-0.4551 0.31956,-0.8567 0.17308,-1.4098 -0.15132,-0.5715 -0.21739,-1.2809 -0.27236,-2.9249 -0.0463,-1.385 -0.16011,-2.6713 -0.25309,-2.8604 -0.0916,-0.1865 -1.37906,-1.4994 -1.78031,-1.8155 -0.46427,-0.3659 -1.09262,-0.6526 -1.49407,-0.6817 -0.30843,-0.022 -1.07223,0.153 -1.12128,0.2575 -0.0207,0.044 0.006,2.5173 0.0598,5.4961 0.0967,5.3778 0.0984,5.4171 0.24156,5.5512 0.18896,0.1772 0.30028,0.1647 1.60634,-0.1807 z m 10.69742,2.3389 c -0.57044,-0.315 -0.63192,-0.4448 -0.5765,-1.2172 0.0945,-1.3174 0.0457,-3.6211 -0.10618,-5.0069 -0.0752,-0.6868 -0.0738,-0.7985 0.0112,-0.8592 0.0789,-0.056 0.0991,-0.1926 0.10484,-0.7078 0.01,-0.8913 -0.0627,-1.5391 -0.3934,-3.5048 -0.33867,-2.0134 -0.39825,-2.562 -0.38563,-3.5503 l 0.009,-0.7357 0.30601,-0.1096 c 0.32361,-0.1159 0.44883,-0.2797 0.57259,-0.7491 0.0697,-0.2644 0.0881,-0.2682 0.51077,-0.1057 0.383,0.1472 0.80428,0.1793 1.21505,0.092 0.36397,-0.077 1.01501,-0.1136 2.52479,-0.1421 1.28837,-0.024 2.12751,-0.099 2.73187,-0.2425 l 0.45839,-0.109 0.2054,0.1638 c 0.16894,0.1348 0.28733,0.1698 0.66708,0.1974 0.40875,0.03 0.46069,0.047 0.45306,0.1522 -0.0113,0.1557 0.0403,1.9524 0.0648,2.2567 l 0.019,0.2364 -0.41034,0.095 c -0.60069,0.1385 -1.47685,0.2076 -2.81086,0.2214 -1.7081,0.018 -2.38321,0.052 -2.48943,0.1277 -0.0753,0.053 -0.0987,0.2348 -0.11909,0.926 -0.0437,1.4768 0.14996,2.406 0.52993,2.5432 0.31047,0.1122 1.09606,0.081 2.17893,-0.087 1.07888,-0.1672 2.06694,-0.1912 2.45491,-0.06 0.20505,0.07 0.22221,0.099 0.29258,0.4984 0.0411,0.2335 0.0823,0.8068 0.0916,1.274 l 0.0168,0.8495 -0.27222,0.2193 c -0.47458,0.3823 -0.72771,0.4081 -2.68248,0.2734 -1.65937,-0.1144 -1.72408,-0.1141 -2.06058,0.01 -0.70287,0.2552 -0.8201,0.8783 -0.38828,2.0637 l 0.14546,0.3993 -0.15222,0.1774 -0.15222,0.1774 0.11364,0.2694 c 0.0625,0.1481 0.10672,0.3647 0.0983,0.4812 -0.008,0.1165 0.0164,0.2486 0.0552,0.2935 0.10507,0.1215 0.98643,0.1658 2.30056,0.1155 1.25827,-0.048 2.74861,0.041 3.24307,0.1946 0.23134,0.072 0.31396,0.1293 0.3225,0.2246 0.006,0.07 0.0904,0.4452 0.18695,0.8329 0.20441,0.8212 0.18042,1.2241 -0.0875,1.4709 -0.1312,0.1207 -0.19651,0.1358 -0.39094,0.09 -0.57633,-0.1356 -1.87179,0.077 -2.61666,0.4292 -0.33395,0.158 -0.33789,0.1582 -0.59746,0.034 -0.22336,-0.107 -0.31487,-0.1181 -0.63019,-0.076 -0.46149,0.061 -0.66268,0.047 -0.85704,-0.059 -0.11495,-0.063 -0.22194,-0.07 -0.43142,-0.028 -0.15321,0.031 -0.73714,0.048 -1.29763,0.039 -0.90666,-0.015 -1.13469,3e-4 -1.50595,0.1019 -0.0537,0.015 -0.2654,-0.066 -0.47049,-0.1792 z m 13.57985,-0.1169 c -0.21658,-0.2677 -0.30432,-0.833 -0.1424,-0.9176 0.0351,-0.018 0.10008,-0.1351 0.14438,-0.2596 0.0653,-0.1835 0.0613,-0.28 -0.021,-0.5097 l -0.10151,-0.2834 0.14339,0.047 c 0.1514,0.05 0.36221,-0.079 0.37304,-0.2282 0.003,-0.045 -0.0459,-0.1587 -0.1092,-0.2525 -0.14516,-0.2149 -0.14251,-0.2346 0.0332,-0.2468 0.18635,-0.013 0.2382,-0.2134 0.087,-0.3365 -0.17493,-0.1425 -0.29596,-0.5096 -0.27287,-0.8276 0.0112,-0.1544 0.0857,-0.5715 0.16555,-0.927 0.13346,-0.5943 0.13747,-0.6564 0.0496,-0.7688 -0.089,-0.114 -0.0796,-0.1562 0.13792,-0.6176 0.1284,-0.2723 0.24152,-0.6061 0.25136,-0.7416 0.0169,-0.2329 -0.0133,-0.305 -0.35013,-0.8364 -0.13141,-0.2074 -0.22754,-1.1418 -0.12323,-1.1979 0.0452,-0.024 0.10023,-0.043 0.12221,-0.042 0.10227,0 0.21576,-0.3874 0.22741,-0.7862 l 0.0129,-0.4402 -0.2442,-0.1497 c -0.32285,-0.198 -0.38024,-0.3581 -0.3046,-0.85 0.0385,-0.2502 0.0374,-0.4774 -0.003,-0.5987 -0.0571,-0.172 -0.0473,-0.2146 0.0812,-0.3556 0.40263,-0.4418 0.50649,-1.3186 0.37195,-3.1399 l -0.0888,-1.2027 0.1401,-0.1137 c 0.34984,-0.2839 0.58501,-0.3104 1.93142,-0.2176 2.26902,0.1565 3.94323,0.031 5.3859,-0.4044 0.17429,-0.053 0.24808,-0.029 0.67756,0.2162 0.3903,0.2229 0.49571,0.3162 0.55422,0.4908 0.0864,0.2579 0.0504,0.7689 -0.1201,1.7035 l -0.12614,0.6914 -0.42044,0.087 c -0.48634,0.1011 -1.4705,0.059 -1.73813,-0.074 -0.12562,-0.063 -0.2447,-0.074 -0.42056,-0.04 -0.13492,0.026 -0.55842,0.068 -0.94112,0.093 -1.24738,0.082 -1.67301,0.2331 -1.93608,0.6875 -0.13748,0.2375 -0.15197,0.3064 -0.10079,0.4789 0.0486,0.1639 0.0413,0.2175 -0.0393,0.2872 -0.14709,0.1272 -0.1319,0.2361 0.0701,0.503 0.16991,0.2244 0.17461,0.2476 0.0704,0.3471 -0.14573,0.1393 -0.14621,0.2092 -0.002,0.3596 0.0897,0.094 0.11268,0.2046 0.0945,0.4553 -0.0389,0.5356 -0.0177,0.5414 1.57367,0.4266 1.16933,-0.084 2.03717,-0.072 2.62168,0.038 0.82003,0.1538 0.95049,0.2377 1.13656,0.7316 0.17072,0.4531 0.29368,1.2462 0.26163,1.6876 -0.0184,0.2532 -0.0499,0.3048 -0.29793,0.4877 -0.47191,0.348 -0.71469,0.3818 -2.31156,0.3214 -1.46189,-0.055 -1.72193,-0.034 -2.25241,0.1883 -0.45408,0.1898 -0.70207,0.3956 -0.84479,0.7008 -0.18275,0.391 -0.15406,0.7834 0.10836,1.4823 0.28761,0.766 0.30862,1.0702 0.10152,1.4695 l -0.15751,0.3036 0.22761,0.8333 c 0.17598,0.6443 0.21095,0.8597 0.15414,0.9495 -0.0404,0.064 -0.13104,0.3461 -0.20139,0.6271 -0.18283,0.7302 -0.4458,0.9368 -0.84827,0.6662 -0.2609,-0.1753 -0.74255,-0.1682 -1.45934,0.022 -0.78682,0.2084 -1.15289,0.2037 -1.33144,-0.017 z m 13.91797,-0.6906 c -0.12766,-0.071 -0.3069,-0.2125 -0.39834,-0.3138 -0.16385,-0.1815 -0.16585,-0.198 -0.13879,-1.1516 0.0541,-1.9054 0.0102,-3.4444 -0.13779,-4.8402 -0.0652,-0.6142 -0.062,-0.7234 0.0246,-0.8412 0.0791,-0.1077 0.099,-0.2726 0.0973,-0.8052 -0.003,-0.9116 -0.0396,-1.2229 -0.39365,-3.3445 -0.33789,-2.0248 -0.42558,-2.9235 -0.36571,-3.748 l 0.0396,-0.5456 0.26217,-0.1106 c 0.28533,-0.1204 0.43932,-0.2857 0.51503,-0.5529 0.0268,-0.094 0.0676,-0.239 0.0908,-0.321 0.0418,-0.148 0.0441,-0.1482 0.30516,-0.031 0.35344,0.1585 1.04419,0.2094 1.6339,0.1203 0.26596,-0.04 1.11589,-0.087 1.88874,-0.1043 0.77284,-0.017 1.60715,-0.046 1.85401,-0.065 0.51761,-0.039 1.42256,-0.1897 1.59099,-0.2647 0.0848,-0.038 0.17508,0 0.34412,0.1299 0.2003,0.1582 0.28299,0.1824 0.65634,0.1915 l 0.42715,0.01 0.0178,0.2244 c 0.0261,0.3296 0.0739,2.1015 0.0614,2.274 -0.009,0.126 -0.0706,0.1616 -0.41608,0.2413 -0.62425,0.144 -1.48433,0.2061 -3.15713,0.2279 -1.82206,0.024 -1.98646,0.035 -2.0908,0.1436 -0.11013,0.1147 -0.16735,1.8929 -0.0778,2.4165 0.12996,0.7595 0.20874,0.9218 0.49623,1.0224 0.33317,0.1166 0.95945,0.1047 1.86134,-0.035 1.35271,-0.21 1.71782,-0.2361 2.32022,-0.1658 0.32074,0.037 0.59911,0.086 0.61858,0.1091 0.0846,0.098 0.16854,0.8013 0.1981,1.6601 l 0.0319,0.927 -0.27097,0.2105 c -0.48143,0.3741 -0.82641,0.4076 -2.76587,0.2687 -1.59207,-0.114 -1.69753,-0.1142 -1.99079,0 -0.45605,0.1718 -0.60353,0.4045 -0.61243,0.9661 -0.005,0.3311 0.0409,0.5854 0.17717,0.976 0.18057,0.5178 0.18174,0.5311 0.058,0.6631 -0.16033,0.171 -0.16486,0.2558 -0.0306,0.5739 0.0598,0.1418 0.10292,0.3389 0.0957,0.438 -0.007,0.099 0.0187,0.2169 0.0575,0.2618 0.10545,0.122 0.93101,0.1614 2.24325,0.1071 1.3466,-0.056 2.56715,0.01 3.1568,0.1657 0.39552,0.1056 0.42023,0.123 0.44656,0.3145 0.0153,0.1115 0.0956,0.4516 0.17835,0.7557 0.18659,0.6857 0.17825,1.1843 -0.0238,1.4232 -0.13571,0.1605 -0.16399,0.1654 -0.80653,0.1409 -0.81589,-0.031 -1.2621,0.049 -2.04825,0.3657 -0.5998,0.2421 -0.60865,0.2435 -0.80085,0.1257 -0.19299,-0.1182 -0.27018,-0.123 -0.99436,-0.061 -0.16998,0.014 -0.36846,-0.014 -0.51482,-0.075 -0.18645,-0.077 -0.28542,-0.085 -0.45563,-0.038 -0.11959,0.033 -0.69024,0.051 -1.26811,0.039 -0.57787,-0.011 -1.13325,0 -1.23418,0.034 -0.2535,0.076 -0.4825,0.043 -0.75549,-0.1095 z m 15.56572,-0.273 c -0.28377,-0.091 -0.55192,-0.2737 -0.87449,-0.595 -0.16067,-0.16 -0.40226,-0.3938 -0.53687,-0.5196 -0.19562,-0.1827 -0.24174,-0.2699 -0.2298,-0.4343 0.0162,-0.2235 -0.0687,-0.3649 -0.22619,-0.3763 -0.055,0 -0.2302,-0.1627 -0.38941,-0.3526 -0.30192,-0.3601 -0.35298,-0.514 -0.60316,-1.8181 -0.10977,-0.5722 -0.0761,-1.2028 0.0807,-1.5128 0.11185,-0.2212 0.11043,-0.2317 -0.0801,-0.5936 -0.1777,-0.3376 -0.18358,-0.3695 -0.0701,-0.3799 0.0698,-0.01 0.1467,-0.08 0.17609,-0.1696 0.0953,-0.2891 0.0534,-1.0738 -0.0793,-1.4862 -0.081,-0.2517 -0.10375,-0.4129 -0.0614,-0.4351 0.0961,-0.05 0.0667,-0.6216 -0.10153,-1.9741 -0.12381,-0.9952 -0.13371,-1.2482 -0.0701,-1.7912 0.0438,-0.3736 0.12186,-0.7251 0.19089,-0.8592 0.11175,-0.2171 0.12462,-0.2233 0.29745,-0.1434 0.26552,0.1229 0.40668,0.06 0.36516,-0.1616 -0.0583,-0.3118 0.0197,-0.8898 0.16094,-1.1919 0.19752,-0.4225 0.67868,-1.1125 0.84486,-1.2116 0.62644,-0.3733 1.75099,-0.8743 2.11457,-0.942 0.39209,-0.073 0.45304,-0.069 0.81304,0.05 0.56184,0.1866 1.54018,0.1934 1.82545,0.013 l 0.20409,-0.1293 0.97526,0.4251 c 1.21221,0.5284 1.33692,0.6022 1.58797,0.9397 0.25443,0.342 0.40178,0.6919 0.63811,1.5153 0.10282,0.3581 0.25368,0.8713 0.33526,1.1402 0.11945,0.3939 0.14603,0.6337 0.1365,1.232 l -0.0118,0.7429 -0.36842,-0.058 c -0.28098,-0.044 -0.49812,-0.028 -0.91478,0.067 -0.3343,0.076 -0.69827,0.1132 -0.93776,0.096 -0.36247,-0.026 -0.40733,-0.046 -0.60672,-0.2702 -0.27674,-0.3108 -0.35301,-0.4957 -0.55676,-1.3498 -0.18889,-0.7918 -0.40763,-1.1892 -0.79285,-1.4403 -0.23753,-0.1549 -0.28177,-0.162 -0.94448,-0.1521 -0.96904,0.015 -1.45594,0.206 -1.75169,0.6887 -0.11867,0.1937 -0.12521,0.3124 -0.26683,4.8448 -0.0683,2.1866 0.0297,3.5493 0.34324,4.7711 0.12312,0.4797 0.1591,0.5436 0.42203,0.7483 0.6844,0.533 1.48943,0.7295 2.03467,0.4968 0.49004,-0.2091 0.72794,-0.6775 0.95155,-1.8735 0.21493,-1.1496 0.38155,-1.6916 0.56465,-1.8367 0.0824,-0.065 0.36282,-0.1777 0.62328,-0.2498 0.26045,-0.072 0.5645,-0.1702 0.67566,-0.2178 0.15886,-0.068 0.30536,-0.07 0.68448,-0.01 0.72815,0.1167 0.91967,0.1986 1.12533,0.4812 l 0.18255,0.2508 -0.1032,0.949 c -0.15822,1.4551 -0.4526,2.4898 -0.96387,3.3878 -0.2574,0.4521 -0.70286,0.8891 -1.46915,1.4414 l -0.36174,0.2607 -0.57486,-0.041 c -0.55512,-0.039 -0.9097,0.031 -1.03595,0.2056 -0.0252,0.035 -0.11773,0.028 -0.24151,-0.017 -0.28132,-0.1032 -0.79263,-0.128 -1.54053,-0.074 -0.68169,0.049 -1.28202,0.019 -1.58839,-0.08 z m 15.41204,-0.4405 c -0.38798,-0.4109 -0.448,-0.704 -0.41133,-2.0087 0.0178,-0.6327 0.004,-1.2384 -0.0306,-1.3461 -0.0384,-0.1196 -0.0389,-0.7901 -0.001,-1.7219 0.0446,-1.1009 0.0402,-1.6163 -0.0156,-1.8504 -0.10159,-0.4258 -0.10274,-0.422 0.12259,-0.4056 0.53944,0.039 0.79855,-0.3717 0.37362,-0.5925 l -0.23043,-0.1197 0.38244,-0.051 c 0.52539,-0.07 0.70936,-0.3217 0.49592,-0.679 -0.10956,-0.1834 -0.30076,-0.2018 -0.58369,-0.056 -0.1847,0.095 -0.53459,0.1384 -0.52931,0.066 0.0133,-0.1829 -0.11719,-0.8443 -0.26301,-1.3335 -0.21518,-0.7218 -0.22569,-1.2646 -0.0281,-1.4534 0.0883,-0.085 0.12717,-0.2243 0.15012,-0.5403 0.0311,-0.4278 0.14032,-0.6948 0.34376,-0.8401 0.25127,-0.1795 0.0791,-0.5336 -0.36982,-0.7607 -0.31394,-0.1588 -0.44735,-0.159 -1.30265,0 -1.08446,0.1991 -1.38666,0.1521 -1.77898,-0.2765 -0.49086,-0.5364 -0.67202,-1.0481 -0.36383,-1.0279 0.0785,0.01 0.17617,-0.01 0.21696,-0.032 0.11142,-0.062 0.38235,-0.5372 0.39341,-0.6895 0.0266,-0.3658 -0.24876,-0.5121 -0.53169,-0.2825 -0.1412,0.1146 -0.15807,0.1158 -0.18887,0.014 -0.0665,-0.2197 0.1084,-0.4004 0.46281,-0.4782 0.18528,-0.041 0.44067,-0.1255 0.56754,-0.1884 0.19038,-0.094 0.26317,-0.1004 0.41672,-0.034 0.33728,0.1458 0.72003,0.1278 1.3436,-0.063 0.79743,-0.2441 1.10498,-0.2545 1.59512,-0.054 0.21321,0.087 0.49182,0.1842 0.61914,0.2155 0.35321,0.087 1.19935,0.021 2.36832,-0.1838 0.81026,-0.142 1.22415,-0.1807 1.76944,-0.1655 0.7824,0.022 1.28386,0.1088 1.30689,0.2267 0.0875,0.4481 0.20631,2.1609 0.16396,2.3637 -0.0743,0.3561 -0.23432,0.468 -0.82005,0.5735 -0.46253,0.083 -0.56392,0.081 -1.18245,-0.034 -0.623,-0.115 -0.69631,-0.1169 -0.92636,-0.024 -0.13739,0.056 -0.31196,0.193 -0.38791,0.3052 -0.1377,0.2036 -0.13784,0.2072 -0.0459,1.2721 0.15215,1.762 0.16546,2.5948 0.0939,5.8825 -0.0463,2.1287 -0.0298,3.701 0.0491,4.6906 0.0951,1.1922 0.0955,1.1291 -0.007,1.0812 -0.11501,-0.054 -0.31155,0.1075 -0.32301,0.2654 -0.01,0.1352 -0.0937,0.1517 -0.96955,0.1908 -0.63283,0.028 -1.22128,0.1629 -1.36463,0.3122 -0.13645,0.142 -0.34617,0.082 -0.57992,-0.1653 z m 12.0077,-0.086 c -0.0197,-0.024 -0.28451,-0.073 -0.58856,-0.1105 -0.76425,-0.093 -0.80887,-0.1365 -0.89664,-0.8683 -0.0537,-0.4481 -0.0518,-0.6188 0.008,-0.7007 0.0591,-0.081 0.0651,-0.2279 0.0237,-0.5816 -0.0305,-0.2604 -0.0546,-0.9026 -0.0536,-1.4272 0.002,-1.2317 -0.0104,-1.5069 -0.0926,-2.0015 -0.0644,-0.3873 -0.0604,-0.4209 0.0787,-0.6638 0.0806,-0.1407 0.1774,-0.3397 0.21521,-0.4422 0.0466,-0.1262 0.11612,-0.1896 0.21558,-0.1965 0.21249,-0.015 0.24344,-0.1443 0.11292,-0.4727 -0.10272,-0.2584 -0.10686,-0.3872 -0.0385,-1.1997 0.0801,-0.9526 0.0587,-1.1351 -0.17631,-1.5023 -0.11902,-0.186 -0.1222,-0.2407 -0.0428,-0.7367 0.0471,-0.2947 0.11678,-0.9353 0.15474,-1.4236 0.12102,-1.5568 0.0155,-2.6295 -0.36413,-3.7006 -0.11971,-0.3377 -0.228,-0.6435 -0.24065,-0.6795 -0.0127,-0.036 0.20093,-0.1313 0.47465,-0.2117 0.48767,-0.1433 0.71703,-0.1428 1.32606,0 0.0725,0.017 0.15257,-0.02 0.1981,-0.093 0.069,-0.1108 0.0974,-0.1137 0.29288,-0.03 0.11905,0.051 0.36179,0.1047 0.5394,0.1195 0.4033,0.034 0.52323,0.1693 0.56111,0.6339 0.0151,0.1854 0.0782,2.2347 0.1401,4.554 0.15464,5.7908 0.23195,7.6922 0.41443,10.1933 0.0447,0.6126 0.0561,1.1348 0.0254,1.1603 -0.0308,0.025 -0.37537,0.1275 -0.7658,0.2268 -0.66919,0.17 -1.44205,0.2471 -1.52123,0.1517 z m 10.72208,-0.3417 c -0.38763,-0.1536 -0.5926,-0.497 -0.74114,-1.2416 -0.0631,-0.3163 -0.17062,-0.8178 -0.23894,-1.1144 -0.0683,-0.2965 -0.17743,-1.0218 -0.24246,-1.6118 -0.1191,-1.0805 -0.32724,-2.0633 -0.51946,-2.4527 -0.0894,-0.1811 -0.0905,-0.2204 -0.008,-0.2794 0.0528,-0.038 0.10007,-0.1234 0.10493,-0.1903 0.0156,-0.2151 -0.20439,-0.6366 -0.39241,-0.7518 -0.10041,-0.061 -0.18149,-0.1266 -0.18019,-0.1445 0.001,-0.018 0.0703,-0.1118 0.15333,-0.2086 l 0.15095,-0.1759 -0.20744,-0.3836 c -0.55446,-1.0252 -0.94688,-2.1707 -1.27096,-3.7098 l -0.20522,-0.9746 0.34417,-0.1453 c 0.18929,-0.08 0.38485,-0.1877 0.43457,-0.2395 0.14643,-0.1525 -0.003,-0.2922 -0.33891,-0.3166 -0.26663,-0.019 -0.30905,-0.049 -0.65171,-0.4532 -0.43595,-0.5143 -0.70059,-0.9496 -0.80113,-1.3176 -0.0912,-0.3339 -0.056,-0.9134 0.0606,-0.9967 0.0472,-0.034 0.22843,-0.06 0.40278,-0.058 0.25056,0 0.33141,-0.024 0.3857,-0.1269 0.059,-0.1115 0.14152,-0.1303 0.58355,-0.1326 0.80837,0 1.7763,0.081 2.00677,0.1772 0.45251,0.1884 0.78404,0.7182 0.81615,1.3043 0.01,0.1816 0.117,0.7633 0.23789,1.2926 0.16811,0.7361 0.21919,1.1124 0.21719,1.5999 -0.002,0.5812 0.01,0.644 0.1371,0.7113 0.11177,0.059 0.12973,0.1074 0.0898,0.2419 -0.0591,0.199 0.0106,0.3791 0.28368,0.733 0.16296,0.2112 0.1927,0.2983 0.15629,0.4577 -0.029,0.1272 0.002,0.3359 0.0885,0.5893 0.10114,0.2972 0.12739,0.5183 0.10834,0.9122 -0.0219,0.4535 -0.006,0.5459 0.12162,0.7225 0.0807,0.1114 0.1714,0.3567 0.20152,0.545 0.13105,0.8195 0.28847,1.0137 0.68441,0.844 0.34298,-0.1469 0.38361,-0.2342 0.47489,-1.0206 0.067,-0.5777 0.11721,-0.7855 0.23598,-0.9777 0.0829,-0.1343 0.31843,-0.512 0.52327,-0.8394 0.42154,-0.6738 0.47963,-0.9407 0.29826,-1.3705 l -0.11132,-0.2639 0.17249,-0.1772 c 0.24818,-0.2549 0.46526,-0.8248 0.3775,-0.991 -0.0884,-0.1675 -0.076,-0.2889 0.0379,-0.3702 0.0509,-0.036 0.1187,-0.1775 0.15075,-0.3137 0.038,-0.1614 0.10699,-0.2693 0.19814,-0.3099 0.13444,-0.06 0.14019,-0.091 0.14786,-0.7884 0.007,-0.6096 0.0226,-0.725 0.0992,-0.7195 0.16158,0.012 0.44407,-0.2254 0.45546,-0.3823 0.006,-0.083 -0.0163,-0.1699 -0.0497,-0.194 -0.0333,-0.024 -0.05,-0.1894 -0.0371,-0.3673 0.022,-0.3027 0.006,-0.3419 -0.24504,-0.6086 l -0.26853,-0.285 0.17573,-0.065 c 0.0967,-0.036 0.46183,-0.084 0.81152,-0.1078 0.43126,-0.029 0.7741,-0.095 1.06578,-0.207 0.38556,-0.1474 0.4554,-0.1556 0.67579,-0.079 0.38145,0.133 0.43799,0.3774 0.27858,1.2042 -0.0987,0.5119 -0.11276,0.7076 -0.067,0.9325 0.0525,0.2583 0.0303,0.374 -0.23834,1.2447 -0.57497,1.8634 -0.91122,3.457 -1.56891,7.4356 -0.42228,2.5545 -0.6387,3.6899 -0.72647,3.8113 -0.0299,0.041 -0.076,0.3199 -0.10249,0.6189 -0.0341,0.3852 -0.0985,0.659 -0.22083,0.9386 -0.26381,0.6031 -0.41704,0.8411 -0.51793,0.8045 -0.64141,-0.2324 -0.85006,-0.2155 -2.36948,0.1925 -0.79694,0.2139 -1.34002,0.2639 -1.62789,0.1499 z m 12.4232,-0.8434 c -0.52907,-0.2974 -0.52684,-0.2897 -0.48914,-1.6831 0.0506,-1.8708 0.0233,-2.8246 -0.12761,-4.452 -0.0609,-0.6564 -0.0579,-0.8186 0.0172,-0.9373 0.0654,-0.1034 0.0919,-0.3181 0.0946,-0.767 0.005,-0.8738 -0.0722,-1.5497 -0.38109,-3.3212 -0.14784,-0.8478 -0.29895,-1.8631 -0.33579,-2.2563 -0.0774,-0.8256 -0.0751,-2.0251 0.004,-2.1126 0.0298,-0.033 0.16342,-0.101 0.29701,-0.1513 0.27217,-0.1026 0.41822,-0.3022 0.51547,-0.7045 0.0617,-0.2551 0.0764,-0.2692 0.23089,-0.2219 0.74442,0.2281 0.89085,0.2509 1.28606,0.2003 0.77728,-0.099 1.05838,-0.1164 2.65677,-0.16 1.56337,-0.043 2.44639,-0.1267 3.02008,-0.2871 0.26929,-0.075 0.28421,-0.072 0.50262,0.1003 0.19608,0.1549 0.28053,0.1792 0.65514,0.1885 0.39422,0.01 0.42935,0.021 0.4217,0.1376 -0.004,0.07 0.01,0.6591 0.0321,1.3096 0.0223,0.6505 0.0401,1.1886 0.0397,1.1958 -5.1e-4,0.01 -0.19763,0.056 -0.4382,0.1093 -0.64102,0.1408 -1.44361,0.2036 -2.77376,0.2173 -1.69888,0.017 -2.38283,0.053 -2.48949,0.1284 -0.0755,0.053 -0.0976,0.2275 -0.1138,0.8945 -0.0295,1.2142 0.11994,2.2692 0.35305,2.4924 0.19248,0.1843 1.21217,0.1815 2.31427,-0.01 0.88345,-0.1506 1.09528,-0.1642 1.80661,-0.1161 0.45834,0.031 0.83118,0.084 0.86463,0.1226 0.11005,0.1273 0.19325,0.7959 0.2086,1.6765 l 0.0153,0.8785 -0.27373,0.2205 c -0.47716,0.3845 -0.72778,0.41 -2.68389,0.2735 -1.67223,-0.1167 -1.72147,-0.1164 -2.06544,0.01 -0.5538,0.203 -0.73743,0.6367 -0.57996,1.3696 0.0416,0.1935 0.13661,0.5217 0.21121,0.7293 0.12641,0.3517 0.12798,0.3847 0.0231,0.4849 -0.14785,0.1413 -0.15448,0.3071 -0.0262,0.6548 0.058,0.1571 0.10055,0.3612 0.0946,0.4534 -0.006,0.093 0.0324,0.1881 0.0868,0.2136 0.18627,0.087 1.07681,0.115 2.22167,0.069 1.9435,-0.078 3.59503,0.1085 3.57355,0.4043 -0.005,0.066 0.0695,0.4259 0.16511,0.7998 0.20607,0.8058 0.19962,1.1863 -0.0249,1.4678 -0.14695,0.1843 -0.17224,0.192 -0.45058,0.1384 -0.64604,-0.1245 -1.84996,0.078 -2.61832,0.4409 -0.33464,0.1579 -0.34688,0.1589 -0.53962,0.041 -0.13607,-0.083 -0.27836,-0.1152 -0.45898,-0.1027 -0.14397,0.01 -0.39824,0.027 -0.56505,0.038 -0.18598,0.012 -0.37196,-0.015 -0.48087,-0.069 -0.14232,-0.071 -0.27456,-0.076 -0.66614,-0.025 -0.26871,0.036 -0.75393,0.047 -1.07827,0.026 -0.32434,-0.022 -0.73432,-0.024 -0.91106,0 -0.73572,0.079 -0.8233,0.071 -1.14004,-0.1073 z m 14.33483,-20.1221 c 0.0588,-0.08 0.0542,-0.1309 -0.0197,-0.2164 -0.0773,-0.089 -0.14567,-0.1037 -0.34401,-0.072 -0.2604,0.042 -0.38024,0.2167 -0.22809,0.3326 0.13009,0.099 0.50742,0.071 0.59183,-0.044 z m -0.0297,-0.5086 c 0.17303,-0.2348 -0.14006,-0.4241 -0.41594,-0.2516 -0.15555,0.097 -0.11126,0.2688 0.0826,0.32 0.19782,0.052 0.25265,0.041 0.3333,-0.068 z m -113.01998,30.5303 c 0.0796,-0.01 0.20805,-10e-5 0.28545,0.021 0.0774,0.021 0.0123,0.029 -0.14472,0.017 -0.157,-0.011 -0.22033,-0.028 -0.14073,-0.038 z m 0.86089,-2e-4 c 0.0622,-0.012 0.16212,0 0.22202,0.016 0.0599,0.02 0.009,0.03 -0.11312,0.021 -0.12211,-0.01 -0.17112,-0.025 -0.1089,-0.037 z m 0.73397,-0.01 c 0.0449,-0.014 0.11625,-0.01 0.15858,0.012 0.0423,0.021 0.006,0.033 -0.0816,0.026 -0.0872,-0.01 -0.12186,-0.023 -0.077,-0.038 z m 92.87663,-32.0269 c 0.0449,-0.014 0.11625,-0.01 0.15858,0.011 0.0423,0.021 0.006,0.033 -0.0816,0.026 -0.0872,-0.01 -0.12186,-0.023 -0.077,-0.038 z m 0.63771,-0.017 c 0.0442,-0.014 0.12992,-0.01 0.19047,0.011 0.0605,0.021 0.0244,0.032 -0.0804,0.026 -0.10476,-0.01 -0.1543,-0.023 -0.11009,-0.037 z"
         style="fill:#8f181a"
         sodipodi:nodetypes="cssssssscsssscccssscsscssssssscscsccscsccccccsscsscccsscsscsscssccsscsscsssssscsssscssssssssssssscsssssssscssscscssscscscsscsssssccssccsccsccsscsccssssccsccscccsscccscssscccsssssscscsssscccccssccssssssssssssssssssssssssccsccssccccccscsscccsscscssccsccssscsscsscsssssssssssssssssscsscccsscccsscsccsccccssssssssccsssssccsssscscsssccssssssccsccsscssssssscsscssscssccsscscsssscsssscssssssssscsssscccsssssssssssssssscccssscsssssssssssssscsscsscsssssscssssssssssssssssssssscssssscccssssssscssssssssssccsssssssscscssssssssssscssssssscsscccccsscsccscsssscscscssscssssscssssssssssssscsssccssscsccsccsscsssscssssscscsssccsccssssssssccsssssssssscscsscscssssccssssssscsscsscsccccsscsssccsscssssssscsssssscsscsccsscsscccccsssssssccsssscsscsscsccsssccsscsssssssscscsscscsscscssscsscccssscssssscsssssssssssssssssssssssssssssccccc"
         inkscape:export-filename="/home/mattl/dbd-2012.png"
         inkscape:export-xdpi="12.16"
         inkscape:export-ydpi="12.16" />
      <g
         id="g6782"
         transform="matrix(0.07599309,0,0,0.07599324,265.49218,1347.7543)"
         inkscape:export-filename="/home/mattl/dbd-2012.png"
         inkscape:export-xdpi="12.16"
         inkscape:export-ydpi="12.16">
        <path
           sodipodi:nodetypes="sssccsssssssscsscscssssssssscscsssssscsssscscsscscccscsscsssscssscssssss"
           style="fill:#010101"
           d="m 2443.0715,206.69983 c -87.7729,-0.49213 -84.9084,-0.37785 -95.5279,-3.81091 -6.9252,-2.23875 -11.7205,-5.27345 -16.7968,-10.62976 -6.3174,-6.66582 -9.1129,-13.91688 -9.0484,-23.46995 0.039,-5.81442 1.0317,-10.55835 3.4999,-16.72775 1.3371,-3.34216 87.5783,-160.032667 92.3777,-167.839893 3.1539,-5.130361 12.1231,-14.086326 16.2671,-16.242979 3.8,-1.977652 8.7622,-3.518597 12.8172,-3.98018 5.8972,-0.671304 14.794,1.594685 20.1901,5.142418 4.1219,2.710007 11.1564,10.037619 14.2313,14.824397 1.449,2.255827 23.342,40.773566 48.651,85.594979 29.8167,52.804428 46.5402,82.928988 47.5045,85.571158 5.0561,13.85392 3.6106,26.98658 -3.9938,36.28694 -2.6923,3.29274 -7.162,7.09498 -10.822,9.20598 -3.5045,2.02142 -10.6052,4.4025 -16.0433,5.37989 -6.3064,1.13345 -14.8984,1.19133 -103.3066,0.69566 z m 101.6502,-21.71761 c 6.5326,-1.63624 11.2785,-4.72678 13.2584,-8.634 1.1887,-2.34573 1.3097,-3.08175 1.1153,-6.7846 -0.1709,-3.25718 -0.5542,-4.86749 -1.7762,-7.46262 -1.5364,-3.26274 -91.7038,-163.145839 -94.5339,-167.625675 -2.3167,-3.667072 -5.6137,-6.688373 -9.0915,-8.331384 -4.0712,-1.923266 -6.4423,-1.67977 -10.7103,1.09988 -3.2323,2.105101 -5.1045,4.231403 -7.9475,9.025911 -5.182,8.739099 -90.0194,162.971478 -91.0842,165.588968 -1.8635,4.5808 -1.8005,9.88236 0.1603,13.48497 2.9624,5.44302 10.4458,9.05824 20.0054,9.66459 5.5333,0.35094 151.2586,1.17493 166.6236,0.94212 7.5999,-0.11515 11.7118,-0.3999 13.9806,-0.96816 z m -69.8636,-10.01456 -4.6142,-0.28254 -0.4467,-4.87053 c -0.8308,-9.05611 1.033,-20.21825 4.7414,-28.39698 2.1819,-4.81217 6.3671,-10.72802 11.0135,-15.56778 5.3357,-5.5578 9.2369,-8.47994 14.9404,-11.19109 4.3808,-2.08236 14.2345,-5.34132 16.1499,-5.34132 0.6477,0 1.2689,1.06097 2.2668,3.87192 0.756,2.12955 1.5039,4.20893 1.6619,4.62085 0.1955,0.5095 -0.2517,0.93686 -1.3989,1.33679 -3.6629,1.27689 -12.7051,6.06184 -15.8599,8.39276 -4.6785,3.45671 -8.7819,7.88556 -12.5942,13.59298 -6.5774,9.84726 -9.4173,17.82921 -9.9166,27.87178 -0.1717,3.45436 -0.5267,6.14043 -0.8165,6.17844 -0.282,0.037 -2.5891,-0.0599 -5.1269,-0.21528 z m -39.7333,-36.51099 c -2.3852,-0.67017 -5.8706,-4.13203 -6.5952,-6.55069 -1.897,-6.33154 1.3045,-11.99934 7.5987,-13.45221 6.5886,-1.52083 12.4586,3.41681 12.4043,10.4339 -0.036,4.61537 -3.0715,8.48139 -7.5444,9.60768 -2.5844,0.65075 -3.4294,0.64517 -5.8634,-0.0387 z M 2392.622,114.3503 c 0.3295,-0.61565 2.5253,-4.15835 4.8795,-7.87267 l 4.2804,-6.753307 2.957,-0.297677 c 1.6264,-0.163721 7.5374,-0.701516 13.1355,-1.195101 6.6086,-0.58267 10.2599,-1.109723 10.4107,-1.502724 0.1278,-0.332914 -1.7417,-5.964462 -4.1543,-12.514553 -2.4127,-6.55009 -4.3866,-12.147919 -4.3866,-12.439618 0,-0.56611 7.6603,-12.942247 9.1475,-14.778803 0.8619,-1.064433 1.094,-0.480799 8.3023,20.870894 4.0785,12.08127 7.4857,22.342409 7.5715,22.802529 0.086,0.46012 -1.0289,2.70259 -2.4768,4.98326 -2.2084,3.47832 -2.8946,4.19171 -4.2575,4.42606 -2.3242,0.39967 -44.1322,5.39108 -45.1555,5.39108 -0.7177,0 -0.7579,-0.1772 -0.2537,-1.11937 z m 65.9938,-9.43159 c -3.0672,-0.9439 -5.7504,-3.9674 -6.5764,-7.410521 -1.5179,-6.32723 3.5396,-12.799792 10.0015,-12.799792 5.5141,0 10.5101,5.048807 10.5101,10.621253 0,4.22926 -3.1952,8.39979 -7.3899,9.64546 -3.031,0.90012 -3.4487,0.89652 -6.5453,-0.0564 z"
           id="path6784"
           inkscape:connector-curvature="0" />
        <path
           sodipodi:nodetypes="ccscsssscccsscscsccscssscsscccscccscsccsccscsscccsscccsccsscsccsscsscsscsssssssccssccccccscsscccccssccccscscccscscscscsssccscscsccssccsscccsssssssscscccsccccccssscscscsscssscsccccssscsssscssccccsssscccscssccsssccsssssssccsccscccssscsccscscssccsscsssssscccscsssscscssccsscsscsscscscssccssccsscscccsccsccccsssscsscscscscscccssscccccsccsscccssscccscscsccccscssccccsscsccscccccccsssssccscscsssccssssscssccscscscccccscccscsccsccccsccccsscccsssccccssscssscccsccsssssccsssssssccsccsscscccssssssscsscsssccscsscc"
           inkscape:connector-curvature="0"
           id="path6786"
           d="m 2496.724,366.01449 c -2.2,-1.2128 -5.3434,-2.4883 -6.9854,-2.8343 -2.6873,-0.5663 -3.2596,-1.4242 -5.7314,-8.5911 -3.3627,-9.7501 -3.453,-12.0332 -0.5375,-13.5935 4.6013,-2.4626 10.3285,-1.4577 19.7475,3.4648 9.8136,5.1287 12.1494,5.5151 17.6299,2.9167 2.7236,-1.2913 4.2893,-3.0387 5.9736,-6.6664 2.0899,-4.5014 2.1589,-5.1556 0.8173,-7.75 -1.7302,-3.3458 -4.8317,-3.713 -7.8495,-0.9295 -2.6891,2.4802 -9.1427,4.2022 -11.8996,3.1751 -1.1907,-0.4437 -4.2176,-1.1078 -6.7265,-1.476 -3.8757,-0.5686 -5.4856,-1.6041 -10.7061,-6.8863 -9.5243,-9.6368 -10.1204,-11.6523 -10.6635,-36.0551 -0.2758,-12.3935 -0.082,-20.8447 0.4862,-21.1958 0.5198,-0.3213 0.945,-2.2575 0.945,-4.3028 0,-2.3221 0.6657,-4.2887 1.7724,-5.2363 1.4855,-1.272 2.8826,-4.659 4.7858,-11.603 0.1773,-0.6469 3.8116,-2.8319 8.0762,-4.8557 8.9342,-4.2396 11.795,-4.2495 20.9189,-0.072 6.6526,3.0457 10.845,3.2554 17.5403,0.8774 4.3909,-1.5595 5.2671,-1.5837 9.0436,-0.25 8.1766,2.8878 7.9277,1.4874 8.0914,45.5214 0.1146,30.8455 -0.1841,41.218 -1.4348,49.8234 -1.8143,12.4837 -2.4209,13.5599 -12.3785,21.9603 l -6.9086,5.8283 -5.5033,-0.5562 c -8.2283,-0.8316 -14.7592,-0.5713 -21.5034,0.857 -2.1282,0.4507 -4.1623,-0.01 -7,-1.5699 z m 25.2084,-56.6911 c 5.7256,-5.7256 10.8625,-14.9719 11.7758,-21.1963 0.5803,-3.955 0.2904,-5.045 -2.3938,-9 -2.0362,-3.0004 -3.0601,-5.7421 -3.0722,-8.227 -0.014,-2.8512 -0.6003,-4.1084 -2.4956,-5.3502 -3.2908,-2.1562 -8.1742,-3.0922 -12.7732,-2.4481 -3.0733,0.4304 -4.1115,1.2017 -5.75,4.2716 -1.1362,2.129 -1.9994,5.6626 -1.9994,8.1849 0,2.4412 -0.4634,5.6573 -1.0297,7.1469 -0.7131,1.8755 -0.692,5.2013 0.069,10.8151 1.5536,11.4679 2.7707,15.5073 5.4924,18.229 3.6605,3.6605 6.6953,3.0559 12.1771,-2.4259 z m -173.2084,24.0638 c -6.585,-4.3275 -14.3831,-12.1995 -16.893,-17.0533 -0.9867,-1.908 -1.607,-5.5871 -1.607,-9.5314 0,-3.5332 -0.6937,-8.3902 -1.5416,-10.7933 l -1.5416,-4.3693 4.1328,-8.2265 c 4.5535,-9.0643 5.8078,-14.8158 3.9769,-18.2368 -1.0833,-2.0242 -1.004,-2.1772 0.8268,-1.5961 2.6749,0.849 3.7041,-1.2778 4.5045,-9.3081 0.3484,-3.4951 1.1987,-7.5451 1.8897,-9 2.0029,-4.2177 8.9925,-6.0496 23.2803,-6.1016 10.8211,-0.039 12.1995,0.1569 13.7402,1.9563 0.9418,1.1 2.7766,2 4.0772,2 2.4103,0 11.0852,8.1986 13.5521,12.808 1.571,2.9355 3.1415,14.8693 3.7917,28.8128 0.5335,11.4382 0.4051,12.2434 -5.1268,32.165 -3.2984,11.8787 -14.1163,18.6063 -31.8329,19.797 l -9.2293,0.6203 z m 21.25,-18.4147 c 4.463,-2.7583 7.1917,-8.7182 7.2546,-15.8454 0.05,-5.6953 -3.6387,-31.9571 -4.9903,-35.5261 -0.422,-1.1143 -2.3301,-2.8676 -4.2401,-3.8962 -4.8087,-2.5897 -8.2482,-1.5556 -10.6048,3.1883 -3.7801,7.609 -4.497,12.6923 -3.893,27.6011 0.6909,17.0517 2.1384,21.7436 7.5982,24.6287 4.5991,2.4303 4.7027,2.4286 8.8754,-0.1504 z m -76.4678,19.8285 c -5.5912,-2.0398 -6.1836,-3.2943 -6.4853,-13.7336 -0.2246,-7.7707 0.053,-10.0631 1.4864,-12.25 1.7275,-2.6365 1.9721,-2.6903 12.2167,-2.6903 13.4148,0 13.7163,0.33 12.5834,13.7748 -0.6397,7.5921 -1.191,9.7108 -3.0389,11.6778 -1.2416,1.3216 -2.7958,2.1963 -3.4538,1.9438 -0.658,-0.2525 -2.8457,0.23 -4.8614,1.0722 -4.2195,1.763 -4.1799,1.7621 -8.4471,0.2053 z m 132.3787,0.1961 c -1.0115,-0.588 -2.9072,-0.8649 -4.2127,-0.6154 -3.2696,0.625 -6.4738,-3.0263 -7.1626,-8.1622 -0.5225,-3.8956 -0.3903,-4.16 2.6031,-5.2035 5.3445,-1.8631 6.6047,-6.8889 1.7273,-6.8889 -1.8638,0 -2.2886,-0.5769 -2.3932,-3.25 -0.07,-1.7875 -0.1795,-4.15 -0.2434,-5.25 -0.064,-1.1 0.437,-4.25 1.1133,-7 1.5513,-6.3075 1.3488,-12.1773 -0.5183,-15.0269 -1.3357,-2.0385 -1.2591,-2.2958 0.9888,-3.32 2.6964,-1.2285 2.8638,-2.041 1.4744,-7.1531 -0.5233,-1.925 -1.3949,-8.7101 -1.9371,-15.0779 -0.5422,-6.3679 -1.1241,-12.1878 -1.2931,-12.9333 -0.1691,-0.7454 1.0426,-2.0604 2.6926,-2.9221 2.4479,-1.2784 6.8934,-1.5667 24.1573,-1.5667 l 21.1572,0 0.5818,3.5 c 1.9724,11.8669 -0.2846,18.9361 -6.0057,18.8109 -3.1122,-0.068 -10.0749,1.6613 -12.1885,3.0274 -0.7138,0.4614 -2.5623,3.949 -4.1076,7.7503 -2.6471,6.5111 -2.7282,7.143 -1.4005,10.9114 1.1696,3.3197 1.1976,5.0713 0.1643,10.2996 -0.8852,4.4791 -0.9538,7.3906 -0.2374,10.0744 0.729,2.7314 0.6653,4.7215 -0.2306,7.2003 -0.681,1.8841 -1.2834,5.2257 -1.3387,7.4257 -0.1448,5.7648 -1.9142,12.6907 -3.7645,14.7352 -1.7736,1.9599 -6.7791,2.2899 -9.6262,0.6348 z m -1326.3644,-16.91 c -2.3119,-0.4619 -5.0367,-1.2858 -6.0552,-1.8309 -1.0185,-0.5451 -3.627,-0.7569 -5.7966,-0.4708 -4.4868,0.5919 -14.1441,-2.5637 -16.7884,-5.4857 -1.4592,-1.6123 -1.4668,-1.9981 -0.079,-3.979 0.8451,-1.2065 2.1774,-2.1936 2.9608,-2.1936 0.7833,0 1.6935,-1.073 2.0226,-2.3843 0.7575,-3.0181 -2.4355,-9.4176 -7.4666,-14.9651 -5.4267,-5.9836 -5.8199,-7.6469 -1.8123,-7.6659 4.4527,-0.021 5.2557,-0.7319 8.2723,-7.3211 2.3936,-5.2283 2.519,-6.0756 1.3271,-8.9687 -0.7239,-1.7572 -4.6516,-6.419 -8.7283,-10.3595 -6.68,-6.457 -7.3458,-7.4447 -6.7406,-10 0.3693,-1.5595 1.7469,-3.7354 3.0613,-4.8354 2.6639,-2.2294 5.0365,-10.0531 4.268,-14.0735 -0.3503,-1.8326 0.1966,-3.2734 1.8825,-4.9593 2.7454,-2.7454 2.9751,-5.9382 1.1803,-16.4048 -0.9946,-5.7997 -1.5421,-7.0242 -3.25,-7.2686 -1.5842,-0.2266 -2.2654,-1.3882 -2.978,-5.0778 -0.8377,-4.3375 -0.721,-4.9262 1.25,-6.3067 2.944,-2.0621 2.7404,-3.6947 -0.9912,-7.9447 l -3.1652,-3.6049 2.1652,-4.4566 c 2.675,-5.5059 2.6863,-6.4709 0.1149,-9.74 -1.6723,-2.1259 -1.8425,-2.995 -0.923,-4.713 0.62,-1.1585 0.8568,-2.8113 0.5262,-3.6729 -0.3306,-0.8616 0.144,-2.3898 1.0547,-3.3961 2.6285,-2.9045 3.0216,-14.5818 0.6187,-18.3811 -1.8657,-2.95 -1.8651,-3.0439 0.038,-5.6301 1.5774,-2.1442 1.7232,-3.0255 0.7892,-4.7707 -1.6263,-3.0388 -0.5418,-4.0992 4.1921,-4.0992 2.27,0 7.5113,-0.9496 11.6475,-2.1102 6.6458,-1.8649 8.1159,-1.9673 12.6435,-0.8812 4.327,1.0381 6.2698,0.9683 12.4997,-0.4486 11.7003,-2.6612 19.294,-2.2351 23.3164,1.3082 1.4056,1.2382 4.9027,1.7853 14.5,2.2684 14.7746,0.7438 23.6604,3.1602 29.5571,8.0379 4.8595,4.0197 9.8223,14.3981 13.249,27.7066 4.3658,16.9555 2.2437,35.7542 -5.3276,47.1952 -2.0285,3.0652 -3.2307,3.9237 -5.4951,3.9237 -1.5941,0 -3.14,0.6294 -3.4352,1.3987 -0.9097,2.3707 4.1369,10.9058 13.0434,22.0598 6.7425,8.444 8.933,12.022 10.5344,17.2065 3.3371,10.8045 2.4125,19.7082 -3.5658,34.335 -1.5942,3.9005 -2.751,8.8052 -2.8926,12.2643 -0.163,3.9835 -0.8204,6.4227 -2.1279,7.8951 -4.0289,4.5372 -11.6365,9.7876 -17.1399,11.8291 -3.1637,1.1735 -7.5086,3.3402 -9.6554,4.8148 -3.8093,2.6166 -9.804,3.4662 -30.0967,4.2657 -2.6788,0.1056 -22.3501,1.9434 -25.5,2.3825 -1.375,0.1916 -4.3916,-0.03 -6.7035,-0.4915 z m 40.0592,-41.1795 c 7.8341,-5.0138 11.5399,-8.6409 14.2085,-13.9073 3.3832,-6.6763 3.1569,-10.5069 -0.9629,-16.3015 -4.5175,-6.354 -8.9105,-9.8395 -17.7253,-14.0639 -6.2802,-3.0097 -8.3438,-3.5078 -14.5327,-3.5078 -3.9672,0 -8.3432,0.4296 -9.7244,0.9548 -3.8725,1.4723 -4.133,4.058 -3.3236,32.9892 0.4159,14.8662 0.6397,16.5216 2.3324,17.2533 1.0298,0.4451 6.9865,0.5966 13.2372,0.3365 10.7531,-0.4474 11.6408,-0.6494 16.4908,-3.7533 z m -17.3241,-85.9042 c 10.4404,-1.4051 19.8831,-6.1968 23.4989,-11.9247 2.3481,-3.7196 2.4579,-3.768 6.0454,-2.6669 3.2014,0.9825 3.8255,0.8868 5.039,-0.7728 1.9058,-2.6064 1.7573,-10.5355 -0.251,-13.4028 -1.3935,-1.9895 -2.2372,-2.2553 -5.6877,-1.7925 -3.7226,0.4993 -4.3813,0.2122 -8.1138,-3.5366 -6.308,-6.3352 -14.5099,-9.7783 -23.2956,-9.7792 l -7.2331,-8e-4 -2.5592,5.0502 c -3.3228,6.5573 -4.0639,14.9321 -2.4823,28.051 0.6896,5.7193 1.4499,10.7363 1.6898,11.1488 0.5968,1.0265 3.5622,0.9435 13.3496,-0.3737 z m 149.9689,125.0517 c -4.3402,-1.82 -6.8124,-4.9724 -8.0635,-10.2821 -0.6669,-2.8303 -2.5462,-7.8109 -4.176,-11.068 -5.9724,-11.935 -7.9136,-23.1201 -10.7137,-61.7316 -1.3919,-19.1948 -3.318,-27.6117 -9.0088,-39.3682 -3.8122,-7.8756 -5.6574,-10.5525 -8.6164,-12.5 -5.4159,-3.5645 -7.2883,-6.6225 -8.5588,-13.9781 -1.1034,-6.3885 -2.8818,-11.0361 -5.3572,-14 -0.689,-0.825 -1.5641,-3.3 -1.9446,-5.5 -0.3805,-2.2 -2.065,-8.6621 -3.7433,-14.3602 -3.7554,-12.75 -3.5909,-19.2183 0.58,-22.8059 l 2.655,-2.2838 5.0104,1.9749 c 5.3134,2.0944 13.3973,2.5635 18.5765,1.0782 2.9316,-0.8408 3.4747,-0.5442 8.6979,4.75 6.7072,6.7982 9.3221,12.3984 14.1468,30.2964 4.2939,15.9294 9.9605,28.8504 12.6526,28.8504 1.1088,0 2.5951,-1.5155 3.7971,-3.8716 1.0863,-2.1293 2.8256,-4.0939 3.8651,-4.3658 2.0392,-0.5332 3.1746,-6.3427 3.1917,-16.3311 0.01,-5.3303 2.4262,-14.9695 4.3409,-17.3113 0.6204,-0.7589 3.2109,-5.4839 5.7565,-10.5 l 4.6283,-9.1202 13.0654,-1.8367 c 15.9937,-2.2484 22.3581,-1.3943 27.9761,3.7542 l 3.5205,3.2263 -1.7611,5.4281 c -3.2527,10.0251 -10.2214,26.2753 -20.7678,48.4281 -12.889,27.0733 -18.8471,41.8428 -22.3888,55.5 -2.5221,9.7254 -2.7365,12.1229 -2.9062,32.5 -0.134,16.0821 -0.773,26.4311 -2.3757,38.4731 -1.2057,9.0602 -2.2794,16.552 -2.3858,16.6485 -0.9632,0.8729 -17.7204,1.1336 -19.6931,0.3064 z m 511.3278,-0.3408 c -8.1016,-1.5478 -24.9306,-6.9115 -30.5783,-9.7459 -2.0625,-1.0351 -3.75,-2.5607 -3.75,-3.3902 0,-3.2037 -6.1278,-13.4049 -12.9118,-21.4947 -9.8489,-11.7448 -12.7871,-22.3574 -8.0368,-29.0286 3.3943,-4.7668 9.1749,-5.8592 27.4713,-5.1914 l 15.7088,0.5733 1.3068,3.1276 c 0.7187,1.7202 1.8248,6.938 2.4579,11.5952 1.3904,10.2287 4.113,15.6237 9.3734,18.5744 3.221,1.8068 4.454,2.0045 7.4109,1.188 4.6303,-1.2785 8.7634,-0.383 13.5535,2.9365 3.7242,2.5809 3.9392,2.6155 5.2361,0.8418 0.9381,-1.2829 1.0579,-2.3998 0.3912,-3.6456 -1.5252,-2.8498 -1.1295,-4.7395 1.1435,-5.4609 1.5872,-0.5038 3.0115,0.2174 5.7921,2.9326 2.0281,1.9804 4.4474,3.6007 5.3762,3.6007 3.8886,0 2.6594,-7.882 -2.0701,-13.2737 -1.1927,-1.3597 -1.2812,-2.0481 -0.3794,-2.95 0.647,-0.647 1.1764,-2.1112 1.1764,-3.2538 0,-1.1427 0.7176,-3.1021 1.5948,-4.3544 1.9817,-2.8293 1.3496,-5.5643 -2.5206,-10.9069 -4.0065,-5.531 -13.6137,-11.0636 -30.0742,-17.3195 -19.7183,-7.4939 -22.3662,-9.4486 -25.9997,-19.1924 -1.1795,-3.1629 -2.8417,-6.4479 -3.6938,-7.3 -2.2583,-2.2583 -4.7552,-1.3765 -5.1229,1.8092 -0.6601,5.7185 -4.2134,2.076 -13.9097,-14.2585 -11.3675,-19.1498 -10.6658,-17.3041 -8.7604,-23.0407 0.9018,-2.715 1.5034,-6.2353 1.3369,-7.8229 -0.1666,-1.5875 0.1957,-3.5052 0.805,-4.2614 0.6093,-0.7563 1.2975,-4.075 1.5294,-7.375 0.6697,-9.5294 4.3275,-16.107 15.0144,-26.9991 l 9.3008,-9.4794 14,-2.5564 c 16.8922,-3.0846 30.8501,-4.0231 39.166,-2.6336 13.1969,2.2051 31.4061,13.4245 35.7628,22.0349 7.1299,14.0912 10.4074,29.5094 7.7229,36.3298 -1.8872,4.7946 -11.7365,4.9828 -27.5223,0.5259 -7.512,-2.1209 -8.0169,-2.4499 -11.0844,-7.2221 -1.7677,-2.75 -3.9515,-5.6078 -4.853,-6.3505 -0.9015,-0.7428 -1.9261,-2.8803 -2.2768,-4.75 -0.4888,-2.6055 -1.1373,-3.4005 -2.7765,-3.4038 -1.1763,0 -4.1637,-1.3504 -6.6387,-2.9957 -5.6853,-3.7794 -7.9092,-3.7562 -14.8783,0.1551 -7.0434,3.9532 -8.9297,5.5729 -10.8783,9.341 -2.3185,4.4835 -1.6528,9.7409 2.203,17.3974 5.7136,11.3458 12.8344,16.1003 40.5536,27.0774 18.223,7.2166 22.6638,9.6642 29.8466,16.4504 6.4341,6.079 7.3029,7.6619 10.5571,19.2363 1.3925,4.9524 3.6373,11.3906 4.9885,14.307 2.0169,4.3533 2.265,5.771 1.3857,7.919 -0.5891,1.439 -1.366,7.0061 -1.7264,12.3713 -0.6366,9.4768 -0.7581,9.8618 -4.2614,13.5 -1.9834,2.0598 -5.0187,6.8951 -6.7452,10.7451 -3.2249,7.1916 -8.4885,13.5852 -13.2361,16.0777 -1.4802,0.777 -5.8941,1.8671 -9.8088,2.4223 -3.9147,0.5552 -8.4978,1.7948 -10.1847,2.7547 -1.6869,0.9599 -4.1644,2.3462 -5.5055,3.0807 -3.5794,1.9602 -23.2374,2.4223 -31.9815,0.7518 z m -8.8283,-101.6569 c 0,-0.7716 -0.7875,-1.5546 -1.75,-1.74 -1.7237,-0.3319 -2.4363,1.79 -1.0625,3.1638 1.0482,1.0482 2.8125,0.1551 2.8125,-1.4238 z m 127.5,102.0232 c -1.925,-0.4991 -5.1554,-1.1572 -7.1786,-1.4624 -6.2674,-0.9455 -7.8973,-3.0724 -8.824,-11.5151 -0.4502,-4.101 -0.5213,-7.9108 -0.158,-8.4662 0.3633,-0.5554 0.6978,-12.9348 0.7434,-27.5098 0.081,-25.7801 0.147,-26.6291 2.4492,-31.25 1.5995,-3.2105 2.9926,-4.75 4.2981,-4.75 1.7056,0 1.8393,-0.4388 1.1429,-3.75 -0.9888,-4.7019 -0.9869,-9.4597 0.01,-20.2793 0.6995,-7.6051 0.5583,-8.9726 -1.3033,-12.6216 -1.6652,-3.264 -1.9042,-4.7763 -1.1807,-7.4708 1.3678,-5.0942 4,-29.4705 4.0014,-37.056 0,-9.7645 -1.8066,-21.1703 -4.5719,-28.8365 -1.3348,-3.7003 -2.4269,-6.9356 -2.4269,-7.1894 0,-0.2539 3.3487,-1.2956 7.4416,-2.3148 6.1531,-1.5322 8.0985,-1.6514 11.2356,-0.6886 3.0793,0.945 4.0574,0.9009 5.1925,-0.2342 1.1879,-1.1879 1.868,-1.193 4.5144,-0.034 1.7138,0.7503 4.7582,1.6262 6.7654,1.9463 2.0073,0.3202 4.2573,1.3138 5,2.2081 1.1001,1.3246 1.4947,18.8901 2.128,94.7236 0.4277,51.2036 0.8777,95.3334 1,98.0661 l 0.2225,4.9686 -7.5,1.765 c -9.4863,2.2324 -18.4982,2.9186 -23,1.7514 z m 330,-1.0261 c -3.575,-1.0558 -9.0706,-1.9214 -12.2125,-1.9235 -7.6305,0 -15.4919,-3.0629 -19.9191,-7.7475 -5.5072,-5.8273 -11.0372,-20.4874 -18.0145,-47.7564 -5.1367,-20.076 -7.7813,-27.5363 -14.0283,-39.5731 -10.1299,-19.5185 -12.1861,-19.5393 -12.5897,-0.1275 -0.8625,41.4837 -2.3371,88.0102 -2.8493,89.905 -1.4164,5.2386 -21.359,7.6974 -32.1248,3.9608 -2.8811,-1 -5.4809,-2.2107 -5.7774,-2.6905 -0.2965,-0.4798 -0.096,-3.7079 0.4451,-7.1735 0.6974,-4.4651 0.6056,-10.2585 -0.3151,-19.8821 -1.1975,-12.5168 -1.0074,-18.4175 0.8526,-26.4751 0.5128,-2.2218 0.2724,-3.4154 -0.8808,-4.3725 -2.0257,-1.6812 -2.057,-5.9536 -0.049,-6.7241 2.0418,-0.7835 4.463,-5.5995 4.463,-8.8772 0,-1.446 -1.0883,-5.4059 -2.4185,-8.7997 -4.1172,-10.5049 -5.1898,-24.5055 -3.5149,-45.8794 1.7112,-21.8365 1.7558,-38.026 0.1177,-42.7063 -1.0106,-2.8872 -0.9433,-3.6937 0.4354,-5.2171 0.8969,-0.9911 1.4046,-2.667 1.1281,-3.7242 -0.9207,-3.5208 0.7159,-4.7393 4.5186,-3.3642 5.0763,1.8357 5.7336,1.5744 5.7336,-2.2793 0,-2.3808 0.4608,-3.5 1.441,-3.5 1.9302,0 2.8817,-1.7229 3.5239,-6.3807 l 0.5351,-3.8806 11,-0.4197 c 6.05,-0.2307 13.1039,-0.507 15.6753,-0.6138 3.6946,-0.1535 5.1984,0.2972 7.1692,2.1487 2.9652,2.7856 8.9842,19.8085 23.7419,67.1461 5.5726,17.875 10.5961,33.4 11.1635,34.5 1.4936,2.8958 6.9555,7.4119 9.0215,7.4593 3.3711,0.077 4.2143,-4.2235 2.9966,-15.2833 -1.0039,-9.1173 -0.8305,-15.676 0.4143,-15.676 0.2471,0 1.287,0.4484 2.311,0.9964 4.6739,2.5014 7.0984,-2.2951 5.6636,-11.2047 -0.8038,-4.9906 -1.3806,-6.1146 -3.7732,-7.3519 -4.0241,-2.0809 -4.8837,-4.3232 -4.8837,-12.7392 0,-5.6331 -0.4388,-8.0079 -1.8137,-9.8158 -1.6351,-2.1501 -1.7581,-3.9429 -1.25,-18.2123 l 0.5637,-15.8275 3.7937,-3.476 c 3.0117,-2.7596 4.2485,-3.3104 6,-2.6726 2.1366,0.7782 6.738,0.8061 21.035,0.1276 5.7615,-0.2734 7.044,-0.03 8.2064,1.5575 4.6,6.282 5.4495,36.1191 3.9964,140.3685 l -0.8538,61.25 -3.3603,0 c -2.6139,0 -3.6133,0.5553 -4.4994,2.5 -1.3373,2.9351 -2.2102,2.9696 -10.818,0.4274 z m -729,-0.4044 c -4.4337,-2.4936 -12.3485,-2.8087 -26.8938,-1.0707 -14.4734,1.7294 -21.6938,1.2942 -27.8952,-1.6813 -2.9681,-1.4242 -3.3059,-2.7182 -5.0984,-19.531 -1.184,-11.1051 -4.4618,-19.4558 -9.469,-24.1236 -2.4353,-2.2702 -2.4846,-2.5232 -1.038,-5.3206 0.8353,-1.6154 2.1158,-6.9338 2.8456,-11.8188 0.8033,-5.3777 2.1773,-10.258 3.4827,-12.3701 l 2.156,-3.4885 -2.045,-1.0944 c -1.9093,-1.0218 -2.0449,-2.016 -2.0449,-14.9959 l 0,-13.9014 3.2418,-0.3134 c 4.109,-0.3972 4.7908,-3.0853 1.6346,-6.4449 -2.0768,-2.2107 -2.1647,-2.6713 -0.8888,-4.6608 4.8605,-7.5792 5.0709,-8.6211 4.7861,-23.7076 -0.2672,-14.1582 -0.2084,-14.6242 2.4945,-19.7665 l 2.7683,-5.2665 -3.4792,-6.7335 c -1.9136,-3.7034 -4.1718,-8.7026 -5.0183,-11.1093 -1.9979,-5.6806 -2.039,-12.9952 -0.077,-13.748 0.8041,-0.3086 1.7344,-1.4194 2.0674,-2.4686 0.7701,-2.4265 3.5392,-2.4235 8.3071,0.01 6.3547,3.2419 10.6071,3.5905 14.4944,1.188 3.889,-2.4035 6.9953,-2.3723 33.6692,0.3383 25.5717,2.5985 37.904,5.9254 46.4742,12.5373 6.6846,5.1571 10.3749,10.5421 14.4045,21.0199 8.0217,20.8576 9.3279,35.4874 6.6473,74.448 -0.9441,13.7215 -1.4229,27.6908 -1.0639,31.0431 0.5735,5.3545 0.4038,6.3202 -1.3961,7.9491 -1.7354,1.5706 -1.9592,2.6349 -1.4627,6.957 0.4474,3.8946 0.062,6.4943 -1.6281,10.9802 -2.2538,5.9824 -6.5571,10.853 -25.1008,28.4096 l -6.6256,6.273 -6.9375,-1.1457 c -6.3935,-1.0559 -7.2658,-0.9782 -11.1244,0.9903 -2.3028,1.1748 -4.1869,2.5769 -4.1869,3.1157 0,1.4015 -3.0775,1.1464 -6,-0.4973 z m -5.3387,-36.0242 c 17.3286,-3.9988 19.5064,-4.6537 25.8387,-7.7703 7.6199,-3.7504 9.1701,-5.1517 12.1081,-10.9453 2.5714,-5.0707 2.9594,-9.9199 1.3029,-16.2832 -0.5727,-2.2 -1.4058,-17.5 -1.8514,-34 -0.5853,-21.673 -1.1917,-30.8932 -2.1849,-33.218 -0.7561,-1.7699 -5.7252,-7.8822 -11.0426,-13.583 -7.6283,-8.1783 -11.183,-11.1612 -16.8502,-14.1392 -6.6718,-3.5059 -7.6714,-3.7466 -14.0638,-3.3854 -3.7848,0.2139 -7.4095,0.917 -8.055,1.5624 -0.8562,0.8563 -1.4032,18.8293 -2.0229,66.4684 -0.7911,60.8163 -0.733,65.3805 0.8464,66.5448 2.321,1.7109 3.5584,1.614 15.9747,-1.2512 z m 166.1107,36.4334 c -2.0312,-1.1837 -10.6886,-1.689 -39.1419,-2.2848 l -20.8699,-0.4371 -4.1301,-2.9028 -4.1301,-2.9028 0.1595,-40.6514 c 0.088,-22.3582 0.4665,-41.1482 0.8418,-41.7555 1.7533,-2.8369 0.5269,-28.1966 -2.3454,-48.4978 -3.8659,-27.3232 -4.4946,-35.0255 -3.6437,-44.6373 l 0.702,-7.9314 3.9271,-2.0034 c 3.6298,-1.8518 5.4586,-4.4297 7.2941,-10.2817 0.4109,-1.31 1.0923,-1.6371 2.323,-1.1153 7.4792,3.1713 8.7564,3.2449 42.7416,2.4649 19.4371,-0.4462 36.2249,-1.2853 39.1945,-1.9591 4.8283,-1.0956 5.4121,-1.0178 8.2811,1.1033 2.0411,1.5091 4.6848,2.3452 7.8054,2.4687 l 4.719,0.1868 0.2745,16.0485 0.2745,16.0484 -3.7745,1.2073 c -2.4599,0.7869 -14.3138,1.3586 -34.0364,1.6418 -29.257,0.4199 -30.2983,0.5024 -31.3589,2.4841 -1.5217,2.8434 -1.5386,28.2077 -0.022,33.5074 0.666,2.3281 2.0662,4.6906 3.1113,5.25 2.4814,1.3279 19.7414,1.2933 28.0318,-0.056 14.4278,-2.3488 29.929,-0.9553 31.5284,2.8341 0.4037,0.9565 0.9567,7.8956 1.2288,15.4201 l 0.4948,13.681 -2.5894,2.3997 c -1.4242,1.3199 -4.3456,2.926 -6.492,3.569 -5.2475,1.5722 -18.4726,1.4243 -30.6706,-0.343 -18.3133,-2.6533 -24.709,-1.4667 -27.8746,5.1716 -2.1023,4.4086 -2.0507,6.2782 0.4458,16.1505 1.9242,7.6092 1.9542,8.3076 0.4224,9.8395 -1.0342,1.0342 -1.4141,2.432 -1.0191,3.7498 0.3463,1.1555 0.8953,3.8239 1.2199,5.9297 0.4498,2.9187 1.21,4.0698 3.1978,4.8424 1.4343,0.5574 13.1828,1.1577 26.1078,1.334 22.8127,0.3112 29.164,0.9347 37.4877,3.6802 3.6922,1.2178 4.0355,1.6487 4.6326,5.8149 0.3547,2.4749 1.1453,6.2997 1.7567,8.4997 1.7283,6.2177 1.4078,12.9267 -0.7443,15.5845 -1.7692,2.1849 -2.5444,2.3096 -14.75,2.3733 -11.6857,0.061 -13.494,0.3216 -19.4612,2.8047 -7.1639,2.9811 -8.5443,3.1879 -11.1495,1.6697 z m 347.0515,-0.9626 c -2.1636,-1.1428 -6.6903,-2.1795 -11,-2.5192 -10.9636,-0.8641 -11.7071,-1.1384 -13.548,-4.999 -1.2035,-2.5237 -3.1489,-4.2209 -6.9951,-6.1027 -2.9303,-1.4336 -6.1608,-3.7861 -7.1789,-5.2277 -2.4619,-3.486 -6.8806,-15.9399 -8.6646,-24.4208 -1.9607,-9.3211 -1.9257,-23.0497 0.063,-24.7002 2.5279,-2.098 1.6989,-4.9499 -3,-10.3215 -2.475,-2.8293 -4.5,-5.529 -4.5,-5.9993 0,-0.4702 1.8557,-0.5415 4.1237,-0.1583 2.9958,0.5061 4.3593,0.325 4.9847,-0.6621 1.7867,-2.8199 0.7687,-10.2872 -2.8584,-20.9678 -3.3695,-9.922 -3.588,-11.1615 -2.1534,-12.2167 1.3091,-0.9629 1.7034,-4.235 2.1898,-18.1743 0.6722,-19.2603 3.5248,-38.4129 6.6975,-44.9668 3.2464,-6.7061 14.208,-17.9908 20.4352,-21.0375 6.282,-3.0735 15.3785,-4.3215 37.6155,-5.1607 13.7351,-0.5184 16.5025,-0.3416 23.8907,1.5267 4.5958,1.1622 10.303,3.2541 12.6826,4.6486 5.388,3.1576 13.7893,11.6049 17.0136,17.1067 3.0188,5.1513 7.0579,20.7659 7.9672,30.7999 l 0.6823,7.5295 -2.8855,1.1138 c -4.2724,1.6492 -10.3751,0.6109 -18.055,-3.0718 -5.1355,-2.4626 -8.2801,-3.3018 -12.6721,-3.3819 l -5.8416,-0.1065 -2.3259,-5.717 c -1.2792,-3.1443 -3.3065,-7.4193 -4.5051,-9.5 -2.745,-4.765 -11.7378,-11.5442 -14.4858,-10.9201 -4.5405,1.0313 -15.1156,5.9317 -16.6638,7.7219 -1.9217,2.222 -6.0814,18.8447 -8.5032,33.9794 -2.6157,16.3469 -2.3497,51.0234 0.5441,70.9358 3.3566,23.0966 4.7344,25.1885 19.3634,29.3983 5.4948,1.5813 5.9014,1.569 9.5,-0.2884 4.9064,-2.5324 10.0205,-7.9497 15.6805,-16.6099 5.2778,-8.0754 5.5782,-10.5947 2.0854,-17.4874 -2.9192,-5.7608 -7.9576,-9.1323 -19.5064,-13.0532 l -7.5,-2.5463 -0.7694,-11.5904 c -1.1784,-17.7508 -0.084,-19.0822 14.9291,-18.1638 5.8241,0.3563 12.1632,-0.01 18.5795,-1.0591 17.3245,-2.8459 26.01,-1.4968 31.6389,4.9141 3.9671,4.5182 4.6436,12.3544 3.6247,41.9861 -0.4349,12.65 -1.0635,32.45 -1.3968,44 l -0.606,21 -4.2205,1.459 c -3.9224,1.3559 -4.77,1.2928 -12,-0.8932 -4.2787,-1.2937 -9.4019,-2.8133 -11.3848,-3.3769 -2.9912,-0.8503 -6.4537,-0.3968 -20.3286,2.6625 -9.1978,2.0281 -18.3179,4.3537 -20.2668,5.168 -4.5401,1.897 -5.9875,1.821 -10.4758,-0.5498 z"
           style="fill:#010101" />
      </g>
    </g>
    <text
       transform="matrix(1.8110533,0,0,1.8110533,-188.76785,-2595.9704)"
       sodipodi:linespacing="125%"
       id="text6764"
       y="1728.4254"
       x="125.92982"
       style="font-size:19.87209892px;font-style:normal;font-weight:normal;line-height:125%;letter-spacing:0px;word-spacing:0px;fill:#22002b;fill-opacity:1;stroke:none;filter:url(#filter4576);font-family:Sans"
       xml:space="preserve"><tspan
         style="font-size:19.87209892px;font-style:normal;font-variant:normal;font-weight:normal;font-stretch:normal;text-align:start;line-height:125%;writing-mode:lr-tb;text-anchor:start;fill:#22002b;fill-opacity:1;font-family:LuzSans-Heavy;-inkscape-font-specification:LuzSans-Heavy"
         y="1728.4254"
         x="125.92982"
         id="tspan6766"
         sodipodi:role="line">PLEDGE TO TAKE ACTION</tspan></text>
    <g
       transform="matrix(0.14825023,0,0,0.14825023,405.85435,362.38135)"
       id="g6768">
      <path
         inkscape:connector-curvature="0"
         style="fill:#000000;fill-opacity:1;stroke:none;display:inline"
         d="m 215.99965,1389.1479 0,-23.5 -7.5,0 -7.5,0 0,-6.3464 c 0,-3.4905 -0.2924,-10.4655 -0.6497,-15.5 l -0.6498,-9.1536 -7.3502,0 -7.3503,0 0,-15.5 0,-15.5 -8,0 -8,0 0,-15.5 0,-15.5 -7.5,0 -7.5,0 0,-8 0,-8 -8,0 -8,0 0,-23 0,-23 23.5,0 23.5,0 0,7.5 0,7.5 8,0 8,0 0,-70 0,-70 7.5,0 7.5,0 0,-7.5 0,-7.5 15.5,0 15.5,0 0,7.5 0,7.5 8,0 8,0 0,31 0,31 15.5,0 15.5,0 0,8 0,8 23,0 23,0 0,2.8604 c 0,1.5732 0.28,4.9034 0.6223,7.4004 l 0.6223,4.5401 15.3777,0.7207 15.3777,0.7207 0,7.3788 0,7.3789 7.5,0 7.5,0 0,7.5 0,7.5 -7.5,0 -7.5,0 0,-7.5 0,-7.5 -8,0 -8,0 0,23.5 0,23.5 -7.5,0 -7.5,0 0,-31.5 0,-31.5 -16,0 -16,0 0,23.5 0,23.5 -7.5,0 -7.5,0 0,-31 0,-31 -15.5,0 -15.5,0 0,31 0,31 -8,0 -8,0 0,-70 0,-70 -15.5,0 -15.5,0 0,85.5 0,85.5 -7.5,0 -7.5,0 0,-7.5 0,-7.5 -8,0 -8,0 0,-8 0,-8 -15.5,0 -15.5,0 0,15.5 0,15.5 7.5,0 7.5,0 0,8 0,8 8,0 8,0 0,15.5 0,15.5 8,0 8,0 0,15.5 0,15.5 7.5,0 7.5,0 0,15.5 0,15.5 8,0 8,0 0,15.5 0,15.5 62,0 62,0 0,-15.5 0,-15.5 8,0 8,0 -0.002,-23.25 -0.002,-23.25 7.4937,0.3287 7.4937,0.3287 0.2587,-54.3287 0.2586,-54.3287 7.75,-0.2921 7.75,-0.2921 0,53.913 0,53.9129 -8,0.6979 -8,0.6978 0,22.9313 0,22.9313 -7.5,0 -7.5,0 0,23.5 0,23.5 -78,0 -78,0 0,-23.5 z"
         id="path6770"
         sodipodi:nodetypes="ccccsccccccccccccccccccccccccccccccccccccccccccccscccccccccccccccccccccccccccccccccccccccccccccccccccccccccccccccccccccccccccccccccccccccccccccccccccccc" />
      <path
         style="fill:#ffffff;fill-opacity:1;stroke:none"
         d="m 232.92857,408.2857 0,-15 -7.85714,0 -7.85714,0 0,-15.71429 0,-15.71428 -7.85715,0 -7.85714,0 0,-15.71429 0,-15.71428 -7.85714,0 -7.85715,0 0,-15.71429 0,-15.71428 -7.85714,0 -7.85714,0 0,-7.85715 0,-7.85714 -7.85714,0 -7.85715,0 0,-15 0,-15 15,0 15,0 0,8.57143 0,8.57143 7.85715,0 7.85714,0 0,7.14285 0,7.14286 8.57143,0 8.57143,0 0,-85.71428 0,-85.71429 14.28571,0 14.28571,0 0,70 0,70 9.28572,0 9.28571,0 0,-30.71429 0,-30.71428 14.28572,0 14.28571,0 0,30.71428 0,30.71429 8.57143,0 8.57143,0 0,-22.85714 0,-22.85715 15,0 15,0 0,31.42858 0,31.42857 8.57143,0 8.57143,0 0,-23.57143 0,-23.57143 7.14285,0 7.14286,0 0,7.14286 0,7.14285 7.85714,0 7.85715,0 0,24.05538 c 0,13.23045 -0.42366,37.65902 -0.94146,54.28571 l -0.94147,30.23034 -6.91567,0 -6.91569,0 0,23.57143 0,23.57143 -7.85714,0 -7.85715,0 0,15 0,15 -61.42857,0 -61.42857,0 0,-15 z"
         id="path6772"
         inkscape:connector-curvature="0"
         transform="translate(0,972.36218)" />
    </g>
  </g>
</svg>
