<?xml version="1.0" encoding="UTF-8" standalone="no"?>
<!-- Created with Inkscape (http://www.inkscape.org/) -->

<svg
   xmlns:dc="http://purl.org/dc/elements/1.1/"
   xmlns:cc="http://creativecommons.org/ns#"
   xmlns:rdf="http://www.w3.org/1999/02/22-rdf-syntax-ns#"
   xmlns:svg="http://www.w3.org/2000/svg"
   xmlns="http://www.w3.org/2000/svg"
   xmlns:sodipodi="http://sodipodi.sourceforge.net/DTD/sodipodi-0.dtd"
   xmlns:inkscape="http://www.inkscape.org/namespaces/inkscape"
   width="1052.3622"
   height="744.09448"
   id="svg2"
   version="1.1"
   inkscape:version="0.48.3.1 r9886"
   sodipodi:docname="gnu1.svg"
   inkscape:export-filename="/media/Nandakumar ext4/My Works/Art/GNU/gnu_gives_freedom.png"
   inkscape:export-xdpi="90"
   inkscape:export-ydpi="90">
  <defs
     id="defs4" />
  <sodipodi:namedview
     id="base"
     pagecolor="#ffffff"
     bordercolor="#666666"
     borderopacity="1.0"
     inkscape:pageopacity="1"
     inkscape:pageshadow="2"
     inkscape:zoom="1.88"
     inkscape:cx="664.89947"
     inkscape:cy="429.59891"
     inkscape:document-units="px"
     inkscape:current-layer="layer1"
     showgrid="false"
     inkscape:window-width="975"
     inkscape:window-height="744"
     inkscape:window-x="49"
     inkscape:window-y="24"
     inkscape:window-maximized="1"
     showguides="true"
     inkscape:guide-bbox="true">
    <sodipodi:guide
       orientation="1,0"
       position="1000,194"
       id="guide4569" />
  </sodipodi:namedview>
  <metadata
     id="metadata7">
    <rdf:RDF>
      <cc:Work
         rdf:about="">
        <dc:format>image/svg+xml</dc:format>
        <dc:type
           rdf:resource="http://purl.org/dc/dcmitype/StillImage" />
        <dc:title></dc:title>
      </cc:Work>
    </rdf:RDF>
  </metadata>
  <g
     inkscape:label="Layer 1"
     inkscape:groupmode="layer"
     id="layer1"
     transform="translate(0,-308.2677)"
     style="display:inline">
    <rect
       style="fill:#ffffff;fill-opacity:1;stroke:none"
       id="rect4571"
       width="1136"
       height="842"
       x="0"
       y="210.36218" />
    <path
       style="fill:none;stroke:#000000;stroke-width:0.95240873;stroke-linecap:butt;stroke-linejoin:miter;stroke-miterlimit:4;stroke-opacity:1;stroke-dasharray:none"
       d="m 585.70077,517.47385 c 10.42278,-1.68894 24.59227,-0.0174 30.95329,9.52408 7.93143,11.89714 8.02031,31.20401 12.38131,44.28701 1.10546,3.31638 10.16263,8.09547 6.66686,8.09547 -40.89752,0 -26.99525,-59.50905 -52.85868,-62.38277"
       id="path3828"
       inkscape:connector-curvature="0" />
    <path
       style="fill:#ffffff;fill-opacity:1;stroke:#000000;stroke-width:1.14775777;stroke-linecap:butt;stroke-linejoin:miter;stroke-miterlimit:4;stroke-opacity:1;stroke-dasharray:none"
       d="m 571.47041,517.00693 c 14.45373,-45.18833 63.77669,31.56917 75.77144,21.21922 20.57645,-17.75488 1.71,-71.21684 -20.89144,-78.33485 45.13483,-4.94947 61.75714,158.55417 -23.13274,67.79035 -8.19134,-8.75813 -18.56224,-11.10114 -31.74726,-10.67472 z"
       id="path3030"
       inkscape:connector-curvature="0"
       sodipodi:nodetypes="cscsc" />
    <path
       inkscape:connector-curvature="0"
       id="path3926"
       d="m 556.81622,508.92909 c -8.61524,-5.24043 -21.75338,-8.85408 -30.81101,-2.69777 -11.29378,7.67617 -18.31146,24.72727 -26.87228,34.73595 -2.17006,2.53708 -11.90163,3.51049 -8.80852,4.76689 36.18681,14.69887 45.27384,-42.95232 69.19107,-36.19952"
       style="fill:none;stroke:#000000;stroke-width:0.90957493;stroke-linecap:butt;stroke-linejoin:miter;stroke-miterlimit:4;stroke-opacity:1;stroke-dasharray:none" />
    <path
       sodipodi:nodetypes="cscsc"
       inkscape:connector-curvature="0"
       id="path3034"
       d="m 560.96166,516.47699 c -0.53966,-47.44055 -70.23701,11.43855 -78.66161,-1.97865 -14.45204,-23.01662 19.28875,-68.57628 42.98398,-68.73992 -41.68879,-17.99151 -105.61437,133.41275 2.19526,71.59494 10.40294,-5.96503 21.00453,-5.1577 33.48237,-0.87637 z"
       style="fill:#ffffff;fill-opacity:1;stroke:#000000;stroke-width:1.14775777;stroke-linecap:butt;stroke-linejoin:miter;stroke-miterlimit:4;stroke-opacity:1;stroke-dasharray:none" />
    <path
       style="fill:none;stroke:#000000;stroke-width:0.95240873;stroke-linecap:butt;stroke-linejoin:miter;stroke-miterlimit:4;stroke-opacity:1;stroke-dasharray:none"
       d="m 560.19637,577.08181 c -4.90237,-13.65364 -16.65982,-5.72178 -23.81022,1.42862"
       id="path3808"
       inkscape:connector-curvature="0" />
    <path
       style="fill:none;stroke:#000000;stroke-width:0.95240873;stroke-linecap:butt;stroke-linejoin:miter;stroke-miterlimit:4;stroke-opacity:1;stroke-dasharray:none"
       d="m 556.86294,579.93904 c -0.99137,-4.50747 -4.31586,-3.80257 -12.38131,-1.90482"
       id="path3810"
       inkscape:connector-curvature="0" />
    <path
       style="fill:none;stroke:#000000;stroke-width:0.95240873;stroke-linecap:butt;stroke-linejoin:miter;stroke-miterlimit:4;stroke-opacity:1;stroke-dasharray:none"
       d="m 513.93129,576.89865 c 2.61347,21.54794 3.63525,22.97727 19.09263,22.7165 15.72018,-0.26521 28.08601,-5.43462 32.85027,-16.32437"
       id="path3812"
       inkscape:connector-curvature="0"
       sodipodi:nodetypes="csc" />
    <path
       style="fill:none;stroke:#000000;stroke-width:0.95240873;stroke-linecap:butt;stroke-linejoin:miter;stroke-miterlimit:4;stroke-opacity:1;stroke-dasharray:none"
       d="m 521.44711,602.55637 c 14.03521,18.72273 14.48988,4.03089 30.91838,8.80987 4.77727,1.38968 28.07588,-17.17199 33.58899,-30.82516"
       id="path3814"
       inkscape:connector-curvature="0"
       sodipodi:nodetypes="csc" />
    <path
       style="fill:none;stroke:#000000;stroke-width:0.95240873;stroke-linecap:butt;stroke-linejoin:miter;stroke-miterlimit:4;stroke-opacity:1;stroke-dasharray:none"
       d="m 568.29198,601.88501 c 6.89948,-2.32862 4.95649,2.18508 8.20895,3.8113 1.80039,0.9002 8.97733,3.40698 10.55436,4.98401 4.25334,4.25334 4.45028,7.9263 11.72707,9.38166"
       id="path3818"
       inkscape:connector-curvature="0" />
    <path
       transform="matrix(0.071036,-0.04573934,0.04573934,0.071036,550.38702,489.5051)"
       d="m -8,599.09448 c 0,13.80712 -9.40202,25 -21,25 -11.59798,0 -21,-11.19288 -21,-25 0,-13.80712 9.40202,-25 21,-25 11.59798,0 21,11.19288 21,25 z"
       sodipodi:ry="25"
       sodipodi:rx="21"
       sodipodi:cy="599.09448"
       sodipodi:cx="-29"
       id="path3896"
       style="stroke-width:2;stroke-miterlimit:4;stroke-dasharray:none"
       sodipodi:type="arc" />
    <path
       style="fill:#ffffff;fill-opacity:1;stroke:#000000;stroke-width:0.71430659;stroke-linecap:butt;stroke-linejoin:miter;stroke-miterlimit:4;stroke-opacity:1;stroke-dasharray:none"
       d="m 582.98358,530.51361 c -3.90394,-2.34236 -7.18725,-6.45617 -12.67319,-6.42108 -0.1075,2.53026 0.68073,4.62509 1.18284,6.75903 4.21378,2.22329 8.63599,1.74297 11.65932,0.67591"
       id="path3878"
       inkscape:connector-curvature="0" />
    <path
       style="fill:none;stroke:#000000;stroke-width:0.71430659;stroke-linecap:butt;stroke-linejoin:miter;stroke-miterlimit:4;stroke-opacity:1;stroke-dasharray:none"
       d="m 572.16913,531.35849 c 0.83521,1.97654 2.44443,4.21608 3.37951,5.5762"
       id="path3880"
       inkscape:connector-curvature="0" />
    <path
       style="fill:none;stroke:#000000;stroke-width:0.71430659;stroke-linecap:butt;stroke-linejoin:miter;stroke-miterlimit:4;stroke-opacity:1;stroke-dasharray:none"
       d="m 573.85888,537.10367 c 4.16901,1.46128 6.84387,0.62681 8.44879,-3.04157"
       id="path3882"
       inkscape:connector-curvature="0" />
    <path
       style="fill:none;stroke:#000000;stroke-width:0.71430659;stroke-linecap:butt;stroke-linejoin:miter;stroke-miterlimit:4;stroke-opacity:1;stroke-dasharray:none"
       d="m 574.29287,537.30465 c 1.07392,1.69369 3.97255,3.93908 4.97324,4.86829"
       id="path3884"
       inkscape:connector-curvature="0"
       sodipodi:nodetypes="cc" />
    <path
       sodipodi:type="arc"
       style="stroke-width:2;stroke-miterlimit:4;stroke-dasharray:none"
       id="path3904"
       sodipodi:cx="-29"
       sodipodi:cy="599.09448"
       sodipodi:rx="21"
       sodipodi:ry="25"
       d="m -8,599.09448 c 0,13.80712 -9.40202,25 -21,25 -11.59798,0 -21,-11.19288 -21,-25 0,-13.80712 9.40202,-25 21,-25 11.59798,0 21,11.19288 21,25 z"
       transform="matrix(0.071036,-0.04573934,0.04573934,0.071036,524.5845,485.4672)" />
    <path
       style="fill:#ffffff;fill-opacity:1;stroke:#000000;stroke-width:0.71430659;stroke-linecap:butt;stroke-linejoin:miter;stroke-miterlimit:4;stroke-opacity:1;stroke-dasharray:none"
       d="m 549.1688,521.40454 c -4.70025,8.14855 -4.44643,3.59699 2.71392,7.8932"
       id="path3898"
       inkscape:connector-curvature="0"
       sodipodi:nodetypes="cc" />
    <path
       style="fill:none;stroke:#000000;stroke-width:0.71430659;stroke-linecap:butt;stroke-linejoin:miter;stroke-miterlimit:4;stroke-opacity:1;stroke-dasharray:none"
       d="m 547.33111,527.36934 c 0.10854,2.56241 1.49902,4.2491 3.01324,5.88951"
       id="path3902"
       inkscape:connector-curvature="0" />
    <path
       style="fill:none;stroke:#000000;stroke-width:0.95240873;stroke-linecap:butt;stroke-linejoin:miter;stroke-miterlimit:4;stroke-opacity:1;stroke-dasharray:none"
       d="m 544.81131,514.4701 c 34.35908,40.9421 -71.88781,37.53865 -20.45847,68.37195"
       id="path3806"
       inkscape:connector-curvature="0"
       sodipodi:nodetypes="cc" />
    <path
       style="fill:none;stroke:#000000;stroke-width:1.19051087;stroke-linecap:butt;stroke-linejoin:miter;stroke-miterlimit:4;stroke-opacity:1;stroke-dasharray:none"
       d="m 570.12039,519.9611 c 6.40104,0.73702 12.70121,3.77271 16.16191,8.49185"
       id="path3910"
       inkscape:connector-curvature="0" />
    <path
       style="fill:none;stroke:#000000;stroke-width:0.47620437;stroke-linecap:butt;stroke-linejoin:miter;stroke-miterlimit:4;stroke-opacity:1;stroke-dasharray:none"
       d="m 563.76696,532.71099 c -0.80822,7.90808 -11.40204,17.12437 -14.12348,23.92798"
       id="path3914"
       inkscape:connector-curvature="0"
       sodipodi:nodetypes="cc" />
    <path
       style="fill:none;stroke:#000000;stroke-width:0.95240873;stroke-linecap:butt;stroke-linejoin:miter;stroke-miterlimit:4;stroke-opacity:1;stroke-dasharray:none"
       d="m 521.88295,603.41449 c 22.57151,6.41383 39.88216,2.84373 43.65207,-18.51906"
       id="path3922"
       inkscape:connector-curvature="0" />
    <path
       style="fill:none;stroke:#000000;stroke-width:0.95240873;stroke-linecap:butt;stroke-linejoin:miter;stroke-miterlimit:4;stroke-opacity:1;stroke-dasharray:none"
       d="m 554.9527,500.23687 c 13.66883,-4.85023 31.30602,2.64558 31.30602,2.64558"
       id="path3924"
       inkscape:connector-curvature="0"
       sodipodi:nodetypes="cc" />
    <path
       style="fill:none;stroke:#000000;stroke-width:0.87837207;stroke-linecap:butt;stroke-linejoin:miter;stroke-miterlimit:4;stroke-opacity:1;stroke-dasharray:none"
       d="m 695.5396,645.6581 c -1.13143,3.59832 1.19269,8.35042 0,11.92851 -13.45076,40.35229 16.26615,69.38164 16.26615,107.35659 -18.50549,-0.0303 -77.07589,24.90004 -96.51249,15.18174 -11.54366,-5.77183 -25.32017,-10.24741 -36.86994,-14.09733 -6.83517,-40.91305 -4.33734,-85.6675 -17.35056,-124.70715"
       id="path4061"
       inkscape:connector-curvature="0" />
    <path
       style="fill:none;stroke:#000000;stroke-width:0.87837207;stroke-linecap:butt;stroke-linejoin:miter;stroke-miterlimit:4;stroke-opacity:1;stroke-dasharray:none"
       d="m 672.76699,632.64518 c 5.5402,-2.12065 38.34672,25.12372 34.70113,26.02584 -3.01127,0.74516 7.1248,-17.50286 9.75968,-22.77261 3.26805,-6.5361 13.01292,-15.6898 13.01292,-19.51938 0,-3.14582 -15.98594,-10.56389 -17.35056,-11.92851 -6.15638,-6.15639 -17.16344,-22.67905 -26.02584,-27.11025 -8.38003,-4.19002 -57.37461,-7.52684 -57.82584,-7.52684"
       id="path4079"
       inkscape:connector-curvature="0"
       sodipodi:nodetypes="csssssc" />
    <path
       style="fill:none;stroke:#000000;stroke-width:0.87837207;stroke-linecap:butt;stroke-linejoin:miter;stroke-miterlimit:4;stroke-opacity:1;stroke-dasharray:none"
       d="m 548.05984,610.95698 c 1.39286,6.61008 -0.63758,11.03486 -3.25323,16.26615 -2.6464,5.2928 -23.56535,33.04325 -16.26615,30.36348 8.67779,-3.18591 30.32448,25.07975 29.27907,27.11025 -2.98003,5.78813 5.39956,-13.50062 9.82373,-17.92478"
       id="path4083"
       inkscape:connector-curvature="0"
       sodipodi:nodetypes="csssc" />
    <path
       style="fill:none;stroke:#000000;stroke-width:0.87837207;stroke-linecap:butt;stroke-linejoin:miter;stroke-miterlimit:4;stroke-opacity:1;stroke-dasharray:none"
       d="m 581.48239,608.07761 c 12.20334,18.04324 12.23573,27.55609 35.20305,12.24454 22.69806,-15.13204 25.14588,-27.47987 32.14191,-48.46796"
       id="path4089"
       inkscape:connector-curvature="0" />
    <path
       inkscape:connector-curvature="0"
       id="path4093"
       d="m 578.51891,607.32448 c 12.20334,18.04324 15.39889,32.22553 41.68002,12.99767 22.01641,-16.10771 25.14587,-27.47987 32.14191,-48.46796"
       style="fill:none;stroke:#000000;stroke-width:0.87837207;stroke-linecap:butt;stroke-linejoin:miter;stroke-miterlimit:4;stroke-opacity:1;stroke-dasharray:none"
       sodipodi:nodetypes="csc" />
    <path
       style="fill:none;stroke:#000000;stroke-width:1px;stroke-linecap:butt;stroke-linejoin:miter;stroke-opacity:1"
       d="m 723.56259,628.24178 c 19.91816,19.14949 46.08771,42.21905 73.89524,42.21905 21.83466,10.60174 45.97627,7.7619 68.88572,7.7619 7.95487,-8.82928 8.43143,-4.58382 15.00002,-11.15238 -1.0328,11.00816 2.219,14.42509 2.219,25.02857 -9.21768,-1.71861 -7.65887,-3.85714 -16.16188,-3.85714 -28.37898,-0.38829 -57.20469,0.16287 -84.49524,-5.29524 -24.00608,-14.24914 -50.93269,-16.13269 -70.70476,-35.90476"
       id="path4095"
       inkscape:connector-curvature="0"
       sodipodi:nodetypes="cccccccc" />
    <path
       style="fill:none;stroke:#000000;stroke-width:1px;stroke-linecap:butt;stroke-linejoin:miter;stroke-opacity:1"
       d="m 534.0596,658.96347 c -16.11915,14.84375 -31.72295,22.50848 -49.38272,28.39506 -17.97751,-20.83853 -30.33309,-40.07685 -45.67901,-59.25925 0,-6.17284 0,-12.34568 0,-18.51852 -6.83797,4.49818 -13.74384,6.13812 -19.75309,8.64197 1.61536,7.37492 6.49697,13.55721 9.87654,19.75309 22.74273,10.96241 29.6624,37.71438 40.74075,58.02469 4.74175,6.68139 12.9646,9.8831 14.81481,17.28395 26.48052,-7.88686 45.07053,-24.26028 69.17108,-34.30217"
       id="path4101"
       inkscape:connector-curvature="0"
       sodipodi:nodetypes="ccccccccc" />
    <path
       style="fill:none;stroke:#000000;stroke-width:1px;stroke-linecap:butt;stroke-linejoin:miter;stroke-opacity:1"
       d="m 679.54769,702.59594 c -1.92614,17.54306 2.93415,28.50944 9.70335,42.04785"
       id="path4123"
       inkscape:connector-curvature="0" />
    <path
       style="fill:none;stroke:#000000;stroke-width:1.14709246px;stroke-linecap:butt;stroke-linejoin:miter;stroke-opacity:1"
       d="m 584.73411,767.95439 c -2.72272,32.45659 -7.8379,66.59861 -14.84085,94.61043 9.03695,32.73888 5.56532,69.12213 5.56532,103.88596"
       id="path4147"
       inkscape:connector-curvature="0" />
    <path
       style="fill:none;stroke:#000000;stroke-width:1.14709246px;stroke-linecap:butt;stroke-linejoin:miter;stroke-opacity:1"
       d="m 636.02878,827.42324 c -8.56314,12.85099 -15.93951,28.01771 -20.46085,41.58172 5.26859,31.92178 0.66003,65.42801 0.66003,97.68406"
       id="path4149"
       inkscape:connector-curvature="0" />
    <path
       style="fill:none;stroke:#000000;stroke-width:1.14709246px;stroke-linecap:butt;stroke-linejoin:miter;stroke-opacity:1"
       d="m 575.30626,965.36895 c 9.54577,5.44531 35.70465,13.01102 40.26167,-0.66002"
       id="path4151"
       inkscape:connector-curvature="0" />
    <path
       style="fill:none;stroke:#000000;stroke-width:1.39910316px;stroke-linecap:butt;stroke-linejoin:miter;stroke-opacity:1"
       d="m 610.82173,972.45025 c 0,10.73376 0,21.46751 0,32.20125 0,1.1664 -13.82209,-1.6783 -16.90567,-3.2201 -4.90968,-2.45484 0.52979,-11.27046 -7.24529,-11.27046 -19.46399,0 -28.66167,20.76896 -49.912,13.68556 -3.17067,-1.0569 -19.84812,-11.54813 -12.88051,-18.51575 11.55282,-11.55281 56.15132,3.99812 56.15132,-19.86707"
       id="path4157"
       inkscape:connector-curvature="0"
       sodipodi:nodetypes="csssssc" />
    <path
       style="fill:none;stroke:#000000;stroke-width:1.14709246px;stroke-linecap:butt;stroke-linejoin:miter;stroke-opacity:1"
       d="m 626.7884,784.52146 c 2.8418,6.98012 3.79801,32.17919 7.92033,36.30151 1.69653,1.69653 9.66491,-0.66004 11.22046,-0.66004"
       id="path4163"
       inkscape:connector-curvature="0" />
    <path
       style="fill:none;stroke:#000000;stroke-width:1.14709246px;stroke-linecap:butt;stroke-linejoin:miter;stroke-opacity:1"
       d="m 635.36876,826.10319 c 11.59712,1.15912 57.92243,12.46124 65.56177,23.92025"
       id="path4165"
       inkscape:connector-curvature="0"
       sodipodi:nodetypes="cc" />
    <path
       style="fill:none;stroke:#000000;stroke-width:1.14709246px;stroke-linecap:butt;stroke-linejoin:miter;stroke-opacity:1"
       d="m 703.35157,765.38067 c 14.22112,34.66927 41.76608,25.38936 52.42383,57.36259 -1.52346,26.40664 -30.13052,66.75858 -38.43807,91.68121"
       id="path4169"
       inkscape:connector-curvature="0"
       sodipodi:nodetypes="ccc" />
    <path
       style="fill:none;stroke:#000000;stroke-width:1.14709246px;stroke-linecap:butt;stroke-linejoin:miter;stroke-opacity:1"
       d="m 695.52512,846.03199 c 0.70106,25.71927 -12.85841,41.18688 -20.58602,64.36971 11.00725,3.13879 33.92263,0.51666 44.44091,4.02275"
       id="path4173"
       inkscape:connector-curvature="0"
       sodipodi:nodetypes="ccc" />
    <path
       style="fill:none;stroke:#000000;stroke-width:1.39771891;stroke-linecap:butt;stroke-linejoin:miter;stroke-miterlimit:4;stroke-opacity:1;stroke-dasharray:none"
       d="m 681.45836,911.01477 c 4.48295,2.27113 -14.0809,39.7002 -14.52873,40.70558 -0.37656,0.84539 4.3808,0.90212 5.45305,1.12292 3.98902,0.82143 13.76942,2.21529 17.70666,2.1733 2.76547,-2.97859 2.35599,-6.33115 4.43711,-9.10233"
       id="path4185"
       inkscape:connector-curvature="0"
       sodipodi:nodetypes="csscc" />
    <path
       style="fill:none;stroke:#000000;stroke-width:1.39771891;stroke-linecap:butt;stroke-linejoin:miter;stroke-miterlimit:4;stroke-opacity:1;stroke-dasharray:none"
       d="m 687.15915,935.36307 c 14.16721,17.80842 8.43283,22.35067 38.32249,22.03184 3.02719,-0.0323 9.22084,0.56192 10.8725,-0.90337 3.36015,-2.98099 1.67985,-15.34611 -1.55328,-18.09342 -3.23698,-2.75058 -7.78217,-2.699 -11.84221,-4.99171"
       id="path4189"
       inkscape:connector-curvature="0" />
    <path
       style="fill:none;stroke:#000000;stroke-width:1.39771891;stroke-linecap:butt;stroke-linejoin:miter;stroke-miterlimit:4;stroke-opacity:1;stroke-dasharray:none"
       d="m 725.71246,936.5266 c -8.36733,-8.12213 -16.94171,-9.55532 -17.06829,-21.42163"
       id="path4193"
       inkscape:connector-curvature="0"
       sodipodi:nodetypes="cc" />
    <text
       xml:space="preserve"
       style="font-size:17.14263344px;font-style:normal;font-weight:normal;text-align:center;line-height:125%;letter-spacing:0px;word-spacing:0px;text-anchor:middle;fill:#000000;fill-opacity:1;stroke:none;font-family:Sans"
       x="797.91815"
       y="891.75134"
       id="text4197"
       sodipodi:linespacing="125%"
       transform="matrix(0.99416708,0.10785094,-0.10785094,0.99416708,0,0)"><tspan
         sodipodi:role="line"
         id="tspan4199"
         x="797.91815"
         y="891.75134" /><tspan
         sodipodi:role="line"
         x="797.91815"
         y="913.17963"
         id="tspan4201">Soft</tspan></text>
    <path
       style="fill:none;stroke:#000000;stroke-width:1px;stroke-linecap:butt;stroke-linejoin:miter;stroke-opacity:1"
       d="m 709.52836,457.95682 c 16.73749,35.81319 76.38239,-39.74061 102.35819,-26.75271 9.34271,4.67135 20.31189,18.1939 27.91587,23.26322 -5.72288,-1.28218 -4.49025,-4.21079 -9.30528,-5.8158 -7.05703,-2.35235 -9.92152,-8.83787 -23.26323,-11.63161 -19.25442,-4.03186 -72.26309,50.69331 -97.70555,33.73167"
       id="path4493"
       inkscape:connector-curvature="0"
       sodipodi:nodetypes="cscssc"
       transform="translate(0,308.2677)" />
    <g
       id="g4525"
       transform="matrix(0.91656895,-0.39987668,0.39987668,0.91656895,-227.20199,363.8692)">
      <path
         inkscape:connector-curvature="0"
         id="path4505"
         d="m 813.6042,790.48171 c -17.37963,13.31464 9.63736,32.64609 20.70093,40.02181"
         style="fill:none;stroke:#000000;stroke-width:0.80864388;stroke-linecap:butt;stroke-linejoin:miter;stroke-miterlimit:4;stroke-opacity:1;stroke-dasharray:none" />
      <path
         inkscape:connector-curvature="0"
         id="path4507"
         d="m 834.30513,829.71491 c 3.04872,-18.2712 8.13857,-41.78448 -14.39207,-41.00757"
         style="fill:none;stroke:#000000;stroke-width:0.80864388;stroke-linecap:butt;stroke-linejoin:miter;stroke-miterlimit:4;stroke-opacity:1;stroke-dasharray:none" />
      <path
         inkscape:connector-curvature="0"
         id="path4511"
         d="m 835.48805,797.77632 c -9.87158,0.68304 -18.90886,2.39674 -25.62973,8.47753"
         style="fill:none;stroke:#000000;stroke-width:0.80864388;stroke-linecap:butt;stroke-linejoin:miter;stroke-miterlimit:4;stroke-opacity:1;stroke-dasharray:none" />
      <path
         inkscape:connector-curvature="0"
         id="path4513"
         d="m 822.87033,799.94499 c -0.51879,-4.64181 -3.65421,-7.20293 -6.1117,-9.66044"
         style="fill:none;stroke:#000000;stroke-width:0.80864388;stroke-linecap:butt;stroke-linejoin:miter;stroke-miterlimit:4;stroke-opacity:1;stroke-dasharray:none" />
    </g>
    <text
       xml:space="preserve"
       style="font-size:97.09698486px;font-style:normal;font-weight:normal;line-height:125%;letter-spacing:0px;word-spacing:0px;fill:#000000;fill-opacity:1;stroke:none;font-family:Sans"
       x="34.668953"
       y="419.51944"
       id="text4531"
       sodipodi:linespacing="125%"><tspan
         sodipodi:role="line"
         id="tspan4533"
         x="34.668953"
         y="419.51944">GNU Gives Freedom</tspan></text>
    <g
       id="g4563"
       transform="matrix(0.81288124,0,0,0.81288124,205.15874,169.06176)">
      <text
         sodipodi:linespacing="125%"
         id="text4535"
         y="1011.1977"
         x="793.20551"
         style="font-size:25.79870033px;font-style:normal;font-weight:normal;line-height:125%;letter-spacing:0px;word-spacing:0px;fill:#000000;fill-opacity:1;stroke:none;font-family:Sans"
         xml:space="preserve"><tspan
           id="tspan4539"
           y="1011.1977"
           x="793.20551"
           sodipodi:role="line">NANDAKUMAR</tspan></text>
      <text
         sodipodi:linespacing="125%"
         id="text4543"
         y="1027.0083"
         x="793.91602"
         style="font-size:13.41985607px;font-style:normal;font-weight:normal;line-height:125%;letter-spacing:0px;word-spacing:0px;fill:#000000;fill-opacity:1;stroke:none;font-family:Sans"
         xml:space="preserve"><tspan
           y="1027.0083"
           x="793.91602"
           id="tspan4545"
           sodipodi:role="line">nandakumar96@gmail.com</tspan></text>
    </g>
    <text
       xml:space="preserve"
       style="font-size:17.74601746px;font-style:normal;font-weight:normal;line-height:125%;letter-spacing:0px;word-spacing:0px;fill:#000000;fill-opacity:1;stroke:none;font-family:Bitstream Vera Sans"
       x="837.54559"
       y="824.94171"
       id="text3085"
       sodipodi:linespacing="125%"
       transform="matrix(0.96984228,0.17256198,-0.1778308,0.99945443,0,0)"><tspan
         sodipodi:role="line"
         id="tspan3087"
         x="837.54559"
         y="824.94171">Propr</tspan></text>
    <text
       xml:space="preserve"
       style="font-size:18.56452751px;font-style:normal;font-weight:normal;line-height:125%;letter-spacing:0px;word-spacing:0px;fill:#000000;fill-opacity:1;stroke:none;font-family:Bitstream Vera Sans"
       x="367.90594"
       y="1160.7551"
       id="text3089"
       sodipodi:linespacing="125%"
       transform="matrix(0.9470658,-0.32103951,0.32103951,0.9470658,0,0)"><tspan
         sodipodi:role="line"
         id="tspan3091"
         x="367.90594"
         y="1160.7551">ietary</tspan></text>
    <path
       style="fill:none;stroke:#000000;stroke-width:1px;stroke-linecap:butt;stroke-linejoin:miter;stroke-opacity:1"
       d="m 652.65957,950.76644 1.06383,49.99996 124.46809,-1.59571 0.53191,-52.65957 -63.29787,17.55319 z"
       id="path3093"
       inkscape:connector-curvature="0" />
    <text
       xml:space="preserve"
       style="font-size:18.19616508px;font-style:normal;font-weight:normal;line-height:125%;letter-spacing:0px;word-spacing:0px;fill:#000000;fill-opacity:1;stroke:none;font-family:Bitstream Vera Sans"
       x="602.88983"
       y="1066.6794"
       id="text3095"
       sodipodi:linespacing="125%"
       transform="matrix(0.99406627,-0.10877611,0.10877611,0.99406627,0,0)"><tspan
         sodipodi:role="line"
         id="tspan3097"
         x="602.88983"
         y="1066.6794">ware</tspan></text>
  </g>
  <g
     inkscape:groupmode="layer"
     id="layer2"
     inkscape:label="Layer"
     style="display:inline">
    <path
       style="fill:none;stroke:#000000;stroke-width:1px;stroke-linecap:butt;stroke-linejoin:miter;stroke-opacity:1"
       d="m 364.08164,154.95503 77.60544,77.60544 -5.0068,340.46259 -80.10885,94.26492 z"
       id="path4212"
       inkscape:connector-curvature="0"
       sodipodi:nodetypes="ccccc" />
    <path
       style="fill:none;stroke:#000000;stroke-width:1px;stroke-linecap:butt;stroke-linejoin:miter;stroke-opacity:1"
       d="M 94.246202,635.45192 211.37415,608.07068 355.28803,667.93274"
       id="path4218"
       inkscape:connector-curvature="0"
       sodipodi:nodetypes="ccc" />
    <path
       style="fill:none;stroke:#000000;stroke-width:1px;stroke-linecap:butt;stroke-linejoin:miter;stroke-opacity:1"
       d="M 96.437256,132.42442 206.36735,184.99584 361.57823,154.95503"
       id="path4220"
       inkscape:connector-curvature="0"
       sodipodi:nodetypes="ccc" />
    <path
       style="fill:none;stroke:#000000;stroke-width:1px;stroke-linecap:butt;stroke-linejoin:miter;stroke-opacity:1"
       d="m 208.87075,182.49244 0,427.7496"
       id="path4222"
       inkscape:connector-curvature="0"
       sodipodi:nodetypes="cc" />
    <path
       style="fill:none;stroke:#000000;stroke-width:1px;stroke-linecap:butt;stroke-linejoin:miter;stroke-opacity:1"
       d="m 319.02041,162.46523 -6.97829,486.34796"
       id="path4224"
       inkscape:connector-curvature="0"
       sodipodi:nodetypes="cc" />
    <path
       style="fill:none;stroke:#000000;stroke-width:1px;stroke-linecap:butt;stroke-linejoin:miter;stroke-opacity:1"
       d="m 263.19193,172.25749 -6.31385,456.8154"
       id="path4226"
       inkscape:connector-curvature="0"
       sodipodi:nodetypes="cc" />
    <path
       style="fill:none;stroke:#000000;stroke-width:1px;stroke-linecap:butt;stroke-linejoin:miter;stroke-opacity:1"
       d="m 171.31973,167.62821 0,447.95267"
       id="path4228"
       inkscape:connector-curvature="0"
       sodipodi:nodetypes="cc" />
    <path
       style="fill:none;stroke:#000000;stroke-width:1px;stroke-linecap:butt;stroke-linejoin:miter;stroke-opacity:1"
       d="m 133.2368,149.19674 3.03531,473.89434"
       id="path4230"
       inkscape:connector-curvature="0"
       sodipodi:nodetypes="cc" />
    <path
       style="fill:none;stroke:#000000;stroke-width:1px;stroke-linecap:butt;stroke-linejoin:miter;stroke-opacity:1"
       d="M 357.75725,572.39589 208.21196,528.13048 93.361177,548.46864"
       id="path4279"
       inkscape:connector-curvature="0" />
    <path
       style="fill:none;stroke:#000000;stroke-width:1px;stroke-linecap:butt;stroke-linejoin:miter;stroke-opacity:1"
       d="M 361.34634,475.49054 208.21196,452.75966 93.361177,464.72328"
       id="path4283"
       inkscape:connector-curvature="0" />
    <path
       style="fill:none;stroke:#000000;stroke-width:1px;stroke-linecap:butt;stroke-linejoin:miter;stroke-opacity:1"
       d="M 360.14998,352.26522 211.80105,359.44339 95.753897,334.31978"
       id="path4285"
       inkscape:connector-curvature="0" />
    <path
       style="fill:none;stroke:#000000;stroke-width:1px;stroke-linecap:butt;stroke-linejoin:miter;stroke-opacity:1"
       d="M 366.13179,245.78897 208.21196,264.93077 95.753897,212.29083"
       id="path4289"
       inkscape:connector-curvature="0" />
    <path
       style="fill:none;stroke:#000000;stroke-width:1px;stroke-linecap:butt;stroke-linejoin:miter;stroke-opacity:1"
       d="m 357.52458,572.66739 79.04501,-58.75096"
       id="path4263"
       inkscape:connector-curvature="0"
       sodipodi:nodetypes="cc" />
    <path
       style="fill:none;stroke:#000000;stroke-width:1px;stroke-linecap:butt;stroke-linejoin:miter;stroke-opacity:1"
       d="m 437.76596,446.63555 -78.46977,30.46244"
       id="path4267"
       inkscape:connector-curvature="0"
       sodipodi:nodetypes="cc" />
    <path
       style="fill:none;stroke:#000000;stroke-width:1px;stroke-linecap:butt;stroke-linejoin:miter;stroke-opacity:1"
       d="M 361.79959,353.58807 439.073,365.9944"
       id="path4269"
       inkscape:connector-curvature="0"
       sodipodi:nodetypes="cc" />
    <path
       style="fill:none;stroke:#000000;stroke-width:1px;stroke-linecap:butt;stroke-linejoin:miter;stroke-opacity:1"
       d="M 364.08164,244.52409 439.073,299.48825"
       id="path4271"
       inkscape:connector-curvature="0"
       sodipodi:nodetypes="cc" />
  </g>
  <g
     inkscape:groupmode="layer"
     id="layer5"
     inkscape:label="Layer#2"
     style="display:inline">
    <path
       sodipodi:type="arc"
       style="fill:#ffffff;stroke:#000000;stroke-width:1.50000000000000000;stroke-miterlimit:4;stroke-opacity:1;stroke-dasharray:none"
       id="path4358"
       sodipodi:cx="323.01782"
       sodipodi:cy="1077.2814"
       sodipodi:rx="86.138084"
       sodipodi:ry="34.096325"
       d="m 409.15591,1077.2814 a 86.138084,34.096325 0 1 1 -172.27617,0 86.138084,34.096325 0 1 1 172.27617,0 z"
       transform="matrix(0.45714244,-0.20901882,0.20901882,0.45714244,-156.1365,171.46261)" />
    <path
       style="fill:#ffffff;stroke:#000000;stroke-width:0.50266098999999997px;stroke-linecap:butt;stroke-linejoin:miter;stroke-opacity:1"
       d="m 285.85768,477.04596 -11.42593,-1.8041 -126.28659,36.08188 1.20274,97.42109 7.81774,7.21635"
       id="path4347"
       inkscape:connector-curvature="0" />
    <path
       style="fill:#ffffff;stroke:#000000;stroke-width:0.50266099px;stroke-linecap:butt;stroke-linejoin:miter;stroke-opacity:1"
       d="M 157.767,514.93193 285.85768,477.64733 285.25632,556.4261 157.767,616.56256 z"
       id="path4343"
       inkscape:connector-curvature="0" />
    <path
       inkscape:connector-curvature="0"
       id="path4345"
       d="m 167.35089,517.68428 108.75298,-31.6558 -0.51058,66.88564 -108.2424,51.05774 z"
       style="fill:#ffffff;stroke:#000000;stroke-width:0.42677486px;stroke-linecap:butt;stroke-linejoin:miter;stroke-opacity:1" />
    <path
       style="fill:#ffffff;stroke:#000000;stroke-width:0.50266099px;stroke-linecap:butt;stroke-linejoin:miter;stroke-opacity:1"
       d="m 178.81476,643.62397 117.86748,-64.34601 55.92692,7.81773 -140.71934,111.85383 z"
       id="path4360"
       inkscape:connector-curvature="0" />
    <path
       style="fill:none;stroke:#000000;stroke-width:0.50266099px;stroke-linecap:butt;stroke-linejoin:miter;stroke-opacity:1"
       d="M 196.8557,649.03622 300.29043,587.69708"
       id="path4362"
       inkscape:connector-curvature="0" />
    <path
       style="fill:none;stroke:#000000;stroke-width:0.50266099px;stroke-linecap:butt;stroke-linejoin:miter;stroke-opacity:1"
       d="m 207.68027,663.46898 106.44155,-73.9678"
       id="path4364"
       inkscape:connector-curvature="0" />
    <path
       style="fill:none;stroke:#000000;stroke-width:0.50266099px;stroke-linecap:butt;stroke-linejoin:miter;stroke-opacity:1"
       d="M 332.16276,593.10933 216.09938,679.70582"
       id="path4366"
       inkscape:connector-curvature="0"
       sodipodi:nodetypes="cc" />
    <path
       style="fill:none;stroke:#000000;stroke-width:1px;stroke-linecap:butt;stroke-linejoin:miter;stroke-opacity:1"
       d="m 191.46288,571.19953 c 28.04228,2.41177 48.23542,-5.92822 56.22903,-29.90906"
       id="path4455"
       inkscape:connector-curvature="0" />
    <path
       style="fill:none;stroke:#000000;stroke-width:1px;stroke-linecap:butt;stroke-linejoin:miter;stroke-opacity:1"
       d="m 223.76467,524.5414 c 4.44585,11.39406 13.55945,19.40743 0,23.92725"
       id="path4457"
       inkscape:connector-curvature="0" />
    <path
       sodipodi:type="arc"
       style="fill:#ffffff;fill-opacity:1;stroke:#000000;stroke-width:1.5;stroke-miterlimit:4;stroke-opacity:1;stroke-dasharray:none"
       id="path4459"
       sodipodi:cx="227.90703"
       sodipodi:cy="863.13251"
       sodipodi:rx="8.9727173"
       sodipodi:ry="7.7763553"
       d="m 236.87975,863.13251 a 8.9727173,7.7763553 0 1 1 -17.94544,0 8.9727173,7.7763553 0 1 1 17.94544,0 z"
       transform="translate(-35.845957,-330.81478)" />
    <path
       sodipodi:type="arc"
       style="fill:#ffffff;fill-opacity:1;stroke:#000000;stroke-width:1.5;stroke-miterlimit:4;stroke-opacity:1;stroke-dasharray:none"
       id="path4461"
       sodipodi:cx="282.34152"
       sodipodi:cy="852.3653"
       sodipodi:rx="9.570899"
       sodipodi:ry="7.7763553"
       d="m 291.91242,852.3653 a 9.570899,7.7763553 0 1 1 -19.1418,0 9.570899,7.7763553 0 1 1 19.1418,0 z"
       transform="translate(-39.845957,-338.81478)" />
  </g>
  <g
     inkscape:groupmode="layer"
     id="layer3"
     inkscape:label="Layer#1"
     style="display:inline">
    <path
       style="fill:none;stroke:#000000;stroke-width:1px;stroke-linecap:butt;stroke-linejoin:miter;stroke-opacity:1"
       d="M 96.552666,213.88836 223.36708,181.18541"
       id="path4291"
       inkscape:connector-curvature="0"
       sodipodi:nodetypes="cc" />
    <path
       style="fill:none;stroke:#000000;stroke-width:1px;stroke-linecap:butt;stroke-linejoin:miter;stroke-opacity:1"
       d="M 94.956922,334.58663 221.37195,321.1598"
       id="path4293"
       inkscape:connector-curvature="0"
       sodipodi:nodetypes="cc" />
    <path
       style="fill:none;stroke:#000000;stroke-width:1px;stroke-linecap:butt;stroke-linejoin:miter;stroke-opacity:1"
       d="M 94.557537,463.52692 221.37195,505.3996"
       id="path4295"
       inkscape:connector-curvature="0" />
    <path
       style="fill:none;stroke:#000000;stroke-width:1px;stroke-linecap:butt;stroke-linejoin:miter;stroke-opacity:1"
       d="M 94.557537,546.07592 222.56831,611.87585"
       id="path4297"
       inkscape:connector-curvature="0"
       sodipodi:nodetypes="cc" />
  </g>
  <path
     style="fill:none;stroke:#000000;stroke-width:1px;stroke-linecap:butt;stroke-linejoin:miter;stroke-opacity:1"
     d="m 356.57143,668.15231 -135.18367,42.55782 2.5034,-620.843539 140.41005,66.371839"
     id="path4214"
     inkscape:connector-curvature="0"
     sodipodi:nodetypes="cccc" />
  <path
     style="fill:none;stroke:#000000;stroke-width:1px;stroke-linecap:butt;stroke-linejoin:miter;stroke-opacity:1"
     d="M 226.39456,87.363189 96.217687,132.42442 93.714287,635.60809 221.01202,710.8663"
     id="path4216"
     inkscape:connector-curvature="0"
     sodipodi:nodetypes="cccc" />
  <path
     style="fill:none;stroke:#000000;stroke-width:1px;stroke-linecap:butt;stroke-linejoin:miter;stroke-opacity:1"
     d="m 136.27211,117.40401 1.19636,542.68471"
     id="path4255"
     inkscape:connector-curvature="0"
     sodipodi:nodetypes="cc" />
  <path
     style="fill:none;stroke:#000000;stroke-width:1px;stroke-linecap:butt;stroke-linejoin:miter;stroke-opacity:1"
     d="m 180.13698,102.05157 -1.83895,583.67004"
     id="path4257"
     inkscape:connector-curvature="0"
     sodipodi:nodetypes="cc" />
  <path
     style="fill:none;stroke:#000000;stroke-width:1px;stroke-linecap:butt;stroke-linejoin:miter;stroke-opacity:1"
     d="m 394.12245,187.49925 -2.5034,436.67752"
     id="path4259"
     inkscape:connector-curvature="0"
     sodipodi:nodetypes="cc" />
  <path
     style="fill:none;stroke:#000000;stroke-width:1px;stroke-linecap:butt;stroke-linejoin:miter;stroke-opacity:1"
     d="M 419.15647,210.02986 418.78072,594.1141"
     id="path4261"
     inkscape:connector-curvature="0"
     sodipodi:nodetypes="cc" />
  <path
     style="fill:none;stroke:#000000;stroke-width:1px;stroke-linecap:butt;stroke-linejoin:miter;stroke-opacity:1"
     d="M 317.08093,163.23997 181.89199,103.42185"
     id="path4275"
     inkscape:connector-curvature="0" />
  <path
     style="fill:none;stroke:#000000;stroke-width:1px;stroke-linecap:butt;stroke-linejoin:miter;stroke-opacity:1"
     d="M 260.85191,174.00722 137.62658,117.7782"
     id="path4277"
     inkscape:connector-curvature="0"
     sodipodi:nodetypes="cc" />
</svg>
