<?xml version="1.0" encoding="UTF-8" standalone="no"?>
<svg xmlns:dc="http://purl.org/dc/elements/1.1/" xmlns:cc="http://creativecommons.org/ns#" xmlns:rdf="http://www.w3.org/1999/02/22-rdf-syntax-ns#" xmlns:svg="http://www.w3.org/2000/svg" xmlns="http://www.w3.org/2000/svg" xmlns:sodipodi="http://sodipodi.sourceforge.net/DTD/sodipodi-0.dtd" xmlns:inkscape="http://www.inkscape.org/namespaces/inkscape" width="180.71875" height="146.0811" version="1.1" sodipodi:docname="gnu-30-banner-without-background.svg">
  <defs id="defs3448">
    <clipPath id="clipPath16">
      <path id="path18" d="M 0,0 800,0 800,600 0,600 0,0 z"/>
    </clipPath>
    <clipPath id="clipPath28">
      <path id="path30" d="m 233.231,277.421 335.483,0 0,-145.159 -335.483,0 0,145.159 z"/>
    </clipPath>
    <clipPath id="clipPath32">
      <path id="path34" d="m 233.231,132.262 335.483,0 0,145.159 -335.483,0 0,-145.159 z"/>
    </clipPath>
    <clipPath id="clipPath52">
      <path id="path54" d="m 507.606,388.52 17.831,0 0,-17.832 -17.831,0 0,17.832 z"/>
    </clipPath>
    <clipPath id="clipPath56">
      <path id="path58" d="m 507.606,370.688 17.831,0 0,17.832 -17.831,0 0,-17.832 z"/>
    </clipPath>
    <clipPath id="clipPath76">
      <path id="path78" d="m 285.428,413.647 17.831,0 0,-17.831 -17.831,0 0,17.831 z"/>
    </clipPath>
    <clipPath id="clipPath80">
      <path id="path82" d="m 285.428,395.816 17.831,0 0,17.831 -17.831,0 0,-17.831 z"/>
    </clipPath>
    <clipPath id="clipPath100">
      <path id="path102" d="m 528.512,357.243 11.682,0 0,-11.682 -11.682,0 0,11.682 z"/>
    </clipPath>
    <clipPath id="clipPath104">
      <path id="path106" d="m 528.512,345.561 11.683,0 0,11.682 -11.683,0 0,-11.682 z"/>
    </clipPath>
    <clipPath id="clipPath124">
      <path id="path126" d="m 273.746,370.516 11.683,0 0,-11.683 -11.683,0 0,11.683 z"/>
    </clipPath>
    <clipPath id="clipPath128">
      <path id="path130" d="m 273.746,358.833 11.682,0 0,11.683 -11.682,0 0,-11.683 z"/>
    </clipPath>
    <clipPath id="clipPath148">
      <path id="path150" d="m 503.091,321.004 9.031,0 0,-9.031 -9.031,0 0,9.031 z"/>
    </clipPath>
    <clipPath id="clipPath152">
      <path id="path154" d="m 503.091,311.974 9.031,0 0,9.03 -9.031,0 0,-9.03 z"/>
    </clipPath>
    <clipPath id="clipPath176">
      <path id="path178" d="m 380.454,290.364 42.023,0 0,-86.543 -42.023,0 0,86.543 z"/>
    </clipPath>
    <clipPath id="clipPath180">
      <path id="path182" d="m 380.455,203.821 42.021,0 0,86.543 -42.021,0 0,-86.543 z"/>
    </clipPath>
    <mask id="mask202">
      <g id="g204">
        <g id="g206" clip-path="url(#clipPath184)">
          <path style="fill:#000000;fill-opacity:1;fill-rule:nonzero;stroke:none" id="path208" d="m 380.455,290.364 42.021,0 0,-86.543 -42.021,0 0,86.543 z" inkscape:connector-curvature="0"/>
          <g id="g210">
            <g id="g214">
              <g id="g216" clip-path="url(#clipPath188)">
                <g id="g218">
                  <g id="g220">
                    <g id="g222">
                      <g id="g224">
                        <path style="fill:url(#linearGradient196);stroke:none" id="path226" d="m 380.455,290.364 42.021,0 0,-86.543 -42.021,0 0,86.543 z" inkscape:connector-curvature="0"/>
                      </g>
                    </g>
                  </g>
                </g>
              </g>
            </g>
          </g>
        </g>
      </g>
    </mask>
    <clipPath id="clipPath184">
      <path id="path186" d="m 380.455,290.364 42.022,0 0,-86.543 -42.022,0 0,86.543 z"/>
    </clipPath>
    <clipPath id="clipPath188">
      <path id="path190" d="m 380.455,290.364 42.022,0 0,-86.543 -42.022,0 0,86.543 z"/>
    </clipPath>
    <linearGradient spreadMethod="pad" gradientTransform="matrix(-3.8e-6,86.542969,-86.542969,-3.8e-6,401.4375,203.8125)" gradientUnits="userSpaceOnUse" id="linearGradient196" y2="0" x2="1" y1="0" x1="0">
      <stop offset="0" style="stop-color:#231f20;stop-opacity:1" id="stop198"/>
      <stop offset="1" style="stop-color:#ffffff;stop-opacity:1" id="stop200"/>
    </linearGradient>
    <clipPath id="clipPath228">
      <path id="path230" d="m 380.455,290.364 42.022,0 0,-86.543 -42.022,0 0,86.543 z"/>
    </clipPath>
    <clipPath id="clipPath280">
      <path id="path282" d="m 376.942,297.559 49.046,0 0,-7.704 -49.046,0 0,7.704 z"/>
    </clipPath>
    <clipPath id="clipPath284">
      <path id="path286" d="m 376.942,289.855 49.046,0 0,7.703 -49.046,0 0,-7.703 z"/>
    </clipPath>
    <clipPath id="clipPath344">
      <path id="path346" d="m 353.812,496.261 62.813,0 0,-201.615 -62.813,0 0,201.615 z"/>
    </clipPath>
    <clipPath id="clipPath348">
      <path id="path350" d="m 353.812,294.646 62.813,0 0,201.614 -62.813,0 0,-201.614 z"/>
    </clipPath>
  </defs>
  <sodipodi:namedview id="base" pagecolor="#ffffff" bordercolor="#666666" borderopacity="1.0" inkscape:document-units="px" showgrid="false" fit-margin-top="0" fit-margin-left="0" fit-margin-right="0" fit-margin-bottom="0" inkscape:window-width="1920" inkscape:window-height="992" inkscape:window-x="0" inkscape:window-y="33" inkscape:window-maximized="1" showguides="true">
    <inkscape:grid type="xygrid" id="grid3086" empspacing="5" visible="true" enabled="true" snapvisiblegridlinesonly="true" originx="-254.5909px" originy="-38.88568px"/>
  </sodipodi:namedview>
  <metadata id="metadata3451">
    <rdf:RDF>
      <cc:Work rdf:about="">
        <dc:format>image/svg+xml</dc:format>
        <dc:type rdf:resource="http://purl.org/dc/dcmitype/StillImage"/>
        <dc:title/>
      </cc:Work>
    </rdf:RDF>
  </metadata>
  <g inkscape:label="Layer 1" inkscape:groupmode="layer" id="layer1" transform="translate(-209.58075,-873.2939)">
    <text xml:space="preserve" style="font-size:40px;font-style:normal;font-variant:normal;font-weight:normal;font-stretch:normal;line-height:125%;letter-spacing:0px;word-spacing:0px;fill:#ffffff;fill-opacity:1;stroke:none;font-family:Monospace;-inkscape-font-specification:Monospace" x="69.667175" y="899.7688" id="text5316" sodipodi:linespacing="125%"><tspan sodipodi:role="line" x="69.667175" y="899.7688" style="font-size:20px;fill:#ffffff;fill-opacity:1" id="tspan5322"/></text>
    <g id="g3164" transform="translate(17.455749,0)">
      <g transform="translate(-17.499996,0)" id="g3130">
        <g id="g4466-2-3" transform="matrix(0.1231615,0,0,0.1231615,-62.918925,477.20577)">
          <path transform="matrix(1.0904872,0,0,1.0904872,-290.94545,-294.70896)" d="m 3400.1736,3847.4543 c 0,240.4514 -194.9244,435.3758 -435.3757,435.3758 -240.4514,0 -435.3758,-194.9244 -435.3758,-435.3758 0,-240.4513 194.9244,-435.3757 435.3758,-435.3757 240.4513,0 435.3757,194.9244 435.3757,435.3757 z" sodipodi:ry="435.37576" sodipodi:rx="435.37576" sodipodi:cy="3847.4543" sodipodi:cx="2964.7979" id="path4444-1-9" style="fill:#fe9f22;fill-opacity:1;stroke:none" sodipodi:type="arc"/>
          <path transform="matrix(1.0209615,0,0,1.0209615,-84.815804,-27.212003)" d="m 3400.1736,3847.4543 c 0,240.4514 -194.9244,435.3758 -435.3757,435.3758 -240.4514,0 -435.3758,-194.9244 -435.3758,-435.3758 0,-240.4513 194.9244,-435.3757 435.3758,-435.3757 240.4513,0 435.3757,194.9244 435.3757,435.3757 z" sodipodi:ry="435.37576" sodipodi:rx="435.37576" sodipodi:cy="3847.4543" sodipodi:cx="2964.7979" id="path4444-7-8-9" style="fill:none;stroke:#ffffff;stroke-width:9.79468822;stroke-miterlimit:4;stroke-opacity:1;stroke-dasharray:none" sodipodi:type="arc"/>
        </g>
        <path sodipodi:nodetypes="cccccc" id="path4046" d="m 389.38138,969.5453 -51.69085,0 0,30.9663 51.69085,0 -6.51755,-14.12047 z" style="fill:#000000;fill-opacity:1;stroke:#000000;stroke-width:1.23161495;stroke-linecap:square;stroke-linejoin:miter;stroke-miterlimit:4;stroke-opacity:1;stroke-dashoffset:0"/>
        <path style="fill:#000000;fill-opacity:1;stroke:#000000;stroke-width:1.23161495;stroke-linecap:square;stroke-linejoin:miter;stroke-miterlimit:4;stroke-opacity:1;stroke-dashoffset:0" d="m 210.59831,969.5453 51.69086,0 0,30.9663 -51.69085,0 6.51754,-14.12047 z" id="rect3241-5-55-9" sodipodi:nodetypes="cccccc"/>
        <path style="fill:#ffffff;fill-opacity:1;stroke:#000000;stroke-width:0.12812766px;stroke-linecap:butt;stroke-linejoin:miter;stroke-opacity:1" d="m 261.91073,969.98128 -28.32715,16.94739 27.97527,0 z" id="path4134-7-3"/>
        <path style="fill:none;stroke:#000000;stroke-width:1.23161495;stroke-linecap:butt;stroke-linejoin:miter;stroke-miterlimit:4;stroke-opacity:1;stroke-dasharray:none" d="m 262.64971,972.53636 -26.03986,15.65911 z" id="path4136-53-8"/>
        <path style="fill:none;stroke:#000000;stroke-width:1.23161495;stroke-linecap:butt;stroke-linejoin:miter;stroke-miterlimit:4;stroke-opacity:1;stroke-dasharray:none" d="m 262.64971,976.06405 -26.03986,15.65911 z" id="path4136-5-9-6"/>
        <path style="fill:none;stroke:#000000;stroke-width:1.23161495;stroke-linecap:butt;stroke-linejoin:miter;stroke-miterlimit:4;stroke-opacity:1;stroke-dasharray:none" d="m 262.64971,979.59175 -26.03986,15.6591 z" id="path4136-0-0-1"/>
        <path style="fill:none;stroke:#000000;stroke-width:1.23161495;stroke-linecap:butt;stroke-linejoin:miter;stroke-miterlimit:4;stroke-opacity:1;stroke-dasharray:none" d="m 262.64971,983.11945 -26.03986,15.65912 z" id="path4136-5-2-5-9"/>
        <path style="fill:#ffffff;fill-opacity:1;stroke:#000000;stroke-width:0.12812765px;stroke-linecap:butt;stroke-linejoin:miter;stroke-opacity:1" d="m 338.11301,969.98129 28.32715,16.94739 -27.97526,0 z" id="path4134-6-7-9"/>
        <path style="fill:none;stroke:#000000;stroke-width:1.23161495;stroke-linecap:butt;stroke-linejoin:miter;stroke-miterlimit:4;stroke-opacity:1;stroke-dasharray:none" d="m 337.37404,972.53637 26.03985,15.65911 z" id="path4136-7-5-5"/>
        <path style="fill:none;stroke:#000000;stroke-width:1.23161495;stroke-linecap:butt;stroke-linejoin:miter;stroke-miterlimit:4;stroke-opacity:1;stroke-dasharray:none" d="m 337.37404,976.06406 26.03985,15.65911 z" id="path4136-5-1-7-5"/>
        <path style="fill:none;stroke:#000000;stroke-width:1.23161495;stroke-linecap:butt;stroke-linejoin:miter;stroke-miterlimit:4;stroke-opacity:1;stroke-dasharray:none" d="m 337.37404,979.59175 26.03985,15.65911 z" id="path4136-0-5-5-6"/>
        <path style="fill:none;stroke:#000000;stroke-width:1.23161495;stroke-linecap:butt;stroke-linejoin:miter;stroke-miterlimit:4;stroke-opacity:1;stroke-dasharray:none" d="m 337.37404,983.11947 26.03985,15.65911 z" id="path4136-5-2-9-0-1"/>
        <rect style="fill:#000000;fill-opacity:1;stroke:#000000;stroke-width:1.20592988;stroke-linecap:square;stroke-linejoin:miter;stroke-miterlimit:4;stroke-opacity:1;stroke-dasharray:none;stroke-dashoffset:0" id="rect3241-6-5" width="134.94633" height="30.96632" x="231.96483" y="987.80743"/>
        <path style="fill:none;stroke:none" d="M 301.182,924.05443 z" id="path4939-7-4"/>
        <path style="fill:#ffffff;stroke:none" d="m 256.98027,881.54979 c -3.40772,0.23746 -12.14472,5.40164 -12.50948,7.86539 -0.19623,1.32556 2.59259,-1.06894 4.00408,-0.72536 1.68467,0.41018 2.95461,1.8593 3.21238,0.41952 0.96256,-5.37638 6.83843,-7.66719 5.29302,-7.55955 z" id="path4949-1-6" sodipodi:nodetypes="sssss"/>
        <path style="fill:#ffffff;fill-opacity:1;stroke:none" d="m 263.50803,924.4955 -2.81038,11.22692 -4.21557,9.82336 2.4089,2.40584 9.83633,-3.80918 6.02223,-4.21001 3.21187,4.21001 5.01852,10.22451 6.22298,11.42728 7.2267,9.02148 8.83263,3.40824 7.42742,0.40089 6.02225,-7.81867 2.0074,-2.6062 4.8178,0 1.40519,-1.60381 0.80296,-2.20532 -1.20444,-2.80672 -0.20074,-2.0047 3.4126,-0.40104 0.80297,-3.0072 -1.80667,-3.00714 1.40519,-3.80913 2.81038,-2.00485 2.20814,-3.40808 -0.40148,-4.41054 -1.60592,-1.60381 -3.21186,-0.40093 -3.01113,-1.0024 -2.60964,-1.80433 0.80297,-2.80673 1.00371,-6.81621 3.4126,3.2076 7.02595,4.61106 7.42743,0.20047 1.60592,-1.60391 -3.61334,-3.20762 -3.81409,-5.61345 7.42743,-2.00469 7.02597,-4.41053 5.21926,-8.0192 1.20445,-8.6207 -2.81038,-10.22436 -4.01482,-6.21486 -8.02966,-6.61586 -8.63187,1.0024 -8.23041,2.40585 -4.21556,-0.20053 1.20444,2.00486 5.82151,1.00228 5.21928,0.401 7.02595,2.80673 4.01481,7.81867 -0.40147,6.41538 -1.20447,5.21242 -3.21185,4.21001 -4.21557,0.6014 -5.8215,-3.00709 -5.82149,-6.81638 -8.23041,-6.81627 -7.22668,-2.0048 -6.62447,2.20533 -3.01112,1.6038 -4.81779,-3.00709 -10.43854,-1.40344 -6.02225,1.80433 -5.42001,4.21001 -4.21557,5.21247 -4.81781,5.81392 -5.01852,3.00714 -7.2267,-0.6014 -4.21557,-3.80913 0,-6.61575 1.80668,-6.01434 3.21186,-5.01205 4.01483,-3.80902 6.62446,-3.20777 6.82521,-0.20036 7.42743,0.20036 5.21928,-2.00469 -6.02224,-1.60392 -5.82151,-2.60621 -6.22298,-1.60385 -7.02595,1.00245 -9.43483,3.60861 -6.82521,4.81141 -4.8178,8.62071 -1.20445,8.82107 -0.20074,5.01194 1.40519,6.41533 3.01112,6.0144 5.42002,5.81382 7.22668,1.80433 6.42374,-0.80194 z" id="path4476-0"/>
        <path style="fill:#000000;fill-opacity:1;stroke:none" d="m 265.48914,873.29391 c -13.53457,0.0125 -32.22797,9.04538 -29.93179,31.33426 2.45582,23.83989 18.84712,25.48644 25.238,25.205 -1.31363,5.95622 -2.38104,11.33987 -7.28493,16.5714 -6.87712,7.33637 14.65774,4.71523 21.87017,-3.08731 -0.66808,3.56505 -1.38927,8.67747 1.48504,13.15872 0.53558,0.83517 0.8715,-2.22074 1.54189,-1.97493 0.62638,0.22958 -0.02,7.03342 3.48141,9.0688 0.64881,0.37709 1.14415,-1.41143 1.5608,-2.08844 1.23629,-2.00817 0.50916,8.22015 5.66363,10.28334 0.75089,0.30051 0.89891,-1.15134 1.43206,-1.73275 5.72194,13.20771 29.86076,18.03601 28.7725,3.5261 -0.51958,-3.2862 2.42565,-5.18704 5.02331,-3.97641 2.59779,1.21069 6.75468,-3.97956 3.11785,-8.13048 3.34539,-1.29737 7.13545,-4.21903 4.4134,-6.22752 -3.81635,-2.65921 0.41546,-5.19546 2.86025,-7.69554 4.01651,-4.10704 1.43437,-11.68173 -2.2541,-10.63512 -3.06379,0.86944 -5.45123,-1.0774 -6.66606,-2.35544 0.37981,-2.18762 1.35302,-4.40326 1.28295,-7.17441 9.31282,12.6908 22.52201,7.18945 22.35497,4.68715 -0.14658,-2.19658 -4.13872,0.74799 -9.03898,-7.74465 10.21536,-1.1454 13.41662,-3.51045 18.82821,-16.25346 5.81675,-13.69744 -7.57818,-36.75475 -21.67705,-31.55374 -7.39645,2.72852 -10.97279,3.15824 -15.71788,3.26893 -1.24319,0.0288 0.7818,2.81607 4.08755,3.54126 4.82074,1.05747 11.26422,-0.81839 16.77486,4.56277 6.33462,6.18565 2.93637,24.70363 -5.39075,21.89088 -8.32723,-2.81293 -10.40823,-13.57231 -21.18451,-17.97508 -7.03835,-2.8756 -12.66427,0.37764 -15.72163,2.9814 -0.52916,-0.48871 -1.08535,-0.95281 -1.66688,-1.39237 -9.062,-6.84864 -20.50684,-4.48901 -29.39016,8.56184 -7.4087,10.88463 -15.9368,9.23748 -18.49095,3.9121 -4.093,-8.53364 6.49223,-24.82877 22.04449,-22.74967 3.37304,0.41935 12.20567,0.24164 12.36522,-3.1326 0.0652,-1.38129 -3.44821,0.38388 -8.93677,-3.83634 -2.39655,-1.84278 -6.33463,-2.84187 -10.84612,-2.83769 z m 27.58691,31.84871 c 8.92222,-0.0755 14.04893,4.78535 17.43022,4.52508 2.7995,-0.21551 5.01602,-2.23155 6.33352,-2.61191 7.83579,-2.26185 15.06798,3.79365 18.01417,11.36292 3.65901,9.40053 6.72849,12.59055 8.84585,13.0716 1.19688,0.27194 -3.8445,2.13591 -8.33064,-3.48445 -1.1308,-1.41675 -1.3649,2.42969 -3.60978,-0.28807 -3.01033,-3.64472 -3.43548,-8.53892 -4.73491,-12.27391 -0.80179,-2.30487 -3.09652,-4.8075 -3.59294,-4.18345 -0.66396,0.83468 1.99505,5.09493 1.52444,7.31763 -2.55766,-2.12885 -5.93397,-0.52553 -6.85361,-0.58277 -0.8087,-0.0505 -1.13589,-1.43544 -1.37084,-1.28852 -0.30973,0.19362 -0.0817,0.94156 -0.25094,2.24507 -0.0897,0.69059 -0.60928,1.18077 -0.42114,1.86603 0.51885,1.88944 4.64289,6.04378 5.81177,10.02177 1.16366,3.95979 4.72909,9.41324 9.13752,7.95271 3.43438,-1.1378 4.50009,5.79731 1.38284,8.39156 -3.11736,2.59432 -6.81905,4.73348 -3.89443,7.52148 1.90497,1.81606 1.96983,4.51019 -1.90558,4.15031 -5.32503,-1.08751 -11.11268,2.39428 -14.89194,2.20581 -5.02235,-0.34597 -9.35247,-6.18097 -10.39151,-8.42953 -1.03916,-2.24833 -1.21336,1.12433 1.03795,4.2375 2.25144,3.11316 8.14067,8.56134 15.93378,5.44802 7.79324,-3.11311 10.38993,2.24795 8.31172,4.15043 -2.07819,1.90263 -10.39149,-0.34582 -14.0282,2.42137 -2.43776,1.85495 -3.28818,5.53389 -1.23506,8.49764 -14.83885,-1.51033 -18.90338,-14.10039 -21.01019,-28.3037 0.17021,-2.50415 -2.8126,1.99209 -3.19361,3.32557 -0.6299,2.20446 -3.25848,-10.48152 -2.66701,-13.04145 1.01456,-4.39168 -1.50698,-1.65258 -2.56857,0.47296 -0.92957,1.8613 -1.64215,-3.0122 -0.72348,-4.80876 2.37763,-4.64994 2.55414,-5.57451 3.34127,-15.61034 0.63923,-8.14982 4.89734,-7.14259 5.80376,-8.12668 0.55026,-0.59744 0.0744,-1.11743 -2.33738,-0.69238 -2.94413,0.51885 -8.14116,2.94022 -8.14116,12.10689 0,4.5971 -3.11349,9.67134 -4.03845,8.52028 -1.4517,-1.80677 -2.68192,6.31687 -3.41705,6.8707 -0.73536,0.55371 -0.79791,-2.44523 -2.32234,-0.46161 -1.83491,2.38776 -2.52141,4.38962 -7.4555,6.5188 -7.37706,3.18349 1.24331,-3.93204 1.73513,-10.46491 0.53364,-7.08989 2.71792,-21.48955 16.53616,-24.56182 3.82048,-0.84956 8.43962,-3.95582 12.20616,-3.98787 z m 28.14624,14.48797 c 1.50358,0.14252 3.25981,0.30323 3.98742,1.7165 1.25409,2.43616 0.49109,5.67011 -0.17627,10.27736 -0.35023,2.41861 -1.32393,0.486 -2.35521,-3.41813 -1.18027,-4.46805 -4.54869,-5.0178 -4.90547,-7.13975 -0.25021,-1.48893 1.63148,-1.60826 3.44953,-1.43598 z" id="path4474-5-6-8-3-1-59-7-4-2-3-9-8-24-2" sodipodi:nodetypes="sscsccccssccsccscccscsssssssccssccssssssssssscsssssssscccssssccsccsscsssccssssssssss"/>
        <path sodipodi:type="arc" style="fill:#000000;fill-opacity:1;stroke:none" id="path4596-1-3-5-86-8-6-9-9-9-9-2-6-3-5-2" sodipodi:cx="-1192.5" sodipodi:cy="1842.7194" sodipodi:rx="20.357143" sodipodi:ry="20.357143" d="m -1172.1429,1842.7194 c 0,11.2429 -9.1142,20.3571 -20.3571,20.3571 -11.2429,0 -20.3571,-9.1142 -20.3571,-20.3571 0,-11.243 9.1142,-20.3572 20.3571,-20.3572 11.2429,0 20.3571,9.1142 20.3571,20.3572 z" transform="matrix(0.12760793,0,0,0.12744115,452.41498,687.55922)"/>
        <path style="fill:#000000;fill-opacity:1;stroke:none" d="m 297.10654,926.56532 c 0.96726,0.14474 0.69426,-0.23154 0.41132,-0.57306 -3.52651,-4.25634 1.11189,-7.86223 6.40177,-4.88013 0.72967,0.41137 2.16695,-0.91163 0.68955,-2.13232 -0.20936,-0.17293 -0.26609,-2.89466 -0.68808,-3.05032 -0.42188,-0.15566 -0.38939,2.41296 -0.96158,2.3499 -2.72046,-0.67147 -6.86197,-0.23816 -8.11521,2.70994 -0.65039,1.52989 -0.42176,4.15163 2.26223,5.57599 z" id="path4616-7-7-6-2-8-7-3-1-7-1-9-5-86-1" sodipodi:nodetypes="csssscsc"/>
        <path style="fill:#000000;fill-opacity:1;stroke:none" d="m 320.31191,942.66795 c 0,0 -6.6063,-7.44152 -13.01403,-4.76069 -6.40772,2.68089 -3.02013,10.02709 -1.89454,10.02709 -0.66227,-3.12212 -0.77039,-7.69141 3.7235,-8.90716 3.89662,-0.95128 8.46969,4.21941 10.04443,5.53449 1.44236,1.20455 2.76483,-0.75039 1.14063,-1.89373 z" id="path4618-1-9-2-0-0-3-8-7-6-1-9-22-25-4" sodipodi:nodetypes="csccsc"/>
        <path style="fill:#000000;fill-opacity:1;stroke:none" d="m 314.33489,947.59272 c 0.16184,-0.8167 -1.94484,-5.97111 -5.6338,-4.98017 -4.59974,1.23557 -0.60081,5.49337 1.63779,3.9668 0.67523,-0.46052 0.85586,-0.8003 1.23434,-0.70868 1.06582,0.25789 1.29168,1.52864 1.34828,2.29636 0.0864,1.17299 1.30321,-0.0179 1.41339,-0.57431 z" id="path4620-0-5-4-6-1-8-0-5-8-0-8-6-1-7" sodipodi:nodetypes="ssssss"/>
        <path style="fill:none;stroke:none" d="M 303.69089,919.66285 z" id="path4939-3-8-5-9-2-24-5-2-1-0-6-3-7"/>
        <path sodipodi:type="arc" style="fill:#000000;fill-opacity:1;stroke:none" id="path4596-1-3-5-7-7-2-7-92-3-1-9-8-6-8-9-0" sodipodi:cx="-1192.5" sodipodi:cy="1842.7194" sodipodi:rx="20.357143" sodipodi:ry="20.357143" d="m -1172.1429,1842.7194 c 0,11.2429 -9.1142,20.3571 -20.3571,20.3571 -11.2429,0 -20.3571,-9.1142 -20.3571,-20.3571 0,-11.243 9.1142,-20.3572 20.3571,-20.3572 11.2429,0 20.3571,9.1142 20.3571,20.3572 z" transform="matrix(0.12760793,0,0,0.12744115,474.49499,687.55922)"/>
        <path sodipodi:type="arc" style="fill:#ffffff;fill-opacity:1;stroke:none" id="path4596-1-3-5-86-8-6-9-9-9-9-2-6-7-41-7-9" sodipodi:cx="-1192.5" sodipodi:cy="1842.7194" sodipodi:rx="20.357143" sodipodi:ry="20.357143" d="m -1172.1429,1842.7194 c 0,11.2429 -9.1142,20.3571 -20.3571,20.3571 -11.2429,0 -20.3571,-9.1142 -20.3571,-20.3571 0,-11.243 9.1142,-20.3572 20.3571,-20.3572 11.2429,0 20.3571,9.1142 20.3571,20.3572 z" transform="matrix(0.04885914,0,0,0.04879528,359.73763,831.31681)"/>
        <path sodipodi:type="arc" style="fill:#ffffff;fill-opacity:1;stroke:none" id="path4596-1-3-5-86-8-6-9-9-9-9-2-6-7-4-7-3-5" sodipodi:cx="-1192.5" sodipodi:cy="1842.7194" sodipodi:rx="20.357143" sodipodi:ry="20.357143" d="m -1172.1429,1842.7194 c 0,11.2429 -9.1142,20.3571 -20.3571,20.3571 -11.2429,0 -20.3571,-9.1142 -20.3571,-20.3571 0,-11.243 9.1142,-20.3572 20.3571,-20.3572 11.2429,0 20.3571,9.1142 20.3571,20.3572 z" transform="matrix(0.04885914,0,0,-0.04879528,381.84978,1011.1488)"/>
        <path style="fill:#ffffff;fill-opacity:1;stroke:none" d="m 266.80874,876.16136 c -1.12161,0.006 -2.35825,0.0999 -3.73163,0.30274 3.33146,2.13059 -0.57437,2.03206 -1.79562,2.10348 -7.58896,0.4446 -13.21343,3.7175 -12.05838,3.44295 2.62604,-0.62416 7.05921,0.26369 3.96269,1.33175 -6.66934,2.30032 -12.1344,3.9491 -14.03972,17.38855 -1.08111,7.62619 4.24333,17.71655 4.0839,16.30268 -0.60261,-5.34461 1.6281,-8.02512 2.15931,-5.58809 1.33726,6.13442 4.49124,10.67428 7.06151,11.55084 -1.67912,-3.58884 -2.22816,-9.08145 0.25761,-6.40909 3.15894,3.3958 5.6926,4.99901 10.53539,4.79355 0,0 6.07702,-10.8521 15.37699,-13.8511 6.8359,-2.20445 -4.44905,-2.36359 2.48892,-3.99156 4.62664,-1.0855 10.23766,-0.83121 8.47078,-1.50577 -5.24879,-2.00383 -0.0329,-2.81091 3.53463,-2.39488 11.44703,1.33496 15.29175,11.33049 21.7944,6.17462 1.19373,-0.94651 2.78484,-3.08927 4.37559,-3.10626 1.59087,-0.0168 -0.80519,2.10223 2.26162,1.69124 4.62047,-0.61928 2.67937,0.7726 3.44735,0.92691 2.85502,0.57343 5.64847,2.87532 5.64847,2.87532 0,0 -11.43091,-19.34322 -21.38926,-12.79427 -1.65694,1.08973 -0.94654,1.65458 0.3381,1.04319 1.96036,-0.93304 6.60993,-0.12351 3.18112,0.36569 -4.66373,0.66533 -5.50796,4.03811 -5.50796,4.03811 -19.63231,-16.40527 -30.47478,-3.57629 -36.31517,4.47565 -3.84593,5.74881 -12.32545,10.50026 -17.93415,6.39404 -4.56652,-3.34333 -2.08292,2.99346 -3.92086,0.54856 -4.26793,-5.67722 -0.68905,-14.73944 1.54941,-18.19439 2.95818,-4.56581 5.62314,-7.42984 8.58436,-9.21641 2.96135,-1.78647 -2.61196,-3.18806 0.14026,-3.43904 2.75211,-0.25114 9.60959,-1.20923 16.50962,0.20421 1.16524,0.23865 4.39813,0.3972 6.09544,-0.51444 -5.03604,-0.74909 -7.31379,-4.98767 -15.16472,-4.94878 z" id="path6175-0-7-5-7-7" sodipodi:nodetypes="ccsssssscscsssssssccsssccsssssscsc"/>
        <path style="fill:#ffffff;fill-opacity:1;stroke:none" d="m 334.26167,910.82999 c 0,0 10.92866,6.64568 13.69993,-6.2066 0.41544,-1.92665 2.27604,0.50853 2.95431,1.92626 0.65463,1.36792 1.88521,-2.06471 0.76798,-4.80615 -0.98959,-2.42828 -2.65233,-6.98426 -1.74556,-6.07333 2.07773,2.08747 2.31484,1.08539 1.53099,-1.43619 -0.78387,-2.52175 -2.58857,-6.56307 -9.00296,-9.5758 -3.00548,-1.41171 -5.76074,-2.14547 -8.79034,-2.29701 -3.02959,-0.15158 -6.33329,0.27912 -7.49671,-0.76049 2.5716,0 9.37889,-0.73268 12.4908,-2.2013 7.95167,-3.7528 29.33998,14.59665 16.17854,34.11726 -2.11118,3.13135 0.56893,-3.72234 -1.14778,-2.5331 -1.85321,1.28395 -3.35485,5.71312 -8.50484,7.0717 -1.78483,0.471 1.13178,-1.17756 0.61863,-3.15085 -0.39169,-1.50675 -6.23692,1.8222 -11.55299,-4.0744 z" id="path6177-0-3-8-5-2" sodipodi:nodetypes="cssssssscsssssc"/>
        <text xml:space="preserve" style="font-size:21.72516441px;font-style:normal;font-weight:normal;line-height:125%;letter-spacing:0px;word-spacing:0px;fill:#eeeeec;fill-opacity:1;stroke:none;font-family:Sans" x="251.771" y="1011.4376" id="text4114" sodipodi:linespacing="125%"><tspan sodipodi:role="line" id="tspan4116" x="251.771" y="1011.4376">GNU 30th</tspan></text>
      </g>
    </g>
  </g>
</svg>