<?xml version="1.0" encoding="UTF-8" standalone="no"?>
<!-- Created with Inkscape (http://www.inkscape.org/) -->

<svg
   xmlns:dc="http://purl.org/dc/elements/1.1/"
   xmlns:cc="http://creativecommons.org/ns#"
   xmlns:rdf="http://www.w3.org/1999/02/22-rdf-syntax-ns#"
   xmlns:svg="http://www.w3.org/2000/svg"
   xmlns="http://www.w3.org/2000/svg"
   xmlns:xlink="http://www.w3.org/1999/xlink"
   xmlns:sodipodi="http://sodipodi.sourceforge.net/DTD/sodipodi-0.dtd"
   xmlns:inkscape="http://www.inkscape.org/namespaces/inkscape"
   id="svg2"
   sodipodi:version="0.32"
   inkscape:version="0.46+devel r21752"
   width="744.09448"
   height="1052.3622"
   version="1.0"
   sodipodi:docname="gnu-type3.svg"
   inkscape:output_extension="org.inkscape.output.svg.inkscape">
  <metadata
     id="metadata7">
    <rdf:RDF>
      <cc:Work
         rdf:about="">
        <dc:format>image/svg+xml</dc:format>
        <dc:type
           rdf:resource="http://purl.org/dc/dcmitype/StillImage" />
      </cc:Work>
    </rdf:RDF>
  </metadata>
  <defs
     id="defs5">
    <inkscape:perspective
       sodipodi:type="inkscape:persp3d"
       inkscape:vp_x="0 : 526.18109 : 1"
       inkscape:vp_y="0 : 1000 : 0"
       inkscape:vp_z="744.09448 : 526.18109 : 1"
       inkscape:persp3d-origin="372.04724 : 350.78739 : 1"
       id="perspective9" />
  </defs>
  <sodipodi:namedview
     inkscape:window-height="720"
     inkscape:window-width="706"
     inkscape:pageshadow="2"
     inkscape:pageopacity="0"
     guidetolerance="10.0"
     gridtolerance="10.0"
     objecttolerance="10.0"
     borderopacity="1.0"
     bordercolor="#666666"
     pagecolor="#ffffff"
     id="base"
     showgrid="false"
     inkscape:zoom="0.45483171"
     inkscape:cx="358.09749"
     inkscape:cy="444.80427"
     inkscape:window-x="0"
     inkscape:window-y="25"
     inkscape:current-layer="svg2"
     inkscape:window-maximized="0" />
  <text
     xml:space="preserve"
     style="font-size:40px;font-style:normal;font-weight:normal;fill:#000000;fill-opacity:1;stroke:none;stroke-width:1px;stroke-linecap:butt;stroke-linejoin:miter;stroke-opacity:1;font-family:Bitstream Vera Sans"
     x="33.813766"
     y="23.793524"
     id="text3286"><tspan
       sodipodi:role="line"
       id="tspan3288"
       x="33.813766"
       y="23.793524" /></text>
  <flowRoot
     xml:space="preserve"
     id="flowRoot3324"
     style="font-size:40px;font-style:normal;font-variant:normal;font-weight:normal;font-stretch:normal;fill:#000000;fill-opacity:1;stroke:none;stroke-width:1px;stroke-linecap:butt;stroke-linejoin:miter;stroke-opacity:1;font-family:DejaVu Sans;-inkscape-font-specification:DejaVu Sans"><flowRegion
       id="flowRegion3326"><rect
         id="rect3328"
         width="20.886847"
         height="50.568153"
         x="-273.72763"
         y="-31.826925" /></flowRegion><flowPara
       id="flowPara3330" /></flowRoot>  <rect
     style="fill:none;stroke:none;stroke-opacity:0"
     id="rect3379"
     width="8.7944613"
     height="0"
     x="439.72308"
     y="361.99695" />
  <g
     id="g3610">
    <path
       sodipodi:nodetypes="cccc"
       id="path2386"
       d="M 139.31292,712.27013 L 103.08259,711.77491 C 103.76792,644.32482 105.41481,665.31188 105.92255,508.6777 C 116.9851,430.58656 145.60983,385.29165 187.93749,347.57911"
       style="fill:none;fill-rule:evenodd;stroke:#000000;stroke-width:1.99672127px;stroke-linecap:butt;stroke-linejoin:miter;stroke-opacity:1" />
    <path
       sodipodi:nodetypes="cccc"
       id="path2388"
       d="M 614.2849,713.03621 L 648.75869,712.27013 L 649.52478,509.25791 C 641.58046,438.29558 613.50566,387.46375 572.91639,349.14637"
       style="fill:none;fill-rule:evenodd;stroke:#000000;stroke-width:1.99672127px;stroke-linecap:butt;stroke-linejoin:miter;stroke-opacity:1" />
    <path
       sodipodi:nodetypes="cccsccc"
       id="path2390"
       d="M 400.54751,641.7904 C 434.63619,656.72288 469.01023,672.51144 500.13841,678.56244 C 527.53778,668.30664 572.66221,652.07543 575.59767,649.06819 C 575.59767,649.06819 579.28447,643.66608 580.19418,640.64127 C 580.83391,638.51414 581.36276,606.56353 581.34331,606.55055 C 549.98626,622.37201 527.50741,621.9168 501.6706,627.61787 C 500.64914,644.75486 500.79178,663.45487 499.77034,677.62227"
       style="fill:none;fill-rule:evenodd;stroke:#000000;stroke-width:1.99672127px;stroke-linecap:butt;stroke-linejoin:miter;stroke-opacity:1" />
    <path
       sodipodi:nodetypes="cccc"
       id="path2392"
       d="M 502.26758,628.57796 L 467.96289,621.87223 C 446.38925,614.93199 422.22571,608.18618 403.61186,599.27276 L 401.11957,642.95948"
       style="fill:none;fill-rule:evenodd;stroke:#000000;stroke-width:1.99672127px;stroke-linecap:butt;stroke-linejoin:miter;stroke-opacity:1" />
    <path
       sodipodi:nodetypes="cccccc"
       id="path2394"
       d="M 501.85462,627.61785 L 502.81971,593.14408 C 490.04679,587.32476 475.62339,582.49573 460.30205,578.20545 L 456.85467,583.185 L 456.85467,609.6149 C 470.05381,618.2757 485.66486,622.94455 501.85462,627.61785 z"
       style="fill:none;fill-rule:evenodd;stroke:#000000;stroke-width:1.99672127px;stroke-linecap:butt;stroke-linejoin:miter;stroke-opacity:1" />
    <path
       sodipodi:nodetypes="cc"
       id="path2396"
       d="M 502.80975,593.3431 L 579.8261,579.92665"
       style="fill:none;fill-rule:evenodd;stroke:#000000;stroke-width:1.99672127px;stroke-linecap:butt;stroke-linejoin:miter;stroke-opacity:1" />
    <path
       sodipodi:nodetypes="cccccc"
       id="path2398"
       d="M 545.72041,532.62346 L 596.66497,523.81349 C 596.84408,540.27933 597.39539,556.89405 594.36673,572.07678 L 585.55677,576.67329 L 545.4688,584.10976 C 544.19897,568.07539 544.27258,552.73434 545.72041,532.62346 z"
       style="fill:none;fill-rule:evenodd;stroke:#000000;stroke-width:1.99672127px;stroke-linecap:butt;stroke-linejoin:miter;stroke-opacity:1" />
    <path
       sodipodi:nodetypes="ccc"
       id="path2400"
       d="M 546.48649,532.62346 C 537.97407,525.51553 533.79822,521.97808 516.60923,506.19358 L 500.88455,501.79109"
       style="fill:none;fill-rule:evenodd;stroke:#000000;stroke-width:1.99672127px;stroke-linecap:butt;stroke-linejoin:miter;stroke-opacity:1" />
    <path
       sodipodi:nodetypes="ccc"
       id="path2402"
       d="M 596.76074,523.52622 C 594.38997,511.49665 584.08048,501.95216 573.68247,493.93623 C 522.40208,495.63883 500.97051,498.23271 500.68556,501.97513"
       style="fill:none;fill-rule:evenodd;stroke:#000000;stroke-width:1.99672127px;stroke-linecap:butt;stroke-linejoin:miter;stroke-opacity:1" />
    <path
       sodipodi:nodetypes="cc"
       id="path2404"
       d="M 403.66868,598.81287 L 457.04619,608.08271"
       style="fill:none;fill-rule:evenodd;stroke:#000000;stroke-width:1.99672127px;stroke-linecap:butt;stroke-linejoin:miter;stroke-opacity:1" />
    <path
       sodipodi:nodetypes="ccc"
       id="path2406"
       d="M 403.58524,598.92253 C 403.04011,591.68268 414.58755,582.51731 440.00084,577.8224 C 445.10802,579.57808 453.26105,579.05859 456.47164,583.185"
       style="fill:none;fill-rule:evenodd;stroke:#000000;stroke-width:1.99672127px;stroke-linecap:butt;stroke-linejoin:miter;stroke-opacity:1" />
    <path
       sodipodi:nodetypes="cc"
       id="path2408"
       d="M 465.28161,573.41743 C 458.05957,571.86155 447.91539,575.40032 439.23474,577.24784"
       style="fill:none;fill-rule:evenodd;stroke:#000000;stroke-width:1.99672127px;stroke-linecap:butt;stroke-linejoin:miter;stroke-opacity:1" />
    <path
       sodipodi:nodetypes="ccc"
       id="path3180"
       d="M 500.15249,500.71975 C 497.24449,526.90205 497.63594,555.41254 500.50018,581.59485 C 515.24876,585.25753 530.89555,585.32736 547.08664,583.21996"
       style="fill:none;fill-opacity:1;fill-rule:evenodd;stroke:#000000;stroke-width:1.99672127px;stroke-linecap:butt;stroke-linejoin:miter;marker:none;marker-start:none;marker-mid:none;marker-end:none;stroke-miterlimit:4;stroke-dasharray:none;stroke-dashoffset:0;stroke-opacity:1;visibility:visible;display:inline;overflow:visible;enable-background:accumulate" />
    <path
       sodipodi:nodetypes="cccc"
       id="path3182"
       d="M 501.04187,501.96448 L 474.38508,486.83714 C 499.0163,484.09273 517.31964,480.09655 552.50367,478.67125 C 559.72637,483.91492 566.17304,489.62588 573.39574,493.49126"
       style="fill:none;fill-opacity:1;fill-rule:evenodd;stroke:#000000;stroke-width:1.99672127px;stroke-linecap:butt;stroke-linejoin:miter;marker:none;marker-start:none;marker-mid:none;marker-end:none;stroke-miterlimit:4;stroke-dasharray:none;stroke-dashoffset:0;stroke-opacity:1;visibility:visible;display:inline;overflow:visible;enable-background:accumulate" />
    <path
       sodipodi:nodetypes="ccccc"
       id="path3184"
       d="M 500.9045,581.65283 C 489.22172,581.38968 477.53894,579.55272 465.85617,575.71568 C 465.08256,550.3694 464.73926,523.86322 468.34592,499.49033 L 472.75093,486.46691 L 472.75093,486.46691"
       style="fill:none;fill-opacity:1;fill-rule:evenodd;stroke:#000000;stroke-width:1.99672127px;stroke-linecap:butt;stroke-linejoin:miter;marker:none;marker-start:none;marker-mid:none;marker-end:none;stroke-miterlimit:4;stroke-dasharray:none;stroke-dashoffset:0;stroke-opacity:1;visibility:visible;display:inline;overflow:visible;enable-background:accumulate" />
    <path
       sodipodi:nodetypes="cccccccccccccccccccccccc"
       id="path3186"
       d="M 457.78826,405.29538 C 455.29583,403.50121 440.79949,393.80071 429.53709,390.50908 C 416.65308,388.10478 405.9697,393.75893 393.24296,396.87409 C 388.46193,398.52478 382.07456,398.97071 375.90847,399.58261 C 372.37668,399.30504 368.87076,398.97833 368.86633,391.99876 C 370.47317,384.64959 371.21743,377.01288 374.82506,370.33064 C 380.5018,360.87458 385.2394,351.13677 394.32636,342.70378 C 398.44578,341.12352 399.81174,343.21455 401.91021,344.32889 C 411.80426,353.36258 413.11275,352.85564 415.04652,354.62125 C 421.99409,359.47947 425.40501,360.6839 429.53707,362.20509 C 438.19868,363.17622 443.95461,362.11335 449.03838,360.57998 C 443.86951,356.18501 437.38442,355.6221 432.51643,350.28762 C 424.47288,346.25285 421.31451,335.48916 416.53619,327.5361 C 410.7722,321.3986 405.77978,322.91721 400.69139,321.17108 C 395.40837,321.57245 390.27699,322.36912 385.25284,324.01502 C 376.86737,327.32134 371.58009,336.42082 365.61611,343.78719 C 359.64487,354.15756 351.84288,369.12581 343.94799,382.38353 C 340.96099,388.92128 340.78925,395.09574 339.07265,402.29112 C 339.8848,408.92926 341.34163,412.02163 342.86458,414.75029 C 348.5163,418.41592 354.54954,421.19135 361.28248,422.33414 C 366.58571,422.23704 372.97021,423.49152 376.99187,421.79243 C 381.20499,417.3383 385.13282,412.59888 391.07616,409.87497 C 398.47942,408.85551 406.96611,404.34398 414.36937,406.21847 C 422.14005,405.17082 428.6035,406.084 434.95411,407.16645"
       style="fill:none;fill-opacity:1;fill-rule:evenodd;stroke:#000000;stroke-width:1.99672127px;stroke-linecap:butt;stroke-linejoin:miter;marker:none;marker-start:none;marker-mid:none;marker-end:none;stroke-miterlimit:4;stroke-dasharray:none;stroke-dashoffset:0;stroke-opacity:1;visibility:visible;display:inline;overflow:visible;enable-background:accumulate" />
    <path
       sodipodi:nodetypes="ccccccccccccccccccc"
       id="path3188"
       d="M 477.30095,407.14237 C 482.43762,409.74149 479.02786,409.6905 486.06163,414.35926 C 489.1509,418.91837 493.40926,420.71833 497.45712,423.83955 C 500.3414,425.32997 504.02348,425.02536 508.94839,421.92434 C 513.62882,416.72465 515.63641,410.43648 515.4601,403.53833 C 515.50029,399.10308 515.60739,394.68122 513.16185,389.74882 C 512.06645,387.84585 509.37093,384.7673 495.92495,384.38623 C 494.32197,384.90047 485.27195,384.27507 479.07111,384.38623 C 484.87374,381.33057 489.00194,377.27023 497.07409,375.57627 C 504.69234,374.02588 512.54289,373.75115 519.03327,372.10964 C 523.0552,370.62942 526.8063,370.27102 530.82824,371.34356 C 538.92189,377.98348 535.33199,382.95727 534.99524,387.83361 C 534.07317,398.83899 530.08073,409.07677 527.3344,419.62609 C 523.63166,429.41564 519.92892,438.67665 516.22618,447.9712 C 508.63832,451.83807 506.20747,449.25867 502.43666,448.35423 C 498.45825,441.25733 494.07335,434.45843 489.03019,426.90389 C 484.78712,423.94936 479.84556,421.5769 472.5594,421.15826 C 469.12119,411.21054 462.20133,407.35514 458.0038,405.0705 C 464.74517,404.04985 471.68859,403.23783 477.42675,407.23332"
       style="fill:none;fill-opacity:1;fill-rule:evenodd;stroke:#000000;stroke-width:1.99672127px;stroke-linecap:butt;stroke-linejoin:miter;marker:none;marker-start:none;marker-mid:none;marker-end:none;stroke-miterlimit:4;stroke-dasharray:none;stroke-dashoffset:0;stroke-opacity:1;visibility:visible;display:inline;overflow:visible;enable-background:accumulate" />
    <path
       sodipodi:nodetypes="ccccc"
       id="path3190"
       d="M 502.05758,447.72646 C 503.98382,455.28763 509.73416,460.39043 516.68357,464.7224 C 511.41787,467.28048 503.9959,467.06621 496.23427,466.41522 C 485.45536,463.22186 477.69365,459.02276 472.33161,454.02378 C 471.93263,449.2278 471.13276,445.03313 471.38363,439.26236"
       style="fill:none;fill-opacity:1;fill-rule:evenodd;stroke:#000000;stroke-width:1.99672127px;stroke-linecap:butt;stroke-linejoin:miter;marker:none;marker-start:none;marker-mid:none;marker-end:none;stroke-miterlimit:4;stroke-dasharray:none;stroke-dashoffset:0;stroke-opacity:1;visibility:visible;display:inline;overflow:visible;enable-background:accumulate" />
    <path
       sodipodi:nodetypes="cc"
       id="path3192"
       d="M 477.20695,438.4498 C 483.0737,440.20134 488.49352,444.05784 491.83293,451.58611"
       style="fill:none;fill-opacity:1;fill-rule:evenodd;stroke:#000000;stroke-width:1.99672127px;stroke-linecap:butt;stroke-linejoin:miter;marker:none;marker-start:none;marker-mid:none;marker-end:none;stroke-miterlimit:4;stroke-dasharray:none;stroke-dashoffset:0;stroke-opacity:1;visibility:visible;display:inline;overflow:visible;enable-background:accumulate" />
    <path
       sodipodi:nodetypes="ccc"
       id="path3194"
       d="M 342.59373,448.06503 C 350.60234,444.9564 358.63527,441.85588 362.90759,437.50182 L 375.90847,422.06328"
       style="fill:none;fill-opacity:1;fill-rule:evenodd;stroke:#000000;stroke-width:1.99672127px;stroke-linecap:butt;stroke-linejoin:miter;marker:none;marker-start:none;marker-mid:none;marker-end:none;stroke-miterlimit:4;stroke-dasharray:none;stroke-dashoffset:0;stroke-opacity:1;visibility:visible;display:inline;overflow:visible;enable-background:accumulate" />
    <path
       sodipodi:nodetypes="ccc"
       id="path3196"
       d="M 342.86175,447.61629 C 359.02551,452.11222 376.76935,451.93623 392.43042,449.96099 C 408.06742,443.17707 421.85426,434.82763 428.18281,420.16732"
       style="fill:none;fill-opacity:1;fill-rule:evenodd;stroke:#000000;stroke-width:1.99672127px;stroke-linecap:butt;stroke-linejoin:miter;marker:none;marker-start:none;marker-mid:none;marker-end:none;stroke-miterlimit:4;stroke-dasharray:none;stroke-dashoffset:0;stroke-opacity:1;visibility:visible;display:inline;overflow:visible;enable-background:accumulate" />
    <path
       sodipodi:nodetypes="cccccc"
       id="path3198"
       d="M 369.32961,455.24897 C 366.21454,459.01068 365.75817,464.36758 365.11613,469.61307 C 375.41793,484.87496 390.05801,494.53928 400.35598,506.19358 C 402.70109,516.47935 402.09732,527.22425 406.45616,537.21997 L 415.10311,546.79601 L 419.69962,555.98901"
       style="fill:none;fill-opacity:1;fill-rule:evenodd;stroke:#000000;stroke-width:1.99672127px;stroke-linecap:butt;stroke-linejoin:miter;marker:none;marker-start:none;marker-mid:none;marker-end:none;stroke-miterlimit:4;stroke-dasharray:none;stroke-dashoffset:0;stroke-opacity:1;visibility:visible;display:inline;overflow:visible;enable-background:accumulate" />
    <path
       sodipodi:nodetypes="ccccsccc"
       id="path3200"
       d="M 359.11566,474.87934 C 359.91746,485.93447 359.16071,499.24229 357.49055,510.63175 C 365.55477,511.87643 375.51741,511.85548 381.59635,514.42366 C 392.85909,518.36859 394.58855,523.37277 400.01426,527.96625 C 400.89961,530.53215 401.06861,533.11947 401.1759,535.61022 C 401.30664,538.64587 402.73677,541.72903 403.10583,544.23378 C 407.86761,548.04841 410.2584,551.97333 413.28597,556.13479 L 414.09854,570.48994"
       style="fill:none;fill-opacity:1;fill-rule:evenodd;stroke:#000000;stroke-width:1.99672127px;stroke-linecap:butt;stroke-linejoin:miter;marker:none;marker-start:none;marker-mid:none;marker-end:none;stroke-miterlimit:4;stroke-dasharray:none;stroke-dashoffset:0;stroke-opacity:1;visibility:visible;display:inline;overflow:visible;enable-background:accumulate" />
    <path
       sodipodi:nodetypes="ccccccsccccc"
       id="path3202"
       d="M 297.89229,480.91279 C 305.04383,506.57447 310.88921,530.9395 331.98301,535.68779 C 333.02227,540.20369 334.31506,546.71676 337.35058,548.61422 C 345.77319,545.18887 352.76792,539.56079 355.34857,533.77259 L 379.09717,538.75214 C 375.26868,544.26662 372.52143,549.25543 370.86177,557.32967 C 370.08277,559.85219 372.95016,561.68404 373.74286,562.82051 C 380.53117,572.55295 388.98985,573.93369 397.10013,577.05632 C 397.99216,572.58576 397.98008,567.21109 397.86623,561.73464 L 393.65277,549.09425 C 397.86623,558.4181 402.07969,567.96706 406.29315,577.05632 C 408.85273,574.96809 412.599,574.74465 413.57094,570.16156"
       style="fill:none;fill-opacity:1;fill-rule:evenodd;stroke:#000000;stroke-width:1.99672127px;stroke-linecap:butt;stroke-linejoin:miter;marker:none;marker-start:none;marker-mid:none;marker-end:none;stroke-miterlimit:4;stroke-dasharray:none;stroke-dashoffset:0;stroke-opacity:1;visibility:visible;display:inline;overflow:visible;enable-background:accumulate" />
    <path
       sodipodi:nodetypes="cccccc"
       id="path3204"
       d="M 414.23395,566.83345 C 415.97781,569.53725 419.37238,569.80964 423.65766,570.4803 C 427.64405,567.76006 429.49927,565.12645 429.40165,560.87471 C 428.12526,553.32946 426.95668,545.76264 428.18281,537.7169 C 434.28108,537.50025 440.85442,538.02072 445.55494,535.30476 C 445.94213,533.58245 446.67259,531.97457 446.1295,529.94216"
       style="fill:none;fill-opacity:1;fill-rule:evenodd;stroke:#000000;stroke-width:1.99672127px;stroke-linecap:butt;stroke-linejoin:miter;marker:none;marker-start:none;marker-mid:none;marker-end:none;stroke-miterlimit:4;stroke-dasharray:none;stroke-dashoffset:0;stroke-opacity:1;visibility:visible;display:inline;overflow:visible;enable-background:accumulate" />
    <path
       sodipodi:nodetypes="cccccccccccccc"
       id="path3206"
       d="M 465.28159,447.2051 C 461.63614,447.34884 458.19954,450.97673 458.0038,454.48291 C 457.31022,461.9555 458.60424,467.93738 459.10098,474.51723 C 460.84526,490.06321 460.74193,495.93071 462.60031,498.53272 L 467.57986,502.74618 L 461.45118,533.38954 C 456.727,534.72333 452.00282,531.3716 447.27863,529.17608 C 441.12104,528.8015 433.75783,531.44094 429.27565,526.87783 C 427.18714,522.91973 424.3378,518.96163 424.67916,515.00353 C 425.49522,509.30241 426.80423,506.55898 428.12654,503.89531 C 422.75702,501.54962 415.9981,505.25314 411.47794,511.57969 C 411.36253,515.07947 409.99362,518.67199 413.41929,521.28648 C 421.19706,530.59351 420.79883,527.66548 424.0085,529.58135 C 427.77548,529.99412 428.35131,528.8113 429.30311,527.81647"
       style="fill:none;fill-opacity:1;fill-rule:evenodd;stroke:#000000;stroke-width:1.99672127px;stroke-linecap:butt;stroke-linejoin:miter;marker:none;marker-start:none;marker-mid:none;marker-end:none;stroke-miterlimit:4;stroke-dasharray:none;stroke-dashoffset:0;stroke-opacity:1;visibility:visible;display:inline;overflow:visible;enable-background:accumulate" />
    <path
       sodipodi:nodetypes="cc"
       id="path3208"
       d="M 467.50806,459.38626 L 472.07504,452.42251"
       style="fill:none;fill-opacity:1;fill-rule:evenodd;stroke:#000000;stroke-width:1.99672127px;stroke-linecap:butt;stroke-linejoin:miter;marker:none;marker-start:none;marker-mid:none;marker-end:none;stroke-miterlimit:4;stroke-dasharray:none;stroke-dashoffset:0;stroke-opacity:1;visibility:visible;display:inline;overflow:visible;enable-background:accumulate" />
    <path
       sodipodi:nodetypes="cccc"
       id="path3210"
       d="M 459.39637,451.52417 C 461.47574,451.21464 463.0969,452.96712 464.51297,455.64241 C 465.4086,458.79607 464.16674,461.09473 463.51461,463.62929 C 460.88347,466.29511 459.76463,466.44047 458.02363,467.62273"
       style="fill:none;fill-opacity:1;fill-rule:evenodd;stroke:#000000;stroke-width:1.99672127px;stroke-linecap:butt;stroke-linejoin:miter;marker:none;marker-start:none;marker-mid:none;marker-end:none;stroke-miterlimit:4;stroke-dasharray:none;stroke-dashoffset:0;stroke-opacity:1;visibility:visible;display:inline;overflow:visible;enable-background:accumulate" />
    <path
       sodipodi:nodetypes="ccccccc"
       id="path3212"
       d="M 439.30437,445.90839 C 436.09897,444.97824 432.59962,444.78296 428.07281,447.15634 C 422.01394,449.58475 419.75032,455.81095 416.09248,460.63421 C 416.28133,463.4629 416.49925,465.29322 417.34043,468.12191 C 420.82365,468.82063 422.93191,469.65076 427.07445,468.3715 C 432.19522,465.24055 436.35062,462.29796 439.55396,457.88872 C 441.53858,454.61192 442.46214,450.41213 439.30437,445.90839 z"
       style="fill:none;fill-opacity:1;fill-rule:evenodd;stroke:#000000;stroke-width:1.99672127px;stroke-linecap:butt;stroke-linejoin:miter;marker:none;marker-start:none;marker-mid:none;marker-end:none;stroke-miterlimit:4;stroke-dasharray:none;stroke-dashoffset:0;stroke-opacity:1;visibility:visible;display:inline;overflow:visible;enable-background:accumulate" />
    <path
       sodipodi:nodetypes="cc"
       id="path3214"
       d="M 433.3142,436.67355 C 438.13962,438.10303 442.96502,436.59834 447.79043,447.40593"
       style="fill:none;fill-opacity:1;fill-rule:evenodd;stroke:#000000;stroke-width:1.99672127px;stroke-linecap:butt;stroke-linejoin:miter;marker:none;marker-start:none;marker-mid:none;marker-end:none;stroke-miterlimit:4;stroke-dasharray:none;stroke-dashoffset:0;stroke-opacity:1;visibility:visible;display:inline;overflow:visible;enable-background:accumulate" />
    <path
       sodipodi:nodetypes="cc"
       id="path3216"
       d="M 453.48181,410.80567 C 455.1571,411.46081 457.00806,411.0619 458.24696,414.33541"
       style="fill:none;fill-opacity:1;fill-rule:evenodd;stroke:#000000;stroke-width:1.99672127px;stroke-linecap:butt;stroke-linejoin:miter;marker:none;marker-start:none;marker-mid:none;marker-end:none;stroke-miterlimit:4;stroke-dasharray:none;stroke-dashoffset:0;stroke-opacity:1;visibility:visible;display:inline;overflow:visible;enable-background:accumulate" />
    <path
       sodipodi:nodetypes="ccc"
       id="path3218"
       d="M 455.24669,415.92379 C 455.49093,417.8042 455.39137,418.85953 457.89398,426.16003 L 456.65857,425.80705"
       style="fill:none;fill-opacity:1;fill-rule:evenodd;stroke:#000000;stroke-width:1.99672127px;stroke-linecap:butt;stroke-linejoin:miter;marker:none;marker-start:none;marker-mid:none;marker-end:none;stroke-miterlimit:4;stroke-dasharray:none;stroke-dashoffset:0;stroke-opacity:1;visibility:visible;display:inline;overflow:visible;enable-background:accumulate" />
    <path
       id="path3220"
       d="M 470.24808,417.33568 L 470.24808,434.6314"
       style="fill:none;fill-opacity:1;fill-rule:evenodd;stroke:#000000;stroke-width:1.99672127px;stroke-linecap:butt;stroke-linejoin:miter;marker:none;marker-start:none;marker-mid:none;marker-end:none;stroke-miterlimit:4;stroke-dasharray:none;stroke-dashoffset:0;stroke-opacity:1;visibility:visible;display:inline;overflow:visible;enable-background:accumulate" />
    <path
       sodipodi:nodetypes="ccc"
       id="path3222"
       d="M 436.36258,520.757 C 431.14449,516.78734 434.39315,511.87695 437.4215,506.99103 C 443.53971,505.22118 449.65793,505.93892 455.77614,509.81481"
       style="fill:none;fill-opacity:1;fill-rule:evenodd;stroke:#000000;stroke-width:1.99672127px;stroke-linecap:butt;stroke-linejoin:miter;marker:none;marker-start:none;marker-mid:none;marker-end:none;stroke-miterlimit:4;stroke-dasharray:none;stroke-dashoffset:0;stroke-opacity:1;visibility:visible;display:inline;overflow:visible;enable-background:accumulate" />
    <path
       id="path3224"
       d="M 438.8334,516.52132 L 450.12857,514.0505"
       style="fill:none;fill-opacity:1;fill-rule:evenodd;stroke:#000000;stroke-width:1.99672127px;stroke-linecap:butt;stroke-linejoin:miter;marker:none;marker-start:none;marker-mid:none;marker-end:none;stroke-miterlimit:4;stroke-dasharray:none;stroke-dashoffset:0;stroke-opacity:1;visibility:visible;display:inline;overflow:visible;enable-background:accumulate" />
    <path
       sodipodi:nodetypes="cccccccccc"
       id="path3226"
       d="M 255.13711,547.22946 C 268.12305,537.79359 281.98903,530.67684 293.54371,518.03995 C 300.16656,515.41292 303.46276,518.44089 307.02158,520.53585 L 326.98879,536.01044 C 328.71797,544.85104 330.04591,553.55788 328.98551,561.46863 C 329.47499,574.77526 329.31214,587.22626 332.47978,601.87195 C 348.33093,599.75439 355.12274,599.07221 366.42404,597.40962 C 372.1232,599.28727 379.22692,599.55973 381.89863,604.89732 C 383.22948,607.89284 384.48806,610.99679 384.89371,615.38011 C 391.23642,618.237 395.26538,622.12222 397.37322,626.86126"
       style="fill:none;fill-opacity:1;fill-rule:evenodd;stroke:#000000;stroke-width:1.99672127px;stroke-linecap:butt;stroke-linejoin:miter;marker:none;marker-start:none;marker-mid:none;marker-end:none;stroke-miterlimit:4;stroke-dasharray:none;stroke-dashoffset:0;stroke-opacity:1;visibility:visible;display:inline;overflow:visible;enable-background:accumulate" />
    <path
       sodipodi:nodetypes="ccccccccccccccccccccccccccccccccccccccccccc"
       id="path3230"
       d="M 379.00434,618.53074 C 384.70286,624.33509 388.48919,628.18275 395.06465,636.17944 C 395.07787,638.61544 394.52042,640.33176 391.7114,641.82702 C 378.67748,642.75522 370.45149,641.27946 359.94376,640.94457 C 356.95413,630.50721 351.36415,625.35335 348.82508,619.94264 C 348.98613,618.52303 349.87607,617.46786 348.29563,615.1775 C 345.7036,613.89748 342.49974,615.06473 339.47128,615.53046 L 319.70475,622.58995 L 300.46768,622.58995 C 293.87008,621.9281 289.95315,619.77697 287.58414,616.76587 C 288.46569,608.9058 285.9121,599.4788 284.58384,590.29284 L 286.17224,600.17612 C 282.75348,603.49161 277.67567,603.01254 272.58275,604.23531 C 269.5995,609.24429 264.21195,613.05111 256.52244,615.70695 C 250.22364,617.96846 243.7018,618.44568 236.93239,616.94236 C 230.54578,614.64803 227.00937,612.3537 223.87237,610.05937 C 219.33492,616.56698 211.63242,619.02095 207.63557,619.41319 C 201.69729,619.14058 196.0984,619.4395 191.0458,617.8248 C 177.64152,615.24226 171.39827,608.19215 168.27899,599.99963 C 165.56958,590.16719 166.26218,581.84675 167.74953,573.87956 C 173.12597,564.49421 174.9706,553.93157 184.16281,545.81815 C 190.5207,541.23911 191.86333,534.72912 194.75203,528.34594 C 195.0501,521.75602 192.74791,515.87526 187.86904,510.69724 C 184.81889,512.04699 185.58795,508.06786 174.45603,517.05079 L 167.74953,523.22783 C 166.06092,529.01267 166.22168,538.12636 166.8671,548.11247 C 166.3013,551.99517 163.29622,555.87789 159.45465,559.7606 C 152.8658,561.40069 146.27696,564.52162 139.68812,566.99658 L 154.51301,552.34817 L 147.63002,542.28841 C 143.87159,541.86337 142.37163,536.92138 139.8646,533.99353 C 139.97264,529.07157 139.47493,523.90733 141.80596,519.87457 C 144.17543,514.93838 144.72376,509.39514 150.98328,505.75562 C 154.84502,500.71847 160.45267,498.73664 166.16115,496.93127 C 173.68917,497.81548 181.23909,496.39062 186.9866,499.93156 C 191.62943,501.69297 196.52224,505.81784 201.63502,510.87373 C 203.53981,515.99185 204.72252,521.10999 204.28232,526.2281 C 201.99576,534.84849 198.83688,543.25079 192.81067,550.93627 C 185.44612,558.05145 182.49613,566.42793 178.16226,574.40903 C 174.83436,581.53493 175.61543,589.89352 176.92685,598.41123 C 180.49388,605.78694 185.01204,608.724 189.98688,609.52992 C 194.04453,611.181 197.91579,613.29805 202.87042,612.70668 C 210.37538,610.76954 214.41587,608.39933 218.22478,606.00017"
       style="fill:none;fill-opacity:1;fill-rule:evenodd;stroke:#000000;stroke-width:1.99672127px;stroke-linecap:butt;stroke-linejoin:miter;marker:none;marker-start:none;marker-mid:none;marker-end:none;stroke-miterlimit:4;stroke-dasharray:none;stroke-dashoffset:0;stroke-opacity:1;visibility:visible;display:inline;overflow:visible;enable-background:accumulate" />
    <path
       sodipodi:nodetypes="cc"
       id="path3232"
       d="M 161.21952,511.75616 C 164.89709,506.11333 168.77964,500.61692 175.69144,497.28425"
       style="fill:none;fill-opacity:1;fill-rule:evenodd;stroke:#000000;stroke-width:1.99672127px;stroke-linecap:butt;stroke-linejoin:miter;marker:none;marker-start:none;marker-mid:none;marker-end:none;stroke-miterlimit:4;stroke-dasharray:none;stroke-dashoffset:0;stroke-opacity:1;visibility:visible;display:inline;overflow:visible;enable-background:accumulate" />
    <path
       sodipodi:nodetypes="cc"
       id="path3234"
       d="M 154.51301,521.81593 C 151.83817,516.82023 153.31018,509.3364 157.68978,500.10803"
       style="fill:none;fill-opacity:1;fill-rule:evenodd;stroke:#000000;stroke-width:1.99672127px;stroke-linecap:butt;stroke-linejoin:miter;marker:none;marker-start:none;marker-mid:none;marker-end:none;stroke-miterlimit:4;stroke-dasharray:none;stroke-dashoffset:0;stroke-opacity:1;visibility:visible;display:inline;overflow:visible;enable-background:accumulate" />
    <path
       sodipodi:nodetypes="cccc"
       id="path3236"
       d="M 152.57166,535.22892 C 153.84069,536.50167 154.85668,538.9099 155.26908,541.03928 L 157.16032,551.99519 L 154.86599,552.70113"
       style="fill:none;fill-opacity:1;fill-rule:evenodd;stroke:#000000;stroke-width:1.99672127px;stroke-linecap:butt;stroke-linejoin:miter;marker:none;marker-start:none;marker-mid:none;marker-end:none;stroke-miterlimit:4;stroke-dasharray:none;stroke-dashoffset:0;stroke-opacity:1;visibility:visible;display:inline;overflow:visible;enable-background:accumulate" />
    <path
       sodipodi:nodetypes="cc"
       id="path3238"
       d="M 161.57249,539.6411 C 162.34155,544.05471 160.5814,547.62523 158.57221,551.11276"
       style="fill:none;fill-opacity:1;fill-rule:evenodd;stroke:#000000;stroke-width:1.99672127px;stroke-linecap:butt;stroke-linejoin:miter;marker:none;marker-start:none;marker-mid:none;marker-end:none;stroke-miterlimit:4;stroke-dasharray:none;stroke-dashoffset:0;stroke-opacity:1;visibility:visible;display:inline;overflow:visible;enable-background:accumulate" />
    <path
       id="path3240"
       d="M 173.5736,511.75616 L 161.74898,523.75728"
       style="fill:none;fill-opacity:1;fill-rule:evenodd;stroke:#000000;stroke-width:1.99672127px;stroke-linecap:butt;stroke-linejoin:miter;marker:none;marker-start:none;marker-mid:none;marker-end:none;stroke-miterlimit:4;stroke-dasharray:none;stroke-dashoffset:0;stroke-opacity:1;visibility:visible;display:inline;overflow:visible;enable-background:accumulate" />
    <path
       sodipodi:nodetypes="ccccccccccc"
       id="path3242"
       d="M 217.6683,606.14527 C 213.39363,605.57461 210.40958,601.13209 207.43511,596.66085 C 205.48883,590.6461 202.02144,583.73469 203.94084,572.4506 C 207.58016,565.45141 209.23298,557.45896 211.42855,549.7379 C 213.05878,532.38577 211.99462,514.58456 217.16912,497.82314 C 216.71053,489.66276 218.37686,481.85654 221.91134,474.36167 C 229.90132,466.18581 238.42564,457.56938 248.36789,452.64732 C 255.68168,444.19345 262.42352,436.14781 272.32855,430.93298 C 278.22817,423.02195 282.60533,413.58845 291.54699,408.71946 L 301.5306,403.72765 L 339.52287,402.9516"
       style="fill:none;fill-opacity:1;fill-rule:evenodd;stroke:#000000;stroke-width:1.99672127px;stroke-linecap:butt;stroke-linejoin:miter;marker:none;marker-start:none;marker-mid:none;marker-end:none;stroke-miterlimit:4;stroke-dasharray:none;stroke-dashoffset:0;stroke-opacity:1;visibility:visible;display:inline;overflow:visible;enable-background:accumulate" />
    <path
       sodipodi:nodetypes="cc"
       id="path3244"
       d="M 271.33019,432.43052 C 268.5203,440.5006 265.33702,448.57068 268.33511,456.64077"
       style="fill:none;fill-opacity:1;fill-rule:evenodd;stroke:#000000;stroke-width:1.99672127px;stroke-linecap:butt;stroke-linejoin:miter;marker:none;marker-start:none;marker-mid:none;marker-end:none;stroke-miterlimit:4;stroke-dasharray:none;stroke-dashoffset:0;stroke-opacity:1;visibility:visible;display:inline;overflow:visible;enable-background:accumulate" />
    <path
       id="path3246"
       d="M 246.87035,454.89364 L 248.36789,468.3715"
       style="fill:none;fill-opacity:1;fill-rule:evenodd;stroke:#000000;stroke-width:1.99672127px;stroke-linecap:butt;stroke-linejoin:miter;marker:none;marker-start:none;marker-mid:none;marker-end:none;stroke-miterlimit:4;stroke-dasharray:none;stroke-dashoffset:0;stroke-opacity:1;visibility:visible;display:inline;overflow:visible;enable-background:accumulate" />
    <path
       sodipodi:nodetypes="ccc"
       id="path3248"
       d="M 280.31543,423.94446 C 284.88349,418.84661 288.57956,413.05117 296.2892,410.46659 L 303.52732,409.21864"
       style="fill:none;fill-opacity:1;fill-rule:evenodd;stroke:#000000;stroke-width:1.99672127px;stroke-linecap:butt;stroke-linejoin:miter;marker:none;marker-start:none;marker-mid:none;marker-end:none;stroke-miterlimit:4;stroke-dasharray:none;stroke-dashoffset:0;stroke-opacity:1;visibility:visible;display:inline;overflow:visible;enable-background:accumulate" />
    <path
       sodipodi:nodetypes="cc"
       id="path3250"
       d="M 579.32445,579.68872 C 581.14244,589.70759 580.67667,598.58457 579.40731,607.05977"
       style="fill:none;fill-opacity:1;fill-rule:evenodd;stroke:#000000;stroke-width:1.99672127px;stroke-linecap:butt;stroke-linejoin:miter;marker:none;marker-start:none;marker-mid:none;marker-end:none;stroke-miterlimit:4;stroke-dasharray:none;stroke-dashoffset:0;stroke-opacity:1;visibility:visible;display:inline;overflow:visible;enable-background:accumulate" />
    <path
       sodipodi:nodetypes="ccc"
       id="path3252"
       d="M 328.95179,565.11075 C 333.79013,561.05997 344.42253,556.52645 348.07916,550.11228 C 356.65324,552.52157 353.07194,541.38777 354.19412,536.75921"
       style="fill:none;fill-opacity:1;fill-rule:evenodd;stroke:#000000;stroke-width:1.99672127px;stroke-linecap:butt;stroke-linejoin:miter;marker:none;marker-start:none;marker-mid:none;marker-end:none;stroke-miterlimit:4;stroke-dasharray:none;stroke-dashoffset:0;stroke-opacity:1;visibility:visible;display:inline;overflow:visible;enable-background:accumulate" />
    <path
       sodipodi:nodetypes="ccccccccc"
       id="path3254"
       d="M 364.98309,535.66536 C 368.20657,540.07071 370.33891,547.79848 370.29269,552.85777 C 368.05566,557.48352 367.52767,562.35883 364.97642,566.98458 C 363.06681,572.92672 360.24253,572.95811 358.68674,576.06966 C 355.0261,579.29688 353.92107,583.69408 354.56851,587.55081 C 355.36292,590.38473 357.89389,592.49513 362.68019,593.66577 C 368.17906,593.47831 370.26691,591.15896 373.28777,589.42273 C 378.08284,588.02375 381.95156,588.78618 385.76728,589.67232 C 392.05248,591.29208 400.30323,598.61833 403.59732,602.23218"
       style="fill:none;fill-opacity:1;fill-rule:evenodd;stroke:#000000;stroke-width:1.99672127px;stroke-linecap:butt;stroke-linejoin:miter;marker:none;marker-start:none;marker-mid:none;marker-end:none;stroke-miterlimit:4;stroke-dasharray:none;stroke-dashoffset:0;stroke-opacity:1;visibility:visible;display:inline;overflow:visible;enable-background:accumulate" />
    <path
       sodipodi:nodetypes="cc"
       id="path3256"
       d="M 397.10847,626.45101 L 395.36234,636.34568"
       style="fill:none;fill-opacity:1;fill-rule:evenodd;stroke:#000000;stroke-width:1.99672127px;stroke-linecap:butt;stroke-linejoin:miter;marker:none;marker-start:none;marker-mid:none;marker-end:none;stroke-miterlimit:4;stroke-dasharray:none;stroke-dashoffset:0;stroke-opacity:1;visibility:visible;display:inline;overflow:visible;enable-background:accumulate" />
    <path
       sodipodi:nodetypes="cccc"
       id="path3258"
       d="M 429.63614,465.88826 C 428.91958,463.49543 428.15581,460.82823 429.50871,458.4354 C 430.93305,457.09055 430.81473,455.43718 434.55305,454.55513 C 436.8092,455.18751 439.4421,457.02897 439.64449,458.17479"
       style="fill:none;fill-opacity:1;fill-rule:evenodd;stroke:#000000;stroke-width:1.99672127px;stroke-linecap:butt;stroke-linejoin:miter;marker:none;marker-start:none;marker-mid:none;marker-end:none;stroke-miterlimit:4;stroke-dasharray:none;stroke-dashoffset:0;stroke-opacity:1;visibility:visible;display:inline;overflow:visible;enable-background:accumulate" />
    <path
       id="path3260"
       d="M 419.80804,538.1749 L 423.30029,547.87558 L 421.36015,555.05407"
       style="fill:none;fill-opacity:1;fill-rule:evenodd;stroke:#000000;stroke-width:1.99672127px;stroke-linecap:butt;stroke-linejoin:miter;marker:none;marker-start:none;marker-mid:none;marker-end:none;stroke-miterlimit:4;stroke-dasharray:none;stroke-dashoffset:0;stroke-opacity:1;visibility:visible;display:inline;overflow:visible;enable-background:accumulate" />
    <path
       sodipodi:nodetypes="ccc"
       id="path3262"
       d="M 383.33351,489.18653 C 383.41764,494.30071 384.74753,501.30293 387.4078,505.38664 C 387.78794,508.56065 383.98079,512.49258 380.22929,514.11723"
       style="fill:none;fill-opacity:1;fill-rule:evenodd;stroke:#000000;stroke-width:1.99672127px;stroke-linecap:butt;stroke-linejoin:miter;marker:none;marker-start:none;marker-mid:none;marker-end:none;stroke-miterlimit:4;stroke-dasharray:none;stroke-dashoffset:0;stroke-opacity:1;visibility:visible;display:inline;overflow:visible;enable-background:accumulate" />
    <path
       sodipodi:nodetypes="cc"
       id="path3264"
       d="M 353.84348,627.8091 C 355.01927,625.83091 358.28387,619.72496 361.02197,621.21263"
       style="fill:none;fill-opacity:1;fill-rule:evenodd;stroke:#000000;stroke-width:1.99672127px;stroke-linecap:butt;stroke-linejoin:miter;marker:none;marker-start:none;marker-mid:none;marker-end:none;stroke-miterlimit:4;stroke-dasharray:none;stroke-dashoffset:0;stroke-opacity:1;visibility:visible;display:inline;overflow:visible;enable-background:accumulate" />
    <path
       sodipodi:nodetypes="cc"
       id="path3266"
       d="M 360.43995,621.21263 C 362.35909,620.17789 364.27509,618.36711 363.73817,617.33238"
       style="fill:none;fill-opacity:1;fill-rule:evenodd;stroke:#000000;stroke-width:1.99672127px;stroke-linecap:butt;stroke-linejoin:miter;marker:none;marker-start:none;marker-mid:none;marker-end:none;stroke-miterlimit:4;stroke-dasharray:none;stroke-dashoffset:0;stroke-opacity:1;visibility:visible;display:inline;overflow:visible;enable-background:accumulate" />
    <path
       sodipodi:nodetypes="cc"
       id="path3268"
       d="M 369.36455,621.9887 C 370.34576,617.22754 371.75159,615.86324 373.24482,615.19823"
       style="fill:none;fill-opacity:1;fill-rule:evenodd;stroke:#000000;stroke-width:1.99672127px;stroke-linecap:butt;stroke-linejoin:miter;marker:none;marker-start:none;marker-mid:none;marker-end:none;stroke-miterlimit:4;stroke-dasharray:none;stroke-dashoffset:0;stroke-opacity:1;visibility:visible;display:inline;overflow:visible;enable-background:accumulate" />
    <path
       sodipodi:nodetypes="cc"
       id="path3270"
       d="M 387.21378,535.07068 C 385.05467,537.45519 383.74685,540.12346 383.13951,543.02524"
       style="fill:none;fill-opacity:1;fill-rule:evenodd;stroke:#000000;stroke-width:1.99672127px;stroke-linecap:butt;stroke-linejoin:miter;marker:none;marker-start:none;marker-mid:none;marker-end:none;stroke-miterlimit:4;stroke-dasharray:none;stroke-dashoffset:0;stroke-opacity:1;visibility:visible;display:inline;overflow:visible;enable-background:accumulate" />
    <path
       sodipodi:nodetypes="cc"
       id="path3272"
       d="M 392.25814,533.13055 C 391.99858,535.87841 391.33442,539.38993 389.15392,540.69708"
       style="fill:none;fill-opacity:1;fill-rule:evenodd;stroke:#000000;stroke-width:1.99672127px;stroke-linecap:butt;stroke-linejoin:miter;marker:none;marker-start:none;marker-mid:none;marker-end:none;stroke-miterlimit:4;stroke-dasharray:none;stroke-dashoffset:0;stroke-opacity:1;visibility:visible;display:inline;overflow:visible;enable-background:accumulate" />
    <path
       sodipodi:nodetypes="cc"
       id="path3274"
       d="M 395.75038,534.29464 C 396.56007,536.26754 396.10001,538.26989 395.36236,539.72702"
       style="fill:none;fill-opacity:1;fill-rule:evenodd;stroke:#000000;stroke-width:1.99672127px;stroke-linecap:butt;stroke-linejoin:miter;marker:none;marker-start:none;marker-mid:none;marker-end:none;stroke-miterlimit:4;stroke-dasharray:none;stroke-dashoffset:0;stroke-opacity:1;visibility:visible;display:inline;overflow:visible;enable-background:accumulate" />
    <path
       id="path3276"
       d="M 446.38875,397.86068 L 445.97719,404.5829"
       style="fill:none;fill-opacity:1;fill-rule:evenodd;stroke:#000000;stroke-width:1.99672127px;stroke-linecap:butt;stroke-linejoin:miter;marker:none;marker-start:none;marker-mid:none;marker-end:none;stroke-miterlimit:4;stroke-dasharray:none;stroke-dashoffset:0;stroke-opacity:1;visibility:visible;display:inline;overflow:visible;enable-background:accumulate" />
    <path
       sodipodi:nodetypes="ccc"
       id="path3278"
       d="M 434.45339,406.9151 C 435.2158,407.2352 437.64395,407.55531 439.80373,407.87542 C 438.93931,403.88366 437.08275,402.86825 435.13933,402.11351"
       style="fill:none;fill-opacity:1;fill-rule:evenodd;stroke:#000000;stroke-width:1.99672127px;stroke-linecap:butt;stroke-linejoin:miter;marker:none;marker-start:none;marker-mid:none;marker-end:none;stroke-miterlimit:4;stroke-dasharray:none;stroke-dashoffset:0;stroke-opacity:1;visibility:visible;display:inline;overflow:visible;enable-background:accumulate" />
    <path
       sodipodi:nodetypes="cc"
       id="path3280"
       d="M 336.96431,549.13666 C 336.24242,552.09317 332.13626,556.08829 329.6044,558.26909"
       style="fill:none;fill-opacity:1;fill-rule:evenodd;stroke:#000000;stroke-width:1.99672127px;stroke-linecap:butt;stroke-linejoin:miter;marker:none;marker-start:none;marker-mid:none;marker-end:none;stroke-miterlimit:4;stroke-dasharray:none;stroke-dashoffset:0;stroke-opacity:1;visibility:visible;display:inline;overflow:visible;enable-background:accumulate" />
    <path
       sodipodi:nodetypes="cc"
       id="path3282"
       d="M 412.09171,518.72346 L 420.04863,512.13844"
       style="fill:none;fill-opacity:1;fill-rule:evenodd;stroke:#000000;stroke-width:1.99672127px;stroke-linecap:butt;stroke-linejoin:miter;marker:none;marker-start:none;marker-mid:none;marker-end:none;stroke-miterlimit:4;stroke-dasharray:none;stroke-dashoffset:0;stroke-opacity:1;visibility:visible;display:inline;overflow:visible;enable-background:accumulate" />
    <path
       sodipodi:nodetypes="cc"
       id="path3284"
       d="M 418.95111,527.22916 L 421.69488,520.64411"
       style="fill:none;fill-opacity:1;fill-rule:evenodd;stroke:#000000;stroke-width:1.99672127px;stroke-linecap:butt;stroke-linejoin:miter;marker:none;marker-start:none;marker-mid:none;marker-end:none;stroke-miterlimit:4;stroke-dasharray:none;stroke-dashoffset:0;stroke-opacity:1;visibility:visible;display:inline;overflow:visible;enable-background:accumulate" />
    <text
       transform="matrix(0.9862585,0,0,1.0098491,19.891557,17.478815)"
       id="text3314"
       style="font-size:48.64871216px;font-style:normal;font-variant:normal;font-weight:normal;font-stretch:normal;fill:#000000;fill-opacity:1;stroke:none;stroke-width:1px;stroke-linecap:butt;stroke-linejoin:miter;stroke-opacity:1;font-family:DejaVu Serif;-inkscape-font-specification:DejaVu Serif"
       xml:space="preserve"><textPath
         id="textPath3445"
         xlink:href="#path3336"><tspan
   style="stroke:none;stroke-opacity:1"
   id="tspan3316">GNU's Not Unix</tspan></textPath></text>
    <path
       sodipodi:nodetypes="cc"
       id="path3336"
       d="M 188.02288,347.58716 C 305.77772,244.44471 457.92561,244.95457 573.07862,348.04176"
       style="fill:none;fill-opacity:1;fill-rule:evenodd;stroke:none;stroke-width:1.99672127px;stroke-linecap:butt;stroke-linejoin:miter;marker:none;marker-start:none;marker-mid:none;marker-end:none;stroke-miterlimit:4;stroke-dasharray:none;stroke-dashoffset:0;stroke-opacity:1;visibility:visible;display:inline;overflow:visible;enable-background:accumulate" />
    <text
       transform="scale(0.9718737,1.0289403)"
       id="text3351"
       y="700.44946"
       x="148.41359"
       style="font-size:36.10875702px;font-style:normal;font-variant:normal;font-weight:normal;font-stretch:normal;fill:#000000;fill-opacity:1;stroke:none;stroke-width:1px;stroke-linecap:butt;stroke-linejoin:miter;stroke-opacity:1;font-family:DejaVu Serif;-inkscape-font-specification:DejaVu Serif"
       xml:space="preserve"><tspan
         y="700.44946"
         x="148.41359"
         id="tspan3353"
         sodipodi:role="line">Free Software Foundation</tspan></text>
  </g>
</svg>
