<?xml version="1.0" encoding="UTF-8" standalone="no"?>
<!-- Created with Inkscape (http://www.inkscape.org/) -->

<svg
   xmlns:dc="http://purl.org/dc/elements/1.1/"
   xmlns:cc="http://creativecommons.org/ns#"
   xmlns:rdf="http://www.w3.org/1999/02/22-rdf-syntax-ns#"
   xmlns:svg="http://www.w3.org/2000/svg"
   xmlns="http://www.w3.org/2000/svg"
   xmlns:sodipodi="http://sodipodi.sourceforge.net/DTD/sodipodi-0.dtd"
   xmlns:inkscape="http://www.inkscape.org/namespaces/inkscape"
   width="480"
   height="480"
   id="svg3486"
   sodipodi:version="0.32"
   inkscape:version="0.47pre4 r22446"
   version="1.0"
   sodipodi:docname="gnu_hornedword.svg"
   inkscape:output_extension="org.inkscape.output.svg.inkscape"
   inkscape:export-filename="/home/vladimir/vectorizados/gnuposter.png"
   inkscape:export-xdpi="90"
   inkscape:export-ydpi="90">
  <defs
     id="defs3488">
    <inkscape:perspective
       sodipodi:type="inkscape:persp3d"
       inkscape:vp_x="0 : 320 : 1"
       inkscape:vp_y="0 : 1000 : 0"
       inkscape:vp_z="480 : 320 : 1"
       inkscape:persp3d-origin="240 : 213.33333 : 1"
       id="perspective67" />
    <inkscape:perspective
       id="perspective6786"
       inkscape:persp3d-origin="0.5 : 0.33333333 : 1"
       inkscape:vp_z="1 : 0.5 : 1"
       inkscape:vp_y="0 : 1000 : 0"
       inkscape:vp_x="0 : 0.5 : 1"
       sodipodi:type="inkscape:persp3d" />
    <inkscape:perspective
       id="perspective2968"
       inkscape:persp3d-origin="0.5 : 0.33333333 : 1"
       inkscape:vp_z="1 : 0.5 : 1"
       inkscape:vp_y="0 : 1000 : 0"
       inkscape:vp_x="0 : 0.5 : 1"
       sodipodi:type="inkscape:persp3d" />
    <inkscape:perspective
       id="perspective2996"
       inkscape:persp3d-origin="0.5 : 0.33333333 : 1"
       inkscape:vp_z="1 : 0.5 : 1"
       inkscape:vp_y="0 : 1000 : 0"
       inkscape:vp_x="0 : 0.5 : 1"
       sodipodi:type="inkscape:persp3d" />
    <inkscape:perspective
       id="perspective3800"
       inkscape:persp3d-origin="0.5 : 0.33333333 : 1"
       inkscape:vp_z="1 : 0.5 : 1"
       inkscape:vp_y="0 : 1000 : 0"
       inkscape:vp_x="0 : 0.5 : 1"
       sodipodi:type="inkscape:persp3d" />
    <inkscape:perspective
       id="perspective3822"
       inkscape:persp3d-origin="0.5 : 0.33333333 : 1"
       inkscape:vp_z="1 : 0.5 : 1"
       inkscape:vp_y="0 : 1000 : 0"
       inkscape:vp_x="0 : 0.5 : 1"
       sodipodi:type="inkscape:persp3d" />
    <inkscape:perspective
       id="perspective3844"
       inkscape:persp3d-origin="0.5 : 0.33333333 : 1"
       inkscape:vp_z="1 : 0.5 : 1"
       inkscape:vp_y="0 : 1000 : 0"
       inkscape:vp_x="0 : 0.5 : 1"
       sodipodi:type="inkscape:persp3d" />
    <inkscape:perspective
       id="perspective3866"
       inkscape:persp3d-origin="0.5 : 0.33333333 : 1"
       inkscape:vp_z="1 : 0.5 : 1"
       inkscape:vp_y="0 : 1000 : 0"
       inkscape:vp_x="0 : 0.5 : 1"
       sodipodi:type="inkscape:persp3d" />
    <inkscape:perspective
       id="perspective3888"
       inkscape:persp3d-origin="0.5 : 0.33333333 : 1"
       inkscape:vp_z="1 : 0.5 : 1"
       inkscape:vp_y="0 : 1000 : 0"
       inkscape:vp_x="0 : 0.5 : 1"
       sodipodi:type="inkscape:persp3d" />
    <inkscape:perspective
       id="perspective6805"
       inkscape:persp3d-origin="0.5 : 0.33333333 : 1"
       inkscape:vp_z="1 : 0.5 : 1"
       inkscape:vp_y="0 : 1000 : 0"
       inkscape:vp_x="0 : 0.5 : 1"
       sodipodi:type="inkscape:persp3d" />
  </defs>
  <sodipodi:namedview
     id="base"
     pagecolor="#ffffff"
     bordercolor="#666666"
     borderopacity="1.0"
     inkscape:pageopacity="0.0"
     inkscape:pageshadow="2"
     inkscape:zoom="0.48613591"
     inkscape:cx="328.56639"
     inkscape:cy="250.71337"
     inkscape:current-layer="layer1"
     inkscape:document-units="px"
     width="480px"
     height="480px"
     inkscape:window-width="960"
     inkscape:window-height="689"
     inkscape:window-x="64"
     inkscape:window-y="0"
     showgrid="false"
     inkscape:window-maximized="1" />
  <metadata
     id="metadata3491">
    <rdf:RDF>
      <cc:Work
         rdf:about="">
        <dc:format>image/svg+xml</dc:format>
        <dc:type
           rdf:resource="http://purl.org/dc/dcmitype/StillImage" />
        <cc:license
           rdf:resource="http://creativecommons.org/licenses/by/2.5/" />
        <dc:title />
        <dc:date>05022008</dc:date>
        <dc:creator>
          <cc:Agent>
            <dc:title>Vladimir Zúñiga Concha</dc:title>
          </cc:Agent>
        </dc:creator>
      </cc:Work>
      <cc:License
         rdf:about="http://creativecommons.org/licenses/by/2.5/">
        <cc:permits
           rdf:resource="http://web.resource.org/cc/Reproduction" />
        <cc:permits
           rdf:resource="http://web.resource.org/cc/Distribution" />
        <cc:requires
           rdf:resource="http://web.resource.org/cc/Notice" />
        <cc:requires
           rdf:resource="http://web.resource.org/cc/Attribution" />
        <cc:permits
           rdf:resource="http://web.resource.org/cc/DerivativeWorks" />
      </cc:License>
    </rdf:RDF>
  </metadata>
  <g
     id="layer1"
     inkscape:label="Layer 1"
     inkscape:groupmode="layer"
     transform="translate(0,-160)">
    <g
       transform="matrix(0.7827199,0,0,0.58599744,386.83815,205.76936)"
       style="font-size:386.80804443px;font-style:normal;font-weight:normal;line-height:125%;fill:#000000;fill-opacity:1;stroke:none;font-family:Seabird Light SF;-inkscape-font-specification:Seabird Light SF"
       id="text3851">
      <path
         d="m -299.6483,517.89498 c -17.01959,0 -28.49488,-3.09447 -34.42591,-9.2834 -5.6732,-6.44678 -8.50979,-18.82463 -8.50978,-37.13357 l 0.38681,-222.41462 c -10e-6,-13.1512 3.09445,-22.82139 9.28339,-29.01061 6.1889,-6.18862 16.37484,-9.28308 30.55784,-9.28339 3.09441,3.1e-4 5.54419,3.1e-4 7.34935,0 2.06292,3.1e-4 9.02545,1.03179 20.88764,3.09446 11.86202,1.80541 17.79307,13.2807 17.79317,34.42592 l 0,51.05866 -28.6238,0 0,-63.82332 -29.0106,0 0,258.00096 29.0106,0 0,-129.58069 -14.3119,0 0,-23.20849 42.9357,0 0,139.63771 c -1e-4,13.92511 -3.2235,23.72424 -9.67021,29.39741 -6.18901,5.41531 -17.40643,8.12297 -33.6523,8.12297"
         style="font-variant:normal;font-stretch:normal;text-align:start;line-height:125%;writing-mode:lr-tb;text-anchor:start;font-family:Skyscraper SF;-inkscape-font-specification:Skyscraper SF"
         id="path3856" />
      <path
         d="m -205.92591,515.96094 -28.6238,0 0,-266.89755 c -1e-5,-13.1512 3.09445,-22.82139 9.28339,-29.01061 6.18891,-6.18862 16.50378,-9.28308 30.94465,-9.28339 3.61015,3.1e-4 7.34929,3.1e-4 11.21743,0 3.61014,0.77392 10.31481,1.93434 20.11402,3.48127 9.79904,1.54754 14.69861,12.89389 14.6987,34.03911 l 0,267.67117 -28.62379,0 0,-280.43583 -29.0106,0 0,280.43583"
         style="font-variant:normal;font-stretch:normal;text-align:start;line-height:125%;writing-mode:lr-tb;text-anchor:start;font-family:Skyscraper SF;-inkscape-font-specification:Skyscraper SF"
         id="path3858" />
      <path
         d="m -99.438868,516.73455 c -18.308932,-2.32084 -27.463382,-14.18294 -27.463372,-35.58634 l 0.38681,-268.05797 28.623794,0 0,280.43583 28.623795,0 0,-280.43583 28.623796,0 0,267.28436 c -9.7e-5,12.63575 -3.094559,22.17701 -9.283393,28.62379 -6.189011,6.4468 -15.988138,9.6702 -29.397412,9.6702 -3.352391,0 -6.188981,-0.12893 -8.509777,-0.3868 -2.320895,-0.25788 -6.188972,-0.77362 -11.604241,-1.54724"
         style="font-variant:normal;font-stretch:normal;text-align:start;line-height:125%;writing-mode:lr-tb;text-anchor:start;font-family:Skyscraper SF;-inkscape-font-specification:Skyscraper SF"
         id="path3860" />
    </g>
    <g
       transform="scale(1.0767564,0.92871515)"
       style="font-size:57.90194321px;font-style:normal;font-variant:normal;font-weight:normal;font-stretch:normal;text-indent:0;text-align:start;text-decoration:none;line-height:125%;letter-spacing:normal;word-spacing:normal;text-transform:none;direction:ltr;block-progression:tb;writing-mode:lr-tb;text-anchor:start;color:#000000;fill:#000000;fill-opacity:1;fill-rule:nonzero;stroke:none;marker:none;visibility:visible;display:inline;overflow:visible;enable-background:accumulate;font-family:Skyscraper SF;-inkscape-font-specification:Skyscraper SF"
       id="text2954">
      <path
         d="m 115.1817,608.31879 -4.05313,0 0,-31.55656 4.05313,0 0,1.56335 c 0.1158,-0.19298 0.27021,-0.36668 0.46322,-0.52112 0.193,-0.15437 0.38601,-0.28948 0.57902,-0.40531 0.2316,-0.15438 0.52111,-0.30878 0.86853,-0.46322 0.386,-0.19297 0.81062,-0.32808 1.27384,-0.40531 0.46321,-0.0772 0.90712,-0.11577 1.33175,-0.1158 2.31606,3e-5 3.4741,1.31247 3.47411,3.93733 l 0,5.32698 -4.05313,0 0,-5.55859 -3.93734,0 0,28.19825"
         style="marker:none"
         id="path5256" />
      <path
         d="m 130.52029,608.49249 c -0.54042,0.11581 -1.02294,0.17371 -1.44755,0.17371 -2.27748,0 -3.41621,-1.31244 -3.41621,-3.93733 l 0,-27.96664 4.05313,0 0,28.19824 3.93734,0 0,-28.19824 4.05313,0 0,31.55656 -4.05313,0 0,-1.50545 -0.92644,0.81062 c -0.69483,0.46322 -1.42825,0.75273 -2.20027,0.86853"
         style="marker:none"
         id="path5258" />
      <path
         d="m 145.26357,608.31879 -4.05313,0 0,-31.55656 4.05313,0 0,1.56335 c 0.1158,-0.19298 0.2702,-0.36668 0.46322,-0.52112 0.193,-0.15437 0.386,-0.28948 0.57902,-0.40531 0.2316,-0.15438 0.52111,-0.30878 0.86853,-0.46322 0.386,-0.19297 0.81061,-0.32808 1.27384,-0.40531 0.4632,-0.0772 0.90712,-0.11577 1.33174,-0.1158 2.31607,3e-5 3.47411,1.31247 3.47412,3.93733 l 0,27.96664 -4.05314,0 0,-28.19825 -3.93733,0 0,28.19825"
         style="marker:none"
         id="path5260" />
      <path
         d="m 167.84624,580.29425 -3.41622,0 0,-3.53202 3.41622,0 0,-7.93257 c -1e-5,-2.39324 0.42461,-4.01449 1.27384,-4.86376 0.84922,-0.84919 2.43187,-1.2738 4.74796,-1.27384 2.20026,4e-5 3.70571,0.42465 4.51635,1.27384 0.81061,0.84927 1.21593,2.47052 1.21594,4.86376 l 0,4.45845 -3.76363,0 0,-6.94823 -3.99523,0 0,10.42235 3.99523,0 0,3.53202 -3.99523,0 0,28.02454 -3.99523,0 0,-28.02454"
         style="marker:none"
         id="path5262" />
      <path
         d="m 182.357,608.31879 -4.05313,0 0,-31.55656 4.05313,0 0,1.56335 c 0.1158,-0.19298 0.27021,-0.36668 0.46322,-0.52112 0.193,-0.15437 0.38601,-0.28948 0.57902,-0.40531 0.2316,-0.15438 0.52111,-0.30878 0.86853,-0.46322 0.386,-0.19297 0.81062,-0.32808 1.27384,-0.40531 0.46321,-0.0772 0.90712,-0.11577 1.33175,-0.1158 2.31606,3e-5 3.4741,1.31247 3.47411,3.93733 l 0,5.32698 -4.05313,0 0,-5.55859 -3.93734,0 0,28.19825"
         style="marker:none"
         id="path5264" />
      <path
         d="m 198.91153,608.6083 c -2.27748,0 -3.86013,-0.38602 -4.74795,-1.15804 -0.88784,-0.77203 -1.33175,-2.14237 -1.33175,-4.11104 l 0,-21.71323 c 0,-2.97227 0.84923,-4.59352 2.54769,-4.86376 1.69845,-0.27018 3.01089,-0.40528 3.93733,-0.40532 1.96865,4e-5 3.3776,0.44395 4.22684,1.33175 0.88782,0.84926 1.33173,2.2003 1.33175,4.05313 l 0,11.46459 -7.99047,0 0,11.75409 3.93733,0 0,-7.29564 4.05314,0 0,5.79019 c -2e-5,1.85287 -0.46323,3.18461 -1.38965,3.99524 -0.88784,0.77202 -2.41259,1.15804 -4.57426,1.15804 m -2.02656,-18.93394 3.93733,0 0,-9.55382 -3.93733,0 0,9.55382"
         style="marker:none"
         id="path5266" />
      <path
         d="m 214.06556,608.6083 c -2.27748,0 -3.86014,-0.38602 -4.74796,-1.15804 -0.88783,-0.77203 -1.33175,-2.14237 -1.33175,-4.11104 l 0,-21.71323 c 0,-2.97227 0.84923,-4.59352 2.54769,-4.86376 1.69845,-0.27018 3.01089,-0.40528 3.93733,-0.40532 1.96866,4e-5 3.3776,0.44395 4.22684,1.33175 0.88782,0.84926 1.33173,2.2003 1.33175,4.05313 l 0,11.46459 -7.99047,0 0,11.75409 3.93733,0 0,-7.29564 4.05314,0 0,5.79019 c -2e-5,1.85287 -0.46323,3.18461 -1.38965,3.99524 -0.88784,0.77202 -2.41259,1.15804 -4.57425,1.15804 m -2.02657,-18.93394 3.93733,0 0,-9.55382 -3.93733,0 0,9.55382"
         style="marker:none"
         id="path5268" />
    </g>
    <g
       transform="scale(1.0767564,0.92871515)"
       style="font-size:57.90194321px;font-style:normal;font-variant:normal;font-weight:normal;font-stretch:normal;text-indent:0;text-align:start;text-decoration:none;line-height:125%;letter-spacing:normal;word-spacing:normal;text-transform:none;direction:ltr;block-progression:tb;writing-mode:lr-tb;text-anchor:start;color:#000000;fill:#000000;fill-opacity:1;fill-rule:nonzero;stroke:none;marker:none;visibility:visible;display:inline;overflow:visible;enable-background:accumulate;font-family:Skyscraper SF;-inkscape-font-specification:Skyscraper SF"
       id="text2954-6">
      <path
         d="m 245.16684,608.31879 -4.05313,0 0,-31.55656 4.05313,0 0,1.56335 c 0.1158,-0.19298 0.27021,-0.36668 0.46322,-0.52112 0.193,-0.15437 0.386,-0.28948 0.57902,-0.40531 0.2316,-0.15438 0.52111,-0.30878 0.86853,-0.46322 0.386,-0.19297 0.81062,-0.32808 1.27384,-0.40531 0.46321,-0.0772 0.90712,-0.11577 1.33174,-0.1158 2.31607,3e-5 3.47411,1.31247 3.47412,3.93733 l 0,5.32698 -4.05314,0 0,-5.55859 -3.93733,0 0,28.19825"
         style="marker:none"
         id="path5243" />
      <path
         d="m 260.50543,608.49249 c -0.54043,0.11581 -1.02294,0.17371 -1.44755,0.17371 -2.27748,0 -3.41622,-1.31244 -3.41621,-3.93733 l 0,-27.96664 4.05313,0 0,28.19824 3.93733,0 0,-28.19824 4.05314,0 0,31.55656 -4.05314,0 0,-1.50545 -0.92643,0.81062 c -0.69483,0.46322 -1.42825,0.75273 -2.20027,0.86853"
         style="marker:none"
         id="path5245" />
      <path
         d="m 275.24871,608.31879 -4.05314,0 0,-31.55656 4.05314,0 0,1.56335 c 0.1158,-0.19298 0.2702,-0.36668 0.46322,-0.52112 0.193,-0.15437 0.386,-0.28948 0.57901,-0.40531 0.23161,-0.15438 0.52111,-0.30878 0.86853,-0.46322 0.38601,-0.19297 0.81062,-0.32808 1.27385,-0.40531 0.4632,-0.0772 0.90712,-0.11577 1.33174,-0.1158 2.31607,3e-5 3.4741,1.31247 3.47412,3.93733 l 0,27.96664 -4.05314,0 0,-28.19825 -3.93733,0 0,28.19825"
         style="marker:none"
         id="path5247" />
      <path
         d="m 301.6529,608.6083 c -2.54769,0 -4.26544,-0.46322 -5.15327,-1.38965 -0.84923,-0.96503 -1.27384,-2.81789 -1.27384,-5.55859 l 0.0579,-33.29361 c 0,-1.96863 0.46321,-3.41618 1.38965,-4.34265 0.92642,-0.92639 2.45117,-1.3896 4.57425,-1.38965 0.46321,5e-5 0.82992,5e-5 1.10014,0 0.3088,5e-5 1.35103,0.15445 3.1267,0.46322 1.77565,0.27025 2.66348,1.98801 2.66349,5.15327 l 0,7.64306 -4.28474,0 0,-9.55382 -4.34265,0 0,38.62059 4.34265,0 0,-19.39715 -2.14238,0 0,-3.47411 6.42712,0 0,20.9026 c -1e-5,2.08447 -0.48253,3.55132 -1.44755,4.40055 -0.92644,0.81062 -2.6056,1.21594 -5.03747,1.21594"
         style="marker:none"
         id="path5249" />
      <path
         d="m 315.68236,608.31879 -4.28474,0 0,-39.95234 c -1e-5,-1.96863 0.46321,-3.41618 1.38964,-4.34265 0.92643,-0.92639 2.47048,-1.3896 4.63216,-1.38965 0.54041,5e-5 1.10013,5e-5 1.67915,0 0.54041,0.11585 1.54405,0.28956 3.01091,0.52112 1.46683,0.23165 2.20026,1.93011 2.20027,5.09537 l 0,40.06815 -4.28474,0 0,-41.97891 -4.34265,0 0,41.97891"
         style="marker:none"
         id="path5251" />
      <path
         d="m 331.62258,608.43459 c -2.74069,-0.34741 -4.11104,-2.12307 -4.11104,-5.32698 l 0.0579,-40.12604 4.28474,0 0,41.9789 4.28474,0 0,-41.9789 4.28475,0 0,40.01024 c -2e-5,1.89146 -0.46323,3.31971 -1.38965,4.28474 -0.92644,0.96503 -2.39329,1.44755 -4.40055,1.44755 -0.50182,0 -0.92644,-0.0193 -1.27384,-0.0579 -0.34742,-0.0386 -0.92644,-0.11581 -1.73706,-0.23161"
         style="marker:none"
         id="path5253" />
    </g>
    <g
       id="g3911"
       transform="matrix(1.289845,0,0,1.289845,-301.09455,-65.005826)">
      <path
         transform="translate(-5.7220459e-6,160.64541)"
         style="color:#000000;fill:#000000;fill-opacity:1;fill-rule:nonzero;stroke:none;stroke-width:1px;marker:none;visibility:visible;display:inline;overflow:visible;enable-background:accumulate"
         d="m 371.74468,347.04965 c 0,2.13864 -1.66146,3.87234 -3.71099,3.87234 -2.04952,0 -3.71099,-1.7337 -3.71099,-3.87234 0,-2.13863 1.66147,-3.87234 3.71099,-3.87234 2.04953,0 3.71099,1.73371 3.71099,3.87234 z"
         id="path3790" />
      <path
         transform="matrix(1.2582418,0,0,1.2582418,-84.335059,71.022681)"
         style="color:#000000;fill:#000000;fill-opacity:1;fill-rule:nonzero;stroke:none;stroke-width:1px;marker:none;visibility:visible;display:inline;overflow:visible;enable-background:accumulate"
         d="m 371.74468,347.04965 c 0,2.13864 -1.66146,3.87234 -3.71099,3.87234 -2.04952,0 -3.71099,-1.7337 -3.71099,-3.87234 0,-2.13863 1.66147,-3.87234 3.71099,-3.87234 2.04953,0 3.71099,1.73371 3.71099,3.87234 z"
         id="path3790-1" />
      <path
         transform="matrix(1.5164836,0,0,1.5164836,-166.75346,-18.600046)"
         style="color:#000000;fill:#000000;fill-opacity:1;fill-rule:nonzero;stroke:none;stroke-width:1px;marker:none;visibility:visible;display:inline;overflow:visible;enable-background:accumulate"
         d="m 371.74468,347.04965 c 0,2.13864 -1.66146,3.87234 -3.71099,3.87234 -2.04952,0 -3.71099,-1.7337 -3.71099,-3.87234 0,-2.13863 1.66147,-3.87234 3.71099,-3.87234 2.04953,0 3.71099,1.73371 3.71099,3.87234 z"
         id="path3790-1-8" />
      <path
         transform="matrix(1.7747254,0,0,1.7747254,-247.25521,-108.22277)"
         style="color:#000000;fill:#000000;fill-opacity:1;fill-rule:nonzero;stroke:none;stroke-width:1px;marker:none;visibility:visible;display:inline;overflow:visible;enable-background:accumulate"
         d="m 371.74468,347.04965 c 0,2.13864 -1.66146,3.87234 -3.71099,3.87234 -2.04952,0 -3.71099,-1.7337 -3.71099,-3.87234 0,-2.13863 1.66147,-3.87234 3.71099,-3.87234 2.04953,0 3.71099,1.73371 3.71099,3.87234 z"
         id="path3790-1-8-7" />
      <path
         transform="matrix(2.0329672,0,0,2.0329672,-325.84027,-197.8455)"
         style="color:#000000;fill:#000000;fill-opacity:1;fill-rule:nonzero;stroke:none;stroke-width:1px;marker:none;visibility:visible;display:inline;overflow:visible;enable-background:accumulate"
         d="m 371.74468,347.04965 c 0,2.13864 -1.66146,3.87234 -3.71099,3.87234 -2.04952,0 -3.71099,-1.7337 -3.71099,-3.87234 0,-2.13863 1.66147,-3.87234 3.71099,-3.87234 2.04953,0 3.71099,1.73371 3.71099,3.87234 z"
         id="path3790-1-8-7-9" />
      <path
         transform="matrix(-1,0,0,1,844.72031,160.64541)"
         style="color:#000000;fill:#000000;fill-opacity:1;fill-rule:nonzero;stroke:none;stroke-width:1px;marker:none;visibility:visible;display:inline;overflow:visible;enable-background:accumulate"
         d="m 371.74468,347.04965 c 0,2.13864 -1.66146,3.87234 -3.71099,3.87234 -2.04952,0 -3.71099,-1.7337 -3.71099,-3.87234 0,-2.13863 1.66147,-3.87234 3.71099,-3.87234 2.04953,0 3.71099,1.73371 3.71099,3.87234 z"
         id="path3790-2" />
      <path
         transform="matrix(-1.2582418,0,0,1.2582418,929.05537,71.022681)"
         style="color:#000000;fill:#000000;fill-opacity:1;fill-rule:nonzero;stroke:none;stroke-width:1px;marker:none;visibility:visible;display:inline;overflow:visible;enable-background:accumulate"
         d="m 371.74468,347.04965 c 0,2.13864 -1.66146,3.87234 -3.71099,3.87234 -2.04952,0 -3.71099,-1.7337 -3.71099,-3.87234 0,-2.13863 1.66147,-3.87234 3.71099,-3.87234 2.04953,0 3.71099,1.73371 3.71099,3.87234 z"
         id="path3790-1-0" />
      <path
         transform="matrix(-1.5164836,0,0,1.5164836,1011.4738,-18.600046)"
         style="color:#000000;fill:#000000;fill-opacity:1;fill-rule:nonzero;stroke:none;stroke-width:1px;marker:none;visibility:visible;display:inline;overflow:visible;enable-background:accumulate"
         d="m 371.74468,347.04965 c 0,2.13864 -1.66146,3.87234 -3.71099,3.87234 -2.04952,0 -3.71099,-1.7337 -3.71099,-3.87234 0,-2.13863 1.66147,-3.87234 3.71099,-3.87234 2.04953,0 3.71099,1.73371 3.71099,3.87234 z"
         id="path3790-1-8-2" />
      <path
         transform="matrix(-1.7747254,0,0,1.7747254,1091.9755,-108.22277)"
         style="color:#000000;fill:#000000;fill-opacity:1;fill-rule:nonzero;stroke:none;stroke-width:1px;marker:none;visibility:visible;display:inline;overflow:visible;enable-background:accumulate"
         d="m 371.74468,347.04965 c 0,2.13864 -1.66146,3.87234 -3.71099,3.87234 -2.04952,0 -3.71099,-1.7337 -3.71099,-3.87234 0,-2.13863 1.66147,-3.87234 3.71099,-3.87234 2.04953,0 3.71099,1.73371 3.71099,3.87234 z"
         id="path3790-1-8-7-3" />
    </g>
    <path
       style="color:#000000;fill:#000000;fill-opacity:1;fill-rule:nonzero;stroke:none;stroke-width:29.29999924;marker:none;visibility:visible;display:inline;overflow:visible;enable-background:accumulate"
       d="M 247.33534,308.10948 C 280.75715,228.01483 550.11131,524.11759 433.33963,200.00379 484.04666,463.82914 274.55017,155.81472 247.33534,308.10948 z"
       id="path3862-8"
       sodipodi:nodetypes="ccc" />
    <path
       style="color:#000000;fill:#000000;fill-opacity:1;fill-rule:nonzero;stroke:none;stroke-width:29.29999924;marker:none;visibility:visible;display:inline;overflow:visible;enable-background:accumulate"
       d="M 232.66467,308.10948 C 199.24285,228.01483 -70.111339,524.11759 46.660367,200.00379 -4.0466646,463.82914 205.44983,155.81472 232.66467,308.10948 z"
       id="path3862-8-9"
       sodipodi:nodetypes="ccc" />
  </g>
</svg>
