<?xml version="1.0" encoding="UTF-8" standalone="no"?>
<!-- Created with Inkscape (http://www.inkscape.org/) -->

<svg
   xmlns:svg="http://www.w3.org/2000/svg"
   xmlns="http://www.w3.org/2000/svg"
   version="1.1"
   width="210mm"
   height="297mm"
   id="svg2">
  <title
     id="title4220">GNU Head</title>
  <defs
     id="defs4" />
  <g
     id="layer1">
    <g
       transform="translate(6.5089748,2.1066019)"
       id="g4188">
      <g
         transform="matrix(0.62872279,0,0,0.62872279,-618.4306,187.33222)"
         id="g4178">
        <path
           d="m 1589.2857,207.36218 c 0,0 -41.4286,-48.57143 -106.4286,-47.14286 -65,1.42858 -110,45 -177.8571,131.42858 -64.733,82.4494 -106.5816,51.80385 -121.4286,27.85714 -22.1428,-35.71429 -29.9014,-119.29996 38.5715,-180 95.1099,-84.313409 212.1428,22.85714 253.5714,-65.000001 -14.0325,11.642966 -36.448,11.052643 -48.2143,-1.428572 -24.8431,-26.352608 -136.3217,-77.409587 -271.7857,0 -160.97675,91.988563 -137.0265,420.463023 88.6073,419.285713 41.4633,0 46.2491,-89.01088 97.6777,-139.01088 71.4286,-45.71428 201.3357,-68.20376 238.0007,-72.41769 112.8571,32.14285 222.8572,-51.42857 310.7143,163.57143 127.1428,12.14286 183.7823,-102.10728 187.1428,-197.85714 4.0586,-115.63865 -43.5714,-208.571433 -145,-210.71429 C 1835.6074,33.879038 1835,98.076467 1750,70.219324 c 8.5714,29.999996 23.4772,43.321126 111.4286,41.428576 52.8304,-1.13681 102.1428,47.85714 101.4285,122.14285 -0.6736,70.05505 -33.6477,98.70417 -70,95.00001 -59.8816,-6.10173 -81.621,-114.86928 -185.7142,-151.42858 -40.4101,-14.1927 -75.1927,-3.39109 -94.1457,17.78209 -10.5777,11.81681 -23.4339,12.21791 -23.7115,12.21791 z"
           id="path4152"
           style="fill:#eeecbb;stroke:#473d2e;stroke-width:5;stroke-miterlimit:4;stroke-opacity:1;stroke-dasharray:none" />
        <path
           d="m 1314.9062,44.90625 c -1.4515,-0.01761 -2.8482,0.08929 -4.1874,0.3125 -21.4286,3.571429 -31.4376,3.5625 -41.4376,3.5625 -10,0 -17.1294,10.008929 -27.8437,6.4375 -10.7143,-3.571428 -17.8528,2.84375 -34.2813,17.84375 -16.4285,15 -45.0266,13.59375 -49.3124,13.59375 -0.7142,17.14285 0.7276,24.27679 -22.8438,33.5625 -23.5714,9.28572 -42.8615,34.99107 -40.7188,63.5625 2.143,28.57143 -15.0044,50.71875 -20.7187,80.71875 -5.7143,30 9.9956,15.71875 9.2813,50.71875 -0.7142,35 -20.6964,21.42411 -12.125,39.28125 8.5714,17.85714 25,29.28571 40,55 15,25.71428 7.125,7.85268 27.125,29.28125 20,21.42857 22.1651,19.29018 43.5937,30.71875 21.4285,11.42857 34.9956,-2.12947 49.2813,-12.84375 14.2856,-10.71429 64.2812,-95 64.2812,-95 0,0 20.0089,-30.73214 46.4375,-37.875 26.4285,-7.14285 91.4107,-37.14285 117.125,-35 25.7143,2.14286 71.4508,7.13839 83.5937,-0.71875 12.1429,-7.85715 56.4196,-39.9866 58.5626,-52.84375 2.1428,-12.85714 -9.2991,-12.86607 -27.1563,-26.4375 -17.8571,-13.57143 -25.7054,-24.29018 -48.5625,-30.71875 -22.8571,-6.42857 -4.9956,8.59375 -24.2812,8.59375 -19.2857,0 -28.5848,-5.72321 -37.1563,-6.4375 -8.5714,-0.71428 -37.1472,9.29464 -55.7187,26.4375 -18.5715,17.14285 -51.4107,30 -57.125,45 -5.7144,15 -9.9911,30.70089 -13.5626,32.84375 -3.5715,2.14286 -23.5937,0.73214 -23.5937,7.875 0,7.14286 -34.9867,34.27233 -42.8437,47.84375 -7.8572,13.57143 -38.5759,42.13839 -55.7188,34.28125 -17.1429,-7.85714 -34.9911,-35.70536 -38.5625,-43.5625 -3.5715,-7.85714 -17.8572,-3.58929 -20,-12.875 -2.1429,-9.28572 -4.2813,-28.54911 -4.2813,-41.40625 0,-12.85715 -13.5981,-24.29911 -9.3124,-32.15625 4.2858,-7.85714 20.7276,-14.28125 22.1562,-24.28125 1.4286,-10 4.2857,-31.41518 10,-37.84375 5.7143,-6.42857 -7.134,-23.59375 6.4375,-28.59375 13.5714,-5 11.4241,-9.26339 19.2813,-21.40625 7.857,-12.14286 4.2856,-27.16072 15,-27.875 10.7143,-0.71429 17.8526,-3.57589 29.2812,-0.71875 11.4286,2.85715 18.567,-12.839286 24.2812,-12.125 5.7144,0.714286 20.7321,-15.71875 32.875,-15.71875 12.1429,0 8.567,20.723214 24.2813,21.4375 15.7143,0.714285 24.2901,-11.450893 35.7187,-8.59375 11.4285,2.857143 14.9956,14.28125 24.2813,14.28125 9.2857,0 53.5492,0.7366 61.4063,-6.40625 7.8571,-7.142857 -16.4196,1.424107 -33.5626,-10.71875 -17.1428,-12.142857 -25,-20.732143 -35,-17.875 -9.375,2.678572 -42.6011,-22.892055 -64.375,-23.15625 z m 577.5313,22.5625 c -10.6422,0.08556 -18.6855,0.873969 -22,2.53125 -15.1523,7.576144 -84.3531,27.260152 -80.3125,26.25 4.0407,-1.010153 36.8798,-1.519513 55.0625,3.53125 18.1828,5.05076 25.2446,4.04061 44.4375,0 19.1929,-4.04061 27.7903,3.53871 42.4375,12.125 14.6472,8.5863 9.5937,19.18988 9.5937,28.28125 0,9.09138 19.6985,9.61215 21.7188,20.21875 2.0203,10.60661 -5.0501,24.22621 3.0312,32.8125 8.0813,8.5863 14.1293,13.13325 10.5938,24.75 -3.5356,11.61675 26.2703,22.72271 24.25,37.875 -2.0203,15.15229 -21.7009,44.96875 -32.8125,44.96875 -11.1117,0 -13.1316,6.55472 -18.6875,16.65625 -5.5558,10.10152 -38.8926,26.77459 -46.4688,21.21875 -7.576,-5.55584 -22.2304,4.03046 -27.2812,1 -5.0508,-3.03046 -22.7356,-21.72034 -27.2812,-27.78125 -4.5458,-6.06092 -22.7357,-10.58519 -27.2813,-17.65625 -4.5457,-7.07107 -5.0438,-21.72033 -13.125,-27.78125 -8.0812,-6.06091 -36.3555,-10.11643 -41.4063,-17.1875 -5.0507,-7.07107 -2.5175,-26.74651 -10.0937,-33.3125 -7.5761,-6.56599 -27.2928,-16.17973 -51.0313,-26.28125 -23.7386,-10.10153 -48.4971,-13.13628 -58.0937,3.53125 -8.2282,14.29105 -32.309,3.54886 -38.875,11.125 -1.0102,0.50508 90.3997,40.39181 125.25,44.9375 34.8502,4.54569 72.7454,59.61453 94.9687,79.3125 22.2234,19.69798 52,90.40625 52,90.40625 0,0 11.6169,13.11755 40.4063,4.53125 28.7893,-8.58629 23.254,4.55933 38.4063,-7.5625 15.1521,-12.12183 11.6222,8.09296 21.2187,5.0625 9.5964,-3.03046 35.341,-33.35041 44.9375,-38.90625 9.5964,-5.55584 14.1427,-40.92116 21.7188,-58.09375 7.5761,-17.1726 15.1597,-20.6821 8.5937,-39.875 -6.566,-19.1929 9.0734,-38.90434 11.0937,-51.53125 2.0204,-12.62691 -2.527,-15.64847 -6.0624,-25.75 -3.5355,-10.10152 4.5659,-32.84692 -2,-44.96875 -6.5661,-12.12183 -31.3243,-27.76141 -36.375,-51.5 -5.0508,-23.738581 -7.0751,-18.689878 -15.1563,-27.78125 -6.3134,-7.102635 -77.3671,-15.461827 -115.375,-15.15625 z"
           id="path4172"
           style="fill:#7c7649;fill-opacity:1;stroke:none" />
        <path
           d="m 1353.7312,575.40623 c -37.8142,32.73756 -54.3081,15.48406 -65.4049,27.67024 -4.3975,4.82922 -9.3247,9.6937 -13.659,12.74098 -5.1459,3.61782 -9.8268,4.31746 -13.4838,-2.2718 -6.4128,-11.55439 -23.4822,22.535 -36.1835,24.53082 -12.8571,2.02031 -20.6276,-3.60733 -20.6276,-3.60733 0,0 -26.0087,14.73172 -30.0867,4.32161 -10.0508,-25.65736 19.8267,-33.57142 33.5714,-53.57143 12.8507,-18.69908 -7.7064,-27.98516 17.3521,-45.08665 19.6082,-13.3819 3.3622,-35.62763 8.3622,-49.91335 5,-14.28571 17.2278,-14.21847 18.2756,-39.22008 1.2823,-30.59745 16.9695,-18.10225 25.2959,-53.63706 4.1895,-17.87995 39.6528,-61.30889 75.0866,-73.86729 56.1266,-19.89232 168.4848,-42.56128 231.3419,-44.70414 62.8572,-2.14285 183.9648,4.84496 241.2194,58.23967 63.5715,59.28571 83.9351,173.29721 115.9235,187.47462 7.5257,3.33545 10.7143,-15 10.7143,-15 0,0 7.4661,38.26204 -37.3689,32.66883 -14.7651,-1.84195 -33.3632,5.56868 -49.1763,-4.98949 -9.0049,-6.01244 -60.9882,0.50453 -88.3883,-56.06346 -1.5929,10.72636 -0.6558,22.09198 0.3086,32.81777 1.1234,12.4953 0.3107,35.51535 0.3571,38.90318 0.061,4.47699 9.6144,18.87474 26.6019,14.81618 21.2604,-5.07942 27.2369,-15.45574 37.3446,-0.40047 11.1581,16.61983 12.7779,56.02809 11.7065,63.88524 -1.0714,7.85714 -47.0228,46.77111 -49.7475,55.64558 -4.5096,14.68856 28.43,19.89636 27.0996,34.68618 -0.8256,9.17785 -30.9148,27.82125 -44.7475,36.85443 15.7143,9.28571 13.1963,44.6608 -0.3751,56.44651 -13.5714,11.78572 -22.2919,-6.04799 -51.3673,11.09681 -36.9231,21.77237 -4.3903,43.27557 -5.4617,60.41842 -1.0714,17.14286 -5.5775,26.27499 -47.1429,52.5 -35.1405,22.17132 -33.018,55.16029 -25.625,75.53565 2.2604,6.2298 6.3393,9.5537 14.375,8.9287 -4.1964,3.4821 -7.7676,3.4838 -10.8928,2.3214 -0.2679,11.0714 13.0357,9.2857 29.8214,7.6786 -35.6635,13.6939 -34.2508,-6.5905 -67.8878,-24.6915 -1.25,13.0357 8.9592,21.2986 20.0306,30.4058 -18.75,-4.4644 -35,-23.2143 -39.1071,-31.6072 -15,-3.2143 -35.5357,-15.53573 -32.5,-40.35716 -23.5714,23.57143 -12.013,52.00246 13.4668,51.70276 -18.1009,1.2447 -35.2046,-10.9013 -33.0341,-31.82095 1.7121,-16.50233 20.983,-25.80164 17.2115,-40.32561 -5.4903,-21.14315 -26.2384,-30.05037 -35.5013,-48.39286 9.7332,29.59645 9.9008,39.99695 -15.7143,59.55095 -29.4838,22.50732 -6.9733,31.82903 -6.9733,31.82903 0,0 -39.2053,-14.65519 -6.1364,-36.15807 24.4464,-15.89611 23.8097,-32.20414 14.8954,-42.09954 -7.2702,-8.07027 -11.535,-2.07534 -21.324,-6.99492 -13.3876,-6.72815 -18.3189,-20.50508 -18.3189,-20.50508 0,0 -19.0817,0.36459 -18.5714,-16.42857 0.5484,-18.0484 20.3508,-24.10158 20.8559,-36.72849 -12.5007,0.88389 -25.2903,-7.98841 -31.9461,-16.41497 -13.7633,-17.42513 -27.7981,-13.69796 -31.8198,-25.50635 -5.9347,-17.42513 16.6675,-21.33947 19.5717,-33.0825 -15.7836,13.38453 -23.8649,11.61676 -23.8649,11.61676 0,0 22.4759,-10.2278 10.6066,-21.97082 -5.8613,-5.79904 -21.8118,-0.86737 -26.5165,-11.86929 -3.2657,-7.63687 4.5874,-13.85031 8.5808,-15.94617 -2.7601,-0.90315 -4.9748,-3.30485 -8.4749,-4.9922 -9.6794,1.2045 -20.4,2.17627 -24.8249,-5.45558 -10.9792,-18.93649 6.3345,-22.76433 5.1585,-30.19254 -1.1064,-6.98854 -17.9031,-8.33088 -24.1121,-17.67213 -12.5036,-18.81129 6.7857,-27.14286 6.7857,-35 0,-7.85715 -11.0714,-13.57143 -11.7857,-25.35714 -0.5609,-9.255 6.2311,-23.38453 6.2311,-23.38453 l 10e-5,0 z"
           id="path4154"
           style="fill:#eeecbb;stroke:none" />
        <path
           d="m 1600.8125,276.125 c -6.8294,0.0483 -13.242,0.20463 -19.1563,0.40625 -63.3557,2.15986 -175.5406,24.80026 -232.0937,44.84375 -18.3246,6.49459 -36.2441,20.73316 -50.25,35.59375 -14.0059,14.86059 -24.0878,30.03476 -26.4375,40.0625 -4.0687,17.36449 -9.4716,22.32665 -14.625,27.5 -5.1534,5.17335 -10.0904,10.88593 -10.75,26.625 -0.5069,12.09422 -3.5123,17.55044 -7.125,22.1875 -3.6127,4.63706 -8.2897,8.56872 -11,16.3125 -2.9126,8.32163 0.2066,17.68433 1.1562,26.375 0.4747,4.34534 0.4692,8.46334 -0.6874,12.15625 -1.1567,3.69291 -3.3722,7.05193 -7.875,10.125 -6.4831,4.42447 -10.2627,8.49382 -12.3126,12.5625 -2.0498,4.06868 -2.2424,8.01076 -2.0312,11.59375 0.4224,7.16598 2.276,12.91623 -3.6875,21.59375 -6.4806,9.43001 -17.1645,16.32485 -25.375,24.28125 -4.1052,3.9782 -7.6125,8.28103 -9.4063,13.5 -1.7935,5.21897 -1.7132,11.2471 0.9688,18.09375 0.7109,1.81466 2.0287,3.25045 3.5938,4.09375 1.5652,0.8433 3.2898,1.17 5.0624,1.21875 3.5455,0.0975 7.3766,-0.85239 11.0313,-2.09375 6.2024,-2.10669 11.0672,-4.72233 12.6563,-5.59375 2.8614,1.57914 10.3605,4.9004 21.0624,3.21875 4.1686,-0.65504 7.8125,-3.51056 11.4376,-6.9375 3.625,-3.42694 7.2032,-7.55845 10.5,-11.1875 3.2968,-3.62905 6.4047,-6.75097 8.5624,-8.03125 1.079,-0.64014 1.8053,-0.75825 2.0626,-0.71875 0.2572,0.0395 0.5017,0.0832 1.0624,1.09375 2.0664,3.72317 4.9479,5.97231 8.1563,6.25 2.9266,0.2533 5.6101,-0.92213 8.1875,-2.625 -5.6349,22.04021 -6.0938,37.05415 -6.0938,70.09375 0,36.9637 23.7726,103.73026 41.75,135.0625 17.7185,30.88067 22.1377,34.92365 40.8126,53.09375 0.3695,0.3597 0.7515,0.70605 1.125,1.0625 7.6885,9.96257 11.7533,17.09107 13.125,21.625 0.7132,2.35798 0.7012,3.93082 0.4062,4.90625 -0.295,0.97543 -0.807,1.55959 -1.875,2.125 A 2.50025,2.50025 0 1 0 1365.0938,911 c 1.9676,-1.04173 3.6252,-2.79017 4.3124,-5.0625 0.6872,-2.27233 0.4876,-4.85798 -0.4062,-7.8125 -0.5897,-1.94915 -1.509,-4.1129 -2.75,-6.5 3.7786,3.42913 7.1084,6.65929 9.375,9.65625 2.639,3.48934 3.7354,6.41433 3.3125,8.96875 -0.4229,2.55442 -2.4343,5.44805 -7.7813,8.65625 a 2.50025,2.50025 0 1 0 2.5626,4.28125 c 6.0172,-3.61033 9.4111,-7.62414 10.1562,-12.125 0.7451,-4.50086 -1.2382,-8.78883 -4.2812,-12.8125 -5.8142,-7.68743 -15.9739,-15.32684 -24.875,-23.78125 -0.2066,-0.26576 -0.3826,-0.51163 -0.5938,-0.78125 a 2.50025,2.50025 0 0 0 -1.0938,-0.84375 c -18.2801,-17.7786 -22.0478,-21.06019 -39.5312,-51.53125 -17.3778,-30.28706 -41.0938,-97.83663 -41.0938,-132.59375 0,-35.83695 0.4547,-49.54352 7.4688,-74.59375 a 2.50025,2.50025 0 0 0 0.094,-0.65625 c 2.8541,-2.59522 5.7126,-5.54499 8.375,-8.46875 2.3688,-2.60145 4.7283,-3.50429 8.125,-4.0625 3.3966,-0.55821 7.711,-0.57728 13,-1.25 9.1484,-1.16359 21.0884,-4.47537 36.5624,-16.09375 -1.6185,4.74108 -3.186,10.46094 -2.875,15.59375 0.4029,6.64704 3.7542,11.55507 6.6563,15.5 2.902,3.94493 5.125,6.96442 5.125,9.71875 0,0.94137 -0.7788,2.58348 -2.3125,4.65625 -1.5338,2.07277 -3.6375,4.49827 -5.4062,7.4375 -1.7688,2.93923 -3.2234,6.45188 -3.2813,10.5625 -0.058,4.11062 1.2879,8.69829 4.625,13.71875 3.6492,5.49017 9.8869,8.21721 15,10.59375 2.5565,1.18827 4.8816,2.30677 6.4375,3.375 1.5559,1.06823 2.1867,1.92434 2.3125,2.71875 0.1406,0.88853 -0.2606,1.76771 -1.4063,3.28125 -1.1456,1.51354 -2.9006,3.34481 -4.4687,5.71875 -1.5682,2.37394 -2.9284,5.39851 -3,9.09375 -0.072,3.69524 1.0938,7.95635 4,12.96875 2.6749,4.61368 7.4343,6.63465 12.3125,7.25 4.5833,0.57816 9.4768,0.064 14.0938,-0.5 1.4622,0.78441 2.8399,1.69247 4.2187,2.625 -1.4567,1.13531 -2.9276,2.51986 -4.1875,4.21875 -2.3829,3.21304 -3.8578,7.79009 -1.8438,12.5 1.4035,3.28212 3.7906,5.55379 6.4376,6.9375 2.6469,1.38371 5.5253,1.98728 8.2812,2.4375 5.5117,0.90043 10.471,1.4596 12.3438,3.3125 2.5579,2.5307 2.9296,4.37194 2.625,6.1875 -0.3047,1.81556 -1.6171,3.82276 -3.4688,5.625 -3.7035,3.60448 -9.0312,6.09375 -9.0312,6.09375 l -6.8438,3.125 7.3438,1.59375 c 0,0 0.9018,0.17787 2.125,0.125 1.2231,-0.0529 2.9656,-0.2934 5.1562,-0.96875 0.841,-0.25931 1.8022,-0.66024 2.7812,-1.0625 -0.1542,0.1336 -0.2835,0.23989 -0.4374,0.375 -2.7486,2.41124 -5.3714,5.15342 -6.9376,8.6875 -1.5661,3.53408 -1.8989,7.84575 -0.25,12.6875 1.1614,3.41015 3.1948,5.87556 5.5938,7.6875 2.3989,1.81194 5.1162,3.05135 7.9688,4.40625 5.7053,2.7098 12.0844,5.83608 18.6562,14.15625 6.5246,8.26057 18.2424,16.72042 30.8125,17.28125 -1.2757,3.98459 -4.8626,7.70246 -9.125,12.1875 -5.1544,5.42352 -10.8234,12.10248 -11.125,22.03125 -0.2839,9.34162 5.3324,14.64828 10.625,16.90625 3.8814,1.65597 6.9789,1.92274 8.75,2 1.4889,3.49311 6.8443,14.28178 18.9063,20.34375 5.3886,2.70816 9.6375,2.477 12.625,2.59375 2.9874,0.11675 4.7023,0.21795 7.9687,3.84375 4.0198,4.46227 6.0474,10.06476 4.4687,16.53125 -1.5786,6.46649 -6.9876,14.05159 -18.875,21.78125 -8.5652,5.56954 -12.9115,10.94772 -14.0937,16.28125 -1.1823,5.33353 1.0984,10.09318 4.25,13.625 6.2008,6.9491 15.9609,10.47802 16.2813,10.59375 0,10e-4 0.092,0.062 0.094,0.0625 10e-4,4.2e-4 0.094,0.0312 0.094,0.0312 l 1.8126,-4.625 c 0,0 -0.062,-0.0308 -0.063,-0.0312 -0.1074,-0.0497 -4.6755,-2.19215 -6.125,-6.03125 -0.7333,-1.94213 -0.8777,-4.33568 0.9063,-7.875 1.7839,-3.53932 5.6296,-8.11052 12.8125,-13.59375 12.9795,-9.90831 19.934,-17.8919 22.0625,-27.46875 1.3541,-6.09277 0.5945,-12.6718 -1.2813,-20.375 3.4867,3.94735 7.251,7.5595 10.8126,11.1875 6.9635,7.09357 13.1133,14.21228 15.6874,24.125 0.7964,3.06688 0.4061,5.71683 -0.75,8.53125 -1.156,2.81442 -3.1208,5.71508 -5.375,8.78125 -4.5082,6.13234 -10.2058,12.96415 -11.1562,22.125 -1.16,11.17969 2.9497,20.3843 9.7812,26.375 6.594,5.7823 15.6312,8.5594 24.9376,8.1562 0.2874,0 0.5532,0.066 0.8437,0.063 l 0,-0.031 0.1563,0 -0.2188,-4.9687 c -0.043,4e-4 -0.082,-5e-4 -0.125,0 -11.7355,0.091 -19.795,-6.1947 -22.5938,-15.1563 -2.3887,-7.64915 -0.8177,-17.47684 6.625,-27.1875 0.5432,9.71174 4.6529,17.50385 10.375,23.1875 6.5212,6.4771 14.8765,10.3205 22.3438,12.2187 0.3191,0.1544 0.6202,0.3113 0.9062,0.4376 2.5365,4.6256 7.3496,10.8167 13.9063,16.7812 7.1298,6.4859 16.1724,12.5294 26.1563,14.9062 l 2.1562,-4.375 c -5.5404,-4.5562 -10.7237,-8.8344 -14.25,-13.3437 -2.6226,-3.3536 -4.3292,-6.7463 -4.8125,-10.6563 13.7505,8.1495 21.2199,16.443 29.25,21.875 4.3909,2.972 9.158,5.029 15.0625,5.3126 5.9044,0.2817 12.8339,-1.1305 21.9375,-4.625 l -1.1563,-4.8126 c -8.4178,0.8062 -15.8923,1.5658 -20.7187,0.9063 -2.4133,-0.3298 -4.0507,-0.9932 -4.9687,-1.8437 -0.3663,-0.3397 -0.6149,-0.7763 -0.8438,-1.25 2.949,0.1005 6.223,-0.739 9.4375,-3.4063 l 6.0625,-5.0313 -7.8438,0.5938 c -3.6437,0.2834 -6.0327,-0.3078 -7.7812,-1.4688 -1.7486,-1.1607 -3.0482,-3.0168 -4.0625,-5.8124 -3.5752,-9.8533 -5.8382,-22.75746 -3.0313,-35.7188 2.8071,-12.96134 10.5785,-26.06879 27.6563,-36.84375 20.8589,-13.16063 32.5522,-22.05186 39.3437,-30.15625 6.7917,-8.10439 8.4212,-15.55089 8.9688,-24.3125 0.319,-5.1043 -1.7858,-9.97827 -4.1562,-14.84375 -2.3705,-4.86548 -5.1032,-9.76791 -6.6876,-14.5625 -1.5843,-4.79459 -2.0445,-9.32508 -0.1562,-14 1.8882,-4.67492 6.2815,-9.72995 15.2188,-15 14.1168,-8.32421 22.6509,-8.0392 29.9687,-7.21875 3.6588,0.41023 7.0664,1.03846 10.6875,0.75 3.6211,-0.28846 7.3652,-1.66825 11.0938,-4.90625 7.6629,-6.6546 11.6528,-18.9617 12.0312,-30.96875 0.3315,-10.52292 -2.157,-21.13342 -8.9062,-27.21875 6.8596,-4.44274 16.0034,-10.31501 24.3437,-16.5 4.7337,-3.51051 9.068,-7.04028 12.375,-10.375 3.3069,-3.33472 5.8039,-6.3374 6.125,-9.90625 0.4162,-4.62733 -1.9231,-8.52182 -5.0313,-11.59375 -3.108,-3.07193 -7.0761,-5.61109 -10.8124,-8.09375 -3.7364,-2.48266 -7.2406,-4.90521 -9.3438,-7.3125 -2.1033,-2.40729 -2.8647,-4.34003 -2,-7.15625 0.1264,-0.41193 0.9932,-1.97912 2.4375,-3.8125 1.4442,-1.83338 3.4238,-4.08263 5.75,-6.5625 4.6523,-4.95974 10.6732,-10.86937 16.6563,-16.78125 5.983,-5.91188 11.9338,-11.8188 16.5,-16.78125 2.2831,-2.48122 4.2334,-4.73361 5.6874,-6.6875 1.4541,-1.95389 2.5044,-3.40703 2.7813,-5.4375 0.6341,-4.65011 0.4383,-16.22611 -1.25,-29.3125 -1.6884,-13.08639 -4.7862,-27.25861 -10.8437,-36.28125 -2.6646,-3.96881 -5.2323,-6.5604 -8.1563,-7.90625 -2.9241,-1.34585 -6.0184,-1.24947 -9.0313,-0.5 -6.0254,1.49894 -12.505,5.28739 -22.8124,7.75 -7.741,1.84941 -13.4626,-0.45635 -17.5,-3.71875 -2.0189,-1.6312 -3.5739,-3.5167 -4.5938,-5.1875 -1.02,-1.6708 -1.4341,-3.25125 -1.4375,-3.5 -0.019,-1.41659 0.1616,-8.22881 0.2187,-16 0.057,-7.77119 -0.015,-16.65617 -0.5937,-23.09375 -0.7178,-7.98288 -1.3657,-16.22946 -1.0313,-24.1875 13.7317,23.72197 32.143,35.16398 48.5,40.9375 8.9927,3.17408 17.3715,4.72034 23.9688,5.84375 2.1895,0.37285 4.1151,0.7143 5.875,1.0625 a 2.50025,2.50025 0 0 0 1.5625,0.53125 c -0.2904,0 0.2579,0.0486 0.8125,0.0937 0.1926,0.0157 0.5398,0.0444 0.7812,0.0625 1.8877,0.44123 3.2292,0.83976 3.75,1.1875 8.5164,5.68622 17.7842,6.43761 26.4688,6.09375 8.6845,-0.34386 16.9525,-1.65923 23.75,-0.6875 11.9847,1.71327 20.6634,0.50205 26.9375,-2.53125 6.274,-3.0333 9.9692,-7.9144 11.9063,-12.875 3.8742,-9.92119 1.3124,-20.3125 1.3124,-20.3125 l -2.0937,-8.78125 -2.7187,8.59375 c 0,0 -1.388,4.25526 -3.3126,8.09375 -0.9621,1.91925 -2.0878,3.71326 -3,4.65625 -0.4559,0.4715 -0.8499,0.70664 -0.9687,0.75 -8.0787,-4.1118 -15.7317,-14.1105 -23.25,-27.9375 -7.5362,-13.85983 -14.9945,-31.44216 -23.3437,-50.375 -16.6988,-37.86568 -36.9059,-81.14461 -69.1876,-111.25 -29.2421,-27.27081 -74.1478,-41.78002 -119.5624,-49.34375 -34.061,-5.6728 -68.4403,-7.40622 -96.8126,-7.46875 -2.3643,-0.005 -4.6922,-0.0161 -6.9687,0 z m 0.031,5 c 2.2602,-0.0162 4.5579,-0.005 6.9062,0 28.1787,0.0648 62.3453,1.79591 96.0312,7.40625 44.9147,7.48045 88.9564,21.9386 116.9688,48.0625 31.2897,29.18032 51.3682,71.84012 68.0312,109.625 8.3316,18.89244 15.8102,36.55022 23.5313,50.75 7.721,14.19978 15.6183,25.0688 25.4375,30.03125 1.2303,0.62179 2.7423,0.61229 3.9062,0.1875 1.164,-0.42479 2.0564,-1.12349 2.8438,-1.9375 1.2237,-1.26518 2.1959,-2.85778 3.0938,-4.5 -0.2193,2.2632 -0.628,4.62428 -1.5313,6.9375 -1.5776,4.03969 -4.3342,7.7202 -9.4375,10.1875 -5.1034,2.4673 -12.7369,3.68155 -24.0625,2.0625 -7.9323,-1.13395 -16.3572,0.32889 -24.625,0.65625 -6.1677,0.2442 -12.1421,-0.10641 -17.8125,-2.3125 5.3216,-0.3988 11.5519,-1.41436 17.6562,-3.8125 a 2.50025,2.50025 0 0 0 -1.1874,-4.84375 2.50025,2.50025 0 0 0 -0.6563,0.1875 c -6.6876,2.62725 -13.8153,3.50421 -19.375,3.6875 -2.7233,0.0897 -5.0407,0.003 -6.7813,-0.0937 -2.7704,-0.7116 -6.1244,-1.10533 -10.0937,-1.78125 -6.5386,-1.11341 -14.5712,-2.60576 -23.125,-5.625 -17.1078,-6.03847 -36.2429,-18.02688 -49.6563,-45.71875 L 1773.375,473 l -1.1875,8 c -0.7646,5.14859 -0.9729,10.38519 -0.875,15.59375 -0.8243,-2.74948 -1.5415,-5.02391 -1.8437,-6.1875 -1.4266,-5.48897 -5.142,-16.91861 -7.0313,-25.09375 1.5887,-1.31204 3.1359,-2.6407 4.2187,-3.625 2.778,-2.52538 5.5574,-4.81583 6.0626,-7.59375 0.505,-2.77792 -1.7898,-4.79902 -4.0626,-3.03125 -2.2728,1.76777 -0.75,5.3125 -0.75,5.3125 0,0 -5.5683,5.04219 -8.0937,7.0625 -1.0901,0.8721 -4.4238,1.84125 -8.4063,2.3125 4.9473,-3.11482 8.5872,-10.47293 9.6563,-12.8125 -3.0148,5.44011 -12.054,10.76378 -15.125,11 -2.3862,0.18355 -8.0522,-0.57637 -11,-1 -0.01,-10e-4 -0.023,10e-4 -0.031,0 -3.3022,-1.98805 -5.4327,-2.49433 -6.8437,-2.59375 -1.7675,-2.71798 -3.6227,-5.50367 -5.5937,-8.4375 1.8677,0.97922 3.6369,1.4375 4.7812,1.4375 3.6619,0 14.127,-0.0109 17.0312,-2.03125 2.9042,-2.02031 8.7175,-6.67433 8.8438,-11.09375 0.1055,-3.69574 -1.1126,-11.18401 -3.0625,-16.71875 6.1673,2.02938 9.6374,3.45962 11.3125,6.4375 2.5252,4.48931 0.012,5.5625 3.3125,6.1875 1.4887,0.28188 7.7036,-2.14938 6.5,-5.75 -0.6097,-1.82378 0.5,-7.84375 0.5,-7.84375 0,0 -5.0429,-7.57519 -10.0937,-6.3125 -0.9376,0.2344 -1.9065,0.14834 -2.9376,-0.15625 2.1244,-4.02152 4.149,-11.41906 2.3126,-21.625 3.7429,-3.58719 7.1076,-9.99188 6.4374,-21.40625 -2.2843,-38.908 -36.3747,-55.04457 -45.7187,-66.15625 2.2729,7.82869 8.336,17.15863 18.4375,26.25 10.1016,9.09137 20.7246,20.72351 23.25,38.90625 2.5253,18.18275 -11.2812,26.90625 -11.2812,26.90625 0,0 2.6564,-0.28375 5.75,-2.125 0.6545,3.37375 1.8017,11.71074 -1.125,18.46875 -4.137,-1.99963 -9.0348,-6.1971 -15.0626,-6.90625 -7.573,-0.89094 -35.7705,3.33699 -41.2812,10.0625 -2.159,-4.79873 -2.7576,-8.61152 -2.7188,-11.78125 2.4509,-5.61267 7.8913,-13.47919 10.6563,-17.71875 3.788,-5.80838 13.1249,-8.07852 22.4687,-9.59375 9.344,-1.51523 9.3438,2.26935 9.3438,6.5625 0,4.29315 4.8099,6.33201 5.0625,1.28125 0.2525,-5.05076 -1.7861,-9.10977 -10.625,-10.625 -8.8388,-1.51523 -20.1934,2.29473 -22.7187,4.0625 -2.0082,1.40577 -8.1562,8.86937 -12.5,16.0625 0.051,-0.31609 0.099,-0.63043 0.125,-0.9375 0.5051,-6.06092 4.8056,-14.12405 8.5937,-20.4375 3.788,-6.31346 13.37,-14.39943 13.875,-18.1875 0.5051,-3.78807 7.3437,-7.84375 7.3437,-7.84375 -2.3271,-1.29505 -4.4191,-2.66449 -2.7812,-5.28125 -5.0278,-1.21192 -6.467,-2.93168 -6.8125,-4.8125 2.5254,-3.78807 12.625,-6.3125 12.625,-6.3125 0,0 -1.0133,-0.99159 -12.125,1.28125 -11.1117,2.27285 -22.2357,31.79695 -26.7813,52 -4.5456,20.20305 0.7566,32.3309 6.3126,42.9375 5.5558,10.6066 25.5099,38.63071 33.8437,50.5 8.3337,11.86929 32.0759,57.33772 33.8437,64.15625 0.8381,3.23267 3.2754,7.41476 5.5938,10.9375 0.3113,1.43817 1.0002,2.88235 1.9688,4.46875 1.3193,2.16111 3.2181,4.47946 5.7187,6.5 5.0012,4.04108 12.5659,6.89665 21.8125,4.6875 10.9529,-2.61681 18.0702,-6.55474 22.875,-7.75 2.4024,-0.59763 4.015,-0.59665 5.7188,0.1875 1.7037,0.78415 3.7044,2.56618 6.0937,6.125 5.1005,7.59719 8.3881,21.41927 10.0313,34.15625 1.6432,12.73698 1.7185,24.79296 1.2812,28 0.01,-0.0662 -0.6004,1.41221 -1.875,3.125 -1.0458,1.40523 -2.5439,3.16435 -4.25,5.0625 -0.1081,0.0839 -29.3845,22.78442 -35.3125,29.375 -0.9522,1.05866 -3.4415,-1.07234 -2.25,-2.25 5.5191,-5.45484 20.4052,-17.11182 23.9687,-20.59375 1.2772,-1.2479 -1.5127,-2.12494 -3.1562,-1.125 -2.6056,1.58529 -11.4832,7.34615 -14.9375,9.96875 -11.179,8.48749 -25.614,17.6087 -28.625,20.6875 -1.1574,1.18349 -2.4813,0.32683 -1.25,-1.59375 0.8423,-1.31386 6.4729,-5.47948 8.125,-7.28125 1.8783,-2.04848 -1.6303,-1.70204 -2,-1.46875 -3.3415,2.10872 -38.2045,26.91314 -34.375,30.375 0.7045,0.63682 2.0846,1.76211 2.625,0.625 2.1423,-4.5076 14.2591,-15.49047 15.375,-14.59375 0.4704,0.29402 1.0434,0.77426 0.2187,1.8125 -6.6519,8.37317 -9.1691,10.85194 -8.6874,12.09375 0.4139,1.06773 1.2369,2.8543 3.5312,0.5625 7.8891,-7.88056 13.1973,-13.47496 17.0625,-16.46875 1.1566,-0.89587 4.024,0.18137 3.0313,0.875 -3.935,2.74969 -11.9206,10.26398 -12.75,13.25 -0.516,1.85689 1.964,2.98079 2.75,1.625 2.6244,-4.52802 9.1177,-11.56773 14.1562,-15.28125 1.0582,-0.77995 2.0225,0.074 1.4062,0.65625 -3.2117,3.03531 -5.616,6.34367 -8.9374,11.09375 -3.3969,4.8583 1.0937,3.1875 1.0937,3.1875 0,0 9.5975,-11.07558 14.2187,-15.3125 1.8854,-1.72856 3.107,-0.47291 2.4376,0.53125 -2.5254,3.78808 -4.9063,8.71875 -4.9063,8.71875 1.5198,3.95903 5.7543,9.9782 8.4687,11.59375 l -0.031,-0.28125 c 2.5137,2.35777 5.5425,4.39957 8.5625,6.40625 3.7685,2.50409 7.5095,4.94556 10.0625,7.46875 2.5529,2.52319 3.8428,4.82617 3.5938,7.59375 -0.092,1.02008 -1.6883,3.78802 -4.6876,6.8125 -2.9992,3.02448 -7.1917,6.44828 -11.8124,9.875 -0.9484,0.7033 -1.9285,1.39171 -2.9063,2.09375 -53.3408,-9.41069 -73.9422,0.35168 -133.4687,21.15625 -12.5269,4.37811 -25.1662,2.2986 -37.375,-3.71875 8.3605,1.98088 21.057,-0.93115 29.75,-3.21875 6.7856,-1.78571 15.5407,-5.98082 22.6874,-6.25 3.0555,-0.11508 1.4261,-2.81839 -1.25,-3.03125 -14.7941,-1.17675 -18.2231,8.39732 -43.9374,6.96875 -13.1141,-0.72855 -21.3705,-3.91928 -27.0313,-7.65625 -0.031,-0.0205 -0.063,-0.042 -0.094,-0.0625 -12.745,-10.61785 -24.5897,-24.34237 -34.8438,-37.84375 -13.1679,-22.82265 -3.0121,-49.60181 12.0625,-69 0,0 -26.5457,21.70332 -23.25,53.5625 -0.7358,-1.06044 -1.5091,-2.14989 -2.2187,-3.1875 -9.263,-13.54579 -25.7655,-50.77451 -40.4063,-51.09375 -2.0915,-0.0456 -4.1367,0.67549 -6.125,2.3125 19.1929,-2.52538 21.6922,15.7841 39.875,46.59375 18.1827,30.80966 59.1034,80.6672 95.4687,82.6875 36.2588,2.01437 73.0332,-34.62822 123.3126,-10.3125 l -0.75,0.5 3.4687,2.03125 c 6.6097,3.90574 9.9075,14.11415 9.5625,25.0625 -0.2911,9.23767 -3.2283,18.68633 -7.6875,24.5 -7.7231,2.01894 -19.7996,1.52021 -27.9063,1.90625 -7.9549,0.37881 -28.5517,-3.65008 -44,-3.875 -5.1494,-0.075 -9.7164,0.30171 -13.0624,1.375 -13.3847,4.29315 -19.945,9.84375 -28.5313,9.84375 -2.2448,0 -5.3986,-0.007 -8.9063,0.125 -0.026,-0.009 -0.038,0.007 -0.062,0 -0.1363,-0.0372 -0.2465,-0.0451 -0.3438,-0.0625 -0.4579,-0.082 -0.9244,-0.11393 -1.5,-0.0937 -0.5756,0.0201 -1.2603,0.0923 -2.1875,0.15625 -2.4883,0.17161 -5.0434,0.5818 -7.625,1.125 -2.9721,0.51376 -5.8165,1.22339 -8.25,2.25 -0.01,0.004 -0.022,-0.004 -0.031,0 -10.3244,3.43827 -20.1246,8.88871 -26.0937,13.90625 a 1.50015,1.50015 0 1 0 1.9063,2.28125 c 3.583,-3.01178 8.8786,-6.26475 14.875,-9.09375 -1.6261,0.97419 -3.1824,1.89459 -4.875,2.65625 a 1.5103807,1.5103807 0 1 0 1.25,2.75 c 0.2014,-0.0907 0.3975,-0.18823 0.5937,-0.28125 -1.7469,1.51741 -3.3396,3.16017 -4.6563,4.96875 a 1.50015,1.50015 0 1 0 2.4054,1.7812 c 2.3007,-3.1603 5.7041,-5.93134 9.5,-8.3125 0.019,0.0118 0.043,0.0195 0.062,0.0312 -0.1404,0.0778 -0.3117,0.17468 -0.4375,0.25 -0.3807,0.22789 -0.6728,0.38222 -1.0313,0.8125 a 1.5084398,1.5084398 0 0 0 1.5313,2.4375 c -0.6435,0.46168 -1.2882,0.92269 -2,1.3125 a 1.5101383,1.5101383 0 1 0 1.4375,2.65625 c 0.5601,-0.3067 1.0815,-0.63079 1.5938,-0.96875 -1.8877,1.77566 -3.6641,3.50554 -5.2813,4.96875 a 1.50015,1.50015 0 1 0 2,2.21875 c 3.6921,-3.34042 7.8854,-7.68752 12.3125,-10.78125 0.1584,0.0284 0.3098,0.0657 0.4688,0.0937 -0.7259,0.57229 -1.3457,1.0957 -1.8126,1.5625 a 1.50015,1.50015 0 0 0 0.9376,2.65625 c -1.4097,1.00252 -2.634,2.03729 -3.625,3.0625 a 1.50015,1.50015 0 1 0 2.1562,2.0625 c 2.0635,-2.1347 6.0645,-4.62285 10.5312,-6.96875 -1.9139,1.84141 -3.4109,3.5047 -4.4374,4.53125 a 1.5026019,1.5026019 0 0 0 2.125,2.125 c 1.1921,-1.19209 2.7786,-2.89041 4.7187,-4.71875 -5.0547,7.59673 -4.9566,18.23552 -5.1563,22.625 -0.1338,2.94476 0.2832,5.18659 1.3438,7.125 1.0606,1.93841 2.6186,3.49586 4.6562,5.40625 A 1.5034211,1.5034211 0 1 0 1660.8438,874 c -2.0028,-1.87768 -3.3235,-3.24853 -4.0938,-4.65625 -0.7703,-1.40772 -1.1187,-2.95142 -1,-5.5625 0.1952,-4.29504 0.3707,-13.20448 3.9062,-19.75 a 1.5026019,1.5026019 0 0 0 1.5938,0.90625 c -0.2957,0.61818 -0.5444,1.23175 -0.7188,1.8125 a 1.5026019,1.5026019 0 0 0 2.875,0.875 c 0.1425,-0.47493 0.4621,-1.10729 0.8438,-1.84375 a 1.5032517,1.5032517 0 0 0 2.5,0.875 c 0.9425,-0.8836 1.86,-1.67095 2.75,-2.4375 -1.2823,3.37454 -2.1915,6.7772 -2.5938,10.21875 -1.184,10.12993 1.9343,20.42438 11.0313,29.78125 1.5282,1.57181 2.777,3.08484 3.7813,4.53125 8e-4,1.21683 -0.3313,2.81921 -1.1876,5.09375 -1.4248,3.78461 -4.3173,9.27029 -9.3437,17.3125 -3.6556,5.84891 -7.246,10.68948 -10.75,14.875 -5.6358,2.40676 -11.8701,4.69485 -17.9687,7.4375 -11.4258,5.13845 -22.456,11.99418 -27.7188,24.625 -5.0488,12.11706 -8.7754,20.70999 -8.4375,28.71875 0.2767,6.55713 3.4311,12.45479 10.4687,18.9375 l -0.25,2.8125 c -0.6914,7.2116 1.8726,13.3121 5.9063,18.4687 1.0792,1.3813 2.4621,2.616 3.7187,3.9063 -3.7743,-2.3223 -7.3183,-5.0403 -10.4687,-7.9063 -1.2465,-1.1339 -2.413,-2.2832 -3.5313,-3.4374 a 1.50015,1.50015 0 0 0 -0.4374,-1.9063 c -18.6345,-16.909 -9.6184,-38.16486 -7.75,-49.375 a 1.50015,1.50015 0 0 0 -1.6876,-1.75 1.50015,1.50015 0 0 0 -1.25,1.28125 c -1.2007,7.20448 -6.2709,21.13004 -2.1874,35.06245 -7.116,-4.54123 -11.3343,-10.94797 -13.7813,-18.3437 -0.1875,-13.86247 4.6508,-21.2794 8.375,-26.84375 1.8906,-2.82472 3.6081,-5.16199 4.0313,-7.875 0.4232,-2.71301 -0.8274,-5.48936 -3.9688,-8.25 a 1.50015,1.50015 0 0 0 -0.3125,-0.21875 c 0.054,-0.59569 0.081,-1.21044 0.094,-1.84375 0.043,-2.10307 -0.6817,-3.93727 -1.9687,-5.5 -1.2871,-1.56273 -3.0602,-2.96789 -5.375,-4.78125 -4.6298,-3.62673 -11.5187,-8.86229 -20.9063,-19.3125 -8.8562,-9.85893 -12.0566,-18.52719 -11.1562,-26.28125 0.3376,-2.90777 1.2759,-5.72844 2.75,-8.46875 5.1111,-5.7509 12.7511,-10.69046 19.2188,-15.15625 a 1.50015,1.50015 0 0 0 -0.8126,-2.78125 1.50015,1.50015 0 0 0 -0.25,0.0312 1.50015,1.50015 0 0 0 -0.625,0.28125 c -1.6361,1.12972 -3.3927,2.31811 -5.1562,3.53125 a 1.50015,1.50015 0 0 0 -1.5,-1.6875 1.50015,1.50015 0 0 0 -0.9062,0.34375 c -5.4673,4.23987 -9.7368,8.82048 -12.4688,13.75 -0.8119,0.93866 -1.5894,1.90744 -2.2812,2.90625 -2.7021,3.90035 -4.366,8.36531 -4.0938,13.3125 0.2722,4.94719 2.4639,10.29742 7.1562,16.09375 9.1743,11.33305 16.6501,18.11331 21.2813,23.3125 2.3156,2.59959 3.8907,4.79454 4.6875,6.875 0.7968,2.08046 0.9217,4.04565 0.1875,6.65625 -2.0125,7.15538 -2.6618,9.91291 -2.5937,14.625 -2.5811,1.72106 -5.3534,3.47004 -7.9688,5.59375 l 0.3125,-2.53125 -5.125,5.15625 c -12.2855,12.28556 -15.7287,26.27364 -12.2813,37.31255 0.095,0.3033 0.2387,0.5766 0.3438,0.875 -2.653,-4.39426 -4.0531,-9.74477 -3.375,-16.2813 0.7617,-7.34148 5.5752,-13.41361 10.1875,-19.6875 1.5205,-2.06822 3.0026,-4.15108 4.25,-6.34375 a 1.5040635,1.5040635 0 0 0 1.0625,-0.65625 c 7.1659,-10.28951 7.6321,-19.05466 4.7812,-27 -2.851,-7.94534 -8.7275,-15.11764 -14.0312,-23.25 a 1.50015,1.50015 0 0 0 -1.4062,-0.6875 1.50015,1.50015 0 0 0 -1.125,2.34375 c 5.4104,8.29622 11.1545,15.39177 13.75,22.625 1.7618,4.91018 2.2012,9.85575 0.1874,15.5625 -0.017,-1.34239 -0.1672,-2.72321 -0.5312,-4.125 -2.9162,-11.23043 -9.8699,-19.14355 -16.9688,-26.375 -3.9931,-4.06769 -8.0128,-7.96549 -11.5624,-12.125 -4.7633,-9.22159 -4.6966,-17.45865 -2.625,-24.875 2.1527,-7.70666 6.5273,-14.46748 9.9374,-20.03125 a 1.50015,1.50015 0 0 0 -1.375,-2.3125 1.50015,1.50015 0 0 0 -0.1562,0.0312 1.50015,1.50015 0 0 0 -1.0312,0.71875 c -3.3757,5.50766 -7.9385,12.50576 -10.25,20.78125 -1.4447,5.17218 -1.983,10.87218 -0.7813,16.9375 -0.3068,-0.54497 -0.5917,-1.0952 -0.875,-1.65625 -0.2753,-0.41982 -0.5643,-0.83292 -0.8437,-1.25 a 1.50015,1.50015 0 0 0 -0.031,-1.5625 c -7.8733,-13.29722 -8.4843,-23.851 -6.125,-32.6875 2.3593,-8.8365 7.793,-16.02015 12.4375,-22.09375 a 1.50015,1.50015 0 0 0 -1.125,-2.4375 1.50015,1.50015 0 0 0 -0.2812,0.0312 1.50015,1.50015 0 0 0 -0.9688,0.59375 c -4.6412,6.06926 -10.4172,13.56864 -12.9688,23.125 -1.7631,6.60401 -1.9242,14.16659 0.8438,22.78125 0.1728,1.76932 0.3879,3.53953 0.6562,5.28125 -5.0702,-8.01077 -7.0352,-14.95452 -7.3437,-21.09375 -0.4283,-8.52228 2.2968,-15.60684 4.625,-21.875 a 1.50015,1.50015 0 0 0 -1.625,-2.03125 1.50015,1.50015 0 0 0 -1.1875,1 c -2.3147,6.23184 -5.2771,13.78567 -4.8125,23.03125 0.4116,8.19068 3.5453,17.63688 11.9375,28.5 0.5739,2.0904 1.2457,4.16202 2.0938,6.21875 5.8191,14.11275 7.1805,20.75073 5.4374,28.59375 -1.7581,7.91101 -7.5519,14.91681 -20.1874,24.5625 -7.5591,5.77043 -11.9311,10.80506 -14.2188,15.34375 -1.7643,3.50045 -2.1695,6.7488 -1.7188,9.53125 -1.0911,-0.86726 -2.2337,-1.71997 -3.125,-2.71875 -2.5162,-2.81984 -3.8298,-5.75675 -3.0624,-9.21875 0.7673,-3.462 3.9371,-7.97435 11.9062,-13.15625 12.5591,-8.16645 19.0451,-16.6771 21.0312,-24.8125 0.9063,-3.71203 0.8192,-7.28363 0,-10.59375 a 1.50015,1.50015 0 0 0 -0.094,-0.625 c -1.9828,-8.59211 -7.4839,-13.34096 -12.875,-17.71875 -5.3911,-4.37779 -10.6656,-8.45071 -13.4063,-16.03125 -1.5844,-4.38253 -0.8733,-7.68396 0.4063,-11.28125 1.2796,-3.59729 3.209,-7.41026 3.5937,-12.21875 a 1.50015,1.50015 0 0 0 -1.6874,-1.625 1.50015,1.50015 0 0 0 -1.3126,1.40625 c -0.3296,4.12007 -2.0705,7.59459 -3.4374,11.4375 -1.367,3.84291 -2.2655,8.13887 -0.4063,13.28125 3.0458,8.42433 9.0252,12.99954 14.375,17.34375 0.1457,0.11832 0.2928,0.22577 0.4375,0.34375 -0.9428,-0.18227 -1.8485,-0.24724 -2.7188,-0.28125 -3.4097,-0.13325 -6.1622,0.14892 -10.5624,-2.0625 -12.3842,-6.22388 -17.0938,-19.125 -17.0938,-19.125 l -0.4062,-1.09375 c -0.5251,-10.87861 3.737,-16.37487 9.1562,-21.53125 5.4192,-5.15638 12.1636,-9.78221 15.5,-18.28125 a 1.50015,1.50015 0 0 0 -1.4375,-2.0625 1.50015,1.50015 0 0 0 -0.1563,0 1.50015,1.50015 0 0 0 -1.1874,0.96875 c -2.9645,7.55136 -9.1285,11.8401 -14.7813,17.21875 -5.5299,5.26175 -10.4134,11.7878 -10.0937,23.0625 -1.4913,-0.0892 -4.4804,-0.39463 -7.4376,-1.65625 -4.1206,-1.75803 -7.8201,-4.67346 -7.5937,-12.125 0.2468,-8.11963 4.7398,-13.4781 9.75,-18.75 5.0103,-5.2719 10.7896,-10.36748 11.0937,-17.96875 l 0.031,-0.4375 a 1.5052804,1.5052804 0 0 0 0.9375,-1.15625 c 0.9702,-5.82125 -1.2751,-11.3673 -5.1875,-15.78125 -3.9124,-4.41395 -9.5054,-7.8128 -15.5625,-9.65625 -5.6954,-1.73339 -11.8387,-4.32954 -16.7188,-7.5625 -4.8798,-3.23296 -8.4054,-7.08994 -9.2812,-11.03125 -0.8631,-3.88389 1.0005,-8.73261 3.875,-12.96875 2.8745,-4.23614 6.7626,-7.81078 9.0625,-9.125 3.1036,-1.77348 4.6668,-4.85825 5.0625,-7.84375 0.3957,-2.9855 -0.2523,-5.93125 -1.8438,-8 -0.7763,-1.00933 -1.8181,-1.77689 -3.0312,-1.96875 -1.2131,-0.19186 -2.4053,0.12682 -3.625,0.71875 -1.105,0.53626 -2.3148,1.32675 -3.6875,2.3125 0.3533,-2.022 0.5208,-4.1669 0.3125,-6.25 -0.2724,-2.7241 -2.5331,-4.91482 -5.5938,-7.375 -3.0607,-2.46018 -7.1059,-5.06131 -11.4687,-7.625 -5.5112,-3.23854 -11.4423,-6.38158 -16.5625,-9.09375 l 1.8125,-0.9375 -5.625,-1.84375 c -1.8907,-0.61868 -4.192,-2.96382 -8.1563,-4.875 l -0.6874,-0.3125 -0.7188,0.0937 c -0.01,-0.005 -0.025,0.005 -0.031,0 -7.8748,-6.00917 -12.6128,-13.8576 -11.5313,-21.96875 0.7213,-5.41009 0.9289,-8.86784 -0.4687,-11.8125 -1.3976,-2.94466 -4.1789,-4.8573 -8.6876,-7.5625 -8.4574,-5.07446 -10.1619,-12.29794 -12.6874,-19.875 -1.0807,-3.24178 -0.2222,-6.76174 0.2812,-11.75 0.4131,-4.09315 0.4713,-9.08245 -1.3438,-15.40625 -0.096,-0.44093 -0.2352,-0.85864 -0.375,-1.28125 -0.065,-0.20432 -0.1184,-0.41797 -0.1874,-0.625 -0.029,-0.0742 -0.064,-0.14505 -0.094,-0.21875 -0.2457,-0.72492 -0.5156,-1.46007 -0.8125,-2.21875 a 1.50015,1.50015 0 0 0 -0.8125,-0.84375 c -1.0779,-1.71361 -2.3339,-3.34117 -3.5312,-4.96875 -2.8124,-3.82293 -5.3761,-7.70508 -5.6876,-12.84375 -0.239,-3.9426 1.2025,-9.6396 2.7813,-14.1875 1.4263,-4.10835 2.733,-6.92695 3,-7.5 19.752,-17.32212 35.6283,-32.89179 48.4063,-56.9375 12.8725,-24.22402 22.5932,-56.92208 30.4374,-108.6875 5,-32.99589 15.5149,-46.12194 27.75,-56.03125 1.913,-1.54929 3.8898,-3.10411 5.9063,-4.6875 l -8.625,9.96875 6.0625,4.65625 c 0,0 -2.1428,3.21875 -5,5.71875 -2.8571,2.5 3.9375,1.78125 3.9375,1.78125 0,0 0,4.28572 -2.5,5 -2.5,0.71429 4.2813,1.0625 4.2813,1.0625 l -10.375,14.28125 c 0,0 28.3744,-26.21927 44.2812,-56.59375 3.9473,-7.53729 -3.276,-2.02726 -3.5938,-6.625 -0.192,-2.77731 8.6058,-10.02297 4.1563,-13.71875 -2.2847,-1.8977 -7.4977,6.17611 -12.4375,11.875 -1.9531,1.64681 -3.991,3.33392 -6.0938,5.0625 -0.5878,0.17195 -1.1467,0.18869 -1.6562,0 -9.6428,-3.57144 -4.2946,3.39732 -11.4375,1.96875 C 1460.2952,333.85278 1446,334.75 1446,334.75 c 0,0 -8.5671,11.0759 -14.2812,13.21875 -5.7144,2.14286 -0.6966,3.22768 -7.125,12.15625 -6.4286,8.92857 -9.2813,12.85267 -16.7813,19.28125 -7.5,6.42857 20,-11.78125 20,-11.78125 0,0 -14.5165,24.83269 -34.4687,41.59375 20.1785,-9.28572 28.2037,-21.22836 40.875,-43.03125 15.625,-26.88543 28.6888,-25.70335 34.4062,-23.28125 -4.2946,3.40445 -8.2567,6.49643 -11.25,8.75 -12.8677,10.42167 -24.4324,25.30199 -29.5625,59.15625 -7.7993,51.46903 -17.389,83.59717 -29.875,107.09375 -6.3956,12.03547 -13.5636,21.83268 -21.6875,30.875 0.2403,-0.30628 0.4784,-0.61159 0.6875,-0.90625 a 1.50015,1.50015 0 0 0 -1.3437,-2.375 1.50015,1.50015 0 0 0 -1.0938,0.625 c -1.7586,2.47802 -5.4509,6.10928 -8.7188,9.0625 5.5466,-6.12321 11.4376,-12.90625 11.4376,-12.90625 a 1.50015,1.50015 0 0 0 -1.2813,-2.5 1.50015,1.50015 0 0 0 -1,0.53125 c 0,0 -4.0858,4.67303 -8.5937,9.71875 5.2898,-6.46705 9.9488,-12.7128 13.4062,-17.8125 a 1.50015,1.50015 0 0 0 -1.2812,-2.375 1.50015,1.50015 0 0 0 -0.1563,0 1.50015,1.50015 0 0 0 -1.0625,0.6875 c -10.0111,14.76633 -30.5296,39.75305 -47.0312,50.34375 a 1.50015,1.50015 0 1 0 1.5937,2.53125 c 7.7303,-4.96123 16.0706,-12.69299 23.8437,-21.0625 a 1.5027644,1.5027644 0 0 0 2.5313,0.90625 c 0.2224,-0.21443 0.5289,-0.56009 0.7813,-0.8125 a 1.5105424,1.5105424 0 0 0 2.3437,0.5625 c 0,0 2.8711,-2.36526 6.25,-5.40625 1.0377,-0.93392 2.1226,-1.92204 3.1875,-2.9375 -6.2655,6.42249 -13.0614,12.61008 -20.5,19.125 -0.01,0.005 -0.025,-0.005 -0.031,0 -18.5968,16.09503 -31.4818,19.67917 -41.375,20.9375 -0.8603,0.10941 -1.6802,0.17214 -2.5,0.25 4.736,-1.58757 8.1022,-4.25652 10.375,-7.03125 3.8945,-4.75459 4.75,-9.78125 4.75,-9.78125 a 1.50015,1.50015 0 0 0 -1.5313,-1.78125 1.50015,1.50015 0 0 0 -0.1563,0 1.50015,1.50015 0 0 0 -1.25,1.28125 c 0,0 -0.7427,4.24566 -4.125,8.375 -3.3822,4.12934 -9.2596,8.11817 -20.1874,7.34375 -11.4793,-0.81349 -19.2249,0.24607 -25.2188,3.125 -5.5502,2.66586 -9.4575,6.8315 -13.375,12.09375 -1.5576,-0.78971 -3.2064,-1.25879 -4.875,-1.375 -3.0016,-0.20905 -6.0355,0.52775 -8.7812,1.78125 -5.0835,2.32073 -9.3454,6.29446 -10.6563,10.46875 -0.7837,0.006 -1.5611,-0.007 -2.3125,0.0312 -4.1835,0.2106 -7.8659,0.93338 -11.1875,2.125 -5.9395,2.13082 -10.6096,5.76593 -14.625,10.5 l -0.5,-0.375 -1.4063,0.78125 c 0,0 -6.348,3.59439 -13.0624,5.875 -3.3572,1.14031 -6.8031,1.9119 -9.2813,1.84375 -1.239,-0.0341 -2.2061,-0.25013 -2.8437,-0.59375 -0.6378,-0.34362 -1.0039,-0.74338 -1.3126,-1.53125 -2.3432,-5.98203 -2.3173,-10.5502 -0.9062,-14.65625 1.4112,-4.10605 4.3303,-7.82377 8.1562,-11.53125 7.6517,-7.41497 18.7672,-14.4925 26.0313,-25.0625 6.8872,-10.02156 4.91,-18.2603 4.5313,-24.6875 -0.1894,-3.2136 -0.014,-5.9959 1.5312,-9.0625 1.545,-3.0666 4.6101,-6.56122 10.6562,-10.6875 5.3013,-3.61788 8.3755,-8.06175 9.8438,-12.75 1.4684,-4.68825 1.3858,-9.51295 0.875,-14.1875 -1.0214,-9.3491 -3.4937,-18.25466 -1.4062,-24.21875 2.2897,-6.54193 6.2056,-9.72385 10.2187,-14.875 4.0132,-5.15115 7.6466,-12.15511 8.1875,-25.0625 0.6228,-14.85838 4.1889,-18.20039 9.2812,-23.3125 5.0924,-5.11211 11.68,-11.67343 15.9376,-29.84375 1.8398,-7.85221 11.5871,-23.31778 25.2187,-37.78125 13.6317,-14.46347 31.172,-28.24869 48.2813,-34.3125 55.7,-19.74115 168.2353,-42.43664 230.5937,-44.5625 5.8716,-0.20017 12.2503,-0.35758 19.0313,-0.40625 z m -44.4376,92.34375 c -4.0369,0.0252 -9.7485,0.44827 -17.8124,1.59375 -33.9937,4.82882 -43.4376,20.6875 -43.4376,20.6875 18.2917,-17.50653 64.6512,-18.67909 65.1563,-16.40625 0.505,2.27284 -5.2813,3.28125 -5.2813,3.28125 0,0 -0.6185,7.48366 2.2813,6.46875 5.0507,-1.76776 5.2813,0.11564 5.2813,4.15625 0,2.95588 5.5784,-0.76777 7.0937,1 1.5152,1.76777 -0.4687,5.59375 -0.4687,5.59375 0,0 6.8286,1.16049 5.25,-10.15625 -0.9582,-6.86833 -9.6031,-1.99539 -11.125,-6.8125 -0.9077,-2.87279 -0.2622,-2.46363 2.5312,-3.03125 l 0.2188,-4.625 c 0,0 -0.8063,-1.80553 -9.6876,-1.75 z m -57,30.28125 c -1.0352,-0.22706 -5.2187,6.71875 -5.8437,9.6875 -0.7143,3.39286 -1.2366,6.41964 -2.8437,8.5625 -1.6071,2.14286 -1.0626,3.75 -1.0626,3.75 0,0 3.2098,-3.74107 5.5313,-3.5625 1.3655,0.10504 0.9909,2.35449 0.75,4.53125 -0.252,0.10618 -0.7813,0.34375 -0.7813,0.34375 l -0.5,2.03125 c 0,0 -7.5617,2.84026 -4.5312,9.40625 -4.6482,2.28028 0.2377,4.33674 -1.0312,7.78125 -1.289,3.49882 4.5624,-0.25 4.5624,-0.25 0,0 5.3059,16.89051 24.8126,20.5 0.9353,-2.28335 -17.3755,-7.53533 -20.2188,-23.125 -0.2749,-1.50676 14.9621,-12.40442 37.2188,-18.59375 -4.975,4.09561 -14.0312,10.96012 -11.9063,18.09375 2.5,8.39285 10.8973,14.27232 18.2187,14.09375 7.3215,-0.17857 17.8482,-4.62947 21.0626,-9.09375 3.2143,-4.46429 4.4687,-8.40178 4.4687,-13.9375 0,-5.13216 -2.4607,-9.78315 -6.375,-13.28125 4.7265,-0.21949 9.5885,-0.14765 14.5313,0.34375 4.8794,0.4851 4.5581,7.82012 8.0937,7.0625 l -11.125,-23.25 c 0,0 -9.075,5.06757 -17.1563,4.5625 -8.0812,-0.50508 -36.8714,1.50159 -43.4374,7.5625 -0.6981,0.64429 -1.4573,1.2788 -2.2188,1.875 -0.8787,-0.0532 -1.5718,-0.5305 -1.2188,-2.03125 0.7144,-3.03572 -3.9509,0.20536 -4.8437,0.5625 -0.8929,0.35714 -0.1563,-4.125 -0.1563,-4.125 0,0 -3.75,-6.08036 -3.75,-8.9375 0,-0.35714 -0.1021,-0.53006 -0.25,-0.5625 z m 221.125,13 c 2.5042,0.008 5.3424,0.2401 8.5,0.78125 -4.8517,3.19844 -14.6838,9.95425 -15.0312,20.03125 -0.023,0.67587 -0.02,1.33941 0.031,1.96875 -2.4389,-3.5204 -5.0406,-7.22594 -8,-11.4375 -1.3647,-1.94194 -2.4908,-3.75601 -3.4687,-5.46875 3.9487,-2.97512 9.063,-5.90181 17.9687,-5.875 z m 15.5626,10.59375 c 0.1262,0.12627 3.1599,-0.50936 2.7812,3.53125 -0.3789,4.04061 -1.4109,4.65371 -4.0625,4.90625 -2.6517,0.25254 -2.3738,-2.76095 -2.5,-4.78125 -0.1263,-2.02031 1.0034,-3.65625 3.7813,-3.65625 z m -186.7188,0.625 c 1.9704,0.0591 3.7479,0.92122 4.0312,2.78125 0.7883,5.17332 0.3926,8.91763 -5.7187,8.40625 -4.139,-0.34634 -5.1944,-4.4329 -4.2813,-7.875 0.5688,-2.14341 3.4353,-3.38851 5.9688,-3.3125 z m 29.6562,9.15625 c -0.5163,0.0128 -1.0117,0.42453 -1.4062,0.9375 -1.2627,1.64149 -0.1327,3.29854 0.625,4.6875 0.7576,1.38895 0.7652,12.73937 -0.75,16.90625 -1.5153,4.16687 -6.0689,5.92227 -5.4375,7.4375 0.1262,0.12627 4.0409,-1.25841 6.1875,-3.53125 2.1465,-2.27285 3.5338,-6.17211 3.2812,-17.03125 -0.1736,-7.46566 -1.364,-9.4344 -2.5,-9.40625 z m -70.5937,10.03125 c -1.6566,0.23891 -2.9834,2.85686 -0.062,3.5625 2.8896,3.11892 5.3589,9.26102 14.25,13.0625 -1.25,2.32143 1.4688,2.875 1.4688,2.875 0,0 18.0509,5.18604 38.0937,2 2.4551,-0.39028 4.5719,-3.95464 2.7813,-3.65625 -5.8769,0.97935 -16.3519,1.08386 -26.9376,-0.84375 -11.363,-2.06918 -22.4854,-5.19886 -27.5937,-15.6875 -0.4367,-0.89662 -1.0582,-1.27864 -1.6563,-1.3125 -0.1121,-0.006 -0.2333,-0.0159 -0.3437,0 z m 87.7813,14.40625 a 1.50015,1.50015 0 0 0 -1.25,1.125 c -1.1334,4.04781 -4.4826,8.96896 -7.5938,12.78125 -3.1111,3.81229 -5.9062,6.53125 -5.9062,6.53125 a 1.50015,1.50015 0 1 0 2.0624,2.15625 c 0,0 2.9282,-2.82568 6.1563,-6.78125 3.2281,-3.95557 6.8209,-9.02549 8.1875,-13.90625 a 1.50015,1.50015 0 0 0 -1.6562,-1.90625 z m 137.9062,3.375 c 2.8655,0.0908 5.874,4.19972 7.5312,6.09375 1.7679,2.02031 12.8572,-0.0211 14.625,-1.03125 0.5293,-0.30243 1.4648,-0.9963 2.5313,-1.8125 0.5613,3.87701 3.0139,10.27394 4.0313,14.34375 1.4285,5.71429 4.0613,10.90034 7.5,23.9375 0.821,3.11313 1.4834,5.40428 2.0624,7.3125 0.018,0.20579 0.045,0.41979 0.063,0.625 0.5446,6.05772 0.6192,14.91539 0.5624,22.625 -0.028,3.8548 -0.1053,7.37417 -0.1562,10.1875 -3.6447,-7.25191 -7.7653,-16.70738 -9.75,-23.9375 -3.5356,-12.87945 -21.4864,-41.40942 -29.0625,-53.53125 -0.9856,-1.57687 -1.9784,-3.13335 -2.9687,-4.6875 0.7122,0.0582 1.5351,0.0618 2.4687,-0.0937 0.1893,-0.0316 0.3714,-0.0374 0.5625,-0.0312 z M 1426.5938,482.75 C 1423.3107,489.94733 1415,508.65625 1415,508.65625 l 3.4062,1.125 c 0,0 4.5389,5.30568 3.7813,9.09375 -0.7576,3.78808 6.3201,9.46605 5.5625,19.0625 2.5254,-7.07107 -0.5212,-13.87833 -1.5312,-16.65625 -1.0102,-2.77792 2.0312,-7.0625 2.0312,-7.0625 0,0 -1.0085,-1.2922 -3.2812,-3.3125 2.1465,-3.91435 4.5312,-8.8125 4.5312,-8.8125 0,0 -2.6297,-2.16719 -5.2812,-4.1875 1.01,-4.04061 4.5215,-10.73684 2.375,-15.15625 z m 8.75,49.375 c -0.163,0.0829 -0.3555,0.64258 -0.5313,1.84375 -1.0714,7.32143 -5.875,12.6875 -5.875,12.6875 -0.3571,0.53571 3.0313,0.16072 5.5313,-1.625 2.0311,-1.45089 1.7059,-12.67104 0.9374,-12.90625 -0.022,-0.007 -0.039,-0.0118 -0.062,0 z m 197.6874,6.84375 c -25.4498,0.14044 -47.839,18.27129 -51.5312,37.59375 -5.3571,28.03571 12.1985,40.34191 14.2188,41.5 0,0 -20.5931,-26.43999 -2.1563,-54.625 15.5357,-23.75 51.4767,-19.60454 58.5937,-17.5 39.0368,11.54314 37.131,33.86568 103.5938,61.53125 -47.0358,-27.93331 -75.7572,-68.76284 -122.7188,-68.5 z M 1444.25,544.9375 a 1.50015,1.50015 0 0 0 -1.1875,0.96875 c -2.0255,5.06367 -6.4375,11.3125 -6.4375,11.3125 a 1.50015,1.50015 0 1 0 2.4375,1.71875 c 0,0 4.5211,-6.25562 6.7813,-11.90625 a 1.50015,1.50015 0 0 0 -1.4376,-2.09375 1.50015,1.50015 0 0 0 -0.1562,0 z m 175.9375,22.78125 c -8.2143,0.17856 -33.8896,5.11895 -21.7813,34.09375 1.0676,2.55441 5.6004,2.54071 5.1563,-0.6875 -0.8749,-6.35987 6.9117,-5.1659 5.9687,-15.34375 -1.5851,-17.10907 22.8035,-13.07143 23.875,-10.75 1.0715,2.32143 2.9939,5.57034 6.7813,4.28125 0,0 -3.3974,-1.95089 -3.2187,-4.09375 0.1784,-2.14285 -10.879,-7.62831 -16.7813,-7.5 z m -285.75,2.03125 a 1.50015,1.50015 0 0 0 -1,0.53125 c 0,0 -3.0696,3.40657 -4.8437,5.0625 a 1.5146582,1.5146582 0 1 0 2.0624,2.21875 c 2.0138,-1.87959 5.0313,-5.28125 5.0313,-5.28125 a 1.50015,1.50015 0 0 0 -1.0937,-2.53125 1.50015,1.50015 0 0 0 -0.1563,0 z m 313.3125,23.375 c -6.2084,0.15473 -12.9555,1.63839 -15.9688,4.25 -5.3571,4.64286 -4.2337,15.43268 5,20 16.1476,7.98713 28.6317,0.072 23.6563,-1.8125 -7.7987,-2.95386 -21.684,-16.41675 -11.4063,-18.09375 9.4004,-1.53381 19.9416,15.59358 21.6876,26.96875 2.7144,17.68533 -0.375,26.84375 -0.375,26.84375 9.5487,-18.72987 -1.185,-49.19013 -11.0626,-56.0625 -2.2065,-1.53531 -6.7024,-2.21409 -11.5312,-2.09375 z m -361.4375,2.96875 c 2.3128,-0.0315 4.8509,0.055 7.625,0.25 -3.3787,0.79208 -6.59,2.32279 -9.3125,5.3125 -4.3343,4.75981 -9.2104,9.53498 -13.25,12.375 -2.3432,1.6474 -4.2922,2.36535 -5.625,2.25 -1.3328,-0.11535 -2.628,-0.82141 -4.2188,-3.6875 -0.7128,-1.28449 -1.7409,-2.34787 -2.9374,-3 3.5659,-4.67502 7.0037,-8.12538 11.6874,-10.375 4.0091,-1.92562 9.0384,-3.02977 16.0313,-3.125 z m 386,8.59375 c 0,0 8.4139,10.34238 10.9063,33.21875 0.8701,7.98762 4.2812,-7.34375 4.2812,-7.34375 0,0 7.5044,18.04911 9.4688,29.65625 1.9641,11.60715 2.6606,-8.38393 -1.625,-18.5625 -4.2859,-10.17858 -9.2591,-21.97321 -8.1876,-25.1875 1.0715,-3.21428 -3.5937,3.03125 -3.5937,3.03125 0,0 -2.5,-10.88393 -11.25,-14.8125 z m -422.6875,5.5 c 0.3011,-0.003 0.6105,0.0108 0.9062,0.0312 0.3207,0.0223 0.6241,0.0765 0.9376,0.125 -3.2303,1.92779 -6.3715,5.28407 -9.7188,8.96875 -0.2394,0.26353 -0.4781,0.54592 -0.7188,0.8125 -2.2756,-0.29806 -4.4401,-0.49958 -6.5,-0.59375 1.3334,-2.66216 4.7054,-5.96327 8.6876,-7.78125 2.0896,-0.95397 4.2985,-1.54206 6.4062,-1.5625 z m 267.5,3.15625 c -0.4264,-0.009 -1.0494,-0.006 -1.8125,0.0312 -4.5784,0.22442 -14.3191,1.80358 -18.9687,10.8125 a 1.50015,1.50015 0 1 0 2.6562,1.375 c 5.2289,-10.13097 18.5625,-9.21875 18.5625,-9.21875 a 1.50015,1.50015 0 1 0 0.2187,-2.96875 c 0,0 -0.2298,-0.0219 -0.6562,-0.0312 z m -286.8438,9.09375 c 0.6297,-0.0167 1.2811,-0.007 1.9376,0 1.9866,0.0201 4.0965,0.16046 6.3437,0.40625 -2.3445,2.60865 -4.6981,5.19895 -7,7.375 -3.3481,3.16507 -6.5993,5.28213 -8.7813,5.625 -8.4845,1.3332 -14.2854,-0.79382 -17,-2.15625 3.672,-4.2513 7.7885,-7.36914 13.0313,-9.25 3.2988,-1.18343 7.0603,-1.88302 11.4687,-2 z m 127.8438,7.40625 c 0.2291,2.65695 0.1234,5.00465 -0.094,7.15625 -0.4788,4.74388 -1.5756,8.71053 -0.1562,12.96875 1.9099,5.72958 3.625,12.06472 8.625,17.25 -0.2704,-0.12633 -0.5398,-0.24823 -0.8125,-0.375 -5.1141,-2.37708 -10.3777,-4.99267 -12.9375,-8.84375 -2.9147,-4.38518 -3.8546,-7.88724 -3.8125,-10.875 0.042,-2.98776 1.0719,-5.55403 2.5625,-8.03125 1.4907,-2.47722 3.4328,-4.77542 5.125,-7.0625 0.5288,-0.71471 1.0325,-1.44288 1.5,-2.1875 z m 18.4062,44.71875 c 1.4286,1.12257 2.3261,2.12797 2.8438,3.21875 0.9392,1.97874 0.9259,4.78955 0.2188,10.09375 -1.1451,8.5879 3.1798,16.58514 10.3124,22.84375 -3.3939,0.3196 -6.6923,0.45185 -9.5312,0.0937 -4.0082,-0.50561 -6.8439,-1.79433 -8.5938,-4.8125 -2.5834,-4.45585 -3.3937,-7.76325 -3.3437,-10.34375 0.05,-2.5805 0.9153,-4.5589 2.1563,-6.4375 1.2409,-1.8786 2.8856,-3.55237 4.3124,-5.4375 1.4268,-1.88513 2.7912,-4.26818 2.3438,-7.09375 -0.1226,-0.7742 -0.3827,-1.47175 -0.7188,-2.125 z m 27.7188,45.28125 c 5.4861,2.91506 12.2006,6.39559 18.2812,9.96875 4.298,2.52559 8.2706,5.08071 11.125,7.375 2.8544,2.29429 4.4152,4.46517 4.5,5.3125 0.2348,2.34765 -0.182,4.94032 -0.7812,7.3125 l -4.875,4.15625 c -3.3643,2.85295 -6.2864,4.88885 -8.875,6.46875 1.417,-1.77952 2.6334,-3.7542 3.0312,-6.125 0.5714,-3.40488 -0.6857,-7.22169 -4.0624,-10.5625 -3.9886,-3.94614 -9.9263,-3.85353 -15.0313,-4.6875 -2.5524,-0.41699 -4.9312,-0.97039 -6.7813,-1.9375 -1.8501,-0.96711 -3.2073,-2.21866 -4.1562,-4.4375 -1.2516,-2.92696 -0.4444,-5.26689 1.2812,-7.59375 1.7256,-2.32686 4.4627,-4.26738 6.1563,-5.15625 l 0.1875,-0.0937 z m 43.0938,28.53125 c 0.116,-0.009 0.229,-0.0132 0.3124,0 0.3339,0.0528 0.6388,0.21158 1.125,0.84375 0.9341,1.21424 1.549,3.55784 1.25,5.8125 -0.2988,2.25466 -1.394,4.36802 -3.5937,5.625 -3.0034,1.71623 -6.9392,5.42856 -10.0625,10.03125 -3.1233,4.60269 -5.4386,10.10502 -4.2812,15.3125 1.1443,5.15006 5.3096,9.4157 10.5312,12.875 5.2216,3.4593 11.5787,6.13535 17.5,7.9375 5.5597,1.69208 10.7131,4.86144 14.1875,8.78125 3.3401,3.7683 5.1068,8.13456 4.5313,12.71875 l -0.7188,0.0625 c -11.2068,0.79241 -23.5932,-7.59482 -29.8125,-15.46875 -7.1916,-9.10496 -14.6791,-12.82751 -20.4375,-15.5625 -2.8791,-1.3675 -5.3,-2.52014 -7.0938,-3.875 -1.7937,-1.35486 -3.0255,-2.81845 -3.875,-5.3125 -1.3182,-3.87082 -1.0304,-6.59486 0.063,-9.0625 1.0934,-2.46764 3.1643,-4.72414 5.6874,-6.9375 4.317,-3.78697 10.0776,-7.24144 12.7813,-12.71875 a 1.5023582,1.5023582 0 0 0 1.9687,-0.6875 c 0,0 1.2223,-2.35979 2.2813,-5.71875 2.7277,-2.06203 4.7347,-3.48157 6.125,-4.15625 0.6951,-0.33734 1.183,-0.47222 1.5313,-0.5 z M 1585.5,799.9375 a 1.50015,1.50015 0 0 0 -0.2188,0.0312 1.50015,1.50015 0 0 0 -0.75,0.375 c -0.9748,0.87749 -1.9441,1.93483 -2.6874,3.0625 -0.7432,1.12767 -1.3461,2.32222 -1.1876,3.75 a 1.50015,1.50015 0 1 0 2.9688,-0.3125 c -0.02,-0.17936 0.1674,-0.94463 0.7188,-1.78125 0.5515,-0.83662 1.3768,-1.73909 2.1874,-2.46875 a 1.50015,1.50015 0 0 0 -1.0312,-2.6562 z m 98.0312,1.90625 a 1.50015,1.50015 0 0 0 -0.125,0.0312 c -1.9178,0.19179 -3.1113,1.36649 -4.375,2.21875 -1.2636,0.85226 -2.5318,1.5625 -4.5624,1.5625 -4.6404,0 -12.262,-0.78125 -20.1876,-0.78125 a 1.50015,1.50015 0 1 0 0,3 c 7.732,0 15.2313,0.78125 20.1876,0.78125 2.7674,0 4.7989,-1.08386 6.25,-2.0625 1.451,-0.97864 2.3923,-1.68925 3,-1.75 a 1.50293,1.50293 0 1 0 -0.1876,-3 z m -80.7812,7.0625 a 1.50015,1.50015 0 0 0 -1.0312,2.3125 c 1.5207,2.48843 3.5715,4.5456 5.8124,5.9375 -0.9127,0.33322 -1.7785,0.72533 -2.5937,1.21875 -2.6267,1.58988 -4.8477,3.8471 -7.9687,6.59375 a 1.50015,1.50015 0 1 0 1.9687,2.25 c 3.1923,-2.80919 5.391,-4.96694 7.5625,-6.28125 2.1715,-1.31431 4.3356,-1.92592 8.0312,-1.6875 a 1.5029268,1.5029268 0 0 0 0.6876,-2.875 1.5039823,1.5039823 0 0 0 -0.031,-0.0312 1.5029268,1.5029268 0 0 0 -0.031,0 1.5039823,1.5039823 0 0 0 -0.094,-0.0312 1.5039823,1.5039823 0 0 0 -0.8125,-0.1875 c -2.6191,0.18707 -7.4644,-2.3708 -9.9688,-6.46875 a 1.50015,1.50015 0 0 0 -1.375,-0.75 1.50015,1.50015 0 0 0 -0.1562,0 z m 95.7188,27.78125 c 1.337,0 3.2906,0.54076 5.375,1.28125 -0.7575,3.91197 -0.4309,7.50561 0.9062,10.9375 1.7672,4.53581 5.1781,8.77056 9.875,13.46875 1.7144,4.11649 3.8519,8.0168 5.625,11.65625 2.2743,4.66819 3.8416,8.87663 3.625,12.34375 -0.5239,8.38125 -1.692,14.10261 -7.8125,21.40625 -6.1206,7.30364 -17.4498,16.09187 -38.1563,29.15625 -18.0626,11.39636 -26.8062,25.83019 -29.875,40 -3.0687,14.16981 -0.5991,27.9778 3.2188,38.5 0.4132,1.1389 0.9123,2.2032 1.5,3.1875 -8.7882,-7.1086 -12.5621,-20.13985 -11.25,-34 1.4535,-15.35336 9.1618,-31.46821 22.5938,-41.03125 16.8462,-11.99406 27.1068,-21.03806 33.0937,-31.3125 5.9869,-10.27444 7.5157,-21.63165 7.1563,-37.8125 A 1.50015,1.50015 0 0 0 1702.6562,873 a 1.50015,1.50015 0 0 0 -1.3124,1.53125 c 0.3547,15.96201 -1.1321,26.60861 -6.75,36.25 -5.6181,9.64139 -15.5161,18.42971 -32.25,30.34375 -14.2842,10.16984 -22.3156,27.07675 -23.8438,43.21875 -1.5282,16.14205 3.4706,31.79005 15.75,38.96875 a 1.50015,1.50015 0 0 0 0.375,0.1875 l -0.031,2.2812 c -0.068,2.8142 0.8373,5.1613 2.3437,7 -1.107,-0.5724 -2.2307,-1.0282 -3.3437,-1.7812 -2.9291,-1.9817 -5.9288,-4.5828 -9.4376,-7.5625 -0.012,-0.01 -0.019,-0.021 -0.031,-0.031 a 1.5040451,1.5040451 0 0 0 -0.4688,-0.9374 c -3.2195,-2.972 -7.3544,-7.2866 -10.25,-14.9063 -2.8955,-7.61972 -4.5287,-18.58228 -2.4062,-34.8125 1.649,-12.6104 7.0257,-19.22148 14.75,-27.03125 3.721,-3.76225 7.9772,-7.78571 12.5312,-12.75 2.1033,-1.42746 4.2017,-2.8462 6.0626,-4.125 2.2147,-1.52197 4.1492,-2.8988 5.8124,-4.125 1.7752,-1.00234 3.4335,-2.08619 4.9688,-3.25 a 1.50015,1.50015 0 0 0 0.5312,-1.53125 c 3.1041,-3.09287 8.1391,-7.51375 10.8438,-13.34375 1.5234,-3.28393 2.2892,-7.08027 1.4375,-11.21875 -0.5046,-2.45163 -1.5851,-5.00918 -3.3125,-7.65625 -0.081,-0.75752 -0.2444,-1.44899 -0.5,-2.09375 -0.8998,-2.26907 -2.5877,-3.62936 -4.125,-5.25 -1.5374,-1.62064 -3.0377,-3.46458 -4.0938,-6.75 -2.1847,-6.79702 -1.8503,-11.97165 1.625,-17.84375 3.0661,-5.18055 8.7233,-10.86343 17.4376,-18 1.2863,-0.66986 2.5024,-1.09375 3.5,-1.09375 z m -47.0313,0.75 c 0.1858,0.0333 0.3778,0.0601 0.5625,0.0937 -1.0868,0.60227 -2.1272,1.22136 -3.125,1.84375 0.6856,-0.53764 1.6118,-1.23102 2.5625,-1.9375 z m 55.25,1.625 c 2.6139,1.08116 4.9076,2.17757 6.375,2.90625 -1.7142,4.60109 -1.6472,9.15211 -0.6875,13.46875 -2.207,-2.65153 -3.8496,-5.12244 -4.8125,-7.59375 -1.0866,-2.78895 -1.4177,-5.60309 -0.875,-8.78125 z m -41.3125,4.6875 a 1.5066584,1.5066584 0 0 0 0.062,0.0625 c -0.067,0.0613 -0.152,0.0944 -0.2187,0.15625 0.045,-0.0751 0.1103,-0.14305 0.1562,-0.21875 z m 6.3438,3.1875 a 1.50015,1.50015 0 0 0 1.9062,1.03125 c -0.2695,0.50052 -0.5152,0.99776 -0.7188,1.46875 a 1.50015,1.50015 0 1 0 2.75,1.1875 c 0.3029,-0.70054 0.7629,-1.52494 1.3126,-2.40625 a 1.5039823,1.5039823 0 0 0 1.5312,1 c -1.4061,1.69907 -2.5845,3.37871 -3.5625,5.03125 -3.0581,5.16698 -3.9471,10.30283 -3,15.875 -2.0718,-5.03298 -2.6338,-10.15702 -2.0313,-15.3125 0.3056,-2.61386 0.9274,-5.24685 1.8126,-7.875 z M 1388,887.28125 a 1.50015,1.50015 0 0 0 -0.4688,2.84375 c 4.6359,2.31792 10.5657,7.77553 13.7813,12.9375 1.6078,2.58098 2.5041,5.0996 2.4687,6.90625 -0.035,1.80665 -0.6518,2.94201 -2.9062,3.84375 a 1.5145776,1.5145776 0 1 0 1.125,2.8125 c 3.1028,-1.24112 4.7271,-3.85576 4.7812,-6.625 0.054,-2.76924 -1.1212,-5.6658 -2.9062,-8.53125 -3.5701,-5.73089 -9.6358,-11.34917 -15,-14.03125 A 1.50015,1.50015 0 0 0 1388,887.28125 z m 162.75,0.15625 c 0.1894,3.69778 1.1968,7.53277 3.0625,11.46875 -1.9712,-3.41722 -2.937,-6.52487 -3.0937,-9.375 -0.039,-0.70756 -0.02,-1.41173 0.031,-2.09375 z m 133.2812,5.4375 c 0.4467,1.06287 0.7653,2.10504 0.9688,3.09375 0.7108,3.45345 0.099,6.50363 -1.2188,9.34375 -2.6351,5.68024 -8.2401,10.22374 -11.4374,13.6875 -0.6459,0.69969 -1.9753,1.78789 -3.75,3.125 -0.6988,0.38878 -1.4172,0.75136 -2.1563,1.125 2.3673,-3.10415 4.7717,-6.51981 7.1875,-10.375 l 0.094,-0.125 c 5.0751,-8.12023 8.0668,-13.70497 9.625,-17.84375 0.2704,-0.71832 0.5014,-1.38571 0.6874,-2.03125 z m -105.5937,34.25 c 2.1668,1.80386 4.0792,3.26457 5.6563,4.5 2.3016,1.80289 3.9413,3.141 4.9062,4.3125 0.9649,1.1715 1.3113,2.06363 1.2812,3.53125 -0.1612,8.06738 -3.8115,12.03665 -8.8124,15.71875 0.136,-3.20525 0.8181,-5.84997 2.4687,-11.71875 0.8729,-3.10369 0.7613,-5.92198 -0.25,-8.5625 -1.0113,-2.64052 -2.8335,-5.06834 -5.25,-7.78125 z m -207.125,1.21875 a 1.50015,1.50015 0 0 0 -1.2187,2.1875 c 0.4689,0.93788 1.802,3.17519 3.9062,5.375 2.1042,2.19981 4.9866,4.375 8.5,4.375 a 1.50015,1.50015 0 1 0 0,-3 c -2.2009,0 -4.4881,-1.56142 -6.3125,-3.46875 -1.8244,-1.90733 -3.161,-4.13431 -3.4063,-4.625 a 1.50015,1.50015 0 0 0 -1.4687,-0.84375 z M 1655.125,931.5 c -2.8225,1.91019 -5.7769,3.90587 -8.7188,5.9375 -5.7297,3.95702 -11.381,8.02419 -15.875,11.78125 -4.494,3.75706 -7.8774,7.01123 -9,10.21875 -1.8961,5.41759 -3.4879,16.33479 -4.125,26.65625 -0.3186,5.16073 -0.3716,10.14533 -0.062,14.15625 0.058,0.7582 0.163,1.4364 0.25,2.125 -5.7557,-5.58732 -8.0566,-10.39327 -8.2813,-15.71875 -0.2934,-6.95412 3.1659,-15.27964 8.2187,-27.40625 4.8387,-11.61284 15.0113,-18.00504 26.1876,-23.03125 3.7646,-1.69306 7.6254,-3.20772 11.4062,-4.71875 z m -9.625,10.25 c -0.6098,0.60525 -1.2858,1.24802 -1.875,1.84375 -7.8428,7.92957 -13.8511,15.45556 -15.5938,28.78125 -2.1706,16.59975 -0.5085,28.0861 2.5938,36.25 0.9483,2.4956 2.0442,4.6471 3.1875,6.5625 -2.7725,-2.017 -5.869,-4.0981 -9.3437,-6.1563 a 1.5033329,1.5033329 0 0 0 -0.5938,-1.2812 c -0.8971,-0.6942 -1.73,-1.3652 -2.5312,-2.0312 -0.1143,-0.2854 -0.2122,-0.6133 -0.3126,-1 -0.3103,-1.197 -0.5731,-2.7944 -0.7187,-4.6876 -0.2912,-3.78605 -0.2193,-8.68288 0.094,-13.74995 0.6257,-10.13415 2.3294,-21.15981 3.9688,-25.84375 0.6451,-1.84324 3.7019,-5.29203 8.0625,-8.9375 3.686,-3.08155 8.2884,-6.41234 13.0625,-9.75 z m -52.9375,3.125 c 1.8028,1.8387 2.1568,3.09433 1.9375,4.5 -0.2576,1.65083 -1.6584,3.81132 -3.5625,6.65625 -2.8156,4.20682 -6.5335,9.97019 -8.125,18.75 -0.2689,-1.88865 -0.455,-3.80921 -0.5937,-5.75 -0.3361,-4.70579 -0.6027,-7.76592 -0.7188,-10.21875 0.3414,-0.23627 0.6941,-0.4462 1.0312,-0.6875 4.455,-3.18727 8.457,-7.08774 10.0313,-13.25 z m -13.9375,15.9375 c 0.1309,2.23673 0.3394,4.87839 0.5938,8.4375 0.3829,5.36061 1.2423,10.68974 2.8437,15.6875 l 0,0.3125 c 0.1438,5.89757 1.7872,10.55786 4.0313,14.1875 -2.6478,-1.59564 -5.1842,-3.48038 -7.4063,-5.6875 -6.1859,-6.14425 -10.1793,-14.50053 -8.75,-26.1875 l 0.031,-0.15625 c 2.6095,-2.54971 5.6269,-4.57694 8.6562,-6.59375 z m 9.4688,36.15625 c 1.734,2.33091 3.7866,4.46265 6.1874,6.37505 -0.542,-0.1981 -1.0804,-0.4037 -1.625,-0.625 -1.6576,-1.5126 -3.2489,-3.3877 -4.5624,-5.75005 z m 68.2812,25.84375 c 0.034,0.028 0.059,0.066 0.094,0.094 l -0.125,-0.062 a 1.50015,1.50015 0 0 0 0.031,-0.031 z"
           id="path4156"
           style="fill:#473d2e;stroke-width:1px" />
        <path
           d="m 1586.4286,277.36218 c 0,17.85714 2.8571,27.85714 12.1428,35 9.2857,7.14286 37.1429,15.71429 38.5715,20.71429 1.4285,5 22.8571,12.14285 3.5714,24.28571 6.9782,5.57687 29.9133,0.10769 31.7244,-14.12727 2.4358,-19.14461 -10.2958,-25.15844 -10.2958,-25.15844 0,0 18.6939,-5.29587 20.1225,-13.15301 1.4286,-7.85714 19.8775,-6.84699 19.8775,-10.41842 0,-3.57143 0.7142,-30 -6.4286,-38.57143 -7.1429,-8.57143 -54.2857,-39.28571 -71.4286,-39.28571 -17.1428,0 -37.1428,62.14285 -37.8571,60.71428 z"
           id="path4164"
           style="fill:#eeecbb;stroke:#473d2e;stroke-width:5;stroke-linecap:round;stroke-linejoin:round;stroke-miterlimit:4;stroke-opacity:1;stroke-dasharray:none" />
        <path
           d="m 1911.9375,48.53125 c -0.5268,0.0059 -1.1562,0.299107 -1.9375,0.96875 -5,4.285714 -10.0045,6.4375 -30.7187,6.4375 -20.7143,0 -9.2679,11.410715 -32.1251,12.125 -22.8571,0.714286 -44.2991,22.870536 -72.1562,22.15625 8.5714,15 45.0134,0.705357 62.1563,-1.4375 17.1428,-2.142857 39.2589,-17.125 55.6875,-17.125 16.4285,0 -19.9911,7.834822 6.4375,16.40625 26.4285,8.571429 39.3035,-10.700892 52.875,-2.84375 13.5714,7.857143 -11.4465,29.29464 -7.875,26.4375 3.5714,-2.85715 10.7142,-4.28125 5,5.71875 -5.7143,10 3.5714,8.56696 10,-0.71875 6.4285,-9.28572 41.4196,-25.022321 53.5625,-23.59375 12.1428,1.428572 5.0089,-11.40625 1.4375,-16.40625 -3.5715,-5 -6.4152,9.290178 -17.8438,0.71875 -11.4286,-8.571429 -12.8705,-4.290179 -17.1562,-5.71875 -4.2858,-1.428572 4.9999,-12.142857 -10,-10 -15,2.142857 -21.4375,-2.160714 -31.4375,-7.875 -10,-5.714286 -23.5625,2.875 -23.5625,2.875 0,0 0.5007,-8.156782 -2.3438,-8.125 z m -571.2171,14.923386 c -2.1624,-0.0056 -27.3713,-8.305047 -30.2284,-7.680047 -22.8572,5 0.6125,7.643469 -27.2446,4.786326 -27.8572,-2.857143 -40.8864,11.274589 -57.315,11.274589 -16.4286,0 -21.7432,21.422602 -35.2374,29.379606 -15.6005,9.19906 -35.3843,30.39387 -27.3574,43.75889 21.2817,15.65524 41.5509,-41.14449 52.9402,-39.72083 11.4285,1.42857 14.4231,-15.03442 26.566,-10.03442 12.1428,5 7.343,-13.912119 22.343,-13.912119 15,0 25.5154,2.109952 28.3725,7.824238 2.8571,5.714286 5.7398,-23.193369 28.5969,-13.193369 22.8572,10 8.6928,17.147321 27.2642,15.71875 18.5714,-1.428572 35.4288,-2.984159 46.8573,6.301555 11.4286,9.285715 38.0887,-3.83439 38.0887,-3.83439 0,0 -25.8039,0.38105 -40.8039,-13.904665 -15,-14.285714 -18.5759,-2.142857 -25.7187,-10 -6.25,-6.874999 -11.9867,-6.725051 -27.1234,-6.764114 z m 682.9671,33.076614 c -1.9048,0.01674 -4.4866,0.459822 -7.9687,1.53125 -18.5715,5.71428 -52.8617,25.71428 -60.7188,35 -7.8571,9.28571 18.5625,-9.98214 23.5625,-7.125 5,2.85714 -9.9955,11.41518 -14.2812,17.84375 -4.2858,6.42857 18.5624,-7.83482 23.5624,-1.40625 5,6.42857 -22.1383,17.85267 -19.2812,29.28125 2.8571,11.42857 14.2857,-4.29911 20,-2.15625 5.7143,2.14286 17.8616,7.14286 15.7188,15 -2.1429,7.85714 -26.4375,15.72767 -31.4375,27.15625 -5,11.42857 65.0223,-13.56696 78.5937,-9.28125 13.5714,4.28572 -1.442,-22.86607 -17.1562,-21.4375 -15.7143,1.42857 -7.125,-6.4375 7.8749,-6.4375 15,0 14.9911,-16.4375 -1.4375,-16.4375 -16.4285,0 -28.5669,0.0223 -34.2812,3.59375 -4.2857,-7.85715 16.433,-15.72321 25.7188,-16.4375 9.2857,-0.71428 1.4107,-14.99554 2.125,-24.28125 0.4825,-6.2737 -6.5223,-5.36863 -11.125,-4.125 3.3429,-1.35219 7.4441,-3.79472 6.125,-7.3125 -1.7411,-4.64286 2.6604,-13.041295 -5.5938,-12.96875 z m -850.875,70.4375 c -0.8336,-0.11961 -1.5906,1.66957 -1.9063,6.5625 -1.0101,15.65736 -23.7488,22.22159 -39.4062,53.03125 -15.6574,30.80965 -22.2257,59.08169 -9.0937,72.71875 13.1319,13.63706 5.0769,27.79108 0.5312,45.46875 -4.5457,17.67767 8.0766,42.42655 22.2188,40.40625 14.1421,-2.02031 30.2988,4.55472 37.8749,14.65625 7.5762,10.10152 5.0532,31.79997 9.0938,23.71875 4.0406,-8.08122 10.5961,-9.0828 19.6875,-7.0625 9.0914,2.02031 -10.5922,64.64959 -4.5312,59.09375 6.0609,-5.55584 7.7142,-47.48214 19.5,-47.125 11.7857,0.35714 5.3526,23.93303 11.7812,20.71875 6.4286,-3.21429 4.2991,-29.63839 4.6562,-36.78125 0.3572,-7.14286 6.0581,-7.87053 10.3438,-4.65625 4.2857,3.21429 7.1562,-23.9375 7.1562,-23.9375 0,0 1.4242,13.94196 1.7813,24.65625 0.3571,10.71429 -4.2813,18.5625 -4.2813,18.5625 0,0 9.6429,-9.98661 12.5001,-15.34375 2.8571,-5.35715 10.6964,-26.44197 17.125,-37.15625 6.4285,-10.71429 37.1651,-37.14286 48.5937,-45 11.4286,-7.85714 41.0714,-11.41518 45,-10.34375 3.9286,1.07142 17.1473,-11.44197 20.7187,-7.15625 3.5715,4.28571 8.9108,-4.29465 12.1251,-1.4375 3.2142,2.85714 32.8571,-13.54911 32.4999,-8.90625 -0.3571,4.64285 5.7143,-1.79018 7.5,1.78125 1.2729,2.54575 6.3136,-3.01168 8.0938,-5.15625 -2.2329,3.27113 7.9688,1.59375 7.9688,1.59375 0,0 6.8125,-6.79018 4.3125,-3.21875 -2.5,3.57142 6.4285,2.125 7.5,-0.375 1.0714,-2.5 5,-4.28125 5,-4.28125 0,0 -0.01,3.58482 -1.4375,7.15625 -1.4286,3.57142 5.7187,-2.13839 5.7187,0.71875 0,2.85714 4.9821,-3.22321 4.625,1.0625 -0.3571,4.28571 4.2813,-1.78125 4.2813,-1.78125 0,0 1.7901,16.79018 3.2187,3.21875 1.4286,-13.57143 7.8705,-16.07143 7.1563,-12.5 -0.7143,3.57143 -0.7099,3.55804 3.2187,2.84375 3.9286,-0.71428 5.0045,2.5 0.7188,2.5 -4.2858,0 -2.8617,3.57589 -0.7188,5.71875 2.1429,2.14286 6.7634,-5.00893 6.4062,-1.4375 -0.3571,3.57143 -2.491,8.20535 1.4375,6.0625 3.9286,-2.14286 5.3617,-9.62054 5.7188,-6.40625 0.3571,3.21428 4.9866,-0.71875 5.3437,-3.21875 0.3572,-2.5 5.3617,-3.58482 8.2188,-2.15625 2.8571,1.42857 4.6473,-5.34375 10.7188,-5.34375 6.0714,0 7.5,-7.5 7.5,-7.5 0,0 2.866,6.05357 6.4375,4.625 3.5714,-1.42857 12.4866,-8.54911 12.8437,-6.40625 0.3571,2.14285 -3.9062,6.0625 -3.9062,6.0625 0,0 -1.8081,1.06696 6.4062,-3.21875 8.2143,-4.28572 13.2187,-23.5625 13.2187,-23.5625 l 1.0625,8.9375 5.375,-8.59375 c 0,0 2.8661,11.4375 6.4376,6.4375 3.5714,-5 8.5625,-15.00447 3.5625,-35.71875 -0.8944,-12.03394 -17.5606,-7.99763 -30.1876,1.09375 -12.6268,9.09137 -22.2384,8.08392 -57.5937,-9.59375 -35.3553,-17.67767 -37.8645,-8.56758 -57.5625,-8.0625 -19.698,0.50507 -6.0673,26.25666 -24.25,31.8125 -18.1827,5.55584 -15.661,-10.11326 -33.8437,-5.0625 -18.1828,5.05076 -8.5868,34.8539 -21.7188,33.84375 -13.132,-1.01015 -15.6535,-1.50619 -25.25,14.65625 -9.5964,16.16244 -29.8145,13.63753 -57.5937,21.71875 -27.7792,8.08122 -21.7126,36.86485 -37.875,37.875 -16.1625,1.01015 -25.7599,18.1875 -43.4375,18.1875 -17.6777,0 -13.1349,-20.21795 -30.8125,-17.1875 -17.6777,3.03046 -18.663,-8.58169 -24.2188,-22.21875 -5.5558,-13.63706 -4.5715,-21.21098 -19.2187,-31.3125 -14.6473,-10.10153 6.5913,-32.82312 -2.5,-53.53125 -9.0914,-20.70812 28.7921,-50.50745 30.8125,-59.09375 1.3889,-5.90308 -0.8224,-15.39311 -2.6563,-15.65625 z m 522.875,15.65625 c -16.6675,0 -12.1172,29.29489 -22.2187,21.71875 -10.1016,-7.57614 -12.1266,9.5855 -18.1876,-2.03125 -6.0609,-11.61676 -14.6535,10.60232 -24.2499,3.53125 -9.5965,-7.07107 -11.1138,0.52538 -19.7001,0.52538 -8.5863,0 -11.3732,15.90054 -11.3732,15.90054 0,0 5.5688,-2.03078 4.5587,7.31314 -6.5661,11.86929 18.9451,3.29948 18.9451,3.29948 0,0 3.4713,-8.80034 8.6721,-1.53408 3.9697,5.54624 32.6098,6.28118 37.1607,24.17858 2.7637,10.86863 13.6237,1.87078 11.0983,-5.70536 -2.5254,-7.57614 16.1613,12.61644 15.6563,19.6875 -0.5051,7.07107 -2.8844,9.08482 -9.9554,9.08482 -7.0711,0 7.0793,2 11.625,2 4.5456,0 1.4863,16.18243 9.0625,16.6875 7.5761,0.50508 24.7718,-19.70939 28.8124,-23.75 4.0407,-4.04061 5.1203,-0.86841 12.3565,-4.05235 6.3134,-2.77792 -9.8732,15.96773 -22.7113,16.66799 -13.8896,0.75761 -9.3439,4.8006 7.3236,13.13436 4.8655,2.43277 -5.5609,10.625 0.5,10.625 6.0609,0 6.5598,-8.59455 16.1563,-11.625 9.5964,-3.03046 -3.5457,7.56329 1,10.59375 4.5456,3.03046 11.1375,-7.0625 19.2187,-7.0625 8.0812,0 7.5742,12.14102 12.625,13.65625 5.0508,1.51523 26.2403,4.52585 48.4637,26.24413 22.2233,21.71827 44.4609,72.73287 52.5422,87.88515 8.0812,15.15229 17.6637,-29.30156 28.7754,-30.81678 11.1116,-1.51523 5.0691,9.59375 10.6249,9.59375 5.5559,0 -0.5238,-35.83788 8.0625,-33.3125 8.5864,2.52538 8.613,20.19099 22.2501,13.625 13.637,-6.56599 2.4965,-18.17307 9.0625,-22.71875 6.5659,-4.54569 19.2,7.56837 27.2812,10.09375 8.0812,2.52538 -7.0711,-23.22462 0,-25.75 7.0711,-2.52538 21.2356,15.1453 25.7813,13.125 4.5456,-2.02031 -23.2493,-30.80314 -20.2188,-34.84375 3.0305,-4.04061 24.2516,11.11755 30.3125,2.53125 6.0609,-8.58629 -3.0347,-30.31916 3.5313,-35.875 6.5659,-5.55584 7.5598,-2.02697 17.1562,-5.5625 9.5964,-3.53553 3.5531,-11.61722 7.5937,-21.71875 4.0407,-10.10152 10.0856,-25.75666 -1.5312,-31.3125 -11.6168,-5.55584 -59.5817,-8.0863 -73.2187,0.5 -13.6371,8.58629 23.7261,3.55314 32.3125,7.59375 8.5863,4.04061 17.6971,11.12072 -5.0313,14.65625 -22.7284,3.53554 -37.3851,17.15784 -36.375,23.21875 1.0102,6.06092 6.0438,5.05822 14.125,8.59375 8.0812,3.53553 -4.5352,2.53442 -19.6875,14.65625 -15.1523,12.12183 -1.0032,13.11135 -13.125,20.6875 -12.1218,7.57614 -8.0876,-1.00936 -24.25,3.03125 -16.1624,4.04061 -6.5555,14.15546 -19.6875,11.125 -13.132,-3.03045 -14.6696,20.20384 -25.7812,3.03125 -11.1117,-17.17259 -17.6587,0.99524 -26.7501,-17.1875 -9.0913,-18.18275 -23.2246,-11.11294 -25.7499,-24.75 -2.5254,-13.63706 -4.5497,-19.18163 -15.1563,-16.65625 -10.6066,2.52539 -9.6055,-21.72621 -14.6562,-30.3125 -5.0508,-8.5863 -10.0903,0.99921 -16.6563,-2.03125 -6.566,-3.03046 -7.5734,-20.17893 -9.5937,-27.25 -2.0204,-7.07106 -9.6063,5.54568 -17.6875,1 -8.0813,-4.54569 -5.5649,-7.57075 -14.6563,-19.1875 -9.0914,-11.61676 -7.5715,4.02459 -22.2187,-1.53125 -14.6473,-5.55584 -5.5513,-23.21875 -22.2188,-23.21875 z"
           id="path4166"
           style="fill:#473d2e;stroke:none" />
        <path
           d="m 1567.1429,335.93361 c 0,0 11.4285,-1.42857 15,-2.14286 3.5714,-0.71428 8.4841,-1.16226 13.5349,-2.17241 5.0507,-1.01015 -5.5559,12.62691 2.0203,17.67767 7.5761,5.05076 17.1726,1.51523 20.7081,10.10153 3.5355,8.58629 -2.5254,17.67767 4.5457,23.2335 7.0711,5.55584 11.6168,24.24367 13.132,29.29443 1.5152,5.05076 -2.0203,21.71828 -6.566,25.25381 -4.5457,3.53554 13.132,-14.64721 -2.5254,-30.30457 -15.6574,-15.65737 -20.7081,-28.28428 -20.203,-35.35534 0.505,-7.07107 1.0101,-15.65737 -12.627,-19.1929 -13.637,-3.53554 -15.1522,-8.08122 -16.1624,-11.11168 -1.0101,-3.03046 -9.5964,-4.54569 -10.8572,-5.28118 z"
           id="path4168"
           style="fill:#473d2e;stroke:none" />
        <path
           d="m 1642,222.625 a 1.50015,1.50015 0 0 0 -1.1875,2.1875 c 2.5027,5.00533 3.8499,12.83598 4.1562,19.75 0.1185,2.67308 0.068,5.21334 -0.094,7.40625 -1.22,3.92803 -2.3566,7.15744 -3.0312,9.96875 -0.1763,0.56395 -0.3498,1.14734 -0.5,1.78125 -0.5075,2.1421 -0.8283,4.65585 -0.875,7.15625 -0.047,2.5004 0.1877,4.99037 0.8437,7.1875 0.6561,2.19713 1.7434,4.17402 3.6563,5.25 3.3382,1.87773 6.8815,1.54398 9.3125,1.75 1.2155,0.10301 2.1043,0.32257 2.6562,0.71875 0.552,0.39618 0.9905,1.00909 1.2188,2.53125 0.1946,1.29729 -0.2258,2.46717 -1.25,3.53125 -1.0242,1.06408 -2.6747,1.93733 -4.6875,2.25 -3.9876,0.61944 -9.4212,-0.85085 -14.4687,-6.8125 0.1597,-0.17231 0.2982,-0.36627 0.375,-0.5625 0.1941,-0.49675 0.1739,-0.89027 0.125,-1.21875 -0.1957,-1.31391 -0.8566,-2.40635 -1.5313,-4.0625 -1.3495,-3.3123 -2.8255,-7.95012 -1.2187,-13 3.494,-10.98117 8.7201,-22.12026 4.0312,-37.75 -0.2945,-0.9818 -0.5434,-1.75359 -0.8125,-2.375 -0.2691,-0.62141 -0.4799,-1.09079 -1,-1.5625 -0.2601,-0.23585 -0.6783,-0.52643 -1.25,-0.53125 -0.5717,-0.005 -1.0829,0.31626 -1.3437,0.59375 -0.5218,0.55499 -0.6135,1.02845 -0.75,1.5625 -0.5463,2.13619 -0.6857,5.78125 -0.8125,10.1875 -0.1268,4.40625 -0.1874,9.41073 -0.375,13.5625 -0.094,2.07589 -0.2014,3.96149 -0.375,5.40625 -0.1737,1.44476 -0.5017,2.54677 -0.5625,2.65625 -0.6249,1.12478 -0.9508,2.54973 -1.25,4 -0.1295,-0.43867 -0.2031,-0.95135 -0.375,-1.34375 -0.4037,-0.92124 -0.9573,-1.79113 -1.9375,-2.28125 -0.4288,-0.21439 -1.4289,-1.28808 -2.4063,-3.09375 -0.9774,-1.80567 -2.0299,-4.27768 -3.125,-7.09375 -2.1903,-5.63214 -4.5985,-12.70727 -7.4062,-19.34375 a 1.5060332,1.5060332 0 1 0 -2.7813,1.15625 c 2.7481,6.4955 5.1459,13.54917 7.375,19.28125 1.1146,2.86604 2.191,5.42353 3.2813,7.4375 1.0902,2.01397 2.1272,3.54798 3.7187,4.34375 0.03,0.015 0.2779,0.2343 0.5313,0.8125 0.2533,0.5782 0.4901,1.45719 0.6875,2.5 0.3947,2.08562 0.6204,4.8303 0.9062,7.625 0.2858,2.7947 0.6253,5.61485 1.2813,8 0.6559,2.38515 1.6346,4.58306 3.8125,5.375 0.1205,0.0438 0.2311,0.0836 0.3437,0.125 a 1.50015,1.50015 0 0 0 0.375,1.34375 c 5.6265,6.75181 12.2354,8.83449 17.4062,8.03125 2.5855,-0.40162 4.8211,-1.51051 6.375,-3.125 1.554,-1.61449 2.4037,-3.81961 2.0625,-6.09375 -0.3073,-2.04927 -1.1702,-3.59037 -2.4375,-4.5 -1.2672,-0.90963 -2.7378,-1.16104 -4.1562,-1.28125 -2.8369,-0.24041 -5.7177,-0.0385 -8.0938,-1.375 -0.9442,-0.53116 -1.7542,-1.70382 -2.2812,-3.46875 -0.3952,-1.3237 -0.6236,-2.94315 -0.6875,-4.625 0.01,0.0115 0.022,0.0198 0.031,0.0312 4.5122,5.33253 12.4559,5.53125 15.7812,5.53125 1.1925,0 2.6047,-0.39263 4.2813,-1.125 1.6766,-0.73237 3.5681,-1.82329 5.4063,-3.375 3.6763,-3.10342 7.1169,-8.05049 7.875,-15.0625 a 1.50015,1.50015 0 1 0 -2.9688,-0.3125 c -0.6705,6.20228 -3.6451,10.36235 -6.8437,13.0625 -1.5994,1.35008 -3.2726,2.31942 -4.6876,2.9375 -1.4149,0.61808 -2.6478,0.875 -3.0625,0.875 -3.1031,0 -10.155,-0.51558 -13.5,-4.46875 -1.6647,-1.96738 -1.8645,-3.80204 -1.2812,-6.84375 0.073,-0.38021 0.1496,-0.77595 0.25,-1.1875 0.3666,-1.04958 0.7794,-1.86493 1.0625,-2.21875 1.1638,-1.4547 1.5437,-3.52634 1.875,-6.28125 0.06,-0.50169 0.1109,-1.05376 0.1562,-1.59375 0.1248,-0.40496 0.2486,-0.76584 0.375,-1.1875 A 1.50015,1.50015 0 0 0 1648,250 c 0.063,-1.74793 0.055,-3.62059 -0.031,-5.5625 -0.3187,-7.19312 -1.6143,-15.2598 -4.4688,-20.96875 A 1.50015,1.50015 0 0 0 1642,222.625 z m 9.2812,7.84375 a 1.50015,1.50015 0 0 0 -1.3437,1.625 c 0.3422,4.96192 -0.5105,6.61996 -1.2188,8.125 -0.3541,0.75252 -0.7793,1.57622 -0.8125,2.6875 -0.033,1.11128 0.3477,2.26116 1.125,3.71875 1.1103,2.08168 0.4999,4.41927 -0.375,7 -0.4374,1.29037 -0.9286,2.59797 -1.1875,3.9375 -0.2588,1.33953 -0.2617,2.83465 0.5313,4.15625 0.8043,1.34052 2.1455,2.19736 3.7187,2.90625 1.5733,0.70889 3.4224,1.22734 5.2813,1.46875 1.8589,0.24141 3.7353,0.21686 5.4375,-0.1875 1.7022,-0.40436 3.3157,-1.23318 4.2188,-2.78125 2.4973,-4.28123 3.5625,-6.0625 3.5625,-6.0625 a 1.50015,1.50015 0 1 0 -2.5625,-1.53125 c 0,0 -1.0912,1.77231 -3.5938,6.0625 -0.347,0.59479 -1.1018,1.11864 -2.3125,1.40625 -1.2107,0.28761 -2.7964,0.29881 -4.375,0.0937 -1.5786,-0.20501 -3.1558,-0.62406 -4.4063,-1.1875 -1.2504,-0.56344 -2.1391,-1.30481 -2.4062,-1.75 -0.2785,-0.46411 -0.3126,-1.06052 -0.125,-2.03125 0.1876,-0.97073 0.6071,-2.18769 1.0625,-3.53125 0.9109,-2.68713 1.9344,-6.09954 0.1875,-9.375 -0.6512,-1.22098 -0.7927,-1.8345 -0.7813,-2.21875 0.011,-0.38425 0.1711,-0.76591 0.5313,-1.53125 0.7203,-1.53067 1.8721,-4.16728 1.5,-9.5625 a 1.50015,1.50015 0 0 0 -1.5,-1.4375 1.50015,1.50015 0 0 0 -0.1563,0 z m -14.2812,2.5 c 2.5508,9.67744 1.0873,17.37069 -1.2187,24.8125 0.1841,-1.56075 0.3122,-3.42059 0.4062,-5.5 0.1912,-4.22933 0.2493,-9.25555 0.375,-13.625 0.075,-2.59916 0.283,-3.87328 0.4375,-5.6875 z m -26.7812,6.40625 c -0.3042,0.0205 -0.6135,0.10676 -0.8438,0.25 -0.4607,0.28648 -0.6619,0.66083 -0.8125,0.96875 -0.3012,0.61584 -0.427,1.1949 -0.5,1.90625 -0.2626,2.56009 0.1347,6.39154 1.5,9.5 a 1.50015,1.50015 0 0 0 -0.875,-0.1875 1.50015,1.50015 0 0 0 -1.3437,1.75 c 0,0 4.9962,31.7019 7.0625,41 1.102,4.95913 4.2983,9.66719 7.9062,13.40625 3.6079,3.73906 7.5538,6.50898 10.8438,7.40625 a 1.50015,1.50015 0 1 0 0.8125,-2.875 c -2.2659,-0.61796 -6.1631,-3.13547 -9.5,-6.59375 -3.337,-3.45828 -6.2068,-7.86776 -7.125,-12 -1.9383,-8.72227 -6.7889,-39.05976 -6.9688,-40.1875 2.8302,5.44672 6.125,14.75 6.125,14.75 a 1.50015,1.50015 0 0 0 2,0.90625 c 0.037,1.06759 0.1325,2.76116 0.6563,5.75 0.6062,3.45935 1.6839,7.92812 3.5937,12.71875 3.8196,9.58125 11.0321,20.46546 24.3437,26.46875 a 1.5039925,1.5039925 0 1 0 1.2188,-2.75 c -12.4472,-5.61347 -19.1509,-15.70593 -22.7812,-24.8125 -1.8152,-4.55328 -2.8287,-8.86021 -3.4063,-12.15625 -0.5776,-3.29604 -0.7187,-5.69366 -0.7187,-6.125 0,-1.08134 -0.3268,-2.18623 -0.8125,-3.78125 -0.4858,-1.59502 -1.147,-3.53583 -1.9063,-5.71875 -1.5185,-4.36584 -3.4068,-9.65821 -4.9062,-14.65625 -0.394,-1.31322 -0.7505,-2.28092 -1.125,-3.03125 -0.3746,-0.75033 -0.6317,-1.38037 -1.5938,-1.78125 -0.2405,-0.10022 -0.5396,-0.14549 -0.8437,-0.125 z m 1.0312,6.875 c 0.9578,3.1085 1.9793,5.99724 3,8.9375 -0.5609,-1.21793 -1.0329,-2.56546 -1.5937,-3.59375 -0.7592,-1.39182 -1.1754,-3.40277 -1.4063,-5.34375 z m -19.5,7.46875 c -1.4072,0.0117 -2.3438,0.15625 -2.3438,0.15625 l -1.3437,0.1875 0.062,1.34375 c 0,0 0.2631,6.13851 1.2187,13.65625 0.9557,7.51774 2.5432,16.39889 5.5,22.3125 5.6291,11.25804 11.106,17.84723 14.0313,20.1875 a 1.5007322,1.5007322 0 1 0 1.875,-2.34375 c -2.1254,-1.70035 -7.7361,-8.22218 -13.2188,-19.1875 -2.599,-5.19806 -4.2803,-13.96174 -5.2187,-21.34375 -0.8356,-6.5735 -1.009,-10.81613 -1.0625,-11.9375 1.2164,-0.0612 2.9342,-0.0404 4.8437,0.5 1.4727,0.41678 2.7725,1.11224 3.625,2.21875 0.8526,1.10651 1.3721,2.66828 1.0313,5.28125 -0.8313,6.3733 1.0217,18.54542 5,30.03125 1.9892,5.74291 4.524,11.29696 7.625,15.71875 3.101,4.42179 6.7948,7.79583 11.2188,8.9375 7.7772,2.00702 11.1629,3.37303 13.1562,5.3125 1.9934,1.93947 3.0109,4.91773 5.5625,10.53125 a 1.50015,1.50015 0 1 0 2.7187,-1.25 c -2.4991,-5.49816 -3.5088,-8.83129 -6.1874,-11.4375 -2.6787,-2.60621 -6.6199,-4.02891 -14.5,-6.0625 -3.4047,-0.87863 -6.6348,-3.69566 -9.5,-7.78125 -2.8653,-4.08559 -5.3249,-9.37933 -7.25,-14.9375 -3.8504,-11.11634 -5.559,-23.41279 -4.8751,-28.65625 0.4168,-3.1954 -0.252,-5.74935 -1.625,-7.53125 -1.3729,-1.7819 -3.3139,-2.75101 -5.1875,-3.28125 -1.8735,-0.53024 -3.749,-0.63667 -5.1562,-0.625 z m 97.5313,21.625 c -0.7648,0.0296 -1.5842,0.14608 -2.4688,0.40625 -3.5383,1.04068 -7.6696,4.25895 -12.0625,12.3125 -8.0811,14.81543 -28.3438,15.3125 -28.3438,15.3125 a 1.50015,1.50015 0 0 0 -1.0937,2.5 l 3.2187,3.5625 a 1.50015,1.50015 0 1 0 2.2188,-2 l -1.1875,-1.34375 c 6.184,-0.68671 20.736,-3.62009 27.8125,-16.59375 4.1786,-7.66073 7.7481,-10.12997 10.2813,-10.875 1.2665,-0.37252 2.3431,-0.32431 3.2812,-0.1875 0.9381,0.13681 1.5893,0.4375 2.625,0.4375 a 1.50015,1.50015 0 1 0 0,-3 c -0.036,0 -1.014,-0.23056 -2.2187,-0.40625 -0.6024,-0.0879 -1.2978,-0.15462 -2.0625,-0.125 z m 7.375,4.78125 c -1.4715,0.038 -3.0403,0.62588 -4.875,1.46875 -2.0969,0.96328 -4.4727,2.35266 -6.875,4 -4.8048,3.29467 -9.7261,7.63416 -12.5938,12.03125 -2.3518,3.60613 -7.8727,6.9956 -12.8125,9.3125 -4.9398,2.3169 -9.2188,3.625 -9.2188,3.625 a 1.50015,1.50015 0 0 0 0.25,2.9375 1.50015,1.50015 0 0 0 -0.1875,1.53125 c 1.2753,3.0605 4.7421,11.12967 5.7813,19.6875 0.5196,4.27891 0.4189,8.64368 -0.7813,12.53125 -1.2001,3.88757 -3.4397,7.28821 -7.4375,9.875 a 1.5039823,1.5039823 0 1 0 1.625,2.53125 c 4.5886,-2.96905 7.315,-7.08506 8.6875,-11.53125 1.3726,-4.44619 1.4288,-9.22133 0.875,-13.78125 -1.1074,-9.11984 -4.7185,-17.46834 -5.9687,-20.46875 a 1.50015,1.50015 0 0 0 -0.3125,-0.46875 c 1.9637,-0.10021 5.1893,-0.25 8.9687,-0.25 1.9893,0 3.9464,-1.05867 6.1876,-2.5625 2.2411,-1.50383 4.6935,-3.54867 7.125,-5.84375 4.8628,-4.59016 9.6241,-10.15484 12.25,-14.46875 a 1.50015,1.50015 0 0 0 -0.75,-2.21875 c 2.2851,-1.56695 4.55,-2.88292 6.4375,-3.75 1.8874,-0.86708 3.511,-1.197 4,-1.15625 a 1.5051993,1.5051993 0 1 0 0.25,-3 c -0.2068,-0.0172 -0.4148,-0.0367 -0.625,-0.0312 z m -13.3438,10.59375 c -2.5642,3.67911 -6.2854,8.07196 -10.2812,11.84375 -2.3454,2.21385 -4.6854,4.16678 -6.7188,5.53125 -2.0334,1.36447 -3.842,2.0625 -4.5313,2.0625 -1.1544,0 -1.2501,0.0368 -2.375,0.0625 0.5051,-0.22336 0.852,-0.31716 1.375,-0.5625 5.1495,-2.41525 11.026,-5.79809 14.0313,-10.40625 1.8739,-2.87326 5.1138,-5.83139 8.5,-8.53125 z m -43.4062,22.71875 a 1.50015,1.50015 0 0 0 -0.1563,2.96875 c 3.2128,0.85673 5.6915,3.61184 7.4062,7.21875 1.7148,3.60691 2.5938,7.97651 2.5938,11.53125 a 1.50015,1.50015 0 1 0 3,0 c 0,-4.02141 -0.928,-8.74825 -2.875,-12.84375 -1.947,-4.0955 -5.0116,-7.64892 -9.375,-8.8125 a 1.50015,1.50015 0 0 0 -0.4375,-0.0625 1.50015,1.50015 0 0 0 -0.1562,0 z m 22.8749,11.59375 a 1.50015,1.50015 0 0 0 -0.1875,0.0312 1.50015,1.50015 0 0 0 -1.1875,1.875 c 2.023,8.09192 3.5902,14.22697 3.5313,18.9375 -0.059,4.71053 -1.4858,7.98624 -6,11.3125 a 1.50015,1.50015 0 1 0 1.7812,2.40625 c 5.0823,-3.7448 7.1514,-8.2965 7.2188,-13.6875 0.067,-5.391 -1.6074,-11.61698 -3.625,-19.6875 a 1.50015,1.50015 0 0 0 -1.5313,-1.1875 z"
           id="path4170"
           style="font-size:medium;font-style:normal;font-variant:normal;font-weight:normal;font-stretch:normal;text-indent:0;text-align:start;text-decoration:none;line-height:normal;letter-spacing:normal;word-spacing:normal;text-transform:none;direction:ltr;block-progression:tb;writing-mode:lr-tb;text-anchor:start;color:#000000;fill:#473d2e;fill-opacity:1;stroke:none;stroke-width:3;marker:none;visibility:visible;display:inline;overflow:visible;enable-background:accumulate;font-family:Bitstream Vera Sans;-inkscape-font-specification:Bitstream Vera Sans" />
      </g>
    </g>
  </g>
</svg>
