<?xml version="1.0" encoding="UTF-8" standalone="no"?>
<!-- Created with Inkscape (http://www.inkscape.org/) -->
<svg
   xmlns:dc="http://purl.org/dc/elements/1.1/"
   xmlns:cc="http://creativecommons.org/ns#"
   xmlns:rdf="http://www.w3.org/1999/02/22-rdf-syntax-ns#"
   xmlns:svg="http://www.w3.org/2000/svg"
   xmlns="http://www.w3.org/2000/svg"
   xmlns:sodipodi="http://sodipodi.sourceforge.net/DTD/sodipodi-0.dtd"
   xmlns:inkscape="http://www.inkscape.org/namespaces/inkscape"
   width="744.09448819"
   height="1052.3622047"
   id="svg1341"
   sodipodi:version="0.32"
   inkscape:version="0.46"
   sodipodi:docbase="/home/johns/graphics/logos/gplv3"
   sodipodi:docname="gpl-v3-logo-fixed.svg"
   inkscape:output_extension="org.inkscape.output.svg.inkscape">
  <defs
     id="defs1343">
    <inkscape:perspective
       sodipodi:type="inkscape:persp3d"
       inkscape:vp_x="0 : 526.18109 : 1"
       inkscape:vp_y="0 : 1000 : 0"
       inkscape:vp_z="744.09448 : 526.18109 : 1"
       inkscape:persp3d-origin="372.04724 : 350.78739 : 1"
       id="perspective79" />
  </defs>
  <sodipodi:namedview
     id="base"
     pagecolor="#ffffff"
     bordercolor="#666666"
     borderopacity="1.0"
     inkscape:pageopacity="0.0"
     inkscape:pageshadow="2"
     inkscape:zoom="0.7095873"
     inkscape:cx="362.4102"
     inkscape:cy="958.10467"
     inkscape:document-units="px"
     inkscape:current-layer="g2683"
     inkscape:window-width="1150"
     inkscape:window-height="821"
     inkscape:window-x="27"
     inkscape:window-y="49"
     showgrid="false" />
  <metadata
     id="metadata1346">
    <rdf:RDF>
      <cc:Work
         rdf:about="">
        <dc:format>image/svg+xml</dc:format>
        <dc:type
           rdf:resource="http://purl.org/dc/dcmitype/StillImage" />
      </cc:Work>
    </rdf:RDF>
  </metadata>
  <g
     inkscape:label="Layer 1"
     inkscape:groupmode="layer"
     id="layer1">
    <g
       id="g2683">
      <g
         id="g2484"
         transform="translate(139.51772,18.320508)">
        <path
           style="fill:#bd0000;fill-opacity:1;fill-rule:evenodd;stroke:none;stroke-width:1pt;stroke-linecap:butt;stroke-linejoin:miter"
           id="path2577"
           d="M 179.96406,109.13392 C 179.96406,109.13392 179.95651,109.13392 179.95651,109.13392 C 179.24771,109.13392 178.62184,109.36768 178.03368,109.84273 C 177.59632,110.1896 177.2947,110.65711 177.0534,111.17741 C 177.0534,111.17741 177.08357,111.17741 177.08357,111.17741 C 177.32486,110.65711 177.62649,110.1896 178.0563,109.84273 C 178.64446,109.36768 179.27032,109.14146 179.96406,109.13392 z" />
        <path
           id="path2579"
           d="M 62.111995,18.285583 C 62.112004,18.285583 35.885019,132.71346 35.885019,132.71346 C 35.892559,132.71346 35.893505,132.71346 35.908584,132.71346 C 35.908584,132.71346 157.24076,132.71346 157.24076,132.71346 C 157.24076,132.71346 220.34574,132.71346 220.34574,132.71346 C 212.82781,132.05744 206.89246,129.41824 203.35595,124.60738 C 202.69992,123.71758 202.15794,122.759 201.68288,121.7561 C 201.38127,121.01713 201.09755,120.27156 200.811,119.5175 C 200.05694,117.1196 199.75627,114.45873 199.892,111.62349 C 200.26903,103.72098 203.9771,94.320936 210.40165,84.477502 C 217.22584,74.016487 227.11622,63.052346 239.36207,52.877883 C 242.10682,50.599122 244.9449,48.348836 247.91588,46.162073 C 251.58812,43.460302 255.28866,40.972102 258.99107,38.645086 C 272.63192,30.057153 286.23885,24.047894 298.29619,20.995495 C 286.77424,24.754451 273.82993,31.135833 261.04115,39.823302 C 260.58119,40.133972 260.12686,40.452181 259.67443,40.765867 C 252.57877,45.682309 246.15045,50.903765 240.54029,56.176867 C 222.4882,73.150661 212.94658,90.738986 217.2824,101.04315 C 217.59157,101.75195 217.9601,102.42873 218.38992,103.06967 C 223.04997,109.92404 234.59927,111.10884 249.23548,107.42905 C 250.23083,107.1802 251.22619,106.89839 252.2517,106.60431 C 256.92684,105.25454 261.89041,103.43162 267.0029,101.18454 C 268.232,100.64161 269.47432,100.08361 270.72605,99.487908 C 270.85424,99.427587 270.97489,99.367262 271.10308,99.299397 C 287.23985,91.28153 299.64124,82.055854 302.32567,76.512792 C 302.91384,75.307071 303.05522,74.27909 302.65557,73.47301 C 300.74028,69.589631 287.33788,72.213172 271.10308,79.246243 C 269.79856,79.811777 268.47897,80.393726 267.14429,81.013558 C 268.23013,80.005396 269.36027,78.993448 270.51397,77.997336 C 272.35387,76.412311 274.2588,74.862356 276.2872,73.331629 C 279.46178,70.927691 282.67123,68.754508 285.83072,66.827902 C 300.62527,55.666387 308.10456,45.10809 306.54367,41.190029 C 306.24958,40.451801 305.62372,39.943948 304.65853,39.634786 C 301.57443,38.65377 295.94542,39.824619 289.10614,42.627443 C 283.46582,44.940893 276.98754,48.372021 270.41972,52.642241 C 270.41972,52.642241 269.52428,53.231345 269.52428,53.231345 C 269.52429,53.231345 269.35933,53.325596 269.35933,53.325596 C 269.35934,53.325605 266.20172,55.422813 266.20172,55.422813 C 266.20171,55.422808 268.01617,52.100257 268.01617,52.100257 C 270.70815,47.1725 275.09297,42.030985 280.55233,37.254802 C 284.55636,33.76277 289.13065,30.472453 294.05463,27.593469 C 295.91715,26.503114 297.77684,25.490411 299.63935,24.577251 C 301.54711,23.645223 303.45581,22.816888 305.31833,22.079425 C 310.7295,19.939469 315.89487,18.639169 320.39943,18.285583 C 319.98921,18.285583 307.74544,18.285583 307.74544,18.285583 C 307.74545,18.285583 265.09421,18.285583 265.09421,18.285583 C 265.09421,18.285583 77.028145,18.285583 77.028145,18.285583 C 77.028145,18.285583 62.111995,18.285583 62.111995,18.285583 z M 197.41776,18.450569 C 196.6788,29.728954 198.86555,46.248418 203.82723,64.589295 C 204.70946,67.85285 205.66994,71.174082 206.72563,74.533401 C 207.38166,76.607796 208.05842,78.64979 208.75215,80.660096 C 208.34497,81.258822 207.93494,81.853767 207.55037,82.450976 C 201.35959,91.938489 197.74106,100.90459 196.82865,108.70152 C 194.21207,99.939398 192.24211,90.34198 191.12611,80.165248 C 190.80941,77.249313 190.56151,74.366005 190.39562,71.517183 C 189.17404,50.823651 191.87545,32.065018 197.41776,18.450569 z M 73.870546,33.131065 C 74.01176,33.127731 74.150965,33.131065 74.294699,33.131065 C 74.294699,33.131056 102.17117,33.131065 102.17117,33.131065 C 104.55399,33.131056 106.39671,33.577651 107.70876,34.474223 C 109.01327,35.376079 109.50248,36.542599 109.19331,37.961726 C 109.19332,37.961735 105.87075,52.972134 105.87075,52.972134 C 105.87075,52.972147 96.044477,52.972134 96.044477,52.972134 C 96.044486,52.972147 99.272776,38.362319 99.272776,38.362319 C 99.272767,38.362319 74.671731,38.362319 74.671731,38.362319 C 74.671722,38.362319 65.788016,78.515754 65.788016,78.515754 C 65.788024,78.515754 62.583282,93.054881 62.583282,93.054881 C 62.583282,93.054894 87.160767,93.054881 87.160767,93.054881 C 87.160767,93.054894 87.184332,92.960621 87.184332,92.960621 C 87.184332,92.96063 92.10925,70.715994 92.10925,70.715994 C 92.10925,70.715986 80.562784,70.715994 80.562784,70.715994 C 80.562784,70.715986 81.670301,65.696816 81.670301,65.696816 C 81.670296,65.696807 103.04305,65.696816 103.04305,65.696816 C 103.04305,65.696807 96.916353,93.455473 96.916353,93.455473 C 96.833408,93.850591 96.688255,94.208581 96.492195,94.562985 C 95.986982,95.482932 95.105679,96.270926 93.87657,96.919413 C 92.172415,97.816746 90.132684,98.262571 87.74987,98.262571 C 87.74987,98.26258 59.896962,98.262571 59.896962,98.262571 C 57.514139,98.26258 55.671424,97.816737 54.359369,96.919413 C 53.054864,96.022093 52.558119,94.87611 52.874825,93.455473 C 52.87483,93.455464 65.151782,37.961726 65.151782,37.961726 C 65.468479,36.542603 66.456305,35.37607 68.168004,34.474223 C 68.228329,34.441805 68.296194,34.434447 68.356515,34.403532 C 69.918829,33.620964 71.75236,33.181091 73.870546,33.131065 z M 117.55861,33.131065 C 117.55861,33.131056 152.64573,33.131065 152.64573,33.131065 C 154.99839,33.131056 156.84771,33.577651 158.15976,34.474223 C 159.47937,35.376079 159.98458,36.542599 159.66787,37.961726 C 159.66788,37.961735 153.11702,67.558391 153.11702,67.558391 C 152.80787,68.968463 151.79648,70.118971 150.07724,71.022331 C 148.358,71.928698 146.33429,72.389054 143.9741,72.389054 C 143.97409,72.389054 118.47762,72.389054 118.47762,72.389054 C 118.47762,72.389054 113.5527,94.610115 113.5527,94.610115 C 113.5527,94.610124 112.75151,98.262571 112.75151,98.262571 C 112.75152,98.26258 103.13731,98.262571 103.13731,98.262571 C 103.13731,98.26258 103.8678,94.963582 103.8678,94.963582 C 103.8678,94.963591 117.55861,33.131065 117.55861,33.131065 z M 166.03021,33.131065 C 166.03021,33.131056 175.64442,33.131065 175.64442,33.131065 C 175.64443,33.131056 164.75775,82.309591 164.75775,82.309591 C 164.75776,82.309599 162.37776,93.054881 162.37776,93.054881 C 162.37776,93.054894 185.37644,93.054881 185.37644,93.054881 C 185.61775,94.818628 185.89957,96.550863 186.20119,98.262571 C 186.20118,98.26258 151.60891,98.262571 151.60891,98.262571 C 151.60892,98.26258 154.34236,85.914916 154.34236,85.914916 C 154.34237,85.914916 166.03021,33.131065 166.03021,33.131065 z M 126.01817,38.362319 C 126.01818,38.362319 119.63226,67.157795 119.63226,67.157795 C 119.63226,67.157786 143.59708,67.157795 143.59708,67.157795 C 143.59707,67.157786 149.95941,38.362319 149.95941,38.362319 C 149.95942,38.362319 126.01817,38.362319 126.01817,38.362319 z M 105.87075,102.7869 C 105.9648,102.78374 106.0588,102.7869 106.15353,102.7869 C 107.26953,102.78691 108.24414,102.98296 109.02836,103.35244 C 109.86536,103.74455 110.4639,104.32706 110.79568,105.0962 C 111.11993,105.84272 111.20476,106.69008 111.03132,107.61757 C 111.03132,107.61757 110.96063,107.97104 110.96063,107.97104 C 110.96064,107.97102 108.20362,107.97104 108.20362,107.97104 C 108.20361,107.97102 108.22718,107.64113 108.22718,107.64113 C 108.29846,106.99311 108.21812,106.48353 107.96797,106.13303 C 107.93537,106.08907 107.88814,106.03104 107.85015,105.99164 C 107.78794,105.92813 107.6945,105.85553 107.61451,105.80312 C 107.22874,105.56013 106.62529,105.42609 105.84719,105.42609 C 104.81414,105.4261 104.04218,105.60612 103.51434,105.96808 C 103.00158,106.32248 102.67734,106.71836 102.57177,107.19341 C 102.46619,107.67601 102.63963,107.92956 102.76029,108.06529 C 102.76404,108.06904 102.77927,108.08464 102.78384,108.08885 C 102.93663,108.21906 103.46721,108.52432 105.1167,108.9136 C 106.60972,109.27555 107.59849,109.60073 108.15649,109.87973 C 109.00104,110.30954 109.59108,110.8666 109.90025,111.55279 C 110.20939,112.23145 110.27727,113.02602 110.08876,113.88565 C 109.90025,114.72265 109.47326,115.49462 108.83985,116.21851 C 108.21399,116.9424 107.41752,117.51548 106.45986,117.91513 C 105.50974,118.30724 104.46728,118.5278 103.39651,118.5278 C 102.03922,118.52779 100.94961,118.32232 100.09753,117.91513 C 99.207736,117.49286 98.565847,116.82647 98.188824,115.9593 C 97.826876,115.11476 97.749583,114.15616 97.953178,113.10804 C 97.953178,113.10802 98.023874,112.77813 98.023874,112.77813 C 98.023874,112.77813 100.73376,112.77813 100.73376,112.77813 C 100.73376,112.77813 100.71019,113.10804 100.71019,113.10804 C 100.64232,113.7339 100.70925,114.23911 100.87515,114.61614 C 101.03349,114.9781 101.33512,115.27782 101.81771,115.51158 C 102.33046,115.76041 102.97141,115.88861 103.70285,115.88861 C 104.35888,115.8886 104.95836,115.77833 105.49373,115.58228 C 106.02157,115.39377 106.44101,115.14492 106.74263,114.82822 C 107.03671,114.51151 107.20921,114.17691 107.28461,113.81496 C 107.36002,113.49071 107.34211,113.21643 107.21392,112.99021 C 107.07065,112.74893 106.78693,112.53495 106.34205,112.35398 C 106.34205,112.35397 104.03274,111.67061 104.03274,111.67061 C 102.74331,111.34638 101.87521,111.03721 101.36999,110.72805 C 100.68379,110.32086 100.18895,109.79867 99.93257,109.17281 C 99.676194,108.55447 99.648861,107.86923 99.814754,107.12272 C 99.988186,106.32342 100.3737,105.56277 100.9694,104.88412 C 101.57265,104.19792 102.3512,103.65972 103.27869,103.30532 C 104.09873,102.99781 104.9617,102.81747 105.87075,102.7869 z M 130.61319,102.83403 C 130.76233,102.82242 130.90255,102.83403 131.06091,102.83403 C 131.06091,102.83403 132.75753,103.02254 132.75753,103.02254 C 132.75753,103.02254 133.32307,103.06967 133.32307,103.06967 C 133.32308,103.06968 132.49833,105.16689 132.49833,105.16689 C 132.49832,105.1669 132.33338,105.49679 132.33338,105.49679 C 132.33338,105.49678 131.03735,105.37897 131.03735,105.37897 C 130.65466,105.37897 130.37354,105.43801 130.18904,105.56748 C 130.17678,105.57673 130.15322,105.60471 130.14191,105.61461 C 130.11719,105.63629 130.07561,105.67412 130.04765,105.70887 C 129.93418,105.85767 129.79598,106.12359 129.69419,106.60431 C 129.69418,106.60431 129.64517,106.8079 129.59993,106.98134 C 130.19564,106.98134 131.62645,106.98134 131.62645,106.98134 C 131.62645,106.98134 131.10804,109.31419 131.10804,109.31419 C 131.10804,109.31419 129.62632,109.31419 129.12865,109.31419 C 128.97783,109.99284 127.12569,118.29216 127.12569,118.29216 C 127.12568,118.29215 124.39224,118.29216 124.39224,118.29216 C 124.39223,118.29215 126.16898,110.31709 126.3952,109.31419 C 125.93521,109.31419 124.81639,109.31419 124.81639,109.31419 C 124.81639,109.31419 125.33481,106.98134 125.33481,106.98134 C 125.33481,106.98134 126.46023,106.98134 126.89004,106.98134 C 126.96545,106.65709 127.07855,106.25084 127.07855,106.25084 C 127.24445,105.49679 127.41788,104.95481 127.64409,104.57778 C 127.95327,104.05749 128.38967,103.62202 128.94013,103.30532 C 129.39351,103.04187 129.96692,102.88436 130.61319,102.83403 z M 137.14048,102.95185 C 137.14047,102.95185 136.42601,106.16696 136.24504,106.98134 C 136.77287,106.98134 138.01236,106.98134 138.01236,106.98134 C 138.01236,106.98134 137.49395,109.31419 137.49395,109.31419 C 137.49394,109.31419 136.19414,109.31419 135.72663,109.31419 C 135.58335,109.96267 134.45416,114.99317 134.45416,114.99317 C 134.45417,114.99316 134.3599,115.59736 134.3599,115.77079 C 134.36002,115.77656 134.35943,115.79011 134.3599,115.79435 C 134.36027,115.79613 134.35937,115.81645 134.3599,115.81792 C 134.36062,115.81911 134.38252,115.81697 134.38346,115.81792 C 134.38346,115.81791 134.66624,115.84148 134.66624,115.84148 C 134.66624,115.84148 135.96227,115.74723 135.96227,115.74723 C 135.96227,115.74723 135.82088,117.84444 135.82088,117.84444 C 135.82089,117.84444 135.84445,118.22147 135.84445,118.22147 C 135.84444,118.22146 133.98287,118.43355 133.98287,118.43355 C 133.24391,118.43354 132.70192,118.3129 132.30981,118.05652 C 131.89509,117.78505 131.65379,117.425 131.55576,116.97257 C 131.54067,116.88961 131.50863,116.76897 131.50863,116.59554 C 131.50863,116.25621 131.57273,115.68219 131.7914,114.68684 C 131.79141,114.68685 132.78204,110.24922 132.99318,109.31419 C 132.63878,109.31419 131.69714,109.31419 131.69714,109.31419 C 131.69715,109.31419 132.21555,106.98134 132.21555,106.98134 C 132.21554,106.98134 133.13456,106.98134 133.51159,106.98134 C 133.63223,106.43842 134.05356,104.57778 134.05356,104.57778 C 134.05356,104.57779 136.24504,103.42314 136.24504,103.42314 C 136.24504,103.42315 137.14048,102.95185 137.14048,102.95185 z M 50.306321,103.04611 C 50.30633,103.04611 60.910223,103.04611 60.910223,103.04611 C 60.910223,103.04611 60.321119,105.6853 60.321119,105.6853 C 60.321119,105.68531 53.247139,105.6853 52.568489,105.6853 C 52.447847,106.22069 51.964302,108.38859 51.790869,109.17281 C 52.771146,109.17281 58.506674,109.17281 58.506674,109.17281 C 58.506674,109.17281 57.917566,111.81199 57.917566,111.81199 C 57.917561,111.81199 51.880416,111.81199 51.201761,111.81199 C 51.058492,112.46803 49.764343,118.29216 49.764343,118.29216 C 49.764352,118.29215 46.913077,118.29216 46.913077,118.29216 C 46.913081,118.29215 50.306321,103.04611 50.306321,103.04611 z M 64.515544,106.76926 C 64.621969,106.75619 64.738229,106.76926 64.845445,106.76926 C 65.524095,106.76926 66.150906,106.97568 66.754151,107.40549 C 66.754151,107.4055 67.131174,107.6647 67.131174,107.6647 C 67.131174,107.6647 65.670195,110.06825 65.670195,110.06825 C 65.670195,110.06824 65.269607,109.78548 65.269607,109.78548 C 64.975524,109.59697 64.658822,109.50271 64.327037,109.50271 C 64.040493,109.50271 63.773747,109.6045 63.502287,109.78548 C 63.215753,109.97399 62.976331,110.22377 62.795363,110.5631 C 62.478657,111.14373 62.246783,111.79409 62.088434,112.49536 C 62.088434,112.49537 60.815967,118.29216 60.815967,118.29216 C 60.815967,118.29215 58.082517,118.29216 58.082517,118.29216 C 58.082517,118.29215 60.603891,106.98134 60.603891,106.98134 C 60.6039,106.98134 63.148825,106.98134 63.148825,106.98134 C 63.148825,106.98134 63.061163,107.32443 63.031,107.45262 C 63.151651,107.36214 63.278895,107.23771 63.384467,107.16985 C 63.749714,106.95189 64.135492,106.81593 64.515544,106.76926 z M 72.62164,106.76926 C 72.786223,106.75681 72.948247,106.76926 73.116492,106.76926 C 74.654768,106.76926 75.818833,107.3084 76.580427,108.37162 C 77.055478,109.05781 77.310925,109.90612 77.310925,110.91656 C 77.310925,111.47455 77.242114,112.07498 77.098849,112.731 C 77.098849,112.731 76.886764,113.55575 76.886764,113.55575 C 76.886764,113.55574 69.973968,113.55575 69.20483,113.55575 C 69.189746,113.7141 69.181265,113.88377 69.181265,114.02704 C 69.181265,114.61521 69.301911,115.078 69.558292,115.41733 C 69.680119,115.58321 69.821359,115.73262 69.982449,115.84148 C 70.286146,116.03954 70.678186,116.14782 71.137096,116.14782 C 71.695104,116.14781 72.185229,115.99417 72.645205,115.7001 C 73.082566,115.4211 73.501063,114.97526 73.870546,114.35694 C 73.870546,114.35692 76.792508,114.35694 76.792508,114.35694 C 76.792508,114.35692 76.533306,114.92248 76.533306,114.92248 C 75.975303,116.05357 75.196741,116.9358 74.224008,117.56167 C 73.25128,118.18754 72.089089,118.5278 70.807194,118.5278 C 69.140732,118.52779 67.900312,117.98865 67.131174,116.92544 C 66.369584,115.88483 66.205575,114.44648 66.612765,112.63674 C 67.019959,110.79685 67.832451,109.32645 69.016314,108.30093 C 70.077417,107.38087 71.28148,106.87054 72.62164,106.76926 z M 84.898604,106.76926 C 85.063183,106.75681 85.225202,106.76926 85.393447,106.76926 C 86.931727,106.76926 88.095797,107.3084 88.857391,108.37162 C 89.332446,109.05781 89.587881,109.90612 89.587881,110.91656 C 89.587881,111.46701 89.519074,112.05895 89.3758,112.70744 C 89.3758,112.70745 89.163728,113.55575 89.163728,113.55575 C 89.163728,113.55574 82.250923,113.55575 81.48179,113.55575 C 81.474241,113.66131 81.465764,113.75652 81.458225,113.86209 C 81.452569,113.90168 81.460701,113.96177 81.458225,114.00347 C 81.458003,114.01027 81.458225,114.02044 81.458225,114.02704 C 81.458225,114.14015 81.47425,114.25137 81.48179,114.35694 C 81.519479,114.78674 81.631661,115.14587 81.835252,115.41733 C 81.87402,115.47011 81.910462,115.53526 81.953072,115.58228 C 82.298438,115.95176 82.787245,116.14782 83.414056,116.14782 C 83.972063,116.14781 84.469733,115.99417 84.922169,115.7001 C 85.359526,115.4211 85.778018,114.97526 86.147506,114.35694 C 86.147506,114.35692 89.093033,114.35694 89.093033,114.35694 C 89.093028,114.35692 88.810261,114.92248 88.810261,114.92248 C 88.252262,116.05357 87.473701,116.9358 86.500968,117.56167 C 85.528235,118.18754 84.366049,118.5278 83.084158,118.5278 C 81.417701,118.52779 80.177276,117.98865 79.408138,116.92544 C 78.91046,116.24678 78.677644,115.38245 78.677644,114.35694 C 78.677644,114.19858 78.686125,114.02798 78.701209,113.86209 C 78.731381,113.46998 78.791697,113.0741 78.889725,112.63674 C 79.296924,110.80439 80.085846,109.32645 81.269709,108.30093 C 82.330807,107.38087 83.558444,106.87054 84.898604,106.76926 z M 118.33623,106.76926 C 118.50464,106.75631 118.65953,106.76926 118.83108,106.76926 C 120.39951,106.76926 121.60506,107.29992 122.38928,108.34806 C 123.16596,109.39618 123.35447,110.81005 122.95481,112.58961 C 122.64566,113.97709 122.19888,115.09779 121.5881,115.91218 C 120.9773,116.72656 120.19875,117.39201 119.27879,117.84444 C 118.36641,118.29687 117.40026,118.5278 116.42753,118.5278 C 114.82893,118.52779 113.63847,117.98111 112.86933,116.92544 C 112.37165,116.25433 112.11527,115.38999 112.11527,114.35694 C 112.11528,113.79893 112.17655,113.20606 112.32736,112.54249 C 112.7798,110.52162 113.7035,108.98241 115.06081,107.9946 C 116.05709,107.27542 117.15735,106.85988 118.33623,106.76926 z M 159.73857,106.76926 C 159.93738,106.75699 160.12149,106.76926 160.32767,106.76926 C 161.27779,106.76926 162.0243,106.86539 162.58984,107.09915 C 163.19308,107.34046 163.62101,107.68166 163.86231,108.08885 C 164.09607,108.47341 164.21577,108.94565 164.21577,109.52627 C 164.21578,109.52628 163.93299,111.24646 163.93299,111.24646 C 163.93301,111.24646 163.41459,113.57932 163.41459,113.57932 C 162.96968,115.57001 162.87167,116.31654 162.84904,116.59554 C 162.82642,116.97257 162.8613,117.34017 162.96687,117.67949 C 162.96688,117.67948 163.15538,118.29216 163.15538,118.29216 C 163.15539,118.29215 160.3748,118.29216 160.3748,118.29216 C 160.37479,118.29215 160.25698,117.93869 160.25698,117.93869 C 160.21174,117.77281 160.22493,117.56167 160.20985,117.37316 C 159.68201,117.6974 159.15323,117.98488 158.67818,118.15077 C 157.97691,118.39208 157.24925,118.5278 156.51027,118.5278 C 155.22838,118.52779 154.27921,118.19414 153.70612,117.5381 C 153.26878,117.05551 153.0699,116.46546 153.0699,115.79435 C 153.06989,115.53798 153.10383,115.27217 153.16415,114.99317 C 153.29233,114.42009 153.52515,113.88942 153.89464,113.41436 C 154.25659,112.94684 154.68452,112.56229 155.16711,112.28329 C 155.63463,112.00429 156.15587,111.80635 156.69879,111.67061 C 156.69878,111.67061 158.37185,111.38784 158.37185,111.38784 C 159.66128,111.23702 160.62364,111.04946 161.31737,110.84587 C 161.33246,110.77046 161.3645,110.68092 161.3645,110.68092 C 161.47384,110.19574 161.46016,109.83106 161.34093,109.64409 C 161.33216,109.63203 161.30371,109.60733 161.29381,109.59696 C 161.26835,109.56983 161.22923,109.52719 161.19955,109.50271 C 160.91594,109.27827 160.4323,109.17281 159.7857,109.17281 C 159.05426,109.17281 158.51323,109.29252 158.1362,109.52627 C 157.76672,109.76003 157.42456,110.18795 157.12294,110.79873 C 157.12293,110.79873 154.27167,110.79873 154.27167,110.79873 C 154.27168,110.79873 154.53087,110.2332 154.53087,110.2332 C 154.87019,109.44897 155.27456,108.79861 155.77978,108.30093 C 156.285,107.80324 156.96742,107.41774 157.75917,107.14629 C 158.36595,106.94598 159.02852,106.81307 159.73857,106.76926 z M 171.68563,106.76926 C 171.79196,106.75619 171.90831,106.76926 172.01553,106.76926 C 172.70171,106.76926 173.34455,106.97568 173.94779,107.40549 C 173.9478,107.4055 174.30126,107.6647 174.30126,107.6647 C 174.30126,107.6647 172.84028,110.06825 172.84028,110.06825 C 172.84028,110.06824 172.43969,109.78548 172.43969,109.78548 C 172.14561,109.59697 171.84492,109.50271 171.52068,109.50271 C 171.23413,109.50271 170.95137,109.6045 170.67236,109.78548 C 170.38583,109.97399 170.17752,110.22377 169.98901,110.5631 C 169.67984,111.14373 169.44043,111.79409 169.28208,112.49536 C 169.28207,112.49537 167.98605,118.29216 167.98605,118.29216 C 167.98605,118.29215 165.2526,118.29216 165.2526,118.29216 C 165.2526,118.29215 167.77396,106.98134 167.77396,106.98134 C 167.77396,106.98134 170.3189,106.98134 170.3189,106.98134 C 170.3189,106.98134 170.25481,107.32443 170.22465,107.45262 C 170.34529,107.36214 170.465,107.23771 170.57811,107.16985 C 170.93746,106.95189 171.30585,106.81593 171.68563,106.76926 z M 179.76815,106.76926 C 179.93259,106.75681 180.09476,106.76926 180.26301,106.76926 C 181.80128,106.76926 182.97289,107.3084 183.72695,108.37162 C 184.20955,109.05781 184.45744,109.90612 184.45744,110.91656 C 184.45743,111.47455 184.36506,112.07498 184.22179,112.731 C 184.22179,112.731 184.03328,113.55575 184.03328,113.55575 C 184.03328,113.55574 177.11294,113.55575 176.35135,113.55575 C 176.33626,113.7141 176.30421,113.88377 176.30421,114.02704 C 176.30421,114.61521 176.4324,115.078 176.68124,115.41733 C 176.72001,115.47011 176.77986,115.53526 176.82263,115.58228 C 176.8474,115.60867 176.89078,115.65203 176.91689,115.67653 C 177.254,115.98299 177.71277,116.14782 178.2836,116.14782 C 178.84162,116.14781 179.33175,115.99417 179.79172,115.7001 C 180.22908,115.4211 180.64004,114.97526 181.01706,114.35694 C 181.01705,114.35692 183.96259,114.35694 183.96259,114.35694 C 183.96259,114.35692 183.67981,114.92248 183.67981,114.92248 C 183.12181,116.05357 182.33571,116.9358 181.37052,117.56167 C 180.39026,118.18754 179.24315,118.5278 177.95371,118.5278 C 176.28726,118.52779 175.07039,117.98865 174.30126,116.92544 C 173.53965,115.88483 173.35963,114.44648 173.75928,112.63674 C 174.16646,110.79685 174.9554,109.32645 176.13927,108.30093 C 177.20708,107.38087 178.42923,106.87054 179.76815,106.76926 z M 138.5072,106.98134 C 138.50721,106.98134 141.31135,106.98134 141.31135,106.98134 C 141.31136,106.98134 141.65727,113.69337 141.66481,113.79139 C 141.77791,113.55103 141.86567,113.3488 141.87689,113.32011 C 141.8769,113.32012 144.9638,106.98134 144.9638,106.98134 C 144.96381,106.98134 147.5323,106.98134 147.5323,106.98134 C 147.53229,106.98134 147.76794,113.6123 147.76794,113.65 C 147.84336,113.51429 151.27901,106.98134 151.27901,106.98134 C 151.279,106.98134 154.05959,106.98134 154.05959,106.98134 C 154.05959,106.98134 147.93289,118.29216 147.93289,118.29216 C 147.9329,118.29215 145.41152,118.29216 145.41152,118.29216 C 145.41152,118.29215 145.1674,112.15887 145.15232,111.81199 C 144.11171,113.94598 141.9947,118.29216 141.9947,118.29216 C 141.9947,118.29215 139.40265,118.29216 139.40265,118.29216 C 139.40265,118.29215 138.5072,106.98134 138.5072,106.98134 z M 72.66877,109.12568 C 72.019203,109.1531 71.429295,109.38724 70.877894,109.8326 C 70.440546,110.17947 70.145512,110.65547 69.911754,111.17577 C 69.911754,111.17577 74.553906,111.17577 74.553906,111.17577 C 74.561454,111.09283 74.577471,110.99197 74.577471,110.91656 C 74.577462,110.48676 74.50112,110.15308 74.365394,109.92686 C 74.033618,109.38394 73.541591,109.12568 72.810155,109.12568 C 72.766333,109.12568 72.712075,109.12386 72.66877,109.12568 z M 84.945725,109.12568 C 84.296163,109.1531 83.70625,109.38724 83.154845,109.8326 C 82.717488,110.17947 82.430016,110.65547 82.188718,111.17577 C 82.188718,111.17577 86.830865,111.17577 86.830865,111.17577 C 86.8384,111.09283 86.85443,110.99197 86.85443,110.91656 C 86.854426,110.48676 86.785623,110.15308 86.642349,109.92686 C 86.576488,109.81658 86.487388,109.70692 86.406708,109.62053 C 86.091864,109.29519 85.658544,109.12568 85.087115,109.12568 C 85.043288,109.12568 84.989034,109.12386 84.945725,109.12568 z M 179.90954,109.12568 C 179.24157,109.14625 178.61776,109.3724 178.04797,109.8326 C 177.61815,110.17947 177.32313,110.65547 177.08183,111.17577 C 177.08184,111.17577 181.70042,111.17577 181.70042,111.17577 C 181.70795,111.09283 181.72399,110.99197 181.72399,110.91656 C 181.72398,110.48676 181.65518,110.15308 181.51191,109.92686 C 181.18767,109.39148 180.6881,109.13322 179.95667,109.12568 C 179.93499,109.12591 179.93109,109.12502 179.90954,109.12568 z M 118.17128,109.17281 C 117.54794,109.24683 116.96833,109.53122 116.42753,110.02112 C 115.77905,110.60929 115.3087,111.533 115.03725,112.75457 C 114.92413,113.26733 114.87229,113.70562 114.87229,114.09773 C 114.8723,114.6331 114.97503,115.05349 115.17863,115.37019 C 115.23283,115.45149 115.30473,115.5374 115.36714,115.60584 C 115.70235,115.96176 116.17045,116.14782 116.75743,116.14782 C 117.51902,116.14781 118.19013,115.8641 118.83108,115.27594 C 119.47958,114.68023 119.94236,113.74709 120.22136,112.49536 C 120.47775,111.34919 120.44193,110.49335 120.07998,109.95043 C 119.73312,109.42259 119.22602,109.17281 118.52475,109.17281 C 118.40575,109.17281 118.28671,109.1591 118.17128,109.17281 z M 160.75183,113.29655 C 160.11089,113.46997 159.39264,113.61607 158.44254,113.74427 C 157.73373,113.84984 157.22851,113.96106 156.93442,114.07417 C 156.67805,114.17973 156.47162,114.32583 156.29819,114.52189 C 156.13229,114.71039 156.02108,114.90834 155.9683,115.13456 C 155.95322,115.22505 155.94473,115.31835 155.94473,115.39376 C 155.94473,115.39988 155.94459,115.41127 155.94473,115.41733 C 155.94552,115.43527 155.94276,115.4707 155.94473,115.48802 C 155.94945,115.52223 155.95895,115.57398 155.9683,115.60584 C 155.97167,115.61633 155.98798,115.64272 155.99185,115.65297 C 156.0001,115.67324 156.00519,115.70431 156.01542,115.72366 C 156.02615,115.74279 156.04987,115.77606 156.06255,115.79435 C 156.08229,115.82149 156.1092,115.86316 156.13324,115.88861 C 156.32176,116.09974 156.69784,116.19494 157.24076,116.19494 C 157.83647,116.19495 158.40955,116.08184 158.93738,115.81792 C 159.45769,115.56154 159.87712,115.17885 160.18629,114.73396 C 160.41251,114.41725 160.59348,113.92995 160.75183,113.29655 z"
           style="fill:#bd0000;fill-opacity:1;fill-rule:evenodd;stroke:none;stroke-width:1pt;stroke-linecap:butt;stroke-linejoin:miter" />
        <path
           style="fill:#bd0000;fill-opacity:1;fill-rule:evenodd;stroke:none;stroke-width:1pt;stroke-linecap:butt;stroke-linejoin:miter"
           id="path2583"
           d="M 179.98665,109.13392 C 179.97911,109.13392 179.97157,109.13392 179.96403,109.13392 C 180.69547,109.14146 181.17806,109.3903 181.5023,109.92568 C 181.64558,110.1519 181.72098,110.49122 181.72098,110.92103 C 181.72098,110.99644 181.7059,111.09447 181.69836,111.17741 C 181.69836,111.17741 181.72852,111.17741 181.72852,111.17741 C 181.72852,111.09447 181.7436,110.99644 181.7436,110.92103 C 181.7436,110.49122 181.67573,110.1519 181.53247,109.92568 C 181.20822,109.38276 180.71809,109.13392 179.98665,109.13392 z" />
        <g
           transform="matrix(0.7540544,0,0,0.7540544,26.524919,144.30361)"
           style="fill:#bd0000;fill-opacity:1;fill-rule:evenodd;stroke:none;stroke-width:1pt;stroke-linecap:butt;stroke-linejoin:miter"
           id="g2587">
          <path
             style="fill:#bd0000;fill-opacity:1"
             d="M 0,36 C 0,36 7.46,36 7.46,36 C 7.46,36 10.81,22 10.81,22 C 10.81,22 22.93,22 22.93,22 C 22.93,22 24.49,16 24.49,16 C 24.49,16 12.32,16 12.32,16 C 12.32,16 14.34,7 14.34,7 C 14.34,7 27.29,7 27.29,7 C 27.29,7 28.85,0 28.85,0 C 28.85,0 8.4,0 8.4,0 C 8.4,0 0,36 0,36 z"
             id="path2589" />
        </g>
        <g
           transform="matrix(0.7540544,0,0,0.7540544,46.092426,151.84451)"
           style="fill:#bd0000;fill-opacity:1;fill-rule:evenodd;stroke:none;stroke-width:1pt;stroke-linecap:butt;stroke-linejoin:miter"
           id="g2591">
          <path
             style="fill:#bd0000;fill-opacity:1"
             d="M 7.51,26 C 7.51,26 9.75,16.6 9.75,16.6 C 10.93,11.51 13.42,7 18.13,7 C 18.55,7 18.96,7.21 19.27,7.26 C 19.27,7.26 21.09,0.05 21.09,0.05 C 20.67,0.05 20.21,0 19.69,0 C 16.22,0 13.31,2.44 11.37,5.94 C 11.37,5.94 11.17,5.94 11.17,5.94 C 11.46,4.23 11.71,2.61 11.9,1 C 11.9,1 5.47,1 5.47,1 C 5.1,3.08 4.53,7.15 3.66,10.82 C 3.66,10.82 0,26 0,26 C 0,26 7.51,26 7.51,26 z"
             id="path2593" />
        </g>
        <g
           transform="matrix(0.7540544,0,0,0.7540544,61.648707,151.84451)"
           style="fill:#bd0000;fill-opacity:1;fill-rule:evenodd;stroke:none;stroke-width:1pt;stroke-linecap:butt;stroke-linejoin:miter"
           id="g2595">
          <path
             style="fill:#bd0000;fill-opacity:1"
             d="M 20.06,19.25 C 17.99,20.26 15.63,20 12.88,20 C 10.71,20 9.03,19.62 8.11,18.88 C 7.63,18.07 7.43,16.81 7.47,16 C 17.6,16.27 23.99,13.93 24.31,7.53 C 24.55,2.7 21.02,0 15.89,0 C 6.73,0 0.73,8.08 0.34,15.86 C 0,22.65 3.52,26 10.78,26 C 13.57,26 17.27,25.68 20.3,24.77 C 20.3,24.77 20.06,19.25 20.06,19.25 z M 17.32,7.53 C 17.2,9.91 14.26,10.05 8.47,10 C 9.1,7.91 11.22,6 14.69,6 C 16.4,6 17.38,6.65 17.32,7.53 z"
             id="path2597" />
        </g>
        <g
           transform="matrix(0.7540544,0,0,0.7540544,81.646037,151.84451)"
           style="fill:#bd0000;fill-opacity:1;fill-rule:evenodd;stroke:none;stroke-width:1pt;stroke-linecap:butt;stroke-linejoin:miter"
           id="g2599">
          <path
             style="fill:#bd0000;fill-opacity:1"
             d="M 20.05,19.25 C 17.98,20.26 15.62,20 12.88,20 C 10.7,20 9.03,19.62 8.11,18.88 C 7.63,18.07 7.42,16.81 7.46,16 C 17.6,16.27 23.98,13.93 24.31,7.53 C 24.55,2.7 21.02,0 15.89,0 C 6.72,0 0.72,8.08 0.33,15.86 C 0,22.65 3.52,26 10.77,26 C 13.57,26 17.27,25.68 20.3,24.77 C 20.3,24.77 20.05,19.25 20.05,19.25 z M 17.32,7.53 C 17.2,9.91 14.26,10.05 8.46,10 C 9.1,7.91 11.21,6 14.68,6 C 16.39,6 17.38,6.65 17.32,7.53 z"
             id="path2601" />
        </g>
        <g
           transform="matrix(0.7540544,0,0,0.7540544,108.72437,151.84451)"
           style="fill:#bd0000;fill-opacity:1;fill-rule:evenodd;stroke:none;stroke-width:1pt;stroke-linecap:butt;stroke-linejoin:miter"
           id="g2603">
          <path
             style="fill:#bd0000;fill-opacity:1"
             d="M 22.74,26 C 22.8,22.83 23.56,17.85 24.35,14.58 C 24.35,14.58 27.56,1 27.56,1 C 25.52,0.31 22.34,0 19.28,0 C 6.86,0 0.7,9.2 0.27,17.82 C 0,23.23 2.93,26 7.49,26 C 10.44,26 13.77,24.57 16.36,20.27 C 16.36,20.27 16.47,20.27 16.47,20.27 C 16.27,22.34 16.03,24.35 15.9,26 C 15.9,26 22.74,26 22.74,26 z M 17.61,11.72 C 16.15,18.08 13.17,20 10.95,20 C 8.88,20 7.98,18.53 8.1,16.39 C 8.34,11.56 12.16,6 16.98,6 C 17.76,6 18.37,5.86 18.94,5.72 C 18.94,5.72 17.61,11.72 17.61,11.72 z"
             id="path2605" />
        </g>
        <g
           transform="matrix(0.7540544,0,0,0.7540544,129.55879,151.84451)"
           style="fill:#bd0000;fill-opacity:1;fill-rule:evenodd;stroke:none;stroke-width:1pt;stroke-linecap:butt;stroke-linejoin:miter"
           id="g2607">
          <path
             style="fill:#bd0000;fill-opacity:1"
             d="M 0,24.82 C 1.44,25.94 4.46,25.95 7.61,26 C 14.34,26.05 19.42,23.11 19.72,17.71 C 19.89,14.11 17.1,11.98 14.37,10.55 C 12.4,9.6 11.41,8.69 11.46,7.63 C 11.53,6.2 12.87,6 14.84,6 C 17.06,6 18.84,6.27 19.86,6.47 C 19.86,6.47 21.88,1.05 21.88,1.05 C 20.73,0.36 18.43,0 15.48,0 C 8.95,0 4.17,3.45 3.9,8.69 C 3.74,11.93 6.07,14.11 8.89,15.59 C 11.17,16.76 11.95,17.66 11.89,18.93 C 11.82,20.21 10.68,20 8.61,20 C 6.18,20 3.49,19.68 2.07,19.46 C 2.07,19.46 0,24.82 0,24.82 z"
             id="path2609" />
        </g>
        <g
           transform="matrix(0.7540544,0,0,0.7540544,154.02813,143.54965)"
           style="fill:#bd0000;fill-opacity:1;fill-rule:evenodd;stroke:none;stroke-width:1pt;stroke-linecap:butt;stroke-linejoin:miter"
           id="g2611">
          <path
             style="fill:#bd0000;fill-opacity:1"
             d="M 7.45,37 C 7.45,37 13.5,12 13.5,12 C 13.5,12 6.09,12 6.09,12 C 6.09,12 0,37 0,37 C 0,37 7.45,37 7.45,37 z M 10.92,9 C 13.46,9 15.72,6.9 15.86,3.3 C 15.98,0.86 14.4,0 12.07,0 C 9.64,0 7.42,1.58 7.29,3.94 C 7.17,6.32 8.75,9 10.92,9 z"
             id="path2613" />
        </g>
        <g
           transform="matrix(0.7540544,0,0,0.7540544,164.8033,152.36454)"
           style="fill:#bd0000;fill-opacity:1;fill-rule:evenodd;stroke:none;stroke-width:1pt;stroke-linecap:butt;stroke-linejoin:miter"
           id="g2615">
          <path
             style="fill:#bd0000;fill-opacity:1"
             d="M 7.46,25.31 C 7.46,25.31 10.1,14.05 10.1,14.05 C 11.47,8.32 14.42,6.31 16.85,6.31 C 18.77,6.31 19.33,7.13 19.24,8.32 C 19.19,9.28 19.04,10.29 18.84,11.19 C 18.84,11.19 15.48,25.31 15.48,25.31 C 15.48,25.31 22.94,25.31 22.94,25.31 C 22.94,25.31 26.48,10.5 26.48,10.5 C 26.75,9.22 27.05,7.31 27.11,6.15 C 27.33,1.64 25.08,0 20.94,0 C 17.62,0 14.39,1.54 11.84,4.88 C 11.84,4.88 11.74,4.88 11.74,4.88 C 11.74,4.88 12.42,0.31 12.42,0.31 C 12.42,0.31 5.84,0.31 5.84,0.31 C 5.41,2.45 4.86,5.04 4.08,8.06 C 4.08,8.06 0,25.31 0,25.31 C 0,25.31 7.46,25.31 7.46,25.31 z"
             id="path2617" />
        </g>
        <g
           transform="matrix(0.7540544,0,0,0.7540544,194.63391,144.30361)"
           style="fill:#bd0000;fill-opacity:1;fill-rule:evenodd;stroke:none;stroke-width:1pt;stroke-linecap:butt;stroke-linejoin:miter"
           id="g2619">
          <path
             style="fill:#bd0000;fill-opacity:1"
             d="M 0,36 C 0,36 7.46,36 7.46,36 C 7.46,36 10.82,22 10.82,22 C 10.82,22 22.93,22 22.93,22 C 22.93,22 24.49,16 24.49,16 C 24.49,16 12.32,16 12.32,16 C 12.32,16 14.34,7 14.34,7 C 14.34,7 27.29,7 27.29,7 C 27.29,7 28.85,0 28.85,0 C 28.85,0 8.4,0 8.4,0 C 8.4,0 0,36 0,36 z"
             id="path2621" />
        </g>
        <g
           transform="matrix(0.7540544,0,0,0.7540544,214.20142,151.84451)"
           style="fill:#bd0000;fill-opacity:1;fill-rule:evenodd;stroke:none;stroke-width:1pt;stroke-linecap:butt;stroke-linejoin:miter"
           id="g2623">
          <path
             style="fill:#bd0000;fill-opacity:1"
             d="M 7.51,26 C 7.51,26 9.75,16.6 9.75,16.6 C 10.93,11.51 13.42,7 18.13,7 C 18.55,7 18.96,7.21 19.27,7.26 C 19.27,7.26 21.09,0.05 21.09,0.05 C 20.67,0.05 20.21,0 19.69,0 C 16.22,0 13.31,2.44 11.37,5.94 C 11.37,5.94 11.17,5.94 11.17,5.94 C 11.46,4.23 11.71,2.61 11.9,1 C 11.9,1 5.47,1 5.47,1 C 5.11,3.08 4.53,7.15 3.66,10.82 C 3.66,10.82 0,26 0,26 C 0,26 7.51,26 7.51,26 z"
             id="path2625" />
        </g>
        <g
           transform="matrix(0.7540544,0,0,0.7540544,229.7577,151.84451)"
           style="fill:#bd0000;fill-opacity:1;fill-rule:evenodd;stroke:none;stroke-width:1pt;stroke-linecap:butt;stroke-linejoin:miter"
           id="g2627">
          <path
             style="fill:#bd0000;fill-opacity:1"
             d="M 20.06,19.25 C 17.99,20.26 15.63,20 12.88,20 C 10.71,20 9.03,19.62 8.11,18.88 C 7.63,18.07 7.43,16.81 7.47,16 C 17.6,16.27 23.99,13.93 24.31,7.53 C 24.55,2.7 21.02,0 15.89,0 C 6.73,0 0.73,8.08 0.34,15.86 C 0,22.65 3.53,26 10.78,26 C 13.57,26 17.28,25.68 20.3,24.77 C 20.3,24.77 20.06,19.25 20.06,19.25 z M 17.32,7.53 C 17.2,9.91 14.26,10.05 8.47,10 C 9.1,7.91 11.22,6 14.69,6 C 16.4,6 17.38,6.65 17.32,7.53 z"
             id="path2629" />
        </g>
        <g
           transform="matrix(0.7540544,0,0,0.7540544,249.75547,151.84451)"
           style="fill:#bd0000;fill-opacity:1;fill-rule:evenodd;stroke:none;stroke-width:1pt;stroke-linecap:butt;stroke-linejoin:miter"
           id="g2631">
          <path
             style="fill:#bd0000;fill-opacity:1"
             d="M 20.05,19.25 C 17.98,20.26 15.62,20 12.88,20 C 10.7,20 9.03,19.62 8.11,18.88 C 7.63,18.07 7.42,16.81 7.46,16 C 17.6,16.27 23.98,13.93 24.31,7.53 C 24.55,2.7 21.02,0 15.89,0 C 6.72,0 0.72,8.08 0.33,15.86 C 0,22.65 3.52,26 10.77,26 C 13.57,26 17.27,25.68 20.3,24.77 C 20.3,24.77 20.05,19.25 20.05,19.25 z M 17.32,7.53 C 17.2,9.91 14.26,10.05 8.46,10 C 9.1,7.91 11.21,6 14.68,6 C 16.39,6 17.38,6.65 17.32,7.53 z"
             id="path2633" />
        </g>
        <g
           transform="matrix(0.7540544,0,0,0.7540544,269.64712,143.54965)"
           style="fill:#bd0000;fill-opacity:1;fill-rule:evenodd;stroke:none;stroke-width:1pt;stroke-linecap:butt;stroke-linejoin:miter"
           id="g2635">
          <path
             style="fill:#bd0000;fill-opacity:1"
             d="M 23.31,0 C 23.31,0 20.5,11.36 20.5,11.36 C 19.48,10.94 18.15,11 17.11,11 C 7.53,11 0.75,19.2 0.3,28.08 C 0,34.34 3.34,37 7.64,37 C 10.65,37 13.82,35.67 16.22,32.23 C 16.22,32.23 16.32,32.23 16.32,32.23 C 16.32,32.23 15.75,37 15.75,37 C 15.75,37 22.53,37 22.53,37 C 22.84,34 23.49,30.43 24.22,27.17 C 24.22,27.17 30.71,0 30.71,0 C 30.71,0 23.31,0 23.31,0 z M 17.47,24.42 C 16.3,29.35 13.54,31 11.36,31 C 9.19,31 7.98,29.49 8.13,26.8 C 8.38,21.82 11.8,17 16.25,17 C 17.5,17 18.57,17.19 19.16,17.47 C 19.16,17.47 17.47,24.42 17.47,24.42 z"
             id="path2637" />
        </g>
        <g
           transform="matrix(0.7540544,0,0,0.7540544,292.05003,151.84451)"
           style="fill:#bd0000;fill-opacity:1;fill-rule:evenodd;stroke:none;stroke-width:1pt;stroke-linecap:butt;stroke-linejoin:miter"
           id="g2639">
          <path
             style="fill:#bd0000;fill-opacity:1"
             d="M 10.61,26 C 19.31,26 26.02,19.41 26.49,10.44 C 26.78,4.5 23.08,0 16.25,0 C 7.23,0 0.76,7.3 0.31,16.12 C 0,22.54 4.14,26 10.61,26 z M 11.78,20 C 9.24,20 7.84,18.38 7.99,15.96 C 8.19,11.93 10.68,6 14.97,6 C 17.93,6 18.84,8.27 18.72,10.5 C 18.5,14.9 15.82,20 11.78,20 z"
             id="path2641" />
        </g>
        <g
           transform="matrix(0.7540544,0,0,0.7540544,313.58623,151.84451)"
           style="fill:#bd0000;fill-opacity:1;fill-rule:evenodd;stroke:none;stroke-width:1pt;stroke-linecap:butt;stroke-linejoin:miter"
           id="g2643">
          <path
             style="fill:#bd0000;fill-opacity:1"
             d="M 7.2,26 C 7.2,26 9.9,14.58 9.9,14.58 C 11.03,9.49 13.85,6 16.38,6 C 18.2,6 18.7,7.33 18.61,9.07 C 18.56,9.97 18.36,10.98 18.15,11.98 C 18.15,11.98 14.81,26 14.81,26 C 14.81,26 22.01,26 22.01,26 C 22.01,26 24.71,14.53 24.71,14.53 C 25.95,9.28 28.61,6 31.09,6 C 32.8,6 33.51,7.22 33.43,8.96 C 33.38,9.97 33.17,11.08 32.91,12.09 C 32.91,12.09 29.67,26 29.67,26 C 29.67,26 36.92,26 36.92,26 C 36.92,26 40.41,11.19 40.41,11.19 C 40.68,9.86 40.99,7.79 41.04,6.73 C 41.26,2.33 39.11,0 35.23,0 C 31.91,0 28.68,1.5 26.23,4.66 C 26.14,2.38 24.51,0 20.47,0 C 17.2,0 14.08,1.48 11.58,4.83 C 11.58,4.83 11.48,4.83 11.48,4.83 C 11.48,4.83 12.15,1 12.15,1 C 12.15,1 5.73,1 5.73,1 C 5.31,3.14 4.8,5.73 4.02,8.75 C 4.02,8.75 0,26 0,26 C 0,26 7.2,26 7.2,26 z"
             id="path2645" />
        </g>
        <path
           sodipodi:nodetypes="cccccssccccscccsccc"
           d="M 199.2119,120.85605 C 199.51799,121.643 199.82411,122.42867 200.14296,123.19712 C 200.63401,124.24106 201.20157,125.24036 201.88393,126.17335 C 205.56995,131.18389 211.74306,133.92736 219.58061,134.61036 C 219.58061,134.61036 228.01125,134.61036 228.01125,134.61036 C 230.6769,134.40246 233.47011,134.01473 236.36535,133.44843 C 241.35868,132.47209 246.65174,130.97218 252.14887,128.96783 C 256.31317,127.44941 260.59226,125.65296 264.93512,123.56508 C 274.39247,119.03154 284.16231,113.18431 293.74723,106.12795 C 296.90393,103.80602 299.93309,101.42351 302.84108,99.000825 C 305.50674,96.782838 308.06399,94.530404 310.50644,92.253122 C 317.32365,85.683352 322.47004,79.010907 325.38441,73.152182 C 328.41993,67.051144 329.02578,61.83461 326.53869,58.54844 C 325.01453,56.531346 322.46366,55.450411 319.17941,55.195962 C 333.97445,44.094568 342.59642,30.62787 339.50351,22.137309 C 338.52139,19.427618 336.35953,17.406085 333.26022,16.28815 C 331.88277,15.792661 330.33309,15.478873 328.64313,15.336041 C 328.64313,15.336041 324.08984,15.336041 324.08984,15.336041 C 317.7318,15.794562 308.48596,18.071203 300.64204,21.915367"
           id="path2647"
           style="fill:#bd0000;fill-opacity:0;fill-rule:evenodd;stroke:#bd0000;stroke-width:3.77027607;stroke-linecap:butt;stroke-linejoin:miter;stroke-miterlimit:4;stroke-opacity:1" />
      </g>
      <g
         id="g2448"
         transform="translate(-242.39442,229.71099)">
        <path
           d="M 537.7091,109.13392 C 537.7091,109.13392 537.70155,109.13392 537.70155,109.13392 C 536.99275,109.13392 536.36688,109.36768 535.77872,109.84273 C 535.34136,110.1896 535.03974,110.65711 534.79844,111.17741 C 534.79844,111.17741 534.82861,111.17741 534.82861,111.17741 C 535.0699,110.65711 535.37153,110.1896 535.80134,109.84273 C 536.3895,109.36768 537.01536,109.14146 537.7091,109.13392 z"
           id="path2452"
           style="fill:#000000;fill-opacity:0.94736843;fill-rule:evenodd;stroke:none;stroke-width:1pt;stroke-linecap:butt;stroke-linejoin:miter" />
        <path
           style="fill:#000000;fill-opacity:0.94736843;fill-rule:evenodd;stroke:none;stroke-width:1pt;stroke-linecap:butt;stroke-linejoin:miter"
           d="M 419.85703,18.285583 C 419.85704,18.285583 393.63006,132.71346 393.63006,132.71346 C 393.6376,132.71346 393.63854,132.71346 393.65362,132.71346 C 393.65362,132.71346 514.9858,132.71346 514.9858,132.71346 C 514.9858,132.71346 578.09078,132.71346 578.09078,132.71346 C 570.57285,132.05744 564.6375,129.41824 561.10099,124.60738 C 560.44496,123.71758 559.90298,122.759 559.42792,121.7561 C 559.12631,121.01713 558.84259,120.27156 558.55604,119.5175 C 557.80198,117.1196 557.50131,114.45873 557.63704,111.62349 C 558.01407,103.72098 561.72214,94.320936 568.14669,84.477502 C 574.97088,74.016487 584.86126,63.052346 597.10711,52.877883 C 599.85186,50.599122 602.68994,48.348836 605.66092,46.162073 C 609.33316,43.460302 613.0337,40.972102 616.73611,38.645086 C 630.37696,30.057153 643.98389,24.047894 656.04123,20.995495 C 644.51928,24.754451 631.57497,31.135833 618.78619,39.823302 C 618.32623,40.133972 617.8719,40.452181 617.41947,40.765867 C 610.32381,45.682309 603.89549,50.903765 598.28533,56.176867 C 580.23324,73.150661 570.69162,90.738986 575.02744,101.04315 C 575.33661,101.75195 575.70514,102.42873 576.13496,103.06967 C 580.79501,109.92404 592.34431,111.10884 606.98052,107.42905 C 607.97587,107.1802 608.97123,106.89839 609.99674,106.60431 C 614.67188,105.25454 619.63545,103.43162 624.74794,101.18454 C 625.97704,100.64161 627.21936,100.08361 628.47109,99.487908 C 628.59928,99.427587 628.71993,99.367262 628.84812,99.299397 C 644.98489,91.28153 657.38628,82.055854 660.07071,76.512792 C 660.65888,75.307071 660.80026,74.27909 660.40061,73.47301 C 658.48532,69.589631 645.08292,72.213172 628.84812,79.246243 C 627.5436,79.811777 626.22401,80.393726 624.88933,81.013558 C 625.97517,80.005396 627.10531,78.993448 628.25901,77.997336 C 630.09891,76.412311 632.00384,74.862356 634.03224,73.331629 C 637.20682,70.927691 640.41627,68.754508 643.57576,66.827902 C 658.37031,55.666387 665.8496,45.10809 664.28871,41.190029 C 663.99462,40.451801 663.36876,39.943948 662.40357,39.634786 C 659.31947,38.65377 653.69046,39.824619 646.85118,42.627443 C 641.21086,44.940893 634.73258,48.372021 628.16476,52.642241 C 628.16476,52.642241 627.26932,53.231345 627.26932,53.231345 C 627.26933,53.231345 627.10437,53.325596 627.10437,53.325596 C 627.10438,53.325605 623.94676,55.422813 623.94676,55.422813 C 623.94675,55.422808 625.76121,52.100257 625.76121,52.100257 C 628.45319,47.1725 632.83801,42.030985 638.29737,37.254802 C 642.3014,33.76277 646.87569,30.472453 651.79967,27.593469 C 653.66219,26.503114 655.52188,25.490411 657.38439,24.577251 C 659.29215,23.645223 661.20085,22.816888 663.06337,22.079425 C 668.47454,19.939469 673.63991,18.639169 678.14447,18.285583 C 677.73425,18.285583 665.49048,18.285583 665.49048,18.285583 C 665.49049,18.285583 622.83925,18.285583 622.83925,18.285583 C 622.83925,18.285583 434.77318,18.285583 434.77318,18.285583 C 434.77318,18.285583 419.85703,18.285583 419.85703,18.285583 z M 555.1628,18.450569 C 554.42384,29.728954 556.61059,46.248418 561.57227,64.589295 C 562.4545,67.85285 563.41498,71.174082 564.47067,74.533401 C 565.1267,76.607796 565.80346,78.64979 566.49719,80.660096 C 566.09001,81.258822 565.67998,81.853767 565.29541,82.450976 C 559.10463,91.938489 555.4861,100.90459 554.57369,108.70152 C 551.95711,99.939398 549.98715,90.34198 548.87115,80.165248 C 548.55445,77.249313 548.30655,74.366005 548.14066,71.517183 C 546.91908,50.823651 549.62049,32.065018 555.1628,18.450569 z M 431.61558,33.131065 C 431.7568,33.127731 431.896,33.131065 432.03974,33.131065 C 432.03974,33.131056 459.91621,33.131065 459.91621,33.131065 C 462.29903,33.131056 464.14175,33.577651 465.4538,34.474223 C 466.75831,35.376079 467.24752,36.542599 466.93835,37.961726 C 466.93836,37.961735 463.61579,52.972134 463.61579,52.972134 C 463.61579,52.972147 453.78951,52.972134 453.78951,52.972134 C 453.78952,52.972147 457.01781,38.362319 457.01781,38.362319 C 457.0178,38.362319 432.41677,38.362319 432.41677,38.362319 C 432.41676,38.362319 423.53305,78.515754 423.53305,78.515754 C 423.53306,78.515754 420.32832,93.054881 420.32832,93.054881 C 420.32832,93.054894 444.9058,93.054881 444.9058,93.054881 C 444.9058,93.054894 444.92937,92.960621 444.92937,92.960621 C 444.92937,92.96063 449.85429,70.715994 449.85429,70.715994 C 449.85429,70.715986 438.30782,70.715994 438.30782,70.715994 C 438.30782,70.715986 439.41534,65.696816 439.41534,65.696816 C 439.41533,65.696807 460.78809,65.696816 460.78809,65.696816 C 460.78809,65.696807 454.66139,93.455473 454.66139,93.455473 C 454.57844,93.850591 454.43329,94.208581 454.23723,94.562985 C 453.73202,95.482932 452.85072,96.270926 451.62161,96.919413 C 449.91745,97.816746 447.87772,98.262571 445.49491,98.262571 C 445.49491,98.26258 417.642,98.262571 417.642,98.262571 C 415.25918,98.26258 413.41646,97.816737 412.10441,96.919413 C 410.7999,96.022093 410.30316,94.87611 410.61986,93.455473 C 410.61987,93.455464 422.89682,37.961726 422.89682,37.961726 C 423.21352,36.542603 424.20134,35.37607 425.91304,34.474223 C 425.97337,34.441805 426.04123,34.434447 426.10155,34.403532 C 427.66387,33.620964 429.4974,33.181091 431.61558,33.131065 z M 475.30365,33.131065 C 475.30365,33.131056 510.39077,33.131065 510.39077,33.131065 C 512.74343,33.131056 514.59275,33.577651 515.9048,34.474223 C 517.22441,35.376079 517.72962,36.542599 517.41291,37.961726 C 517.41292,37.961735 510.86206,67.558391 510.86206,67.558391 C 510.55291,68.968463 509.54152,70.118971 507.82228,71.022331 C 506.10304,71.928698 504.07933,72.389054 501.71914,72.389054 C 501.71913,72.389054 476.22266,72.389054 476.22266,72.389054 C 476.22266,72.389054 471.29774,94.610115 471.29774,94.610115 C 471.29774,94.610124 470.49655,98.262571 470.49655,98.262571 C 470.49656,98.26258 460.88235,98.262571 460.88235,98.262571 C 460.88235,98.26258 461.61284,94.963582 461.61284,94.963582 C 461.61284,94.963591 475.30365,33.131065 475.30365,33.131065 z M 523.77525,33.131065 C 523.77525,33.131056 533.38946,33.131065 533.38946,33.131065 C 533.38947,33.131056 522.50279,82.309591 522.50279,82.309591 C 522.5028,82.309599 520.1228,93.054881 520.1228,93.054881 C 520.1228,93.054894 543.12148,93.054881 543.12148,93.054881 C 543.36279,94.818628 543.64461,96.550863 543.94623,98.262571 C 543.94622,98.26258 509.35395,98.262571 509.35395,98.262571 C 509.35396,98.26258 512.0874,85.914916 512.0874,85.914916 C 512.08741,85.914916 523.77525,33.131065 523.77525,33.131065 z M 483.76321,38.362319 C 483.76322,38.362319 477.3773,67.157795 477.3773,67.157795 C 477.3773,67.157786 501.34212,67.157795 501.34212,67.157795 C 501.34211,67.157786 507.70445,38.362319 507.70445,38.362319 C 507.70446,38.362319 483.76321,38.362319 483.76321,38.362319 z M 463.61579,102.7869 C 463.70984,102.78374 463.80384,102.7869 463.89857,102.7869 C 465.01457,102.78691 465.98918,102.98296 466.7734,103.35244 C 467.6104,103.74455 468.20894,104.32706 468.54072,105.0962 C 468.86497,105.84272 468.9498,106.69008 468.77636,107.61757 C 468.77636,107.61757 468.70567,107.97104 468.70567,107.97104 C 468.70568,107.97102 465.94866,107.97104 465.94866,107.97104 C 465.94865,107.97102 465.97222,107.64113 465.97222,107.64113 C 466.0435,106.99311 465.96316,106.48353 465.71301,106.13303 C 465.68041,106.08907 465.63318,106.03104 465.59519,105.99164 C 465.53298,105.92813 465.43954,105.85553 465.35955,105.80312 C 464.97378,105.56013 464.37033,105.42609 463.59223,105.42609 C 462.55918,105.4261 461.78722,105.60612 461.25938,105.96808 C 460.74662,106.32248 460.42238,106.71836 460.31681,107.19341 C 460.21123,107.67601 460.38467,107.92956 460.50533,108.06529 C 460.50908,108.06904 460.52431,108.08464 460.52888,108.08885 C 460.68167,108.21906 461.21225,108.52432 462.86174,108.9136 C 464.35476,109.27555 465.34353,109.60073 465.90153,109.87973 C 466.74608,110.30954 467.33612,110.8666 467.64529,111.55279 C 467.95443,112.23145 468.02231,113.02602 467.8338,113.88565 C 467.64529,114.72265 467.2183,115.49462 466.58489,116.21851 C 465.95903,116.9424 465.16256,117.51548 464.2049,117.91513 C 463.25478,118.30724 462.21232,118.5278 461.14155,118.5278 C 459.78426,118.52779 458.69465,118.32232 457.84257,117.91513 C 456.95277,117.49286 456.31088,116.82647 455.93386,115.9593 C 455.57191,115.11476 455.49462,114.15616 455.69821,113.10804 C 455.69821,113.10802 455.76891,112.77813 455.76891,112.77813 C 455.76891,112.77813 458.4788,112.77813 458.4788,112.77813 C 458.4788,112.77813 458.45523,113.10804 458.45523,113.10804 C 458.38736,113.7339 458.45429,114.23911 458.62019,114.61614 C 458.77853,114.9781 459.08016,115.27782 459.56275,115.51158 C 460.0755,115.76041 460.71645,115.88861 461.44789,115.88861 C 462.10392,115.8886 462.7034,115.77833 463.23877,115.58228 C 463.76661,115.39377 464.18605,115.14492 464.48767,114.82822 C 464.78175,114.51151 464.95425,114.17691 465.02965,113.81496 C 465.10506,113.49071 465.08715,113.21643 464.95896,112.99021 C 464.81569,112.74893 464.53197,112.53495 464.08709,112.35398 C 464.08709,112.35397 461.77778,111.67061 461.77778,111.67061 C 460.48835,111.34638 459.62025,111.03721 459.11503,110.72805 C 458.42883,110.32086 457.93399,109.79867 457.67761,109.17281 C 457.42123,108.55447 457.3939,107.86923 457.55979,107.12272 C 457.73322,106.32342 458.11874,105.56277 458.71444,104.88412 C 459.31769,104.19792 460.09624,103.65972 461.02373,103.30532 C 461.84377,102.99781 462.70674,102.81747 463.61579,102.7869 z M 488.35823,102.83403 C 488.50737,102.82242 488.64759,102.83403 488.80595,102.83403 C 488.80595,102.83403 490.50257,103.02254 490.50257,103.02254 C 490.50257,103.02254 491.06811,103.06967 491.06811,103.06967 C 491.06812,103.06968 490.24337,105.16689 490.24337,105.16689 C 490.24336,105.1669 490.07842,105.49679 490.07842,105.49679 C 490.07842,105.49678 488.78239,105.37897 488.78239,105.37897 C 488.3997,105.37897 488.11858,105.43801 487.93408,105.56748 C 487.92182,105.57673 487.89826,105.60471 487.88695,105.61461 C 487.86223,105.63629 487.82065,105.67412 487.79269,105.70887 C 487.67922,105.85767 487.54102,106.12359 487.43923,106.60431 C 487.43922,106.60431 487.39021,106.8079 487.34497,106.98134 C 487.94068,106.98134 489.37149,106.98134 489.37149,106.98134 C 489.37149,106.98134 488.85308,109.31419 488.85308,109.31419 C 488.85308,109.31419 487.37136,109.31419 486.87369,109.31419 C 486.72287,109.99284 484.87073,118.29216 484.87073,118.29216 C 484.87072,118.29215 482.13728,118.29216 482.13728,118.29216 C 482.13727,118.29215 483.91402,110.31709 484.14024,109.31419 C 483.68025,109.31419 482.56143,109.31419 482.56143,109.31419 C 482.56143,109.31419 483.07985,106.98134 483.07985,106.98134 C 483.07985,106.98134 484.20527,106.98134 484.63508,106.98134 C 484.71049,106.65709 484.82359,106.25084 484.82359,106.25084 C 484.98949,105.49679 485.16292,104.95481 485.38913,104.57778 C 485.69831,104.05749 486.13471,103.62202 486.68517,103.30532 C 487.13855,103.04187 487.71196,102.88436 488.35823,102.83403 z M 494.88552,102.95185 C 494.88551,102.95185 494.17105,106.16696 493.99008,106.98134 C 494.51791,106.98134 495.7574,106.98134 495.7574,106.98134 C 495.7574,106.98134 495.23899,109.31419 495.23899,109.31419 C 495.23898,109.31419 493.93918,109.31419 493.47167,109.31419 C 493.32839,109.96267 492.1992,114.99317 492.1992,114.99317 C 492.19921,114.99316 492.10494,115.59736 492.10494,115.77079 C 492.10506,115.77656 492.10447,115.79011 492.10494,115.79435 C 492.10531,115.79613 492.10441,115.81645 492.10494,115.81792 C 492.10566,115.81911 492.12756,115.81697 492.1285,115.81792 C 492.1285,115.81791 492.41128,115.84148 492.41128,115.84148 C 492.41128,115.84148 493.70731,115.74723 493.70731,115.74723 C 493.70731,115.74723 493.56592,117.84444 493.56592,117.84444 C 493.56593,117.84444 493.58949,118.22147 493.58949,118.22147 C 493.58948,118.22146 491.72791,118.43355 491.72791,118.43355 C 490.98895,118.43354 490.44696,118.3129 490.05485,118.05652 C 489.64013,117.78505 489.39883,117.425 489.3008,116.97257 C 489.28571,116.88961 489.25367,116.76897 489.25367,116.59554 C 489.25367,116.25621 489.31777,115.68219 489.53644,114.68684 C 489.53645,114.68685 490.52708,110.24922 490.73822,109.31419 C 490.38382,109.31419 489.44218,109.31419 489.44218,109.31419 C 489.44219,109.31419 489.96059,106.98134 489.96059,106.98134 C 489.96058,106.98134 490.8796,106.98134 491.25663,106.98134 C 491.37727,106.43842 491.7986,104.57778 491.7986,104.57778 C 491.7986,104.57779 493.99008,103.42314 493.99008,103.42314 C 493.99008,103.42315 494.88552,102.95185 494.88552,102.95185 z M 408.05136,103.04611 C 408.05137,103.04611 418.65526,103.04611 418.65526,103.04611 C 418.65526,103.04611 418.06616,105.6853 418.06616,105.6853 C 418.06616,105.68531 410.99218,105.6853 410.31353,105.6853 C 410.19288,106.22069 409.70934,108.38859 409.53591,109.17281 C 410.51618,109.17281 416.25171,109.17281 416.25171,109.17281 C 416.25171,109.17281 415.6626,111.81199 415.6626,111.81199 C 415.6626,111.81199 409.62545,111.81199 408.9468,111.81199 C 408.80353,112.46803 407.50938,118.29216 407.50938,118.29216 C 407.50939,118.29215 404.65811,118.29216 404.65811,118.29216 C 404.65812,118.29215 408.05136,103.04611 408.05136,103.04611 z M 422.26058,106.76926 C 422.36701,106.75619 422.48327,106.76926 422.59048,106.76926 C 423.26913,106.76926 423.89594,106.97568 424.49919,107.40549 C 424.49919,107.4055 424.87621,107.6647 424.87621,107.6647 C 424.87621,107.6647 423.41523,110.06825 423.41523,110.06825 C 423.41523,110.06824 423.01464,109.78548 423.01464,109.78548 C 422.72056,109.59697 422.40386,109.50271 422.07207,109.50271 C 421.78553,109.50271 421.51878,109.6045 421.24732,109.78548 C 420.96079,109.97399 420.72137,110.22377 420.5404,110.5631 C 420.22369,111.14373 419.99182,111.79409 419.83347,112.49536 C 419.83347,112.49537 418.561,118.29216 418.561,118.29216 C 418.561,118.29215 415.82755,118.29216 415.82755,118.29216 C 415.82755,118.29215 418.34893,106.98134 418.34893,106.98134 C 418.34894,106.98134 420.89386,106.98134 420.89386,106.98134 C 420.89386,106.98134 420.8062,107.32443 420.77604,107.45262 C 420.89669,107.36214 421.02393,107.23771 421.1295,107.16985 C 421.49475,106.95189 421.88053,106.81593 422.26058,106.76926 z M 430.36668,106.76926 C 430.53126,106.75681 430.69328,106.76926 430.86153,106.76926 C 432.3998,106.76926 433.56387,107.3084 434.32546,108.37162 C 434.80051,109.05781 435.05596,109.90612 435.05596,110.91656 C 435.05596,111.47455 434.98715,112.07498 434.84389,112.731 C 434.84389,112.731 434.6318,113.55575 434.6318,113.55575 C 434.6318,113.55574 427.719,113.55575 426.94987,113.55575 C 426.93478,113.7141 426.9263,113.88377 426.9263,114.02704 C 426.9263,114.61521 427.04695,115.078 427.30333,115.41733 C 427.42516,115.58321 427.5664,115.73262 427.72749,115.84148 C 428.03118,116.03954 428.42322,116.14782 428.88213,116.14782 C 429.44014,116.14781 429.93027,115.99417 430.39024,115.7001 C 430.8276,115.4211 431.2461,114.97526 431.61558,114.35694 C 431.61558,114.35692 434.53754,114.35694 434.53754,114.35694 C 434.53754,114.35692 434.27834,114.92248 434.27834,114.92248 C 433.72034,116.05357 432.94178,116.9358 431.96904,117.56167 C 430.99632,118.18754 429.83413,118.5278 428.55223,118.5278 C 426.88577,118.52779 425.64535,117.98865 424.87621,116.92544 C 424.11462,115.88483 423.95061,114.44648 424.3578,112.63674 C 424.765,110.79685 425.57749,109.32645 426.76135,108.30093 C 427.82245,107.38087 429.02652,106.87054 430.36668,106.76926 z M 442.64364,106.76926 C 442.80822,106.75681 442.97024,106.76926 443.13848,106.76926 C 444.67676,106.76926 445.84083,107.3084 446.60243,108.37162 C 447.07748,109.05781 447.33292,109.90612 447.33292,110.91656 C 447.33292,111.46701 447.26411,112.05895 447.12084,112.70744 C 447.12084,112.70745 446.90876,113.55575 446.90876,113.55575 C 446.90876,113.55574 439.99596,113.55575 439.22683,113.55575 C 439.21928,113.66131 439.2108,113.75652 439.20326,113.86209 C 439.19761,113.90168 439.20574,113.96177 439.20326,114.00347 C 439.20304,114.01027 439.20326,114.02044 439.20326,114.02704 C 439.20326,114.14015 439.21929,114.25137 439.22683,114.35694 C 439.26452,114.78674 439.3767,115.14587 439.58029,115.41733 C 439.61906,115.47011 439.6555,115.53526 439.69811,115.58228 C 440.04347,115.95176 440.53228,116.14782 441.15909,116.14782 C 441.7171,116.14781 442.21477,115.99417 442.66721,115.7001 C 443.10456,115.4211 443.52305,114.97526 443.89254,114.35694 C 443.89254,114.35692 446.83807,114.35694 446.83807,114.35694 C 446.83806,114.35692 446.5553,114.92248 446.5553,114.92248 C 445.9973,116.05357 445.21874,116.9358 444.246,117.56167 C 443.27327,118.18754 442.11109,118.5278 440.82919,118.5278 C 439.16274,118.52779 437.92231,117.98865 437.15317,116.92544 C 436.6555,116.24678 436.42268,115.38245 436.42268,114.35694 C 436.42268,114.19858 436.43116,114.02798 436.44625,113.86209 C 436.47642,113.46998 436.53673,113.0741 436.63476,112.63674 C 437.04196,110.80439 437.83088,109.32645 439.01475,108.30093 C 440.07584,107.38087 441.30348,106.87054 442.64364,106.76926 z M 476.08127,106.76926 C 476.24968,106.75631 476.40457,106.76926 476.57612,106.76926 C 478.14455,106.76926 479.3501,107.29992 480.13432,108.34806 C 480.911,109.39618 481.09951,110.81005 480.69985,112.58961 C 480.3907,113.97709 479.94392,115.09779 479.33314,115.91218 C 478.72234,116.72656 477.94379,117.39201 477.02383,117.84444 C 476.11145,118.29687 475.1453,118.5278 474.17257,118.5278 C 472.57397,118.52779 471.38351,117.98111 470.61437,116.92544 C 470.11669,116.25433 469.86031,115.38999 469.86031,114.35694 C 469.86032,113.79893 469.92159,113.20606 470.0724,112.54249 C 470.52484,110.52162 471.44854,108.98241 472.80585,107.9946 C 473.80213,107.27542 474.90239,106.85988 476.08127,106.76926 z M 517.48361,106.76926 C 517.68242,106.75699 517.86653,106.76926 518.07271,106.76926 C 519.02283,106.76926 519.76934,106.86539 520.33488,107.09915 C 520.93812,107.34046 521.36605,107.68166 521.60735,108.08885 C 521.84111,108.47341 521.96081,108.94565 521.96081,109.52627 C 521.96082,109.52628 521.67803,111.24646 521.67803,111.24646 C 521.67805,111.24646 521.15963,113.57932 521.15963,113.57932 C 520.71472,115.57001 520.61671,116.31654 520.59408,116.59554 C 520.57146,116.97257 520.60634,117.34017 520.71191,117.67949 C 520.71192,117.67948 520.90042,118.29216 520.90042,118.29216 C 520.90043,118.29215 518.11984,118.29216 518.11984,118.29216 C 518.11983,118.29215 518.00202,117.93869 518.00202,117.93869 C 517.95678,117.77281 517.96997,117.56167 517.95489,117.37316 C 517.42705,117.6974 516.89827,117.98488 516.42322,118.15077 C 515.72195,118.39208 514.99429,118.5278 514.25531,118.5278 C 512.97342,118.52779 512.02425,118.19414 511.45116,117.5381 C 511.01382,117.05551 510.81494,116.46546 510.81494,115.79435 C 510.81493,115.53798 510.84887,115.27217 510.90919,114.99317 C 511.03737,114.42009 511.27019,113.88942 511.63968,113.41436 C 512.00163,112.94684 512.42956,112.56229 512.91215,112.28329 C 513.37967,112.00429 513.90091,111.80635 514.44383,111.67061 C 514.44382,111.67061 516.11689,111.38784 516.11689,111.38784 C 517.40632,111.23702 518.36868,111.04946 519.06241,110.84587 C 519.0775,110.77046 519.10954,110.68092 519.10954,110.68092 C 519.21888,110.19574 519.2052,109.83106 519.08597,109.64409 C 519.0772,109.63203 519.04875,109.60733 519.03885,109.59696 C 519.01339,109.56983 518.97427,109.52719 518.94459,109.50271 C 518.66098,109.27827 518.17734,109.17281 517.53074,109.17281 C 516.7993,109.17281 516.25827,109.29252 515.88124,109.52627 C 515.51176,109.76003 515.1696,110.18795 514.86798,110.79873 C 514.86797,110.79873 512.01671,110.79873 512.01671,110.79873 C 512.01672,110.79873 512.27591,110.2332 512.27591,110.2332 C 512.61523,109.44897 513.0196,108.79861 513.52482,108.30093 C 514.03004,107.80324 514.71246,107.41774 515.50421,107.14629 C 516.11099,106.94598 516.77356,106.81307 517.48361,106.76926 z M 529.43067,106.76926 C 529.537,106.75619 529.65335,106.76926 529.76057,106.76926 C 530.44675,106.76926 531.08959,106.97568 531.69283,107.40549 C 531.69284,107.4055 532.0463,107.6647 532.0463,107.6647 C 532.0463,107.6647 530.58532,110.06825 530.58532,110.06825 C 530.58532,110.06824 530.18473,109.78548 530.18473,109.78548 C 529.89065,109.59697 529.58996,109.50271 529.26572,109.50271 C 528.97917,109.50271 528.69641,109.6045 528.4174,109.78548 C 528.13087,109.97399 527.92256,110.22377 527.73405,110.5631 C 527.42488,111.14373 527.18547,111.79409 527.02712,112.49536 C 527.02711,112.49537 525.73109,118.29216 525.73109,118.29216 C 525.73109,118.29215 522.99764,118.29216 522.99764,118.29216 C 522.99764,118.29215 525.519,106.98134 525.519,106.98134 C 525.519,106.98134 528.06394,106.98134 528.06394,106.98134 C 528.06394,106.98134 527.99985,107.32443 527.96969,107.45262 C 528.09033,107.36214 528.21004,107.23771 528.32315,107.16985 C 528.6825,106.95189 529.05089,106.81593 529.43067,106.76926 z M 537.51319,106.76926 C 537.67763,106.75681 537.8398,106.76926 538.00805,106.76926 C 539.54632,106.76926 540.71793,107.3084 541.47199,108.37162 C 541.95459,109.05781 542.20248,109.90612 542.20248,110.91656 C 542.20247,111.47455 542.1101,112.07498 541.96683,112.731 C 541.96683,112.731 541.77832,113.55575 541.77832,113.55575 C 541.77832,113.55574 534.85798,113.55575 534.09639,113.55575 C 534.0813,113.7141 534.04925,113.88377 534.04925,114.02704 C 534.04925,114.61521 534.17744,115.078 534.42628,115.41733 C 534.46505,115.47011 534.5249,115.53526 534.56767,115.58228 C 534.59244,115.60867 534.63582,115.65203 534.66193,115.67653 C 534.99904,115.98299 535.45781,116.14782 536.02864,116.14782 C 536.58666,116.14781 537.07679,115.99417 537.53676,115.7001 C 537.97412,115.4211 538.38508,114.97526 538.7621,114.35694 C 538.76209,114.35692 541.70763,114.35694 541.70763,114.35694 C 541.70763,114.35692 541.42485,114.92248 541.42485,114.92248 C 540.86685,116.05357 540.08075,116.9358 539.11556,117.56167 C 538.1353,118.18754 536.98819,118.5278 535.69875,118.5278 C 534.0323,118.52779 532.81543,117.98865 532.0463,116.92544 C 531.28469,115.88483 531.10467,114.44648 531.50432,112.63674 C 531.9115,110.79685 532.70044,109.32645 533.88431,108.30093 C 534.95212,107.38087 536.17427,106.87054 537.51319,106.76926 z M 496.25224,106.98134 C 496.25225,106.98134 499.05639,106.98134 499.05639,106.98134 C 499.0564,106.98134 499.40231,113.69337 499.40985,113.79139 C 499.52295,113.55103 499.61071,113.3488 499.62193,113.32011 C 499.62194,113.32012 502.70884,106.98134 502.70884,106.98134 C 502.70885,106.98134 505.27734,106.98134 505.27734,106.98134 C 505.27733,106.98134 505.51298,113.6123 505.51298,113.65 C 505.5884,113.51429 509.02405,106.98134 509.02405,106.98134 C 509.02404,106.98134 511.80463,106.98134 511.80463,106.98134 C 511.80463,106.98134 505.67793,118.29216 505.67793,118.29216 C 505.67794,118.29215 503.15656,118.29216 503.15656,118.29216 C 503.15656,118.29215 502.91244,112.15887 502.89736,111.81199 C 501.85675,113.94598 499.73974,118.29216 499.73974,118.29216 C 499.73974,118.29215 497.14769,118.29216 497.14769,118.29216 C 497.14769,118.29215 496.25224,106.98134 496.25224,106.98134 z M 430.41381,109.12568 C 429.76424,109.1531 429.17433,109.38724 428.62293,109.8326 C 428.18558,110.17947 427.89055,110.65547 427.65679,111.17577 C 427.65679,111.17577 432.29894,111.17577 432.29894,111.17577 C 432.30649,111.09283 432.32251,110.99197 432.32251,110.91656 C 432.3225,110.48676 432.24616,110.15308 432.11043,109.92686 C 431.77865,109.38394 431.28663,109.12568 430.55519,109.12568 C 430.51137,109.12568 430.45711,109.12386 430.41381,109.12568 z M 442.69076,109.12568 C 442.0412,109.1531 441.45129,109.38724 440.89988,109.8326 C 440.46252,110.17947 440.17505,110.65547 439.93375,111.17577 C 439.93375,111.17577 444.5759,111.17577 444.5759,111.17577 C 444.58344,111.09283 444.59947,110.99197 444.59947,110.91656 C 444.59946,110.48676 444.53066,110.15308 444.38739,109.92686 C 444.32152,109.81658 444.23242,109.70692 444.15174,109.62053 C 443.8369,109.29519 443.40358,109.12568 442.83215,109.12568 C 442.78832,109.12568 442.73407,109.12386 442.69076,109.12568 z M 537.65458,109.12568 C 536.98661,109.14625 536.3628,109.3724 535.79301,109.8326 C 535.36319,110.17947 535.06817,110.65547 534.82687,111.17577 C 534.82688,111.17577 539.44546,111.17577 539.44546,111.17577 C 539.45299,111.09283 539.46903,110.99197 539.46903,110.91656 C 539.46902,110.48676 539.40022,110.15308 539.25695,109.92686 C 538.93271,109.39148 538.43314,109.13322 537.70171,109.12568 C 537.68003,109.12591 537.67613,109.12502 537.65458,109.12568 z M 475.91632,109.17281 C 475.29298,109.24683 474.71337,109.53122 474.17257,110.02112 C 473.52409,110.60929 473.05374,111.533 472.78229,112.75457 C 472.66917,113.26733 472.61733,113.70562 472.61733,114.09773 C 472.61734,114.6331 472.72007,115.05349 472.92367,115.37019 C 472.97787,115.45149 473.04977,115.5374 473.11218,115.60584 C 473.44739,115.96176 473.91549,116.14782 474.50247,116.14782 C 475.26406,116.14781 475.93517,115.8641 476.57612,115.27594 C 477.22462,114.68023 477.6874,113.74709 477.9664,112.49536 C 478.22279,111.34919 478.18697,110.49335 477.82502,109.95043 C 477.47816,109.42259 476.97106,109.17281 476.26979,109.17281 C 476.15079,109.17281 476.03175,109.1591 475.91632,109.17281 z M 518.49687,113.29655 C 517.85593,113.46997 517.13768,113.61607 516.18758,113.74427 C 515.47877,113.84984 514.97355,113.96106 514.67946,114.07417 C 514.42309,114.17973 514.21666,114.32583 514.04323,114.52189 C 513.87733,114.71039 513.76612,114.90834 513.71334,115.13456 C 513.69826,115.22505 513.68977,115.31835 513.68977,115.39376 C 513.68977,115.39988 513.68963,115.41127 513.68977,115.41733 C 513.69056,115.43527 513.6878,115.4707 513.68977,115.48802 C 513.69449,115.52223 513.70399,115.57398 513.71334,115.60584 C 513.71671,115.61633 513.73302,115.64272 513.73689,115.65297 C 513.74514,115.67324 513.75023,115.70431 513.76046,115.72366 C 513.77119,115.74279 513.79491,115.77606 513.80759,115.79435 C 513.82733,115.82149 513.85424,115.86316 513.87828,115.88861 C 514.0668,116.09974 514.44288,116.19494 514.9858,116.19494 C 515.58151,116.19495 516.15459,116.08184 516.68242,115.81792 C 517.20273,115.56154 517.62216,115.17885 517.93133,114.73396 C 518.15755,114.41725 518.33852,113.92995 518.49687,113.29655 z"
           id="path2454" />
        <path
           d="M 537.73169,109.13392 C 537.72415,109.13392 537.71661,109.13392 537.70907,109.13392 C 538.44051,109.14146 538.9231,109.3903 539.24734,109.92568 C 539.39062,110.1519 539.46602,110.49122 539.46602,110.92103 C 539.46602,110.99644 539.45094,111.09447 539.4434,111.17741 C 539.4434,111.17741 539.47356,111.17741 539.47356,111.17741 C 539.47356,111.09447 539.48864,110.99644 539.48864,110.92103 C 539.48864,110.49122 539.42077,110.1519 539.27751,109.92568 C 538.95326,109.38276 538.46313,109.13392 537.73169,109.13392 z"
           id="path2456"
           style="fill:#000000;fill-opacity:0.94736843;fill-rule:evenodd;stroke:none;stroke-width:1pt;stroke-linecap:butt;stroke-linejoin:miter" />
        <g
           id="g2458"
           style="fill:#000000;fill-opacity:0.94736843;fill-rule:evenodd;stroke:none;stroke-width:1pt;stroke-linecap:butt;stroke-linejoin:miter"
           transform="matrix(0.7540544,0,0,0.7540544,384.26996,144.30361)">
          <path
             id="path2460"
             d="M 0,36 C 0,36 7.46,36 7.46,36 C 7.46,36 10.81,22 10.81,22 C 10.81,22 22.93,22 22.93,22 C 22.93,22 24.49,16 24.49,16 C 24.49,16 12.32,16 12.32,16 C 12.32,16 14.34,7 14.34,7 C 14.34,7 27.29,7 27.29,7 C 27.29,7 28.85,0 28.85,0 C 28.85,0 8.4,0 8.4,0 C 8.4,0 0,36 0,36 z"
             style="fill:#000000;fill-opacity:0.94736843" />
        </g>
        <g
           id="g2462"
           style="fill:#000000;fill-opacity:0.94736843;fill-rule:evenodd;stroke:none;stroke-width:1pt;stroke-linecap:butt;stroke-linejoin:miter"
           transform="matrix(0.7540544,0,0,0.7540544,403.83746,151.84451)">
          <path
             id="path2464"
             d="M 7.51,26 C 7.51,26 9.75,16.6 9.75,16.6 C 10.93,11.51 13.42,7 18.13,7 C 18.55,7 18.96,7.21 19.27,7.26 C 19.27,7.26 21.09,0.05 21.09,0.05 C 20.67,0.05 20.21,0 19.69,0 C 16.22,0 13.31,2.44 11.37,5.94 C 11.37,5.94 11.17,5.94 11.17,5.94 C 11.46,4.23 11.71,2.61 11.9,1 C 11.9,1 5.47,1 5.47,1 C 5.1,3.08 4.53,7.15 3.66,10.82 C 3.66,10.82 0,26 0,26 C 0,26 7.51,26 7.51,26 z"
             style="fill:#000000;fill-opacity:0.94736843" />
        </g>
        <g
           id="g2466"
           style="fill:#000000;fill-opacity:0.94736843;fill-rule:evenodd;stroke:none;stroke-width:1pt;stroke-linecap:butt;stroke-linejoin:miter"
           transform="matrix(0.7540544,0,0,0.7540544,419.39374,151.84451)">
          <path
             id="path2468"
             d="M 20.06,19.25 C 17.99,20.26 15.63,20 12.88,20 C 10.71,20 9.03,19.62 8.11,18.88 C 7.63,18.07 7.43,16.81 7.47,16 C 17.6,16.27 23.99,13.93 24.31,7.53 C 24.55,2.7 21.02,0 15.89,0 C 6.73,0 0.73,8.08 0.34,15.86 C 0,22.65 3.52,26 10.78,26 C 13.57,26 17.27,25.68 20.3,24.77 C 20.3,24.77 20.06,19.25 20.06,19.25 z M 17.32,7.53 C 17.2,9.91 14.26,10.05 8.47,10 C 9.1,7.91 11.22,6 14.69,6 C 16.4,6 17.38,6.65 17.32,7.53 z"
             style="fill:#000000;fill-opacity:0.94736843" />
        </g>
        <g
           id="g2470"
           style="fill:#000000;fill-opacity:0.94736843;fill-rule:evenodd;stroke:none;stroke-width:1pt;stroke-linecap:butt;stroke-linejoin:miter"
           transform="matrix(0.7540544,0,0,0.7540544,439.39107,151.84451)">
          <path
             id="path2472"
             d="M 20.05,19.25 C 17.98,20.26 15.62,20 12.88,20 C 10.7,20 9.03,19.62 8.11,18.88 C 7.63,18.07 7.42,16.81 7.46,16 C 17.6,16.27 23.98,13.93 24.31,7.53 C 24.55,2.7 21.02,0 15.89,0 C 6.72,0 0.72,8.08 0.33,15.86 C 0,22.65 3.52,26 10.77,26 C 13.57,26 17.27,25.68 20.3,24.77 C 20.3,24.77 20.05,19.25 20.05,19.25 z M 17.32,7.53 C 17.2,9.91 14.26,10.05 8.46,10 C 9.1,7.91 11.21,6 14.68,6 C 16.39,6 17.38,6.65 17.32,7.53 z"
             style="fill:#000000;fill-opacity:0.94736843" />
        </g>
        <g
           id="g2474"
           style="fill:#000000;fill-opacity:0.94736843;fill-rule:evenodd;stroke:none;stroke-width:1pt;stroke-linecap:butt;stroke-linejoin:miter"
           transform="matrix(0.7540544,0,0,0.7540544,466.46941,151.84451)">
          <path
             id="path2476"
             d="M 22.74,26 C 22.8,22.83 23.56,17.85 24.35,14.58 C 24.35,14.58 27.56,1 27.56,1 C 25.52,0.31 22.34,0 19.28,0 C 6.86,0 0.7,9.2 0.27,17.82 C 0,23.23 2.93,26 7.49,26 C 10.44,26 13.77,24.57 16.36,20.27 C 16.36,20.27 16.47,20.27 16.47,20.27 C 16.27,22.34 16.03,24.35 15.9,26 C 15.9,26 22.74,26 22.74,26 z M 17.61,11.72 C 16.15,18.08 13.17,20 10.95,20 C 8.88,20 7.98,18.53 8.1,16.39 C 8.34,11.56 12.16,6 16.98,6 C 17.76,6 18.37,5.86 18.94,5.72 C 18.94,5.72 17.61,11.72 17.61,11.72 z"
             style="fill:#000000;fill-opacity:0.94736843" />
        </g>
        <g
           id="g2478"
           style="fill:#000000;fill-opacity:0.94736843;fill-rule:evenodd;stroke:none;stroke-width:1pt;stroke-linecap:butt;stroke-linejoin:miter"
           transform="matrix(0.7540544,0,0,0.7540544,487.30383,151.84451)">
          <path
             id="path2480"
             d="M 0,24.82 C 1.44,25.94 4.46,25.95 7.61,26 C 14.34,26.05 19.42,23.11 19.72,17.71 C 19.89,14.11 17.1,11.98 14.37,10.55 C 12.4,9.6 11.41,8.69 11.46,7.63 C 11.53,6.2 12.87,6 14.84,6 C 17.06,6 18.84,6.27 19.86,6.47 C 19.86,6.47 21.88,1.05 21.88,1.05 C 20.73,0.36 18.43,0 15.48,0 C 8.95,0 4.17,3.45 3.9,8.69 C 3.74,11.93 6.07,14.11 8.89,15.59 C 11.17,16.76 11.95,17.66 11.89,18.93 C 11.82,20.21 10.68,20 8.61,20 C 6.18,20 3.49,19.68 2.07,19.46 C 2.07,19.46 0,24.82 0,24.82 z"
             style="fill:#000000;fill-opacity:0.94736843" />
        </g>
        <g
           id="g2482"
           style="fill:#000000;fill-opacity:0.94736843;fill-rule:evenodd;stroke:none;stroke-width:1pt;stroke-linecap:butt;stroke-linejoin:miter"
           transform="matrix(0.7540544,0,0,0.7540544,511.77317,143.54965)">
          <path
             id="path2484"
             d="M 7.45,37 C 7.45,37 13.5,12 13.5,12 C 13.5,12 6.09,12 6.09,12 C 6.09,12 0,37 0,37 C 0,37 7.45,37 7.45,37 z M 10.92,9 C 13.46,9 15.72,6.9 15.86,3.3 C 15.98,0.86 14.4,0 12.07,0 C 9.64,0 7.42,1.58 7.29,3.94 C 7.17,6.32 8.75,9 10.92,9 z"
             style="fill:#000000;fill-opacity:0.94736843" />
        </g>
        <g
           id="g2486"
           style="fill:#000000;fill-opacity:0.94736843;fill-rule:evenodd;stroke:none;stroke-width:1pt;stroke-linecap:butt;stroke-linejoin:miter"
           transform="matrix(0.7540544,0,0,0.7540544,522.54834,152.36454)">
          <path
             id="path2488"
             d="M 7.46,25.31 C 7.46,25.31 10.1,14.05 10.1,14.05 C 11.47,8.32 14.42,6.31 16.85,6.31 C 18.77,6.31 19.33,7.13 19.24,8.32 C 19.19,9.28 19.04,10.29 18.84,11.19 C 18.84,11.19 15.48,25.31 15.48,25.31 C 15.48,25.31 22.94,25.31 22.94,25.31 C 22.94,25.31 26.48,10.5 26.48,10.5 C 26.75,9.22 27.05,7.31 27.11,6.15 C 27.33,1.64 25.08,0 20.94,0 C 17.62,0 14.39,1.54 11.84,4.88 C 11.84,4.88 11.74,4.88 11.74,4.88 C 11.74,4.88 12.42,0.31 12.42,0.31 C 12.42,0.31 5.84,0.31 5.84,0.31 C 5.41,2.45 4.86,5.04 4.08,8.06 C 4.08,8.06 0,25.31 0,25.31 C 0,25.31 7.46,25.31 7.46,25.31 z"
             style="fill:#000000;fill-opacity:0.94736843" />
        </g>
        <g
           id="g2490"
           style="fill:#000000;fill-opacity:0.94736843;fill-rule:evenodd;stroke:none;stroke-width:1pt;stroke-linecap:butt;stroke-linejoin:miter"
           transform="matrix(0.7540544,0,0,0.7540544,552.37895,144.30361)">
          <path
             id="path2492"
             d="M 0,36 C 0,36 7.46,36 7.46,36 C 7.46,36 10.82,22 10.82,22 C 10.82,22 22.93,22 22.93,22 C 22.93,22 24.49,16 24.49,16 C 24.49,16 12.32,16 12.32,16 C 12.32,16 14.34,7 14.34,7 C 14.34,7 27.29,7 27.29,7 C 27.29,7 28.85,0 28.85,0 C 28.85,0 8.4,0 8.4,0 C 8.4,0 0,36 0,36 z"
             style="fill:#000000;fill-opacity:0.94736843" />
        </g>
        <g
           id="g2494"
           style="fill:#000000;fill-opacity:0.94736843;fill-rule:evenodd;stroke:none;stroke-width:1pt;stroke-linecap:butt;stroke-linejoin:miter"
           transform="matrix(0.7540544,0,0,0.7540544,571.94646,151.84451)">
          <path
             id="path2496"
             d="M 7.51,26 C 7.51,26 9.75,16.6 9.75,16.6 C 10.93,11.51 13.42,7 18.13,7 C 18.55,7 18.96,7.21 19.27,7.26 C 19.27,7.26 21.09,0.05 21.09,0.05 C 20.67,0.05 20.21,0 19.69,0 C 16.22,0 13.31,2.44 11.37,5.94 C 11.37,5.94 11.17,5.94 11.17,5.94 C 11.46,4.23 11.71,2.61 11.9,1 C 11.9,1 5.47,1 5.47,1 C 5.11,3.08 4.53,7.15 3.66,10.82 C 3.66,10.82 0,26 0,26 C 0,26 7.51,26 7.51,26 z"
             style="fill:#000000;fill-opacity:0.94736843" />
        </g>
        <g
           id="g2498"
           style="fill:#000000;fill-opacity:0.94736843;fill-rule:evenodd;stroke:none;stroke-width:1pt;stroke-linecap:butt;stroke-linejoin:miter"
           transform="matrix(0.7540544,0,0,0.7540544,587.50274,151.84451)">
          <path
             id="path2500"
             d="M 20.06,19.25 C 17.99,20.26 15.63,20 12.88,20 C 10.71,20 9.03,19.62 8.11,18.88 C 7.63,18.07 7.43,16.81 7.47,16 C 17.6,16.27 23.99,13.93 24.31,7.53 C 24.55,2.7 21.02,0 15.89,0 C 6.73,0 0.73,8.08 0.34,15.86 C 0,22.65 3.53,26 10.78,26 C 13.57,26 17.28,25.68 20.3,24.77 C 20.3,24.77 20.06,19.25 20.06,19.25 z M 17.32,7.53 C 17.2,9.91 14.26,10.05 8.47,10 C 9.1,7.91 11.22,6 14.69,6 C 16.4,6 17.38,6.65 17.32,7.53 z"
             style="fill:#000000;fill-opacity:0.94736843" />
        </g>
        <g
           id="g2502"
           style="fill:#000000;fill-opacity:0.94736843;fill-rule:evenodd;stroke:none;stroke-width:1pt;stroke-linecap:butt;stroke-linejoin:miter"
           transform="matrix(0.7540544,0,0,0.7540544,607.50051,151.84451)">
          <path
             id="path2504"
             d="M 20.05,19.25 C 17.98,20.26 15.62,20 12.88,20 C 10.7,20 9.03,19.62 8.11,18.88 C 7.63,18.07 7.42,16.81 7.46,16 C 17.6,16.27 23.98,13.93 24.31,7.53 C 24.55,2.7 21.02,0 15.89,0 C 6.72,0 0.72,8.08 0.33,15.86 C 0,22.65 3.52,26 10.77,26 C 13.57,26 17.27,25.68 20.3,24.77 C 20.3,24.77 20.05,19.25 20.05,19.25 z M 17.32,7.53 C 17.2,9.91 14.26,10.05 8.46,10 C 9.1,7.91 11.21,6 14.68,6 C 16.39,6 17.38,6.65 17.32,7.53 z"
             style="fill:#000000;fill-opacity:0.94736843" />
        </g>
        <g
           id="g2506"
           style="fill:#000000;fill-opacity:0.94736843;fill-rule:evenodd;stroke:none;stroke-width:1pt;stroke-linecap:butt;stroke-linejoin:miter"
           transform="matrix(0.7540544,0,0,0.7540544,627.39216,143.54965)">
          <path
             id="path2508"
             d="M 23.31,0 C 23.31,0 20.5,11.36 20.5,11.36 C 19.48,10.94 18.15,11 17.11,11 C 7.53,11 0.75,19.2 0.3,28.08 C 0,34.34 3.34,37 7.64,37 C 10.65,37 13.82,35.67 16.22,32.23 C 16.22,32.23 16.32,32.23 16.32,32.23 C 16.32,32.23 15.75,37 15.75,37 C 15.75,37 22.53,37 22.53,37 C 22.84,34 23.49,30.43 24.22,27.17 C 24.22,27.17 30.71,0 30.71,0 C 30.71,0 23.31,0 23.31,0 z M 17.47,24.42 C 16.3,29.35 13.54,31 11.36,31 C 9.19,31 7.98,29.49 8.13,26.8 C 8.38,21.82 11.8,17 16.25,17 C 17.5,17 18.57,17.19 19.16,17.47 C 19.16,17.47 17.47,24.42 17.47,24.42 z"
             style="fill:#000000;fill-opacity:0.94736843" />
        </g>
        <g
           id="g2510"
           style="fill:#000000;fill-opacity:0.94736843;fill-rule:evenodd;stroke:none;stroke-width:1pt;stroke-linecap:butt;stroke-linejoin:miter"
           transform="matrix(0.7540544,0,0,0.7540544,649.79507,151.84451)">
          <path
             id="path2512"
             d="M 10.61,26 C 19.31,26 26.02,19.41 26.49,10.44 C 26.78,4.5 23.08,0 16.25,0 C 7.23,0 0.76,7.3 0.31,16.12 C 0,22.54 4.14,26 10.61,26 z M 11.78,20 C 9.24,20 7.84,18.38 7.99,15.96 C 8.19,11.93 10.68,6 14.97,6 C 17.93,6 18.84,8.27 18.72,10.5 C 18.5,14.9 15.82,20 11.78,20 z"
             style="fill:#000000;fill-opacity:0.94736843" />
        </g>
        <g
           id="g2514"
           style="fill:#000000;fill-opacity:0.94736843;fill-rule:evenodd;stroke:none;stroke-width:1pt;stroke-linecap:butt;stroke-linejoin:miter"
           transform="matrix(0.7540544,0,0,0.7540544,671.33127,151.84451)">
          <path
             id="path2516"
             d="M 7.2,26 C 7.2,26 9.9,14.58 9.9,14.58 C 11.03,9.49 13.85,6 16.38,6 C 18.2,6 18.7,7.33 18.61,9.07 C 18.56,9.97 18.36,10.98 18.15,11.98 C 18.15,11.98 14.81,26 14.81,26 C 14.81,26 22.01,26 22.01,26 C 22.01,26 24.71,14.53 24.71,14.53 C 25.95,9.28 28.61,6 31.09,6 C 32.8,6 33.51,7.22 33.43,8.96 C 33.38,9.97 33.17,11.08 32.91,12.09 C 32.91,12.09 29.67,26 29.67,26 C 29.67,26 36.92,26 36.92,26 C 36.92,26 40.41,11.19 40.41,11.19 C 40.68,9.86 40.99,7.79 41.04,6.73 C 41.26,2.33 39.11,0 35.23,0 C 31.91,0 28.68,1.5 26.23,4.66 C 26.14,2.38 24.51,0 20.47,0 C 17.2,0 14.08,1.48 11.58,4.83 C 11.58,4.83 11.48,4.83 11.48,4.83 C 11.48,4.83 12.15,1 12.15,1 C 12.15,1 5.73,1 5.73,1 C 5.31,3.14 4.8,5.73 4.02,8.75 C 4.02,8.75 0,26 0,26 C 0,26 7.2,26 7.2,26 z"
             style="fill:#000000;fill-opacity:0.94736843" />
        </g>
        <path
           style="fill:none;fill-opacity:0.94736843;fill-rule:evenodd;stroke:#000000;stroke-width:3.77027607;stroke-linecap:butt;stroke-linejoin:miter;stroke-miterlimit:4;stroke-opacity:1"
           id="path2518"
           d="M 556.95694,120.85605 C 557.26303,121.643 557.56915,122.42867 557.888,123.19712 C 558.37905,124.24106 558.94661,125.24036 559.62897,126.17335 C 563.31499,131.18389 569.4881,133.92736 577.32565,134.61036 C 577.32565,134.61036 585.75629,134.61036 585.75629,134.61036 C 588.42194,134.40246 591.21515,134.01473 594.11039,133.44843 C 599.10372,132.47209 604.39678,130.97218 609.89391,128.96783 C 614.05821,127.44941 618.3373,125.65296 622.68016,123.56508 C 632.13751,119.03154 641.90735,113.18431 651.49227,106.12795 C 654.64897,103.80602 657.67813,101.42351 660.58612,99.000825 C 663.25178,96.782838 665.80903,94.530404 668.25148,92.253122 C 675.06869,85.683352 680.21508,79.010907 683.12945,73.152182 C 686.16497,67.051144 686.77082,61.83461 684.28373,58.54844 C 682.75957,56.531346 680.2087,55.450411 676.92445,55.195962 C 691.71949,44.094568 700.34146,30.62787 697.24855,22.137309 C 696.26643,19.427618 694.10457,17.406085 691.00526,16.28815 C 689.62781,15.792661 688.07813,15.478873 686.38817,15.336041 C 686.38817,15.336041 681.83488,15.336041 681.83488,15.336041 C 675.47684,15.794562 666.231,18.071203 658.38708,21.915367"
           sodipodi:nodetypes="cccccssccccscccsccc" />
      </g>
    </g>
  </g>
</svg>
