<?xml version="1.0" encoding="UTF-8" standalone="no"?>
<!-- Created with Inkscape (http://www.inkscape.org/) -->
<svg
   xmlns:dc="http://purl.org/dc/elements/1.1/"
   xmlns:cc="http://web.resource.org/cc/"
   xmlns:rdf="http://www.w3.org/1999/02/22-rdf-syntax-ns#"
   xmlns:svg="http://www.w3.org/2000/svg"
   xmlns="http://www.w3.org/2000/svg"
   xmlns:sodipodi="http://sodipodi.sourceforge.net/DTD/sodipodi-0.dtd"
   xmlns:inkscape="http://www.inkscape.org/namespaces/inkscape"
   id="svg1923"
   sodipodi:version="0.32"
   inkscape:version="0.44"
   width="160"
   height="200"
   version="1.0"
   sodipodi:docbase="/home/paulox"
   sodipodi:docname="philosophical-gnu-sm.svg.svgz">
  <metadata
     id="metadata1928">
    <rdf:RDF>
      <cc:Work
         rdf:about="">
        <dc:format>image/svg+xml</dc:format>
        <dc:type
           rdf:resource="http://purl.org/dc/dcmitype/StillImage" />
      </cc:Work>
    </rdf:RDF>
  </metadata>
  <defs
     id="defs1926" />
  <sodipodi:namedview
     inkscape:window-height="622"
     inkscape:window-width="1041"
     inkscape:pageshadow="2"
     inkscape:pageopacity="0.0"
     guidetolerance="10.0"
     gridtolerance="10.0"
     objecttolerance="10.0"
     borderopacity="1.0"
     bordercolor="#666666"
     pagecolor="#ffffff"
     id="base"
     showguides="true"
     inkscape:guide-bbox="true"
     inkscape:zoom="2"
     inkscape:cx="185.49596"
     inkscape:cy="95.341567"
     inkscape:window-x="31"
     inkscape:window-y="69"
     inkscape:current-layer="svg1923" />
  <g
     id="g2307"
     transform="translate(7,2.5)">
    <path
       d="M 100.06142,191.23435 C 100.06142,190.47203 98.242682,187.12473 96.019782,183.7959 C 93.796882,180.46708 91.570484,175.80331 91.072229,173.43195 L 90.166313,169.1204 L 90.363867,174.27636 C 90.618671,180.92645 89.462974,180.26324 88.817325,173.38886 C 88.545174,170.49121 87.962289,167.25908 87.522025,166.20636 C 86.956209,164.85342 87.064517,164.50428 87.891483,165.01537 C 88.53495,165.41306 89.096948,166.72438 89.140369,167.92942 C 89.18379,169.13446 89.449478,169.54834 89.730786,168.84915 C 90.012095,168.14996 89.769605,166.22205 89.191921,164.5649 C 88.449468,162.4351 88.454368,161.74522 89.208638,162.21138 C 89.905189,162.64188 90.067944,162.04613 89.677378,160.49563 C 89.348307,159.18925 89.963296,159.9204 91.04402,162.1204 C 92.124745,164.3204 93.020775,165.58719 93.035198,164.9355 C 93.096442,162.16826 90.878013,158.48962 86.519589,154.1312 C 83.25666,150.86827 82.01626,148.90112 82.36963,147.5498 C 82.64685,146.48973 82.46591,145.37039 81.96754,145.06238 C 81.46918,144.75437 81.06142,143.99792 81.06142,143.38138 C 81.06142,142.76484 82.68159,144.1532 84.661791,146.46662 C 88.276666,150.68979 92.690021,153.6204 95.435032,153.6204 C 96.245152,153.6204 98.244962,152.4954 99.87905,151.1204 C 102.89452,148.58305 107.43545,147.79854 108.56142,149.6204 C 109.64164,151.36823 112.89259,150.69952 114.50472,148.39789 C 116.26912,145.87885 116.55471,144.19749 115.06142,145.1204 C 113.96007,145.80107 113.71186,142.69492 114.66841,140.20219 C 115.00225,139.3322 115.90225,138.6204 116.66841,138.6204 C 117.53057,138.6204 118.06142,137.54315 118.06142,135.79359 C 118.06142,133.23108 117.78514,133.00733 115.10639,133.40049 C 111.86098,133.87682 110.01841,136.12618 108.11338,141.9374 C 107.42517,144.03675 106.61697,145.50929 106.31738,145.2097 C 106.01779,144.91011 106.54801,142.63479 107.49565,140.15345 C 109.36822,135.25019 113.33912,131.406 115.62524,132.28327 C 117.86612,133.14317 117.31514,131.20738 114.59044,128.64766 C 111.21921,125.48055 110.33567,121.96639 109.68088,109.1204 C 109.15092,98.7233 107.73028,91.85235 104.37245,83.44598 C 103.00177,80.01446 102.67911,79.80818 99.49155,80.32545 C 95.546792,80.96559 92.685171,79.16718 93.385742,76.4882 C 93.640592,75.51365 93.450382,74.58221 92.963055,74.41834 C 92.475727,74.25447 92.966884,72.65789 94.054512,70.87039 C 97.152692,65.7786 103.10337,66.50765 104.25743,72.12039 C 104.59006,73.73814 105.08845,73.31572 106.86504,69.91023 C 109.79002,64.30345 109.62487,62.25009 105.65684,54.88792 L 102.29768,48.65544 L 107.59832,48.88792 C 113.97359,49.16753 115.99651,47.62508 121.05932,38.62413 C 122.91664,35.32207 124.80193,32.62039 125.24884,32.62039 C 125.69576,32.62039 126.06142,32.1986 126.06142,31.68307 C 126.06142,30.70639 121.37508,30.3023 112.13321,30.48209 C 107.71608,30.56802 106.19293,31.07827 103.95587,33.22152 C 102.44385,34.67013 100.65973,37.17595 99.99116,38.79002 C 99.11649,40.90166 98.324872,41.5374 97.168502,41.05688 C 96.284612,40.68958 93.761422,39.96375 91.561422,39.44393 C 89.361422,38.92411 85.11901,37.17615 82.13384,35.55959 C 79.14867,33.94303 75.96952,32.62039 75.06905,32.62039 C 74.16859,32.62039 72.68859,34.17903 71.78016,36.08402 C 70.87173,37.98902 68.3386,40.73212 66.15099,42.17982 C 62.81569,44.38701 61.28576,44.75616 56.67508,44.46619 L 51.17664,44.12039 L 53.36903,46.54341 C 55.239,48.61009 54.98472,48.53656 51.63996,46.04341 C 48.19356,43.4745 46.83069,43.1062 40.38996,43.00324 C 33.22126,42.88864 32.16078,43.24488 33.9385,45.17039 C 34.4209,45.69289 35.56243,48.37039 36.47524,51.12039 C 40.05497,61.90496 46.587,65.17749 50.94637,58.37039 C 52.09112,56.58289 53.03531,55.71751 53.04458,56.44732 C 53.05384,57.17713 51.71468,59.12098 50.06866,60.767 C 46.76005,64.07562 44.30831,63.98756 40.40595,60.41995 C 38.25359,58.45222 38.24943,58.45275 37.52475,60.78488 C 37.12561,62.06941 36.00753,64.24539 35.04015,65.62039 C 34.07276,66.99539 33.27341,68.34539 33.26381,68.62039 C 33.25421,68.89539 32.69989,70.31976 32.03199,71.78564 C 30.67235,74.76974 28.50121,75.69028 25.54545,74.53586 C 23.71478,73.82086 23.70496,73.75553 25.41841,73.69068 C 26.70347,73.64204 27.08496,73.12412 26.65707,72.00905 C 26.21889,70.86717 26.46974,70.5631 27.51806,70.96538 C 28.33168,71.2776 29.26334,71.1027 29.58841,70.57672 C 29.91349,70.05074 29.3654,69.60051 28.37044,69.5762 C 27.24636,69.54874 28.01055,68.76742 30.38878,67.51262 C 32.9647,66.15352 34.80737,64.17267 36.02435,61.45446 C 37.81589,57.45294 37.80969,57.35894 35.35307,51.26803 C 33.98935,47.88683 32.63573,44.32284 32.34502,43.34806 C 31.90818,41.88322 31.18711,41.70452 28.18895,42.31807 C 10.66442,45.90432 -3.93858,35.70323 -3.93858,19.87502 C -3.93858,17.14041 -3.26697,14.10655 -2.38187,12.8429 C -0.43331,10.06094 1.55495,9.8297 0.09661,12.55465 C -3.60782,19.47643 4.05797,29.7803 14.32212,31.67569 C 19.804,32.68798 24.56281,31.71386 41.22763,26.16819 C 55.12061,21.54493 63.04299,20.46979 67.1239,22.65383 C 68.18594,23.22222 69.9655,25.47222 71.07848,27.65383 C 73.90259,33.18955 75.415,32.84684 78.43877,25.98599 C 80.13185,22.14444 81.85842,20.66781 86.333801,19.23387 C 87.308609,18.92154 93.655812,19.751 100.4387,21.07712 C 119.20173,24.74548 123.75696,25.07022 130.87416,23.24688 C 138.27351,21.35125 141.65989,19.29755 143.61253,15.52155 C 145.28551,12.28636 145.49288,6.88542 144.08617,3.18549 C 142.31488,-1.47336 145.05776,0.35788 147.23994,5.29106 C 153.55907,19.57651 140.53024,39.51622 124.79118,39.64729 C 122.10277,39.66968 121.14239,40.35634 119.06142,43.74396 C 115.91618,48.86412 112.16015,50.91714 107.52787,50.04812 L 104.05004,49.39568 L 107.05573,55.10958 C 110.84344,62.31013 110.82623,65.13212 106.94951,72.52782 L 103.83759,78.46448 L 107.03999,87.71403 C 109.71623,95.44386 110.36613,99.1384 110.99551,110.20032 L 111.74863,123.43704 L 115.35075,127.64531 C 117.33192,129.95987 119.09289,132.81362 119.26402,133.98699 C 119.68739,136.88993 116.95966,146.63529 114.81142,149.89478 C 113.84892,151.35517 113.06142,153.27045 113.06142,154.15096 C 113.06142,156.71422 111.06058,159.73791 109.85674,158.9939 C 109.22132,158.60119 109.03336,158.76597 109.41407,159.38198 C 109.77798,159.9708 109.66742,161.52651 109.16837,162.83911 C 108.6142,164.29668 108.63076,165.88636 109.2109,166.92303 C 109.83868,168.0448 109.80484,168.6204 109.11111,168.6204 C 108.53378,168.6204 108.06142,167.91884 108.06142,167.06138 C 108.06142,166.20392 107.61142,165.78048 107.06142,166.1204 C 106.50379,166.46503 106.06819,165.71699 106.07673,164.42942 C 106.08942,162.51596 106.27689,162.37737 107.17107,163.6204 C 108.06846,164.86791 108.15004,164.81207 107.65575,163.28861 C 107.32887,162.28113 107.05453,161.15613 107.04611,160.78861 C 107.03769,160.4211 106.67673,160.67788 106.24398,161.35925 C 105.7701,162.10539 105.41705,161.18281 105.35629,159.03959 C 105.25045,155.30557 104.52791,153.82058 103.37694,154.97155 C 103.00047,155.34802 103.23606,157.78552 103.90047,160.38822 C 104.56487,162.99092 104.98593,169.03252 104.83616,173.814 C 104.56165,182.57745 103.93974,182.82193 102.57292,174.70373 C 102.16393,172.27456 101.01598,168.94965 100.02192,167.31505 L 98.214532,164.34304 L 98.63595,168.73172 C 99.02268,172.75918 98.97414,172.87348 98.046242,170.1204 C 96.841952,166.54726 97.605982,162.22089 99.26068,163.24355 C 100.02484,163.71583 100.18019,163.37229 99.73136,162.20266 C 99.36289,161.24245 99.06142,159.50363 99.06142,158.33861 C 99.06142,156.66531 98.80372,156.4781 97.834522,157.4473 C 96.519682,158.76214 96.259292,170.1393 97.384262,177.1204 C 97.927182,180.48956 97.863342,180.72613 96.979462,178.6204 C 96.402312,177.2454 95.847142,171.95907 95.745752,166.87299 C 95.582252,158.67067 95.356032,157.62529 93.744032,157.62299 C 92.302401,157.62094 92.082467,158.0856 92.680292,159.8704 C 93.094792,161.1079 93.565012,163.4704 93.725212,165.1204 C 93.885412,166.7704 94.239162,169.6954 94.511312,171.6204 C 94.969592,174.86186 94.946942,174.8988 94.204692,172.1204 C 93.763892,170.4704 92.622683,167.7704 91.668675,166.1204 C 90.714667,164.4704 90.188732,163.94724 90.49993,164.95782 C 90.811128,165.9684 91.352357,168.6684 91.702661,170.95782 C 92.412353,175.59603 94.231372,179.63424 97.631782,184.1204 C 99.87363,187.07809 101.85455,192.6204 100.66983,192.6204 C 100.3352,192.6204 100.06142,191.99668 100.06142,191.23435 z M 103.66559,171.89123 C 103.33329,171.55894 103.09695,172.14957 103.14037,173.20373 C 103.18835,174.36868 103.42531,174.60563 103.74453,173.8079 C 104.0334,173.08602 103.99788,172.22353 103.66559,171.89123 z M 102.80522,160.74412 C 102.13582,157.92607 101.24461,155.6204 100.82477,155.6204 C 99.81348,155.6204 99.82506,155.69904 101.56142,160.6204 C 103.26235,165.44134 103.50338,167.85168 102.06142,165.6204 C 100.94448,163.89206 100.7634,164.68019 101.71041,167.14807 C 102.26801,168.60114 102.4765,168.63008 103.19086,167.35358 C 103.66053,166.51433 103.49273,163.63835 102.80522,160.74412 z M 109.59314,156.8704 C 110.47071,155.3579 110.94024,154.93127 110.63653,155.92234 C 110.31515,156.97105 110.49755,157.46889 111.07287,157.11332 C 112.22462,156.40151 112.41574,153.61395 111.31142,153.63405 C 107.19431,153.70901 104.55116,156.7768 106.72809,158.95373 C 107.72529,159.95094 107.86449,159.84972 109.59314,156.8704 z M 99.92721,155.13759 C 102.47602,154.32204 105.83863,153.4035 107.39967,153.09639 C 109.75216,152.63356 110.03071,152.28832 109.02723,151.0792 C 107.13781,148.80259 102.69347,149.31871 100.06142,152.1204 C 96.776572,155.61696 93.236232,155.29783 87.604272,150.99751 C 82.25994,146.91681 82.68892,149.44629 88.115605,154.01254 C 91.684377,157.01546 93.513742,157.18971 99.92721,155.13759 z M 101.60254,78.55386 C 102.67881,76.81242 101.45302,76.44362 100.08148,78.09623 C 99.29273,79.04661 99.21686,79.62039 99.87996,79.62039 C 100.46484,79.62039 101.24,79.14046 101.60254,78.55386 z M 103.44258,73.87039 C 102.16077,68.5046 99.33379,67.15894 95.890162,70.27538 C 92.93309,72.9515 93.578992,74.57294 97.357812,73.95972 C 99.66241,73.58574 101.05317,73.90553 101.98025,75.02259 C 103.85792,77.28504 104.19488,77.01955 103.44258,73.87039 z M 50.06142,42.12039 C 50.06142,41.24345 49.1513,40.62039 47.87029,40.62039 C 45.72897,40.62039 45.72329,40.65377 47.62029,42.08859 C 50.05466,43.92985 50.06142,43.92994 50.06142,42.12039 z M 63.99197,42.15631 C 67.32912,40.4306 72.06142,35.07857 72.06142,33.0301 C 72.06142,31.28189 70.22689,27.8985 67.63711,24.87039 C 64.42705,21.11704 57.60797,21.80425 40.37507,27.61781 C 23.53827,33.29774 18.20788,34.27546 12.48297,32.73391 C 6.46698,31.11397 0.36921,25.41665 -1.35888,19.80107 L -2.79927,15.12039 L -2.85916,19.62039 C -2.97961,28.67234 3.36564,37.60457 11.96065,40.48229 C 16.63621,42.04773 25.47368,41.88862 32.06142,40.12039 C 40.80144,37.77447 47.43028,38.13097 50.65592,41.12039 C 53.79964,44.03389 59.50423,44.47701 63.99197,42.15631 z M 44.51142,40.51504 C 45.65398,39.43906 40.76934,39.3224 35.93642,40.31024 C 32.67364,40.97715 32.64455,41.02404 35.06142,41.72046 C 37.87661,42.53167 43.07402,41.8687 44.51142,40.51504 z M 99.06142,38.56138 C 99.06142,38.04384 98.386422,37.62039 97.561422,37.62039 C 96.015012,37.62039 95.574722,38.80036 96.700902,39.92654 C 97.499832,40.72547 99.06142,39.82236 99.06142,38.56138 z M 95.561422,37.62039 C 95.901342,37.07039 96.968272,36.62039 97.932382,36.62039 C 98.89649,36.62039 100.66721,35.2923 101.86731,33.66907 C 103.13577,31.95339 105.62189,30.28048 107.80537,29.67335 C 112.05922,28.49054 127.06142,29.39237 127.06142,30.83089 C 127.06142,31.33851 125.88301,33.29881 124.44273,35.18712 L 121.82404,38.62039 L 124.40522,38.62039 C 125.82487,38.62039 129.40773,37.71446 132.36715,36.6072 C 142.66556,32.75407 149.77218,19.75854 147.50905,8.91792 L 146.71626,5.12039 L 145.98837,10.45 C 145.13984,16.66293 142.54085,20.00172 136.40455,22.76183 C 128.17775,26.46225 118.33032,25.98782 92.739275,20.65812 C 86.135995,19.2829 81.55464,21.19571 79.46324,26.20114 C 78.62383,28.21014 78.16906,30.45852 78.45265,31.19755 C 79.12299,32.94442 89.91473,38.51 92.752405,38.5723 C 93.957442,38.59875 95.221502,38.17039 95.561422,37.62039 z M 143.06142,183.24284 C 143.06142,181.93519 143.73642,180.30509 144.56142,179.6204 C 145.38642,178.93571 146.06142,177.28009 146.06142,175.94125 C 146.06142,173.62547 145.95325,173.58276 143.83891,175.0637 C 142.61654,175.91988 141.28237,176.6204 140.8741,176.6204 C 139.21192,176.6204 138.35963,172.85502 139.06331,168.6204 L 139.81109,164.1204 L 139.93625,169.31138 C 140.0051,172.16642 140.57705,174.82104 141.20726,175.21054 C 142.01016,175.70676 142.15932,175.1466 141.70563,173.33895 C 141.34952,171.92009 141.49775,169.60297 142.03503,168.1898 C 143.25656,164.97695 146.08866,164.7483 145.99113,167.8704 C 145.92433,170.00888 145.88023,170.02127 145.10127,168.1204 C 144.33588,166.25266 144.21013,166.30168 143.19961,168.86172 C 142.07093,171.72107 142.64935,174.99311 144.12253,174.08263 C 144.59088,173.79318 144.84248,173.00826 144.68164,172.33837 C 144.5208,171.66849 144.56953,171.43262 144.78992,171.81422 C 145.01031,172.19583 145.90392,172.23433 146.7757,171.8998 C 148.08452,171.39756 148.23571,171.78984 147.64319,174.15062 L 146.92561,177.00968 L 149.0697,174.56504 C 151.24306,172.08704 150.78194,173.862 148.53574,176.6204 C 147.86394,177.4454 146.77248,179.8079 146.1103,181.8704 C 144.75651,186.08701 143.06142,186.85005 143.06142,183.24284 z M 79.19766,172.71545 C 77.67857,169.18423 77.10379,165.92538 77.20807,161.43502 L 77.35472,155.1204 L 78.04388,162.1204 C 78.42291,165.9704 79.48782,170.87699 80.41035,173.02394 C 81.33288,175.17089 81.91807,177.09708 81.71078,177.30437 C 81.50349,177.51166 80.37259,175.44665 79.19766,172.71545 z M 100.33378,173.6204 C 100.33378,171.1454 100.5288,170.1329 100.76715,171.3704 C 101.00551,172.6079 101.00551,174.6329 100.76715,175.8704 C 100.5288,177.1079 100.33378,176.0954 100.33378,173.6204 z M 106.68496,175.08174 C 106.34201,174.18804 106.11317,172.25613 106.17642,170.78861 C 106.26255,168.79013 106.48709,169.12441 107.07098,172.1204 C 107.89937,176.3709 107.71687,177.77087 106.68496,175.08174 z M 129.0966,174.68614 C 127.61813,171.92358 127.81713,170.90406 129.40972,173.08205 C 131.39515,175.79729 132.91766,174.18483 133.66126,168.5793 C 134.49557,162.28999 135.69899,162.07189 135.20367,168.29976 C 134.91369,171.94568 135.23037,173.27077 136.63759,174.29976 C 138.21079,175.45011 138.23323,175.6204 136.81157,175.6204 C 135.9139,175.6204 134.86562,175.11261 134.48205,174.49198 C 134.00524,173.72049 133.49641,173.87864 132.87335,174.99198 C 131.66348,177.15389 130.36085,177.0484 129.0966,174.68614 z M 83.31142,167.6427 C 82.07392,163.93793 81.1227,159.60482 81.1976,158.01358 C 81.32368,155.33501 81.36479,155.30585 81.75181,157.6204 C 81.98171,158.9954 83.08253,162.93412 84.198054,166.37311 C 85.313581,169.8121 86.07669,173.0202 85.893853,173.50223 C 85.711016,173.98426 84.548922,171.34747 83.31142,167.6427 z M 80.26484,166.90246 C 78.99487,163.58742 78.02335,146.9559 79.20883,148.82468 C 79.66091,149.53733 80.03769,153.41248 80.04611,157.43614 C 80.05453,161.4598 80.54788,165.66084 81.14244,166.77179 C 81.737,167.88274 82.02257,168.99258 81.77704,169.23811 C 81.53151,169.48364 80.85102,168.4326 80.26484,166.90246 z M 84.670002,164.60016 C 82.80043,159.92763 82.48879,154.14846 84.162166,155.18266 C 84.785384,155.56783 85.032539,157.22026 84.731883,158.99168 L 84.200856,162.1204 L 85.605504,159.1204 C 86.969436,156.20736 87.004792,156.30157 86.82521,162.3704 C 86.723491,165.8079 86.558887,168.6204 86.459424,168.6204 C 86.359961,168.6204 85.554721,166.81129 84.670002,164.60016 z M 71.01114,161.8704 C 70.98349,161.4579 70.79247,159.16765 70.58666,156.78095 C 70.23196,152.66763 70.33361,152.4719 72.53728,153.02498 L 74.8621,153.60848 L 73.46176,148.95551 C 72.69157,146.39637 72.12042,142.46156 72.19254,140.21147 C 72.31572,136.36811 72.37125,136.45342 73.10975,141.6204 C 73.54211,144.6454 74.3831,148.69243 74.97864,150.6138 C 75.57417,152.53517 76.00818,155.46017 75.94311,157.1138 L 75.82479,160.1204 L 75.06142,157.1204 C 74.64157,155.4704 74.24481,154.8528 74.17974,155.74796 C 74.11466,156.64311 73.41317,157.91351 72.62086,158.57107 C 71.82855,159.22863 71.4267,160.40873 71.72785,161.19351 C 72.029,161.9783 72.00226,162.6204 71.66841,162.6204 C 71.33457,162.6204 71.0388,162.2829 71.01114,161.8704 z M 72.7237,154.3704 C 72.44629,153.6829 72.21932,154.2454 72.21932,155.6204 C 72.21932,156.9954 72.44629,157.5579 72.7237,156.8704 C 73.00111,156.1829 73.00111,155.0579 72.7237,154.3704 z M 68.06142,153.34608 C 68.06142,150.26188 68.50302,147.46551 69.04275,147.13194 C 69.66426,146.74783 69.82298,148.64521 69.47563,152.30671 C 68.75705,159.88147 68.06142,160.39272 68.06142,153.34608 z M 62.53838,155.28661 C 62.93234,153.43586 62.77815,152.67744 62.09392,153.10032 C 61.43423,153.50803 61.47882,152.79841 62.21435,151.18411 C 62.85681,149.77407 63.70119,148.6204 64.09076,148.6204 C 65.09694,148.6204 64.29388,154.42903 63.00991,156.43845 C 62.14962,157.7848 62.05554,157.55497 62.53838,155.28661 z M 58.59038,152.71164 C 58.22533,151.56146 57.52109,150.6204 57.02542,150.6204 C 56.52974,150.6204 56.40677,151.4079 56.75214,152.3704 C 57.4394,154.28572 57.20882,154.11525 55.06142,151.1204 C 54.27269,150.0204 54.00919,149.44207 54.47587,149.83522 C 54.94256,150.22837 56.16522,150.10003 57.19291,149.55003 C 58.68469,148.75165 59.08481,148.90996 59.17742,150.33522 C 59.28593,152.00505 59.32298,152.00732 59.75075,150.3704 C 60.00228,149.4079 60.62507,148.6204 61.13475,148.6204 C 62.3536,148.6204 62.31477,148.90345 60.65777,152.09733 C 59.31664,154.68236 59.22455,154.70972 58.59038,152.71164 z M 66.29343,151.6204 C 66.29343,149.6954 66.49922,148.9079 66.75075,149.8704 C 67.00228,150.8329 67.00228,152.4079 66.75075,153.3704 C 66.49922,154.3329 66.29343,153.5454 66.29343,151.6204 z M 94.488482,145.85509 C 93.898362,145.45101 93.124982,144.3329 92.769865,143.3704 C 92.215725,141.86849 92.757679,141.6204 96.592802,141.6204 C 100.69266,141.6204 101.06142,141.8267 101.06142,144.1204 C 101.06142,146.18472 100.58217,146.61773 98.311422,146.60509 C 96.798922,146.59667 95.078602,146.25917 94.488482,145.85509 z M 104.22146,143.09291 C 103.96931,138.32292 101.51635,135.6204 97.438972,135.6204 C 95.509002,135.6204 93.059523,136.08623 91.995681,136.65558 C 90.736305,137.32958 90.061422,137.34303 90.061422,136.69413 C 90.061422,136.14598 91.817567,135.22461 93.963962,134.64664 C 100.96326,132.76193 105.60581,136.31118 104.78137,142.91661 L 104.38149,146.1204 L 104.22146,143.09291 z M 67.2541,135.83828 C 67.0194,126.96807 65.56745,123.29663 59.06004,115.11867 C 53.69243,108.37309 49.60738,100.31823 48.66428,94.62039 L 48.08496,91.12039 L 49.13793,94.12039 C 49.71706,95.77039 50.88122,99.05186 51.72496,101.41255 C 52.5687,103.77323 56.13825,109.56663 59.6573,114.28677 C 67.06867,124.22772 68.33766,127.69879 67.82228,136.6204 L 67.44678,143.1204 L 67.2541,135.83828 z M 73.61139,129.85632 C 71.58931,118.98876 70.47052,116.25343 66.56162,112.6204 C 60.6289,107.10639 51.92572,88.20749 52.12208,81.26506 C 52.15545,80.08549 53.08704,82.48972 54.1923,86.60778 C 56.67372,95.85331 61.78334,105.74263 67.59943,112.55635 C 70.02692,115.40023 72.45088,119.39054 72.986,121.42372 C 74.45857,127.01866 76.34307,138.67208 75.85431,139.16084 C 75.61704,139.39812 74.60772,135.21108 73.61139,129.85632 z M 62.97196,127.45325 C 62.33406,126.26131 59.89272,122.92956 57.54676,120.04935 C 49.58819,110.27838 44.83267,97.62753 45.21125,87.2339 C 45.32786,84.03249 45.44238,83.78559 45.72774,86.12039 C 47.67348,102.04076 49.98902,108.224 58.03707,118.99042 C 63.14873,125.82863 65.50111,129.6204 64.63179,129.6204 C 64.35679,129.6204 63.60987,128.64518 62.97196,127.45325 z M 65.272,74.04872 C 68.92168,69.60013 70.30323,68.62039 72.92656,68.62039 C 74.50239,68.62039 76.97739,69.55306 78.42656,70.69297 C 81.10986,72.80366 81.86611,74.62039 80.06142,74.62039 C 79.51142,74.62039 79.06142,73.96123 79.06142,73.15558 C 79.06142,71.31922 75.98383,69.62039 72.6571,69.62039 C 70.99909,69.62039 69.35351,70.65888 67.9033,72.62039 C 66.6834,74.27039 65.30219,75.62039 64.83394,75.62039 C 64.36568,75.62039 64.56281,74.91314 65.272,74.04872 z M 79.83916,66.55584 C 78.66304,64.50658 77.3102,63.57344 75.35793,63.46487 C 70.03349,63.16876 67.55077,63.77257 65.17425,65.94162 C 63.5863,67.39094 62.93493,67.61819 63.22871,66.62039 C 63.47161,65.79539 65.39192,64.26784 67.49608,63.22583 C 70.48829,61.74405 72.08959,61.52617 74.84579,62.22583 C 78.00946,63.02893 83.11098,67.90417 81.97568,69.03947 C 81.72718,69.28797 80.76575,68.17033 79.83916,66.55584 z M 92.06516,69.23843 C 92.057106,67.33811 96.267472,61.68977 98.133542,61.0975 C 100.79862,60.25164 105.63923,61.40676 107.17274,63.25453 C 108.17687,64.46443 107.70466,64.41791 104.76833,63.01767 C 100.23976,60.85815 97.011512,62.01379 94.062862,66.85 C 92.966182,68.64872 92.067216,69.72351 92.06516,69.23843 z M 43.06142,49.89259 C 41.3231,49.23214 35.60567,44.62039 36.52519,44.62039 C 36.86466,44.62039 38.49803,45.62265 40.1549,46.84763 C 41.87302,48.11789 45.4004,49.3464 48.36441,49.70683 L 53.56142,50.3388 L 49.06142,50.40065 C 46.58642,50.43467 43.88642,50.20604 43.06142,49.89259 z M 100.88719,41.97826 C 101.50822,40.80008 103.38973,38.68049 105.06831,37.26805 C 107.87083,34.90989 110.17053,34.19769 118.56142,33.08933 L 121.56142,32.69306 L 118.56142,33.61155 C 116.91142,34.11671 113.84912,34.8004 111.7563,35.13086 C 109.06888,35.55521 106.74786,36.96374 103.85461,39.92605 C 101.60149,42.23294 100.26615,43.15643 100.88719,41.97826 z "
       style="fill:black"
       id="path2268" />
    <path
       d="M 66.52702,80.4239 C 64.02702,78.96778 64.35294,77.77465 67.72736,76.02967 C 72.97287,73.31712 79.77702,74.45425 79.77702,78.04348 C 79.77702,80.86185 70.22519,82.57787 66.52702,80.4239 z M 68.56645,79.10485 C 67.85726,78.33533 67.11946,77.85539 66.92688,78.03832 C 66.33373,78.60178 67.83702,80.504 68.87546,80.504 C 69.41469,80.504 69.27563,79.87439 68.56645,79.10485 z M 77.33589,79.02299 C 79.01414,77.74257 79.07388,77.40834 77.77702,76.55505 C 76.73533,75.86964 76.16548,75.94022 75.91198,76.78603 C 75.71122,77.45592 74.83771,78.5665 73.97086,79.254 C 71.56805,81.15965 74.82877,80.93582 77.33589,79.02299 z "
       style="fill:black"
       id="path2123" />
  </g>
</svg>
