<?xml version="1.0" encoding="UTF-8" standalone="no"?>
<!DOCTYPE svg PUBLIC "-//W3C//DTD SVG 1.0//EN"
"http://www.w3.org/TR/2001/REC-SVG-20010904/DTD/svg10.dtd">
<!-- Created with Sodipodi ("http://www.sodipodi.com/") -->
<svg
   xmlns="http://www.w3.org/2000/svg"
   xmlns:xlink="http://www.w3.org/1999/xlink"
   version="1.0"
   x="0"
   y="0"
   width="390.347992"
   height="156.026993"
   viewBox="0 0 390.348 156.027"
   id="svg628"
   xml:space="preserve"><defs
   id="defs636" /><metadata
   id="metadata629"><xpacket /><x:xmpmeta
   xmlns:x="adobe:ns:meta/"
   x:xmptk="XMP toolkit 3.0-29, framework 1.6"><rdf:RDF
   xmlns:rdf="http://www.w3.org/1999/02/22-rdf-syntax-ns#"
   xmlns:iX="http://ns.adobe.com/iX/1.0/"><rdf:Description
   xmlns:pdf="http://ns.adobe.com/pdf/1.3/"
   rdf:about="uuid:dd98ca23-1c66-44cf-8095-f7c2b48c8613"><pdf:Producer>Adobe PDF library 6.66</pdf:Producer></rdf:Description><rdf:Description
   xmlns:tiff="http://ns.adobe.com/tiff/1.0/"
   rdf:about="uuid:dd98ca23-1c66-44cf-8095-f7c2b48c8613" /><rdf:Description
   xmlns:xap="http://ns.adobe.com/xap/1.0/"
   xmlns:xapGImg="http://ns.adobe.com/xap/1.0/g/img/"
   rdf:about="uuid:dd98ca23-1c66-44cf-8095-f7c2b48c8613"><xap:CreateDate>2004-11-08T15:09:31-05:00</xap:CreateDate><xap:ModifyDate>2005-01-04T22:29:49Z</xap:ModifyDate><xap:CreatorTool>Illustrator</xap:CreatorTool><xap:MetadataDate>2004-11-08T15:09:31-06:00</xap:MetadataDate><xap:Thumbnails><rdf:Alt><rdf:li
   rdf:parseType="Resource"><xapGImg:format>JPEG</xapGImg:format><xapGImg:width>256</xapGImg:width><xapGImg:height>104</xapGImg:height><xapGImg:image>/9j/4AAQSkZJRgABAgEASABIAAD/7QAsUGhvdG9zaG9wIDMuMAA4QklNA+0AAAAAABAASAAAAAEA
AQBIAAAAAQAB/+4ADkFkb2JlAGTAAAAAAf/bAIQABgQEBAUEBgUFBgkGBQYJCwgGBggLDAoKCwoK
DBAMDAwMDAwQDA4PEA8ODBMTFBQTExwbGxscHx8fHx8fHx8fHwEHBwcNDA0YEBAYGhURFRofHx8f
Hx8fHx8fHx8fHx8fHx8fHx8fHx8fHx8fHx8fHx8fHx8fHx8fHx8fHx8fHx8f/8AAEQgAaAEAAwER
AAIRAQMRAf/EAaIAAAAHAQEBAQEAAAAAAAAAAAQFAwIGAQAHCAkKCwEAAgIDAQEBAQEAAAAAAAAA
AQACAwQFBgcICQoLEAACAQMDAgQCBgcDBAIGAnMBAgMRBAAFIRIxQVEGE2EicYEUMpGhBxWxQiPB
UtHhMxZi8CRygvElQzRTkqKyY3PCNUQnk6OzNhdUZHTD0uIIJoMJChgZhJRFRqS0VtNVKBry4/PE
1OT0ZXWFlaW1xdXl9WZ2hpamtsbW5vY3R1dnd4eXp7fH1+f3OEhYaHiImKi4yNjo+Ck5SVlpeYmZ
qbnJ2en5KjpKWmp6ipqqusra6voRAAICAQIDBQUEBQYECAMDbQEAAhEDBCESMUEFURNhIgZxgZEy
obHwFMHR4SNCFVJicvEzJDRDghaSUyWiY7LCB3PSNeJEgxdUkwgJChgZJjZFGidkdFU38qOzwygp
0+PzhJSktMTU5PRldYWVpbXF1eX1RlZmdoaWprbG1ub2R1dnd4eXp7fH1+f3OEhYaHiImKi4yNjo
+DlJWWl5iZmpucnZ6fkqOkpaanqKmqq6ytrq+v/aAAwDAQACEQMRAD8A9U4q7FXYq7FXYq7FXYq8
Y/MH/nJLRtK1hfKvkmzPmzzfcSfV4re3NbWOYmnF5F+2y/tBNhvyZaHFWf8AkbRvN9tZ/pDzhqv1
/XrpB61pbARWFoCeXo28a7vTvJIWY9iBtirKMVYR561+XSvr1rPN6QuLM6ho924Xhb3Fk8Yk9Q/D
WKPnHMw3JQS9hTFU+8oeabDzP5fsdYtDw+twpLLbMQZIXJKPG48UkR0PupxVOcVU7iBZ4JIGZ0WV
ShaNmjcBhSqupDKfAg4q8U84fmb59/KPVIf8VQN5p8jXkgjtNehVIb+2Y7+jcqgSGVgo+E0Tn1rW
oxV6p5Q86eWfOGjR6x5dv47+xc8WZKh0cdUkRqOjDwYe/TFU7xV2KuxV2KuxV2KuxV2KuxV2KuxV
2KuxV2KuxV2KuxV2KuxV2KuxV2Kvlv8A5yt/PLUrC8k/L/y3cNayCNW16+ibjJSVQy2qMN1BQhpC
OoIX+aqrJf8AnFL8nrby95ah86arCG17W4udiHG9tZPunGvR5x8ZP8tB/NVV7/irzv8ANb88/Jf5
cW4j1GRr3WZV5W+j2xUzEHo8hO0Se7bnsDirwPXv+cqNE846ZHZa1ob6VcW13HJbzQy/WY5LacNa
XsMtVhZeVncTUIBBNNh1xVjn5I/85DR+Q7fU49bhuNRWSOV7aGErWSd5VkQM7GiKGedi1D9vYYq9
U8kf85oeW9U1VbLzRpD6FbzNxh1CKY3USV6esvpxuo/ylDfIDfFX0VaXlpe2sV3ZzJcWs6iSCeJg
6OjCoZWWoIPtiqD8w+X9I8xaJeaJrFut1pt9GYriFu4PQg9VZTurDcHcYq+Fby485/kB+bN1a6fc
PJbxOjiNzSLUNPdiY/UUVFaVXkBVXBpir7j8n+adM81+WNO8xaWxNlqUImjDfaU1KvG1P2kcFT7j
FU4xV2KuxV2KuxV2KuxV2KuxV2KuxV2KuxV2KuxV2KuxV2KuxV2KuxV+dn5/adf2H5xeao71Csk1
89zETvyhnAkiIPhwYfqxV9ieWPz/APyen8sWNy3mKzsPTtollsZyY5omVAGj9Ijk3Einwgjw2xV5
Z+a3/OYlmkEul/l3E0s7VRteuoyqIPG3gf4mP+VKAB/KcVfK2o6jf6lfT3+oXEl3e3LmS4uZmLyO
7blmZqknFUNirsVdir1D8n/z+83flzcC1jJ1Py5I3K40iZiAtTu9u9G9JvHbie474q+tPK//ADkr
+T+v2STnXI9JuONZbPUh9XdD4czWJv8AYucVfM//ADlX+YPlPzl5105/Ldwt9Bptl9XuL9AQju0j
PwQsAWCA9elTir6M/wCcVdNv7H8ltI+uKyfWpbm5t0cEEQyTNwND2anIexrir1zFXYq7FXYq7FXY
q7FXYq7FXYq7FXYq7FXYq7FXYq7FXYq7FXYq7FXhn/OWXlXyzdeQX8xXmhXGo6vYMsFvf2TiKS3i
k5EyXDFZA0CsBUFerbFak4q+HsVdiqbXPmXUp9Eh0QJbQadEwkKQW8Mcski1Aaa4C+vJTkaB3IHY
YqlOKuxVFaZqd7pd/Df2TiO6t25ROyJItaU3SQMjAg7hgRiq7VtTl1O+kvZoYIJpd5FtYY7aIt/M
IYgkaV8EUD2xVB4q9I/IDy95e8w/mTp2k65ol1rdpO1fTt5fTih4/EZrlQtXiWm45r/svslV+hME
EFvBHBBGsUEShIokAVERRRVVRsABsAMVX4q7FXYq7FXYq7FXYq7FXYq7FXYq7FXYq7FXYq7FXYqh
7zUdPsk53lzFbJ15TOsYp06sRiqC/wAWeVf+rzY/9JMP/NWKu/xZ5V/6vNj/ANJMP/NWKu/xZ5V/
6vNj/wBJMP8AzViq5PMflm6PoR6pZTtICDEs8TlhTccQxrirzDzp/wA4qflR5kuJLu2tZtBvJCWd
9MZY4WY+MDq8aj2jC4qkOj/84X/lpaSLJqWo6nqRXrEZIoIm+YSP1PufFUk/5yF/IDyF5f8Aysud
Y8paOtjfaVPBNcTLLPNI9szGKRT6rydGlVz/AKvhir5GxV2KvQvyF8kWvnP80NI0e/gFxpamS51K
IlgDBChbiSpDfE/Fdj3xV9X67/ziZ+TOpoRbafc6RKf922N1JX/gbj6wn3LirG7H/nCn8vobz1bv
WdTurUEFbcGCImnZnEbEj5AYq9o8n+QvJ/k3TzYeWtLh06Bqeq0YLSyEdDLK5aRz/rMcVT/FXYq7
FXYq7FXYq7FXYq7FXYq7FXYq7FXYq7FXYqwT83/zc0L8tfLY1K+T61qF0TFpemq3F55FFSS1DxjS
o5tTwHUjFXxh51/5yI/NfzXPJ62tTaZYuTw0/TWa1jVT+yWQiWT/AGbnFXnTvdXdwWdnuLiU7sxL
ux6d6k4qrfonVf8Aljn/AORb/wBMVd+idV/5Y5/+Rb/0xV36J1X/AJY5/wDkW/8ATFVOeyvIFDTw
SRKTQM6MoJ+kYqyTyd+af5geT7iOXy/rdzaxRkE2ZcyWrAdmgk5Rn7qjtir7R/Ib897D8y9NmtLy
JLHzPp6B720Qn0pYyePrwciW48tmU/ZNNzXFWXfmu1iv5Y+bGvlDWo0i99RT3/0d+IHvypT3xV+a
uKuxV9Hf84SPYDzv5gR1/wBPbTFa3bwhFwgmH0sY8Ve0f85Xsw/JLWKEis1mDTuPrUeKvhbRtF1f
W9Sh0zSLOa/1G45ehaW6GSV+CGRuKrUmiKTiqZ+SfOnmHyP5nttd0aUwX1m9JYXrwljrSSGZdqq3
Q9x1FCAcVfoX+W35iaF5+8q22v6Q9Fk/d3dqx/eW9woHOJ/lWoPcUOKspxV2KuxV2KvzY/NySST8
1fOLSMXYa3qKgsSTxW6kVRv2AFBir70/JiSST8pvKLyMXc6Va1ZiSTSIDqcVfn/+Yru/5g+Z2diz
Nq18SxNST9ZfFX6K/l+7v5D8tu7FnbS7IsxNSSbdCSScVT7FXYq7FXYq7FUNqjMumXbKSrLDIVYb
EEIdxir8tvUk9T1OR9SvLnU8uVa1r44q9X/5ye85T+ZPzb1WESFrHQz+i7SOuymD+/NOlTOX38AB
2xV6x/zjf/zjj5bvvLVr5x85WY1CbUR6ul6ZNX0I4AfgmlQEeo0tKqrfDxpsSdlX0tpeh6LpEAg0
rT7bT4BsIrWGOFKf6sYUYqjcVdirsVWyxRSxtHKiyRsKMjAFSPAg4q+f/wDnJH8hvKd95M1LzVoG
nQ6ZrmjxNeXAtEWKK5t4/im9WNAF5ogLhwK7UPsq+avyK8yXHl/82vLN7E5RJ72KyuR2MN43oPyH
cAScvmMVfdv5qeXrrzF+XHmPRbQFru8sJktUHVpVXnGnf7TqBir81iCDQ7EYq1ir6O/5wn8vXc/n
TW/MFCLKxsPqZbccprqVHUe9EgavzGKvZ/8AnLD/AMklq/8Axns/+olMVfL/APzi5/5Pbyz/ANH3
/dPuMVesf85TfkJzFz+YHle3+MVk8w6fECa92vI1Hh/u0D/W/mxV4f8Ak3+bOr/lt5qTU7blcaVc
8YtX08HaaEH7S12EkdSUP0dCcVfoN5d8w6R5i0Sz1vR7hbrTb6MS28y9wdiCDuGU7MDuDtiqY4q7
FXYq/Nb82P8AyafnL/tual/1GSYq+9PyU/8AJR+UP+2Va/8AJoYq+APzC/5T7zL/ANtW+/6iXxV+
in5ef8oB5Z/7ZVj/ANQyYqyDFXYq7FXYq7FULq3/AByr3/jBL/xA4q/LXFUdrmotqWt6hqLGrXtz
NcMfeWQv/wAbYq/TnQ9Nj0vRdP0yJQsVjbQ2yKOgWGMIAOnZcVRuKuxV2KuxV2KobU9NstU0270y
/iE9jfQyW11CagPFMhR1NKH4lYjFXlWjf84r/lHpOrWWqW1reNc2E8dzAJLp2T1ImDoWAAqAwG2K
vXsVfnT+e/lhPLX5teZNNiQR2zXRu7ZFFFEV2ouFVadk9Tj9GKsBxV96/wDOKvlZND/J/Trlk4XW
tyy6jOSNyHb04d/D0olb6cVd/wA5Yf8AkktX/wCM9n/1Epir5f8A+cXP/J7eWf8Ao+/7p9xir7+Z
VZSrAMrCjKdwQexxV8T/APOTH5Cv5P1GTzX5dt/+dWvpP9Jt4xtYzufs0HSGRvsHop+H+WqqU/8A
OOn55z/l/rX6I1iRn8o6lIPrI3Y2kx+EXEaj9noJFA3G43FCq+7IJ4LiCOeCRZYJVDxSoQyOjCqs
rDYgjcEYqvxV2KvzW/Nj/wAmn5y/7bmpf9RkmKvvT8lP/JR+UP8AtlWv/JoYq+APzC/5T7zL/wBt
W+/6iXxV+in5ef8AKAeWf+2VY/8AUMmKsgxV2KuxV2KuxVC6t/xyr3/jBL/xA4q/LXFVa0g+sXUM
HLj60ix8qVpyIFaYq/U7FXYq7FVCa/sYH9Oa5iifrxd1U0PsTiqz9LaV/wAtsH/I1P64q79LaV/y
2wf8jU/rirv0tpX/AC2wf8jU/riq6PUtOkcRx3ULu2yqsikk+wBxVEYq+Dv+csdYsdR/OW/jtF30
62trO5fs8yoZGI/1RKE+YxV45ir9GvyK1iy1b8oPKVzZikUWnQ2bggA+rZr9Wl6eMkTHFWNf85Yf
+SS1f/jPZ/8AUSmKvl//AJxc/wDJ7eWf+j7/ALp9xir7/wAVQ2p6Zp+q6dcabqNul3YXcbQ3NtKO
SOjChUg4q+BPz4/JfUPy28x1tw9x5Z1BmbSr1tytNzbykf7sQdD+0Nx3AVekf84tfn1+jJ4PIfmi
5/3GzsE0K/lY/uJGNBbOT/utyfgP7J26EcVX15irsVfmt+bH/k0/OX/bc1L/AKjJMVfen5Kf+Sj8
of8AbKtf+TQxV8AfmF/yn3mX/tq33/US+Kv0U/Lz/lAPLP8A2yrH/qGTFWQYq7FXYq7FXYqhdW/4
5V7/AMYJf+IHFX5a4qr2U6wXkE7AlYpEdgOpCsDir9TcVdirsVfnf/zkJ9Y/5XP5q9fny+ufDzrX
h6acKV7caU9sVed4q7FXYqyH8u2ZfzA8sspKsNVsaEbH/elMVfpnir83Pzka5b82fOBuARJ+mL0K
Dt+7E7CP/hKYqw7FX3V/ziEbo/k3biZSsYvrsWxJNDHyBJH/AD05DFUX/wA5Yf8AkktX/wCM9n/1
Epir5f8A+cXP/J7eWf8Ao+/7p9xir7/xV2KpJ5z8naF5w8uXnl/W4PWsbxaEigeNx9iWNiDxdDuD
/DFX56/mj+Wuu/l55qn0LVB6kf8Ae6ffKKR3FuSQsi+B2oy9j7UJVfT/APzjD+ff+JrKLyZ5mua+
YbOOmm3krfFewIPsMT1mjUb93XfqGOKvobFX5rfmx/5NPzl/23NS/wCoyTFX3p+Sn/ko/KH/AGyr
X/k0MVfAH5hgjz/5mB2I1W+qP+jl8Vfoh+Wc4uPy38qTgcRLo+nuFPUBrWM4qyTFXYq7FXYq7FUL
q3/HKvf+MEv/ABA4q/LXFUdrlkbHWtQsmUI1rczQlRWgMchWm9D2xV+lnkrW49d8n6JrKPzGoWNv
clqk/FJErMDWpqGJBriqdYq7FVCawsZ39Sa2ilfpydFY0HuRiqz9E6V/yxQf8ik/pirv0TpX/LFB
/wAik/pirA/z3j0fTvyf813LWsMdbB4UcIqkPORClCB/PIMVfDn5T2v1r80PKNuV5q+s2HqLWlUF
yhfeo/ZBxV+lOKvIfzT/AOcaPJn5geYF1+a7udK1J1VL17UIyzhBxVmVwaOFAXkO3bFWHXn/ADhH
5KeeE2XmHUoYFI9eOZYJnYftcHVIQle1Vb6cVe/eXPL2k+XNCstD0iEW+nafEsNtENyFXuxPVmNS
x7nfFXmP/OWH/kktX/4z2f8A1Epir5f/AOcXP/J7eWf+j7/un3GKvv8AxV2KuxVhX5tflbon5jeV
JdHvwIb2KsulagBV7eemx90enF17j3AIVfn9rmi+aPIvm2XT70SabrukThkljYqyuhDRyxOKVVtm
Vh2xV9wfkD+dll+Y3l76vfOkPmrTkUalaii+svQXMS/ysftAfZbboVqq+LPzY/8AJp+cv+25qX/U
ZJir70/JT/yUflD/ALZVr/yaGKvhj88NNk0783vN1u4oz6pcXIr4XT/WF8O0uKvtX/nHbXYtZ/Jr
yzMj8ntLb6jKtalWtGMIB/2CKfkcVej4q7FXYq7FXYqxv8ydag0T8v8AzHqs78FtdOuXQ1pWQxMs
ag+LOQo9zir85PKmmNqvmjR9LVeTX99bWoUioJmmVKU7/axV6Z/zlD+XV15U/Mq81OOI/ofzG739
nMB8Imc1uYif5lkblT+Vhiqbfkf/AM5PXnkPSo/LmvWUmqeX4WZrOSBlFzbB2LMih6JIhYkgFlIr
1ptir33Tv+csPySu4RJPq8+nuQD6NzZ3LMPb9wk6/jiqbf8AQyP5Jf8AU0wf8ibn/qlirv8AoZH8
kv8AqaYP+RNz/wBUsVd/0Mj+SX/U0wf8ibn/AKpYqhL7/nKH8kLRCf8AEX1hwOQigtbtyfYN6QSv
zbFXzz/zkD/zkhb+f9Mj8t+XrSa00JZlnurm54ia4aP7C+mpYJGrfF9okmnSm6qXf84n+S7rXvzU
tdVMZOneXka8uZP2fVZWjt0r/MXbn8lOKvuzFXYq7FXYq8g/5yw/8klq/wDxns/+olMVfL//ADi5
/wCT28s/9H3/AHT7jFX3/irsVdirsVeTf85AfkjZ/mNoH1qwVIfNemoTp1ydhMgqxtpT/Kx3U/st
7FsVfEfl/X/NHkTzbFqNiZNO1vSZmSWGRSpDKeMsMyGlVO6spxVC+a9cOv8AmjWNeMP1c6tfXN8Y
A3IRm5maXhyoK8edK0xV+hX5Kf8Ako/KH/bKtf8Ak0MVfOf/ADmV+XV5aeZLXz1aRF9P1KOO11KR
RX07qFeMTP7SRAKPdfcYqwP8jvz81f8ALK4uLOW1/Sfl2+cS3NiG9OSOWgX1oXIIqVADKdmoNx1x
V9IaZ/zmB+T13GGuZNQ05z1juLUuQR7wNMMVTdP+cpfyKZFY+ZChIBKmxv6j2NLcjFW/+ho/yJ/6
mb/px1D/ALJ8Vd/0NH+RP/Uzf9OOof8AZPiqWX3/ADl1+TNtFzhu729b/fUFpIrdv9/ekv44q8B/
PT/nJS9/MPTx5f0iyfS/LnqLLOJmDXFy0ZqgkCHgiKfi4At8QBrtirf/ADib+X135h/MeHzBNCTo
/lytxJMw+BrplK28an+ZSfU9uPuMVfZHnTyT5c856BPoXmC1F1YzUZT9mSKRfsyxP1R1r1+g1BIx
V8s+cP8AnCvzXa3Dy+VNWttSsySUt72ttcKOy8lDxP8AP4flirz29/5xn/O60Zg/lmSVVBPKG4tZ
QQPDhKT9FK4qgP8AlQP5yf8AUp33/Ar/AM1Yq7/lQP5yf9Snff8AAr/zVirv+VA/nJ/1Kd9/wK/8
1YqrW3/OO/503L8Y/Kt0p2H71oYhv7ySKMVZt5U/5w3/ADK1K4jbX57TQbOo9YGQXVxQ9eCQkxE/
OUYq+sfy7/Lry15B8uxaHoUPGJfjubqShmuJSKGSVgBU+A6AbDFWT4q7FXYq7FXmn/ORnljXfMv5
TarpOhWj32oySW0kdrGVDssdwjPx5EVoorir5+/5x2/Jv8zNC/N3Rda1nQLjT9MsVu3ubmfgqj1L
SWFAPiqSXlXYfPFX2ZirsVdirsVdir59/wCclv8AnH2TzdF/ivyrbKfM0Chb+ySi/XYhsGBJC+tG
PH7S7dQMVfNv/Kgfzk/6lO+/4Ff+asVfdf5WaRqOjflv5a0rUoTb39lp1tDdQEglJFjAZSVJFQcV
T7V9I0zWdMudL1S2jvNPvEMVzbSjkjoexH4g9jir5i88/wDOFJkuZbryTrKQxOxZdN1PnRAd+KXE
YdiOwDR18WOKvMNT/wCcVPztsmb0tFivo1rWS2u7YjbwWV4nNf8AVxVJp/8AnHr86IXCv5UvCSK/
AYpB96OwxVT/AOVA/nJ/1Kd9/wACv/NWKrov+cffzmkcIvlS9BboW9NB9LM4AxVNbD/nFv8AO+7Y
V8vi1jO3qXF3aKBuBuqys/8AwuKvRfJn/OFGsy3Ec/nHWoba1BBez03lLMw/lM0qokZ9wr4q+ofK
nlLy95T0SDRNAs0sdOt6lYkqSzH7Tu7VZ3buzGuKv//Z</xapGImg:image></rdf:li></rdf:Alt></xap:Thumbnails></rdf:Description><rdf:Description
   xmlns:xapMM="http://ns.adobe.com/xap/1.0/mm/"
   rdf:about="uuid:dd98ca23-1c66-44cf-8095-f7c2b48c8613"><xapMM:DocumentID>uuid:3139ae14-5c26-43dc-a030-5289ea3a124f</xapMM:DocumentID></rdf:Description><rdf:Description
   xmlns:dc="http://purl.org/dc/elements/1.1/"
   rdf:about="uuid:dd98ca23-1c66-44cf-8095-f7c2b48c8613"><dc:format>image/svg+xml</dc:format></rdf:Description></rdf:RDF></x:xmpmeta><xpacket /></metadata><g
   style="font-size:12;"
   id="Layer_1"><path
   d="M 125.446 2.859 C 130.38 9.958 131.965 17.052 133.749 21.723 L 134.611 21.841 C 134.285 17.154 133.373 13.459 131.554 7.278 C 135.194 14.297 135.713 16.116 137.143 20.796 C 136.103 14.167 134.154 7.148 130.905 -0 C 137.143 11.048 138.183 14.557 139.743 20.666 C 140.281 17.762 140.003 14.817 138.703 10.658 C 140.987 15.454 141.543 17.883 141.18 20.996 C 144.616 19.865 146.301 18.112 148.991 18.041 C 156.592 17.841 168.791 34.841 180.791 34.841 C 187.19 34.841 188.361 32.907 188.591 28.441 C 188.991 20.641 175.191 6.241 168.991 2.041 C 175.19 3.441 198.591 14.829 198.791 28.241 C 198.945 38.635 191.19 40.441 188.391 42.041 C 193.191 43.441 194.391 45.041 191.391 47.441 C 187.189 50.803 179.412 53.897 175.791 53.842 C 167.693 53.719 164.228 50.842 156.391 51.241 C 156.391 55.241 152.791 62.441 152.791 66.441 C 152.791 70.441 155.791 74.64 152.592 82.241 C 149.391 89.842 146.391 102.241 147.991 104.64 C 149.592 107.04 151.13 118.163 149.592 121.241 C 144.991 130.441 142.193 126.865 136.991 126.465 C 131.789 126.065 128.991 130.442 124.39 121.241 C 122.852 118.164 124.39 107.041 125.991 104.64 C 127.592 102.241 124.592 89.841 121.39 82.241 C 118.191 74.64 121.191 70.441 121.191 66.441 C 121.191 62.441 117.591 55.241 117.591 51.241 C 109.753 50.841 106.288 53.719 98.191 53.842 C 94.569 53.897 86.793 50.803 82.591 47.441 C 79.591 45.041 80.791 43.441 85.591 42.041 C 82.791 40.441 75.036 38.635 75.191 28.241 C 75.391 14.829 98.791 3.441 104.991 2.041 C 98.791 6.241 84.991 20.641 85.391 28.441 C 85.62 32.907 86.791 34.841 93.191 34.841 C 105.191 34.841 117.39 17.841 124.991 18.041 C 127.398 18.104 129.003 20.049 131.776 21.152 C 130.87 16.305 127.96 7.216 125.446 2.859 z M 118.19 37.441 C 117.686 36.334 113.064 38.041 109.99 40.441 C 113.39 40.441 119.19 39.642 118.19 37.441 z M 163.99 40.441 C 160.916 38.041 156.294 36.334 155.79 37.441 C 154.79 39.642 160.591 40.441 163.99 40.441 z "
   id="path631" /><path
   d="M 108.352 110.675 C 108.45 110.777 108.5 110.976 108.5 111.273 C 108.5 117.164 108.398 122.152 108.199 126.242 C 108 130.336 107.703 133.43 107.304 135.523 C 106.105 142.406 103.062 147.597 98.171 151.089 C 95.679 152.784 92.483 154.034 88.593 154.831 C 84.703 155.628 80.062 156.026 74.679 156.026 L 41.004 156.026 C 34.418 156.026 28.758 155.604 24.02 154.753 C 19.278 153.905 15.364 152.53 12.274 150.632 C 9.477 148.734 7.133 146.362 5.239 143.515 C 3.341 140.671 1.993 137.199 1.196 133.101 C 0.798 130.605 0.497 126.96 0.298 122.163 C 0.099 117.366 0 111.273 0 103.882 C 0 86.8 3.023 75.261 9.074 69.269 L 8.926 69.269 C 15.008 63.277 26.5 60.277 43.403 60.277 L 74.75 60.277 C 85.949 60.277 94.375 62.523 100.023 67.015 C 105.671 71.507 108.5 78.296 108.5 87.378 L 108.5 87.679 C 108.5 88.577 108.098 89.027 107.301 89.027 L 97.852 89.027 C 96.95 89.027 96.5 88.578 96.5 87.675 C 96.398 84.777 95.875 82.28 94.926 80.179 C 93.973 78.077 92.348 76.429 90.051 75.226 C 88.348 74.429 86.223 73.777 83.676 73.277 C 81.125 72.777 78.149 72.527 74.75 72.527 L 42.5 72.527 C 37 72.527 32.398 72.879 28.699 73.578 C 25 74.281 22.102 75.179 20 76.277 C 16.199 78.578 13.75 82.828 12.652 89.027 C 12.05 92.32 11.75 100.148 11.75 112.511 C 11.75 125.577 13.246 134.003 16.246 137.792 C 19.746 141.784 27.641 143.776 39.934 143.776 L 74.711 143.776 C 83.606 143.776 89.402 142.288 92.102 139.307 C 93.301 137.916 94.25 135.807 94.95 132.975 C 95.649 130.147 96.001 126.495 96.001 122.026 L 52.949 122.026 C 51.949 122.026 51.449 121.53 51.449 120.534 L 51.449 111.268 C 51.449 110.276 51.949 109.776 52.949 109.776 L 107.308 109.776 C 107.406 109.776 107.503 109.827 107.605 109.924 L 108.352 110.675 z "
   id="path632" /><path
   d="M 255.266 156.027 C 254.766 156.027 254.465 155.879 254.364 155.578 L 182.594 71.129 L 179.598 71.129 L 179.598 154.676 C 179.598 155.578 179.145 156.028 178.239 156.028 L 168.708 156.028 C 167.802 156.028 167.349 155.579 167.349 154.676 L 167.349 62.527 C 167.349 61.527 167.798 61.027 168.701 61.027 L 189.56 61.027 C 189.861 61.027 190.212 61.23 190.611 61.629 L 257.849 141.621 L 257.849 62.527 C 257.849 61.527 258.345 61.027 259.341 61.027 L 268.755 61.027 C 269.65 61.027 270.099 61.527 270.099 62.527 L 270.099 154.675 C 270.099 155.577 269.65 156.027 268.751 156.027 L 255.266 156.027 z "
   id="path633" /><path
   d="M 386.297 140.527 C 383.492 146.746 378.59 150.906 371.59 153.015 C 371.59 153.117 371.539 153.163 371.438 153.163 C 368.637 154.069 364.911 154.772 360.258 155.272 C 355.606 155.776 349.977 156.026 343.375 156.026 L 329.27 156.026 C 322.665 156.026 317.036 155.776 312.387 155.276 C 307.735 154.776 303.957 154.077 301.055 153.174 C 300.953 153.174 300.856 153.127 300.758 153.026 C 297.156 151.924 294.153 150.323 291.754 148.221 C 289.352 146.119 287.399 143.569 285.899 140.569 C 284.497 137.569 283.469 133.717 282.821 129.014 C 282.173 124.311 281.848 118.807 281.848 112.502 L 281.848 62.527 C 281.848 61.527 282.246 61.027 283.047 61.027 L 292.496 61.027 C 293.394 61.027 293.848 61.527 293.848 62.527 L 293.848 112.476 C 293.848 122.679 294.797 129.98 296.696 134.378 C 298.493 138.48 301.794 141.026 306.591 142.026 C 310.489 143.026 318.032 143.526 329.228 143.526 L 343.318 143.526 C 354.513 143.526 362.056 143.026 365.955 142.026 C 370.752 140.924 373.9 138.374 375.4 134.374 C 376.498 132.276 377.22 129.401 377.572 125.753 C 377.924 122.105 378.099 117.679 378.099 112.476 L 378.099 62.527 C 378.099 61.527 378.603 61.027 379.611 61.027 L 388.99 61.027 C 389.896 61.027 390.349 61.527 390.349 62.527 L 390.349 112.476 C 390.348 125.179 388.996 134.527 386.297 140.527 z "
   id="path634" /></g></svg>
