<?xml version="1.0" encoding="UTF-8" standalone="no"?>
<svg xmlns:dc="http://purl.org/dc/elements/1.1/" xmlns:cc="http://creativecommons.org/ns#" xmlns:rdf="http://www.w3.org/1999/02/22-rdf-syntax-ns#" xmlns:svg="http://www.w3.org/2000/svg" xmlns="http://www.w3.org/2000/svg" version="1.1" width="245.46758" height="220.29543" id="svg2">
  <defs id="defs4"/>
  <metadata id="metadata7">
    <rdf:RDF>
      <cc:Work rdf:about="">
        <dc:format>image/svg+xml</dc:format>
        <dc:type rdf:resource="http://purl.org/dc/dcmitype/StillImage"/>
        <dc:title/>
      </cc:Work>
    </rdf:RDF>
  </metadata>
  <g transform="translate(-143.4969,-467.51999)" id="layer1">
    <path d="m 243.51015,687.37287 c -3.3,-0.49962 -7.575,-1.56263 -9.5,-2.36223 -5.36968,-2.23046 -16.2073,-6.28391 -19,-7.10634 -4.47767,-1.31862 -14.91086,-8.79492 -15.94015,-11.42251 -0.55118,-1.40706 -2.06541,-4.35829 -3.36496,-6.55829 -2.25933,-3.8248 -2.62404,-4.0219 -8.32667,-4.5 -3.28011,-0.275 -7.09507,-1.24234 -8.47767,-2.14964 -4.43762,-2.91207 -7.23214,-16.75528 -4.84346,-23.99304 1.60799,-4.87226 0.85976,-5.63924 -2.89389,-2.96641 -1.62907,1.16 -3.46108,2.10909 -4.07114,2.10909 -0.61006,0 -1.96515,0.53455 -3.01131,1.18789 -1.48575,0.92786 -2.80092,0.89125 -6.00824,-0.16726 -7.4928,-2.47284 -10.74796,-11.43018 -7.59906,-20.9106 1.31753,-3.96674 2.16305,-5.11003 3.77906,-5.11003 1.14498,0 3.9698,-1.10646 6.27738,-2.45879 l 4.19561,-2.45879 -0.10775,7.98983 c -0.11422,8.4693 0.59572,9.88034 4.98726,9.91244 5.19975,0.038 7.13483,-7.74661 3.27358,-13.16924 -2.88941,-4.0578 -9.34987,-8.59868 -14.02447,-9.85742 -4.63169,-1.24719 -12.2842,-8.37369 -14.38133,-13.39281 -2.3549,-5.63608 -0.40949,-11.5975 5.41351,-16.58892 2.54304,-2.17986 5.1862,-3.96629 5.8737,-3.96984 1.8115,-0.009 1.65041,-0.31566 -2.62704,-4.99512 l -3.87704,-4.24141 0.50108,-17.63497 c 0.27559,-9.69923 0.78918,-19.3996 1.1413,-21.55638 1.02225,-6.26143 2.74505,-5.40785 3.40771,1.68838 0.84172,9.01383 3.50829,15.41368 7.45399,17.88986 l 3.25,2.03958 0,-11.52677 c 0,-9.06191 0.33038,-11.85715 1.545,-13.07178 2.17413,-2.17413 9.04619,-3.87736 11.20082,-2.77612 0.9648,0.49311 3.20042,1.17045 4.96806,1.50519 3.17731,0.60171 3.20048,0.57771 2.03679,-2.10914 -0.6474,-1.49478 -1.80575,-3.727 -2.57411,-4.96049 -1.90921,-3.06493 -0.81058,-6.68994 3.26168,-10.7622 4.72908,-4.72908 9.75497,-5.83171 22.72072,-4.98471 13.13211,0.85788 23.81345,-1.30879 42.84104,-8.69014 11.48155,-4.45403 27.49305,-7.70845 38,-7.7237 17.56938,-0.0255 40.8391,9.22639 41.06645,16.32777 0.10355,3.23446 5.34876,11.93854 8.02437,13.31591 1.32505,0.68212 4.16801,2.03212 6.31768,3 3.61759,1.6288 4.0665,2.29907 6.03116,9.00522 1.16746,3.985 2.94987,8.03499 3.96091,9 1.77708,1.69617 1.8157,1.57153 1.1607,-3.74544 -0.37266,-3.025 -1.42399,-7.6149 -2.3363,-10.19978 -0.9123,-2.58488 -1.40919,-4.94933 -1.10418,-5.25434 0.305,-0.305 1.88213,0.10773 3.50472,0.91719 4.64213,2.3158 9.46714,9.73911 10.74868,16.53693 0.36291,1.925 1.58729,5.75 2.72084,8.5 l 2.06101,5 5.86059,-0.33573 5.86058,-0.33572 0.52251,3.33572 c 0.28738,1.83465 0.77515,6.71073 1.08394,10.83573 0.30878,4.125 0.82654,9.40697 1.15058,11.73772 0.32404,2.33074 0.28176,5.03074 -0.094,6 -0.64771,1.67094 -0.75269,1.66779 -2.02534,-0.0607 -1.59311,-2.1638 -9.74893,-2.84299 -11.62392,-0.968 -2.08361,2.08361 0.68823,4.12435 5.6019,4.12435 3.69826,0 4.8619,0.52291 7.41776,3.33334 3.82756,4.20879 4.50773,7.74552 3.79312,19.72339 -0.56407,9.4546 -0.62797,9.65234 -4.16718,12.89579 -3.15542,2.89172 -4.03736,3.21084 -7.22244,2.61331 -1.99546,-0.37435 -4.79498,-1.28953 -6.22115,-2.03374 -4.25335,-2.21949 -8.95625,-1.75972 -10.21295,0.99844 -0.88997,1.95326 -0.63993,3.05631 1.43951,6.35035 4.96614,7.86687 3.73571,16.8369 -4.45651,32.48871 -2.3059,4.40557 -15.87225,17.55471 -25.36308,24.58307 -3.94637,2.92248 -14.87066,9.21401 -15.9987,9.21401 -0.76077,0 -1.6356,0.40835 -1.94405,0.90744 -0.75351,1.21919 -14.8222,7.05082 -21.05721,8.72844 -9.79243,2.6348 -40.87683,4.69475 -50,3.31349 z m 30.01924,-2.4245 c 19.88769,-3.46753 25.24664,-4.76987 31.20972,-7.58462 3.42593,-1.61714 6.63333,-2.94025 7.12756,-2.94025 0.49422,0 1.39725,-0.60085 2.00672,-1.33522 0.60947,-0.73437 2.9029,-1.92754 5.0965,-2.65149 2.1936,-0.72395 4.8663,-2.1342 5.93933,-3.13388 1.07303,-0.99969 3.27354,-2.62191 4.89001,-3.60495 2.95629,-1.79782 11.19888,-8.77527 18.044,-15.27446 3.07291,-2.91761 8.0481,-9.70254 11.63098,-15.8618 0.47635,-0.81889 0.2447,-1.70016 -0.58107,-2.21052 -1.1055,-0.68323 -0.98425,-1.13313 0.62188,-2.30745 1.6863,-1.23295 1.98946,-2.59348 1.95847,-8.78949 -0.0245,-4.89944 -0.64005,-8.64793 -1.85598,-11.30227 l -1.81932,-3.97154 -1.53492,2.97154 c -1.47933,2.86394 -4.09291,6.16782 -12.03189,15.20974 -7.80876,8.89361 -11.4423,12.26179 -13.22786,12.26179 -1.01651,0 -2.73313,1.125 -3.81471,2.5 -1.08158,1.375 -2.35174,2.50489 -2.82258,2.51086 -0.47084,0.006 -3.75872,2.70598 -7.30638,6 -3.54767,3.29403 -6.60339,5.98914 -6.7905,5.98914 -0.36909,0 -6.44234,4.18314 -7.2592,5 -2.02653,2.02653 -7.89914,4.069 -15.94626,5.54605 -9.33289,1.71306 -15.82734,1.69232 -36.05374,-0.11514 -7.64776,-0.68341 -24.91479,-5.79868 -28.20381,-8.35523 -1.2629,-0.98165 -4.00634,-2.34264 -6.09652,-3.02442 -2.09018,-0.68177 -4.33593,-2.09721 -4.99055,-3.14542 -0.65462,-1.04821 -1.67278,-1.90584 -2.26258,-1.90584 -0.58979,0 -2.36574,-1.35 -3.94654,-3 -1.5808,-1.65 -3.47464,-3 -4.20853,-3 -0.73389,0 -1.84693,-1.125 -2.47342,-2.5 -0.6265,-1.375 -1.48652,-2.5 -1.91118,-2.5 -3.33914,0 -2.32306,19.62817 1.21393,23.45 0.48356,0.5225 0.8792,1.68512 0.8792,2.58361 0,3.47628 10.81485,13.1101 16.56317,14.75439 5.01962,1.43585 16.62028,5.57742 17.9591,6.4116 0.56224,0.35032 4.80566,1.35464 9.42982,2.23183 4.62416,0.87718 8.55585,1.74318 8.73711,1.92443 1.01542,1.01543 14.09592,0.5175 21.83004,-0.83099 z m -2.18161,-5.96232 c 0.30338,-0.7906 1.04387,-3.2656 1.64553,-5.5 1.25398,-4.65694 2.56637,-5.14534 4.19879,-1.56255 1.57728,3.46174 3.19951,3.12505 4.81805,-1 1.34669,-3.43221 3.03916,-4.71878 2.95984,-2.25 -0.0221,0.6875 -1.08581,3.67317 -2.36382,6.63483 l -2.32366,5.38483 -1.85179,-3.13483 c -2.33047,-3.94519 -3.99907,-3.99235 -4.77057,-0.13483 -0.33,1.65 -1.10939,3 -1.73199,3 -0.62259,0 -0.88377,-0.64685 -0.58038,-1.43745 z m -25.63583,-1.19408 c -1.92147,-1.92147 -0.56283,-3.22018 2.7982,-2.67476 3.8317,0.6218 4.11697,0.27468 2.25,-2.73779 -1.0303,-1.66245 -0.98636,-2.18465 0.25,-2.97112 1.97643,-1.25724 5,-1.24805 5,0.0152 0,0.55 -0.69083,1 -1.53518,1 -1.18734,0 -1.30941,0.42186 -0.53875,1.86186 0.69458,1.29783 0.6295,2.32978 -0.21482,3.40649 -1.35376,1.72636 -6.92294,3.18663 -8.00945,2.10012 z m -12.9518,-3.0578 c -1.85642,-0.48513 -2.39758,-4.22934 -0.84707,-5.86067 0.49662,-0.5225 1.15646,-1.85 1.46632,-2.95 0.30986,-1.1 0.39637,-0.0876 0.19225,2.24981 -0.20413,2.33739 0.009,4.48487 0.47407,4.77217 1.02755,0.63506 4.71995,-3.17632 5.52038,-5.69827 0.61542,-1.93901 2.44405,-2.52899 2.44405,-0.78853 0,2.33946 -5.36298,9.17639 -6.94113,8.84882 -0.30738,-0.0638 -1.34637,-0.3218 -2.30887,-0.57333 z m 58.17349,-0.56067 c -0.0421,-0.6875 -0.22825,-2.04419 -0.4137,-3.01487 -0.39084,-2.04572 1.95339,-4.73513 4.12738,-4.73513 2.40618,0 5.36283,1.94903 5.36283,3.53518 0,3.7032 -8.85611,7.81567 -9.07651,4.21482 z m 4.49472,-1.35699 c 0.86999,-0.33384 1.58179,-1.23384 1.58179,-2 0,-1.83261 -4.6204,-1.82461 -5.32411,0.009 -0.89232,2.32535 0.68452,3.16417 3.74232,1.99078 z m -74.41821,-4.33399 c 0,-3.88899 -1.37993,-4.58615 -3.01827,-1.52489 -1.23268,2.3033 -2.98173,3.34133 -2.98173,1.76962 0,-1.21791 5.23604,-8.30375 6.136,-8.30375 0.4752,0 0.864,1.575 0.864,3.5 0,1.925 0.30473,3.5 0.67717,3.5 0.37245,0 1.98204,-1.4625 3.57686,-3.25 3.36527,-3.77183 3.01814,-1.29157 -0.55887,3.99317 -2.74845,4.06061 -4.69516,4.19156 -4.69516,0.31585 z m 84.51161,1.69098 c -0.23409,-0.6875 -0.55747,-2.6 -0.71861,-4.25 -0.25045,-2.56435 -0.65604,-2.95089 -2.793,-2.66183 l -2.5,0.33818 2.22424,-2.10313 c 2.11057,-1.99565 6.34887,-4.07322 8.30947,-4.07322 1.70233,0 -0.17003,2.80239 -2.23277,3.3418 -1.31621,0.3442 -1.85432,1.07671 -1.48946,2.02753 1.43183,3.73128 1.86804,8.63067 0.76843,8.63067 -0.62848,0 -1.33421,-0.5625 -1.5683,-1.25 z m -58.76161,-2.94444 c 1.20694,-1.20695 2.49607,-1.89282 2.86472,-1.52417 0.97294,0.97294 -1.58134,3.71861 -3.45939,3.71861 -1.28571,0 -1.16896,-0.43081 0.59467,-2.19444 z m -42.50945,-2.79199 c -1.77453,-2.84146 -1.6026,-3.53163 1.86304,-7.47877 3.26556,-3.71927 6.55542,-4.58697 7.55133,-1.99167 0.802,2.08996 -0.29861,2.99747 -1.96152,1.61738 -1.70539,-1.41535 -5.6934,1.96047 -5.6934,4.81943 0,2.62716 1.54321,3.33399 3.34508,1.53212 1.38802,-1.38802 4.66519,-1.14478 4.64712,0.34493 -0.0106,0.87649 -5.02323,3.14301 -6.95102,3.14301 -0.85805,0 -2.11833,-0.89389 -2.80063,-1.98643 z m 117.38663,-6.26357 c -1.97468,-3.13125 -2.94819,-6.75 -1.81589,-6.75 0.52034,0 1.50526,1.35 2.18871,3 2.3901,5.77022 5.23837,3.19607 4.28969,-3.87686 -0.72561,-5.40984 1.23945,-5.46921 2.10385,-0.0636 0.47489,2.96985 0.18289,4.84888 -1.0878,7 -2.07994,3.52106 -3.76432,3.72585 -5.67856,0.69042 z m 11.2452,-5.33333 c -0.28702,-4.31054 -0.62174,-6.20211 -1.28834,-7.28069 -1.41967,-2.29708 0.53941,-3.28511 3.13788,-1.58253 l 2.53672,1.66212 -0.45613,-3.10778 c -0.25087,-1.70929 -0.17446,-3.10779 0.16979,-3.10779 0.89428,0 3.0277,6.23182 3.0277,8.84405 0,2.11901 -0.0943,2.14028 -2.5,0.56399 -1.375,-0.90093 -2.5375,-1.24881 -2.58333,-0.77305 -0.39657,4.11643 -0.67404,5.45571 -1.24952,6.03119 -0.36693,0.36693 -0.72458,-0.19535 -0.79477,-1.24951 z m 11.85808,-10.07954 c -1.06543,-1.80085 -1.84199,-7.33713 -1.02915,-7.33713 1.33251,0 3.40563,6.29306 2.4033,7.29539 -0.48338,0.48338 -1.10175,0.50217 -1.37415,0.0417 z m 3.8708,-7.09343 c 0.38757,-1.93785 0.0613,-3.27885 -1.01506,-4.17216 -1.999,-1.65902 -2.03864,-3.07154 -0.0862,-3.07154 0.825,0 1.5,-0.75 1.5,-1.66667 0,-0.91666 0.32398,-1.34268 0.71996,-0.9467 0.39598,0.39598 0.73348,1.70848 0.75,2.91667 0.0208,1.52174 0.73908,2.29721 2.33767,2.5238 2.86834,0.40659 2.28515,2.70228 -0.65884,2.5935 -1.41912,-0.0524 -2.14879,0.52177 -2.14879,1.69098 0,0.97371 -0.44322,2.04431 -0.98494,2.37911 -0.60449,0.3736 -0.76433,-0.49435 -0.4138,-2.24699 z m -7.60126,-2.68468 c 0,-0.85746 0.45,-1.55902 1,-1.55902 0.55,0 1,0.42344 1,0.94098 0,0.51754 -0.45,1.2191 -1,1.55902 -0.55,0.33992 -1,-0.0835 -1,-0.94098 z m 14,-7.40601 c 0,-0.46584 -0.9,-1.8847 -2,-3.15301 -2.30664,-2.65958 -2.54645,-4 -0.71561,-4 1.32559,0 4.71561,4.96344 4.71561,6.90429 0,0.60264 -0.45,1.09571 -1,1.09571 -0.55,0 -1,-0.38115 -1,-0.84699 z m -66.98851,32.98182 c 8.47361,-1.58235 14.98851,-4.1928 14.98851,-6.00573 0,-0.35248 1.26894,-1.20257 2.81988,-1.88908 1.55093,-0.68651 4.90222,-3.33054 7.4473,-5.87562 2.54509,-2.54509 5.48695,-5.13075 6.53748,-5.74591 4.48554,-2.62665 17.19534,-12.09372 17.19534,-12.8082 0,-0.42905 2.5328,-3.4778 5.62844,-6.775 11.5088,-12.25815 12.81346,-15.30141 10.76091,-25.10101 -1.84307,-8.79952 -1.69476,-12.66414 0.6876,-17.9163 4.18765,-9.23214 8.29128,-11.4208 13.99818,-7.46591 2.07656,1.43905 4.02004,3.25354 4.31883,4.0322 0.79125,2.06195 3.63946,1.73296 6.25292,-0.72226 1.7766,-1.66903 2.05721,-2.54641 1.27927,-4 -0.78263,-1.46236 -2.15308,-1.86201 -6.38504,-1.86201 -8.0573,0 -15.27736,-1.94853 -17.0082,-4.59012 -2.63146,-4.01611 -2.68309,-11.77428 -0.11216,-16.85253 l 2.27889,-4.50137 -3.26791,-1.07851 c -3.50596,-1.15707 -6.43173,-4.71429 -6.43173,-7.81984 0,-3.37008 -2.35126,-4.43228 -6.83654,-3.08846 -2.19025,0.65622 -5.13897,0.90281 -6.5527,0.54798 -4.13127,-1.03688 -8.66848,-6.22715 -9.95195,-11.38436 -1.04625,-4.20406 -1.70983,-4.96571 -6.83158,-7.84119 -8.16564,-4.58441 -17.21817,-5.91801 -29.05207,-4.2799 -5.10134,0.70615 -9.50016,1.56389 -9.77516,1.90609 -0.275,0.34221 -3.875,1.63405 -8,2.87077 -4.125,1.23671 -9.87247,3.34272 -12.77215,4.68001 -2.89969,1.33729 -6.33061,2.43143 -7.62428,2.43143 -1.29366,0 -4.26527,0.675 -6.60357,1.5 -5.45635,1.92511 -14.10785,1.91004 -22.51293,-0.0392 -3.949,-0.91583 -9.94796,-1.42209 -14.81205,-1.25 l -8.17502,0.28923 -0.5,5.5 -0.5,5.5 -9.5,0.27554 c -7.4739,0.21678 -9.76659,0.63077 -10.75,1.94113 -1.9369,2.58087 -1.48836,5.8466 1.25,9.10096 4.01575,4.77245 2.65925,13.16598 -3.05057,18.8758 -1.60708,1.60708 -0.35367,5.30657 1.7979,5.30657 1.88161,0 9.75267,8.23871 9.75267,10.20821 0,0.98548 -0.24155,1.79179 -0.53677,1.79179 -0.29523,0 -3.2542,-2.64261 -6.57549,-5.87247 -9.64709,-9.38151 -19.24117,-11.55171 -26.81463,-6.06553 -10.70857,7.75724 -8.21949,19.84674 5.41536,26.30253 6.78131,3.2108 7.51018,3.24818 7.5165,0.38547 0.003,-1.2375 1.02266,-3.52173 2.26652,-5.07607 2.19138,-2.73839 2.45948,-2.80368 8.64068,-2.10436 5.61719,0.63552 6.83948,1.18208 10.23347,4.57607 l 3.85436,3.85436 0,-3.08333 c 0,-3.56939 2.30358,-3.59836 2.82647,-0.0356 0.38252,2.60638 -2.3827,12.03285 -5.07475,17.29953 -2.70536,5.29271 -2.884,19.91072 -0.2785,22.78976 2.47533,2.7352 3.79904,2.55501 5.29214,-0.72041 0.68948,-1.5125 2.05625,-3.78568 3.03727,-5.05151 1.58339,-2.04307 2.22802,-2.20139 5.74053,-1.40988 l 3.95684,0.89168 -0.31889,-8.17833 c -0.22766,-5.83869 0.12595,-9.15436 1.23605,-11.59012 l 1.55493,-3.41179 -0.66853,5.5 c -0.83589,6.87683 -0.51379,15.33818 0.69541,18.2684 0.62171,1.50658 0.74598,-0.14106 0.3825,-5.07139 -0.36407,-4.93841 -0.14956,-7.77152 0.66251,-8.75 1.79219,-2.15946 2.77513,-1.76413 3.23977,1.30299 0.22912,1.5125 0.51865,-1.3 0.64338,-6.25 0.25521,-10.12728 0.58422,-13.77709 1.59839,-17.73141 0.68823,-2.68346 0.62793,-2.72526 -3.43435,-2.38085 -2.27418,0.19281 -4.39471,-0.0699 -4.7123,-0.58373 -0.31758,-0.51386 -1.43346,-0.1596 -2.47972,0.78726 -1.80553,1.63398 -2.123,1.60803 -6.24129,-0.51008 -3.12325,-1.60635 -5.2943,-2.06452 -7.74843,-1.63522 -1.87519,0.32803 -4.08224,0.15465 -4.90456,-0.38529 -1.28558,-0.84412 -1.2155,-1.18694 0.5,-2.44604 1.09732,-0.80539 5.03263,-2.50023 8.74513,-3.76633 3.7125,-1.2661 6.75,-2.59533 6.75,-2.95383 0,-0.35851 -1.27124,-1.1784 -2.82497,-1.82198 -3.02725,-1.25393 -12.17503,-9.20682 -12.17503,-10.58472 0,-0.45667 -0.6727,-1.57362 -1.49488,-2.48212 -0.82219,-0.90851 -1.75519,-3.64394 -2.07335,-6.07875 -0.49413,-3.78152 -0.13742,-5.1134 2.44678,-9.1358 1.66389,-2.58988 4.9594,-6.1098 7.32335,-7.82204 2.36396,-1.71224 4.65796,-3.75574 5.09779,-4.54111 0.43983,-0.78538 1.36814,-1.42796 2.06291,-1.42796 0.69477,0 2.5566,-1.35 4.1374,-3 1.5808,-1.65 3.27213,-3 3.75852,-3 0.48638,0 1.57461,-0.69027 2.41828,-1.53394 0.84367,-0.84367 2.34866,-1.27537 3.34442,-0.95933 0.99575,0.31605 2.10443,0.099 2.46372,-0.48236 0.35929,-0.58135 1.07209,-0.79814 1.58399,-0.48177 0.51191,0.31638 -0.98168,2.60826 -3.31909,5.09306 -2.33741,2.48481 -4.43076,5.02605 -4.65188,5.6472 -0.22112,0.62116 -1.87546,2.64651 -3.67632,4.50079 -3.66496,3.77369 -7.42164,11.0548 -7.42164,14.38445 0,2.86268 5.79565,8.11431 10.76469,9.75424 3.38669,1.11771 4.35343,1.06794 7.12828,-0.36699 2.76463,-1.42965 5.53423,-5.32634 4.55451,-6.40798 -0.17567,-0.19394 -2.82322,0.79366 -5.88344,2.19468 -5.1299,2.34854 -5.56404,2.40454 -5.56404,0.71764 0,-1.00632 1.16404,-2.59238 2.58676,-3.52458 1.42272,-0.9322 2.34415,-1.93753 2.04762,-2.23406 -0.29653,-0.29653 -1.32798,0.24969 -2.29212,1.21383 -1.20546,1.20546 -1.87754,1.37929 -2.15178,0.55655 -0.21935,-0.65804 -0.23944,-1.32167 -0.0446,-1.47474 11.40875,-8.96509 13.70366,-10.24749 20.70124,-11.56784 3.98406,-0.75173 7.47487,-1.74076 7.75735,-2.19782 1.0705,-1.7321 -9.19561,-0.79803 -12.86924,1.17091 -2.05435,1.10107 -3.73519,1.56022 -3.73519,1.02033 0,-0.53989 1.88886,-1.94524 4.19746,-3.12301 3.43437,-1.75208 5.35534,-2.04844 10.56649,-1.63014 4.39252,0.35259 7.25046,0.0715 9.2093,-0.90566 3.69144,-1.84153 10.01867,-0.85816 14.63499,2.27456 4.10334,2.7846 4.11089,2.78571 6.00786,0.88874 2.13627,-2.13627 8.77938,-3.8953 11.82452,-3.13102 1.44199,0.36192 4.90463,3.00843 7.69475,5.88115 2.79012,2.87271 7.16357,7.36377 9.71879,9.98013 2.55521,2.61635 5.63444,5.02164 6.84273,5.34507 3.24774,0.86936 8.91005,-1.34396 12.98225,-5.07459 3.21907,-2.94906 3.52001,-3.65242 2.9234,-6.83262 -0.36579,-1.94983 -1.76823,-4.59134 -3.11653,-5.87002 -1.3483,-1.27867 -2.47294,-2.77486 -2.4992,-3.32486 -0.0263,-0.55 -2.50903,-3.68099 -5.51727,-6.95775 -11.36846,-12.3832 -4.29813,-11.1443 10.80137,1.89268 5.95704,5.14333 12.72909,15.16549 12.72909,18.83814 0,2.94675 -5.70205,12.08291 -8.66213,13.87898 l -2.43782,1.47918 3.54998,1.91179 c 1.95248,1.05148 3.54997,2.4941 3.54997,3.20582 0,2.0668 -2.82856,2.92884 -15.5,4.72381 -0.55,0.0779 -1.77828,0.49804 -2.72951,0.93363 -1.79309,0.82108 -9.65319,-2.32725 -13.02049,-5.21532 -1.57171,-1.34802 -1.75,-1.32279 -1.75,0.24767 0,0.96174 0.84515,1.96962 1.8781,2.23974 2.38129,0.62272 4.23743,4.52421 3.05134,6.41372 -0.48608,0.77435 -0.63873,2.19541 -0.33922,3.15791 0.2995,0.9625 0.12751,1.75 -0.38221,1.75 -2.38428,0 1.25304,28.93418 4.42505,35.20034 1.77389,3.50426 1.73401,6.25013 -0.11305,7.78306 -0.90448,0.75064 -1.3446,2.45095 -1.13182,4.37244 0.45388,4.09869 -0.19582,5.64416 -2.37273,5.64416 -3.74664,0 -4.4517,2.44511 -3.74861,13 0.19537,2.93286 -0.12378,3.55078 -1.96957,3.81336 -1.2115,0.17234 -2.46512,1.1401 -2.78584,2.15058 -0.76651,2.41508 -4.06984,3.15873 -9.01144,2.02869 -2.54524,-0.58205 -5.39427,-0.54299 -7.83368,0.1074 -2.10852,0.56217 -5.08278,0.74777 -6.60946,0.41246 -4.81081,-1.05663 -10.89597,-9.53674 -9.0207,-12.571 0.61553,-0.99595 1.38646,-0.12136 2.80017,3.17668 2.50632,5.84702 6.18146,7.61839 12.50342,6.0265 2.93254,-0.73842 5.45411,-0.77738 7.74731,-0.1197 4.80438,1.37788 5.0993,1.31107 8.69008,-1.9686 3.47516,-3.17407 4.11652,-5.05637 1.72286,-5.05637 -0.825,0 -1.5,0.61875 -1.5,1.375 0,1.95152 -5.26323,2.75563 -12.92474,1.97461 -7.36576,-0.75087 -7.46569,-0.83465 -12.28839,-10.30204 -1.80778,-3.54884 -4.07437,-7.26134 -5.03687,-8.25 -1.84531,-1.89547 -2.36631,-4.79757 -0.86129,-4.79757 0.48879,0 1.18418,-1.575 1.54531,-3.5 0.48445,-2.58235 1.1691,-3.5 2.61129,-3.5 2.17981,0 2.58275,1.97194 0.77278,3.78191 -0.9092,0.9092 -0.40261,2.15162 2.19563,5.38479 2.10602,2.62066 2.92742,4.35292 2.18191,4.60142 -3.66817,1.22273 3.00873,5.23188 8.71323,5.23188 1.63521,0 3.25122,0.45 3.59114,1 0.33992,0.55 1.71648,1 3.05902,1 1.34254,0 2.44098,-0.45 2.44098,-1 0,-0.55 0.67318,-1 1.49596,-1 0.8588,0 2.8819,-2.87493 4.75,-6.75 2.701,-5.60281 3.80639,-6.91261 6.50404,-7.7068 1.7875,-0.52623 3.25,-1.28159 3.25,-1.67857 0,-1.43607 -3.18691,-3.86463 -5.07143,-3.86463 -2.02649,0 -5.92857,3.29091 -5.92857,5 0,0.55 -0.44469,1 -0.98821,1 -0.54352,0 -0.88102,1.0125 -0.75,2.25 0.19079,1.80205 -0.33047,2.31504 -2.6182,2.57669 -1.84905,0.21148 -2.62174,-0.053 -2.19099,-0.75 0.37733,-0.61052 -0.11781,-1.11087 -1.14358,-1.15564 -1.11908,-0.0488 -1.31637,-0.27662 -0.51728,-0.59724 1.62507,-0.65205 -0.31551,-3.32381 -2.41418,-3.32381 -2.25915,0 -1.5601,-1.83304 0.87244,-2.28768 1.2375,-0.23129 0.1125,-0.21896 -2.5,0.0274 -3.04467,0.28713 -4.75,0.0552 -4.75,-0.64589 0,-0.60161 1.4625,-1.16454 3.25,-1.25094 2.4696,-0.11938 2.04938,-0.32178 -1.75,-0.8429 -3.62194,-0.49678 -1.14143,-0.75657 9,-0.94258 15.42563,-0.28293 14.78963,-1.55695 -0.95179,-1.90661 -10.24859,-0.22763 -14.88033,-1.1508 -5.77389,-1.1508 6.96022,0 7.88455,-1.94769 1.0347,-2.18025 l -5.30902,-0.18025 4.75,-0.37454 c 6.65728,-0.52493 5.93653,-2.24102 -1,-2.38096 -3.1625,-0.0638 -4.85,-0.33248 -3.75,-0.59707 1.1,-0.26458 2.4275,-0.88738 2.95,-1.38399 0.5225,-0.49662 5.2475,-0.9663 10.5,-1.04374 8.81039,-0.12989 9.12405,-0.19968 4.05,-0.9011 -3.025,-0.41817 -9.775,-0.85411 -15,-0.96877 -8.36518,-0.18356 -8.97582,-0.31142 -5.1119,-1.07032 6.60719,-1.29772 6.18836,-1.89844 -1.47143,-2.11043 -6.65282,-0.18411 -6.55427,-0.21496 2.58333,-0.80858 l 9.5,-0.61717 -8,-0.35952 c -4.72052,-0.21214 -6.46274,-0.52032 -4.25,-0.75178 4.20393,-0.43974 5.16436,-2.27153 1.19098,-2.27153 -1.45136,0 -2.2915,-0.43284 -1.94098,-1 0.33992,-0.55 2.84148,-1 5.55902,-1 6.027,0 6.64028,-1.93015 0.69098,-2.17471 l -4.25,-0.1747 4.27279,-0.38391 c 6.11713,-0.54961 4.17772,-2.2638 -2.58181,-2.28199 -3.13004,-0.008 -6.33553,-0.42319 -7.12331,-0.92171 -0.92457,-0.58507 0.67072,-0.80148 4.5,-0.61044 3.26278,0.16277 4.35733,0.11179 2.43233,-0.11329 -8.17817,-0.95622 -7.61741,-3.29375 0.83584,-3.4842 6.34485,-0.14295 7.99339,-1.80277 1.97318,-1.98669 l -4.30902,-0.13164 3.5,-0.73672 3.5,-0.73672 -3,-0.26632 c -1.65,-0.14648 -5.7,-0.19982 -9,-0.11854 -4.28798,0.10562 -5.57199,-0.13692 -4.5,-0.85001 0.825,-0.54878 4.5375,-1.00468 8.25,-1.0131 3.7125,-0.008 6.75,-0.37234 6.75,-0.80872 0,-1.311 -7.67067,-2.94327 -12.94844,-2.75535 -2.71652,0.0967 -4.71287,-0.19023 -4.43633,-0.63769 0.27654,-0.44745 7.78875,-0.90169 16.69379,-1.00941 8.90504,-0.10772 13.05112,-0.35562 9.2135,-0.55088 -4.05477,-0.2063 -7.61522,-0.93187 -8.5,-1.73217 -1.03989,-0.9406 -3.7908,-1.32072 -8.67814,-1.19912 -3.93559,0.0979 -6.94653,-0.15947 -6.69098,-0.57197 0.25555,-0.4125 3.58808,-0.75 7.40562,-0.75 7.57293,0 9.5327,-1.65157 2.69098,-2.2678 -2.3375,-0.21053 1.15,-0.52756 7.75,-0.70451 10.79649,-0.28947 11.39825,-0.39639 6,-1.06618 -3.3,-0.40944 -9.375,-0.84548 -13.5,-0.96898 -4.125,-0.12349 -6.6,-0.44101 -5.5,-0.7056 1.1,-0.26458 2.45,-0.9534 3,-1.5307 0.68031,-0.71408 0.60039,-0.82403 -0.25,-0.34392 -0.6875,0.38815 -1.25,0.3014 -1.25,-0.19278 0,-0.49417 1.2375,-1.49822 2.75,-2.2312 l 2.75,-1.3327 -3,-0.7095 -3,-0.7095 3,-0.21799 c 2.85267,-0.20729 2.88087,-0.25129 0.57414,-0.8959 -2.78363,-0.77788 -4.02822,-3.12274 -1.65747,-3.12274 0.87083,0 1.58333,0.45 1.58333,1 0,0.55 1.2375,1.00689 2.75,1.01531 2.14294,0.0119 2.41887,0.22931 1.25,0.98469 -1.29735,0.83841 -1.27484,0.97144 0.16667,0.98469 0.91666,0.008 1.86128,-0.54719 2.09914,-1.23469 0.63725,-1.8419 11.18351,3.69814 14.97814,7.86816 1.69257,1.86001 3.592,3.38184 4.22095,3.38184 0.62895,0 3.25664,1.34009 5.83932,2.97798 2.58268,1.63788 4.69578,2.56423 4.69578,2.05855 0,-0.50568 2.24301,-0.75243 4.98446,-0.54832 2.74145,0.2041 5.24301,-0.0472 5.55902,-0.55856 0.316,-0.51131 1.673,-0.92965 3.01554,-0.92965 3.3153,0 3.09675,-1.81707 -0.30902,-2.56922 -1.5125,-0.33403 -5.675,-1.55657 -9.25,-2.71677 -7.32435,-2.37697 -6.61184,-2.19041 -13.94822,-3.652 -2.99652,-0.59698 -5.69652,-1.41837 -6,-1.82531 -0.65479,-0.87801 -4.46635,-2.80235 -8.30178,-4.19131 -1.7226,-0.62382 -2.75,-1.72626 -2.75,-2.95083 0,-1.7293 0.37437,-1.84758 3.2434,-1.02475 1.78387,0.5116 3.38542,0.93019 3.55902,0.93019 0.17359,0 -0.005,0.51953 -0.39791,1.15451 -0.44604,0.7217 -0.27389,0.8828 0.45922,0.42971 0.64501,-0.39864 2.68015,0.20683 4.52254,1.34549 1.84239,1.13866 3.89058,2.07029 4.55153,2.07029 1.46536,0 -4.6374,-7.558 -11.42818,-14.15328 -5.44605,-5.28928 -7.6364,-5.82945 -13.10849,-3.23278 -2.86326,1.35871 -3.40113,2.14009 -3.40113,4.94098 0,4.68562 -1.46796,5.04201 -3.98602,0.96771 -3.39702,-5.4965 -6.62795,-7.52263 -11.99583,-7.52263 -3.35247,0 -5.40551,0.60463 -7.11514,2.09542 -1.32166,1.15249 -3.64938,2.74363 -5.17273,3.53588 -1.52334,0.79225 -4.14342,3.33681 -5.82241,5.65458 -1.67898,2.31776 -3.35761,4.22587 -3.73028,4.24023 -1.67698,0.0646 -4.08347,2.29401 -6.56386,6.08077 -2.62243,4.00361 -6.09396,6.39312 -9.28807,6.39312 -0.86913,0 -4.40172,-1.38901 -7.8502,-3.08669 -5.52822,-2.72154 -6.47446,-3.62218 -7.99863,-7.61316 -1.07059,-2.80328 -1.35678,-4.76891 -0.75178,-5.16331 0.53729,-0.35026 1.21109,-1.76184 1.49732,-3.13684 0.28624,-1.375 0.85145,-3.2875 1.25602,-4.25 0.44377,-1.05575 0.29643,-1.75 -0.3714,-1.75 -0.60885,0 -1.10699,0.675 -1.10699,1.5 0,1.82163 -0.44918,1.86094 -3.00755,0.26321 -1.72558,-1.07764 -2.39724,-0.81996 -5.21977,2.00257 -2.9471,2.9471 -3.23935,3.79178 -3.23935,9.36261 l 0,6.12326 6.94309,6.2623 c 3.8187,3.44427 7.47753,6.05722 8.13074,5.80656 0.65321,-0.25066 1.79013,0.18921 2.5265,0.97749 1.43048,1.53134 3.80392,1.08408 10.86634,-2.04766 3.71334,-1.64664 17.63464,-11.73299 18.17817,-13.17056 0.81435,-2.15392 10.72018,-8.51488 14.31454,-9.19199 4.89361,-0.92187 8.17396,-0.24314 8.17396,1.69126 0,1.09111 -1.22123,1.40266 -4.97706,1.26973 -3.45604,-0.12232 -5.31632,0.28781 -6.08717,1.34202 -0.61057,0.83499 -2.04869,1.81606 -3.19584,2.18015 -1.14715,0.36409 -4.52042,3.12699 -7.49616,6.13977 -2.97574,3.01278 -5.87744,5.48037 -6.44821,5.48353 -0.57078,0.003 -2.59578,1.33746 -4.5,2.96511 -1.90423,1.62765 -4.18271,2.97765 -5.06329,3 -0.88058,0.0224 -3.7169,1.16564 -6.30291,2.54064 -2.58602,1.375 -5.69055,2.50231 -6.89894,2.50512 -1.2084,0.003 -3.9458,1.06366 -6.08311,2.35742 l -3.88601,2.3523 2.6688,0.51018 c 1.46784,0.28059 6.97516,0.37507 12.23849,0.20995 8.03533,-0.25208 10.42182,-0.73135 14.88432,-2.98917 2.92304,-1.47892 6.58942,-4.31843 8.14752,-6.31002 1.5581,-1.99159 3.7329,-4.56734 4.8329,-5.72389 2.98679,-3.14035 6.5,-8.19306 6.5,-9.34834 0,-0.5596 1.14811,-1.76971 2.55135,-2.68915 1.95991,-1.28419 2.8248,-1.39825 3.73098,-0.49207 0.90619,0.90619 0.31475,1.97198 -2.55135,4.59767 -2.05204,1.87992 -3.73098,3.82477 -3.73098,4.32188 0,1.18782 -17.12782,18.82801 -18.76234,19.3236 -1.63085,0.49448 -2.95837,16.27364 -1.52245,18.09611 0.554,0.70312 1.25687,2.90708 1.56194,4.89767 0.66436,4.33496 5.67317,17.24256 6.87396,17.71407 0.46689,0.18334 0.84889,1.17011 0.84889,2.19284 0,4.37068 10.09839,16.58537 20,24.19136 3.31863,2.54923 3.37537,2.69099 1.09501,2.73551 -2.29736,0.0449 -2.32819,0.13182 -0.68887,1.94325 1.32077,1.45943 1.41407,1.99791 0.40499,2.33738 -1.07057,0.36016 -1.061,0.74412 0.0522,2.0927 0.74982,0.90838 1.64982,1.48855 2,1.28925 0.35018,-0.1993 2.66169,-0.0257 5.13669,0.38584 7.62973,1.26858 16.08606,0.98684 26.01149,-0.86663 z m -20.62671,-7.90014 c -0.61337,-0.40408 -1.43119,-1.74719 -1.81739,-2.98469 -0.53585,-1.71705 -0.30556,-2.25 0.97221,-2.25 1.03451,0 1.46642,0.54193 1.1302,1.4181 -0.36099,0.94074 0.69701,1.93325 3.14301,2.94847 l 3.68719,1.53037 -3,0.0362 c -1.65,0.0199 -3.50185,-0.29439 -4.11522,-0.69847 z m -17.88478,-9.7897 c -9.23392,-10.4387 -15.96014,-21.1554 -15.22015,-24.24985 0.30122,-1.25963 0.71674,-0.93501 1.61733,1.2635 0.66658,1.62726 2.98741,5.55967 5.15739,8.73869 2.16999,3.17903 3.94543,6.12576 3.94543,6.54829 0,0.42252 1.52613,2.16886 3.3914,3.88074 3.79718,3.48493 7.2979,8.38243 5.97361,8.35708 -0.47576,-0.009 -2.66501,-2.05141 -4.86501,-4.53845 z m 13,0.55501 c -0.33992,-0.55 0.11008,-1 1,-1 0.88992,0 1.33992,0.45 1,1 -0.33992,0.55 -0.78992,1 -1,1 -0.21008,0 -0.66008,-0.45 -1,-1 z m -6.02897,-3.09129 c -0.36507,-1.15021 -2.15789,-2.71558 -3.98406,-3.4786 -4.32008,-1.80504 -6.337,-4.88737 -10.75107,-16.43011 -5.68886,-14.8763 -7.22022,-22.96461 -4.64878,-24.55384 0.59791,-0.36953 0.86504,-1.52109 0.59362,-2.55902 -0.31091,-1.18889 0.0269,-1.88714 0.91288,-1.88714 0.82309,0 1.40638,1.00894 1.40638,2.43269 0,3.66519 5.53877,16.70558 7.85602,18.49609 1.1184,0.86417 3.01197,4.72122 4.20793,8.57122 1.19596,3.85 2.74003,8.35 3.43125,10 1.32854,3.17131 2.83785,11.5 2.08401,11.5 -0.24444,0 -0.74312,-0.94108 -1.10818,-2.09129 z m -5.09904,-11.15871 c -1.26229,-7.09747 -2.48313,-10.63277 -4.87359,-14.11282 -1.37412,-2.00045 -3.6234,-5.27498 -4.9984,-7.27673 -3.2808,-4.77625 -3.15485,-3.18845 0.5,6.30305 1.65,4.28498 3,8.20396 3,8.70883 0,1.32717 5.36536,9.62376 6.225,9.62588 0.39875,9.9e-4 0.46489,-1.46071 0.14699,-3.24821 z m 24.62801,8.26334 c -0.825,-0.47797 -2.36275,-1.14126 -3.41722,-1.47397 -1.34169,-0.42334 -1.60132,-0.92083 -0.8649,-1.65725 1.28989,-1.28989 7.6635,1.69178 6.7558,3.16047 -0.67973,1.09983 -0.52162,1.1017 -2.47368,-0.0292 z m 2.71069,-4.51334 c -0.80426,-2.2472 -7.97159,-6.07482 -9.54936,-5.09971 -0.56272,0.34778 -1.30775,0.17182 -1.65561,-0.39104 -1.87316,-3.03083 8.86221,-1.6807 11.45242,1.44031 0.65746,0.79219 1.0318,2.47762 0.83187,3.7454 -0.34355,2.17841 -0.40285,2.19517 -1.07932,0.30504 z m -47.52392,-23.96265 c -2.58234,-8.56595 -4.01626,-20.53735 -2.45995,-20.53735 0.54118,0 1.25766,2.8125 1.59217,6.25 0.33451,3.4375 1.31849,8.93205 2.18663,12.21011 2.4051,9.08165 1.31183,10.80359 -1.31885,2.07724 z m -18.26328,-2.78735 c -0.61835,-2.02047 -0.57092,-3.75 0.10284,-3.75 0.46716,0 0.78158,0.9 0.69872,2 -0.12857,1.7067 -0.53994,2.60484 -0.80156,1.75 z m 33.65996,-12.39313 c -0.95241,-2.48193 0.0687,-2.81481 2.91457,-0.95013 2.30708,1.51166 2.71303,1.52507 4.10263,0.13546 1.76864,-1.76863 3.39935,-2.01686 3.39935,-0.51745 0,1.25863 -4.30308,2.97525 -7.45811,2.97525 -1.28035,0 -2.61165,-0.73941 -2.95844,-1.64313 z m 1.10364,-8.16159 c -3.41733,-3.56692 -3.50691,-7.42809 -0.22227,-9.58027 3.23474,-2.11948 5.11593,-2.03724 9.05263,0.39578 2.84165,1.75623 5.47181,6.98921 3.51286,6.98921 -0.38079,0 -1.29443,1.125 -2.03031,2.5 -1.90525,3.56 -6.74734,3.41693 -10.31291,-0.30472 z m 8.45506,-0.19528 c 0.53822,0 0.83892,-1.6875 0.66822,-3.75 -0.28475,-3.44047 -0.58402,-3.77627 -3.62569,-4.06823 -3.22703,-0.30976 -6.18468,1.11938 -6.18468,2.98842 0,1.67752 5.3411,5.9129 6.76669,5.36584 0.76829,-0.29481 1.83724,-0.53603 2.37546,-0.53603 z m -3.14215,-4.08333 c 0,-2.43705 2.33677,-2.09257 2.82332,0.4162 0.19138,0.98676 -0.31876,1.66713 -1.25,1.66713 -0.92763,0 -1.57332,-0.855 -1.57332,-2.08333 z m -12.50553,-2.92562 c -0.8666,-1.40219 0.35863,-4.84415 2.47925,-6.96477 0.97695,-0.97695 1.96217,-2.33394 2.18936,-3.01553 0.4572,-1.37158 5.22455,-2.18297 7.56016,-1.28671 0.98813,0.37918 -0.21295,1.38421 -3.54927,2.96989 -3.07375,1.46089 -5.06331,3.06238 -5.09526,4.10142 -0.12549,4.08048 -0.48973,5.20465 -1.68636,5.20465 -0.70087,0 -1.55492,-0.45403 -1.89788,-1.00895 z m 22.25553,-0.65333 c 0.6875,-0.27741 1.8125,-0.27741 2.5,0 0.6875,0.27741 0.125,0.50439 -1.25,0.50439 -1.375,0 -1.9375,-0.22698 -1.25,-0.50439 z m -2.48097,-5.03071 c 0.97297,-0.25354 2.32297,-0.23687 3,0.037 0.67703,0.27393 -0.11903,0.48137 -1.76903,0.46099 -1.65,-0.0204 -2.20394,-0.2445 -1.23097,-0.49804 z m 7.54347,0.01 c 0.72187,-0.28887 1.58437,-0.25335 1.91667,0.0789 0.33229,0.3323 -0.25834,0.56864 -1.3125,0.52522 -1.16495,-0.048 -1.4019,-0.28494 -0.60417,-0.60416 z m -32.30306,78.38067 c -0.81751,-3.13863 -2.16657,-7.33453 -2.99791,-9.32421 -1.61186,-3.85771 -2.08786,-11.84757 -0.653,-10.96078 0.4722,0.29183 1.10599,3.25948 1.40842,6.59477 0.30243,3.33529 1.22941,7.10125 2.05995,8.36881 0.83053,1.26756 2.07423,4.28897 2.76376,6.71425 0.76165,2.67893 1.41114,3.72276 1.65484,2.6596 0.56173,-2.45054 2.7413,-2.18039 4.03401,0.5 l 1.08513,2.25 0.0677,-2.25 c 0.0372,-1.2375 0.44891,-2.25 0.91487,-2.25 0.46595,0 1.33549,1.0125 1.93232,2.25 1.07156,2.22187 1.08598,2.21636 1.15281,-0.44098 0.0372,-1.48004 0.54699,-2.98722 1.13282,-3.34928 0.69725,-0.43092 0.47102,-1.31479 -0.65498,-2.55902 -2.05358,-2.26917 -3.85646,-2.50615 -3.04853,-0.40072 1.09211,2.84601 -0.0836,1.47686 -4.72288,-5.5 -2.56008,-3.85 -5.1011,-7 -5.64672,-7 -0.54564,-1.2e-4 -0.99205,-0.61171 -0.99205,-1.3592 0,-0.74749 -1.3443,-4.00999 -2.98733,-7.25 -1.64304,-3.24001 -2.99304,-6.42686 -3,-7.0819 -0.007,-0.65504 -0.5322,-1.51207 -1.16718,-1.90451 -0.7153,-0.44208 -0.88306,-0.27432 -0.44098,0.44098 0.39244,0.63498 0.27927,1.15451 -0.25149,1.15451 -2.27953,0 -4.41855,-9.74391 -4.90181,-22.32929 -0.29177,-7.59825 -0.85944,-12.46248 -1.39223,-11.92969 -2.97774,2.97774 -4.78719,35.65427 -2.30764,41.67302 0.55617,1.35001 0.44377,1.70098 -0.3814,1.19099 -0.64347,-0.39769 -1.16994,-1.59651 -1.16994,-2.66405 0,-1.06754 -0.39249,-1.94098 -0.87219,-1.94098 -0.47971,0 -1.1559,-1.77418 -1.50264,-3.94262 -0.9402,-5.87969 -2.62517,-6.05641 -2.62517,-0.27533 0,5.69146 2.31778,14.16879 4.20038,15.36295 1.98602,1.25977 3.07389,1.01211 2.46975,-0.56224 -0.55454,-1.44511 1.64623,-2.93307 2.7321,-1.84719 0.32878,0.32877 0.61663,1.76026 0.63969,3.1811 0.023,1.42083 0.90419,4.15833 1.95808,6.08333 2.30452,4.20934 2.49068,3.07208 0.58415,-3.5685 -0.77871,-2.71232 -1.71827,-6.844 -2.0879,-9.1815 -1.03165,-6.52412 1.1709,-5.20748 2.50929,1.5 2.09721,10.51037 3.14844,13.70964 6.08378,18.51502 1.60087,2.62077 2.91068,4.9697 2.91068,5.21987 0,0.91942 -7.55344,-4.65627 -9.19288,-6.78587 -0.93108,-1.20946 -2.27502,-2.19902 -2.98652,-2.19902 -0.71151,0 -1.89614,-1.25706 -2.63252,-2.79346 -0.98384,-2.05272 -1.83543,-2.63585 -3.21148,-2.19911 -1.38409,0.43929 -2.27749,-0.18861 -3.42461,-2.40688 -0.85359,-1.65068 -1.55199,-3.62944 -1.55199,-4.39725 0,-1.19495 -2.81491,-7.71475 -3.32324,-7.6972 -0.0972,0.003 -0.23347,2.04378 -0.30279,4.53427 -0.0729,2.61847 -0.81092,5.28497 -1.75,6.32264 -2.24754,2.48351 -2.06168,3.08844 1.31005,4.26383 1.61371,0.56254 3.64908,2.11414 4.52305,3.44798 0.87397,1.33385 2.0759,2.42518 2.67096,2.42518 0.59506,0 3.08224,1.35 5.52708,3 2.44483,1.65 4.7887,3 5.20859,3 0.4199,0 2.98484,1.08369 5.69987,2.40819 2.71504,1.32451 5.27299,2.09045 5.68434,1.70209 0.41135,-0.38836 0.079,-3.27408 -0.73847,-6.41272 z m -7.90245,-26.27935 c -1.09412,-2.85121 -0.63642,-3.83938 0.86121,-1.85934 0.8075,1.06762 1.4825,2.27863 1.5,2.69113 0.0593,1.39742 -1.75041,0.75992 -2.36121,-0.83179 z m -37.95006,29.97584 c 1.99482,-0.53515 2.1641,-1.24809 2.25239,-9.48634 0.0564,-5.26547 -0.3086,-8.90783 -0.89274,-8.90783 -0.54351,0 -2.20166,-1.83367 -3.68479,-4.07481 -2.28538,-3.45345 -2.69713,-5.14698 -2.70017,-11.1059 -0.004,-8.03901 -0.48949,-7.83489 -5.71249,2.40219 -2.61676,5.12885 -2.91546,6.68256 -2.88369,15 0.0409,10.70455 1.20348,13.63614 6.11244,15.41301 3.98982,1.44418 4.69222,1.51523 7.50905,0.75956 z m 101.18499,-9.84011 c 0.26927,-1.37585 -0.11121,-1.60325 -1.79064,-1.07021 -1.17292,0.37226 -4.47678,-0.008 -7.34192,-0.8457 -2.86515,-0.8374 -7.09562,-1.72719 -9.40105,-1.97731 l -4.19169,-0.45476 2.19169,3.38464 c 1.77503,2.74119 2.85707,3.40036 5.69169,3.46731 1.925,0.0455 4.4,0.43621 5.5,0.86832 2.69814,1.05992 8.9136,-1.18377 9.34192,-3.37229 z M 203.8042,630.9235 c 0.33404,-3.40797 -1.91091,-7.16385 -3.64235,-6.09376 -0.63343,0.39149 -1.1517,2.74153 -1.1517,5.22233 0,4.1056 0.20199,4.48184 2.25,4.19098 1.67858,-0.2384 2.32468,-1.08144 2.54405,-3.31955 z m 95.19538,1.01273 c 0.67888,-0.81799 0.92684,-2.28049 0.55103,-3.25 -0.6397,-1.65025 -0.77446,-1.63887 -2.11188,0.1784 -2.61974,3.55965 -1.18592,6.38126 1.56085,3.0716 z M 166.81173,625.6735 c 2.56175,-1.5125 5.51992,-3.2 6.57373,-3.75 1.0538,-0.55 2.26137,-1.94604 2.68348,-3.1023 0.74142,-2.03091 0.64309,-2.05787 -2.89565,-0.79389 -4.97664,1.77756 -5.46949,1.72775 -8.44818,-0.85381 -3.09345,-2.68103 -5.00438,-7.26275 -4.15081,-9.95212 0.53635,-1.6899 0.18761,-1.897 -2.72453,-1.61792 -2.87496,0.27551 -3.51165,0.84699 -4.57603,4.10734 -0.8036,2.46155 -0.97551,5.60017 -0.49109,8.96617 0.63017,4.37883 1.26884,5.53167 4.13429,7.4627 4.24151,2.85835 4.26594,2.8572 9.89479,-0.46617 z m 131.19823,-13.11337 c -1.1e-4,-0.35015 -2.25011,-0.77184 -5,-0.9371 -2.7499,-0.16526 -4.99981,0.0676 -4.99981,0.51744 0,0.44985 2.25,0.87155 5,0.9371 2.75,0.0656 4.99991,-0.1673 4.99981,-0.51744 z m -113.34128,-6.19682 c 3.44312,-5.2029 4.4468,-14.06095 1.91074,-16.86327 -2.53103,-2.79676 -12.13209,-3.78216 -14.64989,-1.50358 -2.90659,2.63043 -2.4448,6.80715 1.08062,9.77359 1.65,1.38838 3,2.8199 3,3.18116 0,0.36126 0.9,1.801 2,3.19942 1.1,1.39842 2,3.3819 2,4.40773 0,3.00091 1.77279,2.16559 4.65853,-2.19505 z m 113.18295,3.56834 c -1.09978,-1.09978 -10.67959,-1.5791 -11.30592,-0.56569 -0.4327,0.70013 1.45047,1.05754 5.57209,1.05754 3.42413,0 6.00435,-0.22133 5.73383,-0.49185 z m 66.22959,-13.50815 c 1.09624,0 3.48705,0.62418 5.3129,1.38707 5.6786,2.37267 10.89232,2.86568 13.11603,1.24024 1.78374,-1.30384 2.03612,-2.83502 2.33402,-14.16059 0.33956,-12.90901 -0.44603,-16.42871 -2.71895,-12.18173 -1.87993,3.51269 -6.6688,4.99714 -10.21123,3.16528 -1.5645,-0.80903 -3.32372,-2.36631 -3.90938,-3.46062 -0.72489,-1.35446 -2.09387,-1.98965 -4.2882,-1.98965 -2.98013,0 -3.43705,0.4679 -6.055,6.2004 -2.44168,5.34654 -2.74261,6.96465 -2.18521,11.75 0.35552,3.05228 1.11756,7.0471 1.6934,8.87737 l 1.04699,3.32777 1.93573,-2.07777 c 1.06466,-1.14277 2.83266,-2.07777 3.9289,-2.07777 z m -68.3419,0.39583 c -0.3323,-0.33229 -1.1948,-0.36781 -1.91667,-0.0789 -0.79773,0.31922 -0.56078,0.55618 0.60417,0.60416 1.05416,0.0434 1.64479,-0.19293 1.3125,-0.52522 z m -2.72917,-3.95893 c -3.56799,-0.78756 -10,-0.92477 -10,-0.21333 0,0.42704 2.5875,0.72423 5.75,0.66043 3.1625,-0.0638 5.075,-0.265 4.25,-0.4471 z m 1.5,-2.4369 c 0.36839,-0.59607 -0.71858,-0.95974 -2.69098,-0.90032 -3.11109,0.0937 -3.15948,0.14757 -0.80902,0.90032 1.375,0.44035 2.58594,0.8455 2.69098,0.90032 0.10504,0.0548 0.4691,-0.35032 0.80902,-0.90032 z m -8.25,-0.66228 c -0.6875,-0.27741 -1.8125,-0.27741 -2.5,0 -0.6875,0.27741 -0.125,0.50439 1.25,0.50439 1.375,0 1.9375,-0.22698 1.25,-0.50439 z m 4.47917,-1.94189 c -0.3323,-0.33229 -1.1948,-0.36781 -1.91667,-0.0789 -0.79773,0.31922 -0.56078,0.55618 0.60417,0.60416 1.05416,0.0434 1.64479,-0.19292 1.3125,-0.52522 z m 2,-2 c -0.3323,-0.33229 -1.1948,-0.36781 -1.91667,-0.0789 -0.79773,0.31922 -0.56078,0.55618 0.60417,0.60416 1.05416,0.0434 1.64479,-0.19292 1.3125,-0.52522 z m -9.05315,-3.79771 c -0.41152,-1.07242 0.20964,-1.29632 2.64302,-0.95269 1.74953,0.24705 3.74346,0.63877 4.43096,0.87049 0.6875,0.23172 1.25,-0.23957 1.25,-1.0473 0,-1.13242 -1.40901,-1.46862 -6.15499,-1.46862 -6.09164,0 -6.13636,0.0206 -4.34501,2 2.11982,2.34238 2.93091,2.56532 2.17602,0.59812 z m 11.32398,-7.35533 c 0,-0.41646 -2.1375,-0.62242 -4.75,-0.45768 -8.21716,0.51815 -8.99483,0.93759 -2,1.07871 3.7125,0.0749 6.75,-0.20456 6.75,-0.62103 z m -6,-4.80115 c -3.78655,-0.82384 -9,-0.96335 -9,-0.24084 0,0.43956 2.3625,0.747 5.25,0.6832 2.8875,-0.0638 4.575,-0.26286 3.75,-0.44236 z m -3.08333,-2.84765 c -0.93753,-0.91357 -6.91667,-1.35163 -6.91667,-0.50675 0,0.50202 1.65,0.91276 3.66667,0.91276 2.01666,0 3.47916,-0.18271 3.25,-0.40601 z m 81.08333,-5.56831 c 0,-2.97548 5.28067,-5.26794 11.2043,-4.86402 l 4.96195,0.33834 -0.6725,-10.48274 c -0.83038,-12.94379 -1.49052,-14.42805 -6.03761,-13.57501 -1.85441,0.34789 -4.42211,1.1782 -5.70599,1.84514 -4.68421,2.43331 -10.75015,7.92791 -10.75015,9.73762 0,1.02133 -0.45,2.13507 -1,2.47499 -0.55,0.33992 -1,3.22173 -1,6.40403 0,4.26304 0.46062,6.18726 1.75,7.3105 3.61403,3.14833 7.25,3.55513 7.25,0.81115 z m -81,-1.02568 c 0,-0.58852 -2.9832,-0.9382 -7.25,-0.84981 -6.63972,0.13756 -6.87121,0.20909 -2.75,0.84981 6.99994,1.08828 10,1.08828 10,0 z m 36.76199,-2.41474 c 1.28985,-1.12152 3.22697,-4.03255 4.30471,-6.46896 1.68742,-3.81469 1.76584,-4.65108 0.5647,-6.02307 -0.76716,-0.87627 -1.70339,-2.60573 -2.08051,-3.84323 -0.37711,-1.2375 -1.33034,-2.25 -2.11828,-2.25 -1.68114,0 -1.76683,0.50699 -0.48921,2.89424 1.19832,2.23909 -1.69807,7.26085 -5.64566,9.78846 -1.53876,0.98525 -3.3629,2.33022 -4.05366,2.98883 -0.69076,0.6586 -2.26008,1.51616 -3.48739,1.90569 -1.88278,0.59757 -1.37399,0.97978 3.25591,2.4459 5.78092,1.83059 6.03311,1.7934 9.74939,-1.43786 z m -147.81931,-1.01619 c 2.187,-2.63518 2.47908,-11.95476 0.54337,-17.33779 -2.23204,-6.20709 -1.4419,-9.67779 2.79079,-12.25856 3.66365,-2.23382 6.98536,-2.47448 11.66029,-0.84479 4.18591,1.45922 6.39365,-0.52136 6.4926,-5.82454 0.0578,-3.09803 0.5641,-4.00336 2.85545,-5.10598 3.71276,-1.78663 11.76244,-1.69388 20.06306,0.23116 9.8136,2.27593 22.24255,2.04588 30.44266,-0.56346 3.69001,-1.17418 7.1591,-2.46765 7.7091,-2.87436 0.55,-0.40672 2.35,-0.96633 4,-1.24359 1.65,-0.27726 5.25,-1.41629 8,-2.53118 16.05941,-6.51073 28.0029,-8.44362 38.46067,-6.22433 3.30956,0.70234 6.52742,1.89154 7.1508,2.64267 0.62338,0.75112 1.77567,1.36568 2.56063,1.36568 3.85223,0 7.42437,3.25471 10.18161,9.27682 1.74459,3.81039 4.1179,7.14255 6.12133,8.59445 2.92547,2.12011 3.66844,2.25251 7.01452,1.25 6.67313,-1.99931 7.63633,-1.60506 10.41177,4.26175 3.27583,6.92454 6.52121,8.25976 12.52715,5.15397 3.71228,-1.9197 4.42582,-4.06663 2.38614,-7.17957 -1.29696,-1.97941 -2.24685,-2.42097 -4.31725,-2.00689 -1.85986,0.37197 -3.15183,-0.05 -4.31611,-1.40982 -0.91393,-1.06739 -2.30843,-1.94071 -3.09889,-1.94071 -2.38661,0 -5.58237,-4.99983 -5.58237,-8.73373 0,-6.82804 -5.2589,-13.26627 -10.8362,-13.26627 -1.12058,0 -3.00281,-1.36954 -4.20761,-3.06153 -2.73332,-3.83859 -7.07068,-11.93847 -6.39287,-11.93847 0.27888,0 -0.0302,-1.0125 -0.68684,-2.25 -1.41043,-2.65812 -4.23479,-4.81431 -8.37648,-6.39485 -1.65,-0.62966 -5.475,-2.16067 -8.5,-3.40223 -4.97958,-2.0438 -7.15587,-2.25952 -23,-2.27983 -12.69802,-0.0163 -18.17954,0.3428 -19.97647,1.30862 -1.36207,0.73209 -3.83707,1.67632 -5.5,2.0983 -1.66294,0.42198 -6.84853,2.17939 -11.52353,3.90535 -4.675,1.72596 -9.625,3.36923 -11,3.6517 -1.375,0.28247 -3.4,0.9142 -4.5,1.40385 -6.72696,2.99435 -15.28201,4.1385 -26,3.47722 -13.87255,-0.8559 -19.14736,0.29396 -22.27281,4.85526 -2.73798,3.99582 -2.76863,5.12283 -0.22719,8.35374 2.09021,2.65728 2.88316,11.27287 1.03751,11.27287 -0.52937,0 -3.50245,-0.95032 -6.60685,-2.11183 -6.41256,-2.39924 -9.12408,-1.8119 -12.01681,2.60297 -1.46141,2.23039 -1.56799,3.7971 -0.78221,11.4989 1.04047,10.19814 0.36973,12.00996 -4.44608,12.00996 -2.50539,0 -3.76846,-0.88338 -6.63975,-4.6438 l -3.54581,-4.64381 0,12.56225 0,12.56224 3.73587,2.33156 c 6.91651,4.31659 7.75051,4.63517 12.39168,4.73351 2.89739,0.0614 5.07157,-0.43695 5.81513,-1.33288 z m 56.58927,-48.46841 c -0.77112,-2.42959 -4.3107,-2.8408 -5.17032,-0.60066 -0.31659,0.825 -0.9256,1.5 -1.35336,1.5 -0.64017,0 2.604,-10.53173 3.67078,-11.91667 0.59866,-0.77719 1.39601,0.65026 3.35122,5.99948 1.14136,3.12264 1.58087,5.70605 1.05946,6.22746 -0.52141,0.52141 -1.16764,0.0196 -1.55778,-1.20961 z m -18.08853,-3.85066 c 0.90302,-6.39722 1.50556,-8.25 2.68299,-8.25 0.54539,0 0.70019,0.47155 0.34399,1.04789 -0.35619,0.57634 -0.39978,1.69375 -0.0969,2.48314 0.67059,1.74753 3.62647,0.81995 3.62647,-1.13802 0,-0.76616 0.50248,-1.39301 1.11663,-1.39301 0.66998,0 0.87544,0.89999 0.51366,2.25 -0.33164,1.2375 -0.60913,3.7125 -0.61664,5.5 -0.008,1.7875 -0.46365,3.25 -1.01365,3.25 -0.55,0 -1,-1.158 -1,-2.57332 0,-3.63125 -3.38648,-2.89309 -3.81642,0.83187 -0.17404,1.5078 -0.78763,2.74145 -1.36355,2.74145 -0.67663,0 -0.80989,-1.68061 -0.37661,-4.75 z m 26.8015,2.5 c 0.0668,-1.2375 0.039,-3.53628 -0.0617,-5.10841 -0.16159,-2.52152 -0.47783,-2.78445 -2.68318,-2.23095 -1.375,0.34511 -2.5,0.19545 -2.5,-0.33257 0,-1.42102 1.20956,-1.93891 6.09538,-2.60981 3.92127,-0.53846 4.21258,-0.44807 2.65462,0.8237 -1.25439,1.02396 -1.75,2.88414 -1.75,6.56828 0,2.82687 -0.42222,5.13976 -0.93826,5.13976 -0.51605,0 -0.88362,-1.0125 -0.81682,-2.25 z m -39.12661,-6.5 c 0.0901,-4.3803 0.27375,-5.03537 0.77082,-2.75 0.51849,2.3839 1.11029,2.93575 2.88168,2.68714 1.22605,-0.17207 2.22919,0.16543 2.22919,0.75 0,2.40493 1.80409,0.83027 2.5058,-2.18714 1.00741,-4.33192 1.93386,-0.90713 1.04144,3.84986 -0.45555,2.42832 -1.17273,3.40014 -2.50922,3.40014 -1.02924,0 -2.13385,-0.5625 -2.45469,-1.25 -0.46666,-1 -0.7,-1 -1.16666,0 -0.32084,0.6875 -1.22084,1.25 -2,1.25 -1.07169,0 -1.38786,-1.4002 -1.29836,-5.75 z m 51.54836,5.08333 c -1.37765,-1.37765 -0.59258,-2.54722 1.36602,-2.03503 1.43131,0.37429 2.52432,-0.21877 3.69444,-2.0046 1.56378,-2.38663 1.55349,-2.61534 -0.17449,-3.87887 -1.00995,-0.73849 -2.28697,-1.49294 -2.83785,-1.67657 -1.72262,-0.5742 1.19538,-4.73826 3.32039,-4.73826 2.67348,0 2.48634,1.60821 -0.28518,2.45067 -2.20805,0.67118 -2.19873,0.70287 0.5,1.69997 2.08448,0.77014 2.75,1.6797 2.75,3.75838 0,4.26995 -5.92218,8.83547 -8.33333,6.42431 z m 58.33333,-7.89235 c 0,-0.85746 0.45734,-1.27636 1.01631,-0.9309 0.55897,0.34547 0.75742,1.04702 0.44098,1.55902 -0.85723,1.38704 -1.45729,1.12841 -1.45729,-0.62812 z m -63,-1.38196 c 0,-1.13246 0.45,-2.05902 1,-2.05902 0.55,0 1,0.64844 1,1.44098 0,0.79254 -0.45,1.7191 -1,2.05902 -0.55,0.33992 -1,-0.30852 -1,-1.44098 z m 24.12163,-2.13767 c -2.08627,-0.83497 -2.30493,-1.41054 -1.78041,-4.68661 0.67431,-4.21168 3.71192,-7.23474 7.26956,-7.23474 3.39549,0 2.9632,1.6352 -0.62184,2.35221 -5.24868,1.04974 -6.92753,9.20408 -1.74341,8.46793 1.23996,-0.17608 2.25447,-0.89905 2.25447,-1.60661 0,-0.70756 0.675,-1.71317 1.5,-2.23469 1.9808,-1.25215 5,-1.23937 5,0.0212 0,0.55 -0.9,1 -2,1 -1.1,0 -2,0.65916 -2,1.46481 0,1.40157 -2.97267,3.6048 -4.68426,3.4718 -0.44866,-0.0349 -1.886,-0.49173 -3.19411,-1.01526 z m 15.31386,-2.17135 c 0.36781,-1.2375 0.92954,-3.9375 1.2483,-6 0.67329,-4.35656 2.04176,-4.94621 2.49979,-1.07712 0.45646,3.8558 2.70679,4.12528 3.44923,0.41306 0.6072,-3.03601 2.36719,-4.34758 2.36719,-1.76408 0,2.38013 -3.16665,10.67814 -4.07495,10.67814 -0.48782,0 -1.19667,-1.23404 -1.57522,-2.74232 l -0.68828,-2.74232 -0.91411,2.74232 c -1.09955,3.29865 -3.28434,3.76389 -2.31195,0.49232 z m 25.716,0.75 c -0.14353,-2.375 0.6659,-3.6231 3.28899,-5.07144 3.08563,-1.70374 3.05688,-3.42856 -0.0572,-3.42856 -2.00039,0 -2.47822,-0.30511 -1.69867,-1.08467 1.62629,-1.62628 5.74412,-0.6817 6.14278,1.40907 0.43107,2.26075 -2.52487,5.6756 -4.91288,5.6756 -1.04614,0 -1.95348,0.92424 -2.20883,2.25 -0.37377,1.94058 -0.44999,1.97496 -0.55424,0.25 z m -10.95149,-0.7 c -1.36984,-1.36984 -1.46585,-5.35421 -0.2,-8.3 0.66561,-1.54896 0.87528,-1.04154 0.92971,2.25 0.0387,2.3375 0.32743,4.25 0.64172,4.25 1.22372,0 3.36121,-2.88342 3.98761,-5.3792 0.77523,-3.08878 2.44096,-3.50285 2.44096,-0.60678 0,2.3997 -4.05493,8.95598 -5.55,8.9736 -0.5775,0.007 -1.59,-0.52762 -2.25,-1.18762 z m -75.7,57.2 c 0.33992,-0.55 -0.057,-1 -0.88197,-1 -0.825,0 -1.77811,0.45 -2.11803,1 -0.33992,0.55 0.057,1 0.88197,1 0.825,0 1.77811,-0.45 2.11803,-1 z m 0.14098,-3 c 1.78254,0 3.55759,-0.51228 3.94456,-1.13841 0.50581,-0.81841 -0.39117,-0.94397 -3.19098,-0.44668 -6.0588,1.07612 -7.47399,1.64756 -6.79621,2.74422 0.41805,0.67642 0.99012,0.6524 1.71452,-0.072 0.59792,-0.59792 2.54557,-1.08713 4.32811,-1.08713 z m 1.60902,-4.66228 c -0.6875,-0.27741 -1.8125,-0.27741 -2.5,0 -0.6875,0.27741 -0.125,0.50439 1.25,0.50439 1.375,0 1.9375,-0.22698 1.25,-0.50439 z m 7.4805,-1.94056 c -0.17481,-0.17481 -1.34873,-0.0482 -2.60871,0.28124 -1.6603,0.43418 -1.93276,0.82039 -0.98986,1.40313 1.1363,0.70228 4.43922,-0.84371 3.59857,-1.68437 z m -29.7305,-6.83814 c 0,-0.24254 -0.45,-0.7191 -1,-1.05902 -0.55,-0.33992 -1,-0.14148 -1,0.44098 0,0.58246 0.45,1.05902 1,1.05902 0.55,0 1,-0.19844 1,-0.44098 z m 157.3359,-14.82872 c -0.77515,-4.13048 -4.30114,-12.09839 -5.03089,-11.36864 -0.30598,0.30598 0.0272,4.14942 0.74036,8.54098 1.16901,7.19852 1.47391,7.88982 3.09672,7.02132 1.38966,-0.74373 1.66183,-1.69979 1.19381,-4.19366 z" id="path3010" style="fill:#000000"/>
  </g>
</svg>