<?xml version="1.0" encoding="UTF-8" standalone="no"?>
<!-- Created with Inkscape (http://www.inkscape.org/) -->
<svg xmlns:dc="http://purl.org/dc/elements/1.1/" xmlns:cc="http://creativecommons.org/ns#" xmlns:rdf="http://www.w3.org/1999/02/22-rdf-syntax-ns#" xmlns:svg="http://www.w3.org/2000/svg" xmlns="http://www.w3.org/2000/svg" xmlns:sodipodi="http://sodipodi.sourceforge.net/DTD/sodipodi-0.dtd" xmlns:inkscape="http://www.inkscape.org/namespaces/inkscape" width="1379.5876" height="1394.6115" id="svg4187" version="1.1" inkscape:version="0.48.3.1 r9886" sodipodi:docname="together.svg" inkscape:export-filename="/home/vg/project/gnupinguiton/2d/together-color.png" inkscape:export-xdpi="200" inkscape:export-ydpi="200">
  <defs id="defs4189"/>
  <sodipodi:namedview id="base" pagecolor="#ffffff" bordercolor="#666666" borderopacity="1.0" inkscape:pageopacity="0.0" inkscape:pageshadow="2" inkscape:zoom="0.39648438" inkscape:cx="798.68545" inkscape:cy="662.51232" inkscape:document-units="px" inkscape:current-layer="g4357" showgrid="false" inkscape:window-width="1280" inkscape:window-height="760" inkscape:window-x="0" inkscape:window-y="0" inkscape:window-maximized="1" fit-margin-top="100" fit-margin-left="100" fit-margin-right="100" fit-margin-bottom="100"/>
  <metadata id="metadata4192">
    <rdf:RDF>
      <cc:Work rdf:about="">
        <dc:format>image/svg+xml</dc:format>
        <dc:type rdf:resource="http://purl.org/dc/dcmitype/StillImage"/>
        <dc:title/>
      </cc:Work>
    </rdf:RDF>
  </metadata>
  <g inkscape:label="Layer 1" inkscape:groupmode="layer" id="layer1" transform="translate(-241.05969,331.65161)">
    <path style="color:#000000;fill:#e4b757;fill-opacity:1;fill-rule:nonzero;stroke:#000000;stroke-width:20;stroke-linecap:round;stroke-linejoin:round;stroke-miterlimit:4;stroke-opacity:1;stroke-dashoffset:0;marker:none;visibility:visible;display:inline;overflow:visible;enable-background:accumulate" d="m 684.40345,72.969389 c -60.6848,0 -115.3647,24.3129 -147.4375,61.249991 l -161.5,121.875 c -7.19434,3.0421 -13.46818,8.269 -17.78125,14.7812 -4.31318,6.5123 -6.631,14.2828 -6.625,22.0938 0.006,7.811 2.3641,15.6196 6.6875,22.125 4.3234,6.5054 10.58218,11.688 17.78125,14.7188 l 172.625,81.25 c 6.3159,3.6465 9.1832,12.2945 12.625,27.125 l 23.4375,401.1874 c 0.4539,11.0707 8.92,20 20,20 l 36.6875,0 c 11.08,0 19.274,-8.9438 20,-20 l 23.3594,-344.0314 c 1.2055,0.028 31.9531,344.031 31.9531,344.031 1.0219,11.0328 8.92,20 20,20 l 36.6875,0 c 11.08,0 19.8145,-8.9215 20,-20 l 13.5625,-390.5624 c 5.9158,-29.0161 3.7429,-52.9734 11.8125,-82.9688 0.6311,0.1421 1.2684,0.2649 1.9062,0.375 10.5285,1.8175 21.7438,-0.7967 30.375,-7.0938 l 152.99995,-114 c 6.4512,-4.4038 11.559,-10.7325 14.5,-17.9687 2.9412,-7.2362 3.706,-15.3442 2.1563,-23 -1.5497,-7.6558 -5.4137,-14.8523 -10.9375,-20.375 -5.5237,-5.5227 -12.68768,-9.358 -20.34378,-10.9063 L 790.96595,95.281489 c -2.6068,-0.5657 -5.2703,-0.8698 -7.9375,-0.9063 -1.3771,-0.022 -2.7542,0.033 -4.125,0.1563 -27.4133,-13.6448 -59.8908,-21.5625 -94.5,-21.5625 z m 175.1875,124.281191 58.5,16.3126 -72.6563,51.3124 0.2188,-0.8437 c 9.4141,-16.7272 14.6562,-35.1651 14.6562,-54.5313 0,-4.1326 -0.2518,-8.2123 -0.7187,-12.25 z m -346.78125,46.1563 c 2.60943,7.7654 6.08641,15.2575 10.34375,22.4375 0.007,0.012 0.024,0.019 0.0312,0.031 l 15.125,53.5 -85.3125,-37.5 z" id="path3853" inkscape:connector-curvature="0" sodipodi:nodetypes="cccscsccccsscccsscccscccssccccsccccscccccccc"/>
    <rect inkscape:transform-center-x="-0.5711122" transform="matrix(0.99997388,-0.00722739,-0.00722739,-0.99997388,0,0)" inkscape:transform-center-y="125.1664" ry="20" rx="20" y="-897.87415" x="542.65314" height="99.516357" width="121.97871" id="rect3860" style="color:#000000;fill:#2a1f07;fill-opacity:1;fill-rule:nonzero;stroke:#000000;stroke-width:20;stroke-linecap:round;stroke-linejoin:round;stroke-miterlimit:4;stroke-opacity:1;stroke-dasharray:none;stroke-dashoffset:0;marker:none;visibility:visible;display:inline;overflow:visible;enable-background:accumulate"/>
    <rect style="color:#000000;fill:#2a1f07;fill-opacity:1;fill-rule:nonzero;stroke:#000000;stroke-width:20;stroke-linecap:round;stroke-linejoin:round;stroke-miterlimit:4;stroke-opacity:1;stroke-dasharray:none;stroke-dashoffset:0;marker:none;visibility:visible;display:inline;overflow:visible;enable-background:accumulate" id="rect3862" width="121.97871" height="99.516357" x="708.64874" y="-899.07385" rx="20" ry="20" inkscape:transform-center-y="125.1664" transform="matrix(0.99997388,-0.00722739,-0.00722739,-0.99997388,0,0)" inkscape:transform-center-x="-0.5711122"/>
    <path sodipodi:nodetypes="cssccc" inkscape:connector-curvature="0" id="path4084" d="m 386.75064,183.72528 c 47.17723,5.7731 132.51087,-98.867191 176.56487,-85.568791 96.0832,29.004091 130.23361,97.224191 216.56366,-20.8647 30.25201,-41.381 96.13692,31.617201 143.19307,6.6032 C 882.12623,212.48838 767.75082,614.96688 494.32219,675.83958 642.87748,550.00998 519.02147,264.12078 386.75064,183.72528 z" inkscape:transform-center-y="26.187102" inkscape:transform-center-x="18.269243" style="color:#000000;fill:#1ca823;fill-opacity:1;fill-rule:nonzero;stroke:#000000;stroke-width:20;stroke-linecap:round;stroke-linejoin:round;stroke-miterlimit:4;stroke-opacity:1;stroke-dashoffset:0;marker:none;visibility:visible;display:inline;overflow:visible;enable-background:accumulate"/>
    <g id="g3836" transform="translate(-466.97153,-85.267815)">
      <path sodipodi:nodetypes="ssccsccss" inkscape:connector-curvature="0" id="path2985" transform="translate(0,-947.63782)" d="m 1151.0625,854.3125 c -71.2148,0 -131.1563,66.72269 -131.1563,137.9375 0,29.9358 10.5885,55.8941 28.1563,75.9375 l 12.2066,115.7692 c -20.1773,67.1703 47.784,86.9207 90.7613,86.9207 42.9774,0 102.4565,-21.0097 91.1067,-93.2241 l 10.9567,-108.6221 c 17.9525,-20.1572 28.8124,-46.4195 28.8124,-76.7812 0,-71.21481 -59.6289,-137.9375 -130.8437,-137.9375 z" style="color:#000000;fill:#e4b757;fill-opacity:1;fill-rule:nonzero;stroke:#000000;stroke-width:20;stroke-linecap:round;stroke-linejoin:round;stroke-miterlimit:4;stroke-opacity:1;stroke-dashoffset:0;marker:none;visibility:visible;display:inline;overflow:visible;enable-background:accumulate"/>
      <path inkscape:connector-curvature="0" id="path3762" d="m 1060.5714,116.0076 c 0,12.18826 -9.8806,22.0689 -22.0689,22.0689 -12.1884,0 -22.069,-9.88064 -22.069,-22.0689 0,-12.1884 9.8806,-22.069041 22.069,-22.069041 12.1883,0 22.0689,9.880641 22.0689,22.069041 z" style="color:#000000;fill:#000000;fill-opacity:1;fill-rule:nonzero;stroke:#000000;stroke-width:20;stroke-linecap:round;stroke-linejoin:round;stroke-miterlimit:4;stroke-opacity:1;stroke-dashoffset:0;marker:none;visibility:visible;display:inline;overflow:visible;enable-background:accumulate"/>
      <path style="color:#000000;fill:#000000;fill-opacity:1;fill-rule:nonzero;stroke:#000000;stroke-width:20;stroke-linecap:round;stroke-linejoin:round;stroke-miterlimit:4;stroke-opacity:1;stroke-dashoffset:0;marker:none;visibility:visible;display:inline;overflow:visible;enable-background:accumulate" d="m 1278.7389,116.0076 c 0,12.18826 -9.8806,22.0689 -22.0689,22.0689 -12.1884,0 -22.069,-9.88064 -22.069,-22.0689 0,-12.1884 9.8806,-22.069041 22.069,-22.069041 12.1883,0 22.0689,9.880641 22.0689,22.069041 z" id="path3767" inkscape:connector-curvature="0"/>
      <path style="color:#000000;fill:#ffffff;fill-opacity:1;fill-rule:nonzero;stroke:none;stroke-width:19.99999809;marker:none;visibility:visible;display:inline;overflow:visible;enable-background:accumulate" d="m 1037.8719,106.54943 c 0,4.8753 -3.9522,8.82756 -8.8276,8.82756 -4.8754,0 -8.8276,-3.95226 -8.8276,-8.82756 0,-4.87536 3.9522,-8.82762 8.8276,-8.82762 4.8754,0 8.8276,3.95226 8.8276,8.82762 z" id="path3769" inkscape:connector-curvature="0"/>
      <path inkscape:connector-curvature="0" id="path3771" d="m 1259.8226,106.54943 c 0,4.8753 -3.9522,8.82756 -8.8276,8.82756 -4.8754,0 -8.8276,-3.95226 -8.8276,-8.82756 0,-4.87536 3.9522,-8.82762 8.8276,-8.82762 4.8754,0 8.8276,3.95226 8.8276,8.82762 z" style="color:#000000;fill:#ffffff;fill-opacity:1;fill-rule:nonzero;stroke:none;stroke-width:19.99999809;marker:none;visibility:visible;display:inline;overflow:visible;enable-background:accumulate"/>
      <path inkscape:transform-center-y="-34.838492" inkscape:transform-center-x="15.875244" inkscape:connector-curvature="0" id="path3773" d="m 1057.6181,73.536004 c -6.3407,-1.070328 -66.19848,22.184274 -66.19848,22.184274" style="color:#000000;fill:#ffffff;fill-opacity:1;fill-rule:nonzero;stroke:#000000;stroke-width:20;stroke-opacity:1;marker:none;visibility:visible;display:inline;overflow:visible;enable-background:accumulate"/>
      <path style="color:#000000;fill:#ffffff;fill-opacity:1;fill-rule:nonzero;stroke:#000000;stroke-width:20;stroke-opacity:1;marker:none;visibility:visible;display:inline;overflow:visible;enable-background:accumulate" d="m 1233.4117,74.929193 c 6.2447,-1.534396 67.6525,17.248666 67.6525,17.248666" id="path3775" inkscape:connector-curvature="0" inkscape:transform-center-x="-13.267689" inkscape:transform-center-y="-35.939754"/>
      <g transform="translate(-19.499885,0)" id="g3805" style="fill:#2a1f07;fill-opacity:1">
        <path style="font-size:medium;font-style:normal;font-variant:normal;font-weight:normal;font-stretch:normal;text-indent:0;text-align:start;text-decoration:none;line-height:normal;letter-spacing:normal;word-spacing:normal;text-transform:none;direction:ltr;block-progression:tb;writing-mode:lr-tb;text-anchor:start;baseline-shift:baseline;color:#000000;fill:#2a1f07;fill-opacity:1;stroke:#000000;stroke-width:20;stroke-miterlimit:4;stroke-opacity:1;stroke-dasharray:none;marker:none;visibility:visible;display:inline;overflow:visible;enable-background:accumulate;font-family:Sans;-inkscape-font-specification:Sans" d="m 1130.2188,-136.375 c -57.865,-0.62068 -99.5013,31.72974 -122.75,55.125 -11.62443,11.69763 -20.34982,21.191299 -25.93755,25.8125 -5.58773,4.621201 -5.79662,3.96737 -5.8125,3.96875 -26.24325,2.27971 -52.3125,-18.3125 -52.3125,-18.3125 A 50.012328,50.012328 0 1 0 855.9375,4.0625 c 0,0 52.02877,50.73126 128.4375,44.09375 25.6471,-2.22792 46.583,-14.711349 60.875,-26.53125 14.292,-11.819901 24.1779,-23.371371 33.1562,-32.40625 17.9567,-18.069758 25.4815,-25.86479 50.75,-25.59375 a 50.005,50.005 0 1 0 1.0626,-100 z" id="path3793" inkscape:connector-curvature="0"/>
        <path style="font-size:medium;font-style:normal;font-variant:normal;font-weight:normal;font-stretch:normal;text-indent:0;text-align:start;text-decoration:none;line-height:normal;letter-spacing:normal;word-spacing:normal;text-transform:none;direction:ltr;block-progression:tb;writing-mode:lr-tb;text-anchor:start;baseline-shift:baseline;color:#000000;fill:#2a1f07;fill-opacity:1;stroke:#000000;stroke-width:20;stroke-miterlimit:4;stroke-opacity:1;stroke-dasharray:none;marker:none;visibility:visible;display:inline;overflow:visible;enable-background:accumulate;font-family:Sans;-inkscape-font-specification:Sans" d="m 1210.2005,-136.375 a 50.005,50.005 0 1 0 1.0626,100 c 25.2685,-0.27104 32.7933,7.523985 50.75,25.59375 8.9783,9.0348823 18.8641,20.586349 33.1562,32.40625 14.2921,11.819901 35.2279,24.303333 60.875,26.53125 76.4087,6.637508 128.4062,-44.09375 128.4062,-44.09375 a 50.005,50.005 0 1 0 -67.4374,-73.84375 c 0,0 -26.0693,20.592212 -52.3126,18.3125 -0.016,-0.0014 -0.2247,0.652451 -5.8124,-3.96875 -5.5878,-4.621201 -14.3132,-14.114873 -25.9376,-25.8125 -23.2487,-23.39525 -64.885,-55.74568 -122.75,-55.125 z" id="path3795" inkscape:connector-curvature="0"/>
      </g>
      <path sodipodi:nodetypes="scccccccs" inkscape:connector-curvature="0" id="path3777" d="m 1150.9217,-101.53173 c -19.4531,0 -35.25,15.765637 -35.25,35.218747 -0.867,42.2384 -1.3834,25.86582 0,65.0937499 0,10.60599 4.7086,20.1362701 12.125,26.5937501 35.5262,29.805711 -4.709,47.649101 -9.4312,71.09981 39.4365,-17.274277 72.109,-36.90128 57.5875,-72.94356 6.2909,-6.36255 10.1875,-15.0955901 10.1875,-24.7500001 0.8667,-42.2197459 1.3841,-25.8410129 0,-65.0937499 0,-19.45311 -15.7657,-35.218747 -35.2188,-35.218747 z" style="color:#000000;fill:#997019;fill-opacity:1;fill-rule:nonzero;stroke:#000000;stroke-width:20;stroke-linecap:round;stroke-linejoin:round;stroke-miterlimit:4;stroke-opacity:1;stroke-dashoffset:0;marker:none;visibility:visible;display:inline;overflow:visible;enable-background:accumulate"/>
      <path sodipodi:type="arc" style="color:#000000;fill:#000000;fill-opacity:1;fill-rule:nonzero;stroke:none;stroke-width:20;marker:none;visibility:visible;display:inline;overflow:visible;enable-background:accumulate" id="path4002" sodipodi:cx="1141" sodipodi:cy="1228" sodipodi:rx="13" sodipodi:ry="13" d="m 1154,1228 c 0,7.1797 -5.8203,13 -13,13 -7.1797,0 -13,-5.8203 -13,-13 0,-7.1797 5.8203,-13 13,-13 7.1797,0 13,5.8203 13,13 z" transform="matrix(2.2692307,0,0,1,-1461.6923,-926.63782)"/>
      <path transform="matrix(1.7307692,0,0,1,-859.30769,-976.63782)" d="m 1154,1228 c 0,7.1797 -5.8203,13 -13,13 -7.1797,0 -13,-5.8203 -13,-13 0,-7.1797 5.8203,-13 13,-13 7.1797,0 13,5.8203 13,13 z" sodipodi:ry="13" sodipodi:rx="13" sodipodi:cy="1228" sodipodi:cx="1141" id="path4004" style="color:#000000;fill:#000000;fill-opacity:1;fill-rule:nonzero;stroke:none;stroke-width:20;marker:none;visibility:visible;display:inline;overflow:visible;enable-background:accumulate" sodipodi:type="arc"/>
      <path sodipodi:type="arc" style="color:#000000;fill:#000000;fill-opacity:1;fill-rule:nonzero;stroke:none;stroke-width:20;marker:none;visibility:visible;display:inline;overflow:visible;enable-background:accumulate" id="path4006" sodipodi:cx="1141" sodipodi:cy="1228" sodipodi:rx="13" sodipodi:ry="13" d="m 1154,1228 c 0,7.1797 -5.8203,13 -13,13 -7.1797,0 -13,-5.8203 -13,-13 0,-7.1797 5.8203,-13 13,-13 7.1797,0 13,5.8203 13,13 z" transform="matrix(1.7307692,0,0,1,-801.30769,-976.63782)"/>
    </g>
    <g id="g3911" transform="translate(-1014.9716,13.732189)">
      <rect style="color:#000000;fill:#fff93c;fill-opacity:1;fill-rule:nonzero;stroke:#000000;stroke-width:20;stroke-linecap:round;stroke-linejoin:round;stroke-miterlimit:4;stroke-opacity:1;stroke-dasharray:none;stroke-dashoffset:0;marker:none;visibility:visible;display:inline;overflow:visible;enable-background:accumulate" id="rect3903" width="50" height="120" x="1754" y="228.36218" rx="25" ry="14.857142"/>
      <rect ry="18.323809" rx="25" y="228.36218" x="1714" height="148" width="50" id="rect3901" style="color:#000000;fill:#fff93c;fill-opacity:1;fill-rule:nonzero;stroke:#000000;stroke-width:20;stroke-linecap:round;stroke-linejoin:round;stroke-miterlimit:4;stroke-opacity:1;stroke-dasharray:none;stroke-dashoffset:0;marker:none;visibility:visible;display:inline;overflow:visible;enable-background:accumulate"/>
      <rect style="color:#000000;fill:#fff93c;fill-opacity:1;fill-rule:nonzero;stroke:#000000;stroke-width:20;stroke-linecap:round;stroke-linejoin:round;stroke-miterlimit:4;stroke-opacity:1;stroke-dasharray:none;stroke-dashoffset:0;marker:none;visibility:visible;display:inline;overflow:visible;enable-background:accumulate" id="rect3899" width="50" height="176" x="1668" y="228.36218" rx="25" ry="21.790476"/>
      <rect ry="26" rx="25" y="228.36218" x="1622" height="210" width="50" id="rect3893" style="color:#000000;fill:#fff93c;fill-opacity:1;fill-rule:nonzero;stroke:#000000;stroke-width:20;stroke-linecap:round;stroke-linejoin:round;stroke-miterlimit:4;stroke-opacity:1;stroke-dasharray:none;stroke-dashoffset:0;marker:none;visibility:visible;display:inline;overflow:visible;enable-background:accumulate"/>
      <path transform="translate(0,-947.63782)" inkscape:connector-curvature="0" id="path3907" d="m 1624,1226 182,0" style="color:#000000;fill:#ffffff;fill-opacity:1;fill-rule:nonzero;stroke:#a81c1c;stroke-width:20;stroke-linecap:round;stroke-linejoin:round;stroke-miterlimit:4;stroke-opacity:1;stroke-dasharray:none;stroke-dashoffset:0;marker:none;visibility:visible;display:inline;overflow:visible;enable-background:accumulate"/>
      <path transform="translate(0,-947.63782)" inkscape:connector-curvature="0" id="path3909" d="m 1624,1282 178,0" style="color:#000000;fill:#ffffff;fill-opacity:1;fill-rule:nonzero;stroke:#185f1b;stroke-width:20;stroke-linecap:round;stroke-linejoin:round;stroke-miterlimit:4;stroke-opacity:1;stroke-dasharray:none;stroke-dashoffset:0;marker:none;visibility:visible;display:inline;overflow:visible;enable-background:accumulate"/>
    </g>
    <rect style="color:#000000;fill:#2a1f07;fill-opacity:1;fill-rule:nonzero;stroke:#000000;stroke-width:20;stroke-linecap:round;stroke-linejoin:round;stroke-miterlimit:4;stroke-opacity:1;stroke-dasharray:none;stroke-dashoffset:0;marker:none;visibility:visible;display:inline;overflow:visible;enable-background:accumulate" id="rect3959" width="101.95024" height="95.661003" x="509.45444" y="-417.6217" rx="20" ry="20" inkscape:transform-center-y="125.16641" transform="matrix(0.99997388,-0.00722739,-0.00722739,-0.99997388,0,0)" inkscape:transform-center-x="-0.57110519"/>
    <rect inkscape:transform-center-x="0.57108466" transform="matrix(-0.99997388,-0.00722739,0.00722739,-0.99997388,0,0)" inkscape:transform-center-y="125.16642" ry="20" rx="20" y="-367.71066" x="-861.69891" height="95.661003" width="101.95024" id="rect3868" style="color:#000000;fill:#2a1f07;fill-opacity:1;fill-rule:nonzero;stroke:#000000;stroke-width:20;stroke-linecap:round;stroke-linejoin:round;stroke-miterlimit:4;stroke-opacity:1;stroke-dasharray:none;stroke-dashoffset:0;marker:none;visibility:visible;display:inline;overflow:visible;enable-background:accumulate"/>
    <g id="g4357" transform="translate(-252.21676,174.02955)">
      <path style="color:#000000;fill:#daab14;fill-opacity:1;fill-rule:nonzero;stroke:#000000;stroke-width:20;stroke-linecap:round;stroke-linejoin:round;stroke-miterlimit:4;stroke-opacity:1;stroke-dashoffset:0;marker:none;visibility:visible;display:inline;overflow:visible;enable-background:accumulate" d="m 1616.4632,659.24179 c -48.2026,-12.43398 -88.3045,-0.0197 -89.5703,27.7278 -1.2657,27.74759 36.7841,60.32111 84.9868,72.75519 20.7797,5.36022 44.4979,23.87186 59.9253,18.10481 20.3597,-7.61067 28.7006,-25.1291 29.6944,-46.91737 0.8067,-17.68202 -11.9799,-37.30656 -25.1323,-53.09216 -15.3354,-18.40554 -33.956,-11.88493 -59.9039,-18.57827 z" id="path4090" inkscape:connector-curvature="0" sodipodi:nodetypes="sssssss"/>
      <path style="color:#000000;fill:#a81c1c;fill-opacity:1;fill-rule:nonzero;stroke:#000000;stroke-width:20;stroke-linecap:round;stroke-linejoin:round;stroke-miterlimit:4;stroke-opacity:1;stroke-dashoffset:0;marker:none;visibility:visible;display:inline;overflow:visible;enable-background:accumulate" inkscape:transform-center-y="77.977869" d="m 1257.9631,402.5105 c 36.8317,4.51411 65.9133,-33.0741 100.3067,-22.67587 75.0129,22.67888 139.2133,53.90549 206.6119,-38.43052 23.618,-32.35658 75.0549,24.72212 111.7919,5.16319 -31.9668,100.54966 -236.0858,264.86654 -449.5536,312.46411 115.9783,-98.38865 134.1081,-193.65806 30.8431,-256.52091 z" id="path4082" inkscape:connector-curvature="0" sodipodi:nodetypes="cssccc"/>
      <path style="color:#000000;fill:#525252;fill-opacity:1;fill-rule:nonzero;stroke:#000000;stroke-width:20;stroke-linecap:round;stroke-linejoin:round;stroke-miterlimit:4;stroke-opacity:1;stroke-dasharray:none;stroke-dashoffset:0;marker:none;visibility:visible;display:inline;overflow:visible;enable-background:accumulate" d="m 1437.2205,404.99364 c 23.7614,-56.51534 118.0821,-70.67447 210.6714,-31.62534 92.5891,39.04918 114.9722,131.27827 114.9722,131.27827 0,0 -103.3161,18.2738 -166.5942,-8.41357 -63.2783,-26.68734 -109.6739,-79.2509 -161.4294,-84.63386 0.68,-2.22766 1.468,-4.43633 2.38,-6.6055 z" id="path4045" inkscape:connector-curvature="0" sodipodi:nodetypes="sscscs"/>
      <path sodipodi:nodetypes="sssss" inkscape:connector-curvature="0" id="path4030" d="m 1640.7536,500.46822 c 35.6203,113.86281 1.5082,212.49641 -124.1383,218.16345 -184.48,8.32062 -203.0138,-52.47468 -183.6277,-170.9667 17.5514,-107.27696 39.1511,-205.13054 124.1383,-218.16357 84.9872,-13.03301 151.1758,67.23179 183.6277,170.96682 z" style="color:#000000;fill:#525252;fill-opacity:1;fill-rule:nonzero;stroke:#000000;stroke-width:20.00000191;stroke-opacity:1;marker:none;visibility:visible;display:inline;overflow:visible;enable-background:accumulate"/>
      <path sodipodi:nodetypes="cscsc" inkscape:connector-curvature="0" id="path4053" d="m 1555.5489,356.73256 c -64.4301,21.95857 -110.6491,97.47095 -108.2955,185.97439 1.9269,72.4569 35.9053,134.50467 84.1059,164.76139 116.2785,0.30063 128.7318,-89.7324 108.3215,-185.99472 -15.035,-70.9103 -35.9217,-134.48841 -84.1319,-164.74106 z" style="color:#000000;fill:#ffffff;fill-opacity:1;fill-rule:nonzero;stroke:#000000;stroke-width:20.00000191;stroke-opacity:1;marker:none;visibility:visible;display:inline;overflow:visible;enable-background:accumulate"/>
      <path inkscape:transform-center-y="37.509083" inkscape:transform-center-x="148.68543" sodipodi:nodetypes="sscscs" inkscape:connector-curvature="0" id="path4040" d="m 1463.3426,435.74352 c -27.9408,-54.56388 -123.0581,-61.57287 -212.4503,-15.65505 -89.3921,45.91784 -104.7809,139.5726 -104.7809,139.5726 0,0 104.3963,10.43393 165.4893,-20.94771 61.0933,-31.3816 103.4074,-87.29342 154.6116,-96.56248 -0.8454,-2.17008 -1.7972,-4.31308 -2.8697,-6.40736 z" style="color:#000000;fill:#525252;fill-opacity:1;fill-rule:nonzero;stroke:#000000;stroke-width:20;stroke-linecap:round;stroke-linejoin:round;stroke-miterlimit:4;stroke-opacity:1;stroke-dasharray:none;stroke-dashoffset:0;marker:none;visibility:visible;display:inline;overflow:visible;enable-background:accumulate"/>
      <path sodipodi:type="arc" style="color:#000000;fill:#525252;fill-opacity:1;fill-rule:nonzero;stroke:#000000;stroke-width:25.59792137;stroke-opacity:1;marker:none;visibility:visible;display:inline;overflow:visible;enable-background:accumulate" id="path4028" sodipodi:cx="1254.4075" sodipodi:cy="1212.2831" sodipodi:rx="182.43355" sodipodi:ry="182.43355" d="m 1436.841,1212.2831 c 0,100.7552 -81.6783,182.4335 -182.4335,182.4335 -100.7553,0 -182.4336,-81.6783 -182.4336,-182.4335 0,-100.7553 81.6783,-182.4336 182.4336,-182.4336 100.7552,0 182.4335,81.6783 182.4335,182.4336 z" transform="matrix(0.78070784,0,0,0.78191956,454.54864,-703.60908)"/>
      <path style="color:#000000;fill:none;stroke:#000000;stroke-width:20;stroke-linecap:round;stroke-linejoin:round;stroke-miterlimit:4;stroke-opacity:1;stroke-dasharray:none;stroke-dashoffset:0;marker:none;visibility:visible;display:inline;overflow:visible;enable-background:accumulate" d="m 1423.7037,300.90987 -2.4783,-44.16237 50.8515,-8.17884" id="path4032" inkscape:connector-curvature="0"/>
      <path style="color:#000000;fill:#ffffff;fill-opacity:1;fill-rule:nonzero;stroke:#000000;stroke-width:20;stroke-linecap:round;stroke-linejoin:round;stroke-miterlimit:4;stroke-opacity:1;stroke-dasharray:none;stroke-dashoffset:0;marker:none;visibility:visible;display:inline;overflow:visible;enable-background:accumulate" d="m 1542.4503,153.00164 -9.5833,30.56279" id="path4036" inkscape:connector-curvature="0"/>
      <path style="color:#000000;fill:#daab14;fill-opacity:1;fill-rule:nonzero;stroke:#000000;stroke-width:20;stroke-linecap:round;stroke-linejoin:round;stroke-miterlimit:4;stroke-opacity:1;stroke-dasharray:none;stroke-dashoffset:0;marker:none;visibility:visible;display:inline;overflow:visible;enable-background:accumulate" d="m 1512.0408,227.98228 c -7.7285,-51.82164 100.1953,-107.00039 100.1953,-107.00039 0,0 5.9988,77.45794 -51.8322,98.11973 -43.1171,15.40474 24.8811,29.01217 73.4365,-22.90073 10.9424,38.94852 -106.9052,131.65264 -121.7996,31.78139 z" id="path4038" inkscape:connector-curvature="0" sodipodi:nodetypes="scscs"/>
      <g transform="matrix(0.76688535,-0.14648562,0.14625862,0.76807562,487.68923,329.92633)" id="g4182">
        <rect ry="100" rx="100" y="335.38348" x="845.2179" height="247.17241" width="295.0936" id="rect4178" style="color:#000000;fill:#000000;fill-opacity:1;fill-rule:nonzero;stroke:#000000;stroke-width:25.59792137;stroke-linecap:round;stroke-linejoin:round;stroke-miterlimit:4;stroke-opacity:1;stroke-dasharray:none;stroke-dashoffset:0;marker:none;visibility:visible;display:inline;overflow:visible;enable-background:accumulate" transform="matrix(0.86913521,-0.49457456,0.49457456,0.86913521,0,0)"/>
        <rect style="color:#000000;fill:#000000;fill-opacity:1;fill-rule:nonzero;stroke:#000000;stroke-width:25.59792137;stroke-linecap:round;stroke-linejoin:round;stroke-miterlimit:4;stroke-opacity:1;stroke-dasharray:none;stroke-dashoffset:0;marker:none;visibility:visible;display:inline;overflow:visible;enable-background:accumulate" id="rect4176" width="411.11331" height="108.4532" x="787.20801" y="474.10266" rx="20" ry="20" transform="matrix(0.86913521,-0.49457456,0.49457456,0.86913521,0,0)"/>
        <path style="color:#000000;fill:none;stroke:#a81c1c;stroke-width:25.59792137;stroke-linecap:round;stroke-linejoin:round;stroke-miterlimit:4;stroke-opacity:1;stroke-dasharray:none;stroke-dashoffset:0;marker:none;visibility:visible;display:inline;overflow:visible;enable-background:accumulate" d="m 948.81275,60.401016 7.588,-37.149461 32.60633,12.22521 13.56122,-37.4705135 34.3704,15.3253235 7.9221,-38.365517 26.406,15.7534285 9.1381,-38.0315445 33.4884,13.775284 8.029,-36.374445 30.6153,12.332223 7.481,-39.140533 37.9115,14.336269 5.4899,-39.03349 32.1524,18.63944 7.04,-39.91556 29.6132,15.98039 9.9002,-31.28328" id="path4180" inkscape:connector-curvature="0"/>
      </g>
      <path sodipodi:nodetypes="cssccc" inkscape:connector-curvature="0" id="path4077" d="m 1257.9631,402.5105 c 36.8317,4.51411 65.9133,-33.0741 100.3067,-22.67587 75.0129,22.67888 139.2133,53.90549 206.6119,-38.43052 23.618,-32.35658 75.0549,24.72212 111.7919,5.16319 -31.9668,100.54966 -68.2644,236.11571 -281.7323,283.71327 115.9783,-98.38865 -33.7132,-164.90722 -136.9782,-227.77007 z" inkscape:transform-center-y="20.476205" inkscape:transform-center-x="14.26299" style="color:#000000;fill:#a81c1c;fill-opacity:1;fill-rule:nonzero;stroke:#000000;stroke-width:20;stroke-linecap:round;stroke-linejoin:round;stroke-miterlimit:4;stroke-opacity:1;stroke-dashoffset:0;marker:none;visibility:visible;display:inline;overflow:visible;enable-background:accumulate"/>
      <path sodipodi:nodetypes="sssssss" inkscape:connector-curvature="0" id="path4086" d="m 1431.8646,636.71737 c 23.0608,39.55424 15.2892,87.0973 -17.3582,106.1905 -32.6474,19.09323 -77.8079,2.50629 -100.8687,-37.04794 -9.9414,-17.05157 -35.9683,-28.5438 -31.8044,-47.47151 5.4949,-24.97861 24.803,-44.47279 50.4388,-59.46535 20.8044,-12.16704 46.2597,-12.17425 67.2311,-9.35146 24.4519,3.2912 19.9476,25.85332 32.3614,47.14576 z" style="color:#000000;fill:#daab14;fill-opacity:1;fill-rule:nonzero;stroke:#000000;stroke-width:20;stroke-linecap:round;stroke-linejoin:round;stroke-miterlimit:4;stroke-opacity:1;stroke-dashoffset:0;marker:none;visibility:visible;display:inline;overflow:visible;enable-background:accumulate"/>
    </g>
  </g>
</svg>