<?xml version="1.0" encoding="UTF-8" standalone="no"?>
<!-- Created with Inkscape (http://www.inkscape.org/) -->

<svg
   xmlns:dc="http://purl.org/dc/elements/1.1/"
   xmlns:cc="http://creativecommons.org/ns#"
   xmlns:rdf="http://www.w3.org/1999/02/22-rdf-syntax-ns#"
   xmlns:svg="http://www.w3.org/2000/svg"
   xmlns="http://www.w3.org/2000/svg"
   version="1.1"
   width="825.47516"
   height="1155.3895"
   id="svg4195">
  <title
     id="title2992">Freedo Head Logo (Black Line Color)</title>
  <metadata
     id="metadata4201">
    <rdf:RDF>
      <cc:Work
         rdf:about="">
        <dc:format>image/svg+xml</dc:format>
        <dc:type
           rdf:resource="http://purl.org/dc/dcmitype/StillImage" />
        <dc:title>Freedo Head Logo (Black Line Color)</dc:title>
        <dc:date>2014/01/27</dc:date>
        <dc:creator>
          <cc:Agent>
            <dc:title>José Miguel Silva Lara</dc:title>
          </cc:Agent>
        </dc:creator>
        <dc:rights>
          <cc:Agent>
            <dc:title />
          </cc:Agent>
        </dc:rights>
        <dc:language>English</dc:language>
        <dc:subject>
          <rdf:Bag>
            <rdf:li>Freedo</rdf:li>
            <rdf:li>Head</rdf:li>
            <rdf:li>Logo</rdf:li>
          </rdf:Bag>
        </dc:subject>
        <dc:contributor>
          <cc:Agent>
            <dc:title>Márcio Alexandre Silva Delgado (Graphic Design)</dc:title>
          </cc:Agent>
        </dc:contributor>
        <cc:license
           rdf:resource="" />
        <dc:description>
The New Freedo Head Logo Image (Black Line Color)
Copyleft 2014 José Miguel Silva Lara (Original Design),
and Márcio Alexandre Silva Delgado (Graphic Design).
---------------------------------------------------------------------------------
This work is licensed under the Creative Commons
Attribution-ShareAlike 4.0 International License.
To view a copy of this license, visit
http://creativecommons.org/licenses/by-sa/4.0/
---------------------------------------------------------------------------------
Copyleft: This is a free work, you can copy, distribute, and modify it
under the terms of the Free Art License http://artlibre.org/licence/lal/en/
---------------------------------------------------------------------------------
Permission is granted to copy, distribute and/or modify this document
under the terms of the GNU Free Documentation License, Version 1.3
or any later version published by the Free Software Foundation;
with no Invariant Sections, no Front-Cover Texts, and no Back-Cover Texts.
A copy of the license is included in the section entitled &quot;GNU
Free Documentation License&quot;.
---------------------------------------------------------------------------------
This program is free software; you can redistribute it and/or modify
it under the terms of the GNU General Public License as published by
the Free Software Foundation; either version 2 of the License, or
(at your option) any later version.

This program is distributed in the hope that it will be useful,
but WITHOUT ANY WARRANTY; without even the implied warranty of
MERCHANTABILITY or FITNESS FOR A PARTICULAR PURPOSE.  See the
GNU General Public License for more details.

You should have received a copy of the GNU General Public License along
with this program; if not, write to the Free Software Foundation, Inc.,
51 Franklin Street, Fifth Floor, Boston, MA 02110-1301 USA.
</dc:description>
      </cc:Work>
    </rdf:RDF>
  </metadata>
  <defs
     id="defs4199">
    <filter
       color-interpolation-filters="sRGB"
       id="filter3813">
      <feGaussianBlur
         stdDeviation="1.0718035"
         id="feGaussianBlur3815" />
    </filter>
    <filter
       color-interpolation-filters="sRGB"
       id="filter3787">
      <feGaussianBlur
         stdDeviation="1.1808414"
         id="feGaussianBlur3789" />
    </filter>
  </defs>
  <path
     d="m 626.17185,690.7685 c 0.961,11.01895 19.894,66.05462 28.5662,83.03787 2.5975,5.08684 5.5534,11.27381 6.5687,13.74881 1.0153,2.475 3.1399,6.5644 4.7213,9.08755 1.5814,2.52315 2.8753,5.16616 2.8753,5.87336 0,0.70719 2.027,4.62459 4.5045,8.70531 3.845,8.10966 4.9524,13.96597 1.2827,18.69495 -3.6698,3.35209 -11.1989,3.51153 -12.6939,-4.13269 -1.277,-6.22216 -4.5949,-13.10346 -10.9586,-22.72848 -5.3979,-8.1642 -7.7707,-12.22079 -8.7741,-15 -0.3972,-1.1 -4.0104,-8.64698 -8.0295,-16.77108 -7.7129,-15.59067 -10.6399,-24.94481 -14.4471,-46.17038 -1.091,-6.0822 -3.9826,-19.89995 -6.4258,-30.70613 -2.6206,-11.59121 -4.885,-24.71261 -5.5222,-32 -0.5941,-6.79382 -1.3121,-14.77006 -1.5956,-17.72497 l -0.5154,-5.37256 -4.4797,4.37256 c -2.4639,2.40491 -7.5693,8.64756 -11.3455,13.87256 -3.7761,5.225 -11.2835,14.46189 -16.683,20.52642 -5.3995,6.06452 -11.1673,12.65118 -12.8173,14.63702 -4.5843,5.51733 -28.0728,23.8097 -40.716,31.70873 -6.2062,3.8774 -14.209,9.08663 -17.784,11.57606 -13.11887,9.13524 -26.20801,13.70446 -48.5,16.93061 -17.77492,2.57243 -29.84449,2.86008 -48,1.14398 -9.35,-0.88378 -19.7,-2.06167 -23,-2.61754 -3.3,-0.55586 -8.33337,-1.35767 -11.18528,-1.78181 -2.8519,-0.42413 -5.7769,-1.22869 -6.5,-1.78792 -0.72309,-0.55922 -4.68972,-1.58697 -8.81472,-2.2839 -15.44864,-2.61007 -43.26806,-13.17014 -44.44236,-16.87004 -0.35546,-1.11996 -4.78885,-4.99512 -9.85197,-8.61147 -6.41668,-4.58314 -10.72048,-8.60468 -14.20566,-13.27401 -2.75,-3.68435 -7.88275,-10.09571 -11.40612,-14.24747 -3.52336,-4.15177 -9.40663,-11.59866 -13.07392,-16.54866 -7.49272,-10.11345 -24.88419,-29.49392 -33.09667,-36.88182 -2.98281,-2.68331 -7.89829,-6.57287 -10.92329,-8.64346 -3.025,-2.0706 -6.81173,-5.15157 -8.41495,-6.8466 -3.36421,-3.55689 -5.88884,-4.49091 -17.58505,-6.50583 -12.59993,-2.17061 -17.8529,-2.66931 -18.42174,-1.74892 -0.27981,0.45275 1.83811,4.54922 4.70649,9.10327 2.86839,4.55405 6.05688,9.68483 7.08554,11.40173 1.02866,1.71689 2.78766,7.84663 3.90888,13.62163 2.30418,11.86793 2.60399,34.85809 0.70221,53.84763 -1.55703,15.54718 -6.75437,52.4806 -8.58477,61.00524 -1.43508,6.68353 -6.13342,21.67885 -8.34909,26.64713 -0.85044,1.90698 -1.9593,5.92308 -2.70285,9.78929 -0.18926,0.98411 -1.17688,3.45911 -2.1947,5.5 -2.65517,5.32402 -11.14997,27.34452 -11.14997,28.01857 -1.93905,2.82363 -5.55675,9.01091 -10.93844,12.2646 -8.95157,3.09144 -12.0406,-8.59619 -7.56751,-12.4766 1.53757,-1.00746 9.28154,-12.51793 11.57949,-19.59586 0.98211,-3.025 3.40156,-9.775 5.37655,-15 1.97499,-5.225 4.69673,-13.67351 6.04831,-18.77447 1.35159,-5.10097 2.93767,-10.17182 3.52463,-11.26856 0.58696,-1.09675 1.02255,-3.89824 0.96798,-6.22553 -0.0637,-2.71565 1.7339,-9.50741 5.01808,-18.95972 4.31723,-12.42556 5.33913,-16.80329 6.53612,-28 0.78036,-7.29945 2.1013,-17.09672 2.93544,-21.77172 1.81302,-10.16121 1.84993,-20.02137 0.1404,-37.5 -1.37288,-14.03653 -2.08229,-16.05812 -9.12872,-26.01395 -4.51453,-6.37852 -8.97935,-10.75241 -19.68968,-19.28867 -0.89891,-0.71644 -11.10356,-3.27892 -22.677,-5.6944 -18.73999,-3.9112 -22.2782,-4.97926 -32.334125,-9.7605 -16.59406,-7.88991 -29.76422,-17.12411 -46.49836,-32.60213 -23.52502,-21.75916 -37.87873,-40.72808 -47.7233403,-63.06806 -0.64658,-1.46725 -0.99407,-8.94712 -0.87834,-18.90668 0.1492,-12.84011 0.6647,-18.48696 2.33446,-25.57229 1.17864,-5.00133 2.3414,-10.11717 2.5839,-11.36853 0.24251,-1.25137 1.95293,-3.95137 3.8009503,-6 1.84802,-2.04864 4.08147,-5.45495 4.96321,-7.5696 2.04487,-4.90412 13.39347,-16.67802 25.79176,-26.75837 l 9.66576,-7.85867 -1.48404,-6.26908 c -0.81622,-3.44799 -3.5172,-15.71907 -6.00217,-27.26907 -4.95505,-23.03083 -4.91331,-22.11383 -2.38965,-52.5 2.178,-26.22419 9.10752,-60.27069 17.0966,-84 2.68499,-7.975 6.08024,-18.1 7.54499,-22.5 3.05429,-9.17484 2.76896,-8.58611 12.87504,-26.56517 8.94557,-15.91446 18.538,-29.06971 25.606195,-35.11686 2.77588,-2.37488 8.80331,-7.84267 13.3943,-12.15063 4.59098,-4.30796 11.20024,-9.96662 14.68723,-12.5748 28.10136,-21.019063 27.42719,-20.642203 53.76389,-30.053873 12.25071,-4.3779 14.2304,-5.47297 13.47114,-7.45156 -0.57884,-1.50845 1.87195,-3.77649 3.64391,-3.37219 0.68721,0.1568 3.40702,-3.41779 6.04403,-7.94352 9.85573,-16.91479 26.26452,-36.15788 33.50445,-39.2917 2.24809,-0.97309 8.09809,-4.68716 13,-8.25349 10.48863,-7.63089 14.9742,-10.00764 25.27873,-13.3942995 11.30976,-3.71705 19.71512,-5.2951 28.30753,-5.31454 6.58604,-0.0149 9.91166,0.72015 23.46317,5.18602 21.35247,7.0366595 31.71252,13.7003095 49.36313,31.7507295 l 12.5,12.78313 9,2.04993 c 4.95,1.12745 12.375,2.59563 16.5,3.2626 11.83716,1.91395 64.23458,21.2963 69.06493,25.54783 0.86072,0.75757 2.99218,1.87495 4.73656,2.48305 3.0797,1.07357 3.3969,0.89867 10.9351,-6.02849 5.1502,-4.73271 10.5937,-8.5482 16.1717,-11.33505 l 8.4082,-4.20091 14.0918,-0.008 14.0917,-0.008 8.5,4.25 c 4.675,2.3375 8.9109,4.25 9.4131,4.25 1.5676,0 19.6601,11.13588 26.5333,16.33123 17.5365,13.255403 23.6305,20.321383 27.0365,31.348963 1.0643,3.44578 2.6106,7.296 3.4362,8.55606 2.2407,3.4196 4.323,12.71806 6.1057,27.26374 2.1706,17.7108 2.0927,23.84012 -0.3925,30.88519 -2.0315,5.75913 -2.0361,5.9412 -0.2154,8.5 2.75,3.86471 15.2468,24.58744 24.7267,41.0027 6.5916,11.41408 9.1655,17.09801 12.4531,27.5 2.2793,7.21166 4.7413,14.46211 5.4711,16.11211 0.7298,1.65 2.3631,8.4 3.6296,15 1.9383,10.10172 2.3026,15.24289 2.3026,32.5 0,11.275 -0.3347,23.03065 -0.7439,26.12367 l -0.7439,5.62366 6.2439,-2.24514 c 3.4342,-1.23483 11.9328,-2.96261 18.886,-3.83952 11.1596,-1.4074 14.0376,-1.43081 24.5426,-0.19962 17.9992,2.10951 21.7165,3.24787 38.6932,11.84914 17.0959,8.6617 32.0269,24.79179 43.6638,47.17049 l 4.9583,9.5353 0,11.8186 c 0,10.31683 -0.3236,12.63469 -2.5469,18.24101 -3.504,8.83574 -7.0305,15.4066 -11.8584,22.09548 -2.2521,3.12019 -5.2197,7.61749 -6.5947,9.99401 -4.538,7.84336 -29.3308,31.43833 -44.5367,42.38499 -12.9671,9.33491 -32.1199,20.87891 -38.8439,23.41238 -1.5843,0.59695 -4.1241,1.9708 -5.6439,3.05301 -1.5198,1.0822 -7.9906,4.20586 -14.3796,6.94147 -6.3889,2.73561 -16.2083,7.23896 -21.8207,10.00745 -5.6125,2.76849 -10.789,5.03362 -11.5034,5.03362 -0.7144,0 -2.0803,0.42459 -3.0354,0.94354 -0.955,0.51895 -6.0024,2.11788 -11.2164,3.55318 -8.9853,2.47345 -13.02,4.58218 -13.02,6.80494 0,0.54543 -3.3265,7.78819 -7.3923,16.09501 -4.0657,8.30683 -7.8882,16.90333 -8.4944,19.10333 -1.4432,5.23782 -1.4224,25.74009 0.037,36.5 0.7154,11.31338 2.5423,22.0468 4.1187,33.21332 z m -183.79048,54.76132 c 16.86783,-1.2161 31.66673,-4.86172 38.55642,-9.49815 2.56566,-1.72656 6.64489,-3.93096 9.06496,-4.89865 4.6937,-1.87686 15.4501,-8.72659 20.4001,-12.99095 1.65,-1.42145 3.2887,-2.585 3.6416,-2.58567 0.3529,-6.7e-4 0.9198,-1.10987 1.2599,-2.46489 0.3717,-1.48089 2.3213,-3.46166 4.8874,-4.9655 4.5492,-2.666 37.7111,-35.56081 37.7111,-37.40736 0,-0.60286 5.5361,-6.62377 12.3024,-13.37979 15.2469,-15.22377 35.6395,-42.52688 45.2482,-60.58183 3.8192,-7.17623 22.9559,-25.71492 27.5967,-26.7342 3.4693,-0.762 21.2146,-8.51818 30.8609,-13.48887 3.0296,-1.56109 7.6629,-3.56985 10.2962,-4.4639 7.8646,-2.67011 15.2279,-6.36182 31.1956,-15.64043 7.2566,-4.21671 20.2436,-13.75567 23,-16.89344 1.1,-1.25221 5.375,-4.76554 9.5,-7.80739 11.8218,-8.71765 40.891,-33.35765 47.5831,-40.33303 11.1869,-11.66047 13.0691,-14.84528 18.6631,-31.58003 0.8904,-2.66372 0.7871,-3.56634 -0.5817,-5.07874 -0.9155,-1.01162 -1.667,-2.92887 -1.6701,-4.26056 -0.019,-8.19177 -6.9475,-17.72393 -22.4467,-30.88145 -4.8334,-4.10311 -9.7989,-9.06156 -11.0344,-11.01878 -2.5549,-4.04726 -17.9011,-13.07496 -25.5133,-15.00872 -2.475,-0.62874 -6.75,-1.75818 -9.5,-2.50986 -22.8678,-6.25071 -40.4901,-8.03941 -49,-4.97361 -2.2,0.79257 -4.8572,1.44782 -5.9048,1.4561 -3.3566,0.0265 -9.2237,7.29803 -10.6349,13.18062 -2.9252,12.19346 -10.6896,27.06416 -20.3118,38.90172 -4.1177,5.06573 -17.3022,15.9184 -31.551,25.97071 -4.5212,3.18962 -18.0128,8.95381 -29.0405,12.40728 -16.4891,5.16381 -16.5403,5.22886 -13.0233,16.55473 3.8889,12.52341 4.9663,19.87719 4.9663,33.89871 0,7.57238 0.2809,14.04882 0.6241,14.3921 0.3433,0.34328 1.3558,-0.20216 2.25,-1.21208 0.8943,-1.00992 6.5759,-3.55587 12.6259,-5.65767 13.8262,-4.8033 37.9289,-17.10842 51,-26.037 12.5625,-8.58114 24.5642,-20.04072 32.6627,-31.18717 7.4684,-10.2793 15.3433,-25.09086 14.0355,-26.39868 -0.9385,-0.93852 -29.315,0.53778 -32.2834,1.67955 -0.8755,0.33674 -2.6544,-0.25609 -3.9734,-1.32412 l -2.3882,-1.93385 3.4734,-3.24805 c 5.8897,-5.50759 7.4089,-6.08885 18.1645,-6.94991 5.6699,-0.45392 11.8563,-1.31245 13.7475,-1.90786 2.6791,-0.84344 3.7835,-0.78398 5,0.26917 1.0042,0.86935 5.6652,1.58087 13.0614,1.99386 6.325,0.35317 15.1,1.34823 19.5,2.21124 4.4,0.86301 9.8736,1.90646 12.1635,2.31878 5.4086,0.97384 8.5299,3.09139 12.5582,8.51963 1.8031,2.42968 4.0658,4.63552 5.0283,4.90186 2.0863,0.57732 2.2907,2.97782 0.388,4.55692 -1.0387,0.86208 -2.6406,0.5483 -6.75,-1.32221 -7.5636,-3.44281 -20.6503,-7.07183 -33.0938,-9.17714 -13.979,-2.36508 -14.6245,-2.06543 -17.7621,8.24532 -1.3169,4.32773 -2.9309,8.9936 -3.5867,10.3686 -4.9768,10.43563 -6.566,13.45769 -10.9183,20.76207 -3.8279,6.42433 -8.3822,11.6779 -20.475,23.61888 -14.6348,14.45104 -16.1714,15.66753 -26.0521,20.62478 -15.7163,7.88502 -21.5001,9.742 -37.6234,12.07952 -13.7428,1.99239 -14.9215,2.02535 -18.1068,0.50636 -1.8739,-0.89361 -3.8263,-1.36574 -4.3385,-1.04916 -0.5122,0.31657 -0.9313,2.48432 -0.9313,4.81722 0,7.5186 -3.5346,20.83246 -7.6035,28.64033 -2.1496,4.125 -5.3555,10.68464 -7.1242,14.57698 -1.7687,3.89234 -4.4956,8.68737 -6.0598,10.65562 -2.934,3.6919 -14.9264,13.82005 -23.0786,19.49082 -5.1507,3.5829 -19.22,8.2474 -32.0169,10.61483 -7.8526,1.45272 -9.0579,1.42933 -19.0488,-0.36968 -5.86615,-1.05629 -14.24379,-3.08451 -18.61696,-4.50714 -8.76424,-2.8511 -30.29359,-13.67388 -41.05415,-20.63788 -8.04748,-5.20817 -24.47006,-18.88006 -35.95633,-29.93388 -8.66455,-8.33833 -11.3604,-9.65857 -15.97978,-7.82581 -7.06541,2.80325 -26.51146,4.06627 -71.14837,4.6211 -48.72432,0.60564 -48.46802,0.62445 -71.3126,-5.23303 -3.025,-0.77562 -8.30559,-2.08353 -11.73465,-2.90645 -3.42906,-0.82293 -8.37906,-2.55873 -11,-3.85733 -2.62094,-1.29861 -8.59035,-3.85748 -13.26535,-5.68639 -4.675,-1.82891 -10.975,-4.84328 -14,-6.6986 -3.025,-1.85533 -10.34215,-6.2606 -16.26032,-9.78949 -5.91818,-3.52888 -13.79318,-8.68502 -17.5,-11.45807 -9.23372,-6.90768 -23.68492,-23.86931 -25.82432,-30.31043 l -1.65029,-4.96856 -5.63254,0.45347 c -3.09789,0.2494 -10.96763,2.1564 -17.48831,4.23778 -10.036505,3.20361 -13.051955,4.68566 -19.651055,9.65822 -8.06803,6.07945 -11.67272,7.16988 -14.08667,4.26125 -1.17139,-1.41144 -0.34441,-2.52553 6.62756,-8.92855 4.38127,-4.02373 10.32177,-8.81053 13.20112,-10.63733 2.87934,-1.8268 8.20749,-5.21683 11.840325,-7.5334 9.10612,-5.80674 15.37466,-7.94053 28.58719,-9.73098 26.22949,-3.5544 31.13571,-3.66453 44.52916,-0.99956 6.75142,1.34337 14.83477,2.44249 17.96299,2.44249 5.69054,0 9.34516,1.76702 9.34516,4.51842 0,1.52225 -9.85866,5.98407 -19.29446,8.73227 -6.37538,1.85684 -9.41177,2.07076 -26.35495,1.85671 -13.27028,-0.16765 -19.36146,0.10118 -19.84009,0.87561 -1.01355,1.63996 2.16205,7.69634 7.39703,14.10732 2.52586,3.09328 5.32123,6.97251 6.21194,8.62052 0.89071,1.648 4.42923,4.74975 7.86338,6.89276 3.43415,2.14301 9.00539,5.72633 12.38053,7.96291 8.58948,5.69195 29.62084,16.68645 39.05079,20.41446 4.3528,1.72083 13.3528,4.4771 20,6.12505 11.45168,2.83907 13.03031,2.98401 30.08583,2.76227 9.9,-0.1287 21.825,0.11365 26.5,0.53857 5.10693,0.46418 11.69347,0.34483 16.5,-0.29897 4.4,-0.58936 20.15,-1.53197 35,-2.09471 28.72328,-1.08846 38.567,-1.81853 40.48262,-3.00245 0.87485,-0.54069 0.91936,-1.70622 0.16892,-4.42408 -0.93794,-3.39693 -0.82883,-3.77658 1.37384,-4.78018 1.88558,-0.85913 2.92486,-0.74149 4.90362,0.55504 2.44883,1.60454 9.0729,10.80864 12.25857,17.03321 4.87747,9.53021 21.83645,23.40373 42.14048,34.47356 6.23043,3.39685 14.78043,8.50647 19,11.35471 13.79731,9.31326 28.24034,13.79178 44.37974,13.76138 12.3106,-0.0232 24.7267,-3.57951 33.9227,-9.71638 2.2813,-1.5224 4.9028,-3.17672 5.8255,-3.67627 0.9227,-0.49955 2.5476,-2.13171 3.6108,-3.62703 2.5741,-3.62016 9.0905,-11.98943 13.4897,-17.32538 4.1073,-4.98192 9.0908,-14.71558 11.5911,-22.63932 2.1956,-6.95842 2.9733,-27.96828 1.411,-38.12061 -1.4441,-9.38462 -8.321,-33.49999 -11.1506,-39.1023 -6.0645,-12.00698 -28.6497,-37.10112 -34.408,-38.23035 -1.65,-0.32357 -7.275,-1.94028 -12.5,-3.5927 -5.225,-1.65241 -12.8844,-3.68931 -17.0209,-4.52643 l -7.52084,-1.52204 -9.97913,3.62257 c -13.87545,5.03699 -17.15898,6.13698 -23.6353,7.91784 -3.34374,0.91947 -7.3968,3.00959 -9.91373,5.11243 -2.34165,1.95639 -5.53387,3.81235 -7.09382,4.12434 -1.55995,0.31199 -2.83627,1.13909 -2.83627,1.838 0,1.67605 -9.63031,7.82576 -10.9641,7.00144 -1.71957,-1.06276 -1.16605,-5.09443 0.9641,-7.02219 1.1,-0.99549 2,-2.34371 2,-2.99606 0,-0.65234 2.1375,-2.3935 4.75,-3.86924 7.20363,-4.06915 17.398,-11.37952 20.67735,-14.8277 1.61004,-1.69294 5.77254,-4.40949 9.25,-6.03679 6.63004,-3.10257 7.41779,-4.05796 4.63159,-5.6172 -1.74477,-0.97642 -8.9508,-12.26853 -14.3208,-22.44121 -1.68052,-3.18351 -3.43497,-5.55368 -3.89876,-5.26704 -0.4638,0.28664 -1.87507,3.11633 -3.13618,6.2882 -2.47799,6.23254 -13.96542,29.34694 -19.01802,38.26704 -3.82469,6.75228 -6.14041,9.3293 -11.93518,13.28191 -2.475,1.68819 -7.22068,5.5891 -10.54596,8.66867 -4.98849,4.6199 -8.22426,6.50546 -18.5,10.78045 -25.28099,10.51756 -31.88198,12.19585 -50.97889,12.96133 -14.39043,0.57682 -14.6403,0.54973 -27,-2.92726 -6.86133,-1.9302 -16.75015,-4.55295 -21.97515,-5.82833 -7.14735,-1.7446 -10.73824,-3.23484 -14.5,-6.0176 -2.75,-2.0343 -7.25,-4.82527 -10,-6.20216 -7.94614,-3.97852 -16.79508,-10.98022 -30.40193,-24.05546 -16.86137,-16.20262 -20.99204,-18.37362 -45.23145,-23.77277 -11.69834,-2.60573 -19.7124,-3.90455 -22.1088,-3.58312 -2.06743,0.2773 -6.3462,-0.20503 -9.50839,-1.07183 -8.37857,-2.29671 -31.64583,-2.00984 -52.88281,0.65199 -13.046325,1.63523 -20.798995,3.24389 -32.499995,6.74367 -8.45164,2.5279 -16.61293,5.23652 -18.1362,6.01915 -3.96819,2.0388 -14.85029,12.06867 -24.83773,22.89257 l -8.60731,9.32818 -3.04781,11.31531 c -4.3466303,16.13725 -4.5389303,17.93288 -2.73824,25.56841 0.87511,3.71079 2.04749,8.77189 2.60527,11.24689 0.55779,2.475 3.55662,9 6.66407,14.5 4.94299,8.7488 7.63999,12.22049 13.35789,17.19483 0.75539,0.65716 2.94844,3.25922 4.87344,5.78235 5.29198,6.93629 21.85109,21.1415 31.19559,26.7611 4.56742,2.74675 14.04836,7.87327 21.06875,11.39225 7.02039,3.51899 13.667695,7.30151 14.771805,8.40562 1.1041,1.1041 3.68515,2.18907 5.73566,2.41104 2.0505,0.22196 7.10319,1.57738 11.22819,3.01204 4.125,1.43467 10.2,2.88232 13.5,3.21702 3.3,0.3347 8.025,1.60803 10.5,2.82963 2.475,1.22159 6.3,2.79395 8.5,3.49412 2.2,0.70017 6.24254,2.39741 8.98341,3.77164 4.0915,2.05142 8.65542,2.9209 25.5,4.85806 30.72826,3.53381 50.83964,7.99588 60.42741,13.40688 2.82574,1.59475 8.06425,3.51299 11.64115,4.26277 3.57689,0.74978 7.61598,2.05869 8.97574,2.90869 1.35976,0.85 5.73185,2.76413 9.71576,4.25364 7.5566,2.82525 9.15357,4.04128 7.49088,5.70397 -0.65519,0.65519 -3.34158,0.29148 -7.92158,-1.0725 -10.64169,-3.16924 -24.71849,-5.83399 -28.15453,-5.32968 -1.69986,0.24948 -6.08352,-0.0676 -9.74147,-0.70458 -3.65794,-0.637 -6.8859,-0.92309 -7.17324,-0.63576 -0.90576,0.90577 4.57889,7.33808 21.16573,24.82278 8.84991,9.32896 17.55853,19.27753 19.3525,22.10792 2.89257,4.56369 7.20742,9.27982 23.36919,25.54251 11.10139,11.17072 39.45129,27.36154 59.78308,34.14252 6.40948,2.13766 15.87346,4.05844 29.65314,6.01829 11.13151,1.5832 22.64519,3.75394 25.58597,4.82386 6.31592,2.29788 9.7715,2.4313 28.32537,1.09363 z M 340.28744,464.61803 c 2.26348,-0.49399 6.81542,-1.45767 10.11542,-2.1415 3.3,-0.68384 6.4275,-1.62089 6.95,-2.08235 0.5225,-0.46145 1.7049,-0.839 2.62756,-0.839 0.92265,0 2.21757,-0.65068 2.87758,-1.44595 0.66002,-0.79527 5.34505,-2.40378 10.41119,-3.57446 14.59916,-3.37356 25.92265,-10.86707 39.07946,-25.8615 4.86248,-5.54163 9.92858,-11.67638 11.25799,-13.63279 5.72122,-8.41953 17.97649,-37.61797 21.81944,-51.9853 1.46555,-5.47912 4.48194,-50.00321 4.47877,-66.1099 -0.007,-34.3218 -8.72816,-77.37938 -19.52816,-96.41052 -2.02241,-3.56377 -5.70429,-10.50351 -8.18197,-15.42165 -8.06633,-16.01153 -17.00947,-28.13894 -29.65713,-40.21677 -13.29178,-12.69294 -21.29663,-18.34884 -34.3603,-24.27757 -7.58065,-3.44036 -10.9503,-4.36334 -18.89872,-5.17652 -6.6924,-0.68468 -9.9971,-0.66568 -10.72443,0.0617 -1.26998,1.26998 -5.6635,1.36782 -8.83618,0.19676 -2.93838,-1.08457 -16.83891,0.36042 -27.46025,2.85455 -4.47984,1.05196 -15.76517,5.02529 -25.07852,8.8296 -30.03455,12.26852 -47.21923,25.21618 -76.80961,57.87159 -13.98995,15.43906 -23.97757,33.74706 -30.84866,56.54775 -6.7271,22.32287 -9.16433,42.71938 -8.36385,69.99477 0.46769,15.93602 0.73663,17.90658 3.51515,25.75626 1.65478,4.675 3.33804,10.075 3.74056,12 1.0918,5.2214 7.04013,17.26078 11.21805,22.70529 2.02361,2.63709 5.27516,7.69896 7.22566,11.2486 2.45888,4.47482 5.59391,8.17298 10.22356,12.05995 5.64285,4.73766 7.62369,5.78209 12.78744,6.74239 9.33185,1.73544 22.49087,9.76913 34.52124,21.0755 5.50777,5.17631 13.38913,11.71368 17.51413,14.52748 25.72465,17.5477 29.47755,19.22533 54,24.13924 7.425,1.48786 14.175,3.12626 15,3.64089 1.61133,1.00515 12.65716,0.39174 19.38458,-1.07649 z m -0.32309,-49.09079 c -11.62188,-4.17944 -16.1186,-9.53447 -18.06895,-21.51787 -1.95233,-11.99563 2.611,-27.74184 10.20204,-35.2031 8.65748,-8.50946 20.48901,-15.45109 26.33531,-15.45109 7.282,0 12.29333,4.7577 16.63532,15.79337 2.71399,6.89793 3.10918,9.11861 3.09766,17.40663 -0.0289,20.75398 -2.42832,26.27111 -15.11323,34.75 -10.62516,7.1021 -13.57802,7.64208 -23.08815,4.22206 z M 362.759,376.80518 c 1.48625,-1.5125 3.54205,-5.25578 4.56843,-8.3184 2.3311,-6.95577 1.55587,-12.10501 -2.42119,-16.08206 -3.65777,-3.65777 -7.70115,-3.67595 -15.00338,-0.0674 l -5.5,2.7179 0,8.36127 0,8.36127 6.43127,3.88873 c 3.5372,2.1388 7.05932,3.88873 7.82693,3.88873 0.7676,0 2.61168,-1.2375 4.09794,-2.75 z m 230.14385,72.82876 c 13.4581,-6.03231 29.7484,-15.4376 37.665,-21.7462 12.8886,-10.27059 27.2199,-27.6705 34.5851,-41.99036 6.5493,-12.73344 8.533,-20.15136 9.6529,-36.09647 0.9006,-12.82264 0.069,-42.59439 -1.2923,-46.24573 -0.3075,-0.825 -1.4237,-6.48077 -2.4805,-12.56838 -2.2154,-12.76245 -4.7159,-19.51781 -14.4103,-38.93162 -3.8451,-7.7 -8.0278,-16.75053 -9.295,-20.11228 -1.2672,-3.36175 -4.5969,-10.4036 -7.3994,-15.64855 -4.3584,-8.15707 -7.0066,-11.479 -18.3104,-22.96909 -15.2802,-15.53194 -26.3731,-23.38134 -49.7151,-35.17851 -20.6959,-10.45981 -25.7476,-11.95336 -40.5,-11.97399 -22.6441,-0.0317 -37.56703,6.91015 -48.14105,22.39408 -6.64137,9.72521 -15.04086,31.54481 -18.41933,47.84842 -2.21918,10.70919 -2.42598,15.38826 -0.7955,17.99907 0.92372,1.47911 0.72162,2.40344 -1.0492,4.7986 -2.14463,2.90077 -2.17875,3.42014 -1.53784,23.40443 1.48975,46.45133 0.82284,62.11173 -3.63845,85.43782 -2.70322,14.13399 -2.50498,20.00774 0.98829,29.28226 1.59879,4.24476 3.46703,9.51774 4.15162,11.71774 1.57717,5.06836 3.38992,8.02472 7.86988,12.83473 5.72575,6.14761 10.09881,7.92863 17.51707,7.13421 3.43939,-0.36833 9.47311,-0.17014 13.40831,0.44043 7.5993,1.17906 24.6764,7.50642 30.9527,11.46847 2.0721,1.30807 6.4508,3.73685 9.7305,5.39727 9.1014,4.60785 16.2187,10.37113 24.463,19.80894 l 7.5,8.58576 4.5,-0.41644 c 2.475,-0.22904 8.775,-2.33261 14,-4.67461 z m -85.0065,-52.0131 c -7.7234,-2.34936 -13.95946,-7.24618 -17.27575,-13.56566 -4.08914,-7.79223 -3.29762,-32.5227 1.33134,-41.5962 3.05431,-5.98691 8.59121,-9.46037 17.09141,-10.722 8.3493,-1.23921 10.9057,-0.37829 15.5195,5.22651 11.3009,13.72833 15.7417,30.14115 11.7721,43.50835 -1.2071,4.06472 -3.0123,6.75283 -7.845,11.6815 l -6.2771,6.40184 -5.905,-0.086 c -3.2477,-0.0473 -7.0329,-0.42905 -8.4115,-0.84839 z m 2.1241,-36.94801 c 3.5281,-3.52802 3.8824,-4.36357 3.8824,-9.15484 0,-4.85953 -0.3166,-5.57364 -4.0421,-9.11765 -4.8032,-4.56913 -8.507,-5.01849 -11.8688,-1.43997 -6.93162,7.37835 -5.24177,18.37291 3.4109,22.1923 4.2185,1.86209 4.2988,1.83899 8.6176,-2.47984 z M 74.903335,390.16142 c 11.73437,-2.32708 29.480145,-4.52562 30.257195,-3.74857 0.51634,0.51634 2.4551,0.53478 4.56959,0.0435 7.22534,-1.6789 22.38691,-0.89424 39.67274,2.05317 9.35,1.59428 17.32862,2.58064 17.73028,2.19192 0.40165,-0.38872 -1.57967,-4.29314 -4.40295,-8.67649 -5.98565,-9.29319 -10.18285,-18.1344 -12.99622,-27.37592 -1.10403,-3.62659 -2.81495,-8.3938 -3.80204,-10.5938 -2.17083,-4.83827 -3.53401,-11.56425 -6.08023,-30 -2.16601,-15.68286 -2.44025,-25.63959 -0.92582,-33.61351 0.56266,-2.96257 1.90053,-12.46279 2.97304,-21.11159 1.63338,-13.17177 2.44151,-16.69876 4.97698,-21.72149 1.66483,-3.29801 3.02696,-6.70202 3.02696,-7.56446 0,-3.13939 14.93854,-30.38741 25.21313,-45.98895 10.2159,-15.51243 19.47543,-26.20305 26.28687,-30.3496 1.65,-1.00445 3.675,-2.65363 4.5,-3.66483 2.4678,-3.02477 24.7536,-21.30679 28.05258,-23.01276 9.42781,-4.87531 46.47626,-18.55523 52.614,-19.4274 3.75838,-0.53406 8.3091,-1.48638 10.11271,-2.11625 4.72327,-1.64951 45.89882,-0.60329 53.22071,1.35227 20.21364,5.39875 29.80426,9.79124 38.05325,17.42836 3.14274,2.90961 5.87892,5.29082 6.08041,5.29156 0.20149,7.4e-4 5.35977,4.83824 11.46285,10.75 9.05738,8.77345 12.07134,12.47293 16.40138,20.13186 3.08485,5.45646 6.09741,9.59046 7.1987,9.87845 2.11623,0.55341 3.81308,3.61828 9.26712,16.73834 2.05772,4.95 4.34594,10.36692 5.08493,12.0376 0.73899,1.67068 3.17078,9.2861 5.40399,16.92317 2.2332,7.63706 4.22251,14.04771 4.42069,14.24588 0.19817,0.19818 1.1233,-3.81725 2.05583,-8.92317 0.93253,-5.10591 2.82604,-12.65848 4.20779,-16.78348 2.5923,-7.73892 12.66972,-32.34331 14.33523,-35 0.5172,-0.825 2.75154,-4.7258 4.96519,-8.66844 2.21365,-3.94264 5.27083,-8.04638 6.79373,-9.11942 4.34374,-3.0606 11.0008,-6.21214 13.1221,-6.21214 1.063,0 2.1671,-0.61053 2.4534,-1.35673 1.2043,-3.13834 26.838,-7.20518 40.1934,-6.37677 15.324,0.95051 45.3343,14.41782 67.3853,30.23963 7.3618,5.28222 13.9354,9.39293 14.6078,9.13491 3.2629,-1.2521 3.3115,-17.09337 0.1007,-32.83493 -2.9371,-14.40009 -7.3087,-24.2763 -13.1827,-29.78182 -2.3824,-2.23298 -4.6871,-4.61444 -5.1214,-5.29213 -1.2587,-1.96401 -8.2786,-7.06612 -14.7897,-10.749333 -3.3,-1.86676 -8.2606,-5.22927 -11.0235,-7.47226 -4.9431,-4.01296 -19.5262,-9.9674 -30.4765,-12.44394 -6.4461,-1.45786 -17.3881,-1.26743 -25.4633,0.44314 -6.3181,1.33835 -7.5083,2.00861 -12.8438,7.23264 -3.2342,3.16668 -7.5257,8.10005 -9.5367,10.96305 -8.44678,12.025883 -15.33135,20.124453 -18.0731,21.260123 -3.63384,1.50519 -6.03845,1.08424 -7.47591,-1.30873 -0.91636,-1.52548 -0.6763,-2.12209 1.39282,-3.4616 3.08182,-1.99512 10,-8.9816 10,-10.09874 0,-0.65903 -6.40133,-5.784383 -16.672,-13.348743 -1.47819,-1.0887 -9.87617,-4.25208 -18.328,-6.90386 -3.575,-1.12167 -7.85,-2.83493 -9.5,-3.80726 -1.65,-0.97233 -5.25,-2.31259 -8,-2.97836 -2.75,-0.66578 -7.475,-2.48808 -10.5,-4.04958 -5.15523,-2.66111 -11.85969,-5.02577 -18.27196,-6.44452 -3.88882,-0.86042 -4.40952,1.32345 -1.83532,7.69741 1.16357,2.88112 2.99369,8.38841 4.06691,12.23841 1.07323,3.85 2.87136,8.78264 3.99585,10.96144 1.12449,2.17879 2.02579,5.328793 2.00289,6.999993 l -0.0416,3.03856 -3.22117,-3.64221 c -1.77167,-2.00326 -5.56486,-7.922623 -8.42934,-13.154193 -10.78746,-19.70175 -21.59354,-34.88244 -31.40477,-44.11832 -10.8107,-10.17674 -17.9625,-14.4316 -34.12123,-20.29993 -11.50848,-4.17951 -12.10539,-4.28539 -24.15899,-4.28539 -11.84786,0 -12.84946,0.16844 -24.22011,4.07326 -14.40199,4.94581 -21.65053,8.87291 -31.98316,17.32776 -12.62377,10.32961 -37.378,36.79509 -37.378,39.96192 0,0.82548 -1.31596,2.43792 -2.92436,3.5832 -2.82645,2.0126 -5.1472,7.27767 -6.41509,14.553853 -0.78164,4.48567 -8.64105,24.25434 -10.60897,26.68463 -1.30542,1.61213 -2.35047,1.95717 -4.38286,1.44707 -3.1765,-0.79725 -3.38838,-2.8123 -0.69363,-6.59672 1.08631,-1.52557 2.40803,-3.91245 2.93716,-5.30418 0.79158,-2.082 0.64223,-2.61404 -0.84278,-3.00238 -2.9401,-0.76885 -3.21874,-11.18898 -0.48499,-18.136463 0.67841,-1.7241 0.39513,-1.85033 -2.93851,-1.30936 -15.79484,2.56315 -64.43075,41.146033 -82.84344,65.719713 -5.85215,7.81031 -18.205285,28.42542 -19.341665,32.27767 -0.36019,1.22101 -2.40244,6.06721 -4.53833,10.76933 -4.28267,9.42821 -7.89055,18.78564 -11.35512,29.45069 -1.25068,3.85 -2.98419,8.575 -3.85225,10.5 -1.42404,3.15792 -3.10618,9.4232 -7.38336,27.5 -0.78082,3.3 -2.13642,8.025 -3.01245,10.5 -4.47961,12.65603 -4.70318,15.11063 -4.59945,50.5 0.092,31.3822 0.26421,34.61595 2.237,42 3.70261,13.85869 4.96186,16.55929 8.41359,18.04384 2.55684,1.09967 3.31259,1.10904 4.12998,0.0512 0.55026,-0.71213 2.57526,-1.60709 4.5,-1.9888 z"
     id="line"
     style="fill:#000000;fill-opacity:1;filter:url(#filter3813)" />
  <text
     x="401.07892"
     y="1155.3895"
     id="kernel"
     xml:space="preserve"
     style="font-size:194.85678101px;font-style:normal;font-weight:normal;text-align:center;line-height:125%;letter-spacing:0px;word-spacing:0px;text-anchor:middle;fill:#000000;fill-opacity:1;stroke:none;font-family:Sans"><tspan
       x="401.07892"
       y="1155.3895"
       id="tspan3015">KERNEL</tspan></text>
</svg>
