<?xml version="1.0" standalone="no"?>
<!DOCTYPE svg PUBLIC "-//W3C//DTD SVG 1.1//EN"
"http://www.w3.org/Graphics/SVG/1.1/DTD/svg11.dtd">
<!-- Creator: fig2dev Version 3.2 Patchlevel 5-alpha7 -->
<!-- CreationDate: Thu Mar 16 10:18:58 2006 -->
<!-- Magnification: 1.000 -->
<svg xmlns="http://www.w3.org/2000/svg" width="4.8in" height="3.4in" viewBox="1263 694 5774 4128">
<g style="stroke-width:.025in; stroke:black; fill:none">
<!-- Line: box -->
<rect x="4575" y="1125" width="2250" height="3150" rx="105" 
style="stroke:#000000;stroke-width:7;
stroke-linejoin:miter; stroke-linecap:butt;
"/>
<!-- Line: box -->
<rect x="1575" y="2025" width="2100" height="300" rx="105" 
style="stroke:#000000;stroke-width:7;
stroke-linejoin:miter; stroke-linecap:butt;
"/>
<!-- Line: box -->
<rect x="1575" y="2625" width="2100" height="1500" rx="105" 
style="stroke:#000000;stroke-width:7;
stroke-linejoin:miter; stroke-linecap:butt;
"/>
<!-- Line: box -->
<rect x="1725" y="3525" width="1800" height="450" rx="105" 
style="stroke:#000000;stroke-width:7;
stroke-linejoin:miter; stroke-linecap:butt;
"/>
<!-- Line: box -->
<rect x="4725" y="2175" width="1950" height="1650" rx="105" 
style="stroke:#000000;stroke-width:7;
stroke-linejoin:miter; stroke-linecap:butt;
"/>
<!-- Line: box -->
<rect x="4875" y="3675" width="1650" height="450" rx="105" 
style="stroke:#000000;stroke-width:7;
stroke-linejoin:miter; stroke-linecap:butt;
"/>
<!-- Line: box -->
<rect x="1575" y="1425" width="2100" height="300" rx="105" 
style="stroke:#000000;stroke-width:7;
stroke-linejoin:miter; stroke-linecap:butt;
"/>
<!-- Line -->
<polygon points="1975,4150
1984,4184
1993,4216
2003,4247
2013,4277
2024,4306
2035,4334
2048,4361
2061,4387
2075,4412
2091,4436
2107,4459
2124,4481
2143,4502
2163,4523
2184,4542
2206,4560
2230,4578
2255,4595
2282,4610
2310,4625
2339,4639
2369,4652
2401,4664
2435,4676
2469,4686
2506,4696
2543,4705
2582,4713
2621,4721
2663,4728
2705,4735
2749,4741
2794,4746
2841,4751
2888,4756
2937,4760
2988,4764
3040,4768
3094,4772
3150,4775
3193,4778
3236,4780
3281,4782
3327,4785
3374,4787
3423,4789
3473,4791
3524,4794
3576,4796
3629,4798
3684,4799
3740,4801
3797,4803
3855,4804
3914,4805
3974,4807
4035,4808
4097,4809
4159,4809
4223,4810
4287,4810
4351,4810
4416,4810
4482,4810
4547,4810
4613,4809
4679,4808
4745,4807
4810,4806
4875,4804
4940,4802
5005,4800
5068,4798
5132,4795
5194,4792
5255,4789
5316,4786
5376,4782
5434,4778
5492,4774
5548,4770
5603,4765
5657,4760
5710,4755
5761,4749
5811,4744
5859,4738
5907,4731
5953,4725
5997,4718
6040,4711
6082,4703
6123,4696
6163,4688
6216,4675
6268,4663
6318,4649
6365,4635
6411,4619
6455,4604
6497,4587
6538,4569
6576,4551
6613,4532
6649,4512
6682,4491
6714,4469
6744,4447
6773,4424
6799,4401
6824,4377
6848,4352
6869,4327
6889,4302
6908,4277
6924,4251
6940,4225
6953,4199
6965,4173
6976,4147
6986,4121
6994,4095
7001,4070
7007,4044
7012,4019
7016,3994
7019,3970
7021,3945
7023,3921
7024,3897
7025,3874
7025,3850
7025,3822
7024,3794
7022,3766
7020,3738
7017,3710
7014,3682
7009,3654
7004,3625
6998,3596
6990,3568
6982,3539
6972,3511
6962,3482
6950,3454
6937,3427
6923,3399
6908,3373
6891,3346
6874,3321
6855,3296
6836,3273
6815,3250
6793,3228
6770,3207
6746,3187
6722,3168
6696,3150
6669,3133
6641,3117
6612,3102
6582,3088
6550,3075
6521,3064
6490,3053
6459,3043
6426,3034
6392,3024
6356,3016
6319,3007
6281,2999
6242,2992
6201,2984
6160,2977
6117,2970
6073,2964
6029,2958
5984,2952
5939,2946
5893,2941
5847,2935
5800,2930
5754,2925
5708,2921
5663,2916
5618,2911
5574,2907
5531,2902
5488,2898
5447,2894
5406,2889
5367,2885
5329,2880
5292,2876
5256,2871
5222,2866
5188,2861
5156,2856
5125,2850
5091,2843
5059,2836
5027,2829
4996,2821
4967,2812
4938,2802
4910,2792
4882,2782
4856,2770
4830,2758
4805,2745
4782,2731
4759,2717
4736,2702
4715,2686
4695,2669
4676,2651
4658,2633
4641,2615
4624,2595
4609,2575
4595,2555
4582,2534
4570,2513
4559,2491
4548,2469
4539,2446
4530,2423
4521,2399
4514,2375
4507,2350
4500,2325
4494,2299
4488,2272
4482,2244
4477,2215
4472,2185
4467,2154
4462,2122
4458,2089
4453,2055
4449,2020
4445,1985
4441,1949
4437,1912
4433,1875
4429,1838
4425,1800
4421,1762
4417,1725
4413,1688
4409,1651
4405,1615
4401,1580
4397,1545
4392,1511
4388,1478
4383,1446
4378,1415
4373,1385
4368,1356
4362,1328
4356,1301
4350,1275
4342,1246
4334,1218
4325,1191
4315,1164
4305,1138
4293,1112
4281,1087
4267,1063
4253,1039
4237,1016
4220,994
4202,972
4182,951
4162,931
4140,912
4118,894
4094,877
4069,861
4044,846
4017,831
3990,818
3962,806
3933,795
3903,784
3873,775
3841,766
3809,758
3775,750
3746,744
3716,739
3686,733
3654,729
3621,724
3586,720
3551,717
3514,713
3477,711
3438,709
3399,707
3358,706
3317,706
3276,706
3233,707
3191,709
3148,711
3106,714
3063,718
3021,723
2979,728
2937,734
2897,741
2857,748
2818,757
2779,766
2742,775
2706,786
2671,797
2637,808
2605,821
2573,834
2542,848
2513,863
2487,876
2461,891
2437,907
2412,923
2389,940
2365,959
2342,978
2320,999
2298,1020
2276,1043
2255,1067
2234,1092
2214,1119
2194,1146
2174,1175
2155,1205
2137,1236
2119,1268
2102,1302
2086,1336
2070,1371
2055,1407
2040,1444
2027,1482
2014,1520
2001,1560
1989,1599
1978,1640
1968,1681
1958,1722
1949,1764
1940,1807
1932,1850
1925,1894
1918,1938
1912,1983
1906,2028
1900,2075
1895,2116
1891,2158
1887,2201
1883,2244
1880,2289
1877,2334
1874,2381
1871,2428
1869,2477
1867,2526
1865,2576
1863,2627
1862,2679
1861,2732
1860,2785
1860,2839
1860,2893
1861,2947
1861,3002
1862,3057
1864,3112
1865,3167
1867,3221
1870,3275
1872,3329
1875,3382
1878,3434
1882,3486
1886,3537
1890,3586
1894,3635
1899,3682
1904,3728
1909,3773
1915,3817
1921,3859
1926,3900
1933,3940
1939,3978
1946,4015
1953,4051
1960,4085
1967,4118
1975,4150
" style="stroke:#000000;stroke-width:7;
stroke-linejoin:bevel; stroke-linecap:butt;
"/>
<!-- Text -->
<text xml:space="preserve" x="3600" y="4725" stroke="#000000" fill="#000000"  font-family="Times" font-style="normal" font-weight="normal" font-size="144" text-anchor="start">Liberamente Scaricabile</text>
<!-- Text -->
<text xml:space="preserve" x="1500" y="1200" stroke="#000000" fill="#000000"  font-family="Times" font-style="normal" font-weight="normal" font-size="144" text-anchor="start">Software Libero</text>
<!-- Text -->
<text xml:space="preserve" x="2100" y="1650" stroke="#000000" fill="#000000"  font-family="Times" font-style="normal" font-weight="normal" font-size="144" text-anchor="start">Pubblico Dominio</text>
<!-- Text -->
<text xml:space="preserve" x="2100" y="2250" stroke="#000000" fill="#000000"  font-family="Times" font-style="normal" font-weight="normal" font-size="144" text-anchor="start">Tipo XFree86</text>
<!-- Text -->
<text xml:space="preserve" x="2100" y="3000" stroke="#000000" fill="#000000"  font-family="Times" font-style="normal" font-weight="normal" font-size="144" text-anchor="start">Permesso d'Autore</text>
<!-- Text -->
<text xml:space="preserve" x="2100" y="3825" stroke="#000000" fill="#000000"  font-family="Times" font-style="normal" font-weight="normal" font-size="144" text-anchor="start">GPL</text>
<!-- Text -->
<text xml:space="preserve" x="2775" y="4350" stroke="#000000" fill="#000000"  font-family="Times" font-style="normal" font-weight="normal" font-size="144" text-anchor="start">Open Source</text>
<!-- Text -->
<text xml:space="preserve" x="5325" y="3975" stroke="#000000" fill="#000000"  font-family="Times" font-style="normal" font-weight="normal" font-size="144" text-anchor="start">Shareware</text>
<!-- Text -->
<text xml:space="preserve" x="5400" y="2775" stroke="#000000" fill="#000000"  font-family="Times" font-style="normal" font-weight="normal" font-size="144" text-anchor="start">Chiuso</text>
<!-- Text -->
<text xml:space="preserve" x="5175" y="1575" stroke="#000000" fill="#000000"  font-family="Times" font-style="normal" font-weight="normal" font-size="144" text-anchor="start">Proprietario</text>
<!-- Line: box -->
<rect x="1425" y="1275" width="2550" height="3150" rx="105" 
style="stroke:#000000;stroke-width:7;
stroke-linejoin:miter; stroke-linecap:butt;
"/>
<!-- Line: box -->
<rect x="1275" y="1050" width="2550" height="3150" rx="105" 
style="stroke:#000000;stroke-width:7;
stroke-linejoin:miter; stroke-linecap:butt;
"/>
</g>
</svg>
