<?xml version="1.0" encoding="UTF-8" standalone="no"?>
<!-- Creator: fig2dev Version 3.2 Patchlevel 5e -->

<!-- CreationDate: Thu Apr 14 21:33:34 2016 -->

<!-- Magnification: 1.700 -->

<svg
   xmlns:dc="http://purl.org/dc/elements/1.1/"
   xmlns:cc="http://creativecommons.org/ns#"
   xmlns:rdf="http://www.w3.org/1999/02/22-rdf-syntax-ns#"
   xmlns:svg="http://www.w3.org/2000/svg"
   xmlns="http://www.w3.org/2000/svg"
   xmlns:sodipodi="http://sodipodi.sourceforge.net/DTD/sodipodi-0.dtd"
   xmlns:inkscape="http://www.inkscape.org/namespaces/inkscape"
   width="7.1in"
   height="5.4in"
   viewBox="2147 1339 8498 6500"
   id="svg3004"
   version="1.1"
   inkscape:version="0.48.4 r9939"
   sodipodi:docname="">
  <metadata
     id="metadata3058">
    <rdf:RDF>
      <cc:Work
         rdf:about="">
        <dc:format>image/svg+xml</dc:format>
        <dc:type
           rdf:resource="http://purl.org/dc/dcmitype/StillImage" />
        <dc:title></dc:title>
      </cc:Work>
    </rdf:RDF>
  </metadata>
  <defs
     id="defs3056" />
  <sodipodi:namedview
     pagecolor="#ffffff"
     bordercolor="#666666"
     borderopacity="1"
     objecttolerance="10"
     gridtolerance="10"
     guidetolerance="10"
     inkscape:pageopacity="0"
     inkscape:pageshadow="2"
     inkscape:window-width="1573"
     inkscape:window-height="830"
     id="namedview3054"
     showgrid="false"
     inkscape:zoom="1"
     inkscape:cx="323.55"
     inkscape:cy="289.8375"
     inkscape:window-x="10"
     inkscape:window-y="10"
     inkscape:window-maximized="0"
     inkscape:current-layer="svg3004" />
  <rect
     id="rect3008"
     style="fill:none;stroke:#000000;stroke-width:12;stroke-linecap:butt;stroke-linejoin:miter"
     rx="178"
     height="807"
     width="3570"
     y="3442"
     x="2677" />
  <rect
     id="rect3010"
     style="fill:none;stroke:#000000;stroke-width:12;stroke-linecap:butt;stroke-linejoin:miter"
     rx="178"
     height="850"
     width="3570"
     y="2422"
     x="2677" />
  <rect
     id="rect3012"
     style="fill:none;stroke:#000000;stroke-width:12;stroke-linecap:butt;stroke-linejoin:miter"
     rx="178"
     height="765"
     width="2805"
     y="5698.646"
     x="6979.5059" />
  <rect
     id="rect3014"
     style="fill:none;stroke:#000000;stroke-width:12;stroke-linecap:butt;stroke-linejoin:miter"
     rx="178"
     height="765"
     width="3060"
     y="5227"
     x="2932" />
  <rect
     id="rect3016"
     style="fill:none;stroke:#000000;stroke-width:12;stroke-linecap:butt;stroke-linejoin:miter"
     rx="178"
     height="1912"
     width="3570"
     y="4462"
     x="2677" />
  <rect
     id="rect3018"
     style="fill:none;stroke:#000000;stroke-width:12;stroke-linecap:butt;stroke-linejoin:miter"
     rx="178"
     height="1487"
     width="2805"
     y="3740"
     x="7140" />
  <rect
     id="rect3020"
     style="fill:none;stroke:#000000;stroke-width:12;stroke-linecap:butt;stroke-linejoin:miter"
     rx="0"
     height="6460"
     width="4122"
     y="1360"
     x="6502" />
  <polygon
     id="polygon3022"
     style="fill:none;stroke:#000000;stroke-width:12;stroke-linecap:butt;stroke-linejoin:bevel"
     points="3546,6840 3580,6890 3614,6936 3651,6981 3689,7026 3729,7068 3772,7109 3818,7148 3864,7187 3913,7223 3964,7259 4017,7291 4073,7323 4131,7354 4190,7383 4251,7412 4314,7437 4379,7463 4447,7486 4515,7508 4584,7529 4656,7548 4729,7565 4802,7582 4877,7597 4953,7610 5030,7624 5106,7636 5185,7646 5263,7656 5341,7665 5421,7673 5501,7680 5581,7687 5661,7694 5742,7699 5825,7704 5909,7709 5992,7714 6067,7718 6142,7721 6218,7724 6296,7728 6375,7729 6454,7733 6536,7735 6619,7738 6704,7740 6789,7741 6876,7743 6964,7743 7053,7743 7143,7745 7233,7743 7325,7743 7417,7741 7510,7740 7602,7738 7695,7735 7789,7733 7881,7728 7973,7724 8064,7719 8154,7714 8245,7707 8333,7701 8421,7694 8506,7685 8590,7677 8673,7668 8753,7658 8831,7648 8908,7638 8982,7626 9054,7614 9123,7602 9191,7588 9256,7575 9319,7559 9378,7544 9436,7529 9492,7512 9547,7495 9598,7476 9647,7459 9705,7435 9758,7410 9810,7384 9858,7355 9905,7327 9950,7298 9990,7265 10030,7233 10067,7199 10101,7163 10133,7126 10162,7089 10189,7049 10215,7010 10237,6968 10257,6927 10274,6885 10290,6840 10302,6798 10312,6754 10319,6709 10324,6664 10327,6619 10329,6575 10327,6531 10324,6488 10319,6444 10310,6402 10302,6359 10291,6318 10279,6278 10266,6237 10251,6198 10234,6160 10217,6123 10198,6086 10177,6048 10157,6014 10128,5968 10099,5926 10067,5882 10033,5839 9997,5797 9958,5754 9919,5713 9877,5672 9832,5632 9786,5591 9737,5550 9688,5511 9637,5474 9586,5434 9533,5399 9479,5363 9424,5329 9370,5297 9316,5264 9261,5234 9207,5207 9154,5179 9101,5154 9049,5130 8998,5106 8947,5086 8897,5066 8850,5049 8802,5030 8755,5015 8700,4998 8647,4981 8595,4965 8540,4952 8488,4938 8435,4926 8381,4914 8326,4904 8273,4894 8219,4884 8166,4875 8114,4867 8061,4860 8010,4851 7961,4845 7913,4839 7865,4833 7821,4828 7777,4821 7736,4816 7695,4811 7658,4805 7622,4799 7587,4794 7554,4787 7522,4782 7488,4773 7456,4765 7423,4756 7393,4744 7362,4732 7333,4720 7304,4705 7276,4688 7250,4669 7223,4649 7199,4627 7175,4603 7153,4578 7133,4549 7112,4518 7095,4486 7080,4454 7065,4418 7053,4380 7043,4341 7032,4301 7024,4256 7017,4212 7012,4165 7009,4125 7005,4083 7004,4039 7002,3993 7002,3945 7000,3896 7000,3843 7002,3791 7002,3734 7004,3677 7005,3617 7007,3558 7010,3496 7012,3435 7015,3372 7017,3309 7021,3248 7022,3185 7026,3124 7027,3065 7031,3005 7032,2947 7034,2891 7036,2837 7036,2786 7036,2735 7036,2686 7036,2638 7034,2594 7034,2550 7031,2507 7027,2466 7024,2427 7019,2388 7014,2351 7007,2313 6998,2278 6988,2244 6976,2210 6964,2176 6949,2143 6932,2113 6913,2082 6895,2053 6871,2026 6847,1999 6822,1975 6793,1951 6764,1929 6732,1907 6698,1888 6664,1870 6626,1853 6587,1837 6545,1822 6502,1808 6458,1796 6410,1785 6363,1773 6312,1764 6266,1756 6220,1747 6171,1740 6120,1734 6067,1728 6012,1723 5955,1718 5897,1713 5836,1710 5773,1706 5708,1703 5642,1701 5574,1700 5506,1700 5434,1700 5365,1700 5293,1701 5222,1705 5149,1708 5077,1711 5006,1717 4936,1723 4865,1730 4797,1737 4729,1745 4663,1754 4600,1764 4537,1776 4476,1786 4416,1800 4358,1812 4304,1827 4250,1841 4199,1858 4149,1873 4102,1892 4052,1910 4005,1931 3959,1953 3915,1977 3872,2002 3830,2029 3789,2057 3750,2087 3711,2121 3673,2155 3638,2193 3604,2232 3570,2272 3537,2315 3507,2361 3478,2408 3449,2458 3422,2510 3396,2563 3372,2619 3350,2675 3330,2735 3309,2794 3291,2856 3274,2920 3258,2983 3243,3049 3230,3116 3218,3185 3206,3253 3194,3325 3184,3398 3175,3473 3167,3549 3160,3612 3153,3677 3146,3743 3141,3811 3136,3882 3131,3954 3126,4027 3122,4103 3119,4180 3116,4260 3114,4340 3112,4421 3111,4505 3111,4590 3112,4676 3114,4763 3116,4850 3119,4938 3122,5026 3128,5115 3133,5203 3139,5292 3148,5380 3156,5467 3167,5552 3177,5637 3189,5720 3201,5802 3214,5883 3230,5961 3245,6038 3262,6113 3279,6184 3298,6256 3318,6324 3338,6388 3360,6453 3383,6514 3406,6572 3432,6630 3457,6684 3485,6737 3485,6737 3515,6789 " />
  <text
     style="font-size:245px;font-style:normal;font-weight:normal;text-anchor:start;fill:#000000;stroke-width:0.02500000000000000in;font-family:FreeSerif;-inkscape-font-specification:FreeSerif"
     id="text3024"
     font-size="245"
     font-weight="normal"
     font-style="normal"
     y="1805.0618"
     x="2475.498"
     xml:space="preserve">logiciel libre</text>
  <text
     style="font-size:245px;font-style:normal;font-weight:normal;text-anchor:start;fill:#000000;stroke-width:0.025in;font-family:Times"
     id="text3026"
     font-size="245"
     font-weight="normal"
     font-style="normal"
     y="2550"
     x="7650"
     xml:space="preserve"><tspan
       style="-inkscape-font-specification:FreeSerif;font-family:FreeSerif"
       id="tspan3113">logiciel privateur</tspan></text>
  <text
     style="font-size:245px;font-style:normal;font-weight:normal;text-anchor:start;fill:#000000;stroke-width:0.025in;font-family:Times"
     id="text3028"
     font-size="245"
     font-weight="normal"
     font-style="normal"
     y="2828.8726"
     x="3503.0698"
     xml:space="preserve"><tspan
       style="font-family:FreeSerif;-inkscape-font-specification:FreeSerif"
       id="tspan3109">logiciel du domaine public</tspan></text>
  <text
     style="font-size:245px;font-style:normal;font-weight:normal;text-anchor:start;fill:#000000;stroke-width:0.025in;font-family:Times"
     id="text3030"
     font-size="245"
     font-weight="normal"
     font-style="normal"
     y="3068.5637"
     x="3966.3169"
     xml:space="preserve"><tspan
       style="font-family:FreeSerif;-inkscape-font-specification:FreeSerif"
       id="tspan3111">(avec les sources)</tspan></text>
  <text
     style="font-size:245px;font-style:normal;font-weight:normal;text-anchor:start;fill:#000000;stroke-width:0.025in;font-family:Times"
     id="text3032"
     font-size="245"
     font-weight="normal"
     font-style="normal"
     y="5654.8765"
     x="3620.6792"
     xml:space="preserve"><tspan
       style="font-family:FreeSerif;-inkscape-font-specification:FreeSerif"
       id="tspan3101">logiciel sous GPL</tspan></text>
  <text
     style="font-size:245px;font-style:normal;font-weight:normal;text-anchor:start;fill:#000000;stroke-width:0.025in;font-family:Times"
     id="text3034"
     font-size="245"
     font-weight="normal"
     font-style="normal"
     y="6866.7075"
     x="6953.8066"
     xml:space="preserve"><tspan
       style="font-family:FreeSerif;-inkscape-font-specification:FreeSerif"
       id="tspan3093">logiciel en téléchargement gratuit</tspan></text>
  <text
     style="font-size:245px;font-style:normal;font-weight:normal;text-anchor:start;fill:#000000;stroke-width:0.025in;font-family:Times"
     id="text3036"
     font-size="245"
     font-weight="normal"
     font-style="normal"
     y="6853.498"
     x="3996.9341"
     xml:space="preserve">logiciel open source</text>
  <text
     style="font-size:245px;font-style:normal;font-weight:normal;text-anchor:start;fill:#000000;stroke-width:0.025in;font-family:Times"
     id="text3038"
     font-size="245"
     font-weight="normal"
     font-style="normal"
     y="4909.3745"
     x="3496.4404"
     xml:space="preserve"><tspan
       style="font-family:FreeSerif;-inkscape-font-specification:FreeSerif"
       id="tspan3103">logiciel « copylefté »</tspan></text>
  <text
     style="font-size:245px;font-style:normal;font-weight:normal;text-anchor:start;fill:#000000;stroke-width:0.025in;font-family:Times"
     id="text3040"
     font-size="245"
     font-weight="normal"
     font-style="normal"
     y="4425.8027"
     x="7267.9424"
     xml:space="preserve"><tspan
       style="font-family:FreeSerif;-inkscape-font-specification:FreeSerif"
       id="tspan3097">logiciel du domaine public</tspan></text>
  <text
     style="font-size:245px;font-style:normal;font-weight:normal;text-anchor:start;fill:#000000;stroke-width:0.025in;font-family:Times"
     id="text3042"
     font-size="245"
     font-weight="normal"
     font-style="normal"
     y="4670.2471"
     x="7779.8765"
     xml:space="preserve"><tspan
       style="font-family:FreeSerif;-inkscape-font-specification:FreeSerif"
       id="tspan3099">(sans les sources)</tspan></text>
  <text
     style="font-size:245px;font-style:normal;font-weight:normal;text-anchor:start;fill:#000000;stroke-width:0.025in;font-family:Times"
     id="text3044"
     font-size="245"
     font-weight="normal"
     font-style="normal"
     y="6139.897"
     x="7332.7158"
     xml:space="preserve"><tspan
       style="font-family:FreeSerif;-inkscape-font-specification:FreeSerif"
       id="tspan3095">partagiciel (shareware)</tspan></text>
  <text
     style="font-size:245px;font-style:normal;font-weight:normal;text-anchor:start;fill:#000000;stroke-width:0.025in;font-family:Times"
     id="text3046"
     font-size="245"
     font-weight="normal"
     font-style="normal"
     y="3773.4363"
     x="3893.8069"
     xml:space="preserve"><tspan
       style="font-family:FreeSerif;-inkscape-font-specification:FreeSerif"
       id="tspan3105">logiciel sous</tspan></text>
  <text
     style="font-size:245px;font-style:normal;font-weight:normal;text-anchor:start;fill:#000000;stroke-width:0.025in;font-family:Times"
     id="text3048"
     font-size="245"
     font-weight="normal"
     font-style="normal"
     y="4059.9382"
     x="3239.5061"
     xml:space="preserve"><tspan
       style="font-family:FreeSerif;-inkscape-font-specification:FreeSerif"
       id="tspan3107">licence permissive (laxiste)</tspan></text>
  <rect
     id="rect3050"
     style="fill:none;stroke:#000000;stroke-width:12;stroke-linecap:butt;stroke-linejoin:miter"
     rx="178"
     height="4972"
     width="4335"
     y="2167"
     x="2422" />
  <rect
     id="rect3052"
     style="fill:none;stroke:#000000;stroke-width:12;stroke-linecap:butt;stroke-linejoin:miter"
     rx="0"
     height="6460"
     width="4335"
     y="1360"
     x="2167" />
  <text
     xml:space="preserve"
     style="font-size:40px;font-style:normal;font-variant:normal;font-weight:normal;font-stretch:normal;text-align:center;line-height:125%;letter-spacing:0px;word-spacing:0px;writing-mode:lr-tb;text-anchor:middle;fill:#000000;fill-opacity:1;stroke:none;font-family:Archivo Narrow;-inkscape-font-specification:Archivo Narrow"
     x="377.5"
     y="452.5"
     id="text3087"
     sodipodi:linespacing="125%"
     transform="matrix(13.374486,0,0,13.374486,2122.8519,1339)"><tspan
       sodipodi:role="line"
       id="tspan3089"
       x="377.5"
       y="452.5"
       style="font-size:18px" /></text>
</svg>
