<?xml version="1.0" encoding="UTF-8" standalone="no"?>
<!-- Created with Inkscape (http://www.inkscape.org/) -->
<svg
   xmlns:svg="http://www.w3.org/2000/svg"
   xmlns="http://www.w3.org/2000/svg"
   version="1.0"
   width="11in"
   height="8.5in"
   viewBox="0 0 11 8.5"
   id="svg2012"
   xml:space="preserve">
 <defs
   id="defs2014">
  <style
   type="text/css"
   id="style2016" />
 </defs>
 <g
   id="Layer_x0020_1">
  
  <path
   d="M 7.3626,4.67505 C 5.79674,5.361081 5.00814,4.078924 3.63646,4.7190736 L 3.63646,2.2434136 C 3.63646,2.1502561 3.7126805,2.0740436 3.80583,2.0740436 L 7.19323,2.0740436 C 7.2863796,2.0740436 7.3626,2.150268 7.3626,2.2434136 L 7.3626,4.4426536 L 7.3626,4.6750476 L 7.3626,4.67505 z "
   style="fill:#d5d4d4"
   id="path2020" />
  <path
   d="M 6.63763,4.94447 C 6.887721,4.9180999 7.131721,4.8510881 7.363547,4.755324 L 7.363547,4.924336 C 7.025275,5.05095 6.668421,5.094982 6.306507,5.060828 C 5.861743,4.9961941 5.459318,4.823155 5.034527,4.6871 L 5.0069994,4.6790528 C 5.1948064,4.7226315 5.3795784,4.7775489 5.5660384,4.8263088 C 5.9214164,4.9192379 6.2712984,4.9782928 6.6376284,4.9444698 L 6.63763,4.94447 z "
   style="fill:#ed6e00"
   id="path2022" />
  <path
   d="M 3.80583,6.42595 L 7.19323,6.42595 C 7.2863835,6.42595 7.3626,6.3497059 7.3626,6.25658 L 7.3626,5.00626 C 5.74536,5.57302 5.05741,4.228917 3.63646,4.768075 L 3.63646,5.000807 L 3.63646,5.0455944 L 3.63646,6.2565744 C 3.63646,6.3497279 3.7126765,6.4259444 3.80583,6.4259444 L 3.80583,6.42595 z "
   style="fill:#002940"
   id="path2024" />
  <path
   d="M 4.13952,3.89909 C 4.1727798,3.8717199 4.2084491,3.8383105 4.2294176,3.795027 C 4.2443546,3.7641845 4.2494806,3.7330427 4.2365869,3.704216 C 4.2761145,3.7666254 4.21502,3.842338 4.2011026,3.902917 C 4.187201,3.9860902 4.2293861,4.026893 4.2668152,4.073134 C 4.2458703,4.0336812 4.2474451,3.954 4.2898506,3.898992 C 4.4015356,3.894307 4.4725986,3.8407282 4.5111066,3.707484 C 4.517205,3.6863777 4.5378979,3.584386 4.5767247,3.617921 C 4.609142,3.6459131 4.5372759,3.761701 4.481768,3.817464 C 4.5393349,3.8012278 4.593689,3.7889443 4.634016,3.7410979 C 4.5429018,3.8588779 4.5440042,3.9878499 4.624016,4.0976919 C 4.5961538,3.9278689 4.6979058,3.7925379 4.872725,3.7964869 C 4.8366541,3.7004475 4.9564337,3.6096799 4.9629927,3.6831879 C 4.9674494,3.7882189 5.0087486,3.8706999 5.0344691,3.9067039 C 4.9975833,3.6722789 5.0740321,3.3408889 5.2943151,3.2177979 C 5.2451616,3.0983019 5.2643978,3.0248219 5.323819,2.9108219 C 5.22024,2.8913928 5.127248,2.8679125 5.030106,2.834814 C 4.9756139,2.816251 4.917728,2.7863219 4.861004,2.7726683 C 4.8183426,2.7636092 4.7766221,2.7584439 4.732973,2.7581329 C 4.7803391,2.7146172 4.7941817,2.6442389 4.7945084,2.5826129 C 4.7920045,2.4472229 4.79791,2.4521999 4.9492604,2.4124279 C 4.8460954,2.4006759 4.7732604,2.3857468 4.7126694,2.4811602 C 4.6803308,2.5381759 4.6882088,2.6018532 4.6610237,2.6593292 C 4.6023387,2.6505457 4.5560117,2.5966796 4.4983387,2.5785142 C 4.4135631,2.551841 4.3334217,2.6035969 4.2769527,2.6608922 C 4.253681,2.6844985 4.2330354,2.711404 4.1997677,2.6901757 C 4.0802517,2.6139159 4.1598307,2.4680577 4.2557716,2.4097777 L 4.349059,2.359695 C 4.3020472,2.3649194 4.2547519,2.365569 4.210106,2.381632 C 4.064177,2.4418603 3.927874,2.633833 4.078661,2.758671 C 4.0335704,2.8081434 4.0209208,2.883852 3.975102,2.938592 C 3.9677595,2.9473637 3.9636256,2.9488125 3.9656414,2.9613203 C 3.9854918,3.0213912 3.9747831,3.0220841 3.966976,3.0515565 C 3.9555587,3.0946431 3.9318303,3.1366904 3.919102,3.1787965 C 3.8878855,3.2820765 3.8696768,3.3892685 3.852413,3.4955915 C 3.8417043,3.56156 3.7938106,3.7370875 3.8555626,3.7588195 C 3.8572359,3.8061345 3.9265311,3.8290754 3.9653456,3.8060439 C 4.0065779,3.8245163 4.0351291,3.8473549 4.0729756,3.8323628 C 4.0841016,3.8271817 4.1013378,3.8086148 4.117137,3.7920045 C 4.130074,3.7784061 4.1556449,3.7286738 4.1686527,3.77841 C 4.1780425,3.8143155 4.1594519,3.8663391 4.1395188,3.899087 L 4.13952,3.89909 z "
   style="fill:white"
   id="path2026" />
  <path
   d="M 4.01954,3.67292 C 4.0024613,3.7143688 3.9624691,3.7096129 3.9578825,3.6689594 C 3.9550912,3.6441799 3.9767683,3.6466759 3.9745164,3.6655735 C 3.9716109,3.6899357 3.9905755,3.7100538 4.01954,3.67292 z M 4.0325164,3.544424 C 3.9634534,3.5546681 3.9283664,3.6001051 3.9115754,3.659853 C 3.9739573,3.55153 4.0485514,3.6199987 3.9969376,3.6718609 C 4.0346502,3.6597034 4.0461108,3.5955184 3.999662,3.5810105 C 3.999662,3.5810105 3.97754,3.57129 4.0325163,3.5444239 L 4.0325164,3.544424 z M 4.4066894,3.4996563 C 4.4735634,3.4616248 4.5514494,3.4873571 4.5904614,3.539487 C 4.4853274,3.5419437 4.4622684,3.659778 4.4483474,3.703385 C 4.4474852,3.6271448 4.4284576,3.59659 4.3807332,3.567688 C 4.4051741,3.671763 4.3771033,3.72594 4.3134458,3.772357 C 4.3323749,3.7168491 4.3277923,3.651711 4.2737568,3.617593 C 4.3107922,3.5943568 4.3218277,3.499888 4.4066898,3.499656 L 4.4066894,3.4996563 z M 4.4060713,3.4965539 C 4.3379138,3.4866642 4.3007723,3.5432389 4.2536623,3.5806326 C 4.2254025,3.6030657 4.176493,3.6260224 4.1295953,3.6196562 C 4.1081268,3.7226522 4.0441859,3.7817942 3.9713313,3.7955062 L 4.0383116,3.8194944 C 4.0851738,3.8200259 4.1054848,3.778955 4.1277683,3.735833 C 4.193599,3.608455 4.2709573,3.627577 4.2677053,3.7588212 C 4.2657801,3.8366283 4.1749218,3.8970382 4.2406069,4.0190972 C 4.2143392,3.8212542 4.3812169,3.8783022 4.4061109,3.7034912 C 4.4228117,3.8084632 4.3777763,3.8390072 4.3111463,3.8807112 C 4.5429183,3.8149238 4.4600003,3.5805262 4.5741773,3.5797502 C 4.6188269,3.5794471 4.6301773,3.6897342 4.529008,3.7865412 C 4.6014135,3.7592381 4.642114,3.7151396 4.656815,3.6343952 C 4.6572796,3.6014976 4.7032126,3.6746078 4.6806418,3.7030763 C 4.5912442,3.8158593 4.5568938,3.9337373 4.611941,4.0448123 C 4.5822048,3.8905923 4.728323,3.7723873 4.844835,3.7782923 C 4.8413626,3.6254463 4.989492,3.5988083 4.986213,3.6678983 C 4.9831264,3.73304 4.9939335,3.7729733 5.0116776,3.8356933 C 4.9893902,3.6239213 5.0688311,3.3143193 5.2721496,3.2100713 C 5.2412087,3.1360398 5.224752,3.0595043 5.2972992,2.9237213 C 5.2351496,2.9127804 5.1795232,2.9000087 5.1300122,2.8811859 C 5.1320279,2.8875048 5.1385673,2.8994024 5.1411776,2.9057804 C 5.105902,2.883371 4.9687166,2.8296584 4.9250556,2.8241623 C 4.9304414,2.8207726 4.9465399,2.8219537 4.9515674,2.8173907 C 4.8686304,2.7889261 4.7880794,2.769119 4.6900124,2.7776387 C 4.7161817,2.7892293 4.7291541,2.8026269 4.7375793,2.8152135 C 4.7868234,2.8887922 4.5986813,2.9502295 4.8125793,2.9297765 C 5.0001303,2.9118434 5.1512093,2.9885009 5.1085203,3.1914535 C 5.0061343,3.3075715 4.9864613,3.4160715 4.9775713,3.5690475 C 4.8084693,3.5301066 4.8295283,3.7437645 4.6913153,3.7705275 C 4.781835,3.6209565 4.6664334,3.4361655 4.5176263,3.4393105 C 4.5709491,3.3588577 4.5681814,3.2535235 4.5056302,3.1463105 C 4.5709019,3.3156885 4.5101853,3.4267355 4.4060711,3.4965505 L 4.4060713,3.4965539 z M 3.9418033,3.3121409 C 3.9632246,3.2139204 3.9990631,3.1590859 4.0295946,3.1120469 C 4.0503387,3.0800902 4.0357993,3.0179445 4.0275474,2.9682829 C 4.0687797,2.9914679 4.0841025,2.8026849 4.2250944,2.7830739 C 4.2513661,2.7751172 4.3013818,2.8072156 4.3493034,2.7722668 C 4.3487364,2.7670857 4.3545396,2.7523888 4.3604924,2.7461526 C 4.4195554,2.6842313 4.4684644,2.719562 4.5140984,2.7449912 C 4.6612004,2.8269085 4.7736064,2.7597629 4.7769174,2.5885342 C 4.7781024,2.5273649 4.7503308,2.4436402 4.8541339,2.4192742 C 4.8043583,2.4119435 4.7145909,2.4521915 4.7004139,2.5750422 C 4.6808312,2.7448222 4.5985479,2.7215462 4.5627169,2.7150622 C 4.6031618,2.7177945 4.639209,2.7073772 4.6577287,2.6766016 C 4.5555117,2.6671685 4.4813547,2.4699996 4.2558667,2.7075032 C 4.237162,2.727204 4.1810202,2.7180308 4.173784,2.7188339 C 4.1488273,2.7193812 4.1294927,2.731578 4.1089927,2.7510229 C 4.1228864,2.7171568 4.1516935,2.7035623 4.1802368,2.698078 C 4.0750518,2.6188063 4.1216935,2.457129 4.2607368,2.387188 C 4.1750478,2.3934046 4.0210438,2.513184 4.0288788,2.644216 C 4.0308512,2.6771806 4.0527686,2.7126097 4.0840717,2.7402199 C 4.0885441,2.7441648 4.0972056,2.7516136 4.1004654,2.7604325 C 4.0658315,2.791712 4.0604378,2.8276451 4.0414575,2.8702715 C 4.0305717,2.8947164 4.0030126,2.9338581 3.9826977,2.9567124 C 3.9824811,2.9577164 4.006989,2.979051 3.9906425,3.0519644 C 3.9864063,3.060181 3.9741582,3.0801731 3.9695047,3.0909014 C 3.9256346,3.1920114 3.8977527,3.3245624 3.8697606,3.4984324 C 3.8626347,3.5427001 3.8315834,3.6991644 3.8467134,3.7232674 C 3.8508749,3.7298934 3.8576465,3.7442241 3.8744496,3.7509367 C 3.8649851,3.77498 3.897859,3.7901178 3.9322488,3.7945548 C 4.0082134,3.7695902 4.0718198,3.7307556 4.0927058,3.6628738 C 4.0562649,3.7209092 3.9751228,3.7682128 3.9350598,3.7624919 C 3.9267094,3.761299 3.9080007,3.7591179 3.9087606,3.729795 C 3.8733551,3.7150233 3.8749299,3.6635667 3.8876267,3.622437 C 3.9013117,3.5780984 3.9375125,3.5283425 3.976607,3.504547 C 3.9505125,3.507051 3.9265598,3.5165982 3.9101031,3.5368698 C 3.9283629,3.4483344 3.987422,3.3504288 4.0282051,3.3092088 C 4.0751736,3.2617324 4.0345792,3.2010948 4.0268784,3.1659288 C 4.0054729,3.1897162 3.9649453,3.2491965 3.9418036,3.3121418 L 3.9418033,3.3121409 z M 4.3717483,2.8656719 C 4.4181932,2.7586599 4.6653623,2.7890932 4.6560913,2.8242546 C 4.6328551,2.9123452 4.5816189,3.0060816 4.4958743,2.9893686 C 4.4460082,2.9796482 4.4179255,2.9118765 4.3293433,2.9322072 C 4.4052724,2.9003607 4.4333273,2.9330379 4.4904933,2.9586285 C 4.5476626,2.9842191 4.6041393,2.9235498 4.6264223,2.8606482 C 4.6396585,2.8232821 4.538379,2.7778451 4.4896503,2.8241639 C 4.4490755,2.8627308 4.4620991,2.8818214 4.4441975,2.8786206 L 4.3717487,2.8656718 L 4.3717483,2.8656719 z M 4.1750513,3.8512069 C 4.2044922,3.8171282 4.2261891,3.7771321 4.2224883,3.7347309 C 4.2179529,3.6826915 4.1694883,3.6940419 4.1488741,3.7366286 C 4.1975513,3.7292152 4.2032127,3.7951562 4.1750513,3.8512076 L 4.1750513,3.8512069 z "
   style="fill:#002940"
   id="path2028" />
  <path
   d="M 4.08573,3.12276 C 4.1328835,3.0287049 4.1833166,2.982055 4.240872,2.957512 C 4.2045452,2.9926419 4.1766122,3.0433742 4.1680216,3.078807 C 4.1471555,3.0846928 4.1116043,3.1018621 4.0857303,3.1227598 L 4.08573,3.12276 z "
   style="fill:#666"
   id="path2030" />
  <path
   d="M 4.27865,2.82634 C 4.130339,2.8762494 4.137323,2.964135 4.139394,2.997348 C 4.1182247,3.021537 4.0858586,3.0737574 4.0702877,3.113643 C 4.0670554,3.0704973 4.0771263,2.860009 4.2786497,2.82634 L 4.27865,2.82634 z "
   style="fill:black"
   id="path2032" />
  <path
   d="M 5.16723,3.71978 L 5.1615922,3.7176816 L 5.156041,3.7152249 L 5.1505883,3.7123902 L 5.1452379,3.7091619 L 5.1400017,3.7055241 L 5.1349032,3.7014729 L 5.1299741,3.6969887 L 5.1252103,3.6920477 L 5.1206512,3.6866422 L 5.1163087,3.6807721 L 5.1122221,3.6744099 L 5.1083914,3.6675398 L 5.1048481,3.6601698 L 5.1016237,3.6522839 L 5.0987339,3.6438666 L 5.0962064,3.6349099 L 5.0940568,3.6254139 L 5.0923127,3.6153667 L 5.0910056,3.6047604 L 5.0901355,3.5935872 L 5.0897418,3.5818392 L 5.0898324,3.5695242 L 5.0904465,3.5566148 L 5.0915883,3.5431187 L 5.0932851,3.5290242 L 5.0955528,3.5143313 L 5.0986788,3.4976187 L 5.1022182,3.4816148 L 5.1061552,3.4663117 L 5.1104741,3.4517054 L 5.1151709,3.4377841 L 5.12023,3.4245479 L 5.1256394,3.4119849 L 5.1313796,3.4000873 L 5.1374505,3.3888432 L 5.1438206,3.3782408 L 5.150482,3.3682723 L 5.1574229,3.3589258 L 5.1646276,3.3501817 L 5.1720843,3.3420282 L 5.1797733,3.3344494 L 5.1876946,3.3274297 L 5.195852,3.3209337 L 5.2042261,3.3149573 L 5.2128206,3.3094691 L 5.2216395,3.3044612 L 5.2307064,3.2999022 L 5.2400056,3.2957841 L 5.2495607,3.2920872 L 5.2593757,3.2888077 L 5.2694702,3.2859219 L 5.2798363,3.2834337 L 5.2904859,3.2813431 L 5.301419,3.2796345 L 5.3126316,3.2783077 L 5.3241159,3.2773667 L 5.3358797,3.2768077 L 5.3480687,3.2766187 L 5.3520962,3.2766345 L 5.356234,3.2766817 L 5.3603206,3.2767604 L 5.3643482,3.2768707 L 5.3683285,3.2770124 L 5.3722419,3.2771896 L 5.3760962,3.2773943 L 5.3798954,3.2776345 L 5.3836514,3.2779022 L 5.3873364,3.2782014 L 5.3909506,3.2785282 L 5.3945175,3.2788943 L 5.3980372,3.2792841 L 5.4014781,3.2797093 L 5.4048521,3.2801581 L 5.4081907,3.2806423 L 5.4114742,3.2811541 L 5.4146671,3.2816935 L 5.4178049,3.2822604 L 5.4208915,3.2828628 L 5.423923,3.2834888 L 5.4268836,3.2841463 L 5.4297773,3.2848234 L 5.432612,3.28554 L 5.4353954,3.2862762 L 5.4381002,3.2870439 L 5.4407419,3.2878274 L 5.4433285,3.2886502 L 5.44586,3.2894927 L 5.4483049,3.2903549 L 5.4507025,3.2912565 L 5.4783285,3.3021384 L 5.5577379,3.1127994 L 5.5396001,3.1060081 L 5.5361474,3.1047876 L 5.5325529,3.103575 L 5.5288127,3.1023781 L 5.5248993,3.1011852 L 5.5208324,3.1000081 L 5.5165962,3.0988427 L 5.5122103,3.097701 L 5.5076749,3.096575 L 5.5029584,3.0954687 L 5.4980883,3.094386 L 5.4930765,3.0933348 L 5.4878993,3.0923033 L 5.4825489,3.0913033 L 5.4770489,3.0903348 L 5.4713993,3.0894096 L 5.4655922,3.0885081 L 5.459608,3.0876537 L 5.453482,3.0868388 L 5.4471946,3.0860711 L 5.4407655,3.0853506 L 5.434167,3.0846774 L 5.4274072,3.0840553 L 5.4205096,3.0834923 L 5.4134544,3.0829805 L 5.4062458,3.0825317 L 5.3988796,3.0821459 L 5.3913678,3.081823 L 5.3837064,3.0815671 L 5.3758875,3.081386 L 5.3679269,3.0812719 L 5.3596395,3.0812325 L 5.3366986,3.0816065 L 5.3135726,3.0827561 L 5.2904781,3.0846734 L 5.2674505,3.0873703 L 5.2445332,3.0908545 L 5.2217497,3.0951301 L 5.1991473,3.1002089 L 5.1767575,3.1060947 L 5.1546315,3.1127876 L 5.132789,3.1203033 L 5.1112851,3.1286459 L 5.0901512,3.1378152 L 5.0694386,3.1478152 L 5.0491788,3.1586538 L 5.029415,3.170327 L 5.0101867,3.1828506 L 4.991541,3.1962049 L 4.9735134,3.2104057 L 4.9561433,3.225449 L 4.9394661,3.2413388 L 4.9235291,3.2580671 L 4.9083559,3.275638 L 4.8939858,3.2940474 L 4.8804504,3.3133072 L 4.8677929,3.3334017 L 4.856037,3.3543426 L 4.845222,3.3761261 L 4.8353676,3.39876 L 4.8265212,3.4222403 L 4.8186944,3.4465789 L 4.8119346,3.4717679 L 4.806281,3.4977364 L 4.8039858,3.5103506 L 4.8020054,3.5228073 L 4.8003322,3.5351813 L 4.7989661,3.5474726 L 4.7979228,3.5596616 L 4.7971826,3.5717482 L 4.7967653,3.5837246 L 4.796655,3.5955907 L 4.7968755,3.6073269 L 4.797411,3.6189332 L 4.7982692,3.6304056 L 4.7994464,3.6417442 L 4.8009543,3.6529253 L 4.8027928,3.6639529 L 4.8049582,3.6748151 L 4.8074503,3.6855198 L 4.8102968,3.6960395 L 4.8134661,3.7063781 L 4.8169818,3.7165277 L 4.8208283,3.7264843 L 4.825033,3.7362363 L 4.8295763,3.7457796 L 4.834474,3.7551025 L 4.8397259,3.7642127 L 4.8453401,3.7730788 L 4.8513047,3.7817088 L 4.8576393,3.7900867 L 4.8643283,3.7982166 L 4.8713952,3.8060828 L 4.8788283,3.8136694 L 4.8866314,3.8209765 L 4.8946748,3.827878 L 4.9006078,3.8327481 L 4.9067614,3.8375158 L 4.9130999,3.8421497 L 4.9196275,3.8466536 L 4.9263559,3.8510158 L 4.9332771,3.8552363 L 4.9403834,3.8593072 L 4.9476905,3.8632442 L 4.9552063,3.8670276 L 4.962911,3.8706615 L 4.9708204,3.8741458 L 4.9789228,3.8774843 L 4.9872456,3.8806615 L 4.9957653,3.8836891 L 5.0044897,3.8865552 L 5.0134228,3.8892678 L 5.0225763,3.891819 L 5.0319307,3.8942087 L 5.0414936,3.896441 L 5.0512732,3.8985119 L 5.0612732,3.9004174 L 5.0714819,3.9021694 L 5.081911,3.9037521 L 5.0925606,3.9051733 L 5.1034425,3.9064253 L 5.1145409,3.9075158 L 5.1258637,3.9084332 L 5.1374109,3.909193 L 5.1492022,3.9097836 L 5.1612219,3.9102048 L 5.1734739,3.9104568 L 5.1859542,3.9105434 L 5.1938597,3.9104962 L 5.2018597,3.9103623 L 5.209966,3.9101379 L 5.2181471,3.9098347 L 5.2264109,3.9094528 L 5.2347258,3.9089962 L 5.243088,3.9084686 L 5.2514817,3.9078741 L 5.259903,3.9072127 L 5.2683164,3.9064922 L 5.2767219,3.9057127 L 5.2850998,3.904882 L 5.2934424,3.9039962 L 5.3017219,3.9030631 L 5.3099424,3.9020867 L 5.3180723,3.901071 L 5.3261195,3.900008 L 5.3340408,3.8989174 L 5.3418361,3.8977914 L 5.3494975,3.8966379 L 5.3570053,3.8954568 L 5.3643361,3.8942521 L 5.3714817,3.8930277 L 5.3784542,3.8917875 L 5.3852101,3.8905237 L 5.3917416,3.889256 L 5.3980369,3.8879725 L 5.4040998,3.8866851 L 5.4099148,3.885382 L 5.4154699,3.8840749 L 5.4207455,3.882756 L 5.4411116,3.877382 L 5.519525,3.418382 L 5.182978,3.418382 L 5.1521749,3.598697 L 5.2272576,3.598697 L 5.2056159,3.725394 L 5.2055529,3.725394 L 5.2026238,3.7254019 L 5.1963285,3.7252404 L 5.1904112,3.7247837 L 5.1845372,3.72402 L 5.1787104,3.7229373 L 5.1729427,3.7215278 L 5.1672301,3.7197798 L 5.16723,3.71978 z M 5.854147,3.548548 L 5.856395,3.556048 L 5.8586627,3.5634811 L 5.8609383,3.5708196 L 5.8632139,3.5780559 L 5.8654816,3.5851622 L 5.8677454,3.5921385 L 5.8699935,3.5989653 L 5.8722257,3.6056228 L 5.8744305,3.6120952 L 5.8766155,3.6183748 L 5.8787612,3.6244338 L 5.8808517,3.6302252 L 5.9793399,3.9034022 L 6.2334459,3.9034022 L 6.3727099,3.0881892 L 6.1204419,3.0881892 L 6.0958671,3.2320472 L 6.0935325,3.2459685 L 6.0912923,3.2599173 L 6.0891427,3.2738504 L 6.0870836,3.287752 L 6.0851112,3.3016024 L 6.0832293,3.3153898 L 6.0814222,3.3290985 L 6.0797017,3.3427048 L 6.0780561,3.356193 L 6.0764813,3.3695631 L 6.0749891,3.3827718 L 6.0735679,3.395823 L 6.0722096,3.4086852 L 6.0709262,3.4213584 L 6.0697017,3.4338112 L 6.0685403,3.4460356 L 6.067438,3.4580041 L 6.0663947,3.4697167 L 6.065686,3.4779096 L 6.0643789,3.4738269 L 6.0620758,3.466693 L 6.0597844,3.4596143 L 6.0575049,3.4526143 L 6.0552332,3.4457127 L 6.0529931,3.4389253 L 6.0507805,3.43226 L 6.0486033,3.4257442 L 6.0464616,3.4193741 L 6.044371,3.4131852 L 6.0423277,3.4071852 L 6.0403474,3.4013899 L 6.0384261,3.3958072 L 6.0365718,3.3904686 L 6.0347962,3.385382 L 6.0331151,3.3806104 L 5.9318751,3.0881894 L 5.6776151,3.0881894 L 5.5383511,3.9034024 L 5.7906191,3.9034024 L 5.8164459,3.7522094 L 5.8188593,3.737922 L 5.8211979,3.7237724 L 5.8234617,3.7097685 L 5.8256546,3.6959299 L 5.8277648,3.6822567 L 5.8298199,3.6687567 L 5.8317963,3.6554378 L 5.8337058,3.6423079 L 5.8355444,3.6293709 L 5.8373239,3.6166386 L 5.8390325,3.604115 L 5.8406822,3.5918119 L 5.8422648,3.5797253 L 5.8437963,3.5678749 L 5.8452609,3.5562607 L 5.8466743,3.5448946 L 5.8480247,3.5337686 L 5.8485522,3.5293827 L 5.8496979,3.5333867 L 5.8519066,3.540989 L 5.8541467,3.5485481 L 5.854147,3.548548 z M 6.494312,3.08819 L 6.4118041,3.571182 L 6.4088868,3.5895914 L 6.406497,3.6077056 L 6.4046663,3.6254261 L 6.4034222,3.6427568 L 6.4027687,3.659682 L 6.402749,3.6761938 L 6.403371,3.6922844 L 6.4046702,3.7079458 L 6.4066545,3.7231584 L 6.4093592,3.7379222 L 6.412812,3.7522214 L 6.4170403,3.7660442 L 6.4220639,3.7793788 L 6.4279261,3.7922095 L 6.4346387,3.8045126 L 6.442245,3.8162803 L 6.4507569,3.8274811 L 6.4602017,3.8380913 L 6.4705993,3.8480834 L 6.4819733,3.8574456 L 6.4943158,3.8661267 L 6.5076386,3.8741267 L 6.5219457,3.8814063 L 6.537241,3.8879614 L 6.5535087,3.8937645 L 6.5707489,3.8988078 L 6.5889615,3.9030913 L 6.6081584,3.9066031 L 6.6283277,3.9093354 L 6.6494891,3.911296 L 6.6716584,3.9124732 L 6.6948631,3.9128669 L 6.716182,3.9124929 L 6.7369773,3.9113669 L 6.7572411,3.9094968 L 6.7769891,3.9068787 L 6.7961978,3.9035126 L 6.814875,3.8994102 L 6.8329931,3.8945677 L 6.850564,3.8889929 L 6.8675601,3.8826897 L 6.8839617,3.8756779 L 6.8997609,3.8679693 L 6.9149459,3.8595834 L 6.929505,3.8505244 L 6.9434263,3.8408315 L 6.9567098,3.8305126 L 6.9693673,3.8195913 L 6.9813752,3.8080756 L 6.992761,3.7959969 L 7.0035208,3.7833591 L 7.0136704,3.7701859 L 7.0232177,3.7564812 L 7.0321665,3.7422647 L 7.0405366,3.7275364 L 7.0483437,3.712312 L 7.055572,3.6965915 L 7.0622531,3.6803946 L 7.0683948,3.6637174 L 7.0739972,3.6465757 L 7.079072,3.6289615 L 7.0836271,3.6108985 L 7.0876626,3.5923828 L 7.0911783,3.5735206 L 7.1740838,3.0881896 L 6.8911708,3.0881896 L 6.8027495,3.6057876 L 6.8009621,3.6156458 L 6.7990802,3.6249254 L 6.7970999,3.6336891 L 6.7950251,3.6419569 L 6.7928479,3.6497285 L 6.7905999,3.6570277 L 6.7882653,3.6638466 L 6.7858676,3.670201 L 6.7833991,3.6760947 L 6.7808834,3.6815474 L 6.7783282,3.6865632 L 6.7757456,3.6911458 L 6.7731432,3.6952994 L 6.7705448,3.6990553 L 6.7679542,3.7024214 L 6.765407,3.7053978 L 6.7628991,3.708012 L 6.7604464,3.7102994 L 6.7580566,3.7122797 L 6.7557416,3.7139765 L 6.7534857,3.7154254 L 6.7512731,3.7166655 L 6.7490841,3.7177246 L 6.746907,3.7186301 L 6.7446826,3.7194057 L 6.7423834,3.720071 L 6.7399778,3.7206301 L 6.7374582,3.7210907 L 6.7348046,3.721449 L 6.7319857,3.7217088 L 6.7290172,3.7218663 L 6.7260212,3.7219175 L 6.7233204,3.7218584 L 6.7208164,3.7216813 L 6.7184424,3.7213939 L 6.7161865,3.7209923 L 6.714029,3.7204766 L 6.7119503,3.7198388 L 6.7099463,3.719075 L 6.7079896,3.7181695 L 6.7060448,3.7170868 L 6.7041314,3.715823 L 6.7022337,3.7143506 L 6.7003518,3.712638 L 6.6984936,3.7106655 L 6.6966826,3.7084136 L 6.6949188,3.7058624 L 6.6932337,3.7029884 L 6.6916274,3.6997718 L 6.6901353,3.6962206 L 6.6887692,3.6923072 L 6.6875487,3.6880356 L 6.6864818,3.6833821 L 6.6855881,3.6783545 L 6.6848833,3.672945 L 6.6843794,3.667134 L 6.6840841,3.6609254 L 6.6840133,3.6543191 L 6.6841747,3.6472954 L 6.6845802,3.6398624 L 6.6852337,3.6320041 L 6.6861471,3.6237246 L 6.6873322,3.615008 L 6.6888046,3.6057836 L 6.7772259,3.0881896 L 6.4943129,3.0881896 L 6.494312,3.08819 z "
   style="fill:white"
   id="path2034" />
  <path
   d="M 5.49389,3.43555 L 5.20276,3.43555 L 5.177823,3.581526 L 5.2529057,3.581526 L 5.2257915,3.74025 C 5.2177324,3.7425689 5.2085356,3.7425689 5.1993427,3.7425689 C 5.1196655,3.7425689 5.0447447,3.6788484 5.0728467,3.5143289 C 5.1047128,3.3278009 5.2113897,3.2594469 5.3508307,3.2594469 C 5.3983268,3.2594469 5.4371811,3.2652382 5.4658467,3.2768249 L 5.5304766,3.1227339 C 5.5002758,3.1111473 5.4411616,3.0984032 5.3568896,3.0984032 C 5.1209176,3.0984032 4.8821576,3.2223722 4.8289246,3.4981082 C 4.8034955,3.6290292 4.8292789,3.7472022 4.9126018,3.8155572 C 4.9715073,3.8653761 5.0586608,3.8933722 5.1889048,3.8933722 C 5.268582,3.8933722 5.3738498,3.8781202 5.4204638,3.8653761 L 5.493889,3.4355491 L 5.49389,3.43555 z M 5.770855,3.886231 L 5.7937448,3.752223 C 5.8198393,3.599483 5.8327448,3.470113 5.8395952,3.403109 L 5.8426621,3.403109 C 5.8511818,3.4608452 5.881103,3.563763 5.9030204,3.623818 L 5.9976306,3.886231 L 6.2136816,3.886231 L 6.3470756,3.105357 L 6.1402216,3.105357 L 6.1185838,3.232026 C 6.0933476,3.379743 6.0843082,3.531325 6.0795523,3.595042 L 6.0764854,3.595042 C 6.0607295,3.5347979 6.0284893,3.436514 6.0109185,3.386888 L 5.9134461,3.105357 L 5.6973951,3.105357 L 5.5639971,3.886231 L 5.7708551,3.886231 L 5.770855,3.886231 z M 6.514095,3.105357 L 6.434532,3.571101 C 6.4010832,3.7669 6.4556934,3.895692 6.697792,3.895692 C 6.91691,3.895692 7.034257,3.773849 7.068493,3.57342 L 7.1484536,3.105357 L 6.9109496,3.105357 L 6.8254496,3.605857 C 6.8066465,3.71592 6.7674457,3.739093 6.7230126,3.739093 C 6.680111,3.739093 6.6484811,3.708971 6.6660953,3.605857 L 6.7515953,3.105357 L 6.5140953,3.105357 L 6.514095,3.105357 z "
   style="fill:#002940;fill-rule:nonzero"
   id="path2036" />
  <path
   d="M 3.9917,5.52588 L 4.0891528,5.52588 L 4.110326,5.412506 L 4.212602,5.412506 L 4.2291532,5.32738 L 4.1263772,5.32738 L 4.1331882,5.2925139 L 4.2421682,5.2925139 L 4.2586918,5.206947 L 4.0522708,5.206947 L 3.9916999,5.52588 L 3.9917,5.52588 z M 4.424409,5.284053 L 4.4108933,5.2827144 L 4.4090823,5.2825806 L 4.4073185,5.2824979 L 4.4056098,5.2824428 L 4.403913,5.2823995 L 4.4022358,5.2823837 L 4.4006571,5.2823798 L 4.3989051,5.2823798 L 4.3926846,5.2826317 L 4.3863657,5.2834191 L 4.3801965,5.2847065 L 4.3742043,5.2864861 L 4.3684169,5.2887026 L 4.3628264,5.2913522 L 4.3574445,5.2944034 L 4.3522752,5.2978325 L 4.3473421,5.3016003 L 4.3426217,5.3056987 L 4.340539,5.3077459 L 4.3407594,5.3041436 L 4.3417752,5.2872381 L 4.2558185,5.2872381 L 4.2543106,5.3004901 L 4.2538697,5.3046751 L 4.253413,5.309246 L 4.2529287,5.3141948 L 4.2524287,5.3194783 L 4.2518894,5.3250531 L 4.2513185,5.3308838 L 4.2506964,5.3369468 L 4.250039,5.3431908 L 4.2493264,5.3495885 L 4.2485665,5.3560806 L 4.2477476,5.3626515 L 4.2468657,5.3692342 L 4.245913,5.3758168 L 4.2448933,5.3823405 L 4.2437988,5.3887539 L 4.2175508,5.5258799 L 4.3150351,5.5258799 L 4.3303186,5.4430295 L 4.3317753,5.4359153 L 4.3334052,5.4290688 L 4.3352517,5.4224901 L 4.3373186,5.416246 L 4.3396414,5.4103562 L 4.3422123,5.4048838 L 4.345047,5.3998602 L 4.3481454,5.3953247 L 4.3515273,5.3912775 L 4.3551966,5.387746 L 4.3592005,5.3847066 L 4.3635903,5.3821555 L 4.3684525,5.3800885 L 4.3738816,5.3785492 L 4.3799761,5.3775688 L 4.387047,5.3772145 L 4.4057714,5.3772145 L 4.4244092,5.2840531 L 4.424409,5.284053 z M 4.533988,5.450844 L 4.5302321,5.4508952 L 4.5245549,5.4507259 L 4.5194014,5.4502456 L 4.5147203,5.4494582 L 4.5105195,5.4484109 L 4.5068187,5.4471235 L 4.5065431,5.4469936 L 4.5081218,5.44697 L 4.5158817,5.4466944 L 4.5234211,5.4462456 L 4.5307281,5.4456511 L 4.5378187,5.4448834 L 4.544677,5.4439542 L 4.5513266,5.442844 L 4.55774,5.4415724 L 4.5639329,5.4401157 L 4.5698935,5.4384818 L 4.5756258,5.436655 L 4.5811258,5.4346432 L 4.5864132,5.4324228 L 4.5914486,5.4300015 L 4.5962596,5.4273558 L 4.6008148,5.4244976 L 4.6051218,5.4214109 L 4.6091494,5.4181039 L 4.612925,5.4145527 L 4.6164014,5.4107692 L 4.6195707,5.4067653 L 4.6224211,5.4025409 L 4.6249526,5.398096 L 4.6271415,5.3934543 L 4.6289998,5.3886196 L 4.6305037,5.3836117 L 4.631673,5.3784346 L 4.6324959,5.3731039 L 4.6329919,5.3676235 L 4.6331534,5.3618795 L 4.6326967,5.3528361 L 4.6313226,5.3440999 L 4.629051,5.3358007 L 4.6259093,5.3280173 L 4.6219683,5.3207692 L 4.6172557,5.3140999 L 4.6118502,5.3080369 L 4.6058187,5.3026275 L 4.5992282,5.297848 L 4.5921219,5.2937259 L 4.5845667,5.2902377 L 4.5766061,5.2874031 L 4.568303,5.2851944 L 4.5596652,5.2836275 L 4.5507636,5.2826865 L 4.5415195,5.2823716 L 4.5255943,5.2831865 L 4.5103738,5.2855881 L 4.4959958,5.2894857 L 4.4825076,5.294781 L 4.4699643,5.3013361 L 4.4583895,5.3090763 L 4.4478265,5.3178598 L 4.4383068,5.3275763 L 4.4298422,5.3381039 L 4.4224485,5.349348 L 4.4161415,5.3611945 L 4.4109446,5.3735528 L 4.4068777,5.386293 L 4.4039328,5.3993481 L 4.4021533,5.4125961 L 4.4015548,5.4259268 L 4.4019997,5.4378008 L 4.4033186,5.4490606 L 4.4055352,5.4597417 L 4.4086651,5.4698244 L 4.4127202,5.4792575 L 4.4176848,5.4880134 L 4.4235706,5.4960291 L 4.4303383,5.5032732 L 4.4379643,5.5096748 L 4.4463619,5.515222 L 4.4555115,5.5198913 L 4.4653501,5.5236905 L 4.4758619,5.5266275 L 4.4870076,5.5287102 L 4.4987832,5.5299543 L 4.5110509,5.5303638 L 4.5155824,5.5303205 L 4.5202399,5.5301905 L 4.5251415,5.5299583 L 4.5302635,5.5296236 L 4.535606,5.5291551 L 4.541106,5.5285527 L 4.5467557,5.5278008 L 4.552547,5.5268874 L 4.5584446,5.525789 L 4.5644171,5.5245055 L 4.5704446,5.5230134 L 4.5765076,5.5213126 L 4.5825864,5.5193638 L 4.5886454,5.5171827 L 4.5946651,5.514722 L 4.6072596,5.5089464 L 4.6009683,5.4322535 L 4.5836218,5.4401709 L 4.5803698,5.4415449 L 4.5770667,5.4428244 L 4.5737084,5.4440173 L 4.5703265,5.4451079 L 4.5668816,5.4461079 L 4.5633895,5.4470134 L 4.5598659,5.4478244 L 4.5562989,5.4485291 L 4.552673,5.449159 L 4.5490115,5.4496866 L 4.5453147,5.4501236 L 4.5415903,5.4504583 L 4.5378107,5.4506984 L 4.5339879,5.4508441 L 4.533988,5.450844 z M 4.5236022,5.3694897 L 4.5183935,5.3701078 L 4.5124998,5.3705724 L 4.5067203,5.3708519 L 4.5099329,5.3671078 L 4.5141967,5.3636157 L 4.5193109,5.3608519 L 4.5254408,5.3589936 L 4.5329447,5.3582771 L 4.5356416,5.3584621 L 4.5378384,5.3589464 L 4.5394093,5.3595763 L 4.5404211,5.360222 L 4.5409762,5.3607535 L 4.5412164,5.3611157 L 4.541303,5.361344 L 4.5413739,5.3619582 L 4.5413148,5.3627377 L 4.5412006,5.3631865 L 4.5410746,5.36347 L 4.5408148,5.3638283 L 4.54024,5.3643834 L 4.5391494,5.3651472 L 4.5374211,5.3660448 L 4.5350156,5.3669936 L 4.5319172,5.3679031 L 4.5281101,5.3687535 L 4.5236022,5.3694897 L 4.5236022,5.3694897 z M 4.7664682,5.450844 L 4.7627123,5.4508952 L 4.7570351,5.4507259 L 4.7518816,5.4502456 L 4.7472005,5.4494582 L 4.7429997,5.4484109 L 4.7392989,5.4471235 L 4.7390233,5.4469936 L 4.740602,5.44697 L 4.7483619,5.4466944 L 4.7559052,5.4462456 L 4.7632083,5.4456511 L 4.7702989,5.4448834 L 4.7771572,5.4439542 L 4.7838107,5.442844 L 4.7902202,5.4415724 L 4.7964131,5.4401157 L 4.8023737,5.4384818 L 4.808106,5.436655 L 4.813606,5.4346432 L 4.8188934,5.4324228 L 4.8239288,5.4300015 L 4.8287398,5.4273558 L 4.8332949,5.4244976 L 4.837602,5.4214109 L 4.8416296,5.4181039 L 4.8454052,5.4145527 L 4.8488816,5.4107692 L 4.8520548,5.4067653 L 4.8549013,5.4025409 L 4.8574328,5.398096 L 4.8596217,5.3934543 L 4.86148,5.3886196 L 4.8629839,5.3836117 L 4.8641532,5.3784346 L 4.8649761,5.3731039 L 4.8654721,5.3676235 L 4.8656336,5.3618795 L 4.8651769,5.3528361 L 4.8638028,5.3440999 L 4.8615312,5.3358007 L 4.8583895,5.3280173 L 4.8544485,5.3207692 L 4.8497359,5.3140999 L 4.8443304,5.3080369 L 4.8382989,5.3026275 L 4.8317084,5.297848 L 4.8246021,5.2937259 L 4.8170469,5.2902377 L 4.8090863,5.2874031 L 4.8007832,5.2851944 L 4.7921454,5.2836275 L 4.7832438,5.2826865 L 4.7739997,5.2823716 L 4.7580745,5.2831865 L 4.742854,5.2855881 L 4.72848,5.2894857 L 4.7149879,5.294781 L 4.7024446,5.3013361 L 4.6908698,5.3090763 L 4.6803068,5.3178598 L 4.6707871,5.3275763 L 4.6623225,5.3381039 L 4.6549288,5.349348 L 4.6486218,5.3611945 L 4.6434249,5.3735528 L 4.639358,5.386293 L 4.6364131,5.3993481 L 4.6346336,5.4125961 L 4.6340351,5.4259268 L 4.63448,5.4378008 L 4.6357989,5.4490606 L 4.6380194,5.4597417 L 4.6411454,5.4698244 L 4.6452005,5.4792575 L 4.6501651,5.4880134 L 4.6560509,5.4960291 L 4.6628186,5.5032732 L 4.6704446,5.5096748 L 4.6788422,5.515222 L 4.6879918,5.5198913 L 4.6978304,5.5236905 L 4.7083422,5.5266275 L 4.7194879,5.5287102 L 4.7312635,5.5299543 L 4.7435312,5.5303638 L 4.7480627,5.5303205 L 4.7527202,5.5301905 L 4.7576218,5.5299583 L 4.7627438,5.5296236 L 4.7680863,5.5291551 L 4.7735863,5.5285527 L 4.7792399,5.5278008 L 4.7850273,5.5268874 L 4.7909249,5.525789 L 4.7968974,5.5245055 L 4.8029249,5.5230134 L 4.8089879,5.5213126 L 4.8150666,5.5193638 L 4.8211257,5.5171827 L 4.8271454,5.514722 L 4.8397399,5.5089464 L 4.8334525,5.4322535 L 4.8161021,5.4401709 L 4.8128501,5.4415449 L 4.809547,5.4428244 L 4.8061887,5.4440173 L 4.8028068,5.4451079 L 4.7993619,5.4461079 L 4.7958698,5.4470134 L 4.7923462,5.4478244 L 4.7887793,5.4485291 L 4.7851533,5.449159 L 4.7814919,5.4496866 L 4.777795,5.4501236 L 4.7740706,5.4504583 L 4.7702911,5.4506984 L 4.7664682,5.4508441 L 4.7664682,5.450844 z M 4.7560824,5.3694897 L 4.7508737,5.3701078 L 4.74498,5.3705724 L 4.7392005,5.3708519 L 4.7424131,5.3671078 L 4.7466769,5.3636157 L 4.7517911,5.3608519 L 4.7579249,5.3589936 L 4.7654249,5.3582771 L 4.7681218,5.3584621 L 4.7703186,5.3589464 L 4.7718895,5.3595763 L 4.7729013,5.360222 L 4.7734564,5.3607535 L 4.7736966,5.3611157 L 4.7737832,5.361344 L 4.7738541,5.3619582 L 4.773795,5.3627377 L 4.7736808,5.3631865 L 4.7735548,5.36347 L 4.773295,5.3638283 L 4.7727202,5.3643834 L 4.7716296,5.3651472 L 4.7699013,5.3660448 L 4.7674958,5.3669936 L 4.7643974,5.3679031 L 4.7605903,5.3687535 L 4.7560824,5.3694897 L 4.7560824,5.3694897 z M 5.1898464,5.2935842 L 5.1856456,5.2923913 L 5.181248,5.2912259 L 5.1766692,5.2901118 L 5.1719291,5.289033 L 5.1670275,5.2880094 L 5.1619881,5.2870448 L 5.1568267,5.2861551 L 5.1515787,5.2853401 L 5.1462401,5.2846039 L 5.1408267,5.2839582 L 5.1353621,5.2834149 L 5.129874,5.282974 L 5.1243543,5.2826472 L 5.1188346,5.2824504 L 5.1132873,5.2823795 L 5.102555,5.2826078 L 5.0921259,5.2833047 L 5.0820787,5.2844385 L 5.0723819,5.2860173 L 5.0630591,5.2880094 L 5.0540866,5.2904189 L 5.0454843,5.2932181 L 5.0372323,5.2963992 L 5.0293504,5.2999425 L 5.0218307,5.3038362 L 5.0146732,5.3080567 L 5.007874,5.3126078 L 5.0014488,5.3174425 L 4.995374,5.3225763 L 4.9896732,5.3279622 L 4.9843228,5.3336 L 4.9793386,5.3394504 L 4.9747008,5.3455173 L 4.9704291,5.3517732 L 4.9664882,5.3582023 L 4.9629016,5.3647811 L 4.9596457,5.3714976 L 4.9567244,5.3783362 L 4.954126,5.385285 L 4.9518622,5.3923126 L 4.9499094,5.3994189 L 4.9482756,5.4065764 L 4.9469409,5.413789 L 4.9459212,5.4210173 L 4.945189,5.4282575 L 4.9447559,5.4354976 L 4.9446023,5.4428244 L 4.9449606,5.4522023 L 4.9460275,5.4613047 L 4.9477835,5.4699819 L 4.9502047,5.4782338 L 4.9532953,5.4860212 L 4.9570197,5.4933086 L 4.9613583,5.5000567 L 4.9662913,5.5062457 L 4.9717953,5.5118165 L 4.977815,5.516726 L 4.984315,5.5209583 L 4.9912638,5.5244661 L 4.9986024,5.527222 L 5.0062716,5.5292102 L 5.0142401,5.530411 L 5.0223543,5.5308087 L 5.0274291,5.530663 L 5.0324724,5.530226 L 5.0375945,5.529474 L 5.0427638,5.5283992 L 5.0479764,5.5269583 L 5.0531929,5.5251472 L 5.0583819,5.5229346 L 5.0635276,5.5203244 L 5.068622,5.5172732 L 5.0736142,5.5137811 L 5.0784882,5.5098362 L 5.0795669,5.5088283 L 5.0795079,5.5096551 L 5.0783543,5.5258795 L 5.169748,5.5258795 L 5.1694803,5.509537 L 5.1695039,5.5039504 L 5.1696457,5.4980528 L 5.169878,5.4919268 L 5.1702244,5.4856118 L 5.1706496,5.4791788 L 5.1711575,5.4726788 L 5.1717323,5.4661788 L 5.172374,5.4597221 L 5.1730669,5.4533835 L 5.1738032,5.4471984 L 5.174563,5.4412654 L 5.1753661,5.4355961 L 5.1761654,5.4302693 L 5.1769724,5.425352 L 5.1777638,5.4209425 L 5.2030827,5.2976625 L 5.1898465,5.2935838 L 5.1898464,5.2935842 z M 5.0693504,5.4396822 L 5.0671536,5.4423082 L 5.065063,5.4443672 L 5.0631063,5.4459224 L 5.0612992,5.4470602 L 5.0596693,5.4478279 L 5.0581614,5.44832 L 5.0567874,5.4485877 L 5.0557795,5.4486546 L 5.0533662,5.4483948 L 5.0516457,5.4477806 L 5.0501378,5.4467806 L 5.0486772,5.4452019 L 5.0472362,5.4427255 L 5.0459646,5.4391625 L 5.0450788,5.434446 L 5.0447402,5.4285483 L 5.0449725,5.4234027 L 5.0456693,5.4178318 L 5.0468386,5.4120011 L 5.0484567,5.4060483 L 5.0505158,5.400072 L 5.0529882,5.3941822 L 5.0558465,5.3884853 L 5.0590473,5.3830956 L 5.062567,5.3780956 L 5.0663583,5.3736035 L 5.0703544,5.3696822 L 5.0745118,5.3664145 L 5.0787796,5.3638397 L 5.0831221,5.3619932 L 5.0875552,5.3608672 L 5.0925473,5.3604499 L 5.0932244,5.3604578 L 5.0864292,5.3924578 L 5.084626,5.4014538 L 5.0827048,5.4093003 L 5.0806378,5.4162964 L 5.0784607,5.4224853 L 5.0762166,5.4278751 L 5.0739213,5.4325129 L 5.071626,5.4364342 L 5.0693504,5.4396822 L 5.0693504,5.4396822 z M 5.2986734,5.5274775 L 5.3094096,5.5251153 L 5.3196379,5.5220366 L 5.3292796,5.5182413 L 5.3383269,5.5137177 L 5.3467009,5.5084539 L 5.3543544,5.5024224 L 5.3612009,5.4956547 L 5.3671733,5.488135 L 5.3721694,5.4799184 L 5.3761418,5.4710287 L 5.3790119,5.4615444 L 5.380756,5.451505 L 5.3813347,5.4409656 L 5.380941,5.4338239 L 5.3797875,5.4270444 L 5.3779214,5.4206546 L 5.3754056,5.4146979 L 5.3723505,5.4091743 L 5.3688111,5.4040837 L 5.3648938,5.3994145 L 5.3606733,5.3951546 L 5.3562403,5.391253 L 5.3516143,5.3876664 L 5.3468662,5.3843712 L 5.3420631,5.3813475 L 5.3372521,5.3785483 L 5.3324686,5.3759538 L 5.3277796,5.3735286 L 5.3231576,5.3712412 L 5.3173977,5.3685286 L 5.3127796,5.3660956 L 5.3090749,5.3638633 L 5.3063466,5.3619223 L 5.3049844,5.3607097 L 5.3066655,5.360005 L 5.3093269,5.3593279 L 5.3128663,5.3588554 L 5.317197,5.3586861 L 5.3239214,5.358883 L 5.3302678,5.3594381 L 5.3361852,5.3602885 L 5.3416497,5.3613908 L 5.3466497,5.3626664 L 5.3511497,5.364068 L 5.3551261,5.3655247 L 5.3696143,5.3716979 L 5.3933623,5.2992412 L 5.3826615,5.2937688 L 5.3797599,5.2924538 L 5.3766812,5.2912019 L 5.3734253,5.2900286 L 5.3699922,5.2889105 L 5.3663544,5.2878751 L 5.3625395,5.2868987 L 5.3585434,5.2860208 L 5.354382,5.2852137 L 5.3500198,5.2844932 L 5.3454883,5.2838672 L 5.3407757,5.2833515 L 5.3359017,5.2829341 L 5.3308426,5.282627 L 5.3256103,5.2824341 L 5.3201182,5.282379 L 5.3084962,5.2827452 L 5.2971694,5.2838633 L 5.2863033,5.2857176 L 5.2759135,5.2883003 L 5.2660631,5.2915877 L 5.2567678,5.2955916 L 5.2480906,5.3002924 L 5.240067,5.3057019 L 5.2327717,5.3117924 L 5.2262442,5.3185601 L 5.2205749,5.3259814 L 5.2158151,5.3340168 L 5.2120395,5.3426152 L 5.2092954,5.3517294 L 5.20763,5.3612963 L 5.207067,5.3712412 L 5.2074056,5.3776507 L 5.2083859,5.3837963 L 5.2099725,5.3896546 L 5.2121064,5.3952215 L 5.2147442,5.4004617 L 5.2178072,5.405383 L 5.2212481,5.4099814 L 5.2250159,5.4142845 L 5.2290592,5.4182845 L 5.2333229,5.4220208 L 5.2377836,5.4254932 L 5.2423938,5.4287412 L 5.247134,5.4317649 L 5.2519411,5.4345798 L 5.2568151,5.4372058 L 5.2617167,5.4396664 L 5.2682009,5.4426664 L 5.2731379,5.445257 L 5.2768623,5.4475483 L 5.2794056,5.4494853 L 5.2808348,5.4509223 L 5.2813938,5.451753 L 5.2815277,5.4521074 L 5.2815395,5.4521901 L 5.2812678,5.4524105 L 5.2801025,5.4530208 L 5.2780001,5.4536861 L 5.2748938,5.4542058 L 5.2706891,5.4544184 L 5.2671891,5.4543239 L 5.263445,5.4540562 L 5.2596182,5.4536153 L 5.2557442,5.4530286 L 5.2518623,5.4522964 L 5.2479608,5.451442 L 5.2440946,5.4504814 L 5.2402875,5.4494381 L 5.2365828,5.448316 L 5.2329608,5.4471389 L 5.2294765,5.4459263 L 5.2261537,5.4447058 L 5.2230198,5.4434774 L 5.2200828,5.4422727 L 5.2173781,5.4410956 L 5.2040238,5.4350601 L 5.1798151,5.505564 L 5.1895198,5.5123908 L 5.1932009,5.5145995 L 5.1971143,5.5166388 L 5.2012639,5.5185207 L 5.205634,5.5202451 L 5.2101812,5.5218239 L 5.2149135,5.5232727 L 5.219823,5.5245916 L 5.2249056,5.5257727 L 5.2301025,5.5268278 L 5.2354411,5.527753 L 5.240886,5.5285443 L 5.2464371,5.5292018 L 5.2520513,5.5297254 L 5.2577206,5.5301073 L 5.2636497,5.5303672 L 5.2757836,5.5300995 L 5.287449,5.5291388 L 5.2986734,5.5274774 L 5.2986734,5.5274775 z M 4.9012834,6.0314265 L 4.9463897,5.7927845 L 4.8494133,5.7927845 L 4.804307,6.0314265 L 4.9012834,6.0314265 z M 4.904248,5.7923285 L 4.9138897,5.7915372 L 4.9235826,5.7890726 L 4.9326535,5.7849427 L 4.9407992,5.7791474 L 4.9477086,5.7716907 L 4.9529881,5.7626946 L 4.956311,5.7523639 L 4.9574409,5.7409781 L 4.9565511,5.731297 L 4.9538897,5.7223915 L 4.949555,5.714427 L 4.9437283,5.7076711 L 4.9366613,5.7022774 L 4.9285944,5.6983876 L 4.9197873,5.6960372 L 4.9103779,5.6952498 L 4.9003149,5.6961711 L 4.8906731,5.6988955 L 4.8817676,5.7033049 L 4.8738306,5.7093128 L 4.8671613,5.7168088 L 4.8620354,5.7256829 L 4.8587834,5.7357144 L 4.8576613,5.7466042 L 4.8585393,5.756364 L 4.8610983,5.7652853 L 4.8652913,5.7732459 L 4.8709487,5.7800175 L 4.8778542,5.7853916 L 4.8857125,5.7892695 L 4.8942873,5.7915884 L 4.9028976,5.7923286 L 4.9042479,5.7923286 L 4.904248,5.7923285 z M 5.054638,5.8964425 L 5.0570553,5.8913441 L 5.0595435,5.8868086 L 5.062075,5.882848 L 5.0646183,5.8794464 L 5.0671301,5.8766157 L 5.0695632,5.8743441 L 5.0718663,5.8726118 L 5.0740041,5.8713756 L 5.0759608,5.8705724 L 5.0777246,5.8701315 L 5.0793309,5.8700055 L 5.0814766,5.8701984 L 5.0825041,5.8705291 L 5.0829018,5.8707811 L 5.0832443,5.8711669 L 5.083764,5.8721433 L 5.084327,5.8740016 L 5.0847403,5.8767772 L 5.0848939,5.8804898 L 5.0848663,5.8827457 L 5.08476,5.8852654 L 5.0845947,5.8878559 L 5.0843506,5.8905134 L 5.0840592,5.8931827 L 5.0837088,5.8958047 L 5.0833191,5.8983677 L 5.0828663,5.9008992 L 5.0584254,6.0314272 L 5.1553467,6.0314272 L 5.181331,5.8967852 L 5.1820397,5.8923876 L 5.182709,5.8875844 L 5.1833271,5.882486 L 5.1838783,5.8772537 L 5.1843507,5.8720214 L 5.184709,5.8669466 L 5.1849491,5.862171 L 5.1850279,5.8577852 L 5.1848192,5.8508206 L 5.1841657,5.8439978 L 5.1830436,5.837364 L 5.1814098,5.8309545 L 5.1792562,5.8248128 L 5.1765279,5.8189427 L 5.173209,5.8134112 L 5.1692877,5.8083088 L 5.164768,5.8036514 L 5.159642,5.7995293 L 5.153957,5.7959899 L 5.1477405,5.7930923 L 5.1410515,5.7908206 L 5.1338822,5.7892065 L 5.126272,5.788238 L 5.118272,5.7879269 L 5.1125357,5.7880647 L 5.1068822,5.7885096 L 5.1012562,5.7892577 L 5.0956657,5.7903285 L 5.0901263,5.7917183 L 5.0846342,5.7934584 L 5.0792208,5.7955332 L 5.0738822,5.7979742 L 5.0686538,5.8007537 L 5.063516,5.8039033 L 5.0585003,5.807423 L 5.0570712,5.8085569 L 5.0587326,5.7927852 L 4.9712602,5.7927852 L 4.9693035,5.8058285 L 4.9687011,5.8097891 L 4.9680988,5.8138363 L 4.967461,5.8180017 L 4.9668153,5.8222615 L 4.9661421,5.8266041 L 4.9654452,5.8310568 L 4.9647169,5.8356198 L 4.9639688,5.8402655 L 4.9631814,5.8450056 L 4.9623625,5.8498442 L 4.9614964,5.8548048 L 4.9605948,5.859856 L 4.9596499,5.8650056 L 4.9586618,5.8702537 L 4.9576027,5.8756592 L 4.9282799,6.0314272 L 5.0252327,6.0314272 L 5.044524,5.9301362 L 5.0462248,5.9222779 L 5.0480949,5.9150181 L 5.0501303,5.9082779 L 5.0523153,5.9020968 L 5.0546382,5.8964433 L 5.054638,5.8964425 z M 5.267496,6.0314265 L 5.3649448,6.0314265 L 5.386122,5.9180525 L 5.488398,5.9180525 L 5.5049492,5.8329265 L 5.4021732,5.8329265 L 5.4089842,5.7980604 L 5.5179602,5.7980604 L 5.5344838,5.7124974 L 5.3280668,5.7124974 L 5.2674959,6.0314264 L 5.267496,6.0314265 z M 5.700201,5.7895915 L 5.6866734,5.7882608 L 5.6848702,5.7881309 L 5.6830986,5.7880443 L 5.6813978,5.7879891 L 5.6796931,5.7879458 L 5.6780238,5.787934 L 5.6764332,5.7879301 L 5.6747009,5.7879301 L 5.6684647,5.7881821 L 5.6621458,5.7889655 L 5.6559765,5.7902569 L 5.6499883,5.7920324 L 5.6441891,5.7942529 L 5.6385986,5.7969025 L 5.6332167,5.7999537 L 5.6280632,5.8033828 L 5.6231183,5.8071427 L 5.6183978,5.8112529 L 5.616323,5.8132844 L 5.6165435,5.8096978 L 5.6175868,5.7927844 L 5.5316459,5.7927844 L 5.5300986,5.8060206 L 5.5296498,5.8102135 L 5.5291892,5.8147962 L 5.5287168,5.8197529 L 5.5282049,5.8250245 L 5.5276695,5.8306033 L 5.5270908,5.8364379 L 5.5264845,5.842497 L 5.5258191,5.8487332 L 5.5251105,5.8551269 L 5.5243388,5.8616269 L 5.5235278,5.8682017 L 5.5226419,5.8747844 L 5.5216971,5.881371 L 5.5206734,5.8879025 L 5.5195947,5.894308 L 5.4933427,6.031426 L 5.590827,6.031426 L 5.6061183,5.9485677 L 5.6075592,5.9414535 L 5.6091892,5.934615 L 5.6110277,5.9280441 L 5.6131025,5.9217882 L 5.6154175,5.9158984 L 5.6179884,5.9104338 L 5.6208191,5.9054102 L 5.6239254,5.9008748 L 5.6273073,5.8968236 L 5.6309726,5.8932882 L 5.6349687,5.8902528 L 5.6393703,5.8877016 L 5.6442285,5.8856346 L 5.6496616,5.8840953 L 5.6557561,5.8831189 L 5.6628388,5.8827606 L 5.6815671,5.8827606 L 5.700201,5.7895913 L 5.700201,5.7895915 z M 5.809772,5.9563905 L 5.8060239,5.9564417 L 5.8003389,5.9562724 L 5.7951854,5.9557921 L 5.7905003,5.9550047 L 5.7862995,5.9539614 L 5.7825909,5.95267 L 5.7823192,5.952544 L 5.783898,5.9525165 L 5.7916657,5.9522409 L 5.7992011,5.951796 L 5.8065082,5.9512015 L 5.8135987,5.9504299 L 5.8204649,5.9495047 L 5.8271066,5.9483944 L 5.8335161,5.9471228 L 5.839705,5.9456621 L 5.8456657,5.9440322 L 5.8514019,5.9422015 L 5.8569019,5.9401897 L 5.8621854,5.9379732 L 5.8672405,5.935548 L 5.8720397,5.9329023 L 5.8765987,5.930048 L 5.880894,5.9269614 L 5.8849373,5.9236503 L 5.8887011,5.9200952 L 5.8921696,5.9163196 L 5.8953389,5.9123236 L 5.898205,5.9080952 L 5.9007326,5.9036425 L 5.9029216,5.8990047 L 5.9047759,5.8941739 L 5.9062917,5.8891582 L 5.9074531,5.883981 L 5.9082799,5.8786661 L 5.9087759,5.8731818 L 5.9089491,5.8674338 L 5.9084846,5.8583747 L 5.9071066,5.8496424 L 5.9048271,5.8413511 L 5.9016932,5.8335637 L 5.8977444,5.8263117 L 5.8930397,5.8196503 L 5.8876381,5.8135913 L 5.8816027,5.8081779 L 5.8750003,5.8033944 L 5.867894,5.7992724 L 5.8603429,5.7957881 L 5.852394,5.7929495 L 5.8440751,5.7907448 L 5.8354492,5.7891739 L 5.8265437,5.7882369 L 5.8173153,5.787922 L 5.8013783,5.788733 L 5.7861539,5.7911346 L 5.771772,5.7950322 L 5.7582917,5.8003275 L 5.7457405,5.8068826 L 5.7341696,5.8146228 L 5.7236105,5.8234062 L 5.7140948,5.8331228 L 5.7056223,5.8436504 L 5.6982286,5.8548984 L 5.6919215,5.8667449 L 5.6867325,5.8790992 L 5.6826538,5.8918433 L 5.6797168,5.9048945 L 5.6779373,5.9181504 L 5.6773467,5.9314693 L 5.6777798,5.9433473 L 5.6791026,5.9546071 L 5.6813192,5.9652921 L 5.684453,5.9753708 L 5.6884924,5.9848038 L 5.6934648,5.9935637 L 5.6993507,6.0015794 L 5.7061302,6.0088235 L 5.7137365,6.0152212 L 5.7221459,6.0207723 L 5.7312916,6.0254377 L 5.7411381,6.0292448 L 5.751646,6.0321739 L 5.7627956,6.0342566 L 5.7745633,6.0355046 L 5.7868428,6.0359101 L 5.7913625,6.0358708 L 5.7960199,6.0357369 L 5.8009176,6.0355086 L 5.8060514,6.03517 L 5.8113821,6.0347054 L 5.8168861,6.0340991 L 5.8225357,6.0333471 L 5.828331,6.0324377 L 5.8342286,6.0313353 L 5.8401971,6.0300519 L 5.8462247,6.0285597 L 5.8522955,6.0268589 L 5.8583664,6.0249101 L 5.8644294,6.022729 L 5.8704491,6.0202684 L 5.8830515,6.0145007 L 5.8767641,5.9378235 L 5.8594098,5.9457132 L 5.85615,5.9470912 L 5.8528389,5.9483707 L 5.8494925,5.9495676 L 5.8461027,5.9506502 L 5.8426578,5.9516542 L 5.8391657,5.9525597 L 5.8356539,5.9533707 L 5.8320791,5.9540794 L 5.8284492,5.9547093 L 5.8247878,5.9552369 L 5.8211027,5.9556739 L 5.8173704,5.9560046 L 5.8135948,5.9562487 L 5.809772,5.9563904 L 5.809772,5.9563905 z M 5.7993744,5.8750401 L 5.7941736,5.8756543 L 5.788272,5.8761188 L 5.7825082,5.8763984 L 5.7857208,5.8726543 L 5.7899807,5.8691621 L 5.7950988,5.8663984 L 5.8012287,5.8645401 L 5.8087326,5.8638275 L 5.8114256,5.8640047 L 5.8136263,5.8644929 L 5.8151972,5.8651228 L 5.816209,5.8657645 L 5.8167563,5.866296 L 5.8170043,5.86667 L 5.8170909,5.8669102 L 5.8171657,5.8675047 L 5.8171067,5.8682684 L 5.8169925,5.8687173 L 5.8168508,5.8690165 L 5.8165988,5.8693708 L 5.81602,5.869922 L 5.8149256,5.8706936 L 5.8131933,5.8715952 L 5.8107996,5.872544 L 5.8077011,5.8734535 L 5.8038862,5.8743039 L 5.7993744,5.8750401 L 5.7993744,5.8750401 z M 6.0422524,5.9563905 L 6.0385043,5.9564417 L 6.0328193,5.9562724 L 6.0276658,5.9557921 L 6.0229807,5.9550047 L 6.0187799,5.9539614 L 6.0150713,5.95267 L 6.0147996,5.952544 L 6.0163784,5.9525165 L 6.0241461,5.9522409 L 6.0316815,5.951796 L 6.0389886,5.9512015 L 6.0460791,5.9504299 L 6.0529453,5.9495047 L 6.059587,5.9483944 L 6.0660004,5.9471228 L 6.0721854,5.9456621 L 6.0781461,5.9440322 L 6.0838823,5.9422015 L 6.0893862,5.9401897 L 6.0946658,5.9379732 L 6.0997209,5.935548 L 6.1045201,5.9329023 L 6.1090792,5.930048 L 6.1133744,5.9269614 L 6.1174177,5.9236503 L 6.1211815,5.9200952 L 6.12465,5.9163196 L 6.1278193,5.9123236 L 6.1306855,5.9080952 L 6.133213,5.9036425 L 6.135402,5.8990047 L 6.1372563,5.8941739 L 6.1387721,5.8891582 L 6.1399335,5.883981 L 6.1407603,5.8786661 L 6.1412603,5.8731818 L 6.1414296,5.8674338 L 6.140965,5.8583747 L 6.139587,5.8496424 L 6.1373075,5.8413511 L 6.1341737,5.8335637 L 6.1302248,5.8263117 L 6.1255201,5.8196503 L 6.1201185,5.8135913 L 6.1140831,5.8081779 L 6.1074808,5.8033944 L 6.1003745,5.7992724 L 6.0928233,5.7957881 L 6.0848745,5.7929495 L 6.0765556,5.7907448 L 6.0679296,5.7891739 L 6.0590241,5.7882369 L 6.0497957,5.787922 L 6.0338587,5.788733 L 6.0186343,5.7911346 L 6.0042524,5.7950322 L 5.9907721,5.8003275 L 5.9782209,5.8068826 L 5.96665,5.8146228 L 5.9560909,5.8234062 L 5.9465752,5.8331228 L 5.9381027,5.8436504 L 5.930709,5.8548984 L 5.9244019,5.8667449 L 5.919213,5.8790992 L 5.9151342,5.8918433 L 5.9121972,5.9048945 L 5.9104177,5.9181504 L 5.9098271,5.9314693 L 5.9102602,5.9433473 L 5.911583,5.9546071 L 5.9137996,5.9652921 L 5.9169334,5.9753708 L 5.9209728,5.9848038 L 5.9259492,5.9935637 L 5.9318311,6.0015794 L 5.9386106,6.0088235 L 5.9462169,6.0152212 L 5.9546263,6.0207723 L 5.963772,6.0254377 L 5.9736185,6.0292448 L 5.9841264,6.0321739 L 5.995276,6.0342566 L 6.0070437,6.0355046 L 6.0193232,6.0359101 L 6.0238429,6.0358708 L 6.0285003,6.0357369 L 6.033398,6.0355086 L 6.0385318,6.03517 L 6.0438626,6.0347054 L 6.0493665,6.0340991 L 6.0550161,6.0333471 L 6.0608114,6.0324377 L 6.066709,6.0313353 L 6.0726775,6.0300519 L 6.0787051,6.0285597 L 6.084776,6.0268589 L 6.0908468,6.0249101 L 6.0969098,6.022729 L 6.1029295,6.0202684 L 6.1155358,6.0145007 L 6.1092445,5.9378235 L 6.0918902,5.9457132 L 6.0886303,5.9470912 L 6.0853193,5.9483707 L 6.0819728,5.9495676 L 6.0785831,5.9506502 L 6.0751421,5.9516542 L 6.0716461,5.9525597 L 6.0681343,5.9533707 L 6.0645595,5.9540794 L 6.0609296,5.9547093 L 6.0572681,5.9552369 L 6.0535831,5.9556739 L 6.0498508,5.9560046 L 6.0460752,5.9562487 L 6.0422524,5.9563904 L 6.0422524,5.9563905 z M 6.0318548,5.8750401 L 6.026654,5.8756543 L 6.0207524,5.8761188 L 6.0149886,5.8763984 L 6.0182012,5.8726543 L 6.0224611,5.8691621 L 6.0275792,5.8663984 L 6.0337091,5.8645401 L 6.041213,5.8638275 L 6.043906,5.8640047 L 6.0461067,5.8644929 L 6.0476776,5.8651228 L 6.0486894,5.8657645 L 6.0492367,5.866296 L 6.0494847,5.86667 L 6.0495713,5.8669102 L 6.0496461,5.8675047 L 6.0495871,5.8682684 L 6.0494729,5.8687173 L 6.0493312,5.8690165 L 6.0490792,5.8693708 L 6.0485004,5.869922 L 6.047406,5.8706936 L 6.0456737,5.8715952 L 6.04328,5.872544 L 6.0401815,5.8734535 L 6.0363666,5.8743039 L 6.0318548,5.8750401 L 6.0318548,5.8750401 z M 6.2425008,5.7953039 L 6.2353157,5.7978748 L 6.2283551,5.8008078 L 6.2216267,5.8040677 L 6.2151267,5.8076582 L 6.2088708,5.8115559 L 6.2028669,5.8157685 L 6.1971071,5.8202488 L 6.1916149,5.8250086 L 6.1863748,5.8300283 L 6.1814141,5.8352921 L 6.1767173,5.8407724 L 6.1722921,5.8464889 L 6.1681464,5.8524063 L 6.164296,5.8585204 L 6.1607212,5.8648039 L 6.1574338,5.8712724 L 6.1544417,5.8779023 L 6.1517567,5.8846661 L 6.1493708,5.891544 L 6.1472842,5.8985677 L 6.1455047,5.9056936 L 6.1440519,5.9129181 L 6.1429102,5.9202212 L 6.1420874,5.927611 L 6.1415952,5.9350519 L 6.1414299,5.9426267 L 6.1418354,5.953544 L 6.1430677,5.963918 L 6.1450677,5.9736542 L 6.1478196,5.9827527 L 6.1512645,5.9911897 L 6.1553866,5.9989652 L 6.1601149,6.0060361 L 6.1654181,6.0124023 L 6.1712094,6.0180243 L 6.1774496,6.0229062 L 6.1840637,6.0270322 L 6.1910008,6.0304141 L 6.1981779,6.0330164 L 6.2055401,6.0348786 L 6.2130323,6.0359928 L 6.2204811,6.0363589 L 6.2254811,6.036229 L 6.230426,6.035855 L 6.235426,6.0352133 L 6.2404771,6.0342881 L 6.2455637,6.0330519 L 6.2506504,6.0314928 L 6.2557173,6.0295991 L 6.2607803,6.0273471 L 6.2657763,6.0247133 L 6.2706937,6.0217054 L 6.2755204,6.018292 L 6.2766228,6.0173983 L 6.2756503,6.0314259 L 6.3663078,6.0314259 L 6.3670952,6.0159495 L 6.3674181,6.0106582 L 6.3677764,6.0052645 L 6.3682055,5.9997881 L 6.368674,5.9942212 L 6.3692015,5.9886109 L 6.3697803,5.9829416 L 6.3704102,5.977229 L 6.3710834,5.9714928 L 6.3718078,5.9657487 L 6.3725874,5.9600046 L 6.3734141,5.9542842 L 6.3742921,5.9485794 L 6.3752212,5.942922 L 6.3762015,5.9373196 L 6.3772409,5.9317566 L 6.4220283,5.6966146 L 6.325548,5.6966146 L 6.3071543,5.7899059 L 6.3035362,5.7891933 L 6.2998394,5.7886185 L 6.2963197,5.7882287 L 6.2929811,5.7879965 L 6.2898551,5.7879256 L 6.2815047,5.7881343 L 6.2733157,5.788772 L 6.2653157,5.7898114 L 6.2575126,5.7912642 L 6.2499023,5.793087 L 6.2425008,5.7953035 L 6.2425008,5.7953039 z M 6.2777764,5.9329339 L 6.2757961,5.937052 L 6.2737567,5.9406583 L 6.2716976,5.9437449 L 6.2696504,5.9463473 L 6.2676228,5.9485048 L 6.2656543,5.9502528 L 6.2637724,5.951615 L 6.2619929,5.9526465 L 6.2603197,5.9533788 L 6.2587331,5.953867 L 6.2572606,5.9541347 L 6.2560835,5.9542055 L 6.2532646,5.9539378 L 6.2509102,5.9532174 L 6.2488118,5.9520087 L 6.2468433,5.9501504 L 6.2449457,5.9472922 L 6.2432606,5.9430914 L 6.2420441,5.9372882 L 6.2415716,5.9296189 L 6.2417803,5.9239575 L 6.242422,5.9181071 L 6.2434811,5.9122528 L 6.2449457,5.9064733 L 6.2467882,5.9008355 L 6.2490008,5.8954299 L 6.2515362,5.8903158 L 6.2543945,5.8855717 L 6.2575126,5.881241 L 6.2608591,5.8774142 L 6.2643906,5.8741189 L 6.2680795,5.8713985 L 6.2718787,5.8692646 L 6.2757961,5.8677331 L 6.2798551,5.8667922 L 6.2843079,5.8664536 L 6.2863394,5.8665441 L 6.2885677,5.8668276 L 6.2907449,5.8672803 L 6.2928236,5.8678827 L 6.2931425,5.8680008 L 6.2846071,5.9107095 L 6.2830992,5.9172056 L 6.2814536,5.9230205 L 6.2796701,5.9282646 L 6.2777764,5.9329339 L 6.2777764,5.9329339 z M 6.5030634,6.0363509 L 6.5104768,6.0361777 L 6.517902,6.0356816 L 6.5252051,6.0348509 L 6.532398,6.0337092 L 6.5394453,6.0322328 L 6.5463626,6.0304415 L 6.5531146,6.0283391 L 6.5597248,6.0259296 L 6.5661539,6.0232013 L 6.5724059,6.0201737 L 6.578461,6.016847 L 6.5843311,6.0132367 L 6.5899925,6.0093233 L 6.5954413,6.0051304 L 6.6006579,6.0006619 L 6.6056539,5.9959178 L 6.610398,5.9908903 L 6.6148902,5.9856186 L 6.6191146,5.9800832 L 6.6230791,5.9743076 L 6.6267602,5.96828 L 6.6301618,5.9620241 L 6.633272,5.955532 L 6.636087,5.9488233 L 6.6385791,5.9418785 L 6.640772,5.9347485 L 6.6426382,5.9274021 L 6.6441854,5.9198588 L 6.6453823,5.9121226 L 6.6462602,5.9042131 L 6.6467878,5.8961107 L 6.6469689,5.8877092 L 6.6464925,5.8774021 L 6.6450791,5.8672958 L 6.6427248,5.8575517 L 6.6394728,5.8482367 L 6.6353193,5.8393942 L 6.6303193,5.8310911 L 6.6244768,5.8233666 L 6.6178468,5.8162918 L 6.6104453,5.8098942 L 6.6023232,5.8042446 L 6.5935319,5.7993745 L 6.5841185,5.7953233 L 6.5740909,5.7921186 L 6.563524,5.7898037 L 6.5524453,5.7883942 L 6.5409768,5.7879257 L 6.5329532,5.7881068 L 6.5251815,5.7886698 L 6.5175555,5.7895871 L 6.5101028,5.7908745 L 6.5028272,5.7925005 L 6.4957327,5.7944729 L 6.4888193,5.7967721 L 6.4821106,5.7994021 L 6.475591,5.8023391 L 6.4692799,5.805595 L 6.4631973,5.8091462 L 6.4573429,5.8129847 L 6.4517091,5.8170989 L 6.4463114,5.8214887 L 6.4411579,5.8261422 L 6.4362721,5.8310399 L 6.4316264,5.8361619 L 6.4272445,5.8415359 L 6.4231303,5.8471265 L 6.4192917,5.8529296 L 6.4157327,5.8589257 L 6.4124571,5.8651186 L 6.4094689,5.8714926 L 6.4067799,5.8780438 L 6.4043823,5.8847446 L 6.4022957,5.8916147 L 6.4005122,5.8986107 L 6.3990476,5.9057564 L 6.3978902,5.9130162 L 6.3970713,5.920406 L 6.3965713,5.9278942 L 6.3964059,5.9356068 L 6.396898,5.9467761 L 6.3983902,5.9575753 L 6.4008626,5.9678233 L 6.4042839,5.9775162 L 6.4086185,5.9865753 L 6.4138351,5.9949808 L 6.4198744,6.0026855 L 6.4266973,6.0096579 L 6.4342327,6.0158508 L 6.4424335,6.0212563 L 6.4512327,6.025843 L 6.460587,6.0296185 L 6.4704256,6.0325556 L 6.4807169,6.0346658 L 6.4914216,6.0359296 L 6.5022877,6.0363508 L 6.5030633,6.0363508 L 6.5030634,6.0363509 z M 6.5055122,5.9563037 L 6.503024,5.9547643 L 6.500898,5.952599 L 6.4990279,5.9495714 L 6.4975004,5.9455006 L 6.4964768,5.9403391 L 6.4961027,5.9340006 L 6.4962327,5.9295163 L 6.4966618,5.9243273 L 6.497398,5.9187368 L 6.4984492,5.9128785 L 6.4998193,5.9068824 L 6.5015122,5.9008903 L 6.5035082,5.895036 L 6.5058232,5.8894494 L 6.5084138,5.8842368 L 6.5112523,5.8795635 L 6.5142878,5.8755281 L 6.5174728,5.8722289 L 6.5207248,5.8696895 L 6.5240201,5.8679258 L 6.5274334,5.8668628 L 6.5311697,5.8664927 L 6.5355712,5.8669336 L 6.5387523,5.8680281 L 6.5411303,5.869595 L 6.5431027,5.8717683 L 6.5447878,5.8747447 L 6.5461185,5.8786384 L 6.5469689,5.8833588 L 6.547276,5.8888667 L 6.5471264,5.8941187 L 6.5466657,5.8998903 L 6.5458862,5.9059218 L 6.5448035,5.9120793 L 6.5433941,5.9182368 L 6.5416736,5.9243195 L 6.5396539,5.9301738 L 6.5373508,5.9356974 L 6.534772,5.9407801 L 6.5319807,5.9453076 L 6.5290122,5.9491856 L 6.5259413,5.9523391 L 6.5228389,5.954725 L 6.519713,5.9563824 L 6.5165161,5.9573706 L 6.5128547,5.9577407 L 6.5086342,5.9573234 L 6.5055122,5.9563037 L 6.5055122,5.9563037 z M 6.7856302,5.8695754 L 6.787079,5.8697289 L 6.7876892,5.8699455 L 6.7880042,5.8701738 L 6.788457,5.870725 L 6.7890869,5.871977 L 6.7897207,5.8741069 L 6.7901735,5.8770833 L 6.7903467,5.8809022 L 6.7902955,5.883036 L 6.7901499,5.8854888 L 6.7899137,5.8881108 L 6.7896026,5.8908707 L 6.7892168,5.8937565 L 6.7887877,5.8967447 L 6.7883192,5.8998077 L 6.7878546,5.9027841 L 6.76389,6.0314261 L 6.8577325,6.0314261 L 6.8770435,5.9300321 L 6.8785081,5.9225714 L 6.8801301,5.9156462 L 6.8819333,5.9091147 L 6.8838978,5.9030084 L 6.8859923,5.8973549 L 6.8882128,5.8921777 L 6.8905317,5.8875006 L 6.8929215,5.883351 L 6.8953427,5.8797368 L 6.897764,5.8767014 L 6.9001144,5.8742486 L 6.9023703,5.8723667 L 6.904453,5.8710242 L 6.9063309,5.8701738 L 6.9080396,5.8697092 L 6.9095711,5.8695754 L 6.9109963,5.8697289 L 6.911823,5.8700202 L 6.912449,5.8704336 L 6.9131144,5.8711502 L 6.9138309,5.872351 L 6.9145041,5.8741541 L 6.9149884,5.8765557 L 6.9151852,5.8796856 L 6.9151341,5.8820675 L 6.9149884,5.8848116 L 6.9147443,5.8876659 L 6.9144372,5.8906068 L 6.9140474,5.8936226 L 6.9136223,5.8967053 L 6.9131577,5.8998116 L 6.9126971,5.9028155 L 6.8892207,6.0314255 L 6.9839648,6.0314255 L 7.0085199,5.8968505 L 7.0093388,5.8924214 L 7.0101301,5.8873426 L 7.0108309,5.8820198 L 7.0114529,5.8765986 L 7.011949,5.871256 L 7.0123348,5.8661773 L 7.012575,5.8615119 L 7.0126734,5.8573623 L 7.0124608,5.8503308 L 7.0118269,5.8434923 L 7.0107403,5.8368781 L 7.0091734,5.8305001 L 7.0070947,5.824382 L 7.0044766,5.8185631 L 7.0012876,5.8130946 L 6.9975199,5.8080316 L 6.9931537,5.8034175 L 6.9882128,5.7993427 L 6.9827325,5.7958545 L 6.976764,5.7929923 L 6.970323,5.7907521 L 6.9634529,5.7891734 L 6.9561774,5.7882285 L 6.9485632,5.7879253 L 6.9430002,5.788075 L 6.9374923,5.7885316 L 6.9319884,5.7893072 L 6.926512,5.7903978 L 6.9210514,5.7918151 L 6.9156419,5.7935671 L 6.9102758,5.7956576 L 6.905012,5.7980986 L 6.8998309,5.8008663 L 6.8947482,5.8040001 L 6.8897837,5.8074844 L 6.8849726,5.8113309 L 6.880323,5.8155238 L 6.8799805,5.8158663 L 6.8796655,5.8153072 L 6.8769648,5.8113663 L 6.8738112,5.8075513 L 6.8701931,5.8039175 L 6.8660868,5.8005198 L 6.8615238,5.7974214 L 6.8564805,5.7946773 L 6.8509884,5.7923466 L 6.8450277,5.790449 L 6.8386262,5.7890631 L 6.8317876,5.7882049 L 6.8246104,5.7879253 L 6.8188585,5.7880631 L 6.8132128,5.788508 L 6.8075868,5.7892482 L 6.8020041,5.790319 L 6.7964726,5.7917049 L 6.7910081,5.7934293 L 6.7856104,5.7954923 L 6.7803191,5.7979135 L 6.7751183,5.8006734 L 6.7700317,5.8038072 L 6.7650671,5.8072954 L 6.7644017,5.8078309 L 6.7658073,5.7927837 L 6.680075,5.7927837 L 6.678323,5.8060081 L 6.6777954,5.809949 L 6.6772442,5.8139884 L 6.6766301,5.8184687 L 6.675449,5.8267167 L 6.6747954,5.8311655 L 6.6741222,5.8357088 L 6.6734017,5.8403466 L 6.6726576,5.8450986 L 6.6718781,5.849949 L 6.6710671,5.8549096 L 6.6702167,5.8599687 L 6.6693309,5.865134 L 6.6684057,5.8703978 L 6.667449,5.875764 L 6.6386183,6.031425 L 6.7334136,6.031425 L 6.751764,5.930004 L 6.7532285,5.9227008 L 6.754886,5.9158583 L 6.7567364,5.9093937 L 6.7587718,5.9033307 L 6.760949,5.8977008 L 6.7632679,5.8925394 L 6.7656931,5.8878504 L 6.768201,5.8836693 L 6.7707443,5.8800158 L 6.7732797,5.8769292 L 6.7757522,5.8744213 L 6.7781301,5.8724843 L 6.780327,5.8710827 L 6.7823112,5.8701969 L 6.784075,5.8697166 L 6.7856301,5.8695748 L 6.7856302,5.8695754 z "
   style="fill:#adcfe6"
   id="path2038" />
  <path
   d="M 4.00475,5.51508 L 4.0801831,5.51508 L 4.1013563,5.401706 L 4.2037023,5.401706 L 4.2160527,5.3381824 L 4.1132657,5.3381824 L 4.1242972,5.2817178 L 4.2332582,5.2817178 L 4.2456086,5.2177493 L 4.0612146,5.2177493 L 4.00475,5.5150803 L 4.00475,5.51508 z M 4.306049,5.51508 L 4.3197222,5.4409698 C 4.3272222,5.4012651 4.3426592,5.3664147 4.3867734,5.3664147 C 4.3903049,5.3664147 4.3938325,5.3664147 4.3969191,5.3664147 L 4.4114782,5.2936273 C 4.4075097,5.2931864 4.4031002,5.2931864 4.3991278,5.2931864 C 4.3691278,5.2931864 4.344427,5.3130368 4.3285451,5.3412691 L 4.3272223,5.3412691 C 4.3285451,5.3271549 4.329427,5.3125959 4.3303089,5.2980408 L 4.2654624,5.2980408 C 4.2632537,5.3161235 4.260612,5.3558282 4.2544309,5.3906786 L 4.230612,5.5150806 L 4.306049,5.5150806 L 4.306049,5.51508 z M 4.591466,5.4484658 C 4.5729384,5.4572886 4.5522022,5.461702 4.5301471,5.461702 C 4.5129424,5.461702 4.4997062,5.4577296 4.4913282,5.4502296 C 4.4873558,5.446265 4.4847101,5.4409698 4.4838243,5.4361154 C 4.5729385,5.4387611 4.6223483,5.416265 4.6223483,5.3620012 C 4.6223483,5.317887 4.587057,5.2931862 4.541616,5.2931862 C 4.4600058,5.2931862 4.412364,5.3598004 4.412364,5.4259692 C 4.412364,5.4864062 4.4472144,5.5195676 4.511179,5.5195676 C 4.5327932,5.5195676 4.5667617,5.5164771 4.5958798,5.5022881 L 4.5914664,5.4484653 L 4.591466,5.4484658 z M 4.5522022,5.3620012 C 4.5522022,5.3756823 4.5363203,5.3822965 4.4904424,5.3818555 C 4.4926471,5.3677374 4.5058833,5.3474461 4.5327928,5.3474461 C 4.5451432,5.3474461 4.5522022,5.3540642 4.5522022,5.3615642 L 4.5522022,5.3620012 L 4.5522022,5.3620012 z M 4.8239462,5.4484658 C 4.8054186,5.4572886 4.7846824,5.461702 4.7626273,5.461702 C 4.7454226,5.461702 4.7321864,5.4577296 4.7238084,5.4502296 C 4.719836,5.446265 4.7171903,5.4409698 4.7163045,5.4361154 C 4.8054187,5.4387611 4.8548285,5.416265 4.8548285,5.3620012 C 4.8548285,5.317887 4.8195372,5.2931862 4.7740962,5.2931862 C 4.692486,5.2931862 4.6448442,5.3598004 4.6448442,5.4259692 C 4.6448442,5.4864062 4.6796946,5.5195676 4.7436592,5.5195676 C 4.7652734,5.5195676 4.7992419,5.5164771 4.82836,5.5022881 L 4.8239466,5.4484653 L 4.8239462,5.4484658 z M 4.7846824,5.3620012 C 4.7846824,5.3756823 4.7688005,5.3822965 4.7229226,5.3818555 C 4.7251273,5.3677374 4.7383675,5.3474461 4.765273,5.3474461 C 4.7776234,5.3474461 4.7846824,5.3540642 4.7846824,5.3615642 L 4.7846824,5.3620012 L 4.7846824,5.3620012 z M 5.1587694,5.5150802 C 5.1578914,5.4868479 5.1627418,5.4422928 5.1671552,5.4189109 L 5.1905332,5.3050999 C 5.1711238,5.2989188 5.1411238,5.2931865 5.1133324,5.2931865 C 5.0012854,5.2931865 4.9554074,5.3703873 4.9554074,5.4427335 C 4.9554074,5.4899343 4.9836397,5.5200052 5.0224625,5.5200052 C 5.0453995,5.5200052 5.072309,5.5097887 5.0908365,5.4775839 L 5.0921594,5.4775839 C 5.0917184,5.4899343 5.0908365,5.5027296 5.0899546,5.51508 L 5.1587696,5.51508 L 5.1587694,5.5150802 z M 5.0970096,5.3946512 C 5.0877498,5.4458205 5.0692183,5.4594977 5.055545,5.4594977 C 5.0427497,5.4594977 5.0339269,5.4489071 5.0339269,5.4286197 C 5.0339269,5.3968559 5.0573088,5.3496512 5.0921592,5.3496512 C 5.0961316,5.3496512 5.101423,5.3500921 5.1062773,5.350978 L 5.0970096,5.3946512 L 5.0970096,5.3946512 z M 5.1926671,5.5014032 C 5.2064151,5.5119898 5.2346474,5.5186827 5.2637655,5.5195686 C 5.3259663,5.5200056 5.3705175,5.4921434 5.3705175,5.4409702 C 5.3705175,5.4083245 5.3418482,5.3924426 5.3184663,5.3809741 C 5.3016986,5.3734741 5.2933206,5.3668599 5.2933206,5.3611237 C 5.2933206,5.3523009 5.3025844,5.3478875 5.3171434,5.3478875 C 5.3374347,5.3478875 5.3533166,5.3527418 5.3630214,5.3571513 L 5.3802261,5.3046552 C 5.3687537,5.298478 5.3480214,5.2931867 5.32023,5.2931867 C 5.2602339,5.2931867 5.217887,5.3236237 5.217887,5.3712694 C 5.217887,5.3999426 5.2417059,5.4180292 5.2664067,5.4299426 C 5.2853791,5.4383205 5.2924382,5.4444977 5.2924382,5.4524387 C 5.2924382,5.4594977 5.2858201,5.46523 5.270824,5.46523 C 5.248761,5.46523 5.2236193,5.4559662 5.2103831,5.449793 L 5.1926666,5.5014032 L 5.1926671,5.5014032 z M 4.8923321,6.0206312 L 4.9333597,5.8035882 L 4.8583636,5.8035882 L 4.81734,6.0206312 L 4.8923321,6.0206312 z M 4.9038045,5.7815292 C 4.9263006,5.7815292 4.9465919,5.7669701 4.9465919,5.7409465 C 4.9465919,5.7197693 4.9311549,5.7060961 4.9104226,5.7060961 C 4.8883635,5.7060961 4.8685132,5.7224189 4.8685132,5.7466827 C 4.8685132,5.7682969 4.8835093,5.7815292 4.9033636,5.7815292 L 4.9038045,5.7815292 L 4.9038045,5.7815292 z M 5.0162965,6.0206312 L 5.0339422,5.9279895 C 5.042765,5.8829934 5.0612926,5.8591706 5.0793792,5.8591706 C 5.0917296,5.8591706 5.095702,5.8675525 5.095702,5.8803438 C 5.095702,5.8874029 5.0948201,5.8957847 5.0934933,5.9028438 L 5.0714382,6.0206308 L 5.1464303,6.0206308 L 5.170698,5.8949028 C 5.1724618,5.8847571 5.1742256,5.8675524 5.1742256,5.8578477 C 5.1742256,5.8234383 5.1579028,5.7987335 5.118198,5.7987335 C 5.0908476,5.7987335 5.064824,5.809765 5.0440878,5.8371154 L 5.0432059,5.8371154 L 5.0467335,5.8035878 L 4.9805603,5.8035878 C 4.9774737,5.8238791 4.9739461,5.8485839 4.9682099,5.877702 L 4.9413044,6.020631 L 5.0162965,6.020631 L 5.0162965,6.0206312 z M 5.2805405,6.0206312 L 5.3559775,6.0206312 L 5.3771507,5.9072572 L 5.4794967,5.9072572 L 5.4918471,5.8437336 L 5.3890601,5.8437336 L 5.4000916,5.7872651 L 5.5090526,5.7872651 L 5.521403,5.7233005 L 5.337009,5.7233005 L 5.2805405,6.0206315 L 5.2805405,6.0206312 z M 5.5818395,6.0206312 L 5.5955167,5.946517 C 5.6030167,5.9068123 5.6184537,5.8719658 5.6625679,5.8719658 C 5.6660955,5.8719658 5.669627,5.8719658 5.6727136,5.8719658 L 5.6872727,5.7991745 C 5.6833003,5.7987336 5.6788908,5.7987336 5.6749184,5.7987336 C 5.6449223,5.7987336 5.6202176,5.8185879 5.6043397,5.8468202 L 5.6030169,5.8468202 C 5.6043397,5.8327021 5.6052216,5.818143 5.6061035,5.8035879 L 5.541257,5.8035879 C 5.5390483,5.8216745 5.5364026,5.8613792 5.5302255,5.8962257 L 5.5064066,6.0206317 L 5.5818397,6.0206317 L 5.5818395,6.0206312 z M 5.8672565,5.9540131 C 5.8487329,5.9628359 5.8279967,5.9672533 5.8059415,5.9672533 C 5.7887368,5.9672533 5.7755006,5.9632809 5.7671187,5.9557809 C 5.7631463,5.9518124 5.7605045,5.9465171 5.7596187,5.9416628 C 5.8487329,5.9443124 5.8981387,5.9218163 5.8981387,5.8675526 C 5.8981387,5.8234384 5.8628474,5.7987337 5.8174064,5.7987337 C 5.7358001,5.7987337 5.6881584,5.8653479 5.6881584,5.9315167 C 5.6881584,5.9919537 5.7230049,6.0251151 5.7869734,6.0251151 C 5.8085836,6.0251151 5.8425521,6.0220246 5.8716703,6.0078356 L 5.8672569,5.9540128 L 5.8672565,5.9540131 z M 5.8279967,5.8675525 C 5.8279967,5.8812297 5.8121148,5.8878478 5.7662369,5.8874029 C 5.7684416,5.8732887 5.7816778,5.8529974 5.8085834,5.8529974 C 5.8209377,5.8529974 5.8279968,5.8596116 5.8279968,5.8671155 L 5.8279968,5.8675525 L 5.8279967,5.8675525 z M 6.0997367,5.9540131 C 6.0812131,5.9628359 6.0604769,5.9672533 6.0384217,5.9672533 C 6.021217,5.9672533 6.0079808,5.9632809 5.9995989,5.9557809 C 5.9956304,5.9518124 5.9929847,5.9465171 5.9920989,5.9416628 C 6.0812131,5.9443124 6.1306189,5.9218163 6.1306189,5.8675526 C 6.1306189,5.8234384 6.0953276,5.7987337 6.0498866,5.7987337 C 5.9682803,5.7987337 5.9206386,5.8653479 5.9206386,5.9315167 C 5.9206386,5.9919537 5.9554851,6.0251151 6.0194536,6.0251151 C 6.0410638,6.0251151 6.0750363,6.0220246 6.1041505,6.0078356 L 6.0997371,5.9540128 L 6.0997367,5.9540131 z M 6.0604769,5.8675525 C 6.0604769,5.8812297 6.044595,5.8878478 5.9987171,5.8874029 C 6.0009218,5.8732887 6.014158,5.8529974 6.0410636,5.8529974 C 6.0534179,5.8529974 6.060477,5.8596116 6.060477,5.8671155 L 6.060477,5.8675525 L 6.0604769,5.8675525 z M 6.3344259,5.7074185 L 6.3154574,5.8035878 C 6.3061936,5.8000602 6.296485,5.7987335 6.2898708,5.7987335 C 6.205611,5.7987335 6.1522328,5.8675524 6.1522328,5.9425485 C 6.1522328,5.9985721 6.1857604,6.0255524 6.2206068,6.0255524 C 6.2435477,6.0255524 6.2695792,6.0166587 6.2885477,5.9888674 L 6.2894257,5.9888674 L 6.2872249,6.0206312 L 6.3560438,6.0206312 C 6.3573627,5.9928359 6.3608942,5.9597493 6.3666304,5.9297532 L 6.4089808,5.7074182 L 6.3344257,5.7074182 L 6.3344259,5.7074185 z M 6.2951621,5.9129935 C 6.2872251,5.9513715 6.2700164,5.9650447 6.2558983,5.9650447 C 6.2431109,5.9650447 6.2307566,5.9557809 6.2307566,5.9297534 C 6.2307566,5.894903 6.2519338,5.8556432 6.2841346,5.8556432 C 6.2925165,5.8556432 6.3008984,5.8587298 6.3053078,5.8622574 L 6.2951621,5.9129936 L 6.2951621,5.9129935 z M 6.5029381,6.0255525 C 6.5788161,6.0255525 6.6361661,5.9721037 6.6361661,5.8878475 C 6.6361661,5.8366743 6.599111,5.7987333 6.5408787,5.7987333 C 6.4610322,5.7987333 6.4072097,5.8591703 6.4072097,5.9354893 C 6.4072097,5.9919539 6.4469144,6.0255523 6.5024971,6.0255523 L 6.502938,6.0255523 L 6.5029381,6.0255525 z M 6.5126468,5.9685722 C 6.4950011,5.9685722 6.4852925,5.9553399 6.4852925,5.9341667 C 6.4852925,5.9076982 6.4985287,5.8556431 6.5311744,5.8556431 C 6.5505838,5.8556431 6.5580838,5.8706431 6.5580838,5.8887258 C 6.5580838,5.9196077 6.5439657,5.9685723 6.5130838,5.9685723 L 6.5126468,5.9685723 L 6.5126468,5.9685722 z M 6.7243908,6.0206313 L 6.7411546,5.9279896 C 6.7486546,5.886525 6.7667412,5.8587298 6.7857137,5.8587298 C 6.7967373,5.8587298 6.8011507,5.8675526 6.8011507,5.8807889 C 6.8011507,5.887848 6.7998278,5.8962259 6.7985011,5.9046078 L 6.7768909,6.0206318 L 6.8487964,6.0206318 L 6.8664421,5.9279901 C 6.8739421,5.8860807 6.8907019,5.8587303 6.9096704,5.8587303 C 6.920257,5.8587303 6.9259932,5.8675531 6.9259932,5.8794665 C 6.9259932,5.8874035 6.9246703,5.8962263 6.9233475,5.9046082 L 6.9021743,6.0206322 L 6.9749578,6.0206322 L 6.9978987,5.8949042 C 7.0001034,5.8843176 7.0018711,5.866231 7.0018711,5.8574081 C 7.0018711,5.8225577 6.9859892,5.7987349 6.9484892,5.7987349 C 6.9224656,5.7987349 6.8955522,5.8102073 6.8761427,5.8366758 C 6.8743789,5.8212349 6.8598238,5.7987349 6.8245325,5.7987349 C 6.7971782,5.7987349 6.7711545,5.8097664 6.7513002,5.8366758 L 6.7508593,5.8366758 L 6.7539498,5.8035892 L 6.6895404,5.8035892 C 6.6868987,5.8238805 6.6833672,5.8485853 6.6780758,5.8777034 L 6.6516073,6.0206324 L 6.7243908,6.0206324 L 6.7243908,6.0206313 z "
   style="fill:white;fill-rule:nonzero"
   id="path2040" />
  <path
   d="M 4.83785,4.09111 L 4.842535,4.195275 L 4.865972,4.195275 L 4.882157,4.1571451 C 4.8857791,4.1484089 4.8894011,4.137338 4.8930231,4.1247671 L 4.8936609,4.1247671 C 4.892594,4.137338 4.8919562,4.1482002 4.8921688,4.1571451 L 4.8936609,4.195275 L 4.9168774,4.195275 L 4.9626766,4.09111 L 4.9366923,4.09111 L 4.9207159,4.1369092 C 4.916027,4.1511809 4.9136844,4.1588501 4.9111254,4.1692872 L 4.9104876,4.1692872 C 4.9117671,4.158425 4.9119797,4.1533108 4.9119797,4.1390392 L 4.9115545,4.0911101 L 4.8911057,4.0911101 L 4.8708695,4.139677 C 4.8661805,4.1516061 4.8636254,4.1590628 4.8606451,4.1692872 L 4.8600034,4.1692872 C 4.8614955,4.1586376 4.8619207,4.1516061 4.8629837,4.137547 L 4.8655428,4.09111 L 4.8378499,4.09111 L 4.83785,4.09111 z M 4.983976,4.09111 L 4.988661,4.195275 L 5.012098,4.195275 L 5.028283,4.1571451 C 5.0319051,4.1484089 5.0355271,4.137338 5.0391491,4.1247671 L 5.0397869,4.1247671 C 5.03872,4.137338 5.0380822,4.1482002 5.0382948,4.1571451 L 5.0397869,4.195275 L 5.0630074,4.195275 L 5.1088027,4.09111 L 5.0828184,4.09111 L 5.066842,4.1369092 C 5.0621531,4.1511809 5.0598105,4.1588501 5.0572554,4.1692872 L 5.0566137,4.1692872 C 5.0578932,4.158425 5.0581058,4.1533108 5.0581058,4.1390392 L 5.0576806,4.0911101 L 5.0372318,4.0911101 L 5.0169956,4.139677 C 5.0123066,4.1516061 5.0097515,4.1590628 5.0067712,4.1692872 L 5.0061295,4.1692872 C 5.0076216,4.1586376 5.0080468,4.1516061 5.0091098,4.137547 L 5.0116689,4.09111 L 4.983976,4.09111 L 4.983976,4.09111 z M 5.130102,4.09111 L 5.134787,4.195275 L 5.158224,4.195275 L 5.174413,4.1571451 C 5.1780311,4.1484089 5.1816532,4.137338 5.1852752,4.1247671 L 5.185913,4.1247671 C 5.1848461,4.137338 5.1842083,4.1482002 5.1844209,4.1571451 L 5.185913,4.195275 L 5.2091335,4.195275 L 5.2549327,4.09111 L 5.2289445,4.09111 L 5.2129681,4.1369092 C 5.2082792,4.1511809 5.2059366,4.1588501 5.2033815,4.1692872 L 5.2027437,4.1692872 C 5.2040193,4.158425 5.2042319,4.1533108 5.2042319,4.1390392 L 5.2038067,4.0911101 L 5.1833579,4.0911101 L 5.1631217,4.139677 C 5.1584327,4.1516061 5.1558776,4.1590628 5.1528973,4.1692872 L 5.1522556,4.1692872 C 5.1537477,4.1586376 5.1541729,4.1516061 5.1552359,4.137547 L 5.157795,4.09111 L 5.1301021,4.09111 L 5.130102,4.09111 z M 5.270905,4.197012 C 5.2802751,4.197012 5.2885822,4.1893112 5.2885822,4.1769569 C 5.2885822,4.1671577 5.2832594,4.1599136 5.2726098,4.1599136 C 5.2634484,4.1599136 5.2555704,4.1697128 5.2555704,4.1797286 C 5.2555704,4.1897365 5.2608893,4.1970121 5.2706924,4.1970121 L 5.270905,4.1970121 L 5.270905,4.197012 z M 5.3138971,4.233264 C 5.3179798,4.2357837 5.3282042,4.2379136 5.3362987,4.2379136 C 5.3509956,4.2379136 5.3629247,4.2340829 5.3714483,4.2255593 C 5.3803932,4.216827 5.3859326,4.2031223 5.389342,4.1846262 L 5.4061688,4.0957955 C 5.3987121,4.0919609 5.3884877,4.0894058 5.3765586,4.0894058 C 5.3382161,4.0894058 5.3188303,4.1325082 5.319468,4.1654175 C 5.3198971,4.1818545 5.3269286,4.1952758 5.3414089,4.1952758 C 5.349716,4.1950633 5.3576018,4.191016 5.364842,4.1799373 L 5.3652672,4.1799373 L 5.3627121,4.1922916 C 5.3597318,4.2070277 5.3524877,4.2172522 5.3373656,4.2172522 C 5.3320388,4.2172522 5.3250113,4.2153348 5.3207475,4.2129923 L 5.3138971,4.233264 L 5.3138971,4.233264 z M 5.3699562,4.1511813 C 5.3682515,4.1598781 5.3622869,4.1741852 5.3539798,4.1741852 C 5.3465231,4.1741852 5.3458814,4.1654175 5.3458814,4.1577128 C 5.3460979,4.1400002 5.3563223,4.1100711 5.3718735,4.1100711 C 5.374216,4.1100711 5.3759207,4.1102837 5.3774089,4.1111341 L 5.3699561,4.1511813 L 5.3699562,4.1511813 z M 5.448346,4.1952758 L 5.458783,4.1401026 C 5.4624011,4.1202955 5.4709247,4.1111341 5.4771019,4.1111341 C 5.4815783,4.1111341 5.4834956,4.1145436 5.4834956,4.1194412 C 5.4834956,4.1234884 5.4830665,4.1268979 5.4822161,4.1305199 L 5.4700704,4.1952758 L 5.4967003,4.1952758 L 5.5086294,4.132012 C 5.5099089,4.1247679 5.5109719,4.1183781 5.5109719,4.112201 C 5.5109719,4.0998467 5.5056451,4.0894057 5.4907357,4.0894057 C 5.4796609,4.0894057 5.4698617,4.0949451 5.4626176,4.1045317 L 5.4621924,4.1045317 L 5.4632554,4.0911104 L 5.4404601,4.0911104 C 5.4389719,4.1011222 5.4374798,4.1128387 5.4351412,4.1249805 L 5.4217199,4.1952758 L 5.4483459,4.1952758 L 5.448346,4.1952758 z M 5.597669,4.0911108 L 5.5865942,4.1513943 C 5.5836139,4.1663077 5.576795,4.1752526 5.56998,4.1752526 C 5.5655036,4.1752526 5.5635863,4.1720597 5.5635863,4.1669455 C 5.5635863,4.1620439 5.5644406,4.1567211 5.5655036,4.1503274 L 5.5767949,4.0911109 L 5.5501689,4.0911109 L 5.5388776,4.1513944 C 5.5373894,4.1592763 5.5363225,4.1663078 5.5363225,4.1729101 C 5.5363225,4.186544 5.5422871,4.1970125 5.5561335,4.1970125 C 5.5659288,4.1970125 5.5755193,4.1920834 5.5831886,4.1810046 L 5.5836138,4.1812172 L 5.5827595,4.1952763 L 5.6057674,4.1952763 C 5.6070469,4.1852645 5.6087477,4.173548 5.6110902,4.1614062 L 5.6242989,4.0911109 L 5.597669,4.0911109 L 5.597669,4.0911108 z M 5.6562517,4.1970128 C 5.6656257,4.1970128 5.6739328,4.189312 5.6739328,4.1769577 C 5.6739328,4.1671585 5.668606,4.1599144 5.6579564,4.1599144 C 5.6487989,4.1599144 5.640917,4.1697136 5.640917,4.1797294 C 5.640917,4.1897373 5.6462398,4.1970129 5.656039,4.1970129 L 5.6562516,4.1970129 L 5.6562517,4.1970128 z M 5.7371966,4.1970128 C 5.7685116,4.1970128 5.7859801,4.1585679 5.7859801,4.1258711 C 5.7859801,4.1111349 5.7821454,4.0894065 5.7559407,4.0894065 C 5.7244171,4.0894065 5.7050313,4.1256545 5.7050313,4.1609419 C 5.7050313,4.1763199 5.7107833,4.1970128 5.7369841,4.1970128 L 5.7371967,4.1970128 L 5.7371966,4.1970128 z M 5.7395431,4.1767411 C 5.7316572,4.1767411 5.731232,4.1673356 5.731232,4.1598474 C 5.7310194,4.1417017 5.7399643,4.1094301 5.7514682,4.1094301 C 5.7580745,4.1094301 5.7597753,4.1156073 5.7597753,4.1224616 C 5.7597753,4.1412766 5.7527478,4.1767411 5.7397517,4.1767411 L 5.7395431,4.1767411 L 5.7395431,4.1767411 z M 5.8311337,4.1952765 L 5.8400825,4.1471348 C 5.8434919,4.1296663 5.8543542,4.116245 5.8658581,4.116245 C 5.8671376,4.116245 5.8692636,4.1164615 5.8701179,4.1166741 L 5.8752321,4.0898316 C 5.8739526,4.089623 5.872673,4.0894064 5.8709722,4.0894064 C 5.862236,4.0894064 5.8528659,4.095371 5.8451966,4.1085796 L 5.8443423,4.1085796 C 5.8451966,4.1021859 5.8456218,4.0966505 5.846047,4.0911111 L 5.8232557,4.0911111 C 5.8217636,4.1009103 5.8202715,4.1128394 5.817929,4.124556 L 5.8044723,4.1952765 L 5.8311337,4.1952765 L 5.8311337,4.1952765 z M 5.8794526,4.2332647 C 5.8835352,4.2357844 5.8937597,4.2379143 5.9018581,4.2379143 C 5.916555,4.2379143 5.9284801,4.2340836 5.9370038,4.22556 C 5.9459486,4.2168277 5.9514881,4.203123 5.9548975,4.1846269 L 5.9717243,4.0957962 C 5.9642715,4.0919616 5.9540471,4.0894065 5.9421141,4.0894065 C 5.9037755,4.0894065 5.8843897,4.1325089 5.8850275,4.1654183 C 5.8854527,4.1818552 5.8924841,4.1952765 5.9069684,4.1952765 C 5.9152754,4.195064 5.9231574,4.1910167 5.9303975,4.179938 L 5.9308266,4.179938 L 5.9282715,4.1922923 C 5.9252872,4.2070285 5.9180432,4.2172529 5.9029211,4.2172529 C 5.8975943,4.2172529 5.8905668,4.2153355 5.8863069,4.212993 L 5.8794525,4.2332647 L 5.8794526,4.2332647 z M 5.9355117,4.151182 C 5.9338069,4.1598789 5.9278424,4.1741859 5.9195353,4.1741859 C 5.9120825,4.1741859 5.9114408,4.1654182 5.9114408,4.1577135 C 5.9116534,4.1400009 5.9218817,4.1100718 5.937429,4.1100718 C 5.9397754,4.1100718 5.9414762,4.1102844 5.9429683,4.1111348 L 5.9355116,4.151182 L 5.9355117,4.151182 z M 6.0501137,4.035517 L 6.0501137,4.248564 L 6.0686452,4.248564 L 6.0686452,4.035517 L 6.0501137,4.035517 z M 6.1498027,4.0911115 L 6.1544877,4.1952765 L 6.1779247,4.1952765 L 6.1941137,4.1571466 C 6.1977318,4.1484104 6.2013539,4.1373395 6.2049759,4.1247686 L 6.2056137,4.1247686 C 6.2045468,4.1373395 6.203909,4.1482017 6.2041216,4.1571466 L 6.2056137,4.1952765 L 6.2288342,4.1952765 L 6.2746334,4.0911115 L 6.2486452,4.0911115 L 6.2326688,4.1369107 C 6.2279798,4.1511824 6.2256373,4.1588516 6.2230822,4.1692887 L 6.2224444,4.1692887 C 6.22372,4.1584265 6.2239326,4.1533123 6.2239326,4.1390407 L 6.2235074,4.0911116 L 6.2030586,4.0911116 L 6.1828224,4.1396785 C 6.1781334,4.1516076 6.1755783,4.1590643 6.172598,4.1692887 L 6.1719563,4.1692887 C 6.1734484,4.1586391 6.1738736,4.1516076 6.1749405,4.1375485 L 6.1774956,4.0911115 L 6.1498027,4.0911115 L 6.1498027,4.0911115 z M 6.2959327,4.0911115 L 6.3006138,4.1952765 L 6.3240508,4.1952765 L 6.3402398,4.1571466 C 6.3438579,4.1484104 6.3474799,4.1373395 6.351102,4.1247686 L 6.3517398,4.1247686 C 6.3506768,4.1373395 6.350039,4.1482017 6.3502476,4.1571466 L 6.3517398,4.1952765 L 6.3749603,4.1952765 L 6.4207595,4.0911115 L 6.3947713,4.0911115 L 6.3787949,4.1369107 C 6.3741059,4.1511824 6.3717634,4.1588516 6.3692082,4.1692887 L 6.3685704,4.1692887 C 6.369846,4.1584265 6.3700586,4.1533123 6.3700586,4.1390407 L 6.3696334,4.0911116 L 6.3491846,4.0911116 L 6.3289484,4.1396785 C 6.3242634,4.1516076 6.3217083,4.1590643 6.318724,4.1692887 L 6.3180823,4.1692887 C 6.3195744,4.1586391 6.3199996,4.1516076 6.3210666,4.1375485 L 6.3236256,4.0911115 L 6.2959327,4.0911115 L 6.2959327,4.0911115 z M 6.4420587,4.0911115 L 6.4467398,4.1952765 L 6.4701768,4.1952765 L 6.4863658,4.1571466 C 6.4899839,4.1484104 6.4936098,4.1373395 6.497228,4.1247686 L 6.4978658,4.1247686 C 6.4968028,4.1373395 6.496165,4.1482017 6.4963736,4.1571466 L 6.4978658,4.1952765 L 6.5210863,4.1952765 L 6.5668855,4.0911115 L 6.5408973,4.0911115 L 6.5249209,4.1369107 C 6.5202319,4.1511824 6.5178894,4.1588516 6.5153342,4.1692887 L 6.5146964,4.1692887 C 6.515972,4.1584265 6.5161886,4.1533123 6.5161886,4.1390407 L 6.5157594,4.0911116 L 6.4953106,4.0911116 L 6.4750744,4.1396785 C 6.4703894,4.1516076 6.4678343,4.1590643 6.46485,4.1692887 L 6.4642083,4.1692887 C 6.4657004,4.1586391 6.4661256,4.1516076 6.4671926,4.1375485 L 6.4697516,4.0911115 L 6.4420587,4.0911115 L 6.4420587,4.0911115 z M 6.5828577,4.1970135 C 6.5922317,4.1970135 6.6005388,4.1893127 6.6005388,4.1769584 C 6.6005388,4.1671592 6.595212,4.1599151 6.5845624,4.1599151 C 6.5754049,4.1599151 6.567523,4.1697143 6.567523,4.1797301 C 6.567523,4.189738 6.5728458,4.1970136 6.582645,4.1970136 L 6.5828576,4.1970136 L 6.5828577,4.1970135 z M 6.6576254,4.1952773 L 6.6738144,4.1100726 L 6.693838,4.1100726 L 6.6972435,4.091112 L 6.6772238,4.091112 L 6.6780742,4.0868521 C 6.6795663,4.0774821 6.6853183,4.0674663 6.6946884,4.0674663 C 6.6983143,4.0674663 6.7006529,4.0678915 6.7029955,4.0687459 L 6.7091766,4.0482971 C 6.7059797,4.0472341 6.7008695,4.0461672 6.693838,4.0461672 C 6.683401,4.0461672 6.674027,4.0497892 6.6676372,4.0555412 C 6.6589049,4.0638483 6.6542159,4.0744979 6.6518734,4.0870648 L 6.651023,4.091112 L 6.6369639,4.091112 L 6.6335544,4.1100726 L 6.6474009,4.1100726 L 6.6312119,4.1952773 L 6.6576253,4.1952773 L 6.6576254,4.1952773 z M 6.6993419,4.19123 C 6.7029954,4.1937852 6.7115151,4.1965922 6.7211017,4.1965922 C 6.74496,4.1965922 6.7609363,4.1837733 6.7609363,4.1607339 C 6.7609363,4.152604 6.7571016,4.1423402 6.7453891,4.1333599 C 6.7404875,4.1295292 6.7375072,4.1260844 6.7375072,4.1209701 C 6.7375072,4.1139032 6.74283,4.1094307 6.7513497,4.1094307 C 6.7556134,4.1094307 6.7605111,4.1109229 6.763704,4.1126276 L 6.7694559,4.0934189 C 6.7656213,4.0910764 6.7588063,4.0894071 6.7498614,4.0894071 C 6.7262118,4.0894071 6.7113063,4.1049937 6.7113063,4.1241669 C 6.7113063,4.1329346 6.7153496,4.1423401 6.724511,4.1496197 C 6.7317551,4.1553756 6.7345228,4.1592063 6.7345228,4.1652063 C 6.7345228,4.1716315 6.730263,4.1765331 6.7225937,4.1767417 C 6.715141,4.1769582 6.7100268,4.1748244 6.705763,4.1724858 L 6.6993418,4.1912299 L 6.6993419,4.19123 z M 6.8150429,4.1952773 L 6.8312319,4.1100726 L 6.8512555,4.1100726 L 6.8546649,4.091112 L 6.8346413,4.091112 L 6.8354956,4.0868521 C 6.8369838,4.0774821 6.8427358,4.0674663 6.8521098,4.0674663 C 6.8557319,4.0674663 6.8580744,4.0678915 6.8604169,4.0687459 L 6.8665941,4.0482971 C 6.8633973,4.0472341 6.858287,4.0461672 6.8512555,4.0461672 C 6.8408185,4.0461672 6.8314484,4.0497892 6.8250586,4.0555412 C 6.8163224,4.0638483 6.8116373,4.0744979 6.8092909,4.0870648 L 6.8084444,4.091112 L 6.7943814,4.091112 L 6.7909759,4.1100726 L 6.8048184,4.1100726 L 6.7886294,4.1952773 L 6.8150428,4.1952773 L 6.8150429,4.1952773 z M 6.868724,4.1970135 C 6.878094,4.1970135 6.8864051,4.1893127 6.8864051,4.1769584 C 6.8864051,4.1671592 6.8810783,4.1599151 6.8704287,4.1599151 C 6.8612712,4.1599151 6.8533893,4.1697143 6.8533893,4.1797301 C 6.8533893,4.189738 6.8587121,4.1970136 6.8685113,4.1970136 L 6.8687239,4.1970136 L 6.868724,4.1970135 z M 6.9496689,4.1970135 C 6.9809839,4.1970135 6.9984484,4.1585686 6.9984484,4.1258718 C 6.9984484,4.1111356 6.9946137,4.0894072 6.968413,4.0894072 C 6.9368894,4.0894072 6.9175036,4.1256552 6.9175036,4.1609426 C 6.9175036,4.1763206 6.9232555,4.1970135 6.9494564,4.1970135 L 6.949669,4.1970135 L 6.9496689,4.1970135 z M 6.9520153,4.1767418 C 6.9441295,4.1767418 6.9437043,4.1673363 6.9437043,4.1598481 C 6.9434917,4.1417024 6.9524366,4.1094308 6.9639405,4.1094308 C 6.9705468,4.1094308 6.9722476,4.115608 6.9722476,4.1224623 C 6.9722476,4.1412773 6.96522,4.1767418 6.952224,4.1767418 L 6.9520153,4.1767418 L 6.9520153,4.1767418 z M 7.0436059,4.1952772 L 7.0525547,4.1471355 C 7.0559642,4.129667 7.0668264,4.1162457 7.0783264,4.1162457 C 7.079606,4.1162457 7.0817359,4.1164622 7.0825902,4.1166748 L 7.0877044,4.0898323 C 7.0864249,4.0896237 7.0851453,4.0894071 7.0834406,4.0894071 C 7.0747083,4.0894071 7.0653382,4.0953717 7.0576689,4.1085803 L 7.0568146,4.1085803 C 7.0576689,4.1021866 7.0580941,4.0966512 7.0585193,4.0911118 L 7.035728,4.0911118 C 7.0342359,4.100911 7.0327437,4.1128401 7.0304012,4.1245567 L 7.0169445,4.1952772 L 7.0436059,4.1952772 L 7.0436059,4.1952772 z M 7.0919248,4.2332654 C 7.0960075,4.2357851 7.1062319,4.237915 7.1143303,4.237915 C 7.1290272,4.237915 7.1409523,4.2340843 7.149476,4.2255607 C 7.1584209,4.2168284 7.1639603,4.2031237 7.1673697,4.1846276 L 7.1841965,4.0957969 C 7.1767438,4.0919623 7.1665154,4.0894072 7.1545863,4.0894072 C 7.1162477,4.0894072 7.0968619,4.1325096 7.0974997,4.165419 C 7.0979249,4.181856 7.1049564,4.1952773 7.1194406,4.1952773 C 7.1277477,4.1950647 7.1356296,4.1910174 7.1428697,4.1799387 L 7.1432989,4.1799387 L 7.1407437,4.192293 C 7.1377595,4.2070292 7.1305154,4.2172536 7.1153933,4.2172536 C 7.1100666,4.2172536 7.103039,4.2153362 7.0987791,4.2129937 L 7.0919248,4.2332654 L 7.0919248,4.2332654 z M 7.1479839,4.1511827 C 7.1462792,4.1598796 7.1403146,4.1741866 7.1320075,4.1741866 C 7.1245548,4.1741866 7.123913,4.1654189 7.123913,4.1577142 C 7.1241256,4.1400016 7.13435,4.1100725 7.1499012,4.1100725 C 7.1522477,4.1100725 7.1539485,4.1102851 7.1554406,4.1111355 L 7.1479839,4.1511827 L 7.1479839,4.1511827 z "
   style="fill:#052638;fill-rule:nonzero"
   id="path2042" />
 </g>
</svg>